<?xml version="1.0" standalone="no"?>
<!DOCTYPE svg PUBLIC "-//W3C//DTD SVG 20010904//EN"
 "http://www.w3.org/TR/2001/REC-SVG-20010904/DTD/svg10.dtd">
<svg version="1.0" xmlns="http://www.w3.org/2000/svg"
 width="1498.000000pt" height="1498.000000pt" viewBox="0 0 1498.000000 1498.000000"
 preserveAspectRatio="xMidYMid meet">
<metadata>
Created by potrace 1.11, written by Peter Selinger 2001-2013
</metadata>
<g transform="translate(0.000000,1498.000000) scale(0.100000,-0.100000)"
fill="#000000" stroke="none">
<path d="M3769 12975 c-2 -1 -34 -5 -71 -9 -38 -3 -112 -15 -165 -26 -812
-169 -1416 -832 -1512 -1660 -11 -95 -11 -338 -1 -410 5 -30 11 -73 14 -95 35
-276 181 -621 363 -858 73 -95 81 -104 183 -205 285 -284 636 -460 1060 -533
83 -15 443 -18 525 -5 28 4 84 14 125 23 41 8 82 16 91 18 88 17 277 89 404
152 453 228 813 658 960 1145 33 109 63 250 72 343 14 142 7 447 -12 515 -2 8
-6 33 -10 54 -32 218 -179 565 -317 751 -309 414 -717 677 -1193 769 -44 9
-93 18 -110 22 -32 6 -401 15 -406 9z m346 -618 c467 -78 843 -379 1016 -813
65 -164 84 -280 83 -494 -1 -179 -17 -271 -75 -433 -142 -392 -481 -699 -895
-808 -107 -28 -165 -34 -329 -34 -155 0 -209 5 -308 31 -427 110 -764 415
-911 824 -30 81 -55 181 -62 245 -3 22 -7 51 -10 65 -6 37 -6 228 2 280 34
252 137 496 287 678 46 55 158 161 229 215 120 91 343 197 468 221 14 3 57 11
95 19 67 14 337 16 410 4z"/>
<path d="M10916 12968 c-328 -40 -647 -166 -903 -355 -111 -81 -111 -81 -228
-199 -307 -306 -496 -697 -546 -1129 -14 -123 -12 -354 4 -460 3 -16 8 -50 12
-75 3 -25 15 -81 25 -125 109 -463 394 -871 803 -1149 38 -25 72 -46 77 -46 5
0 15 -6 22 -13 15 -14 155 -83 244 -120 130 -55 337 -107 493 -125 133 -15
462 -6 532 14 10 3 30 6 46 8 17 2 75 16 129 30 439 117 835 398 1093 776 26
38 131 218 131 225 0 2 14 34 32 72 75 163 136 392 154 578 17 179 7 397 -28
570 -129 654 -605 1203 -1234 1425 -82 29 -206 63 -269 74 -16 3 -41 8 -55 11
-66 13 -119 17 -285 19 -99 2 -211 -1 -249 -6z m434 -613 c198 -35 421 -132
577 -251 64 -49 182 -165 226 -224 23 -30 45 -57 48 -60 3 -3 26 -39 51 -80
57 -96 125 -256 143 -339 3 -11 8 -31 11 -43 38 -152 39 -405 2 -568 -5 -25
-11 -52 -13 -60 -9 -46 -60 -180 -91 -243 -146 -290 -423 -542 -707 -643 -176
-63 -303 -83 -492 -79 -268 5 -479 73 -707 228 -472 319 -678 935 -496 1482
130 392 437 701 824 829 95 31 103 33 214 51 84 14 332 14 410 0z"/>
<path d="M8629 9033 c-15 -18 -526 -516 -678 -661 -42 -41 -154 -150 -249
-243 -95 -93 -176 -169 -180 -169 -8 0 -51 41 -586 564 -392 383 -464 452
-503 489 l-30 28 -63 -78 c-35 -43 -129 -143 -208 -222 l-143 -144 113 -110
c124 -120 681 -665 1013 -991 245 -241 288 -269 404 -269 38 0 84 6 102 13 77
31 74 29 540 483 307 300 766 747 840 819 38 36 65 68 60 70 -32 11 -296 287
-398 416 -17 22 -19 22 -34 5z"/>
<path d="M13474 8916 c-72 -72 -171 -165 -221 -206 -54 -44 -88 -80 -85 -86 4
-7 95 -102 202 -212 107 -110 305 -314 440 -453 135 -139 281 -289 325 -334
44 -45 88 -92 99 -103 18 -21 17 -22 -150 -193 -93 -94 -198 -202 -234 -238
-36 -37 -202 -208 -370 -380 -168 -172 -306 -316 -308 -320 -1 -4 35 -39 80
-77 46 -38 144 -131 219 -206 l137 -137 318 326 c176 180 407 416 514 525 459
469 480 492 508 548 48 98 36 235 -28 317 -12 15 -135 145 -275 288 -139 143
-283 292 -320 330 -37 39 -190 195 -339 348 -149 153 -296 305 -327 336 l-56
57 -129 -130z"/>
<path d="M1399 9023 c-14 -16 -308 -303 -797 -778 -513 -498 -559 -546 -582
-610 -17 -47 -21 -74 -17 -122 17 -204 195 -325 397 -272 46 12 124 79 352
301 139 135 296 287 348 338 52 51 226 219 385 374 160 156 306 298 325 316
l35 33 -140 141 c-146 147 -191 195 -238 259 -31 41 -45 45 -68 20z"/>
<path d="M10969 5806 c-2 -2 -35 -6 -73 -10 -38 -4 -72 -8 -75 -11 -4 -2 -30
-7 -57 -11 -115 -15 -333 -90 -484 -166 -84 -42 -277 -160 -290 -177 -3 -4
-25 -22 -50 -41 -25 -18 -95 -83 -155 -144 -164 -165 -276 -322 -372 -523 -29
-61 -53 -118 -53 -125 0 -8 -4 -18 -9 -23 -13 -15 -59 -169 -80 -270 -17 -80
-26 -131 -37 -230 -5 -42 -5 -326 0 -350 2 -11 7 -47 11 -80 31 -266 137 -550
293 -787 280 -424 697 -711 1197 -824 197 -44 519 -53 705 -18 14 2 41 7 60
10 55 9 178 42 260 70 84 29 286 121 311 141 8 7 19 13 23 13 17 0 221 147
298 214 133 116 281 287 354 409 16 27 37 63 48 80 100 169 200 450 231 652
24 161 24 467 -1 589 -2 12 -7 37 -10 56 -3 19 -7 43 -10 52 -5 16 -10 37 -19
84 -10 44 -54 173 -85 249 -68 163 -158 314 -270 454 -109 136 -203 229 -335
330 -22 17 -44 34 -50 39 -92 71 -256 159 -417 223 -225 89 -433 127 -694 128
-89 0 -163 -1 -165 -3z m366 -610 c17 -4 53 -11 82 -17 142 -28 315 -102 456
-196 102 -67 272 -240 343 -348 155 -234 225 -477 218 -760 -1 -77 -5 -150 -8
-161 -2 -12 -7 -39 -10 -60 -20 -128 -101 -335 -179 -455 -251 -390 -662 -611
-1123 -604 -490 7 -920 280 -1143 723 -125 250 -166 560 -111 840 16 81 17 85
45 167 114 343 385 637 715 778 105 44 236 82 315 92 33 3 62 8 64 10 6 7 303
-2 336 -9z"/>
</g>
</svg>
