<svg xmlns="http://www.w3.org/2000/svg" xmlns:xlink="http://www.w3.org/1999/xlink" viewBox="0 0 565.3 820.6">
  <defs>
    <linearGradient id="a" x1="461.7" x2="556.3" y1="74.3" y2="74.3" gradientUnits="userSpaceOnUse">
      <stop offset="0" stop-color="#cac9c9"/>
      <stop offset=".4" stop-color="#c4c3c3"/>
      <stop offset="1" stop-color="#b3b2b2"/>
    </linearGradient>
    <linearGradient id="b" x1="116.5" x2="796.9" y1="523.6" y2="-304.6" xlink:href="#a"/>
    <linearGradient id="c" x1="71.8" x2="533.1" y1="250.8" y2="552.4" gradientUnits="userSpaceOnUse">
      <stop offset="0" stop-color="#6c71b4"/>
      <stop offset="1" stop-color="#494e9c"/>
    </linearGradient>
    <linearGradient id="d" x1="64.7" x2="527.6" y1="421.6" y2="421.6" gradientUnits="userSpaceOnUse">
      <stop offset="0" stop-color="#fdfdfd"/>
      <stop offset=".3" stop-color="#f7f7f7"/>
      <stop offset=".6" stop-color="#e8e4e5"/>
      <stop offset="1" stop-color="#d0c9cb"/>
    </linearGradient>
    <clipPath id="e">
      <path fill="none" d="M135.9 627.6l-.7-266.6 316-182.5.8 266.6-316.1 182.5z"/>
    </clipPath>
  </defs>
  <g style="isolation:isolate">
    <path fill="url(#a)" d="M544.3 80.9a4708.3 4708.3 0 0 1-14.8-8.6 19.8 19.8 0 0 0-12.8-2.1 84.7 84.7 0 0 1-55-9.5l26.8 15.6a84.8 84.8 0 0 0 55 9.4 19.7 19.7 0 0 1 12.8 2.2l-12-7z"/>
    <path fill="url(#b)" d="M395.6 2.5a1510 1510 0 0 0-126.9 62.7A1859.6 1859.6 0 0 0 142 149c-14 10-24.9 28.3-29.5 46.2a365.9 365.9 0 0 1-91.2 161.2C8.7 369.1-.4 387.7 0 403c5 175.2 54.6 324.8 149 379.7l26.8 15.5c-94.4-54.9-144-204.5-149-379.7-.4-15.2 8.7-33.8 21.3-46.6a366 366 0 0 0 91.2-161.2 84.5 84.5 0 0 1 29.5-46.3c38.2-27.2 91.5-63.3 126.7-83.6C330.7 60.5 384.1 35 422.4 18c7.8-3.5 14.8-3.2 20.2-.1L415.8 2.4c-5.4-3.1-12.4-3.4-20.2.1z"/>
    <path fill="url(#c)" d="M295.5 80.8C330.7 60.5 384.1 35 422.4 18c13.8-6 24.9-.7 29.4 11.8 15.1 41.3 48.9 61.7 91.7 55.8 12.7-1.7 22.2 6.1 21.8 22-5.2 235.9-86.7 516.2-246 687.2a95.5 95.5 0 0 1-21.7 17.7 52.7 52.7 0 0 1-21.7 7.4C116.1 833 33.3 647.7 26.8 418.5c-.4-15.2 8.7-33.8 21.3-46.6a366 366 0 0 0 91.2-161.2 84.5 84.5 0 0 1 29.5-46.3c38.2-27.2 91.5-63.3 126.7-83.6z"/>
  </g>
  <path fill="url(#d)" d="M295.7 122.3c26.4-15.3 65-34.2 98.3-49.5 14.2-6.5 25.8-1.6 32 9.6a94.6 94.6 0 0 0 82 51c12.3.4 20.4 10.2 19.5 26.6-10.6 197.4-76.6 436-209 589a83.7 83.7 0 0 1-21 17.9 43 43 0 0 1-21 6.4c-133 .2-200-161.6-211.7-346.2-1-15.6 7.7-35.1 20-50A456.6 456.6 0 0 0 166 231.4a91.5 91.5 0 0 1 31.5-45 1606 1606 0 0 1 98.3-64z"/>
  <g clip-path="url(#e)" style="clip-path:url(#e)">
    <path fill="#ed695d" d="M165.9 439.5L138 486.7c-2.4 4-2.4 8.5-.1 10 1.1.6 2.7.5 4.3-.5a12.2 12.2 0 0 0 4.3-4.4l27.6-47a32.4 32.4 0 0 1-8.3-5.3"/>
    <path fill="#ed685d" d="M142.3 496.2c-1.6 1-3.2 1.1-4.3.4-2.3-1.4-2.3-5.8 0-9.9l27.9-47.2a32.4 32.4 0 0 0 8.3 5.3l-27.6 47a12.2 12.2 0 0 1-4.3 4.4m23.6-58l-28.3 48.2c-2.7 4.6-2.7 9.5-.1 11v.1c1.3.8 3 .6 4.8-.4a13.7 13.7 0 0 0 4.8-5l28.2-47.9-.3-.1a32.3 32.3 0 0 1-8.8-5.6l-.3-.2"/>
    <path fill="#ed695d" d="M317.8 351.8l-23.6 40.1-23.5-12.7a166.6 166.6 0 0 1-8.3 14.9l27.5 15a4.6 4.6 0 0 0 4.4-.6 12.2 12.2 0 0 0 4.2-4.4l27.7-47a32.8 32.8 0 0 1-8.4-5.3"/>
    <path fill="#ed685d" d="M294.2 392l23.6-40.2a32.8 32.8 0 0 0 8.4 5.3l-27.7 47a12.2 12.2 0 0 1-4.2 4.4 4.6 4.6 0 0 1-4.4.5l-27.5-15a166.6 166.6 0 0 0 8.3-14.8l23.5 12.7m23.7-41.4l-23.7 40.3-23.6-12.8-.3.5a164.8 164.8 0 0 1-8.7 15.7l-.3.4 28.2 15.3c1.2.7 3 .5 4.8-.6a13.7 13.7 0 0 0 4.7-4.9l28.2-48h-.3a32 32 0 0 1-8.8-5.6l-.2-.3"/>
    <path fill="#ed695d" d="M218 328.3c15.2-8.8 27.5-1.7 27.6 15.6s-12.2 38.6-27.3 47.4-27.5 1.7-27.5-15.7S203 337 218 328.3m0-14.3c-22 12.7-39.9 43.5-39.8 68.8s18 35.5 40 22.8 39.8-43.6 39.7-68.8-18-35.5-40-22.8"/>
    <path fill="#ed685d" d="M218.3 405.6c-22 12.7-40 2.4-40-22.8s17.8-56.1 39.7-68.8 40-2.5 40 22.8-17.7 56-39.7 68.8m-.3-92.4c-22.3 12.9-40.5 44.3-40.4 70s18.3 36 40.7 23.2 40.5-44.3 40.4-70-18.3-36.2-40.7-23.2"/>
    <path fill="#ed695d" d="M370 240.6c15.2-8.8 27.5-1.8 27.5 15.6s-12.2 38.6-27.3 47.3c-15.1 8.8-27.4 1.8-27.5-15.6s12.2-38.6 27.3-47.3m0-14.3c-22 12.6-39.8 43.5-39.7 68.8s18 35.4 40 22.7S410 274.3 410 249s-18-35.4-40-22.7"/>
    <path fill="#ed685d" d="M370.2 317.8c-22 12.7-39.9 2.5-40-22.7s17.8-56.2 39.8-68.8 39.9-2.5 40 22.7-17.8 56.2-39.8 68.8m-.2-92.4c-22.4 13-40.5 44.4-40.5 70s18.4 36.2 40.7 23.3 40.5-44.4 40.5-70-18.4-36.2-40.7-23.3"/>
    <path fill="#ed695d" d="M422.1 291.6a165.4 165.4 0 0 1-8.8 14.6l23.1 14-.2.3-22.6 39.8a32.2 32.2 0 0 1 8.8 4.5l26.8-47a12.7 12.7 0 0 0 1.7-6 4.3 4.3 0 0 0-1.7-4l-27-16.2"/>
    <path fill="#ed685d" d="M422.4 364.8a32.2 32.2 0 0 0-8.8-4.5l22.6-39.8.2-.4-23-14a165.4 165.4 0 0 0 8.7-14.5l27 16.3a4.3 4.3 0 0 1 1.8 3.8 12.7 12.7 0 0 1-1.7 6l-26.8 47.1m-.3-74.4l-.3.5a164 164 0 0 1-9.2 15.4l-.3.4 23.2 14-23 40.3.4.1a32.1 32.1 0 0 1 9.2 4.7l.3.2 27.3-48a14.2 14.2 0 0 0 1.9-6.7c0-2-.7-3.5-2-4.3l-27.5-16.6"/>
    <path fill="#ed695d" d="M370.5 413.9c15.1-8.7 27.5-1.7 27.5 15.7a60.2 60.2 0 0 1-27.3 47.3c-15.1 8.7-27.4 1.7-27.5-15.7a60.2 60.2 0 0 1 27.3-47.3m0-14.3a87.7 87.7 0 0 0-39.7 68.8c0 25.2 18 35.5 40 22.8s39.7-43.6 39.7-68.8c-.1-25.3-18-35.5-40-22.8"/>
    <path fill="#ed685d" d="M370.7 491.2c-22 12.7-39.9 2.4-40-22.8 0-25.3 17.8-56.1 39.8-68.8s39.9-2.5 40 22.8a87.7 87.7 0 0 1-39.8 68.8m-.2-92.4a89.2 89.2 0 0 0-40.5 70c.1 25.7 18.4 36.1 40.7 23.2s40.5-44.3 40.5-70c-.1-25.7-18.4-36.1-40.7-23.2"/>
  </g>
</svg>