<svg xmlns="http://www.w3.org/2000/svg" xmlns:xlink="http://www.w3.org/1999/xlink" viewBox="0 0 566.1 320.8">
  <defs>
    <linearGradient id="a" x1="250" x2="295.8" y1="81.7" y2="51.3" gradientUnits="userSpaceOnUse">
      <stop offset="0" stop-color="#717070"/>
      <stop offset="1" stop-color="#bcbcbb"/>
    </linearGradient>
    <linearGradient id="f" x1="290.8" x2="214.1" y1="89.9" y2="92.4" gradientUnits="userSpaceOnUse">
      <stop offset=".4" stop-color="#bcbcbb"/>
      <stop offset=".9" stop-color="#717070"/>
    </linearGradient>
    <linearGradient id="g" x1="135.3" x2="296.8" y1="40.1" y2="55.7" xlink:href="#a"/>
    <linearGradient id="b" x1="154.7" x2="60.6" y1="286.3" y2="289.3" gradientUnits="userSpaceOnUse">
      <stop offset=".4" stop-color="#7786c2"/>
      <stop offset=".9" stop-color="#5354a0"/>
    </linearGradient>
    <linearGradient id="h" x1="247.1" x2="156.9" y1="286.2" y2="289.2" xlink:href="#b"/>
    <linearGradient id="i" x1="264.9" x2="222.9" y1="240.5" y2="241.8" xlink:href="#b"/>
    <linearGradient id="j" x1="78" x2="137.9" y1="247.6" y2="247.6" xlink:href="#b"/>
    <linearGradient id="k" x1="264.3" x2="288.4" y1="242.9" y2="242.9" xlink:href="#b"/>
    <linearGradient id="c" x1="286.9" x2="62.2" y1="240" y2="247.3" gradientUnits="userSpaceOnUse">
      <stop offset="0" stop-color="#dadada"/>
      <stop offset="1" stop-color="#f6f6f6"/>
    </linearGradient>
    <clipPath id="l">
      <path fill="none" d="M137.8 238.4l31.1-18.1 42.1 24.3-31.1 18.1-42.1-24.3z"/>
    </clipPath>
    <linearGradient id="m" x1="263.6" x2="263.6" y1="241.4" y2="241.4" xlink:href="#b"/>
    <linearGradient id="n" x2="78.5" y1="152.8" y2="152.8" xlink:href="#b"/>
    <linearGradient id="o" x1="213" x2="79" y1="125" y2="125" xlink:href="#b"/>
    <linearGradient id="p" x2="213.3" y1="110.9" y2="110.9" xlink:href="#c"/>
    <linearGradient id="q" x1="150.7" x2="79.4" y1="169.1" y2="171.4" xlink:href="#b"/>
    <clipPath id="r">
      <path fill="none" d="M45.8 123.2l31.1-18.1 42.1 24.3-31.1 18.1-42.1-24.3z"/>
    </clipPath>
    <linearGradient id="s" x1="277.3" x2="489.1" y1="210.1" y2="210.1" xlink:href="#b"/>
    <linearGradient id="t" x1="413.7" x2="438.4" y1="150" y2="150" gradientUnits="userSpaceOnUse">
      <stop offset="0" stop-color="#a0a09f"/>
      <stop offset="1" stop-color="#e5e4e4"/>
    </linearGradient>
    <linearGradient id="u" x1="281.1" x2="304.7" y1="181.5" y2="181.5" xlink:href="#b"/>
    <linearGradient id="v" x1="277.3" x2="489.1" y1="182.1" y2="182.1" xlink:href="#c"/>
    <clipPath id="w">
      <path fill="none" d="M316.5 194.9l29.7-17.3 40.2 23.2-29.7 17.3-40.2-23.2z"/>
    </clipPath>
    <linearGradient id="d" x1="706.5" x2="783.8" y1="198.4" y2="198.4" gradientTransform="matrix(-1 0 0 .86742 1272.6 -22.4)" gradientUnits="userSpaceOnUse">
      <stop offset="0" stop-color="#bcbcbb"/>
      <stop offset=".9" stop-color="#717070"/>
    </linearGradient>
    <linearGradient id="x" x1="417.9" x2="441.5" y1="102.4" y2="102.4" xlink:href="#d"/>
    <linearGradient id="e" x1="454.7" x2="454.9" y1="157" y2="157" gradientUnits="userSpaceOnUse">
      <stop offset="0" stop-color="#bcbcbb"/>
      <stop offset="1" stop-color="#717070"/>
    </linearGradient>
    <linearGradient id="y" x1="706.5" x2="863.3" y1="-1257.5" y2="-1257.5" gradientTransform="rotate(180 636.3 -568.3)" xlink:href="#e"/>
  </defs>
  <g style="isolation:isolate">
    <path fill="#888989" d="M157.9 63.3l-.1 10.9-27.2-15.8V47.6l27.3 15.7z"/>
    <g style="isolation:isolate">
      <path fill="#fff" d="M208.7 66.5v10.8c0-3.7-3.2-7.9-9.1-11.3-9.7-5.6-23.2-6.9-30-2.9-2.8 1.6-4 3.7-4.1 6.1V58.4c0-2.4 1.3-4.5 4-6.1 7-4 20.4-2.8 30.1 2.8 6 3.5 9 7.7 9 11.4z" style="fill:#fff"/>
    </g>
    <g style="isolation:isolate">
      <path fill="#fff" d="M165.7 60V71a3.8 3.8 0 0 1-2.2 3.3 6.2 6.2 0 0 1-5.7 0V63.3a6.2 6.2 0 0 0 5.7 0 3.8 3.8 0 0 0 2.2-3.3z" style="fill:#fff"/>
    </g>
    <path fill="url(#a)" d="M267.8 63.4a2 2 0 0 0-1.2 1.6v10.8a2 2 0 0 1 1.1-1.6l27.1-15.7V47.6z"/>
    <g style="isolation:isolate">
      <path fill="#fff" d="M184.3 78.6v10.9a1.8 1.8 0 0 1-1-1.5V77a1.8 1.8 0 0 0 1 1.5z" style="fill:#fff"/>
    </g>
    <path fill="url(#f)" d="M282 87.6c-9.6 5.6-23 6.5-30 2.5a7.5 7.5 0 0 1-3.4-3.7v-5.2a3.1 3.1 0 0 0-1.8-2.7 6.1 6.1 0 0 0-5.3.1L213 95.2V106l28.4-16.5a5.6 5.6 0 0 1 5.1 0 3.9 3.9 0 0 1 1.4 1.2v4.4c0 2.4 1.3 4.6 4 6.2 7 4 20.5 2.7 30.1-2.9 5.8-3.4 9-7.5 9-11.2V76.4c0 3.6-3.1 7.8-9 11.2z"/>
    <path fill="#888989" d="M213 95.2V106l-28.7-16.5V78.6L213 95.2z"/>
    <path fill="url(#g)" d="M295 47.6l-27.2 15.7c-1.5 1-1.5 2.4 0 3.3a12.8 12.8 0 0 0 6.8 1.2 23 23 0 0 1 12.3 2.3c7 4 4.8 11.8-4.8 17.4-9.6 5.6-23.1 7-30 3-3.6-2.1-4.8-5.2-3.8-8.4a3 3 0 0 0-1.7-3.5 5.6 5.6 0 0 0-5 0L213 95.2l-28.6-16.6c-1.4-.8-1.4-2.2 0-3a10.5 10.5 0 0 1 6-1c5.6.6 10.4 0 14-2 6.8-4 5-11.9-4.7-17.5s-23.2-6.9-30-2.9c-3.2 1.9-4.5 4.4-4 7.2a3.8 3.8 0 0 1-2.1 3.9 6.2 6.2 0 0 1-5.7 0l-27.2-15.7L212.5 0z"/>
    <path fill="url(#g)" d="M295 47.6l-27.2 15.7c-1.5 1-1.5 2.4 0 3.3a12.8 12.8 0 0 0 6.8 1.2 23 23 0 0 1 12.3 2.3c7 4 4.8 11.8-4.8 17.4-9.6 5.6-23.1 7-30 3-3.6-2.1-4.8-5.2-3.8-8.4a3 3 0 0 0-1.7-3.5 5.6 5.6 0 0 0-5 0L213 95.2l-28.6-16.6c-1.4-.8-1.4-2.2 0-3a10.5 10.5 0 0 1 6-1c5.6.6 10.4 0 14-2 6.8-4 5-11.9-4.7-17.5s-23.2-6.9-30-2.9c-3.2 1.9-4.5 4.4-4 7.2a3.8 3.8 0 0 1-2.1 3.9 6.2 6.2 0 0 1-5.7 0l-27.2-15.7L212.5 0z"/>
  </g>
  <path fill="url(#b)" d="M57.9 265.6l98.2 55.2v-10.5l-98.2-55.5v10.8z"/>
  <path fill="url(#h)" d="M156.1 320.8l90.7-54.2v-12l-90.7 55.7v10.5z"/>
  <path fill="url(#i)" d="M235 242.5c11-7.1 15.7-8 25.2-4.2 6.5 2.6 4.6 4.8 4.6 6v-8a4.1 4.1 0 0 0-2.2-5.2c-3.5-2-14.5-8-28.3.6s-14 13-9.9 17.3.4 6.6.4 6.6 3.8.2-.5-3.6c0 0 2.7-4.3 10.7-9.5z"/>
  <path fill="url(#j)" d="M108.8 225.8l.3 11.1s13.4-.3 17.4 4 1.9 13.3-8.7 19.2-24.5 3.5-29.5-1.8.8-7.6.8-7.6l-.6-11.5-10 9.9s-2.7 6.7 5.1 12.7 31.7 10.5 39.2 5.5 20.5-27.3 12.7-35.1-26.7-6.4-26.7-6.4z"/>
  <path fill="url(#k)" d="M288.4 233v8.8l-16.4 9.8s-2.4 2.4-6.7.2a6.6 6.6 0 0 1-1-3.2v-8z"/>
  <path fill="url(#c)" d="M58 254.8l98.2 55.5 89-52s3.2-1.8 1.1-3.7c-4.9-4.4-14.9 1.5-21.9-5.6-4.7-4.8 2-12.2 10.6-16.5 8.8-4.4 20.6-5.8 26.8-.8 6.4 5.2-.2 8.6 4 10.8a6 6 0 0 0 6.4 0l16.2-9.4-95.6-56.1-81.7 47.1s-4 1.2-1.5 3.7c3 2.8 9.7-2 18 5 6 5.2 2.4 12.2-4.7 17.5a29.8 29.8 0 0 1-30.2 3c-10.3-5.6-2.2-11.3-4.2-14.1-1.7-2.4-3.3-.2-3.3-.2z"/>
  <g clip-path="url(#l)" style="clip-path:url(#k)">
    <path fill="#ed695d" d="M161.1 229.4h-6.8c-.3 0-.6.2-.7.4a.4.4 0 0 0 .3.3 1 1 0 0 0 .4 0l6.8.1a4.2 4.2 0 0 1 0-.8"/>
    <path fill="#ed685d" d="M153.9 230a.4.4 0 0 1-.3-.2c0-.2.4-.4.7-.4h6.8a4.2 4.2 0 0 0 0 .8h-6.8a1 1 0 0 1-.4-.1m8.3-1.2l-7.8-.1c-1 0-1.7.4-1.8 1a.8.8 0 0 0 .6.7 2.4 2.4 0 0 0 1.1.3h7.9v-.3a4 4 0 0 1 0-1.3v-.3"/>
    <path fill="#ed695d" d="M181.2 241h-6l-.2-3.5h-1.4l.1 3.9a.4.4 0 0 0 .3.3 1 1 0 0 0 .4 0l6.8.1a3.8 3.8 0 0 1 0-.8"/>
    <path fill="#ed685d" d="M175.1 241h6.1a3.8 3.8 0 0 0 0 .8h-6.8a1 1 0 0 1-.4-.1.4.4 0 0 1-.3-.3v-3.9h1.3l.1 3.5m7.2-.5h-6.2v-3.7h-.7a20.6 20.6 0 0 1-2.2.1h-.6l.1 4.5a.9.9 0 0 0 .5.7 2.4 2.4 0 0 0 1.2.3h7.8v-.3a3.9 3.9 0 0 1 0-1.3l.1-.3"/>
    <path fill="#ed695d" d="M177.8 227.8c2 1.2 2 3 0 4.2a8 8 0 0 1-7.2 0c-2-1.2-2-3 0-4.2a8 8 0 0 1 7.2 0m1.3-.8a11 11 0 0 0-9.9 0c-2.7 1.6-2.7 4.2 0 5.8a11 11 0 0 0 10 0c2.7-1.6 2.7-4.2 0-5.8"/>
    <path fill="#ed685d" d="M169.3 232.8c-2.8-1.6-2.8-4.2 0-5.8a11 11 0 0 1 9.8 0c2.8 1.6 2.8 4.2 0 5.8a11 11 0 0 1-9.8 0m10.5-6.2a12.5 12.5 0 0 0-11.3 0c-3 1.8-3 4.8 0 6.6a12.5 12.5 0 0 0 11.4 0c3-1.8 3-4.8 0-6.6"/>
    <path fill="#ed695d" d="M197.9 239.4c2 1.2 2 3 0 4.2a8 8 0 0 1-7.2 0c-2-1.2-2-3 0-4.2a8 8 0 0 1 7.2 0m1.3-.8a11 11 0 0 0-9.9 0c-2.7 1.6-2.7 4.2 0 5.8a11 11 0 0 0 10 0c2.7-1.6 2.7-4.2 0-5.8"/>
    <path fill="#ed685d" d="M189.4 244.4c-2.8-1.6-2.8-4.2 0-5.8a11 11 0 0 1 9.8 0c2.8 1.6 2.8 4.2 0 5.8a11 11 0 0 1-9.8 0m10.5-6.2a12.5 12.5 0 0 0-11.3 0c-3 1.8-3 4.8 0 6.6a12.5 12.5 0 0 0 11.4 0c3-1.8 3-4.8 0-6.6"/>
    <path fill="#ed695d" d="M195 249h-1.3l-.1 3.5h-6a4.8 4.8 0 0 1 0 .9h6.7a1 1 0 0 0 .5-.2.4.4 0 0 0 .2-.3V249"/>
    <path fill="#ed685d" d="M187.6 253.4a4.8 4.8 0 0 0 0-.8h6V249h1.5l-.1 4a.4.4 0 0 1-.2.2 1 1 0 0 1-.5.1h-6.7m8.5-4.9h-.6a20.8 20.8 0 0 1-2.3 0h-.5v3.6h-6.3v.3a4.3 4.3 0 0 1 .2 1.4v.3h7.7a2.5 2.5 0 0 0 1.2-.4.9.9 0 0 0 .5-.7v-4.5"/>
    <path fill="#ed695d" d="M178 251c2 1 2 3 .1 4.1a8 8 0 0 1-7.2 0c-2-1.1-2-3 0-4.2a8 8 0 0 1 7.2 0m1.3-.7a11 11 0 0 0-9.9 0c-2.7 1.5-2.7 4.1 0 5.7a11 11 0 0 0 10 0c2.7-1.6 2.6-4.2-.1-5.7"/>
    <path fill="#ed685d" d="M169.5 255.9c-2.7-1.6-2.7-4.2 0-5.7a11 11 0 0 1 9.9 0c2.7 1.5 2.8 4.1 0 5.7a11 11 0 0 1-9.9 0m10.6-6.1a12.5 12.5 0 0 0-11.3 0c-3.1 1.8-3.1 4.7 0 6.5a12.5 12.5 0 0 0 11.3 0c3.2-1.8 3.1-4.7 0-6.5"/>
  </g>
  <path fill="url(#n)" d="M78.5 172.9L2 121.9a4 4 0 0 0-2 3.4v10.8a4 4 0 0 0 2 3.5l76.4 44.1z"/>
  <g style="isolation:isolate">
    <g style="isolation:isolate">
      <path fill="#ea4f52" d="M165.6 60l-.1-1.7a6.9 6.9 0 0 0 0 1 3.8 3.8 0 0 1 0 .7z" style="fill:#ea4f52"/>
    </g>
    <path fill="url(#o)" d="M131.8 141.9a5.6 5.6 0 0 1-5 0 4 4 0 0 1-1.4-1.3v-4.4c0-2.4-1.4-4.7-4.2-6.3-7-4-20.5-2.8-30.1 2.8-5.8 3.3-9 7.6-9 11.2l.2 11c0-3.6 3.1-7.8 9-11.1 9.6-5.6 23-7 30-2.9a8 8 0 0 1 3.6 3.9v5.2a3.1 3.1 0 0 0 1.8 2.7 5.6 5.6 0 0 0 5.1 0l81.5-46.8V95.1z"/>
    <path fill="url(#p)" d="M184.3 78.6c-1.5-.8-1.5-2.2 0-3a10.4 10.4 0 0 1 6-1c5.5.6 10.8 0 14.3-2 7-4.1 4.7-11.9-5-17.5s-22.8-7-29.7-2.9c-3.1 1.8-4.8 4.4-4.4 7.2a3.7 3.7 0 0 1-2 3.9 6.2 6.2 0 0 1-5.7 0l-27.3-15.8L2 121.8a4 4 0 0 0 0 7l76.5 44 27-15.7c1.6-.9 2.8-.5 3.5.3 1.4 1.5 0 3-.8 4.6-2 4.4 2 8.8 5.2 10 7.5 2.9 17.8 3.8 27.5-1.8s13-13.8 7-19.3c-3.4-3.3-9.4-4.1-13.5-4.3-3.3-.2-4.3 0-4.6-1.4-.4-1.6.6-2.5 2-3.3L213.3 95z"/>
  </g>
  <path fill="url(#q)" d="M141.6 169.7a34.3 34.3 0 0 1-30.7.5c-1.8-1-2.7-4.4-3.3-6l1.3-3.5c.6-.9 1.4-1.9.1-3.3-1-1.2-2-1-3.5-.3L78.4 173v10.8l26-15.1c1.4-.8 1.3-1 2.3-.7.7.1.8.5 1.1 1v8c0 2.3 6 5 9.1 6 7.2 2 15.7 1.1 25.7-3.7 5.9-2.7 8.4-6 8.4-9.6l-.1-12.4c0 3.6-3.5 9.2-9.3 12.5z"/>
  <g clip-path="url(#r)" style="clip-path:url(#q)">
    <path fill="#ed695d" d="M69.1 114.2h-6.8c-.3 0-.7.2-.7.4a.4.4 0 0 0 .2.3 1 1 0 0 0 .5 0l6.8.1a3.8 3.8 0 0 1 0-.8"/>
    <path fill="#ed685d" d="M61.8 114.9a.4.4 0 0 1-.2-.3c0-.2.4-.4.7-.4h6.8a3.8 3.8 0 0 0 0 .8h-6.8a1 1 0 0 1-.5-.1m8.4-1.2l-7.9-.1c-.9 0-1.7.4-1.7 1a.8.8 0 0 0 .5.7 2.4 2.4 0 0 0 1.2.3h7.8v-.3a4.2 4.2 0 0 1 0-1.3l.1-.3"/>
    <path fill="#ed695d" d="M89.2 125.8h-6.1v-3.5h-1.5l.1 3.9a.4.4 0 0 0 .2.3 1 1 0 0 0 .5 0l6.8.1a4.9 4.9 0 0 1 0-.8"/>
    <path fill="#ed685d" d="M83.1 125.8h6.1a4.9 4.9 0 0 0 0 .8h-6.8a1 1 0 0 1-.5-.1.4.4 0 0 1-.2-.3v-4H83l.1 3.6m7.2-.5h-6.2l-.1-3.7h-.6a22.7 22.7 0 0 1-2.3.1h-.5l.1 4.5a.9.9 0 0 0 .5.7 2.5 2.5 0 0 0 1.2.3h7.8v-.3a4 4 0 0 1 0-1.3l.1-.3"/>
    <path fill="#ed695d" d="M85.8 112.6c2 1.2 2 3 0 4.2a8 8 0 0 1-7.2 0c-2-1.2-2-3 0-4.2a8 8 0 0 1 7.2 0m1.3-.8a11 11 0 0 0-9.9 0c-2.7 1.6-2.7 4.2 0 5.8a11 11 0 0 0 10 0c2.7-1.6 2.7-4.2 0-5.8"/>
    <path fill="#ed685d" d="M77.3 117.6c-2.8-1.6-2.8-4.2 0-5.8a11 11 0 0 1 9.8 0c2.8 1.6 2.8 4.2 0 5.8a11 11 0 0 1-9.8 0m10.5-6.2a12.5 12.5 0 0 0-11.3 0c-3.1 1.8-3 4.8 0 6.6a12.5 12.5 0 0 0 11.4 0c3-1.8 3-4.8 0-6.6"/>
    <path fill="#ed695d" d="M105.9 124.2c2 1.2 2 3 0 4.2a8 8 0 0 1-7.2 0c-2-1.2-2-3 0-4.2a8 8 0 0 1 7.2 0m1.3-.8a11 11 0 0 0-9.9 0c-2.7 1.6-2.7 4.2 0 5.8a11 11 0 0 0 10 0c2.7-1.6 2.7-4.2 0-5.8"/>
    <path fill="#ed685d" d="M97.4 129.2c-2.8-1.6-2.8-4.2 0-5.8a11 11 0 0 1 9.8 0c2.8 1.6 2.8 4.2 0 5.8a11 11 0 0 1-9.8 0m10.5-6.2a12.5 12.5 0 0 0-11.3 0c-3.1 1.8-3 4.8 0 6.6a12.5 12.5 0 0 0 11.4 0c3-1.8 3-4.8 0-6.6"/>
    <path fill="#ed695d" d="M103 133.8h-1.3l-.1 3.5h-6a4.3 4.3 0 0 1 0 .9h6.7a1.1 1.1 0 0 0 .5-.2.3.3 0 0 0 .2-.3v-3.9"/>
    <path fill="#ed685d" d="M95.6 138.2a4.3 4.3 0 0 0 0-.8h6v-3.6h1.4v4a.3.3 0 0 1-.2.2 1.1 1.1 0 0 1-.5.1h-6.7m8.5-4.9h-.6a20.6 20.6 0 0 1-2.3 0h-.5l-.1 3.6h-6.2v.3a4 4 0 0 1 .1 1.4v.3h7.8a2.5 2.5 0 0 0 1.2-.4.9.9 0 0 0 .5-.7v-4.5"/>
    <path fill="#ed695d" d="M86 135.7c2 1.2 2 3 0 4.2a8 8 0 0 1-7.1 0c-2-1.1-2-3 0-4.2a8 8 0 0 1 7.2 0m1.3-.7a11 11 0 0 0-10 0c-2.6 1.5-2.6 4.1.1 5.7a11 11 0 0 0 10 0c2.6-1.6 2.6-4.2-.1-5.7"/>
    <path fill="#ed685d" d="M77.5 140.7c-2.7-1.6-2.7-4.2 0-5.7a11 11 0 0 1 9.9 0c2.7 1.5 2.7 4.1 0 5.7a11 11 0 0 1-9.9 0m10.6-6.1a12.5 12.5 0 0 0-11.3 0c-3.1 1.8-3.1 4.7 0 6.5a12.5 12.5 0 0 0 11.3 0c3.1-1.8 3.1-4.7 0-6.5"/>
  </g>
  <path fill="url(#s)" d="M277.3 209.1l73.7 42a11.6 11.6 0 0 0 11.6 0l126.5-73v-10.6l-211.8 31.1z"/>
  <path fill="url(#t)" d="M438.4 139.6v10.5a1.7 1.7 0 0 1-1 1.4 10.2 10.2 0 0 1-6 1c-5.3-.6-10.4 0-13.8 2-2.6 1.6-3.9 3.6-3.9 6v-10.6c0-2.3 1.3-4.4 4-5.9 3.3-2 8.4-2.6 13.8-2a10.2 10.2 0 0 0 5.9-1 1.7 1.7 0 0 0 1-1.4z"/>
  <path fill="url(#u)" d="M304.7 181.8v10.5a2 2 0 0 0-1.2-1.6 12.4 12.4 0 0 0-6.5-1.2c-4.7.2-9-.5-12-2.2-2.6-1.6-4-3.7-4-6l.1-10.5c0 2.3 1.3 4.4 4 6 3 1.7 7.3 2.4 12 2.2a12.4 12.4 0 0 1 6.5 1.2 2 2 0 0 1 1.1 1.6z"/>
  <path fill="url(#v)" d="M462.4 152.4a6 6 0 0 0-5.4 0c-1.7 1-1.7 3-1.5 4.4.4 2.6-1.4 4.6-4.4 6.3-6.7 4-19.7 2.7-29.1-2.7-9.4-5.5-11.6-13-5-17 3.5-1.9 8.6-2.5 14-2a10.2 10.2 0 0 0 5.8-1c1.4-.7 1.4-2 0-2.8l-27.2-16.2-80.5 47.2a5.4 5.4 0 0 1-5 0 2.9 2.9 0 0 1-1.6-3.4c1-3.2-.2-6-3.6-8-6.8-4-19.8-2.7-29.1 2.7-9.4 5.4-11.5 13-4.7 16.9 3 1.7 7.3 2.4 12 2.2a12.4 12.4 0 0 1 6.5 1.2c1.5.9 1.5 2.3 0 3.2l-26.3 15.2 74 42.8a11.6 11.6 0 0 0 11.6 0L489 167.7z"/>
  <g clip-path="url(#w)" style="clip-path:url(#v)">
    <path fill="#ed695d" d="M338.8 186.4l-6.5-.1c-.3 0-.6.2-.6.4a.3.3 0 0 0 .2.2.9.9 0 0 0 .4.1h6.4a3.6 3.6 0 0 1 0-.6"/>
    <path fill="#ed685d" d="M331.9 187a.3.3 0 0 1-.2-.3c0-.2.3-.4.6-.4h6.5a3.6 3.6 0 0 0 0 .8h-6.5a.9.9 0 0 1-.4-.2m8-1.1h-7.6c-.9 0-1.6.3-1.6.9a.8.8 0 0 0 .5.6 2.4 2.4 0 0 0 1.1.3h7.5v-.2a4 4 0 0 1 0-1.3v-.3"/>
    <path fill="#ed695d" d="M358 197.4h-6V194h-1.3l.1 3.7a.3.3 0 0 0 .2.3 1 1 0 0 0 .5.1h6.4a4.1 4.1 0 0 1 0-.7"/>
    <path fill="#ed685d" d="M352 197.4h6a4.1 4.1 0 0 0-.1.8l-6.4-.1a1 1 0 0 1-.5-.1.3.3 0 0 1-.2-.3V194h1.2v3.4m7-.6h-6v-3.4h-.6a19.5 19.5 0 0 1-2.1 0h-.6l.1 4.3a.9.9 0 0 0 .5.7 2.3 2.3 0 0 0 1.2.3h7.4v-.3a4 4 0 0 1 0-1.2l.1-.4"/>
    <path fill="#ed695d" d="M354.7 184.8c1.9 1.1 1.9 2.9 0 4a7.6 7.6 0 0 1-6.9 0c-1.9-1.1-2-2.9 0-4a7.6 7.6 0 0 1 6.9 0m1.2-.7a10.4 10.4 0 0 0-9.4 0c-2.6 1.5-2.5 4 0 5.4a10.4 10.4 0 0 0 9.5 0c2.5-1.5 2.5-4 0-5.4"/>
    <path fill="#ed685d" d="M346.6 189.5c-2.6-1.5-2.7-4 0-5.4a10.4 10.4 0 0 1 9.3 0c2.6 1.5 2.6 4 0 5.4a10.4 10.4 0 0 1-9.3 0m10-5.8a12 12 0 0 0-10.8 0c-3 1.7-3 4.5 0 6.2a12 12 0 0 0 10.9 0c3-1.7 3-4.5 0-6.2"/>
    <path fill="#ed695d" d="M373.8 195.9c1.9 1 2 2.7.3 3.8l-.4.3a7.7 7.7 0 0 1-6.7-.2c-2-1-2-2.8 0-4a7.6 7.6 0 0 1 6.8 0m1.3-.7a10.4 10.4 0 0 0-9.4 0c-2.6 1.5-2.6 4 0 5.5a10.4 10.4 0 0 0 9.4 0c2.6-1.5 2.6-4 0-5.5"/>
    <path fill="#ed685d" d="M365.7 200.6c-2.6-1.5-2.6-4 0-5.5a10.4 10.4 0 0 1 9.4 0c2.6 1.5 2.6 4 0 5.5a10.4 10.4 0 0 1-9.4 0m10.1-5.9a12 12 0 0 0-10.8 0c-3 1.7-3 4.6 0 6.3a12 12 0 0 0 10.8 0c3-1.7 3-4.6 0-6.3"/>
    <path fill="#ed695d" d="M371.1 205h-1.3v3.4H364a4.8 4.8 0 0 1 0 .8h6.4a1 1 0 0 0 .5-.2.3.3 0 0 0 .1-.3l.1-3.7"/>
    <path fill="#ed685d" d="M364 209.2a4.8 4.8 0 0 0 0-.8h5.8V205h1.3v3.7a.3.3 0 0 1-.2.3 1 1 0 0 1-.5.1H364m8.1-4.7h-.5a19.6 19.6 0 0 1-2.2 0h-.6v3.4h-6l.1.4a3.8 3.8 0 0 1 .1 1.2v.3h7.4a2.4 2.4 0 0 0 1.2-.3.8.8 0 0 0 .4-.6l.1-4.4"/>
    <path fill="#ed695d" d="M355 206.8c1.8 1.1 1.9 2.8.2 4l-.4.1a7.7 7.7 0 0 1-6.7 0c-2-1.2-2-3 0-4a7.6 7.6 0 0 1 6.8 0m1.3-.8a10.4 10.4 0 0 0-9.4 0c-2.6 1.5-2.6 4 0 5.5a10.4 10.4 0 0 0 9.4 0c2.6-1.5 2.6-4 0-5.5"/>
    <path fill="#ed685d" d="M346.8 211.6c-2.6-1.5-2.6-4 0-5.5a10.4 10.4 0 0 1 9.4 0c2.6 1.5 2.6 4 0 5.5a10.4 10.4 0 0 1-9.4 0m10-5.9a12 12 0 0 0-10.7 0c-3 1.7-3 4.5 0 6.3a12 12 0 0 0 10.8 0c3-1.8 3-4.6 0-6.3"/>
  </g>
  <path fill="url(#d)" d="M488.9 168s77.2-48.1 77.2-46.8V132a3.9 3.9 0 0 1-2 3.4l-75.2 43z"/>
  <path fill="url(#x)" d="M441.5 102.6v10.5a2 2 0 0 0-1.1-1.6 12.4 12.4 0 0 0-6.6-1.2c-4.6.3-9-.4-12-2.2-2.6-1.5-4-3.6-3.9-6V91.6c0 2.3 1.3 4.5 4 6 3 1.8 7.3 2.5 12 2.2a12.4 12.4 0 0 1 6.5 1.2 2 2 0 0 1 1.1 1.6z"/>
  <g style="isolation:isolate">
    <path fill="url(#e)" d="M454.7 156.2l.2 1.7a6.7 6.7 0 0 0-.1-1 3.7 3.7 0 0 1 0-.7z" style="fill:url(#y)"/>
  </g>
  <path fill="url(#y)" d="M436.4 138c1.3.8.8 2.1-.6 3-1.5.8-3.2.5-5.4.3a24.1 24.1 0 0 0-14 2.6c-6.9 4-4.7 11.6 4.9 17.1s22.8 6.8 29.6 2.8c3-1.7 4.9-4.3 4.5-7-.2-1.4-.2-2.8 1.5-3.8a6.2 6.2 0 0 1 5.5 0l26.5 15 75.3-42.8a3.9 3.9 0 0 0 0-6.7l-75.4-43.3-26.7 15.4c-1.5.9-2.7.6-3.4-.2-1.4-1.5.1-3 .8-4.6 2-4.2-2-8.6-5.1-9.8-7.4-2.8-17.6-3.6-27 1.9s-12.9 13.5-7 18.9c3.3 3.1 9.2 4 13.2 4.2 3.3.1 4.3-.1 4.6 1.3.4 1.5-.6 2.5-2 3.3l-27 16z"/>
</svg>