<svg xmlns="http://www.w3.org/2000/svg" viewBox="0 0 498.42 157.21"><title>logo_ano</title><path d="M327.08,309.92A26.65,26.65,0,0,1,313,306.24c-7.39-4.44-14.79-12.09-21.93-22.75,0,0-2.45-3.76-3.36-5.12,4.73-10.86,10.05-20.15,15.29-26.66,5.61-6.9,11.9-10.4,18.69-10.4h2V220.79l-2.22.24c-19.43,2-34.14,14.64-46.54,39.32a81.62,81.62,0,0,0-17.44-16.78c9.85-7,20.15-19.1,20.15-33.11,0-23.38-17.44-39.07-43.48-39.07-21.71,0-45.12,15.23-45.12,39.87a37.07,37.07,0,0,0,15.05,29.92,49.86,49.86,0,0,0-16.72,14.5,45,45,0,0,0-8.44,25.57c0,28.26,20.35,47.12,50.62,47.12,19.37,0,36.66-10.38,47.79-28.07,7.08,9.55,15.69,19.05,28.32,24.15a56.13,56.13,0,0,0,21.45,4.16h2V309.93h-2ZM218.39,224.86a23.76,23.76,0,0,1-5.51-15c0-9.71,5.77-21.11,22-21.11,13,0,20.76,11.22,20.76,22,0,12-8.58,19.79-15.82,24.16C228.93,233.09,222,229.16,218.39,224.86Zm29.4,37.61h0c6.39,5.22,11.58,12,17,19.85-8.53,18.26-20.76,27.73-35.16,27.73-15.09,0-26.9-12.9-26.9-29.37,0-15.21,10.07-26.11,20.48-28.7C230.64,252.5,239.34,255.61,247.79,262.47Z" transform="translate(-1.25 -171.39)" style="fill:#b23427"/><path d="M79.19,177.33S24.13,285.77,15.54,302.47C11,311.3,5.93,319.68,1.25,324.89H33.76c0-4.23,2.38-12.22,5.21-17.91l11.38-23.06H130.5s9.32,19.2,11.7,24,5,11.81,5.55,17h35.73c-5.34-4.85-10.57-13.39-14.38-20.52l-64.68-127,0,0Zm11.18,23.76,31.32,63.43H59.22Z" transform="translate(-1.25 -171.39)" style="fill:#b23427"/><path d="M335.43,250.94c0,39.29,25.7,77.61,82.1,77.61s82.14-38.32,82.14-77.61-25.73-77.53-82.14-77.53S335.43,211.69,335.43,250.94Zm27.93,0c0-26.91,14.45-57.15,54.15-57.15,39.25,0,54.2,28.4,54.2,57.15,0,28-15.48,57.22-54.2,57.22C378.6,308.15,363.36,279.83,363.36,250.94Z" transform="translate(-1.25 -171.39)" style="fill:#b23427"/></svg>