<svg xmlns="http://www.w3.org/2000/svg" xmlns:xlink="http://www.w3.org/1999/xlink" viewBox="0 0 565.32245 820.61921"><defs><linearGradient id="a" x1="461.7344" y1="74.27416" x2="556.32835" y2="74.27416" gradientUnits="userSpaceOnUse"><stop offset="0" stop-color="#cac9c9"/><stop offset="0.43582" stop-color="#c4c3c3"/><stop offset="1" stop-color="#b3b2b2"/></linearGradient><linearGradient id="b" x1="116.4815" y1="523.61731" x2="796.92531" y2="-304.64769" xlink:href="#a"/><linearGradient id="c" x1="71.78803" y1="250.77572" x2="533.08292" y2="552.38918" gradientUnits="userSpaceOnUse"><stop offset="0" stop-color="#6c71b4"/><stop offset="1" stop-color="#494e9c"/></linearGradient><linearGradient id="d" x1="64.68368" y1="421.56793" x2="527.57525" y2="421.56793" gradientUnits="userSpaceOnUse"><stop offset="0" stop-color="#fdfdfd"/><stop offset="0.25556" stop-color="#f7f7f7"/><stop offset="0.61264" stop-color="#e8e4e5"/><stop offset="1" stop-color="#d0c9cb"/></linearGradient><clipPath id="e"><polygon points="135.949 627.555 135.194 360.992 451.221 178.534 451.976 445.097 135.949 627.555" style="fill:none"/></clipPath></defs><title>Sheild</title><g style="isolation:isolate"><path d="M544.28828,80.87263c-4.48043-2.60548-8.93593-5.1985-13.40389-7.81644-.40267-.21817-.96241-.52359-1.3389-.75422a19.83774,19.83774,0,0,0-12.808-2.143c-20.8426,2.861-39.55345-.49866-55.00309-9.48321,8.93593,5.22219,17.87186,10.38453,26.80779,15.583,15.44839,8.97208,34.16049,12.33178,55.00309,9.48321a19.69113,19.69113,0,0,1,12.78307,2.13051Q550.30146,84.36634,544.28828,80.87263Z" style="fill:url(#a)"/><path d="M395.56763,2.50747C357.3032,19.40445,303.932,44.9095,268.7243,65.22852c-35.19645,20.319-88.51907,56.41554-126.70994,83.6609-13.94,9.947-24.90791,28.35487-29.48558,46.22549-14.85249,58.546-48.49063,117.84756-91.2704,161.212C8.70719,369.09751-.412,387.74852.01435,402.96628,5.00591,578.15315,54.59109,727.77512,149.003,782.656c8.95962,5.186,17.87186,10.37331,26.80779,15.583C81.3752,743.34568,31.80123,593.73617,26.79721,418.53684c-.42635-15.23022,8.71652-33.8563,21.269-46.63937,42.77977-43.352,76.40544-102.65349,91.2704-161.18707,4.55274-17.908,15.53441-36.31593,29.46189-46.26164,38.2021-27.22168,91.54965-63.33066,126.73363-83.66215C330.72729,60.49253,384.0873,34.975,422.363,18.078c7.82767-3.44572,14.81634-3.20263,20.20932-.07355q-13.40389-7.76036-26.78286-15.57056C410.3715-.69516,403.40776-.95072,395.56763,2.50747Z" style="fill:url(#b)"/><path d="M295.53209,80.78661C330.72729,60.49253,384.0873,34.975,422.363,18.078c13.79285-6.06367,24.93284-.71807,29.48558,11.797,15.04822,41.3187,48.84343,61.75989,91.69675,55.867,12.6609-1.7291,22.12042,6.09982,21.76762,21.87732-5.1985,235.97312-86.71767,516.24817-246.01732,687.27249a95.52908,95.52908,0,0,1-21.69407,17.68861c-7.39009,4.261-14.78018,6.81788-21.70653,7.37762C116.144,833.13133,33.34707,647.717,26.79721,418.53684c-.42635-15.23022,8.71652-33.8563,21.269-46.63937,42.77977-43.352,76.40544-102.65349,91.2704-161.18707,4.55274-17.908,15.53441-36.31593,29.46189-46.26164C207.00056,137.22708,260.34811,101.1181,295.53209,80.78661Z" style="fill:url(#c)"/></g><path d="M295.653,122.34966c26.49114-15.30253,65.05976-34.2091,98.32016-49.549,14.23167-6.54986,25.79677-1.60693,32.0786,9.56922,17.62876,31.78688,46.42,49.58519,82.04151,50.93655,12.18717.48743,20.28286,10.3359,19.41894,26.66193-10.59147,197.417-76.5887,436.04546-209.04441,589.01466a83.69043,83.69043,0,0,1-21.00093,17.88308c-7.20684,4.15132-14.41368,6.404-21.03709,6.404-132.89328.21941-200.01-161.55233-211.67358-346.13763-.96116-15.583,7.73167-35.14783,20.08839-49.98785,35.42707-42.63391,63.86547-93.7051,81.08035-145.71375,5.929-17.89555,17.55521-35.51185,31.43408-45.11723C230.59451,163.24326,269.13818,137.65344,295.653,122.34966Z" style="fill:url(#d)"/><g style="isolation:isolate"><g style="clip-path:url(#e)"><path d="M165.87522,439.51368l-27.78716,47.2225c-2.38029,4.0491-2.42526,8.49149-.09344,9.90089,1.15309.69371,2.70029.55,4.34754-.40106a12.21881,12.21881,0,0,0,4.2083-4.399l27.6535-46.99835a32.397,32.397,0,0,1-8.32874-5.32494" style="fill:#ed695d"/><path d="M142.34216,496.236c-1.64725.951-3.19445,1.09477-4.34754.40106-2.33182-1.4094-2.28685-5.85179.09344-9.90089l27.78716-47.2225a32.397,32.397,0,0,0,8.32874,5.32494L146.55046,491.837a12.21881,12.21881,0,0,1-4.2083,4.399M165.942,438.25528l-28.34721,48.18515c-2.66033,4.51942-2.71021,9.48639-.103,11.05275l0,.00734c1.2876.77039,3.00744.61516,4.85261-.45015a13.679,13.679,0,0,0,4.70566-4.914l28.20081-47.939-.28812-.12024a32.31313,32.31313,0,0,1-8.77718-5.60246l-.24364-.21942" style="fill:#ed685d"/><path d="M317.81734,351.79721l-23.61841,40.14936-23.54468-12.78746a166.55054,166.55054,0,0,1-8.297,14.90175l27.59259,14.97707a4.60959,4.60959,0,0,0,4.34077-.52942,12.24538,12.24538,0,0,0,4.21469-4.40273l27.6471-46.99465a32.79922,32.79922,0,0,1-8.33509-5.31392" style="fill:#ed695d"/><path d="M294.19893,391.94657l23.61841-40.14936a32.79922,32.79922,0,0,0,8.33509,5.31392l-27.6471,46.99465a12.24538,12.24538,0,0,1-4.21469,4.40273,4.60959,4.60959,0,0,1-4.34077.52942l-27.59259-14.97707a166.55054,166.55054,0,0,0,8.297-14.90175l23.54468,12.78746m23.69158-41.41145-23.69483,40.267L270.58056,377.9818l-.2416.49956a164.83468,164.83468,0,0,1-8.736,15.69167l-.2865.452,28.137,15.28c1.24253.67149,3.05174.45,4.83944-.58215a13.67894,13.67894,0,0,0,4.70565-4.914l28.19446-47.92793-.28814-.12758a32.08383,32.08383,0,0,1-8.77077-5.59882l-.24364-.21941" style="fill:#ed685d"/><path d="M218.08291,328.28121c15.13164-8.73626,27.44293-1.72043,27.49222,15.667s-12.182,38.57295-27.31369,47.3092-27.44292,1.72042-27.49221-15.667,12.182-38.57294,27.31368-47.30919m-.04056-14.3061c-21.976,12.68785-39.7948,43.55125-39.72321,68.80335s18.00687,35.47287,39.98286,22.785,39.7948-43.55124,39.72321-68.80334-18.00687-35.47287-39.98286-22.785" style="fill:#ed695d"/><path d="M218.302,405.56348c-21.976,12.68785-39.91127,2.46708-39.98286-22.785s17.74722-56.1155,39.72321-68.80335,39.91127-2.46707,39.98286,22.785S240.278,392.87564,218.302,405.56348m-.262-92.40272c-22.36545,12.9127-40.50246,44.32725-40.4296,70.02687s18.32842,36.10291,40.69387,23.19021,40.50246-44.32725,40.4296-70.02687S240.40549,300.24806,218.04,313.16076" style="fill:#ed685d"/><path d="M370.025,240.55739c15.13165-8.73626,27.44292-1.72041,27.49222,15.667s-12.182,38.57293-27.31368,47.30919c-15.138,8.73994-27.44293,1.72042-27.49222-15.667s12.17566-38.56926,27.31368-47.3092m-.04056-14.30609c-21.976,12.68784-39.79481,43.55126-39.72322,68.80335s18.00688,35.47287,39.98288,22.785,39.7948-43.55125,39.72321-68.80335-18.00688-35.47287-39.98287-22.785" style="fill:#ed695d"/><path d="M370.2441,317.83967c-21.976,12.68785-39.91129,2.46708-39.98288-22.785s17.74723-56.11551,39.72322-68.80335,39.91128-2.46707,39.98287,22.785-17.74722,56.11551-39.72321,68.80335m-.262-92.40272c-22.36546,12.91271-40.50884,44.33094-40.436,70.03056s18.33479,36.09922,40.70025,23.18652,40.50246-44.32725,40.4296-70.02687-18.3284-36.10292-40.69387-23.19021" style="fill:#ed685d"/><path d="M422.11068,291.56872a165.444,165.444,0,0,1-8.77739,14.62063l23.113,13.9332-.23544.41519-22.60263,39.78337a32.21065,32.21065,0,0,1,8.806,4.49089l26.7643-47.10223a12.71825,12.71825,0,0,0,1.70971-5.984,4.27928,4.27928,0,0,0-1.72481-3.85418l-27.05278-16.30282" style="fill:#ed695d"/><path d="M422.41426,364.812a32.21065,32.21065,0,0,0-8.806-4.49089l22.60263-39.78337.23544-.41519-23.113-13.9332a165.444,165.444,0,0,0,8.77739-14.62063l27.05278,16.30282a4.27928,4.27928,0,0,1,1.72481,3.85418,12.71825,12.71825,0,0,1-1.70971,5.984L422.41426,364.812m-.33251-74.43172-.25446.47759a164.03171,164.03171,0,0,1-9.242,15.40329l-.31206.45941,23.1835,13.966-22.90806,40.32714.31362.09816a32.12931,32.12931,0,0,1,9.27353,4.728l.25634.19,27.29878-48.05013a14.20233,14.20233,0,0,0,1.90607-6.66325c-.00576-2.03221-.688-3.56361-1.93076-4.30844l-27.58447-16.62782" style="fill:#ed685d"/><path d="M370.51644,413.9033c15.13165-8.73627,27.4429-1.72776,27.49221,15.667.0493,17.3874-12.182,38.57292-27.31368,47.30918-15.138,8.73994-27.44292,1.72042-27.49221-15.667-.04932-17.39474,12.17566-38.56924,27.31368-47.30918m-.04056-14.30612c-21.976,12.68785-39.79481,43.55127-39.72322,68.80337.07157,25.24475,18.00688,35.47287,39.98287,22.785s39.79479-43.5586,39.72322-68.80336c-.07159-25.25209-18.00688-35.47287-39.98287-22.785" style="fill:#ed695d"/><path d="M370.73553,491.18557c-21.976,12.68785-39.9113,2.45973-39.98287-22.785-.07159-25.2521,17.74723-56.11552,39.72322-68.80337s39.91128-2.46706,39.98287,22.785c.07157,25.24476-17.74723,56.11552-39.72322,68.80336m-.262-92.41007c-22.36547,12.91271-40.50885,44.33093-40.436,70.0379.07286,25.69963,18.3348,36.09922,40.70026,23.18652s40.50246-44.32724,40.4296-70.02687c-.07288-25.707-18.32843-36.11025-40.69389-23.19755" style="fill:#ed685d"/></g></g></svg>