<svg xmlns="http://www.w3.org/2000/svg" viewBox="0 0 992.38 1041.18" xmlns:xlink="http://www.w3.org/1999/xlink"><defs><linearGradient id="a" gradientUnits="userSpaceOnUse" x1="203.2" y1="728.75" x2="771.25" y2="728.75"><stop stop-color="rgb(246, 246, 246)" offset="0.15" />
            <stop stop-color="rgb(239, 239, 239)" offset="0.38" />
            <stop stop-color="rgb(219, 219, 219)" offset="0.72" />
            <stop stop-color="rgb(198, 198, 198)" offset="1" />
        </linearGradient>
        <linearGradient id="b" gradientUnits="userSpaceOnUse" x1="240.45" y1="564.63" x2="1134.85" y2="564.63"><stop stop-color="rgb(197, 197, 196)" offset="0" />
            <stop stop-color="rgb(251, 251, 251)" offset="1" />
        </linearGradient>
        <linearGradient id="c" gradientUnits="userSpaceOnUse" x1="298.4" y1="644.88" x2="442.84" y2="1156.68"><stop stop-color="rgb(237, 237, 237)" offset="0" />
            <stop stop-color="rgb(178, 178, 178)" offset="1" />
        </linearGradient>
        <linearGradient id="d" gradientUnits="userSpaceOnUse" x1="388.14" y1="679.01" x2="692.71" y2="845.42"><stop stop-color="rgb(246, 246, 246)" offset="0" />
            <stop stop-color="rgb(178, 178, 178)" offset="1" />
        </linearGradient>
        <linearGradient id="e" gradientUnits="userSpaceOnUse" gradientTransform="matrix(-1, 0, 0, 1, 8460.45, -4.78)" x1="7959.73" y1="467.74" x2="8102.56" y2="467.74"><stop stop-color="rgb(255, 255, 255)" offset="0" />
            <stop stop-color="rgb(222, 222, 222)" offset="1" />
        </linearGradient>
        <linearGradient id="f" x1="7845.74" y1="512.77" x2="7926.93" y2="512.77" xlink:href="#e" />
        <linearGradient id="g" x1="7762.1" y1="545.82" x2="7789.4" y2="545.82" xlink:href="#e" />
        <linearGradient id="h" x1="8039.49" y1="552.28" x2="8093.84" y2="552.28" xlink:href="#e" />
        <linearGradient id="i" gradientTransform="matrix(-1, 0, 0, 1, 8460.45, 0)" x1="7976.91" y1="521.39" x2="8217.11" y2="521.39" xlink:href="#e" />
        <linearGradient id="j" x1="7891.97" y1="565.85" x2="7952.68" y2="565.85" xlink:href="#e" />
        <linearGradient id="k" x1="8114.7" y1="569.32" x2="8189.45" y2="569.32" xlink:href="#e" />
        <linearGradient id="l" gradientTransform="matrix(-1, 0, 0, 1, 8460.45, 0)" x1="7929.37" y1="523.86" x2="8161.58" y2="523.86" xlink:href="#e" />
        <linearGradient id="m" x1="8096.71" y1="612.52" x2="8133.52" y2="612.52" xlink:href="#e" />
        <linearGradient id="n" gradientTransform="matrix(-1, 0, 0, 1, 8460.45, 0)" x1="7873.62" y1="556.26" x2="8105.45" y2="556.26" xlink:href="#e" />
        <linearGradient id="o" gradientTransform="matrix(-1, 0, 0, 1, 8460.45, 0)" x1="7734.2" y1="596.55" x2="7993.04" y2="596.55" xlink:href="#e" />
        <linearGradient id="p" gradientTransform="matrix(-1, 0, 0, 1, 8460.45, 0)" x1="7817.85" y1="588.55" x2="8049.92" y2="588.55" xlink:href="#e" />
        <linearGradient id="q" gradientTransform="matrix(-1, 0, 0, 1, 8460.45, 0)" x1="7788.21" y1="636.39" x2="8022.04" y2="636.39" xlink:href="#e" />
        <linearGradient id="r" x1="7928.9" y1="684.76" x2="7992.97" y2="684.76" xlink:href="#e" />
        <linearGradient id="s" x1="7789.97" y1="534.24" x2="7833.33" y2="534.24" xlink:href="#e" />
        <linearGradient id="t" x1="8048.62" y1="647.42" x2="8077.19" y2="647.42" xlink:href="#e" />
        <linearGradient id="u" gradientUnits="userSpaceOnUse" x1="625.04" y1="558.53" x2="343.26" y2="558.53"><stop stop-color="rgb(29, 29, 27)" offset="0" />
            <stop stop-color="rgb(60, 60, 59)" offset="1" />
        </linearGradient>
        <linearGradient id="v" gradientUnits="userSpaceOnUse" x1="485.14" y1="523.13" x2="343.26" y2="523.13"><stop stop-color="rgb(29, 29, 27)" offset="0" />
            <stop stop-color="rgb(85, 84, 84)" offset="1" />
        </linearGradient>
        <linearGradient id="w" x1="625.04" y1="523.13" x2="485.14" y2="523.13" xlink:href="#v" />
        <linearGradient id="x" gradientTransform="translate(1117.67 808.45) rotate(119.67)" x1="370.15" y1="428.25" x2="88.37" y2="428.25" xlink:href="#u" />
        <linearGradient id="y" gradientTransform="translate(1117.67 808.45) rotate(119.67)" x1="230.25" y1="392.85" x2="88.37" y2="392.85" xlink:href="#v" />
        <linearGradient id="z" gradientTransform="translate(1117.67 808.45) rotate(119.67)" x1="370.15" y1="392.85" x2="230.25" y2="392.85" xlink:href="#v" />
        <clipPath id="aa" transform="translate(0 -4.78)"><polygon style="fill:none" points="248.32,830.78 248.76,674.77 433.61,781.49 433.17,937.5 248.32,830.78" /></clipPath>
        <linearGradient id="ab" gradientUnits="userSpaceOnUse" x1="530.88" y1="626.68" x2="530.88"><stop stop-color="rgb(49, 111, 146)" offset="0.67" />
            <stop stop-color="rgb(87, 136, 183)" stop-opacity="0" offset="0.87" />
        </linearGradient>
        <linearGradient id="ac" gradientUnits="userSpaceOnUse" x1="555.29" y1="325.22" x2="506.48" y2="325.22"><stop stop-color="rgb(49, 111, 146)" offset="0" />
            <stop stop-color="rgb(87, 136, 183)" offset="1" />
        </linearGradient>
        <linearGradient id="ad" x1="555.29" y1="277.53" x2="506.48" y2="277.53" xlink:href="#ac" />
        <linearGradient id="ae" x1="555.29" y1="229.29" x2="506.48" y2="229.29" xlink:href="#ac" />
        <linearGradient id="af" x1="555.29" y1="372.35" x2="506.48" y2="372.35" xlink:href="#ac" />
        <linearGradient id="ag" x1="555.29" y1="132.24" x2="506.48" y2="132.24" xlink:href="#ac" />
        <linearGradient id="ah" x1="555.29" y1="84.55" x2="506.48" y2="84.55" xlink:href="#ac" />
        <linearGradient id="ai" x1="555.29" y1="36.32" x2="506.48" y2="36.32" xlink:href="#ac" />
        <linearGradient id="aj" x1="555.29" y1="179.37" x2="506.48" y2="179.37" xlink:href="#ac" />
        <linearGradient id="ak" x1="555.29" y1="516.28" x2="506.48" y2="516.28" xlink:href="#ac" />
        <linearGradient id="al" x1="555.29" y1="468.59" x2="506.48" y2="468.59" xlink:href="#ac" />
        <linearGradient id="am" x1="555.29" y1="597.6" x2="506.48" y2="597.6" xlink:href="#ac" />
        <linearGradient id="an" x1="555.29" y1="420.36" x2="506.48" y2="420.36" xlink:href="#ac" />
        <linearGradient id="ao" x1="555.29" y1="563.41" x2="506.48" y2="563.41" xlink:href="#ac" />
        <linearGradient id="ap" gradientUnits="userSpaceOnUse" gradientTransform="translate(1262.45 1929.31) rotate(180)" x1="805.61" y1="1292.23" x2="805.61" y2="1907.89"><stop stop-color="rgb(233, 72, 47)" offset="0.74" />
            <stop stop-color="rgb(239, 124, 84)" stop-opacity="0" offset="0.94" />
        </linearGradient>
        <linearGradient id="aq" gradientUnits="userSpaceOnUse" gradientTransform="translate(1262.45 1929.31) rotate(180)" x1="831.06" y1="1639.25" x2="780.15" y2="1639.25"><stop stop-color="rgb(233, 72, 47)" offset="0" />
            <stop stop-color="rgb(239, 124, 84)" offset="1" />
        </linearGradient>
        <linearGradient id="ar" x1="831.06" y1="1589.52" x2="780.15" y2="1589.52" xlink:href="#aq" />
        <linearGradient id="as" x1="831.06" y1="1539.22" x2="780.15" y2="1539.22" xlink:href="#aq" />
        <linearGradient id="at" x1="831.06" y1="1688.4" x2="780.15" y2="1688.4" xlink:href="#aq" />
        <linearGradient id="au" x1="831.06" y1="1438" x2="780.15" y2="1438" xlink:href="#aq" />
        <linearGradient id="av" x1="819.98" y1="1310.55" x2="787.86" y2="1310.55" xlink:href="#aq" />
        <linearGradient id="aw" x1="831.06" y1="1388.27" x2="780.15" y2="1388.27" xlink:href="#aq" />
        <linearGradient id="ax" x1="831.06" y1="1337.97" x2="780.15" y2="1337.97" xlink:href="#aq" />
        <linearGradient id="ay" x1="831.06" y1="1487.15" x2="780.15" y2="1487.15" xlink:href="#aq" />
        <linearGradient id="az" x1="831.06" y1="1838.5" x2="780.15" y2="1838.5" xlink:href="#aq" />
        <linearGradient id="ba" x1="831.06" y1="1788.78" x2="780.15" y2="1788.78" xlink:href="#aq" />
        <linearGradient id="bb" x1="831.06" y1="1738.47" x2="780.15" y2="1738.47" xlink:href="#aq" />
        <linearGradient id="bc" x1="831.06" y1="1887.65" x2="780.15" y2="1887.65" xlink:href="#aq" />
        <linearGradient id="bd" gradientTransform="translate(-226.48 660.21) rotate(-59.35)" x1="362.12" y1="994.97" x2="318.64" y2="994.97" xlink:href="#aq" />
        <linearGradient id="be" gradientTransform="translate(-226.48 660.21) rotate(-59.35)" x1="362.12" y1="1037.2" x2="318.64" y2="1037.2" xlink:href="#aq" />
        <linearGradient id="bf" gradientTransform="translate(-226.48 664.99) rotate(-59.35)" x1="362.12" y1="789.97" x2="318.64" y2="789.97" xlink:href="#aq" />
        <linearGradient id="bg" gradientTransform="translate(-226.48 660.21) rotate(-59.35)" x1="362.12" y1="941.93" x2="318.64" y2="941.93" xlink:href="#aq" />
        <linearGradient id="bh" gradientTransform="translate(-226.48 660.21) rotate(-59.35)" x1="362.11" y1="745.43" x2="318.81" y2="745.43" xlink:href="#aq" />
        <linearGradient id="bi" gradientTransform="translate(-226.48 660.21) rotate(-59.35)" x1="362.12" y1="888.39" x2="318.64" y2="888.39" xlink:href="#aq" />
        <linearGradient id="bj" gradientTransform="translate(-226.48 660.21) rotate(-59.35)" x1="318.76" y1="1094.99" x2="318.51" y2="1094.99" xlink:href="#aq" />
        <linearGradient id="bk" gradientTransform="translate(-226.48 660.21) rotate(-59.35)" x1="362.12" y1="857.6" x2="361.75" y2="857.6" xlink:href="#aq" />
        <linearGradient id="bl" gradientTransform="translate(-226.48 660.21) rotate(-59.35)" x1="318.8" y1="842.84" x2="318.48" y2="842.84" xlink:href="#aq" />
        <linearGradient id="bm" gradientTransform="translate(-226.48 660.21) rotate(-59.35)" x1="362.12" y1="845.52" x2="318.64" y2="845.52" xlink:href="#aq" />
        <linearGradient id="bo" gradientTransform="translate(-226.48 660.21) rotate(-59.35)" x1="362.12" y1="803.05" x2="318.64" y2="803.05" xlink:href="#aq" />
        <linearGradient id="bq" gradientTransform="translate(-226.48 660.21) rotate(-59.35)" x1="362.12" y1="760" x2="318.64" y2="760" xlink:href="#aq" />
        <linearGradient id="bs" gradientTransform="translate(-226.48 660.21) rotate(-59.35)" x1="362.12" y1="882.1" x2="361.99" y2="882.1" xlink:href="#aq" />
        <linearGradient id="bt" gradientTransform="translate(-226.48 660.21) rotate(-59.35)" x1="362.12" y1="887.51" x2="318.64" y2="887.51" xlink:href="#aq" />
        <linearGradient id="bv" gradientTransform="translate(-226.48 660.21) rotate(-59.35)" x1="362.28" y1="741.29" x2="318.57" y2="741.29" xlink:href="#aq" />
        <linearGradient id="bw" gradientTransform="translate(-226.48 660.21) rotate(-59.35)" x1="362.4" y1="741.16" x2="318.31" y2="741.16" xlink:href="#aq" />
        <linearGradient id="bx" gradientTransform="translate(-226.48 660.21) rotate(-59.35)" x1="362.2" y1="1015.67" x2="318.72" y2="1015.67" xlink:href="#aq" />
        <linearGradient id="by" gradientTransform="translate(-226.48 660.21) rotate(-59.35)" x1="362.2" y1="973.19" x2="318.72" y2="973.19" xlink:href="#aq" />
        <linearGradient id="bz" gradientTransform="translate(-226.48 660.21) rotate(-59.35)" x1="318.69" y1="902.66" x2="318.58" y2="902.66" xlink:href="#aq" />
        <linearGradient id="ca" gradientTransform="translate(-226.48 660.21) rotate(-59.35)" x1="362.12" y1="932.99" x2="362.09" y2="932.99" xlink:href="#aq" />
        <linearGradient id="cb" gradientTransform="translate(-226.48 660.21) rotate(-59.35)" x1="362.12" y1="930.27" x2="318.64" y2="930.27" xlink:href="#aq" />
        <linearGradient id="cd" gradientTransform="translate(-226.48 660.21) rotate(-59.35)" x1="362.2" y1="1057.65" x2="318.72" y2="1057.65" xlink:href="#aq" />
        <linearGradient id="ce" gradientUnits="userSpaceOnUse" x1="992.38" y1="287.33" x2="543.71" y2="287.33"><stop stop-color="rgb(87, 183, 178)" offset="0" />
            <stop stop-color="rgb(49, 145, 138)" offset="1" />
        </linearGradient>
        <linearGradient id="cf" x1="992.38" y1="531.72" x2="543.71" y2="531.72" xlink:href="#ce" />
        <linearGradient id="cg" x1="992.38" y1="495.36" x2="543.71" y2="495.36" xlink:href="#ce" />
        <linearGradient id="ch" x1="992.38" y1="387.59" x2="543.71" y2="387.59" xlink:href="#ce" />
        <linearGradient id="ci" x1="992.38" y1="236.7" x2="543.71" y2="236.7" xlink:href="#ce" />
        <linearGradient id="cj" x1="992.38" y1="337.37" x2="543.71" y2="337.37" xlink:href="#ce" />
        <linearGradient id="ck" x1="992.38" y1="450.24" x2="543.71" y2="450.24" xlink:href="#ce" />
        <linearGradient id="cl" x1="992.38" y1="502.18" x2="543.71" y2="502.18" xlink:href="#ce" />
        <linearGradient id="cm" x1="992.38" y1="646.41" x2="543.71" y2="646.41" xlink:href="#ce" />
        <linearGradient id="cn" x1="992.38" y1="184.88" x2="543.71" y2="184.88" xlink:href="#ce" />
        <linearGradient id="co" x1="992.38" y1="133.65" x2="543.71" y2="133.65" xlink:href="#ce" />
        <linearGradient id="cp" x1="992.38" y1="532.27" x2="543.71" y2="532.27" xlink:href="#ce" />
        <linearGradient id="cq" x1="992.38" y1="570.67" x2="543.71" y2="570.67" xlink:href="#ce" />
        <linearGradient id="cr" gradientUnits="userSpaceOnUse" gradientTransform="matrix(-0.55, -0.94, -0.86, 0.5, 1477.34, 526.35)" x1="275.66" y1="567.07" x2="227.58" y2="567.07"><stop stop-color="rgb(49, 145, 138)" offset="0" />
            <stop stop-color="rgb(87, 183, 178)" offset="1" />
        </linearGradient>
        <linearGradient id="cs" x1="992.38" y1="570.93" x2="543.71" y2="570.93" xlink:href="#ce" />
        <linearGradient id="ct" x1="275.66" y1="563.7" x2="227.58" y2="563.7" xlink:href="#cr" />
        <linearGradient id="cu" x1="275.66" y1="529.31" x2="227.58" y2="529.31" xlink:href="#cr" />
        <linearGradient id="cv" gradientTransform="matrix(-0.55, -0.94, -0.86, 0.5, 1477.34, 531.13)" x1="275.66" y1="499.24" x2="257.8" y2="499.24" xlink:href="#cr" />
        <linearGradient id="cw" x1="992.38" y1="550.1" x2="543.71" y2="550.1" xlink:href="#ce" />
        <linearGradient id="cx" gradientTransform="matrix(-0.55, -0.94, -0.86, 0.5, 1477.34, 531.13)" x1="275.66" y1="512.22" x2="227.58" y2="512.22" xlink:href="#cr" />
        <linearGradient id="cy" x1="275" y1="638.34" x2="226.91" y2="638.34" xlink:href="#cr" />
        <linearGradient id="cz" x1="992.38" y1="641.3" x2="543.71" y2="641.3" xlink:href="#ce" />
        <linearGradient id="da" x1="275" y1="651.64" x2="226.91" y2="651.64" xlink:href="#cr" />
        <linearGradient id="db" x1="275" y1="598.1" x2="226.91" y2="598.1" xlink:href="#cr" />
        <linearGradient id="dc" x1="992.38" y1="599.16" x2="543.71" y2="599.16" xlink:href="#ce" />
        <linearGradient id="dd" x1="275" y1="618.95" x2="226.91" y2="618.95" xlink:href="#cr" />
        <linearGradient id="de" gradientTransform="matrix(-0.49, -0.85, -0.86, 0.5, 1390.65, 382.58)" x1="139.99" y1="444.65" x2="76.2" y2="444.65" xlink:href="#cr" />
        <linearGradient id="df" gradientTransform="matrix(-0.49, -0.85, -0.86, 0.5, 1390.65, 382.58)" x1="139.99" y1="423.26" x2="76.2" y2="423.26" xlink:href="#cr" />
        <linearGradient id="dg" gradientTransform="matrix(-0.49, -0.85, -0.86, 0.5, 1390.65, 382.58)" x1="139.99" y1="456.58" x2="76.2" y2="456.58" xlink:href="#cr" />
        <linearGradient id="dh" x1="992.38" y1="517.89" x2="543.71" y2="517.89" xlink:href="#ce" />
        <linearGradient id="di" gradientTransform="matrix(-0.49, -0.85, -0.86, 0.5, 1390.65, 382.58)" x1="139.99" y1="458.1" x2="76.2" y2="458.1" xlink:href="#cr" />
        <linearGradient id="dj" gradientTransform="matrix(0.55, -0.29, 0.88, 1.64, 13.2, -533.93)" x1="632.06" y1="702.29" x2="556.58" y2="702.29" xlink:href="#cr" />
        <linearGradient id="dk" gradientTransform="matrix(0.55, -0.29, 0.88, 1.64, 13.2, -533.93)" x1="632.06" y1="733.44" x2="556.58" y2="733.44" xlink:href="#cr" />
        <linearGradient id="dl" x1="992.38" y1="468.55" x2="543.71" y2="468.55" xlink:href="#ce" />
        <linearGradient id="dm" gradientTransform="matrix(0.55, -0.29, 0.88, 1.64, 13.2, -533.93)" x1="632.06" y1="715.16" x2="556.58" y2="715.16" xlink:href="#cr" />
        <linearGradient id="dn" gradientTransform="translate(123.21 -43.25)" x1="869.17" y1="334.68" x2="817.65" y2="334.68" xlink:href="#ce" />
        <linearGradient id="do" gradientTransform="translate(123.21 -43.25)" x1="869.17" y1="358.58" x2="817.65" y2="358.58" xlink:href="#ce" />
        <linearGradient id="dp" x1="992.38" y1="311.91" x2="543.71" y2="311.91" xlink:href="#ce" />
        <linearGradient id="dq" gradientTransform="translate(123.21 -43.25)" x1="869.17" y1="355.16" x2="817.65" y2="355.16" xlink:href="#ce" />
        <linearGradient id="dr" gradientTransform="translate(123.21 -43.25)" x1="869.17" y1="308.21" x2="817.65" y2="308.21" xlink:href="#ce" />
        <linearGradient id="ds" gradientTransform="translate(123.21 -43.25)" x1="869.17" y1="284.34" x2="817.65" y2="284.34" xlink:href="#ce" />
        <linearGradient id="dt" x1="992.38" y1="261.57" x2="543.71" y2="261.57" xlink:href="#ce" />
        <linearGradient id="du" gradientTransform="translate(123.21 -43.25)" x1="869.17" y1="304.82" x2="817.65" y2="304.82" xlink:href="#ce" />
        <linearGradient id="dv" gradientTransform="translate(123.21 -43.25)" x1="869.17" y1="257.26" x2="817.65" y2="257.26" xlink:href="#ce" />
        <linearGradient id="dw" gradientTransform="translate(123.21 -43.25)" x1="869.17" y1="233.42" x2="817.65" y2="233.42" xlink:href="#ce" />
        <linearGradient id="dx" x1="992.38" y1="210.65" x2="543.71" y2="210.65" xlink:href="#ce" />
        <linearGradient id="dy" gradientTransform="translate(123.21 -43.25)" x1="869.17" y1="253.89" x2="817.65" y2="253.89" xlink:href="#ce" />
        <linearGradient id="dz" gradientTransform="translate(123.21 -43.25)" x1="869.17" y1="384.44" x2="817.65" y2="384.44" xlink:href="#ce" />
        <linearGradient id="ea" gradientTransform="translate(123.21 -43.25)" x1="869.17" y1="408.37" x2="817.65" y2="408.37" xlink:href="#ce" />
        <linearGradient id="eb" x1="992.38" y1="361.67" x2="543.71" y2="361.67" xlink:href="#ce" />
        <linearGradient id="ec" gradientTransform="translate(123.21 -43.25)" x1="869.17" y1="404.91" x2="817.65" y2="404.91" xlink:href="#ce" />
        <linearGradient id="ed" gradientTransform="translate(123.21 -43.25)" x1="869.19" y1="151.29" x2="817.67" y2="151.29" xlink:href="#ce" />
        <linearGradient id="ee" gradientTransform="translate(123.21 -43.25)" x1="869.19" y1="201.05" x2="817.67" y2="201.05" xlink:href="#ce" />
        <linearGradient id="ef" gradientTransform="translate(123.21 -43.25)" x1="869.17" y1="459.08" x2="817.65" y2="459.08" xlink:href="#ce" />
        <linearGradient id="eg" gradientTransform="translate(123.21 -43.25)" x1="869.17" y1="435.12" x2="817.65" y2="435.12" xlink:href="#ce" />
        <linearGradient id="eh" x1="992.38" y1="412.35" x2="543.71" y2="412.35" xlink:href="#ce" />
        <linearGradient id="ei" gradientTransform="translate(123.21 -43.25)" x1="869.17" y1="455.6" x2="817.65" y2="455.6" xlink:href="#ce" />
        <linearGradient id="ej" gradientTransform="translate(1262.45 1934.09) rotate(180)" x1="601.85" y1="1396.5" x2="349.83" y2="1396.5" xlink:href="#aq" />
        <linearGradient id="ek" gradientTransform="translate(1262.45 1934.09) rotate(180)" x1="601.85" y1="1441.37" x2="349.83" y2="1441.37" xlink:href="#aq" />
        <linearGradient id="el" x1="601.85" y1="1665.3" x2="349.83" y2="1665.3" xlink:href="#aq" />
        <linearGradient id="em" gradientTransform="translate(1262.45 1934.09) rotate(180)" x1="601.85" y1="1560.2" x2="349.83" y2="1560.2" xlink:href="#aq" />
        <linearGradient id="en" x1="601.85" y1="1715.92" x2="349.83" y2="1715.92" xlink:href="#aq" />
        <linearGradient id="eo" x1="601.85" y1="1765.95" x2="349.83" y2="1765.95" xlink:href="#aq" />
        <linearGradient id="ep" x1="601.85" y1="1740.5" x2="349.83" y2="1740.5" xlink:href="#aq" />
        <linearGradient id="eq" x1="401.35" y1="1740.5" x2="349.83" y2="1740.5" xlink:href="#aq" />
        <linearGradient id="er" x1="601.85" y1="1690.17" x2="349.83" y2="1690.17" xlink:href="#aq" />
        <linearGradient id="es" x1="401.35" y1="1690.17" x2="349.83" y2="1690.17" xlink:href="#aq" />
        <linearGradient id="et" x1="601.85" y1="1639.26" x2="349.83" y2="1639.26" xlink:href="#aq" />
        <linearGradient id="eu" x1="401.35" y1="1639.26" x2="349.83" y2="1639.26" xlink:href="#aq" />
        <linearGradient id="ev" x1="401.33" y1="1790.38" x2="349.81" y2="1790.38" xlink:href="#aq" />
        <linearGradient id="ew" x1="601.85" y1="1815.88" x2="349.83" y2="1815.88" xlink:href="#aq" />
        <linearGradient id="ex" x1="401.33" y1="1840.3" x2="349.81" y2="1840.3" xlink:href="#aq" />
        <linearGradient id="ey" x1="601.85" y1="1587.99" x2="349.83" y2="1587.99" xlink:href="#aq" />
        <linearGradient id="ez" gradientTransform="matrix(-1.05, -0.01, 0.01, -1, 730.59, 1813.94)" x1="-117.62" y1="1473.45" x2="-165.71" y2="1473.45" xlink:href="#aq" />
        <linearGradient id="fa" x1="601.85" y1="1536.51" x2="349.83" y2="1536.51" xlink:href="#aq" />
        <linearGradient id="fb" gradientTransform="matrix(-1.05, -0.01, 0.01, -1, 730.59, 1813.94)" x1="-117.62" y1="1421.98" x2="-165.71" y2="1421.98" xlink:href="#aq" />
        <linearGradient id="fc" gradientTransform="matrix(-0.95, 0, 0.01, -1, 563.28, 1817.88)" x1="-294.88" y1="1367.9" x2="-358.68" y2="1367.9" xlink:href="#aq" />
        <linearGradient id="fd" gradientTransform="matrix(-0.95, 0, 0.01, -1, 563.28, 1817.88)" x1="-294.88" y1="1345.25" x2="-358.68" y2="1345.25" xlink:href="#aq" />
        <linearGradient id="fe" gradientTransform="translate(1262.45 1934.09) rotate(180)" x1="601.85" y1="1482.17" x2="349.83" y2="1482.17" xlink:href="#aq" />
        <linearGradient id="ff" gradientTransform="matrix(-0.95, 0, 0.01, -1, 563.28, 1817.88)" x1="-294.88" y1="1367.61" x2="-358.68" y2="1367.61" xlink:href="#aq" />
        <linearGradient id="fg" gradientTransform="matrix(-0.95, 0, 0.01, -1, 563.28, 1817.88)" x1="-259.73" y1="1314.03" x2="-337.27" y2="1314.03" xlink:href="#aq" />
        <linearGradient id="fh" gradientTransform="translate(1262.45 1934.09) rotate(180)" x1="601.85" y1="1437.22" x2="349.83" y2="1437.22" xlink:href="#aq" />
        <linearGradient id="fi" gradientTransform="matrix(-0.95, 0, 0.01, -1, 563.28, 1817.88)" x1="-259.73" y1="1322.46" x2="-337.27" y2="1322.46" xlink:href="#aq" />
        <linearGradient id="fj" gradientTransform="matrix(-0.95, -0.08, 0.08, -1, 497.32, 1803.59)" x1="-181.5" y1="1295.64" x2="-259.04" y2="1295.64" xlink:href="#aq" />
        <linearGradient id="fk" x1="601.85" y1="1413.04" x2="349.83" y2="1413.04" xlink:href="#aq" />
        <linearGradient id="fl" gradientTransform="matrix(-0.95, -0.08, 0.08, -1, 497.32, 1803.59)" x1="-181.5" y1="1308.84" x2="-259.04" y2="1308.84" xlink:href="#aq" />
        <linearGradient id="fm" gradientTransform="matrix(-0.95, -0.08, 0.08, -1, 497.32, 1803.59)" x1="-142.73" y1="1270.91" x2="-220.27" y2="1270.91" xlink:href="#aq" />
        <linearGradient id="fn" x1="601.85" y1="1391.42" x2="349.83" y2="1391.42" xlink:href="#aq" />
        <linearGradient id="fo" gradientTransform="matrix(-0.95, -0.08, 0.08, -1, 497.32, 1803.59)" x1="-142.73" y1="1284.11" x2="-220.26" y2="1284.11" xlink:href="#aq" />
        <linearGradient id="fp" gradientTransform="translate(1262.45 1934.09) rotate(180)" x1="601.85" y1="1374.39" x2="349.83" y2="1374.39" xlink:href="#aq" />
        <linearGradient id="fq" gradientTransform="matrix(-0.95, -0.08, 0.08, -1, 497.32, 1808.37)" x1="-103.95" y1="1265.08" x2="-181.5" y2="1265.08" xlink:href="#aq" />
        <linearGradient id="fr" gradientTransform="translate(1732.3 925.39) rotate(120.49)" x1="531.76" y1="1514.45" x2="-89.65" y2="1514.45" xlink:href="#aq" />
        <linearGradient id="fs" gradientTransform="translate(1732.3 925.39) rotate(120.49)" x1="531.76" y1="1663.54" x2="-89.65" y2="1663.54" xlink:href="#aq" />
        <linearGradient id="ft" gradientTransform="translate(1732.3 920.61) rotate(120.49)" x1="531.76" y1="1560.53" x2="-89.65" y2="1560.53" xlink:href="#aq" />
        <linearGradient id="fu" gradientTransform="translate(1732.3 925.39) rotate(120.49)" x1="531.76" y1="1618.41" x2="-89.65" y2="1618.41" xlink:href="#aq" />
        <linearGradient id="fv" gradientTransform="translate(1732.3 925.39) rotate(120.49)" x1="531.76" y1="1670.36" x2="-89.65" y2="1670.36" xlink:href="#aq" />
        <linearGradient id="fw" gradientTransform="translate(1732.3 925.39) rotate(120.49)" x1="531.76" y1="1699.92" x2="-89.65" y2="1699.92" xlink:href="#aq" />
        <linearGradient id="fx" gradientTransform="translate(1732.3 920.61) rotate(120.49)" x1="255.98" y1="1866.36" x2="157.38" y2="1866.36" xlink:href="#aq" />
        <linearGradient id="fy" gradientTransform="translate(1732.3 920.61) rotate(120.49)" x1="298.45" y1="1838.71" x2="205.96" y2="1838.71" xlink:href="#aq" />
        <linearGradient id="fz" gradientTransform="translate(1732.3 920.61) rotate(120.49)" x1="373.07" y1="1811.8" x2="250.32" y2="1811.8" xlink:href="#aq" />
        <linearGradient id="ga" gradientTransform="translate(1732.3 925.39) rotate(120.49)" x1="531.76" y1="1477.48" x2="-89.65" y2="1477.48" xlink:href="#aq" />
        <linearGradient id="gb" gradientTransform="translate(1732.3 920.61) rotate(120.49)" x1="531.76" y1="1757.72" x2="-89.65" y2="1757.72" xlink:href="#aq" />
        <linearGradient id="gc" gradientTransform="translate(1732.3 925.39) rotate(120.49)" x1="531.76" y1="1700.45" x2="-89.65" y2="1700.45" xlink:href="#aq" />
        <linearGradient id="gd" gradientTransform="translate(1732.3 925.39) rotate(120.49)" x1="531.76" y1="1700.11" x2="-89.65" y2="1700.11" xlink:href="#aq" />
        <linearGradient id="ge" gradientTransform="matrix(1.08, 0, 0, -1, 524.98, 1924.11)" x1="-441.43" y1="1553.69" x2="-489.52" y2="1553.69" xlink:href="#aq" />
        <linearGradient id="gf" gradientTransform="translate(1732.3 920.61) rotate(120.49)" x1="531.76" y1="1743.89" x2="-89.65" y2="1743.89" xlink:href="#aq" />
        <linearGradient id="gg" gradientTransform="matrix(1.08, 0, 0, -1, 524.98, 1924.11)" x1="-441.43" y1="1550.33" x2="-489.52" y2="1550.33" xlink:href="#aq" />
        <linearGradient id="gh" gradientTransform="matrix(1.08, 0, 0, -1, 524.98, 1924.11)" x1="-441.43" y1="1515.98" x2="-489.52" y2="1515.98" xlink:href="#aq" />
        <linearGradient id="gi" gradientTransform="matrix(1.08, 0, 0, -1, 524.98, 1928.89)" x1="-441.43" y1="1485.87" x2="-460.26" y2="1485.87" xlink:href="#aq" />
        <linearGradient id="gj" gradientTransform="matrix(1.08, 0, 0, -1, 524.98, 1924.11)" x1="-489.44" y1="1465.56" x2="-489.6" y2="1465.56" xlink:href="#aq" />
        <linearGradient id="gk" gradientTransform="translate(1732.3 925.39) rotate(120.49)" x1="531.76" y1="1718.28" x2="-89.65" y2="1718.28" xlink:href="#aq" />
        <linearGradient id="gl" gradientTransform="matrix(1.08, 0, 0, -1, 524.98, 1928.89)" x1="-441.43" y1="1498.85" x2="-489.52" y2="1498.85" xlink:href="#aq" />
        <linearGradient id="gm" gradientTransform="matrix(1.08, 0, 0, -1, 524.98, 1924.11)" x1="-442.1" y1="1669.29" x2="-490.18" y2="1669.29" xlink:href="#aq" />
        <linearGradient id="gn" gradientTransform="matrix(1.08, 0, 0, -1, 524.98, 1924.11)" x1="-442.1" y1="1625.85" x2="-490.18" y2="1625.85" xlink:href="#aq" />
        <linearGradient id="go" gradientTransform="translate(1732.3 920.61) rotate(120.49)" x1="531.76" y1="1798.07" x2="-89.65" y2="1798.07" xlink:href="#aq" />
        <linearGradient id="gp" gradientTransform="matrix(1.08, 0, 0, -1, 524.98, 1924.11)" x1="-442.1" y1="1656.87" x2="-490.18" y2="1656.87" xlink:href="#aq" />
        <linearGradient id="gq" gradientTransform="matrix(1.08, 0, 0, -1, 524.98, 1924.11)" x1="-442.1" y1="1584.74" x2="-490.18" y2="1584.74" xlink:href="#aq" />
        <linearGradient id="gr" gradientTransform="translate(1732.3 920.61) rotate(120.49)" x1="531.76" y1="1772.12" x2="-89.65" y2="1772.12" xlink:href="#aq" />
        <linearGradient id="gs" gradientTransform="matrix(1.08, 0, 0, -1, 524.98, 1924.11)" x1="-442.1" y1="1605.58" x2="-490.18" y2="1605.58" xlink:href="#aq" />
        <linearGradient id="gt" gradientTransform="matrix(1.08, 0, 0, -1, 524.98, 1924.11)" x1="-442.43" y1="1763.33" x2="-490.48" y2="1763.33" xlink:href="#aq" />
        <linearGradient id="gu" gradientTransform="matrix(1.08, 0, 0, -1, 524.98, 1924.11)" x1="-442.41" y1="1691.02" x2="-490.5" y2="1691.02" xlink:href="#aq" />
        <linearGradient id="gv" gradientTransform="translate(1732.3 920.61) rotate(120.49)" x1="531.76" y1="1826.04" x2="-89.65" y2="1826.04" xlink:href="#aq" />
        <linearGradient id="gw" gradientTransform="matrix(1.08, 0, 0, -1, 524.98, 1924.11)" x1="-442.41" y1="1711.86" x2="-490.48" y2="1711.86" xlink:href="#aq" />
        <linearGradient id="gx" gradientTransform="matrix(1.08, 0, 0, -1, 524.98, 1924.11)" x1="-461.94" y1="1817.34" x2="-491.13" y2="1817.34" xlink:href="#aq" />
        <linearGradient id="gy" gradientTransform="matrix(1.08, 0, 0, -1, 524.98, 1924.11)" x1="-443.04" y1="1781.39" x2="-491.13" y2="1781.39" xlink:href="#aq" />
        <linearGradient id="gz" gradientTransform="matrix(1.08, 0, 0, -1, 524.98, 1924.11)" x1="-442.63" y1="1820.28" x2="-491.11" y2="1820.28" xlink:href="#aq" />
        <linearGradient id="ha" gradientTransform="matrix(0.98, 0, 0, -1, 696.98, 1929.57)" x1="-652.94" y1="1443.21" x2="-716.73" y2="1443.21" xlink:href="#aq" />
        <linearGradient id="hb" gradientTransform="matrix(0.98, 0, 0, -1, 696.98, 1929.57)" x1="-652.94" y1="1431.28" x2="-716.73" y2="1431.28" xlink:href="#aq" />
        <linearGradient id="hc" gradientTransform="matrix(0.98, 0, 0, -1, 696.98, 1929.57)" x1="-652.94" y1="1409.89" x2="-716.73" y2="1409.89" xlink:href="#aq" />
        <linearGradient id="hd" gradientTransform="translate(1732.3 925.39) rotate(120.49)" x1="531.76" y1="1686.07" x2="-89.65" y2="1686.07" xlink:href="#aq" />
        <linearGradient id="he" gradientTransform="matrix(0.98, 0, 0, -1, 696.98, 1929.57)" x1="-652.94" y1="1444.73" x2="-716.73" y2="1444.73" xlink:href="#aq" />
        <linearGradient id="hf" gradientTransform="matrix(-0.03, 0.62, -1.86, -0.08, 2185.69, 1207.7)" x1="-904.11" y1="1170.89" x2="-979.59" y2="1170.89" xlink:href="#aq" />
        <linearGradient id="hg" gradientTransform="matrix(-0.03, 0.62, -1.86, -0.08, 2185.69, 1207.7)" x1="-904.11" y1="1139.74" x2="-979.59" y2="1139.74" xlink:href="#aq" />
        <linearGradient id="hh" gradientTransform="translate(1732.3 925.39) rotate(120.49)" x1="531.76" y1="1636.72" x2="-89.65" y2="1636.72" xlink:href="#aq" />
        <linearGradient id="hi" gradientTransform="matrix(-0.03, 0.62, -1.86, -0.08, 2185.69, 1207.7)" x1="-904.11" y1="1152.61" x2="-979.59" y2="1152.61" xlink:href="#aq" />
        <linearGradient id="hj" gradientTransform="matrix(-0.51, 0.86, -0.86, -0.51, 1702.92, 1046.29)" x1="408.55" y1="1526.63" x2="357.03" y2="1526.63" xlink:href="#aq" />
        <linearGradient id="hk" gradientTransform="translate(1732.3 925.39) rotate(120.49)" x1="531.76" y1="1497.03" x2="-89.65" y2="1497.03" xlink:href="#aq" />
        <linearGradient id="hl" gradientTransform="matrix(-0.51, 0.86, -0.86, -0.51, 1702.92, 1051.08)" x1="408.55" y1="1535.49" x2="357.03" y2="1535.49" xlink:href="#aq" />
        <linearGradient id="hm" gradientTransform="matrix(-0.51, 0.86, -0.86, -0.51, 1702.92, 1046.29)" x1="408.55" y1="1552.59" x2="357.03" y2="1552.59" xlink:href="#aq" />
        <linearGradient id="hn" gradientTransform="matrix(-0.51, 0.86, -0.86, -0.51, 1702.92, 1046.29)" x1="408.55" y1="1576.46" x2="357.03" y2="1576.46" xlink:href="#aq" />
        <linearGradient id="ho" gradientTransform="translate(1732.3 920.61) rotate(120.49)" x1="531.76" y1="1534.59" x2="-89.65" y2="1534.59" xlink:href="#aq" />
        <linearGradient id="hp" gradientTransform="matrix(-0.51, 0.86, -0.86, -0.51, 1702.92, 1046.29)" x1="408.55" y1="1573.06" x2="357.03" y2="1573.06" xlink:href="#aq" />
        <linearGradient id="hq" gradientTransform="matrix(-0.51, 0.86, -0.86, -0.51, 1702.92, 1046.29)" x1="408.55" y1="1627.22" x2="357.03" y2="1627.22" xlink:href="#aq" />
        <linearGradient id="hr" gradientTransform="matrix(-0.51, 0.86, -0.86, -0.51, 1702.92, 1046.29)" x1="408.55" y1="1603.29" x2="357.03" y2="1603.29" xlink:href="#aq" />
        <linearGradient id="hs" gradientTransform="translate(1732.3 920.61) rotate(120.49)" x1="531.76" y1="1585.29" x2="-89.65" y2="1585.29" xlink:href="#aq" />
        <linearGradient id="ht" gradientTransform="matrix(-0.51, 0.86, -0.86, -0.51, 1702.92, 1046.29)" x1="408.55" y1="1623.75" x2="357.03" y2="1623.75" xlink:href="#aq" />
        <linearGradient id="hu" gradientUnits="userSpaceOnUse" gradientTransform="matrix(-1, 0, 0, 1, 1120.79, -4.78)" x1="1041.77" y1="88.58" x2="822.29" y2="88.58"><stop stop-color="rgb(48, 64, 147)" offset="0" />
            <stop stop-color="rgb(88, 117, 184)" offset="1" />
        </linearGradient>
        <linearGradient id="hv" x1="1041.77" y1="139.81" x2="822.29" y2="139.81" xlink:href="#hu" />
        <linearGradient id="hw" x1="1041.77" y1="527.3" x2="822.29" y2="527.3" xlink:href="#hu" />
        <linearGradient id="hx" gradientTransform="matrix(-1, 0, 0, 1, 1120.79, 0)" x1="1041.77" y1="511.84" x2="822.29" y2="511.84" xlink:href="#hu" />
        <linearGradient id="hy" x1="1041.77" y1="191.63" x2="822.29" y2="191.63" xlink:href="#hu" />
        <linearGradient id="hz" x1="1041.77" y1="292.31" x2="822.29" y2="292.31" xlink:href="#hu" />
        <linearGradient id="ia" x1="1041.77" y1="242.26" x2="822.29" y2="242.26" xlink:href="#hu" />
        <linearGradient id="ib" x1="1041.77" y1="342.53" x2="822.29" y2="342.53" xlink:href="#hu" />
        <linearGradient id="ic" gradientTransform="matrix(-1, 0, 0, 1, 1120.79, 0)" x1="1041.77" y1="400.66" x2="822.29" y2="400.66" xlink:href="#hu" />
        <linearGradient id="id" gradientTransform="matrix(-1, 0, 0, 1, 1120.79, 0)" x1="1041.77" y1="445.5" x2="822.29" y2="445.5" xlink:href="#hu" />
        <linearGradient id="ie" gradientTransform="matrix(-1, 0, 0, 1, 1120.79, 0)" x1="1041.77" y1="483.87" x2="822.29" y2="483.87" xlink:href="#hu" />
        <linearGradient id="if" gradientTransform="matrix(0.55, -0.94, 0.86, 0.5, -356.55, 526.35)" x1="292.48" y1="499.34" x2="244.39" y2="499.34" xlink:href="#hu" />
        <linearGradient id="ig" gradientTransform="matrix(-1, 0, 0, 1, 1120.79, 0)" x1="1041.77" y1="525.99" x2="822.29" y2="525.99" xlink:href="#hu" />
        <linearGradient id="ih" gradientTransform="matrix(0.55, -0.94, 0.86, 0.5, -356.55, 531.13)" x1="292.48" y1="491.91" x2="244.39" y2="491.91" xlink:href="#hu" />
        <linearGradient id="ii" gradientTransform="matrix(0.55, -0.94, 0.86, 0.5, -356.55, 531.13)" x1="292.48" y1="448.39" x2="244.39" y2="448.39" xlink:href="#hu" />
        <linearGradient id="ij" gradientTransform="matrix(-1, 0, 0, 1, 1120.79, 0)" x1="1041.77" y1="500.42" x2="822.29" y2="500.42" xlink:href="#hu" />
        <linearGradient id="ik" gradientTransform="matrix(0.55, -0.94, 0.86, 0.5, -356.55, 531.13)" x1="292.48" y1="444.4" x2="244.39" y2="444.4" xlink:href="#hu" />
        <linearGradient id="il" gradientTransform="matrix(0.49, -0.85, 0.86, 0.5, -269.86, 382.58)" x1="158.58" y1="353.11" x2="94.79" y2="353.11" xlink:href="#hu" />
        <linearGradient id="im" gradientTransform="matrix(0.49, -0.85, 0.86, 0.5, -269.86, 382.58)" x1="158.58" y1="381.83" x2="94.79" y2="381.83" xlink:href="#hu" />
        <linearGradient id="in" gradientTransform="matrix(0.49, -0.85, 0.86, 0.5, -269.86, 382.58)" x1="158.58" y1="393.79" x2="94.79" y2="393.79" xlink:href="#hu" />
        <linearGradient id="io" gradientTransform="matrix(-1, 0, 0, 1, 1120.79, 0)" x1="1041.77" y1="467.98" x2="822.29" y2="467.98" xlink:href="#hu" />
        <linearGradient id="ip" gradientTransform="matrix(0.49, -0.85, 0.86, 0.5, -269.86, 382.58)" x1="158.58" y1="390.2" x2="94.8" y2="390.2" xlink:href="#hu" />
        <linearGradient id="iq" gradientTransform="matrix(-0.55, -0.29, -0.88, 1.64, 1107.59, -533.93)" x1="739.79" y1="691.15" x2="664.31" y2="691.15" xlink:href="#hu" />
        <linearGradient id="ir" gradientTransform="matrix(-0.55, -0.29, -0.88, 1.64, 1107.59, -533.93)" x1="739.79" y1="722.4" x2="664.31" y2="722.4" xlink:href="#hu" />
        <linearGradient id="is" gradientTransform="matrix(-1, 0, 0, 1, 1120.79, 0)" x1="1041.77" y1="418.69" x2="822.29" y2="418.69" xlink:href="#hu" />
        <linearGradient id="it" gradientTransform="matrix(-0.55, -0.29, -0.88, 1.64, 1107.59, -533.93)" x1="739.79" y1="704.04" x2="664.34" y2="704.04" xlink:href="#hu" />
        <linearGradient id="iu" gradientTransform="matrix(-1, 0, 0, 1, 997.58, -43.25)" x1="918.56" y1="284.83" x2="867.04" y2="284.83" xlink:href="#hu" />
        <linearGradient id="iv" gradientTransform="matrix(-1, 0, 0, 1, 997.58, -43.25)" x1="918.56" y1="308.66" x2="867.04" y2="308.66" xlink:href="#hu" />
        <linearGradient id="iw" x1="1041.77" y1="266.85" x2="822.29" y2="266.85" xlink:href="#hu" />
        <linearGradient id="ix" gradientTransform="matrix(-1, 0, 0, 1, 997.58, -43.25)" x1="918.56" y1="305.31" x2="867.04" y2="305.31" xlink:href="#hu" />
        <linearGradient id="iy" gradientTransform="matrix(-1, 0, 0, 1, 997.58, -43.25)" x1="918.56" y1="258.3" x2="867.04" y2="258.3" xlink:href="#hu" />
        <linearGradient id="iz" gradientTransform="matrix(-1, 0, 0, 1, 997.58, -43.25)" x1="918.56" y1="234.49" x2="867.04" y2="234.49" xlink:href="#hu" />
        <linearGradient id="ja" x1="1041.77" y1="216.51" x2="822.29" y2="216.51" xlink:href="#hu" />
        <linearGradient id="jb" gradientTransform="matrix(-1, 0, 0, 1, 997.58, -43.25)" x1="918.56" y1="254.97" x2="867.04" y2="254.97" xlink:href="#hu" />
        <linearGradient id="jc" gradientTransform="matrix(-1, 0, 0, 1, 997.58, -43.25)" x1="918.56" y1="207.34" x2="867.04" y2="207.34" xlink:href="#hu" />
        <linearGradient id="jd" gradientTransform="matrix(-1, 0, 0, 1, 997.58, -43.25)" x1="918.56" y1="183.57" x2="867.04" y2="183.57" xlink:href="#hu" />
        <linearGradient id="je" x1="1041.77" y1="165.58" x2="822.29" y2="165.58" xlink:href="#hu" />
        <linearGradient id="jf" gradientTransform="matrix(-1, 0, 0, 1, 997.58, -43.25)" x1="918.56" y1="204.05" x2="867.04" y2="204.05" xlink:href="#hu" />
        <linearGradient id="jg" gradientTransform="matrix(-1, 0, 0, 1, 997.58, -43.25)" x1="918.56" y1="358.45" x2="867.04" y2="358.45" xlink:href="#hu" />
        <linearGradient id="jh" gradientTransform="matrix(-1, 0, 0, 1, 997.58, -43.25)" x1="918.56" y1="334.59" x2="867.04" y2="334.59" xlink:href="#hu" />
        <linearGradient id="ji" x1="1041.77" y1="316.6" x2="822.29" y2="316.6" xlink:href="#hu" />
        <linearGradient id="jj" gradientTransform="matrix(-1, 0, 0, 1, 997.58, -43.25)" x1="918.56" y1="355.07" x2="867.04" y2="355.07" xlink:href="#hu" />
        <linearGradient id="jk" gradientTransform="matrix(-1, 0, 0, 1, 997.58, -43.25)" x1="918.54" y1="101.45" x2="867.02" y2="101.45" xlink:href="#hu" />
        <linearGradient id="jl" gradientTransform="matrix(-1, 0, 0, 1, 997.58, -43.25)" x1="918.54" y1="151.2" x2="867.02" y2="151.2" xlink:href="#hu" />
        <linearGradient id="jm" gradientTransform="matrix(-1, 0, 0, 1, 997.58, -43.25)" x1="918.56" y1="409.16" x2="867.04" y2="409.16" xlink:href="#hu" />
        <linearGradient id="jn" gradientTransform="matrix(-1, 0, 0, 1, 997.58, -43.25)" x1="918.56" y1="385.27" x2="867.04" y2="385.27" xlink:href="#hu" />
        <linearGradient id="jo" x1="1041.77" y1="367.29" x2="822.29" y2="367.29" xlink:href="#hu" />
        <linearGradient id="jp" gradientTransform="matrix(-1, 0, 0, 1, 997.58, -43.25)" x1="918.56" y1="405.75" x2="867.04" y2="405.75" xlink:href="#hu" />
    </defs>
    <title>SecretMixing</title>
    <path style="fill:url(#a)" transform="translate(0 -4.78)" d="M 203.2 604.83 a 69.51 69.51 0 0 1 34.69 -60.08 L 452.54 420.82 a 69.54 69.54 0 0 1 69.38 0 L 736.56 544.75 a 69.51 69.51 0 0 1 34.69 60.08 V 852.68 a 69.53 69.53 0 0 1 -34.69 60.08 L 521.92 1036.69 a 69.54 69.54 0 0 1 -69.38 0 L 237.89 912.76 a 69.53 69.53 0 0 1 -34.69 -60.08 Z" />
    <path style="fill:url(#b)" transform="translate(0 -4.78)" d="M 245 557 L 459.6 433.05 a 55.46 55.46 0 0 1 55.25 0 L 729.5 557 a 9 9 0 0 1 0 15.58 L 514.85 696.49 c -16.37 9.46 -38.89 9.46 -55.25 0 L 245 572.56 A 9 9 0 0 1 245 557 Z" />
    <path style="fill:url(#c)" transform="translate(0 -4.78)" d="M 473.09 1016.67 c 0 6.16 -5.38 9 -9 9 a 8.78 8.78 0 0 1 -4.47 -1.24 L 245 900.53 a 55.4 55.4 0 0 1 -27.62 -47.85 V 604.83 a 9.08 9.08 0 0 1 9 -9 a 8.74 8.74 0 0 1 4.46 1.24 L 445.47 721 a 55.42 55.42 0 0 1 27.62 47.84 Z" />
    <path style="fill:url(#d)" transform="translate(0 -4.78)" d="M 757.12 852.68 a 55.4 55.4 0 0 1 -27.62 47.85 L 514.85 1024.46 a 8.8 8.8 0 0 1 -4.47 1.24 c -3.64 0 -9 -2.87 -9 -9 V 768.8 A 55.43 55.43 0 0 1 529 721 L 743.63 597 a 8.8 8.8 0 0 1 4.47 -1.24 a 9.08 9.08 0 0 1 9 9 Z" />
    <g style="isolation:isolate"><polygon style="fill:url(#e)" points="357.9,501.31 361.88,503.63 500.72,423.47 494.98,422.28 357.9,501.31" />
        <polygon style="fill:url(#f)" points="533.53,529.12 537.5,531.44 614.72,486.85 610.74,484.53 533.53,529.12" />
        <polygon style="fill:url(#g)" points="671.05,546.61 675.03,548.92 698.36,535.46 694.38,533.14 671.05,546.61" />
        <polygon style="fill:url(#h)" points="366.61,560.88 370.6,563.2 420.96,534.12 416.98,531.8 366.61,560.88" />
        <path style="fill:url(#i)" transform="translate(0 -4.78)" d="M 243.34 572.33 l 4 2.31 l 74.59 -43.16 a 15 15 0 0 1 7.12 -1.7 h 40 c 7.51 0 14.88 -1.76 20.22 -4.84 l 94.35 -54.47 l -4 -2.32 l -94.35 54.49 A 33.38 33.38 0 0 1 369 526.52 H 329 a 22.9 22.9 0 0 0 -11.09 2.67 Z" />
        <polygon style="fill:url(#j)" points="507.77,576.28 511.75,578.59 568.48,545.84 564.51,543.54 507.77,576.28" />
        <polygon style="fill:url(#k)" points="271,583.83 274.99,586.14 345.75,545.24 341.78,542.94 271,583.83" />
        <path style="fill:url(#l)" transform="translate(0 -4.78)" d="M 514.33 448.09 c -2.92 1.69 -4.59 4 -4.64 6.41 l -0.1 23.15 c 0 3.47 -2.5 6.92 -6.78 9.38 l -53.5 30.89 c -2.92 1.69 -4.6 4.05 -4.63 6.42 l -0.12 23.15 c 0 3.49 -2.49 6.91 -6.77 9.38 L 403.46 576.7 a 33.54 33.54 0 0 1 -16.23 3.88 h -40 a 23.07 23.07 0 0 0 -11.09 2.67 l -37.3 21.47 l 4 2.3 l 37.3 -21.46 a 14.76 14.76 0 0 1 7.1 -1.7 h 40 c 7.51 0 14.88 -1.77 20.22 -4.84 l 34.33 -19.83 c 5.33 -3.07 8.39 -7.34 8.42 -11.69 l 0.13 -23.15 c 0 -1.53 1.09 -3 3 -4.1 l 53.51 -30.91 c 5.34 -3.06 8.4 -7.32 8.42 -11.68 l 0.13 -23.13 c 0 -1.56 1.09 -3 3 -4.13 L 531.08 443 l -4 -2.31 Z" />
        <polygon style="fill:url(#m)" points="326.94,616.02 330.92,618.33 363.75,599.45 359.77,597.14 326.94,616.02" />
        <path style="fill:url(#n)" transform="translate(0 -4.78)" d="M 497.19 522.58 c -2.93 1.69 -4.61 4 -4.63 6.42 l -0.11 23.15 c 0 3.49 -2.51 6.9 -6.77 9.37 L 355 637.09 l 4 2.31 l 130.67 -75.55 c 5.32 -3.09 8.39 -7.35 8.42 -11.7 L 498.2 529 c 0 -1.55 1.09 -3 3 -4.12 l 85.66 -49.46 l -4 -2.31 Z" />
        <path style="fill:url(#o)" transform="translate(0 -4.78)" d="M 467.42 636.68 l 4 2.29 l 19.76 -11.4 a 33.73 33.73 0 0 1 16.22 -3.9 h 40 A 23 23 0 0 0 558.44 621 l 81 -46.75 a 33.42 33.42 0 0 1 16.22 -3.9 h 40 a 23 23 0 0 0 11.13 -2.66 l 19.55 -11.28 l -4 -2.31 l -19.54 11.29 a 14.8 14.8 0 0 1 -7.11 1.7 h -40 c -7.51 0 -14.89 1.76 -20.2 4.84 l -81 46.75 a 14.6 14.6 0 0 1 -7.11 1.71 h -40 c -7.52 0 -14.89 1.76 -20.22 4.83 Z" />
        <path style="fill:url(#p)" transform="translate(0 -4.78)" d="M 443.1 618.42 c -5.34 3.07 -8.4 7.34 -8.43 11.68 l -0.15 23.15 c 0 1.54 -1.08 3 -3 4.12 l -21 11.9 l 4 2.31 l 21 -11.91 c 2.92 -1.69 4.61 -4 4.61 -6.42 l 0.15 -23.15 c 0 -3.49 2.48 -6.9 6.76 -9.38 l 27.6 -15.93 a 33.33 33.33 0 0 1 16.21 -3.89 h 40 A 23 23 0 0 0 542 598.24 l 51.24 -29.57 c 2.92 -1.7 4.6 -4 4.62 -6.43 l 0.13 -23.15 c 0 -3.5 2.48 -6.9 6.76 -9.37 l 37.89 -21.88 l -4 -2.31 L 600.73 527.4 c -5.32 3.09 -8.41 7.34 -8.42 11.69 l -0.13 23.15 c 0 1.52 -1.09 3 -3 4.1 L 538 595.94 a 14.81 14.81 0 0 1 -7.12 1.69 h -40 c -7.48 0 -14.86 1.75 -20.19 4.83 Z" />
        <path style="fill:url(#q)" transform="translate(0 -4.78)" d="M 438.42 685.17 l 4 2.31 l 57.06 -32.39 a 14.63 14.63 0 0 1 7.09 -1.7 h 40 c 7.5 0 14.87 -1.77 20.2 -4.84 l 105.54 -60.93 l -4 -2.31 L 562.73 646.24 a 33.32 33.32 0 0 1 -16.21 3.88 h -40 a 23 23 0 0 0 -11.09 2.65 Z" />
        <polygon style="fill:url(#r)" points="467.48,696.37 472.6,698.2 531.55,664.06 527.58,661.75 467.48,696.37" />
    </g>
    <polygon style="fill:url(#s)" points="627.12,539.68 631.11,541.99 670.48,519.26 666.51,516.93 627.12,539.68" />
    <polygon style="fill:url(#t)" points="383.26,648.59 387.24,650.9 411.83,636.67 407.87,634.38 383.26,648.59" />
    <polygon style="fill:url(#u)" points="343.26,559.14 485.14,478.39 625.04,560.09 485.14,638.66 343.26,559.14" />
    <polygon style="fill:url(#v)" points="485.14,478.39 485.14,496.1 358.83,567.87 343.26,559.14 485.14,478.39" />
    <polygon style="fill:url(#w)" points="625.04,560.09 485.14,478.39 485.14,496.1 611.19,567.87 625.04,560.09" />
    <polygon style="fill:url(#x)" points="701.3,672.91 701.22,836.17 560.98,917.27 561.97,756.83 701.3,672.91" />
    <polygon style="fill:url(#y)" points="701.22,836.17 685.84,827.4 686.01,682.13 701.3,672.91 701.22,836.17" />
    <polygon style="fill:url(#z)" points="560.98,917.27 701.22,836.17 685.84,827.4 561.08,901.39 560.98,917.27" />
    <g style="isolation:isolate"><g style="clip-path:url(#aa)"><path style="fill:#ed695d" transform="translate(0 -4.78)" d="M 266.49 741.63 l -16.21 8.72 c -1.34 0.73 -1.38 3.17 -0.08 5.46 a 7 7 0 0 0 2.42 2.58 a 2.4 2.4 0 0 0 2.36 0.26 L 271.12 750 c -1.67 -2.69 -3.22 -5.49 -4.63 -8.34" />
            <path style="fill:#ed685d" transform="translate(0 -4.78)" d="M 252.62 758.39 a 7 7 0 0 1 -2.42 -2.58 c -1.3 -2.29 -1.26 -4.73 0.08 -5.46 l 16.21 -8.72 c 1.41 2.85 3 5.65 4.63 8.34 L 255 758.65 a 2.4 2.4 0 0 1 -2.36 -0.26 m 13.95 -17.93 l -16.78 9 c -1.63 0.87 -1.67 3.83 -0.1 6.6 a 8.36 8.36 0 0 0 2.93 3.12 a 2.92 2.92 0 0 0 2.86 0.32 l 16.69 -9 l -0.29 -0.47 a 96.62 96.62 0 0 1 -5.07 -9.12 l -0.24 -0.5" />
            <path style="fill:#ed695d" transform="translate(0 -4.78)" d="M 355.23 792.86 l -13.87 7.46 l -13.65 -23.27 a 18.77 18.77 0 0 1 -4.67 3 l 15.9 27.1 a 7 7 0 0 0 2.43 2.5 a 2.38 2.38 0 0 0 2.35 0.26 l 16.14 -8.68 a 93 93 0 0 1 -4.63 -8.34" />
            <path style="fill:#ed685d" transform="translate(0 -4.78)" d="M 341.36 800.32 l 13.87 -7.46 a 93 93 0 0 0 4.63 8.34 l -16.14 8.68 a 2.38 2.38 0 0 1 -2.35 -0.26 a 7 7 0 0 1 -2.43 -2.5 L 323 780 a 18.77 18.77 0 0 0 4.67 -3 l 13.65 23.27 m 13.95 -8.63 l -13.95 7.5 L 327.65 775.8 l -0.25 0.22 a 18.57 18.57 0 0 1 -5.12 3.24 l -0.28 0.12 l 16.44 28 a 8.68 8.68 0 0 0 2.92 3 a 3 3 0 0 0 2.86 0.32 l 16.69 -9 l -0.3 -0.46 a 96.69 96.69 0 0 1 -5.06 -9.13 l -0.24 -0.5" />
            <path style="fill:#ed695d" transform="translate(0 -4.78)" d="M 297.27 711.79 c 8.83 5.1 16 17.47 15.94 27.62 s -7.21 14.26 -16 9.16 s -16 -17.48 -16 -27.64 s 7.22 -14.24 16.06 -9.14 m 0 -8.19 c -12.75 -7.36 -23.16 -1.43 -23.2 13.22 s 10.3 32.57 23.05 39.93 s 23.16 1.43 23.2 -13.23 S 310 711 297.29 703.6" />
            <path style="fill:#ed685d" transform="translate(0 -4.78)" d="M 297.14 756.75 c -12.75 -7.36 -23.09 -25.27 -23.05 -39.93 s 10.45 -20.58 23.2 -13.22 s 23.09 25.27 23 39.92 s -10.45 20.59 -23.2 13.23 m 0.15 -54 c -13.14 -7.59 -23.87 -1.48 -23.91 13.62 S 284 750 297.14 757.57 S 321 759 321.05 743.93 s -10.62 -33.56 -23.76 -41.14" />
            <path style="fill:#ed695d" transform="translate(0 -4.78)" d="M 386 763 c 8.84 5.1 16 17.47 15.95 27.62 s -7.22 14.26 -16.05 9.16 s -16 -17.48 -16 -27.64 S 377.16 757.91 386 763 m 0 -8.19 c -12.75 -7.36 -23.16 -1.43 -23.2 13.22 s 10.3 32.57 23.05 39.93 s 23.16 1.43 23.2 -13.23 s -10.3 -32.56 -23.05 -39.92" />
            <path style="fill:#ed685d" transform="translate(0 -4.78)" d="M 385.87 808 c -12.75 -7.36 -23.09 -25.27 -23.05 -39.93 s 10.45 -20.58 23.2 -13.22 s 23.1 25.27 23.05 39.92 s -10.45 20.59 -23.2 13.23 m 0.16 -54 c -13.15 -7.59 -23.88 -1.48 -23.92 13.62 s 10.61 33.57 23.76 41.16 s 23.87 1.47 23.91 -13.64 S 399.17 761.6 386 754" />
            <path style="fill:#ed695d" transform="translate(0 -4.78)" d="M 416.15 828 a 19.11 19.11 0 0 1 -4.94 2.49 l 13.4 23.65 l -13.42 8 a 94.23 94.23 0 0 1 4.9 8.19 L 431.71 861 a 2.5 2.5 0 0 0 1 -2.23 a 6.8 6.8 0 0 0 -0.95 -3.27 L 416.15 828" />
            <path style="fill:#ed685d" transform="translate(0 -4.78)" d="M 416.09 870.37 a 94.23 94.23 0 0 0 -4.9 -8.19 l 13.42 -8 l -13.4 -23.65 a 19.11 19.11 0 0 0 4.94 -2.49 l 15.58 27.5 a 6.8 6.8 0 0 1 0.95 3.27 a 2.5 2.5 0 0 1 -1 2.23 l -15.62 9.34 m 0 -43.56 l -0.25 0.19 a 18.92 18.92 0 0 1 -5.42 2.73 l -0.31 0.1 l 13.47 23.76 l -13.49 8.06 l 0.31 0.46 a 95.76 95.76 0 0 1 5.37 9 l 0.25 0.47 l 16.16 -9.66 a 3 3 0 0 0 1.17 -2.69 a 8.19 8.19 0 0 0 -1.15 -3.94 l -16.11 -28.45" />
            <path style="fill:#ed695d" transform="translate(0 -4.78)" d="M 385.71 864.25 c 8.84 5.1 16 17.47 16 27.63 s -7.21 14.25 -16.05 9.14 s -16 -17.47 -15.95 -27.62 s 7.21 -14.26 16 -9.15 m 0 -8.18 c -12.76 -7.37 -23.17 -1.44 -23.21 13.21 s 10.3 32.57 23.06 39.93 s 23.16 1.43 23.2 -13.22 s -10.3 -32.56 -23.05 -39.92" />
            <path style="fill:#ed685d" transform="translate(0 -4.78)" d="M 385.59 909.21 c -12.76 -7.36 -23.1 -25.27 -23.06 -39.93 S 373 848.7 385.74 856.07 s 23.09 25.26 23.05 39.92 s -10.45 20.58 -23.2 13.22 m 0.15 -54 c -13.15 -7.59 -23.88 -1.48 -23.92 13.63 s 10.62 33.56 23.76 41.15 s 23.87 1.47 23.92 -13.63 s -10.62 -33.57 -23.76 -41.15" />
        </g></g>
    <polygon style="opacity:0.30000000000000004;fill:url(#ab)" points="555.29,23.01 555.29,599.35 506.48,626.68 506.48,0 530.12,39.92 555.29,23.01" />
    <polygon style="opacity:0.2;fill:url(#ac)" points="506.48,288.9 530.12,328.82 555.29,311.91 555.29,344.62 530.12,361.53 506.48,322.72 506.48,288.9" />
    <polygon style="fill:url(#ad)" points="506.48,241.22 530.12,281.14 555.29,264.23 555.29,296.94 530.12,313.85 506.48,275.04 506.48,241.22" />
    <polygon style="opacity:0.6000000000000001;fill:url(#ae)" points="506.48,192.98 530.12,232.9 555.29,215.99 555.29,248.7 530.12,265.61 506.48,226.8 506.48,192.98" />
    <g style="opacity:0.6000000000000001"><polygon style="fill:url(#af)" points="506.48,336.03 530.12,375.95 555.29,359.04 555.29,391.75 530.12,408.66 506.48,369.85 506.48,336.03" /></g>
    <polygon style="opacity:0.30000000000000004;fill:url(#ag)" points="506.48,95.92 530.12,135.84 555.29,118.93 555.29,151.64 530.12,168.55 506.48,129.74 506.48,95.92" />
    <polygon style="opacity:0.1;fill:url(#ah)" points="506.48,48.24 530.12,88.16 555.29,71.25 555.29,103.96 530.12,120.87 506.48,82.06 506.48,48.24" />
    <polygon style="opacity:0.04;fill:url(#ai)" points="506.48,0 530.12,39.92 555.29,23.01 555.29,55.72 530.12,72.63 506.48,33.82 506.48,0" />
    <g style="opacity:0.2"><polygon style="fill:url(#aj)" points="506.48,143.05 530.12,182.97 555.29,166.06 555.29,198.77 530.12,215.69 506.48,176.87 506.48,143.05" /></g>
    <polygon style="opacity:0.6000000000000001;fill:url(#ak)" points="506.48,479.96 530.12,519.88 555.29,502.97 555.29,535.68 530.12,552.59 506.48,513.78 506.48,479.96" />
    <polygon style="opacity:0.2;fill:url(#al)" points="506.48,432.28 530.12,472.2 555.29,455.29 555.29,488 530.12,504.91 506.48,466.1 506.48,432.28" />
    <polygon style="opacity:0.2;fill:url(#am)" points="506.48,573.25 530.12,613.17 555.29,596.26 555.29,599.35 515,621.95 506.48,607.08 506.48,573.25" />
    <polygon style="fill:url(#an)" points="506.48,384.04 530.12,423.96 555.29,407.05 555.29,439.76 530.12,456.67 506.48,417.86 506.48,384.04" />
    <polygon style="fill:url(#ao)" points="506.48,527.09 530.12,567.01 555.29,550.1 555.29,582.81 530.12,599.73 506.48,560.91 506.48,527.09" />
    <polygon style="opacity:0.30000000000000004;fill:url(#ap)" points="431.39,608.53 431.39,21.42 482.3,44.26 482.3,637.07 474.59,632.75 457.64,604.78 442.5,614.76 431.39,608.53" />
    <polygon style="opacity:0.2;fill:url(#aq)" points="482.3,327.93 457.64,286.3 431.39,303.94 431.39,269.82 457.64,252.19 482.3,292.66 482.3,327.93" />
    <polygon style="fill:url(#ar)" points="482.3,377.66 457.64,336.03 431.39,353.66 431.39,319.55 457.64,301.91 482.3,342.39 482.3,377.66" />
    <polygon style="opacity:0.6000000000000001;fill:url(#as)" points="482.3,427.96 457.64,386.33 431.39,403.97 431.39,369.85 457.64,352.22 482.3,392.69 482.3,427.96" />
    <g style="opacity:0.6000000000000001"><polygon style="fill:url(#at)" points="482.3,278.78 457.64,237.15 431.39,254.78 431.39,220.67 457.64,203.03 482.3,243.51 482.3,278.78" /></g>
    <polygon style="fill:url(#au)" points="482.3,529.18 457.64,487.55 431.39,505.19 431.39,471.07 457.64,453.44 482.3,493.91 482.3,529.18" />
    <polygon style="fill:url(#av)" points="442.47,614.75 457.64,604.76 474.59,632.75 442.47,614.75" />
    <polygon style="opacity:0.6000000000000001;fill:url(#aw)" points="482.3,578.91 457.64,537.28 431.39,554.91 431.39,520.8 457.64,503.16 482.3,543.64 482.3,578.91" />
    <polygon style="opacity:0.2;fill:url(#ax)" points="482.3,629.22 457.64,587.58 431.39,605.22 431.39,571.1 457.64,553.47 482.3,593.94 482.3,629.22" />
    <g style="opacity:0.2"><polygon style="fill:url(#ay)" points="482.3,480.03 457.64,438.4 431.39,456.04 431.39,421.92 457.64,404.28 482.3,444.76 482.3,480.03" /></g>
    <polygon style="opacity:0.1;fill:url(#az)" points="482.3,128.68 457.64,87.05 431.39,104.68 431.39,70.57 457.64,52.93 482.3,93.41 482.3,128.68" />
    <polygon style="opacity:0.2;fill:url(#ba)" points="482.3,178.41 457.64,136.78 431.39,154.41 431.39,120.3 457.64,102.66 482.3,143.13 482.3,178.41" />
    <polygon style="fill:url(#bb)" points="482.3,228.71 457.64,187.08 431.39,204.72 431.39,170.6 457.64,152.97 482.3,193.44 482.3,228.71" />
    <g style="opacity:0.05"><polygon style="fill:url(#bc)" points="482.3,79.53 457.64,37.9 431.39,55.53 431.39,21.42 457.64,3.78 482.3,44.26 482.3,79.53" /></g>
    <polygon style="fill:#36a9e1;opacity:0.30000000000000004" points="634,844.58 635.47,870.44 646.87,877.2 645.41,851.34 684.22,850.87 670.69,842.85 673.63,844.59 634,844.58" />
    <polygon style="fill:#36a9e1;opacity:0.30000000000000004" points="568.68,782.4 561.77,782.4 561.71,788.79 579.1,788.58 603.96,803.31 564.33,803.3 565.79,829.16 576.39,835.44 574.92,809.58 613.74,809.1 638.59,823.83 598.96,823.82 600.43,849.68 616.72,859.33 611.43,856.2 609.96,830.34 648.77,829.87 561.81,778.34 561.81,778.34 568.68,782.4" />
    <polygon style="fill:#36a9e1;opacity:0.1" points="780.39,907.86 740.77,907.85 742.23,933.71 753.23,940.22 751.77,914.36 790.58,913.89 780.39,907.86" />
    <polygon style="fill:#36a9e1;opacity:0.30000000000000004" points="707.6,913.18 718.2,919.46 716.73,893.6 755.54,893.13 745.76,887.33 706.13,887.32 707.6,913.18" />
    <polygon style="fill:#36a9e1;opacity:0.05" points="815.43,928.62 775.81,928.61 777.27,954.47 788.68,961.23 787.21,935.37 826.03,934.89 815.43,928.62" />
    <polygon style="fill:#36a9e1;opacity:0.30000000000000004" points="669.45,865.59 670.91,891.45 683.56,898.94 682.1,873.08 720.91,872.61 692.71,855.9 709.07,865.6 669.45,865.59" />
    <polygon style="fill:#36a9e1;opacity:0.2" points="576.39,835.44 600.43,849.68 600.43,849.68 576.39,835.44 576.39,835.44" />
    <polygon style="fill:#36a9e1;opacity:0.30000000000000004" points="638.59,823.83 613.74,809.1 574.92,809.58 576.39,835.44 600.43,849.68 598.96,823.82 638.59,823.83" />
    <polygon style="fill:#36a9e1;opacity:0.6" points="638.59,823.83 613.74,809.1 574.92,809.58 576.39,835.44 600.43,849.68 598.96,823.82 638.59,823.83" />
    <polygon style="fill:#36a9e1" points="635.47,870.44 635.47,870.44 616.72,859.33 635.47,870.44" />
    <polygon style="fill:#36a9e1" points="648.77,829.87 648.77,829.87 670.69,842.85 648.77,829.87" />
    <polygon style="fill:#36a9e1;opacity:0.4" points="611.43,856.2 616.72,859.33 635.47,870.44 634,844.58 673.63,844.59 670.69,842.85 648.77,829.87 609.96,830.34 611.43,856.2" />
    <polygon style="fill:#36a9e1;opacity:0.6000000000000001" points="684.22,850.87 684.22,850.87 692.71,855.9 684.22,850.87" />
    <polygon style="fill:#36a9e1;opacity:0.6000000000000001" points="646.87,877.2 670.91,891.45 670.91,891.45 646.87,877.2 646.87,877.2" />
    <polygon style="fill:#36a9e1;opacity:0.30000000000000004" points="646.87,877.2 670.91,891.45 669.45,865.59 709.07,865.6 692.71,855.9 684.22,850.87 645.41,851.34 646.87,877.2" />
    <polygon style="fill:#36a9e1" points="646.87,877.2 670.91,891.45 669.45,865.59 709.07,865.6 692.71,855.9 684.22,850.87 645.41,851.34 646.87,877.2" />
    <polygon style="fill:#36a9e1" points="561.32,826.5 565.79,829.16 565.79,829.16 561.32,826.5 561.32,826.5" />
    <polygon style="fill:#36a9e1" points="603.96,803.31 579.1,788.58 561.71,788.79 561.32,826.5 565.79,829.16 564.33,803.3 603.96,803.31" />
    <polygon style="fill:#36a9e1;opacity:0.25" points="718.21,919.46 742.25,933.7 740.78,907.84 780.41,907.85 755.56,893.12 716.75,893.6 718.21,919.46" />
    <polygon style="fill:#36a9e1;opacity:0.2" points="751.78,914.36 753.25,940.22 777.29,954.46 775.82,928.6 815.45,928.61 802.96,921.21 790.6,913.89 751.78,914.36" />
    <polygon style="fill:#36a9e1;opacity:0.08" points="787.23,935.36 788.7,961.22 812.74,975.47 811.27,949.61 850.9,949.62 826.04,934.89 787.23,935.36" />
    <polygon style="fill:#36a9e1;opacity:0.6" points="683.58,898.94 707.62,913.18 706.15,887.32 745.78,887.33 720.93,872.6 682.11,873.08 683.58,898.94" />
    <polygon style="fill:#36a9e1;opacity:0.4" points="568.68,782.4 561.81,778.34 561.77,782.4 568.68,782.4" />
    <polygon style="opacity:0.1;fill:url(#bd)" points="810.28,853.61 811.81,880.58 771.33,881.07 781.96,887.37 823.28,887.38 821.75,860.41 810.28,853.61" />
    <polygon style="opacity:0.05;fill:url(#be)" points="818.07,908.77 859.4,908.78 857.87,881.81 846.82,875.26 848.35,902.23 807.88,902.73 818.07,908.77" />
    <path style="opacity:0.30000000000000004;fill:url(#bf)" transform="translate(0 -4.78)" d="M 676.87 805.4 l -1.53 -27 l 16.1 9.55 l -87.31 -51.74 h 0 l 22.77 13.49 l 1.53 27 l -40.48 0.5 l -26 -15.59 h 0 l 98.69 58.67 l -25.12 -14.89 Z M 599 783.74 h 41.33 l -1.53 -27 l 25.07 14.86 l 1.52 27 l -40.47 0.49 Z" />
    <polygon style="opacity:0.30000000000000004;fill:url(#bg)" points="786.74,865.73 785.21,838.76 773.32,831.71 774.85,858.68 734.37,859.17 716.61,848.65 763.73,876.57 745.42,865.72 786.74,865.73" />
    <polygon style="opacity:0.30000000000000004;fill:url(#bh)" points="601.98,732.76 589.65,740.15 590.17,749.25 574.23,749.44 561.97,756.83 603.36,757.07 601.98,732.76" />
    <polygon style="opacity:0.30000000000000004;fill:url(#bi)" points="748.25,816.85 722.55,801.63 736.52,809.91 738.05,836.88 697.58,837.37 671.66,822.01 712.99,822.02 711.46,795.05 700.41,788.51 701.93,815.48 661.46,815.97 708.45,843.81 749.78,843.82 748.25,816.85" />
    <polygon style="opacity:0.2;fill:url(#bj)" points="881,946.05 881,946.05 874.98,942.49 881,946.05" />
    <polygon style="opacity:0.2;fill:url(#bk)" points="700.41,788.51 691.44,783.19 700.41,788.51 700.41,788.51" />
    <polygon style="opacity:0.2;fill:url(#bl)" points="661.46,815.97 661.46,815.97 660.66,815.5 661.46,815.97" />
    <polygon style="opacity:0.30000000000000004;fill:url(#bm)" points="700.41,788.51 691.44,783.19 675.34,773.65 676.87,800.62 635.54,800.61 660.66,815.5 661.46,815.97 701.93,815.48 700.41,788.51" />
    <polygon style="opacity:0.4;fill:url(#bm)" points="700.41,788.51 691.44,783.19 675.34,773.65 676.87,800.62 635.54,800.61 660.66,815.5 661.46,815.97 701.93,815.48 700.41,788.51" />
    <polygon style="opacity:0.30000000000000004;fill:url(#bo)" points="663.87,766.86 638.8,752 640.33,778.97 599,778.96 624.92,794.32 665.39,793.82 663.87,766.86" />
    <polygon style="fill:url(#bo)" points="663.87,766.86 638.8,752 640.33,778.97 599,778.96 624.92,794.32 665.39,793.82 663.87,766.86" />
    <polygon style="opacity:0.30000000000000004;fill:url(#bq)" points="603.36,757.07 561.97,756.83 587.95,772.41 628.43,771.92 626.9,744.95 604.13,731.46 601.98,732.76 603.36,757.07" />
    <polygon style="opacity:0.6000000000000001;fill:url(#bq)" points="603.36,757.07 561.97,756.83 587.95,772.41 628.43,771.92 626.9,744.95 604.13,731.46 601.98,732.76 603.36,757.07" />
    <polygon style="fill:url(#bs)" points="711.46,795.05 711.46,795.05 722.55,801.63 711.46,795.05" />
    <polygon style="opacity:0.30000000000000004;fill:url(#bt)" points="671.66,822.01 697.58,837.37 738.05,836.88 736.52,809.91 722.55,801.63 711.46,795.05 712.99,822.02 671.66,822.01" />
    <polygon style="opacity:0.6;fill:url(#bt)" points="671.66,822.01 697.58,837.37 738.05,836.88 736.52,809.91 722.55,801.63 711.46,795.05 712.99,822.02 671.66,822.01" />
    <polygon style="opacity:0.30000000000000004;fill:url(#bv)" points="589.65,740.15 574.56,749.44 590.17,749.25 589.65,740.15" />
    <polygon style="opacity:0.4;fill:url(#bw)" points="589.64,740.16 574.25,749.43 590.19,749.24 589.64,740.16" />
    <polygon style="opacity:0.2;fill:url(#bx)" points="846.82,875.17 821.75,860.32 823.28,887.29 781.96,887.28 807.88,902.63 848.35,902.14 846.82,875.17" />
    <polygon style="opacity:0.2;fill:url(#by)" points="810.28,853.52 785.21,838.66 786.74,865.63 745.41,865.62 763.73,876.48 771.33,880.98 811.81,880.49 810.28,853.52" />
    <polygon style="fill:url(#bz)" points="708.45,843.81 716.61,848.65 708.45,843.81 708.45,843.81" />
    <polygon style="fill:url(#ca)" points="773.32,831.71 748.25,816.85 748.25,816.85 773.32,831.71 773.32,831.71" />
    <polygon style="opacity:0.30000000000000004;fill:url(#cb)" points="774.85,858.68 773.32,831.71 748.25,816.85 749.78,843.82 708.45,843.81 716.61,848.65 734.37,859.17 774.85,858.68" />
    <polygon style="fill:url(#cb)" points="774.85,858.68 773.32,831.71 748.25,816.85 749.78,843.82 708.45,843.81 716.61,848.65 734.37,859.17 774.85,858.68" />
    <polygon style="opacity:0.08;fill:url(#cd)" points="882.94,896.57 874,891.27 857.87,881.72 859.4,908.69 818.07,908.68 833.36,917.73 843.99,924.03 884.47,923.54 882.94,896.57" />
    <polygon style="opacity:0.31;fill:url(#ce)" points="940.94,259.01 940.94,273.65 965.81,315.64 991.64,298.29 991.68,282.46 965.81,299.84 940.94,259.01" />
    <path style="opacity:0.31;fill:url(#cf)" transform="translate(0 -4.78)" d="M 888.23 529.19 l -15.32 9 l 22.86 -13 C 891.08 527.85 888.23 529.19 888.23 529.19 Z" />
    <path style="opacity:0.31;fill:url(#cg)" transform="translate(0 -4.78)" d="M 961.88 501.46 S 956.53 488.1 953 483.7 c -4 -5 -12 -15.62 -12 -15.62 s 0.92 18.05 -10.4 31.95 a 51.75 51.75 0 0 0 7.17 -11.94 s 5.47 16.55 7 21.85 c 0.93 3.34 2.7 12.71 2.7 12.71 s 9.32 -0.08 14.81 -0.57 c 6.5 -0.58 20.46 -3.15 23.29 -3.68 a 94.38 94.38 0 0 0 5.11 -23.51 c -0.9 0.1 -8.29 1 -14.21 2.18 A 121.11 121.11 0 0 0 961.88 501.46 Z" />
    <polygon style="opacity:0.31;fill:url(#ch)" points="940.97,359.13 940.97,374.12 965.81,416.06 991.4,398.87 991.43,382.7 965.81,399.91 940.97,359.13" />
    <polygon style="opacity:0.31;fill:url(#ci)" points="940.92,208.08 940.93,223.3 965.81,265.32 991.76,247.88 991.8,231.47 965.81,248.93 940.92,208.08" />
    <polygon style="opacity:0.31;fill:url(#cj)" points="940.95,309.36 940.96,323.42 965.81,365.39 991.52,348.12 991.56,332.87 965.81,350.17 940.95,309.36" />
    <path style="opacity:0.31;fill:url(#ck)" transform="translate(0 -4.78)" d="M 941 414.61 v 21 l 24.94 34.7 l 25.13 -8.29 s 0.18 12.4 0.15 23.82 c 0.12 -4 0 -6.55 0 -6.55 l 0.1 -41.08 l -25.5 17.13 Z" />
    <path style="opacity:0.31;fill:url(#cl)" transform="translate(0 -4.78)" d="M 930.55 500.1 a 39.14 39.14 0 0 1 -3.93 4.15 A 36.45 36.45 0 0 0 930.55 500.1 Z" />
    <polygon style="opacity:0.31;fill:url(#cm)" points="771.98,650.42 771.98,653.54 796.15,639.29 776.92,650.51 771.98,650.42" />
    <polygon style="opacity:0.1;fill:url(#cn)" points="940.91,155.36 940.91,172.37 965.81,214.41 991.88,196.89 991.93,178.69 965.81,196.24 940.91,155.36" />
    <polygon style="opacity:0.05;fill:url(#co)" points="940.9,105.59 940.9,119.65 965.81,161.71 992.01,144.11 992.05,128.86 965.81,146.49 940.9,105.59" />
    <path style="opacity:0.31;fill:url(#cp)" transform="translate(0 -4.78)" d="M 974.68 535.34 a 49.56 49.56 0 0 0 5.24 -6.14 a 56.81 56.81 0 0 1 -4.78 5.68 C 975 535 974.84 535.19 974.68 535.34 Z" />
    <path style="opacity:0.31;fill:url(#cq)" transform="translate(0 -4.78)" d="M 914.58 513.32 a 85.66 85.66 0 0 0 12 -9.07 a 228.28 228.28 0 0 1 -30.72 20.89 l -1.24 31.41 l 49.5 0.31 L 913 575.06 l -48.48 -0.92 l 2 -32.16 l -14.31 8.44 l -2 32.07 l 49.51 0.32 L 868.53 601 l -48.48 -0.91 l 2 -31.89 L 771.5 598 a 69.44 69.44 0 0 1 0.48 8 v 30.82 l 36 0.23 l 13.16 -7.76 l -48.24 -0.91 l 2 -32.29 l 30.15 -17.6 l -2 32.3 l 49 0.31 l 87.43 -51.53 a 183.74 183.74 0 0 0 22.17 -13.4 l -51 1.47 Z" />
    <polygon style="opacity:0.2;fill:url(#cr)" points="852.24,545.41 822.09,563.01 822.07,563.41 852.23,545.63 852.24,545.41" />
    <polygon style="opacity:0.31;fill:url(#cs)" points="868.53,596.22 899.71,578.03 850.2,577.71 852.23,545.63 822.07,563.41 820.05,595.31 868.53,596.22" />
    <polygon style="opacity:0.2;fill:url(#ct)" points="868.53,596.22 899.71,578.03 850.2,577.71 852.23,545.63 822.07,563.41 820.05,595.31 868.53,596.22" />
    <polygon style="fill:url(#cu)" points="866.55,537.06 866.54,537.2 872.91,533.44 866.55,537.06" />
    <path style="fill:url(#cv)" transform="translate(0 -4.78)" d="M 895.9 525.14 l -0.13 0.07 l 0.13 -0.07 Z" />
    <path style="opacity:0.31;fill:url(#cw)" transform="translate(0 -4.78)" d="M 913 575.06 l 31.17 -18.2 l -49.5 -0.31 l 1.24 -31.41 l -0.13 0.07 l -22.86 13 L 866.54 542 l -2 32.16 Z" />
    <path style="fill:url(#cx)" transform="translate(0 -4.78)" d="M 913 575.06 l 31.17 -18.2 l -49.5 -0.31 l 1.24 -31.41 l -0.13 0.07 l -22.86 13 L 866.54 542 l -2 32.16 Z" />
    <polygon style="fill:url(#cy)" points="808.1,632.32 807.98,632.32 796.15,639.29 808.1,632.32" />
    <polygon style="opacity:0.31;fill:url(#cz)" points="771.98,650.42 776.92,650.51 796.15,639.29 807.98,632.32 771.98,632.09 771.98,650.42" />
    <polygon style="fill:url(#da)" points="771.98,650.42 776.92,650.51 796.15,639.29 807.98,632.32 771.98,632.09 771.98,650.42" />
    <polygon style="opacity:0.4;fill:url(#db)" points="821.38,624.57 852.56,606.37 852.01,606.37 821.14,624.56 821.38,624.57" />
    <polygon style="opacity:0.31;fill:url(#dc)" points="805.09,573.76 774.94,591.36 772.9,623.65 821.14,624.56 852.01,606.37 803.05,606.06 805.09,573.76" />
    <polygon style="opacity:0.4;fill:url(#dd)" points="805.09,573.76 774.94,591.36 772.9,623.65 821.14,624.56 852.01,606.37 803.05,606.06 805.09,573.76" />
    <path style="opacity:0.4;fill:url(#de)" transform="translate(0 -4.78)" d="M 962.17 546.21 s 4.8 -2.94 12.51 -10.87 a 100 100 0 0 1 -13.07 10.88 Z" />
    <path style="opacity:0.4;fill:url(#df)" transform="translate(0 -4.78)" d="M 979.92 529.2 A 44.45 44.45 0 0 0 986 518.3 l -0.51 0.1 A 48.1 48.1 0 0 1 980.06 529 Z" />
    <path style="opacity:0.4;fill:url(#dg)" transform="translate(0 -4.78)" d="M 930.55 500.1 l 0.05 -0.07 Z" />
    <path style="opacity:0.31;fill:url(#dh)" transform="translate(0 -4.78)" d="M 947.42 522.65 s -1.77 -9.37 -2.7 -12.71 c -1.48 -5.3 -7 -21.85 -7 -21.85 A 51.75 51.75 0 0 1 930.6 500 l -0.05 0.07 a 36.45 36.45 0 0 1 -3.93 4.15 a 85.66 85.66 0 0 1 -12 9.07 l -4 34.37 l 51 -1.47 a 100 100 0 0 0 13.07 -10.88 c 0.16 -0.15 0.3 -0.3 0.46 -0.46 a 56.81 56.81 0 0 0 4.78 -5.68 l 0.14 -0.19 a 48.1 48.1 0 0 0 5.46 -10.61 c -2.83 0.53 -16.79 3.1 -23.29 3.68 C 956.74 522.57 947.42 522.65 947.42 522.65 Z" />
    <path style="opacity:0.4;fill:url(#di)" transform="translate(0 -4.78)" d="M 947.42 522.65 s -1.77 -9.37 -2.7 -12.71 c -1.48 -5.3 -7 -21.85 -7 -21.85 A 51.75 51.75 0 0 1 930.6 500 l -0.05 0.07 a 36.45 36.45 0 0 1 -3.93 4.15 a 85.66 85.66 0 0 1 -12 9.07 l -4 34.37 l 51 -1.47 a 100 100 0 0 0 13.07 -10.88 c 0.16 -0.15 0.3 -0.3 0.46 -0.46 a 56.81 56.81 0 0 0 4.78 -5.68 l 0.14 -0.19 a 48.1 48.1 0 0 0 5.46 -10.61 c -2.83 0.53 -16.79 3.1 -23.29 3.68 C 956.74 522.57 947.42 522.65 947.42 522.65 Z" />
    <path style="opacity:0.2;fill:url(#dj)" transform="translate(0 -4.78)" d="M 940.48 434.93 s 0.47 15.69 0.2 28.24 a 46.89 46.89 0 0 0 0.32 4.91 V 435.64 Z" />
    <path style="opacity:0.2;fill:url(#dk)" transform="translate(0 -4.78)" d="M 990.72 494.88 s 0.47 -4.83 0.48 -6.3 c 0 -0.89 0 -1.8 0 -2.71 c -0.07 2.51 -0.24 5.6 -0.58 9 Z" />
    <path style="opacity:0.31;fill:url(#dl)" transform="translate(0 -4.78)" d="M 991.06 462.05 l -25.13 8.29 L 941 435.64 v 32.44 s 8 10.64 12 15.62 c 3.52 4.4 8.87 17.76 8.87 17.76 a 121.11 121.11 0 0 1 14.54 -4.39 c 5.92 -1.21 13.31 -2.08 14.21 -2.18 c 0.34 -3.42 0.51 -6.51 0.58 -9 C 991.24 474.45 991.06 462.05 991.06 462.05 Z" />
    <path style="opacity:0.2;fill:url(#dm)" transform="translate(0 -4.78)" d="M 991.06 462.05 l -25.13 8.29 L 941 435.64 v 32.44 s 8 10.64 12 15.62 c 3.52 4.4 8.87 17.76 8.87 17.76 a 121.11 121.11 0 0 1 14.54 -4.39 c 5.92 -1.21 13.31 -2.08 14.21 -2.18 c 0.34 -3.42 0.51 -6.51 0.58 -9 C 991.24 474.45 991.06 462.05 991.06 462.05 Z" />
    <polygon style="opacity:0.2;fill:url(#dn)" points="940.86,273.51 940.86,309.21 940.95,309.36 940.94,273.65 940.86,273.51" />
    <polygon style="opacity:0.2;fill:url(#do)" points="992.38,332.32 992.38,297.8 991.64,298.29 991.56,332.87 992.38,332.32" />
    <polygon style="opacity:0.31;fill:url(#dp)" points="940.94,273.65 940.95,309.36 965.81,350.17 991.56,332.87 991.64,298.29 965.81,315.64 940.94,273.65" />
    <polygon style="opacity:0.2;fill:url(#dq)" points="940.94,273.65 940.95,309.36 965.81,350.17 991.56,332.87 991.64,298.29 965.81,315.64 940.94,273.65" />
    <polygon style="fill:url(#dr)" points="992.38,282 992.38,247.47 991.76,247.88 991.68,282.46 992.38,282" />
    <polygon style="fill:url(#ds)" points="940.86,223.18 940.86,258.88 940.94,259.01 940.93,223.3 940.86,223.18" />
    <polygon style="opacity:0.31;fill:url(#dt)" points="940.93,223.3 940.94,259.01 965.81,299.84 991.68,282.46 991.76,247.88 965.81,265.32 940.93,223.3" />
    <polygon style="fill:url(#du)" points="940.93,223.3 940.94,259.01 965.81,299.84 991.68,282.46 991.76,247.88 965.81,265.32 940.93,223.3" />
    <polygon style="opacity:0.4;fill:url(#dv)" points="992.38,231.08 992.38,196.56 991.88,196.89 991.8,231.47 992.38,231.08" />
    <polygon style="opacity:0.4;fill:url(#dw)" points="940.86,172.27 940.86,207.97 940.92,208.08 940.91,172.37 940.86,172.27" />
    <polygon style="opacity:0.31;fill:url(#dx)" points="940.91,172.37 940.92,208.08 965.81,248.93 991.8,231.47 991.88,196.89 965.81,214.41 940.91,172.37" />
    <polygon style="opacity:0.4;fill:url(#dy)" points="940.91,172.37 940.92,208.08 965.81,248.93 991.8,231.47 991.88,196.89 965.81,214.41 940.91,172.37" />
    <polygon style="fill:url(#dz)" points="940.86,323.25 940.86,358.95 940.97,359.13 940.96,323.42 940.86,323.25" />
    <polygon style="fill:url(#ea)" points="992.38,382.07 992.38,347.54 991.52,348.12 991.43,382.7 992.38,382.07" />
    <polygon style="opacity:0.31;fill:url(#eb)" points="940.96,323.42 940.97,359.13 965.81,399.91 991.43,382.7 991.52,348.12 965.81,365.39 940.96,323.42" />
    <polygon style="opacity:0.4;fill:url(#ec)" points="940.96,323.42 940.97,359.13 965.81,399.91 991.43,382.7 991.52,348.12 965.81,365.39 940.96,323.42" />
    <polygon style="opacity:0.08;fill:url(#ed)" points="940.91,69.74 940.92,105.45 965.83,146.35 992.07,128.73 992.15,94.14 965.83,111.83 940.91,69.74" />
    <polygon style="opacity:0.2;fill:url(#ee)" points="940.92,119.51 940.93,155.22 965.83,196.1 991.95,178.55 992.03,143.97 965.83,161.57 940.92,119.51" />
    <polygon style="fill:url(#ef)" points="992.38,432.74 992.38,398.21 991.4,398.87 991.31,433.45 992.38,432.74" />
    <polygon style="fill:url(#eg)" points="940.86,373.93 940.86,409.62 940.98,409.82 940.97,374.12 940.86,373.93" />
    <polygon style="opacity:0.31;fill:url(#eh)" points="940.97,374.12 940.98,409.82 965.81,450.59 991.31,433.45 991.4,398.87 965.81,416.06 940.97,374.12" />
    <polygon style="fill:url(#ei)" points="940.97,374.12 940.98,409.82 965.81,450.59 991.31,433.45 991.4,398.87 965.81,416.06 940.97,374.12" />
    <path style="opacity:0.30000000000000004;fill:url(#ej)" transform="translate(0 -4.78)" d="M 763.37 548.42 l 8.9 23.59 l -7.09 4 a 1.74 1.74 0 0 0 0.1 0.19 l 20.61 -11.47 L 776 542 l -37.78 -7.37 l 24.84 -14.09 l 39.08 6.59 l 8.9 23.58 l 13.66 -7.6 l -9.85 -22.74 L 777.1 513 L 801.94 499 l -74.12 41.22 l 5.53 3.19 Z" />
    <path style="opacity:0.30000000000000004;fill:url(#ek)" transform="translate(0 -4.78)" d="M 849.93 529.13 s 15.83 -9.28 30 -19.42 c -6.8 4.46 -12.48 8.45 -12.48 8.45 l -9 -23.92 l -41 -2.71 s 10.44 -7 19.52 -12.86 c 1.1 -0.71 4.17 -3.09 4.17 -3.09 s 11.44 0.9 21.59 0.95 c 4.38 0 14.85 -0.69 14.85 -0.69 s 4.83 7.76 6.44 10.82 s 5.65 11.83 6.91 14.54 a 50.87 50.87 0 0 0 9.06 -9.27 s -5.4 -15.9 -8.38 -22.5 c -2.26 -5 -6.72 -13.12 -6.72 -13.12 s -8.75 3.16 -12 4 c -5.19 1.36 -21.79 4.9 -21.79 4.9 C 843.29 477.11 801.94 499 801.94 499 L 841 505.54 Z" />
    <polygon style="opacity:0.30000000000000004;fill:url(#el)" points="912.62,292.69 912.62,277.47 887.66,235.34 861.1,253.19 861.1,269.57 887.66,251.72 912.62,292.69" />
    <path style="opacity:0.30000000000000004;fill:url(#em)" transform="translate(0 -4.78)" d="M 888.13 411.91 l 23.52 44.84 c 0.7 -4.4 1 -7.29 1 -7.29 V 348.83 l -0.18 36.09 L 888.11 342.2 l -26.22 17.91 l 0.17 -34.91 l 26.22 -17.91 l 24.33 41.54 V 333.16 l -25 -42.13 L 861.1 308.88 V 431.51 a 18.29 18.29 0 0 1 0.56 6.14 c 0.61 -3.64 0.77 -6.14 0.77 -6.14 Z m -26.5 -0.33 l 0.17 -34.9 L 888 358.76 l 24.34 41.54 l -0.19 36.09 l -24.32 -42.72 Z" />
    <polygon style="opacity:0.30000000000000004;fill:url(#en)" points="912.62,241.77 912.62,227.14 887.66,185.01 861.1,202.86 861.1,218.66 887.66,200.81 912.62,241.77" />
    <polygon style="opacity:0.1;fill:url(#eo)" points="912.62,191.45 912.62,177.4 887.66,135.26 861.1,153.11 861.1,168.33 887.66,150.48 912.62,191.45" />
    <polygon style="opacity:0.30000000000000004;fill:url(#ep)" points="912.62,227.14 912.62,191.45 887.66,150.48 861.1,168.33 861.1,202.86 887.66,185.01 912.62,227.14" />
    <polygon style="fill:url(#eq)" points="912.62,227.14 912.62,191.45 887.66,150.48 861.1,168.33 861.1,202.86 887.66,185.01 912.62,227.14" />
    <polygon style="opacity:0.30000000000000004;fill:url(#er)" points="912.62,277.47 912.62,241.77 887.66,200.81 861.1,218.66 861.1,253.19 887.66,235.34 912.62,277.47" />
    <polygon style="opacity:0.6000000000000001;fill:url(#es)" points="912.62,277.47 912.62,241.77 887.66,200.81 861.1,218.66 861.1,253.19 887.66,235.34 912.62,277.47" />
    <polygon style="opacity:0.30000000000000004;fill:url(#et)" points="912.62,328.38 912.62,292.69 887.66,251.72 861.1,269.57 861.1,304.1 887.66,286.25 912.62,328.38" />
    <polygon style="opacity:0.2;fill:url(#eu)" points="912.62,328.38 912.62,292.69 887.66,251.72 861.1,269.57 861.1,304.1 887.66,286.25 912.62,328.38" />
    <polygon style="opacity:0.15;fill:url(#ev)" points="912.63,177.26 912.63,141.56 887.68,100.6 861.12,118.45 861.12,152.98 887.68,135.13 912.63,177.26" />
    <polygon style="opacity:0.05;fill:url(#ew)" points="912.62,141.52 912.62,127.47 887.66,85.34 861.1,103.19 861.1,118.4 887.66,100.56 912.62,141.52" />
    <polygon style="opacity:0.08;fill:url(#ex)" points="912.63,127.33 912.63,91.64 887.68,50.67 861.12,68.52 861.12,103.05 887.68,85.2 912.63,127.33" />
    <polygon style="opacity:0.30000000000000004;fill:url(#ey)" points="862.06,320.42 861.88,355.33 888.11,337.41 912.43,380.14 912.62,344.05 888.28,302.5 862.06,320.42" />
    <polygon style="fill:url(#ez)" points="862.06,320.42 861.88,355.33 888.11,337.41 912.43,380.14 912.62,344.05 888.28,302.5 862.06,320.42" />
    <polygon style="opacity:0.30000000000000004;fill:url(#fa)" points="912.17,431.61 912.36,395.52 888.02,353.98 861.8,371.89 861.63,406.8 887.85,388.89 912.17,431.61" />
    <polygon style="opacity:0.4;fill:url(#fb)" points="912.17,431.61 912.36,395.52 888.02,353.98 861.8,371.89 861.63,406.8 887.85,388.89 912.17,431.61" />
    <path style="opacity:0.2;fill:url(#fc)" transform="translate(0 -4.78)" d="M 859.31 447.49 a 92.62 92.62 0 0 1 -8.2 17.74 c 8.29 -12.6 10.3 -22 10.55 -27.58 A 73.53 73.53 0 0 1 859.31 447.49 Z" />
    <path style="opacity:0.2;fill:url(#fd)" transform="translate(0 -4.78)" d="M 908.7 474.21 c 3.1 -11 3.24 -16.9 3.24 -16.9 l -0.29 -0.56 c -1.46 9.2 -4.81 25 -11.63 35.18 C 900 491.93 905.52 485.54 908.7 474.21 Z" />
    <path style="opacity:0.30000000000000004;fill:url(#fe)" transform="translate(0 -4.78)" d="M 884.92 456.31 s 4.46 8.12 6.72 13.12 c 3 6.6 8.38 22.5 8.38 22.5 c 6.82 -10.14 10.17 -26 11.63 -35.18 l -23.52 -44.84 l -25.7 19.6 s -0.16 2.5 -0.77 6.14 c -0.25 5.63 -2.26 15 -10.55 27.58 c 0 0 16.6 -3.54 21.79 -4.9 C 876.17 459.47 884.92 456.31 884.92 456.31 Z" />
    <path style="opacity:0.2;fill:url(#ff)" transform="translate(0 -4.78)" d="M 884.92 456.31 s 4.46 8.12 6.72 13.12 c 3 6.6 8.38 22.5 8.38 22.5 c 6.82 -10.14 10.17 -26 11.63 -35.18 l -23.52 -44.84 l -25.7 19.6 s -0.16 2.5 -0.77 6.14 c -0.25 5.63 -2.26 15 -10.55 27.58 c 0 0 16.6 -3.54 21.79 -4.9 C 876.17 459.47 884.92 456.31 884.92 456.31 Z" />
    <path style="fill:url(#fg)" transform="translate(0 -4.78)" d="M 888.12 504.45 a 29.32 29.32 0 0 0 3.2 -2.46 l -0.36 -0.79 c -3.3 2.78 -7.12 5.68 -11.06 8.51 C 882.56 508 885.39 506.13 888.12 504.45 Z" />
    <path style="opacity:0.30000000000000004;fill:url(#fh)" transform="translate(0 -4.78)" d="M 877.61 475.84 s -10.47 0.71 -14.85 0.69 c -10.15 0 -21.59 -0.95 -21.59 -0.95 S 838.1 478 837 478.67 c -9.08 5.82 -19.52 12.86 -19.52 12.86 l 41 2.71 l 9 23.92 s 5.68 -4 12.48 -8.45 c 3.94 -2.83 7.76 -5.73 11.06 -8.51 c -1.26 -2.71 -5.38 -11.61 -6.91 -14.54 S 877.61 475.84 877.61 475.84 Z" />
    <path style="fill:url(#fi)" transform="translate(0 -4.78)" d="M 877.61 475.84 s -10.47 0.71 -14.85 0.69 c -10.15 0 -21.59 -0.95 -21.59 -0.95 S 838.1 478 837 478.67 c -9.08 5.82 -19.52 12.86 -19.52 12.86 l 41 2.71 l 9 23.92 s 5.68 -4 12.48 -8.45 c 3.94 -2.83 7.76 -5.73 11.06 -8.51 c -1.26 -2.71 -5.38 -11.61 -6.91 -14.54 S 877.61 475.84 877.61 475.84 Z" />
    <polygon style="opacity:0.4;fill:url(#fj)" points="824.85,538.63 849.93,524.35 824.74,538.37 824.85,538.63" />
    <polygon style="opacity:0.30000000000000004;fill:url(#fk)" points="814.89,515.62 824.74,538.37 849.93,524.35 841.03,500.76 801.94,494.17 777.1,508.25 814.89,515.62" />
    <polygon style="opacity:0.4;fill:url(#fl)" points="814.89,515.62 824.74,538.37 849.93,524.35 841.03,500.76 801.94,494.17 777.1,508.25 814.89,515.62" />
    <polygon style="opacity:0.2;fill:url(#fm)" points="786,560.26 811.08,545.98 811.08,545.97 785.89,559.99 786,560.26" />
    <polygon style="opacity:0.30000000000000004;fill:url(#fn)" points="763.1,515.8 738.26,529.89 776.04,537.25 785.89,559.99 811.08,545.97 802.18,522.39 763.1,515.8" />
    <polygon style="opacity:0.2;fill:url(#fo)" points="763.1,515.8 738.26,529.89 776.04,537.25 785.89,559.99 811.08,545.97 802.18,522.39 763.1,515.8" />
    <path style="opacity:0.30000000000000004;fill:url(#fp)" transform="translate(0 -4.78)" d="M 765.18 576.05 l 7.09 -4 l -8.9 -23.59 l -30 -5.06 l 3.64 2.1 A 69.94 69.94 0 0 1 765.18 576.05 Z" />
    <path style="fill:url(#fq)" transform="translate(0 -4.78)" d="M 765.18 576.05 l 7.09 -4 l -8.9 -23.59 l -30 -5.06 l 3.64 2.1 A 69.94 69.94 0 0 1 765.18 576.05 Z" />
    <path style="opacity:0.31;fill:url(#fr)" transform="translate(0 -4.78)" d="M 201.63 587.26 c 0.47 -1.66 1 -3.31 1.58 -4.93 l -4 -2.34 l -48.86 0.11 l 1.87 31.34 l 13.11 7.81 l -1.86 -31.42 Z" />
    <path style="opacity:0.31;fill:url(#fs)" transform="translate(0 -4.78)" d="M 39.23 510.1 s 14.23 2.17 19.8 1.37 c 6.32 -0.91 19.56 -2.43 19.56 -2.43 s -16 -8.36 -22.26 -25.17 A 51.76 51.76 0 0 0 63 496.11 s -17 -3.69 -22.36 -5.1 c -3.34 -0.89 -12.31 -4.13 -12.31 -4.13 s -4.67 8.08 -7 13.06 c -2.8 5.89 -7.66 19.23 -8.64 21.93 A 94.16 94.16 0 0 0 30.3 538.21 c 0.37 -0.83 3.37 -7.64 5.34 -13.36 A 121.83 121.83 0 0 0 39.23 510.1 Z" />
    <polygon style="opacity:0.31;fill:url(#ft)" points="168.42,557.09 155.5,549.49 106.7,549.61 108.54,580.63 122.46,588.92 120.61,557.8 168.42,557.09" />
    <path style="opacity:0.31;fill:url(#fu)" transform="translate(0 -4.78)" d="M 124.7 536.16 l -18.14 -10.67 L 64 529.38 l -5.61 25.86 s -10.78 -6.13 -20.61 -12 c 3.42 2.15 5.65 3.33 5.65 3.33 l 35.36 21.07 L 77 536.87 Z" />
    <path style="opacity:0.31;fill:url(#fv)" transform="translate(0 -4.78)" d="M 54.72 478.3 a 37.37 37.37 0 0 0 1.57 5.49 A 38.83 38.83 0 0 1 54.72 478.3 Z" />
    <path style="opacity:0.31;fill:url(#fw)" transform="translate(0 -4.78)" d="M 52.7 432.57 V 414.7 l -0.38 26.38 C 52.41 435.7 52.7 432.57 52.7 432.57 Z" />
    <polygon style="opacity:0.05;fill:url(#fx)" points="0.59,161.51 25.98,120.19 52.59,138.22 52.6,116.62 25.39,98.47 0.39,140.31 0.59,161.51" />
    <polygon style="opacity:0.15;fill:url(#fy)" points="52.6,173.23 25.85,155.1 0.45,197.6 0.42,212.94 25.78,171.66 52.57,189.82 52.6,173.23" />
    <polygon style="opacity:0.31;fill:url(#fz)" points="52.44,224.72 25.64,206.57 0.43,248.78 0.44,288.38 0.52,267.88 25.91,226.57 52.63,244.67 52.44,224.72" />
    <path style="opacity:0.31;fill:url(#ga)" transform="translate(0 -4.78)" d="M 199.05 605.33 l -5.82 0 L 195.11 637 l 3.93 2.34 V 606.05 C 199 605.81 199.05 605.57 199.05 605.33 Z" />
    <polygon style="opacity:0.31;fill:url(#gb)" points="26.01,384.53 52.69,402.61 52.68,385.99 26.07,367.96 0.68,410.46 0.82,374.37 26.21,333.05 52.67,350.98 52.64,261.23 52.56,279.63 25.77,261.47 0.45,303.86 0.45,319.14 25.71,278.04 52.5,296.19 52.36,331.1 25.57,312.95 0.46,354.97 0.5,456.47 0.62,425.85 26.01,384.53" />
    <path style="opacity:0.31;fill:url(#gc)" transform="translate(0 -4.78)" d="M 3.53 503.94 a 50.45 50.45 0 0 0 2.63 7.62 a 57 57 0 0 1 -2.46 -7 C 3.64 504.35 3.59 504.15 3.53 503.94 Z" />
    <path style="opacity:0.31;fill:url(#gd)" transform="translate(0 -4.78)" d="M 53 463.32 a 85 85 0 0 0 1.71 15 a 228.71 228.71 0 0 1 -2.42 -37.07 l -26.43 -17 L 0.47 466.72 l 0 -5.47 a 184.07 184.07 0 0 0 0.29 25.9 l 24.62 -44.69 Z" />
    <polygon style="opacity:0.2;fill:url(#ge)" points="52.86,386.11 53,351.21 52.67,350.98 52.68,385.99 52.86,386.11" />
    <polygon style="opacity:0.31;fill:url(#gf)" points="0.82,374.37 0.68,410.46 26.07,367.96 52.68,385.99 52.67,350.98 26.21,333.05 0.82,374.37" />
    <polygon style="opacity:0.2;fill:url(#gg)" points="0.82,374.37 0.68,410.46 26.07,367.96 52.68,385.99 52.67,350.98 26.21,333.05 0.82,374.37" />
    <polygon style="fill:url(#gh)" points="52.8,402.68 52.69,402.61 52.69,409.92 52.8,402.68" />
    <path style="fill:url(#gi)" transform="translate(0 -4.78)" d="M 52.31 441.23 v 0 Z" />
    <polygon style="fill:url(#gj)" points="0.5,456.47 0.5,456.47 0.5,456.47 0.5,456.47" />
    <path style="opacity:0.31;fill:url(#gk)" transform="translate(0 -4.78)" d="M 25.87 424.22 l 26.43 17 v -0.15 l 0.38 -26.38 v -7.31 L 26 389.31 L 0.62 430.63 L 0.5 461.25 h 0 l 0 5.47 Z" />
    <path style="fill:url(#gl)" transform="translate(0 -4.78)" d="M 25.87 424.22 l 26.43 17 v -0.15 l 0.38 -26.38 v -7.31 L 26 389.31 L 0.62 430.63 L 0.5 461.25 h 0 l 0 5.47 Z" />
    <polygon style="fill:url(#gm)" points="52.7,244.72 52.63,244.67 52.64,261.23 52.7,244.72" />
    <polygon style="fill:url(#gn)" points="0.38,303.98 0.45,303.86 0.44,288.38 0.38,303.98" />
    <polygon style="opacity:0.31;fill:url(#go)" points="52.56,279.63 52.64,261.23 52.63,244.67 25.91,226.57 0.52,267.88 0.44,288.38 0.45,303.86 25.77,261.47 52.56,279.63" />
    <polygon style="fill:url(#gp)" points="52.56,279.63 52.64,261.23 52.63,244.67 25.91,226.57 0.52,267.88 0.44,288.38 0.45,303.86 25.77,261.47 52.56,279.63" />
    <polygon style="opacity:0.4;fill:url(#gq)" points="0.32,319.36 0.18,355.45 0.46,354.97 0.45,319.14 0.32,319.36" />
    <polygon style="opacity:0.31;fill:url(#gr)" points="52.36,331.1 52.5,296.19 25.71,278.04 0.45,319.14 0.46,354.97 25.57,312.95 52.36,331.1" />
    <polygon style="opacity:0.4;fill:url(#gs)" points="52.36,331.1 52.5,296.19 25.71,278.04 0.45,319.14 0.46,354.97 25.57,312.95 52.36,331.1" />
    <polygon style="opacity:0.2;fill:url(#gt)" points="0.62,161.37 0.47,197.46 25.87,154.96 52.63,173.09 52.61,138.08 26,120.05 0.62,161.37" />
    <polygon style="opacity:0.2;fill:url(#gu)" points="0.39,212.98 0.25,249.07 0.43,248.78 0.42,212.94 0.39,212.98" />
    <polygon style="opacity:0.31;fill:url(#gv)" points="52.44,224.72 52.57,189.82 25.78,171.66 0.42,212.94 0.43,248.78 25.64,206.57 52.44,224.72" />
    <polygon style="opacity:0.2;fill:url(#gw)" points="52.44,224.72 52.57,189.82 25.78,171.66 0.42,212.94 0.43,248.78 25.64,206.57 52.44,224.72" />
    <line style="opacity:0.2;fill:url(#gx)" x1="0.38" y1="104.49" x2="0.14" y2="104.88" />
    <line style="opacity:0.2;fill:url(#gy)" y1="140.97" x2="0.39" y2="140.32" />
    <polygon style="opacity:0.08;fill:url(#gz)" points="52.63,116.48 52.65,81.65 25.55,63.42 0.4,104.36 0.41,140.18 25.41,98.33 52.63,116.48" />
    <path style="opacity:0.4;fill:url(#ha)" transform="translate(0 -4.78)" d="M 56.29 483.79 a 0.2 0.2 0 0 1 0 0.08 A 0.2 0.2 0 0 0 56.29 483.79 Z" />
    <path style="opacity:0.4;fill:url(#hb)" transform="translate(0 -4.78)" d="M 0.52 487.64 s 0.1 5.63 3 16.3 A 101.76 101.76 0 0 1 0.79 487.15 Z" />
    <path style="opacity:0.4;fill:url(#hc)" transform="translate(0 -4.78)" d="M 6.16 511.56 a 44.78 44.78 0 0 0 6.3 10.8 s 0.06 -0.18 0.18 -0.49 a 48.14 48.14 0 0 1 -6.38 -10.08 A 2.29 2.29 0 0 0 6.16 511.56 Z" />
    <path style="opacity:0.31;fill:url(#hd)" transform="translate(0 -4.78)" d="M 28.31 486.88 s 9 3.24 12.31 4.13 C 46 492.42 63 496.11 63 496.11 a 51.76 51.76 0 0 1 -6.65 -12.24 a 0.2 0.2 0 0 0 0 -0.08 a 37.37 37.37 0 0 1 -1.57 -5.49 a 85 85 0 0 1 -1.71 -15 l -27.6 -20.86 L 0.79 487.15 a 101.76 101.76 0 0 0 2.74 16.79 c 0.06 0.21 0.11 0.41 0.17 0.63 a 57 57 0 0 0 2.46 7 a 2.29 2.29 0 0 1 0.1 0.23 a 48.14 48.14 0 0 0 6.38 10.08 c 1 -2.7 5.84 -16 8.64 -21.93 C 23.64 495 28.31 486.88 28.31 486.88 Z" />
    <path style="opacity:0.4;fill:url(#he)" transform="translate(0 -4.78)" d="M 28.31 486.88 s 9 3.24 12.31 4.13 C 46 492.42 63 496.11 63 496.11 a 51.76 51.76 0 0 1 -6.65 -12.24 a 0.2 0.2 0 0 0 0 -0.08 a 37.37 37.37 0 0 1 -1.57 -5.49 a 85 85 0 0 1 -1.71 -15 l -27.6 -20.86 L 0.79 487.15 a 101.76 101.76 0 0 0 2.74 16.79 c 0.06 0.21 0.11 0.41 0.17 0.63 a 57 57 0 0 0 2.46 7 a 2.29 2.29 0 0 1 0.1 0.23 a 48.14 48.14 0 0 0 6.38 10.08 c 1 -2.7 5.84 -16 8.64 -21.93 C 23.64 495 28.31 486.88 28.31 486.88 Z" />
    <path style="opacity:0.2;fill:url(#hf)" transform="translate(0 -4.78)" d="M 30.26 538.29 s 3.92 2.85 5.19 3.61 l 2.32 1.38 c -2.12 -1.33 -4.7 -3 -7.47 -5.07 Z" />
    <path style="opacity:0.2;fill:url(#hg)" transform="translate(0 -4.78)" d="M 107.42 525.42 S 93.65 517.86 83 511.26 A 46.06 46.06 0 0 0 78.59 509 l 28 16.45 Z" />
    <path style="opacity:0.31;fill:url(#hh)" transform="translate(0 -4.78)" d="M 64 529.38 l 42.57 -3.89 L 78.59 509 S 65.35 510.56 59 511.47 c -5.57 0.8 -19.8 -1.37 -19.8 -1.37 a 121.83 121.83 0 0 1 -3.59 14.75 c -2 5.72 -5 12.53 -5.34 13.36 c 2.77 2 5.35 3.74 7.47 5.07 c 9.83 5.83 20.61 12 20.61 12 Z" />
    <path style="opacity:0.2;fill:url(#hi)" transform="translate(0 -4.78)" d="M 64 529.38 l 42.57 -3.89 L 78.59 509 S 65.35 510.56 59 511.47 c -5.57 0.8 -19.8 -1.37 -19.8 -1.37 a 121.83 121.83 0 0 1 -3.59 14.75 c -2 5.72 -5 12.53 -5.34 13.36 c 2.77 2 5.35 3.74 7.47 5.07 c 9.83 5.83 20.61 12 20.61 12 Z" />
    <polygon style="opacity:0.2;fill:url(#hj)" points="165.38,615 195.13,632.51 195.11,632.2 165.34,614.47 165.38,615" />
    <path style="opacity:0.31;fill:url(#hk)" transform="translate(0 -4.78)" d="M 199.05 605.33 a 69.92 69.92 0 0 1 2.58 -18.07 l -38.15 0.57 l 1.86 31.42 L 195.11 637 l -1.88 -31.64 Z" />
    <path style="opacity:0.2;fill:url(#hl)" transform="translate(0 -4.78)" d="M 199.05 605.33 a 69.92 69.92 0 0 1 2.58 -18.07 l -38.15 0.57 l 1.86 31.42 L 195.11 637 l -1.88 -31.64 Z" />
    <polygon style="fill:url(#hm)" points="199.33,575.2 168.57,557.09 168.42,557.09 199.22,575.2 199.33,575.2" />
    <polygon style="fill:url(#hn)" points="122.51,589.75 152.26,607.27 152.23,606.65 122.46,588.92 122.51,589.75" />
    <polygon style="opacity:0.31;fill:url(#ho)" points="199.22,575.2 168.42,557.09 120.61,557.8 122.46,588.92 152.23,606.65 150.37,575.32 199.22,575.2" />
    <polygon style="fill:url(#hp)" points="199.22,575.2 168.42,557.09 120.61,557.8 122.46,588.92 152.23,606.65 150.37,575.32 199.22,575.2" />
    <polygon style="fill:url(#hq)" points="78.85,564.04 108.6,581.56 108.54,580.63 78.78,562.89 78.85,564.04" />
    <polygon style="fill:url(#hr)" points="155.67,549.49 124.91,531.38 124.7,531.38 155.5,549.49 155.67,549.49" />
    <polygon style="opacity:0.31;fill:url(#hs)" points="155.5,549.49 124.7,531.38 76.95,532.09 78.78,562.89 108.54,580.63 106.7,549.61 155.5,549.49" />
    <polygon style="fill:url(#ht)" points="155.5,549.49 124.7,531.38 76.95,532.09 78.78,562.89 108.54,580.63 106.7,549.61 155.5,549.49" />
    <polygon style="opacity:0.05;fill:url(#hu)" points="130.42,69.87 130.42,55.81 105.59,96.58 79.35,78.95 79.39,94.19 105.59,111.8 130.42,69.87" />
    <polygon style="opacity:0.2;fill:url(#hv)" points="130.41,122.59 130.41,105.58 105.59,146.32 79.47,128.77 79.51,146.97 105.59,164.49 130.41,122.59" />
    <polygon style="opacity:0.31;fill:url(#hw)" points="264.81,522.91 249.35,513.83 250.46,531.2 264.81,522.91" />
    <path style="opacity:0.31;fill:url(#hx)" transform="translate(0 -4.78)" d="M 226.29 550.64 l -23.42 0.45 l -31.17 -18.2 l 49.5 -0.31 l -2 -31.68 l -14.31 -8.4 l 2 31.73 l -48.49 0.91 L 127.24 507 l 49.51 -0.32 l -1.23 -30.93 c -4.68 -2.64 -11.22 -6.57 -18.63 -11.77 l 3.91 33.84 l -51.56 -1.48 A 183.62 183.62 0 0 0 131.87 510 l 84.71 49.72 A 70.51 70.51 0 0 1 226.29 550.64 Z" />
    <polygon style="opacity:0.31;fill:url(#hy)" points="130.39,173.52 130.4,158.29 105.59,199.02 79.6,181.55 79.64,197.97 105.59,215.4 130.39,173.52" />
    <polygon style="opacity:0.31;fill:url(#hz)" points="130.36,273.64 130.37,259.58 105.59,300.25 79.84,282.96 79.88,298.2 105.59,315.47 130.36,273.64" />
    <polygon style="opacity:0.31;fill:url(#ia)" points="130.38,223.87 130.38,209.23 105.59,249.93 79.72,232.55 79.76,248.37 105.59,265.73 130.38,223.87" />
    <polygon style="opacity:0.31;fill:url(#ib)" points="130.35,324.34 130.35,309.35 105.59,350 79.96,332.78 80,348.95 105.59,366.14 130.35,324.34" />
    <path style="opacity:0.31;fill:url(#ic)" transform="translate(0 -4.78)" d="M 80.35 412.13 l 25.12 8.29 l 24.86 -34.58 v -21 l -24.75 40.63 l -25.5 -17.13 l 0.1 41.53 s -0.12 2.57 0 6.65 C 80.15 424.93 80.35 412.13 80.35 412.13 Z" />
    <path style="opacity:0.31;fill:url(#id)" transform="translate(0 -4.78)" d="M 124 472.73 s 1.76 -9.37 2.69 -12.7 c 1.48 -5.31 6.95 -21.85 6.95 -21.85 s 0.26 0.63 0.75 1.68 a 54.15 54.15 0 0 1 -4.06 -21.23 v -0.36 c -0.83 1.11 -8.17 10.82 -11.93 15.52 c -3.51 4.39 -8.87 17.75 -8.87 17.75 A 122.71 122.71 0 0 0 95 447.15 C 88.87 445.9 81.22 445 80.73 445 a 95.33 95.33 0 0 0 5 23.48 c 2.37 0.44 16.81 3.13 23.46 3.72 C 114.66 472.65 124 472.73 124 472.73 Z" />
    <path style="opacity:0.31;fill:url(#ie)" transform="translate(0 -4.78)" d="M 96.26 485 a 55 55 0 0 1 -7.65 -10 a 41.28 41.28 0 0 0 2.71 4.5 c 3.27 4.67 8.08 9.21 13.25 13.3 A 104 104 0 0 1 96.26 485 Z" />
    <polygon style="opacity:0.2;fill:url(#if)" points="249.31,513.09 219.16,495.5 219.2,496.12 249.35,513.83 249.31,513.09" />
    <path style="opacity:0.31;fill:url(#ig)" transform="translate(0 -4.78)" d="M 171.7 532.89 l 31.17 18.2 l 23.42 -0.45 a 72 72 0 0 1 7.74 -5.18 L 250.45 536 l -1.1 -17.37 L 219.2 500.9 l 2 31.68 Z" />
    <path style="opacity:0.2;fill:url(#ih)" transform="translate(0 -4.78)" d="M 171.7 532.89 l 31.17 18.2 l 23.42 -0.45 a 72 72 0 0 1 7.74 -5.18 L 250.45 536 l -1.1 -17.37 L 219.2 500.9 l 2 31.68 Z" />
    <path style="fill:url(#ii)" transform="translate(0 -4.78)" d="M 204.89 492.5 l 0 -0.57 L 175.5 475.22 l 0 0.48 c 4.66 2.62 7.48 3.95 7.48 3.95 Z" />
    <path style="opacity:0.31;fill:url(#ij)" transform="translate(0 -4.78)" d="M 127.24 507 l 31.17 18.19 l 48.49 -0.91 l -2 -31.73 L 183 479.65 s -2.82 -1.33 -7.48 -3.95 l 1.23 30.93 Z" />
    <path style="fill:url(#ik)" transform="translate(0 -4.78)" d="M 127.24 507 l 31.17 18.19 l 48.49 -0.91 l -2 -31.73 L 183 479.65 s -2.82 -1.33 -7.48 -3.95 l 1.23 30.93 Z" />
    <path style="opacity:0.4;fill:url(#il)" transform="translate(0 -4.78)" d="M 85.37 468.39 A 38 38 0 0 0 88.61 475 a 55.41 55.41 0 0 1 -2.9 -6.52 Z" />
    <path style="opacity:0.4;fill:url(#im)" transform="translate(0 -4.78)" d="M 109.23 496.29 h 0 c -1.57 -1.12 -3.14 -2.3 -4.67 -3.52 A 43.57 43.57 0 0 0 109.23 496.29 Z" />
    <path style="opacity:0.4;fill:url(#in)" transform="translate(0 -4.78)" d="M 144.68 454.75 c 4.21 3.4 8.33 6.46 12.21 9.18 l -0.07 -0.53 a 84.7 84.7 0 0 1 -12 -9.07 c -5.43 -4.85 -8.95 -11.42 -10.4 -14.47 A 41.73 41.73 0 0 0 144.68 454.75 Z" />
    <path style="opacity:0.31;fill:url(#io)" transform="translate(0 -4.78)" d="M 156.89 463.93 c -3.88 -2.72 -8 -5.78 -12.21 -9.18 a 41.73 41.73 0 0 1 -10.3 -14.89 c -0.49 -1.05 -0.75 -1.68 -0.75 -1.68 s -5.47 16.54 -6.95 21.85 c -0.93 3.33 -2.69 12.7 -2.69 12.7 s -9.33 -0.08 -14.82 -0.56 c -6.65 -0.59 -21.09 -3.28 -23.46 -3.72 a 55.41 55.41 0 0 0 2.9 6.52 a 55 55 0 0 0 7.65 10 a 104 104 0 0 0 8.31 7.81 c 1.53 1.22 3.1 2.4 4.67 3.52 l 51.56 1.48 Z" />
    <path style="opacity:0.4;fill:url(#ip)" transform="translate(0 -4.78)" d="M 156.89 463.93 c -3.88 -2.72 -8 -5.78 -12.21 -9.18 a 41.73 41.73 0 0 1 -10.3 -14.89 c -0.49 -1.05 -0.75 -1.68 -0.75 -1.68 s -5.47 16.54 -6.95 21.85 c -0.93 3.33 -2.69 12.7 -2.69 12.7 s -9.33 -0.08 -14.82 -0.56 c -6.65 -0.59 -21.09 -3.28 -23.46 -3.72 a 55.41 55.41 0 0 0 2.9 6.52 a 55 55 0 0 0 7.65 10 a 104 104 0 0 0 8.31 7.81 c 1.53 1.22 3.1 2.4 4.67 3.52 l 51.56 1.48 Z" />
    <path style="opacity:0.2;fill:url(#iq)" transform="translate(0 -4.78)" d="M 130.41 418.16 a 47.71 47.71 0 0 0 0.31 -4.9 c -0.27 -12.55 0.21 -28.25 0.21 -28.25 l -0.6 0.83 v 32.43 Z" />
    <path style="opacity:0.2;fill:url(#ir)" transform="translate(0 -4.78)" d="M 80.2 438.67 c 0 1.47 0.48 6.29 0.48 6.29 h 0 c -0.31 -3.2 -0.46 -6.09 -0.54 -8.47 C 80.2 437.23 80.2 438 80.2 438.67 Z" />
    <path style="opacity:0.31;fill:url(#is)" transform="translate(0 -4.78)" d="M 109.52 451.54 s 5.36 -13.36 8.87 -17.75 c 3.76 -4.7 11.1 -14.41 11.93 -15.52 V 385.84 l -24.86 34.58 l -25.12 -8.29 s -0.2 12.8 -0.16 24.37 c 0.08 2.38 0.23 5.27 0.54 8.47 c 0.49 0.06 8.14 0.93 14.26 2.18 A 122.71 122.71 0 0 1 109.52 451.54 Z" />
    <path style="opacity:0.2;fill:url(#it)" transform="translate(0 -4.78)" d="M 109.52 451.54 s 5.36 -13.36 8.87 -17.75 c 3.76 -4.7 11.1 -14.41 11.93 -15.52 V 385.84 l -24.86 34.58 l -25.12 -8.29 s -0.2 12.8 -0.16 24.37 c 0.08 2.38 0.23 5.27 0.54 8.47 c 0.49 0.06 8.14 0.93 14.26 2.18 A 122.71 122.71 0 0 1 109.52 451.54 Z" />
    <polygon style="opacity:0.2;fill:url(#iu)" points="130.54,259.29 130.54,223.59 130.38,223.87 130.37,259.58 130.54,259.29" />
    <polygon style="opacity:0.2;fill:url(#iv)" points="79.02,247.88 79.02,282.41 79.84,282.96 79.76,248.37 79.02,247.88" />
    <polygon style="opacity:0.31;fill:url(#iw)" points="130.37,259.58 130.38,223.87 105.59,265.73 79.76,248.37 79.84,282.96 105.59,300.25 130.37,259.58" />
    <polygon style="opacity:0.2;fill:url(#ix)" points="130.37,259.58 130.38,223.87 105.59,265.73 79.76,248.37 79.84,282.96 105.59,300.25 130.37,259.58" />
    <polygon style="fill:url(#iy)" points="79.02,197.55 79.02,232.08 79.72,232.55 79.64,197.97 79.02,197.55" />
    <polygon style="fill:url(#iz)" points="130.54,208.96 130.54,173.27 130.39,173.52 130.38,209.23 130.54,208.96" />
    <polygon style="opacity:0.31;fill:url(#ja)" points="130.38,209.23 130.39,173.52 105.59,215.4 79.64,197.97 79.72,232.55 105.59,249.93 130.38,209.23" />
    <polygon style="fill:url(#jb)" points="130.38,209.23 130.39,173.52 105.59,215.4 79.64,197.97 79.72,232.55 105.59,249.93 130.38,209.23" />
    <polygon style="opacity:0.4;fill:url(#jc)" points="79.02,146.64 79.02,181.17 79.6,181.55 79.51,146.97 79.02,146.64" />
    <polygon style="opacity:0.4;fill:url(#jd)" points="130.54,158.05 130.54,122.36 130.41,122.59 130.4,158.29 130.54,158.05" />
    <polygon style="opacity:0.31;fill:url(#je)" points="130.4,158.29 130.41,122.59 105.59,164.49 79.51,146.97 79.6,181.55 105.59,199.02 130.4,158.29" />
    <polygon style="opacity:0.4;fill:url(#jf)" points="130.4,158.29 130.41,122.59 105.59,164.49 79.51,146.97 79.6,181.55 105.59,199.02 130.4,158.29" />
    <polygon style="fill:url(#jg)" points="79.02,297.62 79.02,332.15 79.96,332.78 79.88,298.2 79.02,297.62" />
    <polygon style="fill:url(#jh)" points="130.54,309.04 130.54,273.34 130.36,273.64 130.35,309.35 130.54,309.04" />
    <polygon style="opacity:0.31;fill:url(#ji)" points="130.35,309.35 130.36,273.64 105.59,315.47 79.88,298.2 79.96,332.78 105.59,350 130.35,309.35" />
    <polygon style="fill:url(#jj)" points="130.35,309.35 130.36,273.64 105.59,315.47 79.88,298.2 79.96,332.78 105.59,350 130.35,309.35" />
    <polygon style="opacity:0.08;fill:url(#jk)" points="130.44,55.67 130.45,19.96 105.61,61.91 79.29,44.23 79.37,78.81 105.61,96.44 130.44,55.67" />
    <polygon style="opacity:0.15;fill:url(#jl)" points="130.43,105.44 130.44,69.73 105.61,111.66 79.41,94.05 79.49,128.63 105.61,146.18 130.43,105.44" />
    <polygon style="fill:url(#jm)" points="79.02,348.3 79.02,382.82 80.09,383.54 80,348.95 79.02,348.3" />
    <polygon style="fill:url(#jn)" points="130.54,359.71 130.54,324.01 130.35,324.34 130.34,360.04 130.54,359.71" />
    <polygon style="opacity:0.31;fill:url(#jo)" points="130.34,360.04 130.35,324.34 105.59,366.14 80,348.95 80.09,383.54 105.59,400.67 130.34,360.04" />
    <polygon style="fill:url(#jp)" points="130.34,360.04 130.35,324.34 105.59,366.14 80,348.95 80.09,383.54 105.59,400.67 130.34,360.04" />
</svg>