<svg xmlns="http://www.w3.org/2000/svg" xmlns:xlink="http://www.w3.org/1999/xlink" viewBox="0 0 568.1 1339.3">
  <defs>
    <linearGradient id="f" x1="317.8" x2="317.8" y1="565.8" y2="132.2" gradientUnits="userSpaceOnUse">
      <stop offset="0" stop-color="#fff"/>
      <stop offset=".6" stop-color="#1d1d1b"/>
    </linearGradient>
    <linearGradient id="i" x1="247.8" x2="247.8" y1="652.7" y2="-34.7" gradientUnits="userSpaceOnUse">
      <stop offset="0" stop-color="#fff"/>
      <stop offset=".7" stop-color="#1d1d1b"/>
    </linearGradient>
    <linearGradient id="l" x2="568.1" y1="1022.1" y2="1022.1" gradientUnits="userSpaceOnUse">
      <stop offset=".1" stop-color="#f6f6f6"/>
      <stop offset=".4" stop-color="#efefef"/>
      <stop offset=".7" stop-color="#dbdbdb"/>
      <stop offset="1" stop-color="#c6c6c6"/>
    </linearGradient>
    <linearGradient id="m" x1="37.3" x2="931.7" y1="858" y2="858" gradientUnits="userSpaceOnUse">
      <stop offset="0" stop-color="#c5c5c4"/>
      <stop offset="1" stop-color="#fbfbfb"/>
    </linearGradient>
    <linearGradient id="n" x1="95.2" x2="239.6" y1="938.2" y2="1450" gradientUnits="userSpaceOnUse">
      <stop offset="0" stop-color="#ededed"/>
      <stop offset="1" stop-color="#b2b2b2"/>
    </linearGradient>
    <linearGradient id="o" x1="184.9" x2="489.5" y1="972.4" y2="1138.8" gradientUnits="userSpaceOnUse">
      <stop offset="0" stop-color="#f6f6f6"/>
      <stop offset="1" stop-color="#b2b2b2"/>
    </linearGradient>
    <linearGradient id="a" x1="7781.8" x2="7924.7" y1="761.1" y2="761.1" gradientTransform="matrix(-1 0 0 1 8079.4 0)" gradientUnits="userSpaceOnUse">
      <stop offset="0" stop-color="#fff"/>
      <stop offset="1" stop-color="#dedede"/>
    </linearGradient>
    <linearGradient id="p" x1="7667.8" x2="7749" y1="806.1" y2="806.1" xlink:href="#a"/>
    <linearGradient id="q" x1="7584.2" x2="7611.5" y1="839.2" y2="839.2" xlink:href="#a"/>
    <linearGradient id="r" x1="7861.6" x2="7916" y1="845.6" y2="845.6" xlink:href="#a"/>
    <linearGradient id="s" x1="7799" x2="8039.2" y1="814.7" y2="814.7" xlink:href="#a"/>
    <linearGradient id="t" x1="7714.1" x2="7774.8" y1="859.2" y2="859.2" xlink:href="#a"/>
    <linearGradient id="u" x1="7936.8" x2="8011.6" y1="862.7" y2="862.7" xlink:href="#a"/>
    <linearGradient id="v" x1="7751.5" x2="7983.7" y1="817.2" y2="817.2" xlink:href="#a"/>
    <linearGradient id="w" x1="7918.8" x2="7955.6" y1="905.9" y2="905.9" xlink:href="#a"/>
    <linearGradient id="x" x1="7695.7" x2="7927.6" y1="849.6" y2="849.6" xlink:href="#a"/>
    <linearGradient id="y" x1="7556.3" x2="7815.1" y1="889.9" y2="889.9" xlink:href="#a"/>
    <linearGradient id="z" x1="7640" x2="7872" y1="881.9" y2="881.9" xlink:href="#a"/>
    <linearGradient id="A" x1="7610.3" x2="7844.2" y1="929.7" y2="929.7" xlink:href="#a"/>
    <linearGradient id="B" x1="7751" x2="7815.1" y1="978.1" y2="978.1" xlink:href="#a"/>
    <linearGradient id="C" x1="7612.1" x2="7655.4" y1="827.6" y2="827.6" xlink:href="#a"/>
    <linearGradient id="D" x1="7870.7" x2="7899.3" y1="940.8" y2="940.8" xlink:href="#a"/>
    <linearGradient id="c" x1="421.8" x2="140.1" y1="856.7" y2="856.7" gradientUnits="userSpaceOnUse">
      <stop offset="0" stop-color="#1d1d1b"/>
      <stop offset="1" stop-color="#3c3c3b"/>
    </linearGradient>
    <linearGradient id="b" x1="281.9" x2="140.1" y1="821.3" y2="821.3" gradientUnits="userSpaceOnUse">
      <stop offset="0" stop-color="#1d1d1b"/>
      <stop offset="1" stop-color="#555454"/>
    </linearGradient>
    <linearGradient id="E" x1="421.8" x2="281.9" y1="821.3" y2="821.3" xlink:href="#b"/>
    <linearGradient id="F" x1="162.8" x2="-119" y1="772.3" y2="772.3" gradientTransform="rotate(119.7 132 1051.3)" xlink:href="#c"/>
    <linearGradient id="G" x1="22.9" x2="-119" y1="736.9" y2="736.9" gradientTransform="rotate(119.7 132 1051.3)" xlink:href="#b"/>
    <linearGradient id="H" x1="162.8" x2="22.9" y1="736.9" y2="736.9" gradientTransform="rotate(119.7 132 1051.3)" xlink:href="#b"/>
    <filter id="d" width="664.6" height="716.1" x="41.9" y="630" color-interpolation-filters="sRGB" filterUnits="userSpaceOnUse">
      <feFlood flood-color="#fff" result="bg"/>
      <feBlend in="SourceGraphic" in2="bg"/>
    </filter>
    <mask id="I" width="664.6" height="716.1" x="41.9" y="630" maskUnits="userSpaceOnUse">
      <path fill="#1d1d1b" d="M155.7 866.2L282 936.8l140.2-78.6 88.8-48.3 195.6 36v408.9l-115.9 91.3L358 1198.2l125.6-72.3-.6-145.5-124.1 74.6-1 160.7-316-21.8L77 819.8 320.6 630l133.3 47.6 54.3 134.7-100 53.7-126.1-71.6-126.4 71.8z" filter="url(#d)"/>
    </mask>
    <linearGradient id="e" x1="269.6" x2="414.6" y1="871.4" y2="871.4" gradientUnits="userSpaceOnUse">
      <stop offset="0" stop-color="#848587"/>
      <stop offset="1" stop-color="#abafb2"/>
    </linearGradient>
    <linearGradient id="J" x1="312.8" x2="370.8" y1="871.2" y2="871.2" xlink:href="#e"/>
    <linearGradient id="K" x1="228.5" x2="246.3" y1="835.5" y2="835.5" xlink:href="#e"/>
    <linearGradient id="L" x1="209.5" x2="265.3" y1="835.5" y2="835.5" xlink:href="#e"/>
    <linearGradient id="M" x1="215.8" x2="259" y1="835.5" y2="835.5" xlink:href="#e"/>
    <linearGradient id="N" x1="143.4" x2="261.2" y1="988.4" y2="988.4" xlink:href="#e"/>
    <linearGradient id="O" x1="355.9" x2="501" y1="1016.3" y2="1016.3" xlink:href="#e"/>
    <linearGradient id="P" x1="372.3" x2="484.6" y1="1016.3" y2="1016.3" xlink:href="#e"/>
    <linearGradient id="Q" x1="409.3" x2="444" y1="1018.2" y2="1018.2" xlink:href="#e"/>
    <linearGradient id="R" x1="215.7" x2="360.8" y1="945.1" y2="945.1" xlink:href="#e"/>
    <linearGradient id="S" x1="347.9" x2="423.8" y1="1078.5" y2="1078.5" xlink:href="#e"/>
    <linearGradient id="T" x1="358.7" x2="433.2" y1="826.9" y2="826.9" xlink:href="#e"/>
    <linearGradient id="U" x1="354.3" x2="437.6" y1="826.9" y2="826.9" xlink:href="#e"/>
    <linearGradient id="V" x1="347.9" x2="444" y1="826.9" y2="826.9" xlink:href="#e"/>
    <clipPath id="W">
      <path fill="none" d="M45.1 1124.1l.5-156 184.8 106.7-.4 156.1-184.9-106.8z"/>
    </clipPath>
    <linearGradient id="X" x1="489.7" x2="358" y1="1091.8" y2="1091.8" gradientUnits="userSpaceOnUse">
      <stop offset="0" stop-color="#2581c4"/>
      <stop offset="1" stop-color="#2581c4" stop-opacity=".5"/>
    </linearGradient>
    <filter id="g" width="266.7" height="765.7" x="184.4" y="132.2" color-interpolation-filters="sRGB" filterUnits="userSpaceOnUse">
      <feFlood flood-color="#fff" result="bg"/>
      <feBlend in="SourceGraphic" in2="bg"/>
    </filter>
    <mask id="Y" width="266.7" height="765.7" x="184.4" y="132.2" maskUnits="userSpaceOnUse">
      <path fill="url(#f)" d="M184.4 132.2h266.7v433.6H184.4z" filter="url(#g)"/>
    </mask>
    <linearGradient id="h" x1="352.1" x2="303.3" y1="589.5" y2="589.5" gradientUnits="userSpaceOnUse">
      <stop offset="0" stop-color="#316f92"/>
      <stop offset="1" stop-color="#5788b7"/>
    </linearGradient>
    <linearGradient id="Z" x1="352.1" x2="303.3" y1="623.3" y2="623.3" xlink:href="#h"/>
    <linearGradient id="aa" x1="352.1" x2="303.3" y1="575.7" y2="575.7" xlink:href="#h"/>
    <linearGradient id="ab" x1="352.1" x2="303.3" y1="527.4" y2="527.4" xlink:href="#h"/>
    <linearGradient id="ac" x1="352.1" x2="303.3" y1="670.5" y2="670.5" xlink:href="#h"/>
    <linearGradient id="ad" x1="352.1" x2="303.3" y1="430.4" y2="430.4" xlink:href="#h"/>
    <linearGradient id="ae" x1="352.1" x2="303.3" y1="382.7" y2="382.7" xlink:href="#h"/>
    <linearGradient id="af" x1="352.1" x2="303.3" y1="334.5" y2="334.5" xlink:href="#h"/>
    <linearGradient id="ag" x1="352.1" x2="303.3" y1="477.5" y2="477.5" xlink:href="#h"/>
    <linearGradient id="ah" x1="352.1" x2="303.3" y1="814.4" y2="814.4" xlink:href="#h"/>
    <linearGradient id="ai" x1="352.1" x2="303.3" y1="766.7" y2="766.7" xlink:href="#h"/>
    <linearGradient id="aj" x1="352.1" x2="303.3" y1="718.5" y2="718.5" xlink:href="#h"/>
    <linearGradient id="ak" x1="352.1" x2="303.3" y1="861.5" y2="861.5" xlink:href="#h"/>
    <filter id="j" width="189.1" height="962.1" x="153.2" y="-34.7" color-interpolation-filters="sRGB" filterUnits="userSpaceOnUse">
      <feFlood flood-color="#fff" result="bg"/>
      <feBlend in="SourceGraphic" in2="bg"/>
    </filter>
    <mask id="al" width="189.1" height="962.1" x="153.2" y="-34.7" maskUnits="userSpaceOnUse">
      <path fill="url(#i)" d="M153.2-34.7h189.1v687.4H153.2z" filter="url(#j)"/>
    </mask>
    <linearGradient id="k" x1="653.2" x2="602.3" y1="2101.4" y2="2101.4" gradientTransform="rotate(180 440.7 1287)" gradientUnits="userSpaceOnUse">
      <stop offset="0" stop-color="#e9482f"/>
      <stop offset="1" stop-color="#ef7c54"/>
    </linearGradient>
    <linearGradient id="am" x1="653.2" x2="602.3" y1="2536" y2="2536" xlink:href="#k"/>
    <linearGradient id="an" x1="653.2" x2="602.3" y1="2485.7" y2="2485.7" xlink:href="#k"/>
    <linearGradient id="ao" x1="653.2" x2="602.3" y1="2384.5" y2="2384.5" xlink:href="#k"/>
    <linearGradient id="ap" x1="653.2" x2="602.3" y1="2334.7" y2="2334.7" xlink:href="#k"/>
    <linearGradient id="aq" x1="653.2" x2="602.3" y1="2284.4" y2="2284.4" xlink:href="#k"/>
    <linearGradient id="ar" x1="653.2" x2="602.3" y1="2433.6" y2="2433.6" xlink:href="#k"/>
    <linearGradient id="as" x1="653.2" x2="602.3" y1="1985.7" y2="1985.7" xlink:href="#k"/>
    <linearGradient id="at" x1="653.2" x2="602.3" y1="1935.9" y2="1935.9" xlink:href="#k"/>
    <linearGradient id="au" x1="653.2" x2="602.3" y1="1885.6" y2="1885.6" xlink:href="#k"/>
    <linearGradient id="av" x1="653.2" x2="602.3" y1="2034.8" y2="2034.8" xlink:href="#k"/>
    <linearGradient id="aw" x1="653.2" x2="602.3" y1="1784.4" y2="1784.4" xlink:href="#k"/>
    <linearGradient id="ax" x1="653.2" x2="602.3" y1="1734.7" y2="1734.7" xlink:href="#k"/>
    <linearGradient id="ay" x1="653.2" x2="602.3" y1="1684.4" y2="1684.4" xlink:href="#k"/>
    <linearGradient id="az" x1="653.2" x2="602.3" y1="1833.6" y2="1833.6" xlink:href="#k"/>
    <linearGradient id="aA" x1="653.2" x2="602.3" y1="2184.9" y2="2184.9" xlink:href="#k"/>
    <linearGradient id="aB" x1="653.2" x2="602.3" y1="2135.2" y2="2135.2" xlink:href="#k"/>
    <linearGradient id="aC" x1="653.2" x2="602.3" y1="2084.9" y2="2084.9" xlink:href="#k"/>
    <linearGradient id="aD" x1="653.2" x2="602.3" y1="2234.1" y2="2234.1" xlink:href="#k"/>
  </defs>
  <path fill="url(#l)" d="M0 898.2A69.5 69.5 0 0 1 34.7 838l214.6-124a69.5 69.5 0 0 1 69.4 0l214.7 124a69.5 69.5 0 0 1 34.7 60v248a69.5 69.5 0 0 1-34.7 60l-214.7 124a69.5 69.5 0 0 1-69.4 0L34.7 1206a69.5 69.5 0 0 1-34.7-60z"/>
  <path fill="url(#m)" d="M41.8 850.3l214.6-123.9a55.4 55.4 0 0 1 55.3 0l214.6 124a9 9 0 0 1 0 15.5L311.7 990a57.4 57.4 0 0 1-55.3 0l-214.6-124a9 9 0 0 1 0-15.6z"/>
  <path fill="url(#n)" d="M269.9 1310c0 6.2-5.4 9-9 9a8.7 8.7 0 0 1-4.5-1.2l-214.6-124A55.4 55.4 0 0 1 14 1146V898.2a9 9 0 0 1 9-9 8.8 8.8 0 0 1 4.5 1.2l214.7 124a55.4 55.4 0 0 1 27.6 47.8z"/>
  <path fill="url(#o)" d="M554 1146a55.4 55.4 0 0 1-27.7 47.9l-214.6 124a8.7 8.7 0 0 1-4.5 1.1c-3.7 0-9-2.8-9-9v-247.8a55.4 55.4 0 0 1 27.6-47.9l214.6-124a8.8 8.8 0 0 1 4.5-1.2 9 9 0 0 1 9 9z"/>
  <g style="isolation:isolate">
    <path fill="url(#a)" d="M154.7 799.4l4 2.4 138.8-80.2-5.7-1.2-137.1 79z"/>
    <path fill="url(#p)" d="M330.3 827.3l4 2.3 77.2-44.6-4-2.3-77.2 44.6z"/>
    <path fill="url(#q)" d="M467.9 844.7l3.9 2.4 23.4-13.5-4-2.3-23.3 13.4z"/>
    <path fill="url(#r)" d="M163.4 859l4 2.3 50.4-29-4-2.4-50.4 29.1z"/>
    <path fill="url(#s)" d="M40.1 865.7l4 2.3 74.6-43.2a15 15 0 0 1 7.1-1.7h40c7.5 0 14.9-1.7 20.2-4.8l94.4-54.5-4-2.3L182 816a33.4 33.4 0 0 1-16.2 3.9h-40a23 23 0 0 0-11 2.6z"/>
    <path fill="url(#t)" d="M304.6 874.4l4 2.3 56.7-32.7-4-2.3-56.7 32.7z"/>
    <path fill="url(#u)" d="M67.8 882l4 2.3 70.8-40.9-4-2.3L67.8 882z"/>
    <path fill="url(#v)" d="M311.1 741.4c-2.9 1.7-4.6 4-4.6 6.4l-.1 23.2c0 3.5-2.5 7-6.8 9.4l-53.5 30.9c-3 1.7-4.6 4-4.6 6.4l-.1 23.1c0 3.5-2.5 7-6.8 9.4l-34.3 19.9a33.5 33.5 0 0 1-16.3 3.8h-40a23 23 0 0 0-11 2.7L95.7 898l4 2.3 37.3-21.5a14.8 14.8 0 0 1 7-1.7h40c7.5 0 14.9-1.8 20.2-4.8l34.4-19.9c5.3-3 8.4-7.3 8.4-11.7l.1-23.1c0-1.5 1.1-3 3-4.1l53.5-31c5.3-3 8.4-7.2 8.4-11.6l.2-23.1c0-1.6 1-3 3-4.2l12.7-7.3-4-2.3z"/>
    <path fill="url(#w)" d="M123.7 914.2l4 2.3 32.9-18.9-4-2.3-32.9 18.9z"/>
    <path fill="url(#x)" d="M294 816c-3 1.6-4.6 4-4.6 6.4l-.1 23.1c0 3.5-2.6 6.9-6.8 9.4l-130.7 75.5 4 2.3 130.7-75.5c5.3-3 8.3-7.3 8.4-11.7l.1-23.1c0-1.6 1-3 3-4.2l85.6-49.4-4-2.3z"/>
    <path fill="url(#y)" d="M264.2 930l4 2.3L288 921a33.7 33.7 0 0 1 16.2-3.9h40a23 23 0 0 0 11-2.6l81-46.8a33.4 33.4 0 0 1 16.2-3.9h40a23 23 0 0 0 11.1-2.6l19.6-11.3-4-2.3-19.6 11.3a14.8 14.8 0 0 1-7 1.7h-40c-7.6 0-15 1.7-20.3 4.8l-81 46.8a14.7 14.7 0 0 1-7 1.7h-40c-7.5 0-14.9 1.7-20.2 4.8z"/>
    <path fill="url(#z)" d="M239.9 911.8c-5.3 3-8.4 7.3-8.4 11.7l-.2 23.1c0 1.5-1 3-3 4.1l-21 12 4 2.2 21-11.9c3-1.7 4.7-4 4.7-6.4l.1-23.1c0-3.5 2.5-7 6.8-9.4l27.6-16a33.4 33.4 0 0 1 16.2-3.9h40a23 23 0 0 0 11-2.6L390 862c3-1.7 4.6-4 4.6-6.4l.2-23.2c0-3.5 2.4-6.9 6.7-9.3l37.9-22-4-2.2-37.9 21.9c-5.3 3-8.4 7.3-8.4 11.6l-.1 23.2c0 1.5-1.1 3-3 4.1l-51.2 29.6a14.8 14.8 0 0 1-7.1 1.7h-40c-7.5 0-14.9 1.7-20.2 4.8z"/>
    <path fill="url(#A)" d="M235.2 978.5l4 2.3 57-32.4a14.6 14.6 0 0 1 7.1-1.7h40c7.5 0 14.9-1.7 20.2-4.8l105.6-61-4-2.2-105.6 60.9a33.3 33.3 0 0 1-16.2 3.9h-40a23 23 0 0 0-11 2.6z"/>
    <path fill="url(#B)" d="M264.3 994.5l5.1 1.8 59-34.1-4-2.3-60.1 34.6z"/>
  </g>
  <path fill="url(#C)" d="M423.9 837.8l4 2.3 39.4-22.7-4-2.3-39.4 22.7z"/>
  <path fill="url(#D)" d="M180.1 946.7l3.9 2.3 24.6-14.2-3.9-2.3-24.6 14.2z"/>
  <path fill="url(#c)" d="M140.1 857.3l141.8-80.8 139.9 81.7-139.9 78.6-141.8-79.5z"/>
  <path fill="url(#b)" d="M281.9 776.5v17.7L155.6 866l-15.5-8.7 141.8-80.8z"/>
  <path fill="url(#E)" d="M421.8 858.2l-139.9-81.7v17.7L408 866l13.8-7.8z"/>
  <path fill="url(#F)" d="M498.1 971l-.1 163.3-140.2 81.1 1-160.4 139.3-84z"/>
  <path fill="url(#G)" d="M498 1134.3l-15.4-8.8.2-145.2 15.3-9.3-.1 163.3z"/>
  <path fill="url(#H)" d="M357.8 1215.4l140.2-81.1-15.4-8.8-124.7 74-.1 15.9z"/>
  <g mask="url(#I)">
    <path fill="#646768" d="M309.3 914.8l-5 4.8a.7.7 0 0 1-.2.1l8.2-4.8a.8.8 0 0 0 .1 0l5.1-4.9zM316 933.3a.8.8 0 0 1-.3.3l8.2-4.8a.7.7 0 0 0 .3-.3l3.8-6.5-8.2 4.8zM328.7 944.9a.8.8 0 0 1-.4.5l8.2-4.9a.8.8 0 0 0 .4-.4l2.3-8-8.2 4.7zM341.8 954a1 1 0 0 1-.4.7l8.2-4.8a1 1 0 0 0 .4-.8l.8-9.2-8.2 4.8zM278.5 814.4l-8.2 4.8a.7.7 0 0 1 .2-.1l10.8-2.3 8.2-4.8-10.8 2.3a.7.7 0 0 0-.2 0zM270 834.2l9.3-5.3 8.2-4.8-9.3 5.3-8.2 4.8zM354.2 950l.7 10.1a1 1 0 0 1-.4 1.1l8.2-4.8a1 1 0 0 0 .4-1l-.7-10.2zM281.2 801l-8.2 4.8a.7.7 0 0 1 .4 0l12 .8 8.3-4.8-12-.9a.8.8 0 0 0-.5.1zM373.5 947.9l-8.2 4.8 2.3 10.7c.1.7 0 1.1-.4 1.3l8.3-4.8c.3-.2.5-.6.3-1.3zM384 947.8l-8.3 4.8 3.7 10.9c.3.8.2 1.4-.2 1.6l8.2-4.8c.4-.2.5-.8.2-1.7zM286.3 789.9l-8.2 4.8a.8.8 0 0 1 .6 0l12.8 3.9 8.2-4.8-12.8-4a.8.8 0 0 0-.6 0zM419 929.3v-.1L411 921l-8.2 4.8 7.8 8 .1.2a3.4 3.4 0 0 1 .6.8c.3.8.3 1.6-.2 2l-4.2-5.6-8.2 4.8 7 9.3a3.4 3.4 0 0 1 .5.7 1.6 1.6 0 0 1-.1 1.9l-5.3-8.7-8.2 4.8.5.8-8.3 4.8 5 10.7h.1c.4 1 .3 1.8-.2 2l8.3-4.8c.4-.2.5-1 .1-2l-5-10.7 5.7 9.4a4.1 4.1 0 0 1 .2.4c.4 1 .3 1.7-.2 2l8.3-4.8c.4-.3.5-1.1.1-2a3.6 3.6 0 0 0-.2-.4l-.9-1.5 8.2-4.8c.4-.2.5-1 .1-1.9a3.4 3.4 0 0 0-.4-.7l-2.9-3.7 8.2-4.8c.5-.3.5-1.1.2-2a3.3 3.3 0 0 0-.6-.8zM421.8 916a3 3 0 0 0-.4-.4l-8.3-6.6-8.2 4.8 8.3 6.6a2.9 2.9 0 0 1 .4.4 3.3 3.3 0 0 1 .5.8c.3.8.3 1.7-.2 2l8.2-4.9c.5-.3.6-1.1.2-2a3.3 3.3 0 0 0-.5-.7z"/>
    <path fill="#646768" d="M374.9 827.9l7-4a3.2 3.2 0 0 1 .3.5 2.8 2.8 0 0 1 .3.9l1.7 16 6.3-3a1 1 0 0 1 .9.2 2.6 2.6 0 0 1 .6.5 3.4 3.4 0 0 1 .5.9 2.6 2.6 0 0 1 .3 1l-.7 14.9 7.2-1a1.1 1.1 0 0 1 .7.2 2.5 2.5 0 0 1 .6.5 3.5 3.5 0 0 1 .6.9 2.3 2.3 0 0 1 .2 1.4l-3 13 7.8 1a1.4 1.4 0 0 1 .5.2 2.3 2.3 0 0 1 .6.5 3.3 3.3 0 0 1 .5.9 2 2 0 0 1 .1 1.6l-5.3 10.8 8.3 3a3.1 3.1 0 0 1 .8.7 3.6 3.6 0 0 1 .6.9 1.6 1.6 0 0 1 0 1.7l-7.5 8.2 8.5 4.9a2.5 2.5 0 0 1 .6.5 3.2 3.2 0 0 1 .5.8c.3.8.3 1.7-.2 2l8.2-4.8c.6-.3.6-1.2.2-2a3.2 3.2 0 0 0-.5-.8 2.5 2.5 0 0 0-.6-.5l-8.4-5 7.4-8.1a1.6 1.6 0 0 0 0-1.7 3.6 3.6 0 0 0-.6-1 3.2 3.2 0 0 0-.8-.6l-8.3-3 5.4-10.8a2 2 0 0 0-.1-1.6 3.4 3.4 0 0 0-.6-1 2.5 2.5 0 0 0-.6-.4 1.4 1.4 0 0 0-.5-.2l-7.9-1 3-13a2.3 2.3 0 0 0-.1-1.4 3.4 3.4 0 0 0-.6-.9 2.4 2.4 0 0 0-.6-.5 1.1 1.1 0 0 0-.7-.2l-7.2 1 .7-14.8a2.5 2.5 0 0 0-.2-1.1 3.4 3.4 0 0 0-.6-.9 2.6 2.6 0 0 0-.6-.5 1 1 0 0 0-1-.1l-6.2 3-1.7-16.1a2.8 2.8 0 0 0-.3-.9 3.4 3.4 0 0 0-.5-.8 2.5 2.5 0 0 0-.6-.5 1 1 0 0 0-1-.1l-5.6 3.3-3.7-15.2a3.3 3.3 0 0 0-.2-.5 3.2 3.2 0 0 0-.5-.8 2.5 2.5 0 0 0-.6-.6 1 1 0 0 0-1 0l-5.4 3.1-5-13.3v-.2a3.3 3.3 0 0 0-.6-.8 2.5 2.5 0 0 0-.6-.5 1 1 0 0 0-1-.1l-5.4 3.1-5.6-11.1a3.5 3.5 0 0 0-.5-.7 2.5 2.5 0 0 0-.6-.5 1 1 0 0 0-1-.1l-5.5 3.2-5.7-8.8a3.7 3.7 0 0 0-.3-.4 2.5 2.5 0 0 0-.6-.5 1 1 0 0 0-1 0l-6 3.4-5-6.3-.1-.1a2.5 2.5 0 0 0-.6-.5 1 1 0 0 0-1-.1l-6.6 3.8-4.4-4.1a1 1 0 0 0-1-.1l-7.5 4.4-2.2-1.6a1 1 0 0 0-1-.1l-8.2 4.8a1 1 0 0 1 1 0l6.7 5-7.6-4a1 1 0 0 0-1 0l-8.2 4.8a1 1 0 0 1 1 0l13 7 7.4-4.4 1.9 1.5 6.5-3.9 3.9 3.7 6-3.5 5.1 6.2 6-3.4 5.6 8.7 6-3.4 5.6 11.3 6.1-3.6 5.1 13.6 6.6-3.8z"/>
    <path fill="url(#e)" d="M413.3 905.2l-8.5-5 7.5-8.1c.6-.7 0-2.6-1.4-3.3l-8.3-3L408 875c.5-.9-.3-2.5-1.2-3a1.4 1.4 0 0 0-.5-.2l-7.9-1 3-13a3 3 0 0 0-1.3-2.8 1.1 1.1 0 0 0-.7-.2l-7.2 1 .7-14.8a3 3 0 0 0-1.4-2.5 1 1 0 0 0-1-.1l-6.2 3-1.7-16.1a3 3 0 0 0-1.4-2.2.9.9 0 0 0-1.1 0l-5.1 4.8-4.1-16.8a3 3 0 0 0-1.4-1.9c-.4-.2-1-.2-1.2.2l-3.8 6.5-6.3-16.9a3 3 0 0 0-1.2-1.5c-.6-.4-1.2-.3-1.4.4l-2.3 8-8.3-16.5a2.9 2.9 0 0 0-1-1.2c-.8-.4-1.4-.3-1.5.6l-.8 9.2-10-15.5a2.7 2.7 0 0 0-1-.9c-.7-.4-1.4-.1-1.3 1l.7 10.1-11.4-14a2.5 2.5 0 0 0-.7-.6c-.8-.5-1.6 0-1.3 1.3l2.3 10.6-12.9-12.3c-1-.6-1.7.2-1.2 1.6l3.7 10.9-13.2-9.8c-1-.7-1.8.4-1 2l5 10.6-13.1-6.9c-1.3-.6-1.8.8-1 2.3l6.3 10.2-12.8-4c-1.2-.3-1.4 1.4-.4 2.7l7.1 9.3-12-.8c-1.1-.1-1 1.8 0 3l8 8-11 2.3c-1 .2-.6 2.2.6 3.2l8.3 6.6-9.3 5.3c-1 .5-.3 2.6 1 3.3l8.4 5-7.5 8.1c-.6.7 0 2.6 1.4 3.3l8.3 3-5.4 10.8c-.4.9.4 2.5 1.3 3a1.4 1.4 0 0 0 .5.2l7.9 1-3 13a3 3 0 0 0 1.3 2.8 1.1 1.1 0 0 0 .7.2l7.2-1-.7 14.8a3 3 0 0 0 1.4 2.5 1 1 0 0 0 1 .1l6.2-3 1.7 16.2a3 3 0 0 0 1.4 2.1.9.9 0 0 0 1.1 0l5.1-4.8 4.1 16.8a3 3 0 0 0 1.4 1.9c.4.3 1 .3 1.2-.2l3.8-6.5 6.3 17a3 3 0 0 0 1.2 1.4c.6.4 1.2.3 1.4-.3l2.3-8 8.3 16.5a2.8 2.8 0 0 0 1 1.2c.7.3 1.4.2 1.5-.7l.8-9.2 10 15.5a2.7 2.7 0 0 0 1 .9c.7.4 1.4.1 1.3-1l-.7-10 11.4 14a2.5 2.5 0 0 0 .7.5c.8.5 1.6 0 1.3-1.2l-2.3-10.7 12.4 12a2.6 2.6 0 0 0 .5.4c1 .5 1.7-.3 1.2-1.6l-3.7-11 13.2 9.8c1 .7 1.8-.4 1-1.9l-5-10.7 13.1 6.9c1.3.6 1.8-.8 1-2.3l-6.3-10.2 12.8 4c1.2.4 1.4-1.3.4-2.7l-7.1-9.3 12 .9c1.1 0 1-1.8 0-3l-8-8.1 11-2.3c1-.2.6-2.2-.6-3.2l-8.3-6.6 9.3-5.3c.9-.5.3-2.6-1-3.3z"/>
    <path fill="#646768" d="M378.9 882.9a1 1 0 0 0-.1-.2.8.8 0 0 0-.2-.2l-7.3-6.4 6.2-3.6v-.6a1.1 1.1 0 0 0-.1-.3 1 1 0 0 0-.3-.2l-10.1-5.2 6.4-5.3c.2-.1.2-.4.1-.6a1 1 0 0 0-.2-.2.6.6 0 0 0-.1-.2.4.4 0 0 0-.2 0l-9.5-1.3 3.7-8.7a.5.5 0 0 0 0-.6 1.1 1.1 0 0 0-.2-.2.8.8 0 0 0-.1-.2.3.3 0 0 0-.3 0l-7.9 2.9.6-11.4a.7.7 0 0 0 0-.4 1 1 0 0 0-.2-.2.8.8 0 0 0-.2-.2.3.3 0 0 0-.3 0l-6.2 3.6-1.9-9.7a.8.8 0 0 0 0-.2.9.9 0 0 0-.2-.3.7.7 0 0 0-.2-.1.3.3 0 0 0-.3 0l-5.6 3.2-2.6-6.2v-.2a1 1 0 0 0-.1-.2.7.7 0 0 0-.2-.1.3.3 0 0 0-.3 0l-5.6 3.2-1.8-2.8a1.2 1.2 0 0 0-.1-.2.6.6 0 0 0-.2-.2.3.3 0 0 0-.3 0l-6.2 3.6h-.1l-8.3 4.8v.6a1 1 0 0 0 0 .1l1.5 3-5.5 3.2c-.2.1-.2.3 0 .6a1 1 0 0 0 0 .2l4 5.3-5.5 3.3v.6a.8.8 0 0 0 .1.2.7.7 0 0 0 .2.1l7.3 6.5-.3.1-5.9 3.5c-.2 0-.1.3 0 .6a1 1 0 0 0 .1.2.8.8 0 0 0 .2.2l10.2 5.2-6.4 5.4c-.2 0-.2.3-.1.5a1 1 0 0 0 .2.3.6.6 0 0 0 .1.1.4.4 0 0 0 .2.1l9.5 1.2-3.7 8.8a.5.5 0 0 0 0 .5 1 1 0 0 0 .2.3.7.7 0 0 0 .1.1.3.3 0 0 0 .3 0l7.9-2.8 8.2-4.8-7.9 2.8a.3.3 0 0 1-.3 0 .7.7 0 0 1-.1-.1 1 1 0 0 1-.2-.3.5.5 0 0 1 0-.5l3.3-8a20.5 20.5 0 0 0 2.2 3.2 15.3 15.3 0 0 0 3.8 3.2c2.4 1.4 4.5 1.5 6 .6l8.3-4.8c-1.6.9-3.7.8-6.1-.6a15.3 15.3 0 0 1-3.8-3.2 20.8 20.8 0 0 1-3.3-5.3 16.3 16.3 0 0 1-1.5-6.4c0-2.8 1-4.7 2.5-5.6l-8.2 4.8c-1.5 1-2.5 2.9-2.5 5.6a16.3 16.3 0 0 0 1.5 6.5l.6 1.1-8.5-1.1a.4.4 0 0 1-.3 0 .7.7 0 0 1-.1-.2 1 1 0 0 1-.2-.3v-.5l6.5-5.4-7.9-4 6.1-3.6-4.7-4.1 4.7-2.8-2.3-3 4.2-2.5-.4-.7.5.8 4.2-2.5 1.5 3.6 4.7-2.7 1.2 6.2 6.2-3.6-.5 9 7.8-2.9a.3.3 0 0 1 .3 0 .7.7 0 0 1 .2.2 1 1 0 0 1 .2.3.5.5 0 0 1 0 .5l-3.7 8.7 9.4 1.3a.4.4 0 0 1 .3 0 .6.6 0 0 1 .1.2 1 1 0 0 1 .2.2v.6l-6.5 5.3 7.9 4.1-6.1 3.6 4.7 4-4.7 2.8 2.3 3-4.2 2.5.6 1.2-.6.3-.1-1.5-7 4.1 1.3-5.3-4.7 2.8-1.2-6.2-8.3 4.8-3.6 4.4-2.6 1.5a.7.7 0 0 0 0 .4 1 1 0 0 0 .2.3.8.8 0 0 0 .2.1.3.3 0 0 0 .3 0l6.2-3.6 1.9 9.7 1.1-.6-1.1.6a.9.9 0 0 0 .2.5.8.8 0 0 0 .2.2.3.3 0 0 0 .3 0l8.2-4.8a.3.3 0 0 0 .1-.2l.2-.8.4 8.4-.8.4a.7.7 0 0 0 0 .1 1 1 0 0 0 .2.2.7.7 0 0 0 .2.2.3.3 0 0 0 .3 0l7-4.1 1 3.3-.6.4a1.1 1.1 0 0 0 .1.2.6.6 0 0 0 .2.1.3.3 0 0 0 .3 0l6.2-3.6h.1l8.2-4.8c.2 0 .2-.3.1-.5a1 1 0 0 0 0-.2l-1.5-2.9 5.5-3.2c.2-.1.2-.4 0-.6a1 1 0 0 0 0-.3.2.2 0 0 0-.1 0l-4-5.3 5.6-3.2v-.6z"/>
    <path fill="url(#J)" d="M370.4 887.3l-9.8-8.6 8.5-1.4c.5 0 .3-.8-.2-1l-10.1-5.3 6.4-5.3c.3-.1 0-.8-.2-1a.4.4 0 0 0-.3 0l-9.4-1.3 3.7-8.7c.2-.3 0-.8-.4-1a.3.3 0 0 0-.3 0l-7.8 2.9.6-11.4a.9.9 0 0 0-.4-.8h-.4l-5.5 6.8-2.5-12.9a.9.9 0 0 0-.4-.6c-.2-.1-.4-.1-.4.2l-2.6 9.8-5.5-13a.9.9 0 0 0-.3-.5c-.3-.2-.5 0-.4.3l.5 12-7.8-12a.8.8 0 0 0-.3-.3c-.3-.1-.6 0-.4.5l3.7 13.1-9.5-9.7a.8.8 0 0 0-.2-.2c-.3-.2-.5.1-.2.6l6.4 12.8-10.3-6.6c-.4-.2-.5.4-.1.8l8.5 11.3-9.8-2.7c-.5-.2-.5.6 0 1l9.8 8.6-8.6 1.4c-.4 0-.2.7.3 1l10.1 5.2-6.4 5.4c-.4 0-.1.7.2 1a.4.4 0 0 0 .2 0l9.5 1.2-3.7 8.8c-.2.3 0 .8.3 1a.3.3 0 0 0 .3 0l7.9-3-.6 11.4a.9.9 0 0 0 .4.8h.3l5.5-6.7 2.6 12.8a.9.9 0 0 0 .4.7c.2 0 .4 0 .4-.2l2.6-9.9 5.4 13a.9.9 0 0 0 .4.6c.3.1.5 0 .4-.4l-.5-12 7.8 12a.8.8 0 0 0 .3.3c.3.2.5 0 .3-.5l-3.6-13 9.4 9.7a.8.8 0 0 0 .2.2c.4.2.6-.2.3-.7l-6.4-12.8 10.2 6.7c.4.2.6-.4.2-.9l-8.5-11.3 9.8 2.8c.5.2.5-.6 0-1zm-28.3-6a19 19 0 0 1-8.6-15c0-5.4 3.9-7.6 8.6-4.9a19 19 0 0 1 8.6 15c0 5.4-3.9 7.6-8.6 4.9"/>
    <path fill="#646768" d="M240.6 838.3a7.2 7.2 0 0 1-1.8-1.5 9.9 9.9 0 0 1-1.6-2.5 7.8 7.8 0 0 1-.7-3 2.9 2.9 0 0 1 1.2-2.6l-3.2 1.8a2.9 2.9 0 0 0-1.2 2.6 7.7 7.7 0 0 0 .7 3.1 9.9 9.9 0 0 0 1.6 2.5 7.2 7.2 0 0 0 1.8 1.5 2.9 2.9 0 0 0 2.9.3l3.1-1.9a2.9 2.9 0 0 1-2.8-.3zM218 807.5l3-1.9-4.8-1.5a.3.3 0 0 0-.3 0l-3.1 1.9a.3.3 0 0 1 .2 0zM259 867.9l-2-4.1-3.1 1.8 2 4.2c.1.3 0 .6-.1.7l3.1-1.8c.2-.1.3-.4.1-.8z"/>
    <path fill="#646768" d="M240.5 856.1a6.8 6.8 0 0 1-1.7-1.4 9.3 9.3 0 0 1-1.4-2.3 7.3 7.3 0 0 1-.7-3 2.8 2.8 0 0 1 1-2.3c5.3 3 9.6.4 9.6-5.8a22 22 0 0 0-9.9-17.3c-5.3-3-9.7-.7-9.9 5.3a2.8 2.8 0 0 1-2.6-.3 6.8 6.8 0 0 1-1.6-1.4 9.3 9.3 0 0 1-1.5-2.4 7.3 7.3 0 0 1-.7-2.9 2.7 2.7 0 0 1 1.1-2.4l-3.1 1.8a2.7 2.7 0 0 0-1.1 2.5 7.3 7.3 0 0 0 .6 2.9 9.2 9.2 0 0 0 1.5 2.3 6.8 6.8 0 0 0 1.7 1.4 2.7 2.7 0 0 0 2.7.3l3-1.8v.4a22 22 0 0 0 9.9 17.3l.3.1-3 1.8a2.7 2.7 0 0 0-1.2 2.4 7.3 7.3 0 0 0 .7 3 9.2 9.2 0 0 0 1.5 2.3 6.8 6.8 0 0 0 1.6 1.4 2.7 2.7 0 0 0 2.8.2l3.1-1.8a2.7 2.7 0 0 1-2.7-.3zm-12-25.8c0-5.7 4-8 9-5.1 4.9 2.8 8.8 9.8 8.8 15.5 0 5.7-4 8-9 5.1-4.9-2.9-8.8-9.8-8.8-15.5zM258.9 847.4a2.7 2.7 0 0 1-2.7-.3 6.7 6.7 0 0 1-1.7-1.4 9.2 9.2 0 0 1-1.5-2.3 7.3 7.3 0 0 1-.6-2.9 2.7 2.7 0 0 1 1-2.5l-3 1.9a2.7 2.7 0 0 0-1.2 2.5 7.3 7.3 0 0 0 .7 2.8 9.3 9.3 0 0 0 1.4 2.4 6.8 6.8 0 0 0 1.7 1.4 2.7 2.7 0 0 0 2.7.2z"/>
    <path fill="#646768" d="M229.5 844.4a6.8 6.8 0 0 1-1.7-1.4 9 9 0 0 1-1-1.5 9.2 9.2 0 0 1-.5-.8c-1-2.4-.8-4.6.5-5.4l-3.2 1.9c-1.3.7-1.4 3-.4 5.3a9.4 9.4 0 0 0 .4.9 9.2 9.2 0 0 0 1 1.4 6.8 6.8 0 0 0 1.7 1.5 2.7 2.7 0 0 0 2.7.2l3.2-1.8a2.7 2.7 0 0 1-2.7-.3zM251.6 857.2a6.8 6.8 0 0 1-1.7-1.4 9.1 9.1 0 0 1-1-1.4 9.7 9.7 0 0 1-.5-.9c-1-2.3-.8-4.6.5-5.4l-3.2 1.9c-1.3.8-1.5 3-.4 5.3a9.3 9.3 0 0 0 .4 1 9 9 0 0 0 1 1.4 6.8 6.8 0 0 0 1.7 1.4 2.7 2.7 0 0 0 2.7.3l3.2-1.9a2.7 2.7 0 0 1-2.7-.3zM223.7 817.8a9.1 9.1 0 0 0 1 1.5 6.8 6.8 0 0 0 1.7 1.4 2.7 2.7 0 0 0 2.7.3l3.1-1.9a2.7 2.7 0 0 1-2.7-.2 6.8 6.8 0 0 1-1.6-1.5 9 9 0 0 1-1-1.4 9.4 9.4 0 0 1-.5-.9c-1-2.3-.9-4.6.5-5.3l-3.2 1.8c-1.3.8-1.5 3-.5 5.4a9.2 9.2 0 0 0 .5.8zM235.8 820.4a6.8 6.8 0 0 0 1.6 1.4 2.7 2.7 0 0 0 2.8.3l3.1-1.8a2.7 2.7 0 0 1-2.7-.3 6.8 6.8 0 0 1-1.7-1.4 9.2 9.2 0 0 1-1.4-2.4 7.3 7.3 0 0 1-.7-2.8 2.7 2.7 0 0 1 1.1-2.5l-3.1 1.8a2.7 2.7 0 0 0-1.2 2.5 7.3 7.3 0 0 0 .7 2.9 9.3 9.3 0 0 0 1.5 2.3zM245.8 830.7a9.1 9.1 0 0 0 1 1.4 6.8 6.8 0 0 0 1.7 1.4 2.7 2.7 0 0 0 2.7.3l3.1-1.8a2.7 2.7 0 0 1-2.7-.3 6.8 6.8 0 0 1-1.6-1.4 9.2 9.2 0 0 1-1-1.5 9.6 9.6 0 0 1-.5-.9c-1-2.3-.9-4.5.5-5.3l-3.2 1.8c-1.3.8-1.5 3-.5 5.4a9.3 9.3 0 0 0 .5.9z"/>
    <path fill="#646768" d="M268 852.7a1.2 1.2 0 0 0 0-.2l-3.3-2.5-.6.3.1-.4v-1.7l.6.3a1 1 0 0 1 .2.2 1.3 1.3 0 0 1 .2.3c.2.3.2.7 0 .8l3.1-1.9c.2 0 .2-.4 0-.7a1.3 1.3 0 0 0-.1-.3 1 1 0 0 0-.2-.2l-3.3-2 2.9-3a.6.6 0 0 0 0-.7 1.3 1.3 0 0 0-.2-.4 1.2 1.2 0 0 0-.4-.3l-3.1-1.1 2-4.2a.8.8 0 0 0 0-.6 1.3 1.3 0 0 0-.2-.3 1 1 0 0 0-.3-.2.5.5 0 0 0-.2 0l-3-.5 1.2-5a.9.9 0 0 0-.1-.5 1.3 1.3 0 0 0-.2-.4 1 1 0 0 0-.2-.2.4.4 0 0 0-.3 0l-2.8.3.3-5.6a1 1 0 0 0-.1-.5 1.3 1.3 0 0 0-.2-.3 1 1 0 0 0-.3-.2.4.4 0 0 0-.3 0l-2.4 1-.7-6.1a1.1 1.1 0 0 0 0-.3 1.3 1.3 0 0 0-.3-.3 1 1 0 0 0-.2-.2.4.4 0 0 0-.4 0l-2.2 1.2-1.4-5.8a1.2 1.2 0 0 0 0-.2 1.2 1.2 0 0 0-.3-.4 1 1 0 0 0-.2-.2.4.4 0 0 0-.4 0l-2 1.2-2-5.1a1.3 1.3 0 0 0-.2-.4 1 1 0 0 0-.2-.2.4.4 0 0 0-.4 0l-2.1 1.2-2.2-4.3a1.3 1.3 0 0 0-.1-.3 1 1 0 0 0-.3-.2.4.4 0 0 0-.4 0l-2.1 1.2-2.2-3.4a1.3 1.3 0 0 0-.1-.1 1 1 0 0 0-.2-.2.4.4 0 0 0-.4 0l-2.3 1.3-2-2.4a1 1 0 0 0-.2-.3.4.4 0 0 0-.4 0l-2.5 1.5-1.7-1.6a.4.4 0 0 0-.4 0l-2.9 1.6-.8-.6a.4.4 0 0 0-.4 0l-3.2 1.8a.4.4 0 0 1 .4 0l2.6 2-3-1.6a.4.4 0 0 0-.3 0l-3.2 1.9a.4.4 0 0 1 .4 0l5 2.6 2.8-1.6.7.5-3 1.7-3 2-.5.8-3.8-.3a.3.3 0 0 0-.1 0l-3.2 1.9a.3.3 0 0 1 .2 0l4.6.3 1.5-1-1 1.3-.8 2.2-2.3.4-3.2 2a.3.3 0 0 1 0-.1l4.2-.9.9-.5-.3.7-.8 4-1 .7-3.2 1.8 3.6-2 .6-.4v5.4l.7 5.5 1.6 5.7 2.3 5.6 3 5.5 3.4 5 .4.5-.4.2-2 1.9 2.8-1.6 3.2 3.6.4.5-.4.2-1.4 2.5a.3.3 0 0 1-.1.1l3-1.8 2.7 2.4.6.4-.5.3-.9 3a.3.3 0 0 1-.1.3l3.2-1.9a.3.3 0 0 0 0-.2l.2-.2 1.8 1.3.9.4-.6.3-.3 3.6a.3.3 0 0 1-.2.2l3.2-1.8a.4.4 0 0 0 .1-.3l.1-1 1.2.6 1.1.3-.8.5.3 3.9a.4.4 0 0 1-.1.4l3.1-1.9a.4.4 0 0 0 .2-.4l-.1-1.8.5.1h1.6l-1.2.7 1 4.1c0 .3 0 .4-.2.5l3.1-1.8c.2-.1.2-.3.2-.6l-.6-2.9 3.1-.9-2.6 1.5 1.5 4.2-.1.7 3.1-1.9c.2 0 .2-.3.1-.6l-1.4-4.1 3-1.8 3-2 .2-.2 2.3 3a1.3 1.3 0 0 1 .1.3.6.6 0 0 1 0 .7l-2-3.3-3.2 1.8 2.4 4c.2.4.2.7 0 .8l3.1-1.8c.2-.1.3-.4.1-.8a1.4 1.4 0 0 0 0-.1l-.4-.6 3.1-1.8c.2-.2.2-.5 0-.8a1.3 1.3 0 0 0 0-.3l-1.2-1.4 3.2-1.8c.1-.2.2-.5 0-.8a1.2 1.2 0 0 0-.2-.3l-3-3.2-.9.5.3-.7.2-1 1.2 1a1.1 1.1 0 0 1 .1.1 1.3 1.3 0 0 1 .2.3c.1.3.1.7 0 .8l3.1-1.9c.2 0 .2-.4 0-.7a1.3 1.3 0 0 0-.1-.3zm-4.1-10.5a1.2 1.2 0 0 1 .3.3 1.4 1.4 0 0 1 .2.3.6.6 0 0 1 0 .7l-.3.3-.3-1.6zm-1.2-6a.8.8 0 0 1 0 .7l-.2-1a1.3 1.3 0 0 1 .2.4zm-25.5-29l2.3-1.3 2.2 4.4 2.3-1.4 2 5.3 2.5-1.5 1.5 6 2.7-1.5a1.2 1.2 0 0 1 .1.2 1.1 1.1 0 0 1 .1.3l-3 1.7-3.8-4.5-4.3-3.9-4.3-3-4.4-2-4.2-1.1 2.4-1.4 1.5 1.7 2.2-1.3zm-6.4-4.4l.2.2h-.5zM225 804l2-1.1.4.4zm20.3 61v-1l-1.3.7a21 21 0 0 1-3.4-1.1l.2-1.6-1.7 1a29 29 0 0 1-3.4-2l.6-2-1.9 1a40 40 0 0 1-3.6-3l1.2-2-2 1.3a48.7 48.7 0 0 1-3.8-4.2l1.8-1.6-2.1 1.2a50 50 0 0 1-11.3-29.4 26.9 26.9 0 0 1 .3-4l1.5-.9-1.5.9a19 19 0 0 1 1.5-5l.8-.5h-.7c3.6-7.2 11.6-9 21-3.6a50.6 50.6 0 0 1 22.7 39.6c0 11.4-6.2 17.4-15 16.1zm18.5-5.3a1.3 1.3 0 0 1 .3.4v.7l-1.7-2.1-1.5.8 1-1.2.1-.5z"/>
    <path fill="url(#K)" d="M237.4 825.2c-4.9-2.9-9-.6-9 5.1 0 5.7 4 12.6 9 15.5 5 2.9 9 .6 9-5.1 0-5.7-4-12.7-9-15.5zm0 15a9 9 0 0 1-4-7c0-2.7 1.8-3.7 4-2.4a9 9 0 0 1 4 7c0 2.6-1.8 3.7-4 2.4z"/>
    <path fill="url(#L)" d="M264.8 848.5l-3.2-1.9 2.8-3.1c.3-.3 0-1-.5-1.3l-3.2-1.2 2-4.1a1 1 0 0 0-.4-1.2.5.5 0 0 0-.2 0l-3-.4 1.1-5a1.1 1.1 0 0 0-.5-1.1.4.4 0 0 0-.3 0l-2.7.3.2-5.7a1.2 1.2 0 0 0-.5-1 .4.4 0 0 0-.4 0l-2.4 1.1-.7-6.1a1.2 1.2 0 0 0-.5-.9.3.3 0 0 0-.4 0l-2 1.9-1.6-6.5a1.2 1.2 0 0 0-.5-.7c-.2-.1-.3-.1-.4 0l-1.5 2.6-2.4-6.6a1.2 1.2 0 0 0-.5-.5c-.2-.2-.4-.1-.5.1l-1 3-3.1-6.3a1.1 1.1 0 0 0-.4-.4c-.3-.2-.5-.1-.6.2l-.3 3.6-3.8-6a1 1 0 0 0-.4-.3c-.3-.2-.6 0-.5.3l.3 4-4.4-5.5a1 1 0 0 0-.3-.2c-.3-.2-.6 0-.5.5l.9 4.1-5-4.8c-.4-.2-.6.1-.5.6l1.5 4.2-5.1-3.7c-.4-.3-.7.2-.4.7l2 4.1-5.1-2.6c-.5-.3-.7.3-.4.9l2.4 3.9-4.9-1.5c-.4-.2-.5.5-.1 1l2.7 3.6-4.6-.4c-.5 0-.4.7 0 1.2l3 3.1-4.2.9c-.3 0-.2.8.2 1.2l3.2 2.6-3.6 2c-.3.2 0 1 .4 1.3l3.3 1.9-2.9 3.1c-.3.3 0 1 .5 1.3l3.2 1.1-2 4.2a1 1 0 0 0 .4 1.1.5.5 0 0 0 .2.1l3 .4-1.1 5a1.1 1.1 0 0 0 .5 1 .4.4 0 0 0 .3.2l2.8-.4-.3 5.7a1.2 1.2 0 0 0 .5 1 .4.4 0 0 0 .4 0l2.4-1.2.7 6.2a1.2 1.2 0 0 0 .5.9.3.3 0 0 0 .4 0l2-1.9 1.6 6.5a1.2 1.2 0 0 0 .5.7h.5l1.4-2.6 2.5 6.5a1.1 1.1 0 0 0 .4.6c.2.2.5.1.5-.1l1-3.1 3.1 6.3a1.1 1.1 0 0 0 .4.5c.3.2.6 0 .6-.2l.3-3.6 3.9 6a1 1 0 0 0 .3.3c.3.2.6 0 .5-.3l-.3-4 4.4 5.5a1 1 0 0 0 .3.2c.3.2.6 0 .5-.5l-.9-4.1 5 4.7c.4.3.7 0 .5-.6l-1.5-4.2 5.1 3.8c.4.2.7-.2.4-.7l-2-4.2 5.1 2.7c.5.2.7-.3.4-.9l-2.4-3.9 4.9 1.5c.5.2.6-.5.2-1l-2.8-3.6 4.6.3c.5 0 .5-.7 0-1.1l-3-3.1 4.2-.9c.4 0 .2-.9-.2-1.2l-3.2-2.6 3.6-2c.3-.2 0-1-.4-1.3zm-3.7 3.3l-.9 4.5-1.6 3.8-2.3 3-3 2-3.5 1H246l-4.2-1-4.4-2.1-4.3-3-4.2-3.9-4-4.5-3.5-5.1-2.9-5.5-2.3-5.6-1.6-5.7-.8-5.4v-5l.9-4.6 1.6-3.8 2.3-3 3-2 3.5-1h3.9l4.2 1 4.4 2.1 4.3 3 4.3 3.9 3.9 4.5 3.5 5 3 5.5 2.2 5.7 1.6 5.6.8 5.5z"/>
    <path fill="url(#M)" d="M237.5 810.5c-12-7-21.7-1.3-21.7 12.4 0 13.8 9.6 30.7 21.5 37.6 12 6.9 21.7 1.3 21.7-12.5 0-13.7-9.6-30.6-21.5-37.5zm0 2.5a8.5 8.5 0 0 1 3.8 6.6c0 2.5-1.7 3.5-3.9 2.2a8.4 8.4 0 0 1-3.8-6.6c0-2.4 1.8-3.4 3.9-2.2zm-13.8-1.4a2.7 2.7 0 0 1 2.7.3 7.8 7.8 0 0 1 2.7 2.8c1.5 2.6 1.5 5.4 0 6.3a2.7 2.7 0 0 1-2.7-.3 7.8 7.8 0 0 1-2.7-2.9c-1.5-2.5-1.5-5.3 0-6.2zm-5.7 12.6c0-2.4 1.7-3.4 3.8-2.2a8.4 8.4 0 0 1 3.8 6.6c0 2.5-1.7 3.4-3.8 2.2a8.4 8.4 0 0 1-3.8-6.6zm11 22.3a2.7 2.7 0 0 1-2.7-.2 7.8 7.8 0 0 1-2.7-2.9c-1.5-2.6-1.5-5.4 0-6.2a2.7 2.7 0 0 1 2.7.2 7.8 7.8 0 0 1 2.7 2.9c1.5 2.6 1.5 5.4 0 6.2zm8.3 11.5a8.4 8.4 0 0 1-3.8-6.7c0-2.4 1.8-3.4 3.9-2.2a8.5 8.5 0 0 1 3.8 6.7c0 2.4-1.8 3.4-3.9 2.2zm0-11a22 22 0 0 1-9.8-17.3c0-6.3 4.5-8.9 10-5.7s9.8 11 9.8 17.3c0 6.3-4.5 8.8-10 5.7zm13.8 12.4a2.7 2.7 0 0 1-2.7-.3 7.8 7.8 0 0 1-2.7-2.9c-1.5-2.6-1.5-5.3 0-6.2a2.7 2.7 0 0 1 2.7.3 7.8 7.8 0 0 1 2.7 2.8c1.5 2.6 1.5 5.4 0 6.3zm5.7-12.6c0 2.4-1.7 3.4-3.8 2.2a8.4 8.4 0 0 1-3.8-6.6c0-2.5 1.7-3.5 3.8-2.2a8.4 8.4 0 0 1 3.8 6.6zm-11-22.4a2.7 2.7 0 0 1 2.7.3 7.8 7.8 0 0 1 2.7 2.9c1.5 2.6 1.5 5.4 0 6.2a2.7 2.7 0 0 1-2.7-.3 7.8 7.8 0 0 1-2.7-2.8c-1.5-2.6-1.5-5.4 0-6.3z"/>
    <path fill="#646768" d="M237.5 807.8a53 53 0 0 1 23.8 41.6c0 15.2-10.8 21.4-24 13.8a53 53 0 0 1-23.8-41.6c0-15.3 10.8-21.4 24-13.8zm-.2 52.1c11.7 6.8 21.2 1.3 21.2-12.1 0-13.5-9.4-30-21-36.8-11.7-6.7-21.2-1.3-21.2 12.2s9.4 30 21 36.7"/>
    <g style="isolation:isolate">
      <path fill="#646768" d="M175.7 1023.7l-4.1 3.9a.4.4 0 0 1-.2 0l8.3-4.8 4.2-4zM184.2 1033.4l-3 5.3a.6.6 0 0 1-.3.2l8.2-4.8a.6.6 0 0 0 .2-.2l3.1-5.3zM191.4 1048a.7.7 0 0 1-.3.5l8.2-4.9a.6.6 0 0 0 .3-.4l2-6.5-8.3 4.8zM202 1055.4a.7.7 0 0 1-.3.6l8.3-4.8a.7.7 0 0 0 .3-.6l.6-7.5-8.2 4.8zM152.2 941.2L144 946a.6.6 0 0 1 .1 0l8.8-2 8.3-4.8-8.8 1.9a.6.6 0 0 0-.2 0zM143.7 958.2l7.6-4.3 8.2-4.8-7.5 4.3-8.3 4.8zM212.1 1052.2l.6 8.3a.8.8 0 0 1-.3.8l8.2-4.8a.8.8 0 0 0 .3-.8l-.6-8.3zM154.4 930.3l-8.2 4.8a.6.6 0 0 1 .3 0l9.8.6 8.2-4.8-9.7-.6a.6.6 0 0 0-.4 0zM210.5 998.2a22.6 22.6 0 0 1-5.6-4.7 30.8 30.8 0 0 1-4.9-7.7 24.2 24.2 0 0 1-2.2-9.6c0-4 1.5-6.9 3.7-8.2l-8.2 4.8c-2.3 1.3-3.7 4.1-3.7 8.2a24.1 24.1 0 0 0 2.2 9.6 30.7 30.7 0 0 0 5 7.7 22.4 22.4 0 0 0 5.5 4.7c3.5 2 6.7 2.3 9 1l8.2-4.9c-2.3 1.4-5.5 1.2-9-.9z"/>
      <path fill="#646768" d="M268.6 1023.7a2.4 2.4 0 0 0-.3-.3l-6.7-5.3 7.5-4.4c.4-.2.4-1 .2-1.6a2.7 2.7 0 0 0-.5-.7 2 2 0 0 0-.5-.4l-6.8-4 6-6.6a1.3 1.3 0 0 0 0-1.4 2.8 2.8 0 0 0-.4-.7 2.6 2.6 0 0 0-.7-.6l-6.7-2.4 4.3-8.8a1.6 1.6 0 0 0 0-1.3 2.8 2.8 0 0 0-.5-.7 1.9 1.9 0 0 0-.5-.4 1.1 1.1 0 0 0-.4-.2l-6.4-.8 2.5-10.6a1.8 1.8 0 0 0-.2-1.1 2.8 2.8 0 0 0-.4-.7 2 2 0 0 0-.5-.4 1 1 0 0 0-.6-.2l-5.8.8.5-12a2 2 0 0 0-.2-1 2.8 2.8 0 0 0-.4-.6 2.2 2.2 0 0 0-.5-.4.8.8 0 0 0-.8-.1l-5 2.4-1.5-13a2.4 2.4 0 0 0-.2-.8 2.8 2.8 0 0 0-.4-.6 2.1 2.1 0 0 0-.5-.5.8.8 0 0 0-.8 0l-4.6 2.6-3-12.3a2.7 2.7 0 0 0-.1-.4 2.8 2.8 0 0 0-.4-.7 2.1 2.1 0 0 0-.6-.4.8.8 0 0 0-.7 0l-4.4 2.5-4-10.8-.1-.2a2.7 2.7 0 0 0-.5-.6 2 2 0 0 0-.5-.5.8.8 0 0 0-.8 0l-4.3 2.5-4.6-9a2.6 2.6 0 0 0-.4-.6 2 2 0 0 0-.5-.4.8.8 0 0 0-.8-.1l-4.5 2.6-4.6-7.1a2.5 2.5 0 0 0-.3-.3 2 2 0 0 0-.4-.4.8.8 0 0 0-.8-.1l-4.9 2.8-4.1-5.1-.1-.1a2 2 0 0 0-.5-.4.8.8 0 0 0-.8 0l-5.3 3-3.6-3.4a.8.8 0 0 0-.8 0l-6.1 3.6-1.8-1.3a.8.8 0 0 0-.7-.1l-8.3 4.8a.7.7 0 0 1 .6 0l-8 4.7a.8.8 0 0 1 .8 0l6.5 3.5-4.3-1.4a.7.7 0 0 0-.6 0l-8.2 4.9a.7.7 0 0 1 .5 0l10.4 3.1 8.2-4.8-.9-.3 5-2.8 1.5 1.1 5.3-3.1 3.2 3 5-2.9 4 5 4.8-2.7 4.6 7.1 4.8-2.8 4.6 9.2 5-3 4.2 11.1 5.3-3L229 953l5.6-3.3a2.5 2.5 0 0 1 .3.5 2.3 2.3 0 0 1 .2.7l1.4 13 5.1-2.3a.8.8 0 0 1 .8 0 2 2 0 0 1 .5.5 2.7 2.7 0 0 1 .4.7 2 2 0 0 1 .2.9l-.5 12 5.8-.8a1 1 0 0 1 .6.2 2 2 0 0 1 .5.4 2.8 2.8 0 0 1 .4.7 1.8 1.8 0 0 1 .2 1.1l-2.5 10.6 6.4.8a1 1 0 0 1 .4.2 1.9 1.9 0 0 1 .5.4 2.7 2.7 0 0 1 .4.7 1.6 1.6 0 0 1 .1 1.3l-4.3 8.8 6.7 2.4a2.6 2.6 0 0 1 .7.6 3 3 0 0 1 .4.7 1.3 1.3 0 0 1 0 1.4l-6 6.7 6.8 4a2 2 0 0 1 .5.3 2.7 2.7 0 0 1 .4.7 1.5 1.5 0 0 1 0 1.4l-7.6 4.5 6.3 5.1-8 4.8 4 4-7.4 4.3 2 2.5-6.9 4 .4.6-5.4 3.1-.6-1.7-7.5 4.4-.9-4.3-8.2 4.8 1.8 8.7c.2.6 0 1-.2 1l8.2-4.7a.6.6 0 0 0 .2-.4l1.4 4.2c.3.6.1 1.1-.2 1.3l8.2-4.8a.4.4 0 0 0 .1 0l.5 1c.4.8.3 1.4-.1 1.6l8.2-4.8a.7.7 0 0 0 .3-.5l7.1-4.2c.4-.2.5-.8.2-1.5a2.7 2.7 0 0 0-.2-.4l-.8-1.2 6.7-3.9c.3-.2.4-.8.1-1.5a2.7 2.7 0 0 0-.3-.6l-2.4-3 6.7-4c.3-.2.4-.8 0-1.5a2.7 2.7 0 0 0-.3-.7l-.1-.1-4.3-4.4 6.9-4c.4-.3.4-1 .1-1.7a2.6 2.6 0 0 0-.4-.6z"/>
      <path fill="url(#N)" d="M260 1028.2c1 .8 1.3 2.4.5 2.6l-8.8 1.9 6.4 6.5c.9 1 1 2.5 0 2.4l-9.8-.6 5.8 7.5c.9 1.1.7 2.5-.3 2.2l-10.4-3.2 5 8.2c.8 1.2.4 2.4-.7 1.9l-10.6-5.6 4.1 8.7c.6 1.2 0 2-.9 1.5l-10.7-7.9 3 8.9c.4 1-.2 1.7-1 1.3l-10.4-10.1 1.8 8.7c.2 1-.4 1.4-1 1a2 2 0 0 1-.6-.5l-9.3-11.4.6 8.3c0 .8-.5 1.1-1.1.7a2.2 2.2 0 0 1-.7-.7l-8.2-12.6-.6 7.5c-.1.7-.6.8-1.2.5a2.3 2.3 0 0 1-.8-1l-6.8-13.4-1.9 6.6c-.2.5-.6.5-1 .3a2.4 2.4 0 0 1-1-1.3l-5.2-13.7-3 5.3c-.3.3-.7.3-1 .1a2.5 2.5 0 0 1-1.2-1.5l-3.3-13.6-4.1 3.9a.7.7 0 0 1-1 0 2.5 2.5 0 0 1-1-1.8l-1.5-13-5 2.3a.8.8 0 0 1-.8 0 2.5 2.5 0 0 1-1.1-2l.5-12-5.8.7a1 1 0 0 1-.6-.2 2.4 2.4 0 0 1-1.1-2.2l2.4-10.6-6.3-.8a1 1 0 0 1-.4-.2 2.3 2.3 0 0 1-1-2.4l4.3-8.8-6.8-2.4c-1-.6-1.6-2.1-1-2.7l6-6.6-6.9-4c-1-.6-1.5-2.3-.8-2.7l7.6-4.3-6.7-5.4c-1-.8-1.3-2.4-.5-2.6l8.8-1.8-6.3-6.6c-1-1-1-2.5 0-2.4l9.7.6-5.8-7.5c-.9-1.1-.6-2.5.3-2.2l10.4 3.2-5-8.2c-.8-1.2-.3-2.4.7-1.9l10.6 5.6-4-8.7c-.6-1.2 0-2 .8-1.5l10.7 7.9-3-8.8c-.4-1.2.2-1.8 1-1.4l10.5 10.1-1.9-8.7c-.2-1 .4-1.4 1-1a2 2 0 0 1 .6.5l9.3 11.4-.6-8.3c0-.8.5-1.1 1.2-.7a2.2 2.2 0 0 1 .7.7l8.1 12.6.7-7.5c0-.7.6-.8 1.1-.5a2.3 2.3 0 0 1 .9 1l6.7 13.4 2-6.5c0-.6.6-.6 1-.4a2.4 2.4 0 0 1 1 1.3l5.2 13.7 3-5.3c.2-.3.6-.3 1-.1a2.5 2.5 0 0 1 1.1 1.5L229 953l4-3.9a.7.7 0 0 1 1 0 2.5 2.5 0 0 1 1.1 1.8l1.4 13 5.1-2.3a.8.8 0 0 1 .8 0 2.5 2.5 0 0 1 1 2l-.4 12.1 5.8-.8a1 1 0 0 1 .6.2 2.4 2.4 0 0 1 1 2.2l-2.4 10.6 6.4.8a1 1 0 0 1 .4.2 2.3 2.3 0 0 1 1 2.4l-4.3 8.8 6.7 2.4c1 .6 1.7 2.1 1.1 2.7l-6 6.7 6.8 4c1 .5 1.5 2.2.8 2.6l-7.5 4.3zm-57.7-25.2c7 4.1 12.7.8 12.7-7.3 0-8-5.6-18-12.6-22-7-4.1-12.8-.8-12.8 7.3 0 8 5.7 18 12.7 22"/>
    </g>
    <g style="isolation:isolate">
      <g style="isolation:isolate">
        <path fill="#646768" d="M390.6 1064.6l8.2-4.8a.7.7 0 0 1-.1 0l-8.3 4.9a.8.8 0 0 0 .2-.1" style="fill:#646768"/>
      </g>
      <g style="isolation:isolate">
        <path fill="#646768" d="M402.3 1078.3l8.3-4.8a.7.7 0 0 1-.3.2l-8.2 4.8a.7.7 0 0 0 .2-.2" style="fill:#646768"/>
      </g>
      <path fill="#646768" d="M395.7 1059.8l8.2-4.8-5.1 4.8-8.2 4.8 5.1-4.8z"/>
      <g style="isolation:isolate">
        <path fill="#646768" d="M415 1089.8l8.2-4.8a.8.8 0 0 1-.3.5l-8.2 4.8a.8.8 0 0 0 .3-.5" style="fill:#646768"/>
      </g>
      <path fill="#646768" d="M406.1 1071.7l8.2-4.8-3.7 6.6-8.3 4.8 3.8-6.6zM417.3 1081.8l8.3-4.8-2.4 8-8.2 4.8 2.3-8z"/>
      <g style="isolation:isolate">
        <path fill="#646768" d="M428.1 1098.9l8.2-4.8a1 1 0 0 1-.3.7l-8.3 4.8a1 1 0 0 0 .4-.7" style="fill:#646768"/>
      </g>
      <path fill="#646768" d="M428.9 1089.6l8.2-4.8-.8 9.3-8.2 4.8.8-9.3z"/>
      <g style="isolation:isolate">
        <path fill="#646768" d="M356.6 964.1l8.2-4.8a.7.7 0 0 1 .3 0l-8.3 4.8a.7.7 0 0 0-.2 0" style="fill:#646768"/>
      </g>
      <g style="isolation:isolate">
        <path fill="#646768" d="M441.3 1105.1l8.2-4.8a1 1 0 0 1-.4 1l-8.2 4.9a1 1 0 0 0 .4-1" style="fill:#646768"/>
      </g>
      <path fill="#646768" d="M356.3 979.2l8.2-4.8 9.3-5.3-8.2 4.8-9.3 5.3zM440.5 1095l8.2-4.8.8 10.1-8.2 4.8-.8-10.1z"/>
      <g style="isolation:isolate">
        <path fill="#646768" d="M359.4 950.8l8.2-4.8a.8.8 0 0 1 .4-.1l-8.2 4.8a.7.7 0 0 0-.4.1" style="fill:#646768"/>
      </g>
      <path fill="#646768" d="M356.8 964.1l8.3-4.8 10.8-2.3-8.2 4.8-10.9 2.3zM439.6 1093.1l8.2-4.8 11 2.7-8.2 4.9-11-2.8zM462.2 1103.5l-2.3-10.7-8.2 4.8 2.3 10.7c.1.7 0 1.2-.4 1.4l8.2-4.8c.4-.2.5-.7.4-1.4z"/>
      <path fill="#646768" d="M450.6 1095.9l8.2-4.9 10.2.1-8.2 4.8h-10.2zM359.8 950.7l8.2-4.8 12 .8-8.2 4.9-12-.9zM455 1078.9a57.9 57.9 0 0 1-18.5-7.2 94.6 94.6 0 0 1-18.4-14.2l-1.2-1.3a25.6 25.6 0 0 1-4.1-6.5c-1.8-4.2-2.4-8.5-1.3-11.7a5.9 5.9 0 0 1 2.5-3.2l-8.2 4.8a5.9 5.9 0 0 0-2.5 3.2c-1.1 3.2-.6 7.6 1.3 11.7a25.6 25.6 0 0 0 4 6.5l1.3 1.3a94.4 94.4 0 0 0 18.4 14.2 57.9 57.9 0 0 0 18.4 7.2 5.9 5.9 0 0 0 4.1-.6l8.2-4.8a5.8 5.8 0 0 1-4 .6zM474 1103.6l-3.7-10.9-8.2 4.8 3.7 10.9c.3.8.1 1.5-.3 1.7l8.2-4.8c.4-.2.6-.9.3-1.7zM373.3 934.8a.8.8 0 0 0-.7 0l-8.2 4.8a.8.8 0 0 1 .7 0l12.7 4 8.3-4.9z"/>
      <path fill="#646768" d="M460.8 1095.9l8.2-4.8 9.1-2.7-8.2 4.9-9.1 2.6zM484.6 1100.6l-5-10.8-8.3 4.8 5 10.8c.5 1 .3 1.7-.1 2l8.2-4.8c.5-.3.6-1 .2-2zM380.7 926.3a1 1 0 0 0-.9-.1l-8.2 4.8a1 1 0 0 1 1 0l13 7 8.2-4.8zM387 939.4l8.2-4.8-7.7 5.2-8.2 4.9 7.7-5.3z"/>
      <path fill="#646768" d="M477.6 1088l8.2-4.8-7.7 5.2-8.2 4.9 7.7-5.3zM493.7 1094.9a3 3 0 0 0-.2-.4l-6.2-10.2-8.2 4.8 6.2 10.2a3.9 3.9 0 0 1 .2.4c.4.9.2 1.7-.2 2l8.2-4.9c.5-.2.6-1 .2-2zM387 939.4l8.2-4.8 9.1-2.7-8.2 4.8-9.1 2.7z"/>
      <path fill="#646768" d="M389.9 920.5a1 1 0 0 0-1 0l-8.2 4.7a1 1 0 0 1 1 .1l13.2 9.8 8.2-4.8zM483.6 1080.3l8.3-4.8-6.1 7.7-8.2 4.8 6-7.7z"/>
      <path fill="#646768" d="M500.9 1086.3a3.3 3.3 0 0 0-.4-.7l-7.2-9.3-8.2 4.8 7.2 9.3a3.6 3.6 0 0 1 .4.7c.3.8.3 1.6-.2 2l8.2-4.9c.5-.3.6-1.1.2-2zM388.9 1008a23.5 23.5 0 0 1-1.3-3.6c-4-16.2-4-31.3.1-42.7a5.9 5.9 0 0 1 2.5-3.2l-8.2 4.8a5.9 5.9 0 0 0-2.5 3.2 74.8 74.8 0 0 0-.1 42.7 23.2 23.2 0 0 0 1.3 3.7 25.7 25.7 0 0 0 4 6.5l8.3-4.9a25.8 25.8 0 0 1-4.1-6.4zM401.1 1019.8a10.8 10.8 0 0 1-3.5-1.3 19 19 0 0 1-4.6-4l-8.2 4.9a19 19 0 0 0 4.6 3.9 10.8 10.8 0 0 0 3.5 1.3 5.9 5.9 0 0 0 4-.5l8.3-4.9a5.9 5.9 0 0 1-4 .6zM451.7 987.5a17.5 17.5 0 0 1-3.4-2.7 59 59 0 0 0-11.5-9 36 36 0 0 0-11.5-4.4 10.9 10.9 0 0 1-3.5-1.3 19 19 0 0 1-4.7-4 25.7 25.7 0 0 1-4-6.5 23.7 23.7 0 0 1-1.3-3.7c-1.4-5.3-.3-9.6 2.5-11.2l-8.2 4.8c-2.8 1.6-4 5.9-2.6 11.2a23.4 23.4 0 0 0 1.3 3.7 25.6 25.6 0 0 0 4.1 6.5 18.9 18.9 0 0 0 4.7 4 10.8 10.8 0 0 0 3.4 1.3 36 36 0 0 1 11.6 4.5 58.8 58.8 0 0 1 11.5 8.9 17.7 17.7 0 0 0 3.4 2.7c2.9 1.6 5.6 1.9 7.6.7l8.2-4.8c-2 1.2-4.7 1-7.6-.7zM396.1 936.7l8.2-4.8 10.3.1-8.3 4.8-10.2-.1z"/>
      <path fill="#646768" d="M400.6 917.8a1 1 0 0 0-1 0l-8.2 4.7a1 1 0 0 1 1 .1l12.8 12.4 8.2-4.8zM475.5 1063.8a18 18 0 0 1-3.4-2.7l-1.2-1.3a25.5 25.5 0 0 1-4.1-6.5c-1.8-4.2-2.4-8.5-1.3-11.7 2.6-7 2.6-16.5.1-26.6-1.3-5.4-.2-9.6 2.5-11.2l-8.2 4.8c-2.7 1.6-3.9 5.8-2.5 11.2 2.5 10 2.5 19.5 0 26.6-1.2 3.2-.7 7.6 1.2 11.7a25.6 25.6 0 0 0 4 6.5l1.3 1.3a17.6 17.6 0 0 0 3.4 2.7c2.9 1.6 5.6 1.9 7.6.7l8.2-4.8c-2 1.2-4.7 1-7.6-.7zM487.8 1070.4l8.2-4.8-4.1 9.9-8.3 4.8 4.2-9.9z"/>
      <path fill="#646768" d="M506 1075a3.2 3.2 0 0 0-.6-.8h-.1l-7.8-8.2-8.3 4.9 7.9 8v.1a3.2 3.2 0 0 1 .6.9c.4.8.3 1.7-.1 2l8.2-4.9c.4-.3.5-1.1.1-2zM406.3 936.8l8.3-4.8 10.9 2.7-8.2 4.8-11-2.7z"/>
      <path fill="#adbce0" d="M413.2 918.8a2.5 2.5 0 0 0-.7-.6 1 1 0 0 0-1 0l-8.2 4.7a1 1 0 0 1 1 .1 2.5 2.5 0 0 1 .6.5v.1l11.5 14 8.2-4.7z"/>
      <path fill="#646768" d="M489.9 1058.6l8.2-4.8-2.1 11.8-8.2 4.8 2.1-11.8zM417.3 939.5l8.2-4.8 11.4 5.4-8.2 4.8-11.4-5.4z"/>
      <path fill="#646768" d="M426.1 922.7a3.3 3.3 0 0 0-.3-.4 2.4 2.4 0 0 0-.5-.5 1 1 0 0 0-1-.1l-8.3 4.8a1 1 0 0 1 1 0 2.4 2.4 0 0 1 .6.6 4 4 0 0 1 .3.4l10 15.5 8.3-4.8zM508.7 1061.7a3.2 3.2 0 0 0-.6-.8 3.3 3.3 0 0 0-.3-.3l-8.3-6.6-8.2 4.8 8.2 6.6a2.9 2.9 0 0 1 .4.3 3.3 3.3 0 0 1 .5.8c.4.8.4 1.7-.1 2l8.2-4.8c.5-.3.5-1.2.2-2zM490 1045.5l8.2-4.9-.1 13.2-8.2 4.8.1-13.1zM428.7 944.9l8.2-4.8 11.3 7.8-8.2 4.8-11.3-7.8z"/>
      <path fill="#646768" d="M431.2 934.3l8.3-4.8 8.3 16.5-8.2 4.8-8.4-16.5zM487.9 1031.3l8.2-4.8 2.1 14.1-8.2 4.9-2.1-14.2zM509 1046.7a3.4 3.4 0 0 0-.6-.9 2.5 2.5 0 0 0-.6-.5l-8.4-4.9-8.2 4.8 8.4 5a2.5 2.5 0 0 1 .6.4 3.3 3.3 0 0 1 .5.9c.4.8.4 1.6-.1 2l8.2-4.9c.5-.3.5-1.1.2-2z"/>
      <path fill="#adbce0" d="M440 952.7l8.2-4.8 11 10-8.3 4.8-10.9-10z"/>
      <path fill="#646768" d="M483.8 1016.6l8.2-4.8 4.1 14.7-8.2 4.8-4.1-14.7z"/>
      <path fill="#adbce0" d="M450.9 962.7l8.3-4.8 10.2 11.8-8.3 4.8-10.2-11.8zM477.8 1001.9l8.3-4.8 5.9 14.7-8.2 4.8-6-14.7z"/>
      <path fill="#646768" d="M444.4 944l8.3-4.9 6.3 17-8.2 4.8-6.4-16.9zM444.4 943.8l8.2-4.8v.1l-8.2 4.9v-.2M498.6 1037l8.3-4.8-7.5 8.2-8.2 4.8 7.4-8.2z"/>
      <path fill="#adbce0" d="M461.1 974.5l8.3-4.8 9 13.2-8.2 4.8-9.1-13.2z"/>
      <path fill="#646768" d="M470.2 987.7l8.2-4.8 7.7 14.2-8.3 4.8-7.6-14.2zM457.1 956.1l8.2-4.8 4.2 16.7-8.3 4.9-4.1-16.8z"/>
      <path fill="url(#O)" d="M499.5 1065.4c1.3 1 1.6 3 .6 3.2l-10.9 2.3 7.9 8c1.1 1.2 1.1 3.1 0 3l-12-.8 7.2 9.3c1 1.3.7 3-.5 2.6l-12.7-3.9 6.2 10.2c.9 1.5.3 2.9-1 2.3l-13-7 5 10.8c.7 1.4 0 2.5-1 1.9l-13.2-9.8 3.7 10.9c.5 1.4-.3 2.2-1.3 1.6l-12.8-12.4 2.3 10.7c.2 1.3-.5 1.8-1.4 1.3a2.5 2.5 0 0 1-.7-.6l-11.4-14 .8 10.1c0 1-.7 1.4-1.4 1a2.7 2.7 0 0 1-1-1l-10-15.5-.8 9.3c0 .8-.7 1-1.4.6a2.9 2.9 0 0 1-1-1.2l-8.4-16.5-2.3 8c-.2.7-.8.7-1.3.4a3 3 0 0 1-1.2-1.5l-6.4-17-3.8 6.6c-.2.4-.7.4-1.2.1a3 3 0 0 1-1.3-1.8l-4.1-16.8-5.1 4.8a.9.9 0 0 1-1.1 0 3 3 0 0 1-1.4-2.2l-1.8-16-6.2 2.9a1 1 0 0 1-1-.1 3 3 0 0 1-1.3-2.5l.6-14.8-7.1 1a1.2 1.2 0 0 1-.8-.2 3 3 0 0 1-1.3-2.8l3-13-7.8-1a1.4 1.4 0 0 1-.5-.2c-1-.6-1.7-2.1-1.3-3l5.3-10.8-8.2-3c-1.4-.8-2-2.6-1.4-3.3l7.4-8.2-8.4-4.9c-1.2-.7-1.9-2.8-1-3.3l9.3-5.3-8.2-6.6c-1.3-1-1.6-3-.6-3.2l10.9-2.3-7.9-8c-1.1-1.3-1.1-3.2 0-3l12 .8-7.1-9.3c-1-1.4-.8-3 .4-2.7l12.7 4-6.2-10.2c-.9-1.5-.3-3 1-2.3l13 6.9-5-10.7c-.7-1.5 0-2.6 1-2l13.3 9.8-3.8-10.9c-.4-1.4.3-2.1 1.3-1.6l12.8 12.4-2.2-10.7c-.3-1.2.4-1.8 1.3-1.3a2.5 2.5 0 0 1 .7.6l11.4 14-.8-10c0-1.1.7-1.5 1.4-1a2.7 2.7 0 0 1 1 .9l10 15.5.8-9.2c0-.9.7-1 1.4-.7a3 3 0 0 1 1 1.2l8.4 16.5 2.3-8c.2-.6.8-.7 1.3-.4a3 3 0 0 1 1.2 1.6l6.4 16.9 3.8-6.5c.2-.5.7-.5 1.2-.2a3 3 0 0 1 1.3 1.9l4.1 16.8 5.1-4.9a.9.9 0 0 1 1.1 0 3 3 0 0 1 1.4 2.2l1.8 16 6.2-2.9a1 1 0 0 1 1 .2 3 3 0 0 1 1.3 2.5l-.6 14.7 7.1-1a1.2 1.2 0 0 1 .8.2 3 3 0 0 1 1.3 2.8l-3 13 7.8 1a1.4 1.4 0 0 1 .5.2c1 .6 1.7 2.2 1.3 3l-5.3 10.8 8.2 3c1.4.8 2 2.6 1.4 3.3l-7.4 8.2 8.4 5c1.2.6 1.9 2.7 1 3.2l-9.3 5.4zm-9.6-6.8v-13.1l-2-14.2-4-14.7-6-14.7-7.7-14.2-9-13.2-10.3-11.8-10.9-10-11.3-7.8-11.4-5.4-11-2.7h-10.2l-9.1 2.6-7.7 5.3-6 7.7-4.2 9.9L367 974v13.2l2 14.2 4 14.6 6 14.7 7.7 14.2 9 13.2L406 1070l11 10 11.3 7.8 11.3 5.4 11 2.8h10.2l9.1-2.6 7.7-5.3 6-7.7 4.2-10 2.1-11.7"/>
      <path fill="#646768" d="M506.9 1030.5a3.5 3.5 0 0 0-.6-.9 3.2 3.2 0 0 0-.8-.7l-8.3-3-8.2 4.8 8.2 3a3.1 3.1 0 0 1 .9.7 3.5 3.5 0 0 1 .6 1 1.6 1.6 0 0 1 0 1.6l8.2-4.8a1.6 1.6 0 0 0 0-1.7z"/>
      <path fill="#646768" d="M494.3 1019.9l8.2-4.8-5.3 10.8-8.2 4.8 5.3-10.8z"/>
      <path fill="#646768" d="M502.4 1013.5a3.5 3.5 0 0 0-.5-.9 2.5 2.5 0 0 0-.6-.5 1.4 1.4 0 0 0-.5-.1l-7.9-1-8.2 4.7 7.8 1a1.4 1.4 0 0 1 .5.2 2.3 2.3 0 0 1 .6.6 3.4 3.4 0 0 1 .6.8 2 2 0 0 1 .1 1.6l8.2-4.8a2 2 0 0 0 0-1.6zM468.8 970.2l8.2-4.8 1.8 16.1-8.2 4.8-1.8-16.1zM487.7 1002.7l8.2-4.8-3 13-8.2 4.8 3-13zM438.4 928.3a1 1 0 0 0-1 0l-8.2 4.7a1 1 0 0 1 1 .1 2.5 2.5 0 0 1 .6.5 3.4 3.4 0 0 1 .4.7l8.3-4.8a3.5 3.5 0 0 0-.5-.7 2.4 2.4 0 0 0-.6-.5zM451.5 937.6a1 1 0 0 0-1 0l-8.3 4.7a1 1 0 0 1 1 .1 2.5 2.5 0 0 1 .7.5 3.3 3.3 0 0 1 .5.9l8.2-4.8a3.2 3.2 0 0 0-.5-.9 2.5 2.5 0 0 0-.6-.5zM464.6 950a2.6 2.6 0 0 0-.6-.6 1 1 0 0 0-1-.1l-8.2 4.8a1 1 0 0 1 1 .1 2.5 2.5 0 0 1 .6.5 3.2 3.2 0 0 1 .5.8 3 3 0 0 1 .2.6l8.2-4.8a3.3 3.3 0 0 0-.1-.6 3.2 3.2 0 0 0-.6-.8z"/>
      <path fill="#646768" d="M476.8 964.6a3.3 3.3 0 0 0-.5-.8 2.5 2.5 0 0 0-.7-.6 1 1 0 0 0-1 0l-8.1 4.7a1 1 0 0 1 1 .1 2.4 2.4 0 0 1 .6.6 3.3 3.3 0 0 1 .5.8 2.9 2.9 0 0 1 .2.8l8.2-4.8a2.8 2.8 0 0 0-.2-.8zM495.8 996.5a3.4 3.4 0 0 0-.6-.8 2.5 2.5 0 0 0-.6-.6 1.2 1.2 0 0 0-.7-.1l-7.2 1-8.2 4.7 7.1-1a1.2 1.2 0 0 1 .8.2 2.4 2.4 0 0 1 .6.6 3.4 3.4 0 0 1 .5.8 2.3 2.3 0 0 1 .2 1.4l8.2-4.8a2.2 2.2 0 0 0-.1-1.4zM479.1 986l8.3-4.9-.7 14.8-8.2 4.8.6-14.7zM487.1 980a3.4 3.4 0 0 0-.5-.8 2.5 2.5 0 0 0-.6-.5 1 1 0 0 0-1-.2l-6.2 3-8.2 4.8 6.2-3a1 1 0 0 1 1 .2 2.6 2.6 0 0 1 .6.5 3.4 3.4 0 0 1 .5.8 2.5 2.5 0 0 1 .2 1.2l8.2-4.9a2.5 2.5 0 0 0-.2-1zM434.9 1023.3a15.2 15.2 0 0 1-3.8-3.2 20.7 20.7 0 0 1-3.3-5.2 16.3 16.3 0 0 1-1.5-6.5c0-2.7 1-4.7 2.5-5.6l-8.2 4.9c-1.5.9-2.5 2.8-2.5 5.5a16.3 16.3 0 0 0 1.5 6.5 20.7 20.7 0 0 0 3.3 5.2 15.2 15.2 0 0 0 3.8 3.2c2.3 1.4 4.5 1.5 6 .6l8.3-4.8c-1.6.9-3.7.8-6.1-.6z"/>
      <path fill="#646768" d="M428.5 996.2c9.6 5.6 17.3 19.1 17.3 30.2 0 4.5-1.3 7.9-3.4 10-3.2 3 .1-10.4-3.2-16.2-6.5-11.4-8.4-15.6-15.5-20.5-3.1-2.2-11.7-.3-10-2.4 3-4 8.5-4.7 14.8-1z"/>
      <path fill="url(#P)" d="M428.6 951.4c31 18 56 61.7 56 97.5-.1 35.8-25.4 50.3-56.3 32.3-31-18-56-61.7-56-97.5.1-35.8 25.4-50.3 56.3-32.3zm49 72c-1.6-6-5.7-11.5-10.1-14a10.9 10.9 0 0 0-3.5-1.4c-5.5-1-8.5 4.3-6.6 11.8 2.5 10 2.5 19.5 0 26.6-2 5.3 1 14 6.5 19.5a17.6 17.6 0 0 0 3.4 2.7c4.4 2.5 8.6 1.7 10.1-2.5a74.8 74.8 0 0 0 .1-42.6m-78-10.7a46.7 46.7 0 0 1 .1-26.6c2-5.3-1-14-6.5-19.4a17.6 17.6 0 0 0-3.5-2.7c-4.4-2.6-8.6-1.8-10 2.4a74.8 74.8 0 0 0-.2 42.7c1.5 6 5.6 11.5 10 14.1a10.8 10.8 0 0 0 3.5 1.3c5.6 1 8.5-4.2 6.6-11.8m47.2 70.9c5.6 1 8.6-4.3 6.7-11.8-1.5-6-5.7-11.6-10-14.1a10.8 10.8 0 0 0-3.5-1.4 36 36 0 0 1-11.5-4.4 58.8 58.8 0 0 1-11.5-9 17.8 17.8 0 0 0-3.5-2.6c-4.4-2.6-8.6-1.8-10 2.4-2 5.3.9 14 6.5 19.5a94.4 94.4 0 0 0 18.4 14.2 57.9 57.9 0 0 0 18.4 7.2m6.9-93.9c2-5.3-1-14-6.5-19.4a94.3 94.3 0 0 0-18.5-14.3 57.9 57.9 0 0 0-18.4-7.2c-5.6-1-8.6 4.3-6.7 11.8 1.5 6 5.7 11.6 10 14.2a10.8 10.8 0 0 0 3.5 1.3 36 36 0 0 1 11.6 4.5 58.8 58.8 0 0 1 11.5 8.9 17.7 17.7 0 0 0 3.4 2.7c4.4 2.5 8.6 1.7 10.1-2.5m-42.5 16.4c0 11.1 7.7 24.6 17.3 30.2 9.6 5.6 17.4 1 17.4-10s-7.7-24.6-17.3-30.2c-9.6-5.5-17.4-1-17.4 10"/>
      <path fill="url(#Q)" d="M426.8 998.1c9.5 5.6 17.3 19 17.2 30.2 0 11-7.8 15.5-17.4 10a38.4 38.4 0 0 1-17.3-30.2c0-11.1 7.9-15.6 17.5-10zm-.1 30c4.7 2.7 8.6.5 8.6-5a19 19 0 0 0-8.6-14.8c-4.7-2.8-8.6-.6-8.6 4.9a19 19 0 0 0 8.6 14.9"/>
      <path fill="#646768" d="M487.9 1031.3l2 14.2v13.1l-2.1 11.8-4.2 9.9-6 7.7-7.7 5.3-9.1 2.6h-10.2l-11-2.8-11.3-5.4-11.4-7.8-11-10-10.1-11.8-9-13.2-7.7-14.2-6-14.7-4-14.6-2.1-14.2V974l2.1-11.7 4.2-10 6-7.6 7.7-5.3 9.1-2.7h10.2l11 2.8 11.4 5.4 11.3 7.8 11 10 10.1 11.8 9.1 13.2 7.6 14.2 6 14.7zm-59.6 53.6c32.7 19 59.3 3.7 59.4-34.1.1-37.8-26.4-84-59-103-32.7-19-59.4-3.7-59.5 34-.1 37.9 26.4 84 59 103"/>
      <path fill="#646768" d="M428.6 947.7c32.7 19 59.3 65.3 59.1 103 0 37.9-26.7 53.2-59.4 34.2s-59.2-65.2-59.1-103c0-37.8 26.8-53.1 59.4-34.2zm-.3 133.5c31 18 56.2 3.5 56.3-32.3 0-35.8-25-79.5-56-97.5s-56.2-3.5-56.3 32.3c0 35.8 25 79.6 56 97.5"/>
    </g>
    <g style="isolation:isolate">
      <path fill="#646768" d="M232.4 863.6l-8.2 4.8a.8.8 0 0 1 .7 0l12.7 3.9 8.2-4.8-12.7-4a.8.8 0 0 0-.7 0zM227.4 874.8l-8.3 4.8a.7.7 0 0 1 .5-.1l12 .8 8.2-4.8-12-.8a.7.7 0 0 0-.4 0zM274.8 1018.6a.8.8 0 0 1-.4.5l8.3-4.8a.8.8 0 0 0 .3-.5l2.3-8-8.2 4.8zM288 1027.6a.9.9 0 0 1-.5.8l8.2-4.8a.9.9 0 0 0 .4-.8l.8-9.2-8.2 4.8zM300.3 1023.7l.7 10.2a1 1 0 0 1-.3 1l8.2-4.8a1 1 0 0 0 .4-1l-.8-10.2zM319.7 1021.6l-8.2 4.8 2.2 10.7c.2.7 0 1.2-.3 1.4l8.2-4.8c.3-.2.5-.7.4-1.4zM330 1021.5l-8.2 4.8 3.8 10.9c.3.8.1 1.4-.3 1.7l8.2-4.8c.4-.3.6-.9.3-1.7zM344.3 1029.3l-5-10.7-8.2 4.8 5 10.7v.1c.5 1 .3 1.7-.1 2l8.2-4.9c.4-.2.6-1 .2-1.9z"/>
      <path fill="#646768" d="M365.2 1003l-.1-.1-7.9-8-8.2 4.7 7.9 8.1v.1a3.3 3.3 0 0 1 .6.8c.4.9.3 1.7-.1 2l-4.3-5.6-8.2 4.9 7.1 9.2a3.3 3.3 0 0 1 .5.7c.3.8.2 1.6-.2 2l-5.2-8.7-8.3 4.8 6.2 10.1a3 3 0 0 1 .3.5c.4.8.2 1.6-.2 1.9l8.2-4.8c.5-.3.6-1 .2-2a3 3 0 0 0-.2-.4l-1-1.5 8.2-4.7c.5-.3.5-1.1.2-2a3.4 3.4 0 0 0-.4-.7l-3-3.7 8.3-4.8c.4-.3.5-1.1.1-2a3.4 3.4 0 0 0-.5-.8zM368 989.7a2.5 2.5 0 0 0-.4-.4l-8.3-6.6-8.2 4.8 8.2 6.6a2.6 2.6 0 0 1 .4.4 3.2 3.2 0 0 1 .5.8c.4.8.4 1.7-.1 2l8.2-4.8c.5-.3.5-1.2.1-2a3.2 3.2 0 0 0-.5-.8zM321 901.6l7-4a3.2 3.2 0 0 1 .4.6 2.8 2.8 0 0 1 .2.8l1.8 16 6.2-2.9a1 1 0 0 1 1 .1 2.4 2.4 0 0 1 .5.6 3.4 3.4 0 0 1 .6.8 2.6 2.6 0 0 1 .2 1.1l-.6 14.8 7.1-1a1.2 1.2 0 0 1 .8.2 2.4 2.4 0 0 1 .6.5 3.4 3.4 0 0 1 .5.9 2.3 2.3 0 0 1 .2 1.4l-3 13 7.8 1a1.4 1.4 0 0 1 .5.2 2.4 2.4 0 0 1 .6.5 3.5 3.5 0 0 1 .6.9 2 2 0 0 1 0 1.6l-5.2 10.8 8.2 3a3.1 3.1 0 0 1 .9.7 3.5 3.5 0 0 1 .5.9 1.6 1.6 0 0 1 0 1.7L351 974l8.4 4.9a2.4 2.4 0 0 1 .6.5 3.4 3.4 0 0 1 .5.9c.4.8.4 1.6-.1 2l8.2-4.9c.5-.3.5-1.2.2-2a3.3 3.3 0 0 0-.6-.8 2.5 2.5 0 0 0-.6-.5l-8.4-4.9 7.4-8.2a1.6 1.6 0 0 0 0-1.7 3.6 3.6 0 0 0-.5-.9 3.2 3.2 0 0 0-.9-.7l-8.2-3 5.3-10.8a2 2 0 0 0-.1-1.6 3.4 3.4 0 0 0-.6-.9 2.4 2.4 0 0 0-.5-.5 1.4 1.4 0 0 0-.6-.2l-7.8-1 3-13a2.3 2.3 0 0 0-.2-1.4 3.6 3.6 0 0 0-.5-.9 2.5 2.5 0 0 0-.6-.5 1.2 1.2 0 0 0-.7-.2l-7.2 1 .6-14.8a2.6 2.6 0 0 0-.2-1.1 3.5 3.5 0 0 0-.5-.9 2.5 2.5 0 0 0-.7-.5 1 1 0 0 0-.9 0l-6.2 2.8-1.8-16a2.7 2.7 0 0 0-.2-.8 3.2 3.2 0 0 0-.5-.9 2.6 2.6 0 0 0-.7-.5 1 1 0 0 0-1-.1l-5.6 3.3-3.7-15.2a3.2 3.2 0 0 0-.7-1.3 2.4 2.4 0 0 0-.6-.5 1 1 0 0 0-1-.1l-5.4 3.1-5-13.3v-.2a3.3 3.3 0 0 0-.5-.8 2.5 2.5 0 0 0-.7-.5 1 1 0 0 0-1-.1l-5.3 3.1-5.7-11.1a3.3 3.3 0 0 0-.4-.7 2.5 2.5 0 0 0-.6-.5 1 1 0 0 0-1-.1l-5.6 3.2-5.7-8.8a3.2 3.2 0 0 0-.3-.4 2.4 2.4 0 0 0-.6-.5 1 1 0 0 0-1 0l-5.9 3.4-5.1-6.3a.9.9 0 0 0-.1 0 2.5 2.5 0 0 0-.6-.6 1 1 0 0 0-1 0l-6.5 3.7-4-3.8a2.4 2.4 0 0 0-.4-.3 1 1 0 0 0-1-.1l-7.6 4.4-2.1-1.6a1 1 0 0 0-1 0l-8.2 4.7a1 1 0 0 1 1 .1l6.6 5-7.6-4a1 1 0 0 0-.9-.1l-8.2 4.8a1 1 0 0 1 1 0l13 7 7.3-4.3 2 1.4 6.5-3.8 3.8 3.7 6.1-3.6 5 6.2 6-3.4 5.7 8.8 5.9-3.5 5.7 11.3 6-3.6 5.2 13.7 6.5-3.9z"/>
      <path fill="#adbce0" d="M296.4 948.2a12.1 12.1 0 0 1-3-2.6 16.5 16.5 0 0 1-2.6-4.1 13 13 0 0 1-1.1-5.2c0-2.1.7-3.7 2-4.4l-8.3 4.8c-1.2.8-2 2.3-2 4.4a13 13 0 0 0 1.2 5.2 16.5 16.5 0 0 0 2.6 4.1 12.1 12.1 0 0 0 3 2.6c2 1 3.6 1.2 4.9.4l8.2-4.8c-1.3.8-3 .7-4.9-.4z"/>
      <g style="isolation:isolate">
        <path fill="#646768" d="M250.4 993.4l8.2-4.8a.9.9 0 0 1-.1 0l-8.3 4.9a.8.8 0 0 0 .2-.1" style="fill:#646768"/>
      </g>
      <path fill="#646768" d="M255.5 988.6l8.2-4.9-5.1 4.9-8.2 4.8 5.1-4.8zM266 1000.5l-3.9 6.5a.7.7 0 0 1-.2.3l8.2-4.8a.7.7 0 0 0 .3-.3l3.7-6.5zM216.1 908l8.2-4.8 9.3-5.4-8.2 4.8-9.3 5.4z"/>
      <path fill="#646768" d="M296.3 1007.8a40.2 40.2 0 0 1-10-8.4 54.9 54.9 0 0 1-8.7-13.9 43.1 43.1 0 0 1-3.9-17c0-7.2 2.6-12.3 6.6-14.6l-8.2 4.8c-4 2.3-6.6 7.4-6.6 14.6a43.1 43.1 0 0 0 4 17 54.8 54.8 0 0 0 8.7 13.9 40.2 40.2 0 0 0 9.9 8.4c6.2 3.6 12 4 16 1.6l8.3-4.8c-4.1 2.4-9.8 2-16.1-1.6zM276.7 947.3c-4 2.4-9.8 2-16-1.6a40.2 40.2 0 0 1-10-8.4 54.8 54.8 0 0 1-8.7-13.8 43.1 43.1 0 0 1-3.9-17.1c0-7.2 2.5-12.3 6.6-14.6l-8.2 4.8c-4 2.4-6.6 7.4-6.6 14.6a43 43 0 0 0 3.9 17 54.8 54.8 0 0 0 8.7 14 40.2 40.2 0 0 0 10 8.3c6.2 3.6 12 4 16 1.6zM332.1 987.2a40.2 40.2 0 0 1-9.9-8.4 54.8 54.8 0 0 1-8.7-13.8 43 43 0 0 1-4-17.1c0-7.2 2.6-12.2 6.7-14.6l-8.2 4.8c-4.1 2.4-6.6 7.4-6.6 14.6a43 43 0 0 0 3.9 17 54.9 54.9 0 0 0 8.7 14 40.1 40.1 0 0 0 9.9 8.3c6.3 3.7 12 4 16.1 1.6l8.2-4.8c-4.1 2.4-9.8 2-16-1.6zM278.4 921.6a40.2 40.2 0 0 0 9.9 8.3c6.3 3.7 12 4 16 1.6l8.3-4.8c-4.1 2.4-9.8 2-16.1-1.6a40.1 40.1 0 0 1-9.9-8.4A54.7 54.7 0 0 1 278 903a43 43 0 0 1-4-17c0-7.3 2.6-12.3 6.7-14.7l-8.3 4.8c-4 2.4-6.5 7.4-6.6 14.6a43.1 43.1 0 0 0 4 17.1 54.8 54.8 0 0 0 8.7 13.9z"/>
      <path fill="url(#R)" d="M359.3 994.1c1.2 1 1.6 3 .6 3.2l-10.9 2.3 7.9 8.1c1.1 1.2 1.1 3 0 3l-12-.8 7.1 9.2c1 1.4.8 3-.4 2.7l-12.8-4 6.2 10.2c1 1.5.4 3-.8 2.3l-13.1-6.9 5 10.7c.7 1.5 0 2.6-1 2l-13.3-9.8 3.8 10.9c.4 1.4-.3 2.1-1.3 1.6l-12.8-12.4 2.2 10.7c.3 1.2-.4 1.8-1.3 1.3a2.5 2.5 0 0 1-.7-.6l-11.4-14 .7 10c.1 1.1-.6 1.5-1.3 1a2.6 2.6 0 0 1-1-.9l-10-15.5-.8 9.2c0 .9-.7 1-1.4.7a2.9 2.9 0 0 1-1-1.2l-8.4-16.5-2.3 8c-.2.6-.8.7-1.3.4a3 3 0 0 1-1.3-1.6l-6.3-16.9-3.8 6.5c-.2.5-.7.5-1.2.2a3 3 0 0 1-1.3-1.9l-4.1-16.7-5.1 4.8a.9.9 0 0 1-1.1 0 3 3 0 0 1-1.4-2.2l-1.8-16-6.2 2.9a1 1 0 0 1-1-.2 3 3 0 0 1-1.3-2.4l.6-14.8-7.2 1a1.2 1.2 0 0 1-.7-.2 3 3 0 0 1-1.3-2.8l3-13-7.8-1a1.4 1.4 0 0 1-.6-.2c-.9-.6-1.6-2.2-1.2-3l5.3-10.8-8.3-3c-1.3-.8-2-2.6-1.3-3.3l7.4-8.2-8.4-5c-1.3-.6-1.9-2.7-1-3.2l9.3-5.4-8.3-6.6c-1.2-1-1.5-3-.5-3.2l10.9-2.3-7.9-8c-1.1-1.2-1.2-3.1 0-3l12 .8-7.2-9.3c-1-1.3-.7-3 .5-2.6l12.7 3.9-6.2-10.2c-.9-1.5-.3-2.9 1-2.2l13 6.9-5-10.7c-.7-1.5 0-2.6 1-2l13.2 9.8L251 853c-.5-1.4.3-2.2 1.3-1.6a2.4 2.4 0 0 1 .4.3l12.4 12-2.3-10.6c-.2-1.3.5-1.8 1.4-1.3a2.5 2.5 0 0 1 .7.6l11.4 14-.8-10.1c0-1 .7-1.4 1.4-1a2.7 2.7 0 0 1 1 1l10 15.5.8-9.3c0-.8.7-1 1.4-.6a2.8 2.8 0 0 1 1 1.2l8.4 16.5 2.3-8c.2-.7.7-.7 1.3-.4a3 3 0 0 1 1.2 1.5l6.4 17 3.7-6.6c.3-.4.8-.4 1.3-.1a3 3 0 0 1 1.3 1.8l4.1 16.8 5.1-4.8a.9.9 0 0 1 1.1 0 3 3 0 0 1 1.4 2.2l1.8 16 6.2-2.9a1 1 0 0 1 1 .1 3 3 0 0 1 1.3 2.5l-.6 14.8 7.1-1a1.2 1.2 0 0 1 .8.2 3 3 0 0 1 1.3 2.8l-3 13 7.8 1a1.4 1.4 0 0 1 .5.2c1 .6 1.7 2.1 1.3 3l-5.3 10.8 8.2 3c1.4.8 2 2.6 1.4 3.3L351 974l8.4 4.9c1.2.7 1.8 2.8 1 3.3l-9.3 5.3zm-35.4-2c12.5 7.2 22.7 1.3 22.7-13.1a50 50 0 0 0-22.5-39.3c-12.5-7.3-22.7-1.4-22.7 13a50 50 0 0 0 22.5 39.3m-71.5-41.5c12.5 7.2 22.7 1.4 22.7-13a50 50 0 0 0-22.5-39.3c-12.5-7.3-22.7-1.5-22.7 13a50 50 0 0 0 22.5 39.3m35.7 62c12.4 7.3 22.6 1.5 22.6-13a50 50 0 0 0-22.5-39.2c-12.5-7.3-22.7-1.5-22.7 13a50 50 0 0 0 22.6 39.3m.3-135c-12.5-7.3-22.6-1.4-22.7 13a50 50 0 0 0 22.6 39.3c12.5 7.3 22.6 1.5 22.7-13a50 50 0 0 0-22.6-39.3m10.4 73.6c0-6.7-4.7-15-10.5-18.3s-10.6-.7-10.6 6c0 6.8 4.7 15 10.5 18.4s10.6.7 10.6-6"/>
      <path fill="#646768" d="M300.2 950.5c0-6.7-4.7-15-10.6-18.4-4.2-2.4-7.8-1.7-9.5 1.5a54.4 54.4 0 0 1 9.5 2.9 15 15 0 0 1 6.8 11.8c0 1.2-.1 5.8-.4 9.5 2.5-.7 4.2-3.3 4.2-7.3z"/>
      <path fill="#646768" d="M288.3 932.9a23.4 23.4 0 0 1 10.5 18.3c0 6.8-4.8 9.5-10.6 6.1s-10.6-11.6-10.5-18.4c0-6.7 4.7-9.4 10.6-6zm0 20c3.7 2.2 6.7.5 6.7-3.9a15 15 0 0 0-6.7-11.8c-3.8-2.2-6.9-.4-6.9 4a15 15 0 0 0 6.8 11.8"/>
    </g>
    <path fill="#646768" d="M374.2 1099l2.7-2.5-8.2 4.8-2.7 2.5 8.1-4.7a.3.3 0 0 0 .1 0zM348.1 1059.1l4.8-2.8 8.3-4.8-4.9 2.8-8.2 4.8zM356.4 1046.4l-8.2 4.8a.4.4 0 0 1 .1 0l5.7-1.2 8.2-4.8-5.6 1.2a.4.4 0 0 0-.2 0zM380.4 1106.2l2-3.5-8.3 4.8-2 3.5a.4.4 0 0 1 0 .1l8.1-4.8a.4.4 0 0 0 .2-.1zM387 1112.2l1.2-4.2-8.2 4.8-1.2 4.2a.4.4 0 0 1-.2.3l8.2-4.8a.4.4 0 0 0 .2-.3zM393.9 1117l.4-4.9-8.2 4.8-.4 4.9a.5.5 0 0 1-.2.3l8.2-4.8a.5.5 0 0 0 .2-.4z"/>
    <path fill="#646768" d="M431.5 1099.6a1.7 1.7 0 0 0-.2-.2l-4.3-3.4 4.8-2.8c.3-.2.3-.6.1-1a1.7 1.7 0 0 0-.3-.5 1.4 1.4 0 0 0-.3-.3l-4.4-2.5 3.9-4.3a.9.9 0 0 0 0-1 1.8 1.8 0 0 0-.3-.4 1.7 1.7 0 0 0-.4-.3l-4.4-1.6 2.8-5.7a1 1 0 0 0 0-.8 2 2 0 0 0-.3-.5 1.2 1.2 0 0 0-.3-.2.7.7 0 0 0-.3-.1l-4.1-.6 1.6-6.8a1.2 1.2 0 0 0-.1-.7 1.8 1.8 0 0 0-.3-.5 1.3 1.3 0 0 0-.3-.2.6.6 0 0 0-.4-.1l-3.8.5.4-7.8a1.3 1.3 0 0 0-.1-.6 1.6 1.6 0 0 0-.3-.4 1.3 1.3 0 0 0-.3-.3.5.5 0 0 0-.5 0l-3.3 1.5-1-8.4a1.6 1.6 0 0 0 0-.4 1.7 1.7 0 0 0-.3-.5 1.3 1.3 0 0 0-.3-.2.5.5 0 0 0-.6-.1l-2.9 1.7-2-8a1.5 1.5 0 0 0 0-.2 1.8 1.8 0 0 0-.3-.4 1.3 1.3 0 0 0-.3-.3.5.5 0 0 0-.5 0l-2.9 1.6-2.6-7a1.7 1.7 0 0 0-.3-.5 1.3 1.3 0 0 0-.3-.3.5.5 0 0 0-.5 0l-2.9 1.6-2.9-5.8a1.8 1.8 0 0 0-.2-.4 1.2 1.2 0 0 0-.4-.2.5.5 0 0 0-.5 0l-2.9 1.6-3-4.6a1.8 1.8 0 0 0-.1-.2 1.3 1.3 0 0 0-.3-.3.5.5 0 0 0-.6 0l-3 1.8-2.7-3.3a1.3 1.3 0 0 0-.4-.3.5.5 0 0 0-.5 0l-3.5 2-2-2a1.2 1.2 0 0 0-.2-.2.5.5 0 0 0-.6 0l-4 2.2-1-.8a.5.5 0 0 0-.5 0l-8.3 4.8a.5.5 0 0 1 .4 0l-5.1 3a.5.5 0 0 1 .4 0l1.8 1-6 3.5a.4.4 0 0 1 .4 0l4.6 1.4-7.6 4.4a.4.4 0 0 1 .2 0l6.3.4 8.2-4.8-3.6-.2 6.8-4-.6-.2.2-.1 1 .7 3.5-2 2 2 3.2-1.9 2.6 3.3 3.1-1.8 3 4.6 3-1.9 3 6 3.3-2 2.6 7.2 3.5-2 2 8.3 3.6-2.2a1.6 1.6 0 0 1 .2.4 1.5 1.5 0 0 1 .2.4l.9 8.4 3.2-1.5a.5.5 0 0 1 .5 0 1.3 1.3 0 0 1 .4.3 1.8 1.8 0 0 1 .2.5 1.3 1.3 0 0 1 .2.5l-.4 7.8 3.8-.5a.6.6 0 0 1 .4 0 1.3 1.3 0 0 1 .3.3 1.8 1.8 0 0 1 .3.5 1.2 1.2 0 0 1 0 .7l-1.5 6.8 4 .6a.7.7 0 0 1 .3 0 1.3 1.3 0 0 1 .4.3 1.8 1.8 0 0 1 .2.5 1 1 0 0 1 .1.8l-2.8 5.7 4.3 1.6a1.6 1.6 0 0 1 .5.3 1.8 1.8 0 0 1 .3.5.9.9 0 0 1 0 .9l-4 4.3 4.5 2.5a1.3 1.3 0 0 1 .3.3 1.8 1.8 0 0 1 .3.4.8.8 0 0 1 0 1l-5 2.9 4.1 3.3-5.1 3 2.5 2.6-4.7 2.7 1.2 1.7-4.4 2.5.3.4-.6.3-.4-1-4.8 2.8-.6-2.8-5.5 3.2-.3-4.6-8.3 4.8.4 5.3a.5.5 0 0 1-.2.6l6-3.5.9 4.6c0 .4 0 .6-.2.7l5.5-3.2.9 2.5c.1.5 0 .8-.2 1l5.4-3.2.3.7c.2.5.2.9 0 1l8.1-4.8a.5.5 0 0 0 .2-.3l4.6-2.7c.2-.1.3-.6.1-1a2.1 2.1 0 0 0-.1-.2l-.5-.8 4.3-2.5c.2-.2.3-.6 0-1a1.6 1.6 0 0 0-.2-.4l-1.5-2 4.3-2.5c.3-.1.3-.6.1-1a1.8 1.8 0 0 0-.3-.4l-2.8-3 4.5-2.6c.2-.1.2-.6 0-1a1.7 1.7 0 0 0-.2-.4z"/>
    <path fill="#646768" d="M379.2 1048l-8.2 4.9c-3.8 2.2-6 6.8-6.1 13.5a39.8 39.8 0 0 0 3.6 15.8 50.7 50.7 0 0 0 8.1 12.8 37.1 37.1 0 0 0 9.2 7.7c5.8 3.4 11 3.7 14.9 1.5l8.2-4.8c-3.8 2.2-9.1 2-15-1.5a37.3 37.3 0 0 1-9-7.7 50.7 50.7 0 0 1-8.2-12.8 39.9 39.9 0 0 1-3.6-15.8c0-6.7 2.4-11.4 6.1-13.5z"/>
    <path fill="url(#S)" d="M423 1104.2c.7.5.9 1.6.3 1.7l-5.6 1.2 4 4.2c.7.6.7 1.6 0 1.6l-6.2-.5 3.7 4.9c.6.7.4 1.6-.2 1.4l-6.7-2 3.3 5.3c.4.7.2 1.5-.5 1.2l-6.8-3.7 2.6 5.7c.4.7 0 1.3-.6 1l-6.9-5.2 2 5.7c.2.8-.2 1.2-.7.9a1.4 1.4 0 0 1-.2-.2l-6.5-6.3 1.2 5.6c.1.7-.3 1-.7.7a1.4 1.4 0 0 1-.4-.3l-6-7.4.4 5.3c0 .6-.3.7-.7.5a1.4 1.4 0 0 1-.5-.4l-5.2-8.2-.4 4.9c0 .4-.4.5-.8.3a1.5 1.5 0 0 1-.5-.6l-4.4-8.7-1.2 4.2c-.1.4-.4.4-.7.2a1.6 1.6 0 0 1-.6-.8l-3.4-8.9-2 3.5c0 .2-.3.2-.6 0a1.6 1.6 0 0 1-.7-1l-2.1-8.7-2.7 2.5a.5.5 0 0 1-.6 0 1.6 1.6 0 0 1-.7-1.1l-1-8.4-3.2 1.5a.5.5 0 0 1-.5 0 1.6 1.6 0 0 1-.7-1.4l.3-7.7-3.7.5a.6.6 0 0 1-.4-.1 1.5 1.5 0 0 1-.7-1.4l1.6-6.9-4.1-.5a.7.7 0 0 1-.3-.1 1.5 1.5 0 0 1-.6-1.6l2.7-5.6-4.3-1.6c-.7-.4-1-1.3-.7-1.7l3.9-4.3-4.4-2.6c-.7-.3-1-1.4-.5-1.7l4.8-2.8-4.3-3.4c-.6-.5-.8-1.6-.3-1.7l5.7-1.2-4-4.2c-.7-.7-.7-1.7-.1-1.6l6.3.4-3.8-4.8c-.5-.7-.4-1.6.3-1.4l6.6 2-3.2-5.3c-.5-.8-.2-1.5.4-1.2l6.9 3.6-2.6-5.6c-.4-.8 0-1.3.5-1l7 5.1-2-5.7c-.3-.7.1-1.1.6-.8a1.2 1.2 0 0 1 .3.2l6.5 6.3-1.2-5.6c-.2-.7.2-1 .7-.7a1.4 1.4 0 0 1 .3.3l6 7.4-.4-5.4c0-.5.4-.7.8-.4a1.4 1.4 0 0 1 .4.4l5.3 8.2.4-4.9c0-.4.4-.5.7-.3a1.5 1.5 0 0 1 .6.6l4.3 8.7 1.3-4.2c0-.4.4-.4.7-.2a1.6 1.6 0 0 1 .6.8l3.3 8.8 2-3.4c.1-.2.4-.2.6 0a1.6 1.6 0 0 1 .7.9l2.2 8.8 2.7-2.5a.5.5 0 0 1 .5 0 1.6 1.6 0 0 1 .8 1.1l.9 8.4 3.2-1.5a.5.5 0 0 1 .5 0 1.6 1.6 0 0 1 .8 1.3l-.4 7.8 3.8-.5a.6.6 0 0 1 .4 0 1.5 1.5 0 0 1 .7 1.5l-1.6 6.8 4 .6a.7.7 0 0 1 .3 0 1.5 1.5 0 0 1 .7 1.6l-2.8 5.7 4.3 1.6c.7.4 1.1 1.3.8 1.7l-4 4.3 4.5 2.5c.6.4 1 1.5.5 1.8l-4.9 2.8zm-37.2-1.5c11.5 6.8 21 1.4 21-12s-9.3-29.7-20.9-36.4c-11.6-6.7-21-1.3-21 12 0 13.4 9.3 29.7 20.9 36.4"/>
    <g style="isolation:isolate">
      <g style="isolation:isolate">
        <path fill="#646768" d="M370.8 858.9l5.5-3.2-5.5 3.2" style="fill:#646768"/>
      </g>
      <path fill="#646768" d="M374.2 855.7l5.5-3.2-3.4 3.2-5.5 3.2 3.4-3.2zM381.2 863.6l-2.5 4.3a.5.5 0 0 1-.2.2l5.4-3.2a.5.5 0 0 0 .2-.2l2.5-4.3zM388.6 870.3l-1.6 5.3a.5.5 0 0 1-.2.3l5.5-3.2a.5.5 0 0 0 .2-.3l1.5-5.3zM348.1 802.3l5.5-3.2 6.2-3.6-5.5 3.2-6.2 3.6zM396.3 875.5l-.6 6a.6.6 0 0 1-.2.6l5.4-3.2a.6.6 0 0 0 .3-.5l.5-6.1z"/>
      <g style="isolation:isolate">
        <path fill="#646768" d="M348.4 792.3l5.4-3.2a.5.5 0 0 1 .1 0l-5.4 3.1a.4.4 0 0 0-.1 0" style="fill:#646768"/>
      </g>
      <path fill="#646768" d="M409.4 875.8l-5.5 3.2.5 6.7a.7.7 0 0 1-.2.7l5.4-3.2a.7.7 0 0 0 .3-.7zM418.3 884.7l-1.5-7.1-5.5 3.1 1.6 7.1c0 .5 0 .8-.3 1l5.5-3.2c.2-.2.3-.5.2-1z"/>
      <g style="isolation:isolate">
        <path fill="#646768" d="M395.8 875l5.5-3.2c11.5 6.8 22 7.4 29.6 3l-5.4 3.2c-7.6 4.4-18.1 3.8-29.7-3" style="fill:#646768"/>
      </g>
      <g style="isolation:isolate">
        <path fill="#646768" d="M350.2 783.4l5.4-3.1a.5.5 0 0 1 .3-.1l-5.5 3.2a.5.5 0 0 0-.2 0" style="fill:#646768"/>
      </g>
      <path fill="#646768" d="M348.5 792.2l5.4-3.2 7.2-1.5-5.4 3.2-7.2 1.5zM386.6 850.2a81.6 81.6 0 0 1-13-20.7 64.2 64.2 0 0 1-5.9-25.4 35 35 0 0 1 1.6-10.9l-5.4 3.2a35.2 35.2 0 0 0-1.6 10.9c0 8.2 2 17 5.8 25.4a81.7 81.7 0 0 0 13 20.6 63.8 63.8 0 0 0 10.9 10l5.4-3.2a63.5 63.5 0 0 1-10.8-10zM350.4 783.4l5.5-3.2 7.9.6-5.4 3.1-8-.5zM426.1 884.7l-2.4-7.2-5.5 3.2 2.5 7.2c.2.6 0 1-.2 1.1l5.5-3.2c.2-.1.3-.5.1-1zM400.8 845.8l5.5-3.2-.1 22.5-5.4 3.2v-22.5zM359.4 772.8a.5.5 0 0 0-.4 0l-5.5 3.2a.5.5 0 0 1 .5 0l8.4 2.6 5.5-3.2zM433.2 882.7l-3.4-7.1-5.5 3.2 3.4 7v.1c.3.6.2 1.1-.1 1.3l5.4-3.2c.3-.1.4-.6.2-1.3z"/>
      <g style="isolation:isolate">
        <path fill="#646768" d="M372 785.5l5.5-3.1a16.7 16.7 0 0 0-4.4 3.8l-5.5 3.2a16.5 16.5 0 0 1 4.5-3.9" style="fill:#646768"/>
      </g>
      <path fill="#646768" d="M401.4 831.4a12 12 0 0 1-3-2.5 16.3 16.3 0 0 1-2.5-4 12.8 12.8 0 0 1-1.2-5.1c0-2.1.8-3.6 2-4.3l-5.5 3.2c-1.2.7-2 2.1-2 4.3a12.8 12.8 0 0 0 1.2 5 16.4 16.4 0 0 0 2.6 4.1 12 12 0 0 0 3 2.5c1.8 1 3.5 1.2 4.7.5l5.4-3.2c-1.2.7-2.9.6-4.7-.5zM364.3 767.2a.6.6 0 0 0-.6 0l-5.4 3.1a.6.6 0 0 1 .6 0l8.7 4.7 5.4-3.2zM408.2 824.4l5.4-3.1 16.5-1.5-5.4 3.2-16.5 1.4z"/>
      <g style="isolation:isolate">
        <path fill="#646768" d="M410.7 836l5.4-3.2c-.1 4.4-1.7 7.4-4.3 9l-5.4 3.1c2.5-1.5 4.1-4.5 4.3-9" style="fill:#646768"/>
      </g>
      <g fill="#646768" style="isolation:isolate">
        <path d="M407.9 812.1a26.2 26.2 0 0 0-6.5-5.4c-4-2.4-7.7-2.6-10.4-1l-1.6.9-16.3-20.4-5.5 3.2 16.5 20.5 3.1-1.8c2.5-.7 5.5-.2 8.8 1.7a26.1 26.1 0 0 1 6.4 5.5 35.7 35.7 0 0 1 5.7 9l5.5-3.2a35.7 35.7 0 0 0-5.7-9z"/>
        <path d="M408.1 824.3l5.5-3.2v.2l-5.4 3.1"/>
      </g>
      <g fill="#646768" style="isolation:isolate">
        <path d="M396 778.7l5.5-3.2a74 74 0 0 1 18.2 15.4l-5.4 3.2a74 74 0 0 0-18.2-15.4"/>
        <path d="M414.3 794.1l5.4-3.2a101 101 0 0 1 16.1 25.5l-5.4 3.2a101 101 0 0 0-16.1-25.5"/>
        <path d="M430.4 819.6l5.4-3.2a79.3 79.3 0 0 1 7.3 31.5c0 13.2-4.7 22.5-12.2 26.9l-5.4 3.2c7.4-4.4 12-13.7 12.1-27 0-10-2.6-21-7.2-31.4"/>
      </g>
      <path fill="#646768" d="M439.2 879a2 2 0 0 0-.2-.3l-4-6.8-5.5 3.2 4.1 6.7.1.3c.3.6.2 1.1 0 1.3l5.4-3.2c.3-.2.3-.7 0-1.3zM370.4 763.4a.6.6 0 0 0-.6 0l-5.5 3.1a.6.6 0 0 1 .7 0l8.7 6.5 5.4-3.1zM433.5 869.8l5.4-3.2 4.8 6.1-5.5 3.2-4.7-6.1z"/>
      <path fill="#646768" d="M444 873.2a2.4 2.4 0 0 0-.3-.5l-5.5 3.2a2.2 2.2 0 0 1 .3.5c.3.6.2 1.1-.1 1.3l5.4-3.2c.4-.2.4-.7.2-1.3z"/>
      <g style="isolation:isolate">
        <path fill="#646768" d="M366.4 775.8l5.5-3.2c7.6-4.4 18-3.8 29.6 3l-5.4 3.1c-11.6-6.7-22-7.4-29.7-3" style="fill:#646768"/>
      </g>
      <path fill="#646768" d="M377.5 761.6a.6.6 0 0 0-.7 0l-5.4 3.1a.6.6 0 0 1 .6 0l8.6 8.3 5.4-3.2zM436.2 863l5.5-3.2 5.2 5.4-5.5 3.2-5.2-5.4zM447.3 865.8a2 2 0 0 0-.4-.6l-5.5 3.2a.7.7 0 0 1 .1 0 2.2 2.2 0 0 1 .4.6c.2.5.2 1.1-.2 1.3l5.5-3.2c.3-.2.3-.7.1-1.3z"/>
      <path fill="#646768" d="M385.8 762.3v-.1a1.6 1.6 0 0 0-.4-.3.6.6 0 0 0-.7-.1l-5.4 3.2a.6.6 0 0 1 .6 0 1.7 1.7 0 0 1 .4.4l7.7 9.3 5.4-3.1z"/>
      <path fill="#646768" d="M394.4 764.8a2 2 0 0 0-.2-.3 1.6 1.6 0 0 0-.4-.3.7.7 0 0 0-.6 0l-5.5 3.1a.7.7 0 0 1 .7 0 1.5 1.5 0 0 1 .4.4 2.2 2.2 0 0 1 .2.3l6.6 10.3 5.5-3.2zM437.6 855l5.4-3.2 5.5 4.4-5.4 3.2-5.5-4.4z"/>
      <path fill="#646768" d="M449.1 857a2.2 2.2 0 0 0-.3-.6 1.8 1.8 0 0 0-.3-.2l-5.4 3.2a2 2 0 0 1 .2.2 2.2 2.2 0 0 1 .4.5c.2.6.2 1.2-.1 1.3l5.4-3.1c.3-.2.3-.8.1-1.3z"/>
      <path fill="#adbce0" d="M403.2 769.3a2.3 2.3 0 0 0-.3-.4 1.6 1.6 0 0 0-.4-.4.7.7 0 0 0-.6 0l-5.5 3.2a.7.7 0 0 1 .7 0 1.6 1.6 0 0 1 .4.4 2.1 2.1 0 0 1 .3.4l5.5 11 5.5-3.2z"/>
      <path fill="#646768" d="M437.5 846l5.5-3.2 5.6 3.3-5.5 3.2-5.6-3.3zM449.3 847a2.2 2.2 0 0 0-.3-.6 1.7 1.7 0 0 0-.4-.3l-5.5 3.2a1.6 1.6 0 0 1 .4.3 2.1 2.1 0 0 1 .4.6c.2.5.2 1-.1 1.3l5.4-3.2c.3-.2.3-.8.1-1.3zM412 775.7a1.2 1.2 0 0 0 0-.1 2.1 2.1 0 0 0-.4-.6 1.7 1.7 0 0 0-.4-.3.7.7 0 0 0-.7 0l-5.4 3.1a.7.7 0 0 1 .7.1 1.7 1.7 0 0 1 .4.3 2.3 2.3 0 0 1 .3.6v.1l4.3 11.2 5.4-3.2z"/>
      <path fill="url(#T)" d="M396 783.8c20.6 12 37.2 41 37.2 64.7-.1 23.7-16.9 33.3-37.4 21.4a82.5 82.5 0 0 1-37-64.7c0-23.7 16.8-33.3 37.3-21.4zm0 4.1c-11.8-7-22.3-5.8-28.4 1.5l16.5 20.5c2.7-2.7 7-2.9 11.9 0 5 2.9 9.6 8.5 12.2 14.5l16.5-1.4c-6-14.5-16.5-28-28.6-35m-4.1 75.3V841a33 33 0 0 1-10.8-22.7v-.1L364 796.4a35.2 35.2 0 0 0-1.6 10.9c0 20 12.9 44 29.7 56m8.8 5c16.3 6.7 28.8-2.3 28.8-21.9a54.7 54.7 0 0 0-1.3-12l-17.6 1.6c-.3 7-4.3 10.7-9.9 9.8v22.5m-4.9-33.7c3.7 2.2 6.7.4 6.7-3.8A14.8 14.8 0 0 0 396 819c-3.7-2.1-6.7-.4-6.7 3.9a14.8 14.8 0 0 0 6.6 11.6"/>
      <path fill="#646768" d="M436.1 836.4l5.4-3.2 5.5 2-5.5 3.2-5.4-2z"/>
      <path fill="#646768" d="M448 836.3a2.2 2.2 0 0 0-.5-.6 2.1 2.1 0 0 0-.5-.5l-5.5 3.2a2.2 2.2 0 0 1 .6.5 2.5 2.5 0 0 1 .4.6 1 1 0 0 1 0 1.1l-5 5.4 5.5-3.2 5-5.4a1 1 0 0 0 0-1.1zM396 781.4a87.1 87.1 0 0 1 39.2 68.3c0 25-17.7 35.2-39.4 22.6a87.1 87.1 0 0 1-39.1-68.3c0-25 17.7-35.2 39.4-22.6zm-.2 88.5c20.5 12 37.3 2.3 37.4-21.4a82.5 82.5 0 0 0-37.1-64.7c-20.5-11.9-37.3-2.3-37.4 21.4a82.5 82.5 0 0 0 37.1 64.7M420.4 783.7a2 2 0 0 0-.1-.3 2.2 2.2 0 0 0-.4-.5 1.7 1.7 0 0 0-.4-.4.7.7 0 0 0-.6 0l-5.5 3.1a.6.6 0 0 1 .7.1 1.7 1.7 0 0 1 .4.3 2.1 2.1 0 0 1 .3.6 2 2 0 0 1 .1.3l2.8 11.2 5.4-3.2zM433.2 826.5l5.5-3.2 5.2.7-5.5 3.2-5.2-.7zM445 825a2.3 2.3 0 0 0-.4-.6 1.6 1.6 0 0 0-.4-.3 1 1 0 0 0-.3-.1l-5.5 3.2a1 1 0 0 1 .4 0 1.6 1.6 0 0 1 .4.4 2.3 2.3 0 0 1 .3.6 1.3 1.3 0 0 1 0 1l-3.4 7.2 5.4-3.2 3.5-7.1a1.3 1.3 0 0 0 0-1z"/>
      <path fill="url(#U)" d="M396 778.7a92.2 92.2 0 0 1 41.6 72.4c0 26.6-18.8 37.3-41.8 24a92.2 92.2 0 0 1-41.5-72.4c0-26.6 18.8-37.4 41.8-24zm-.2 93.6c21.7 12.6 39.4 2.4 39.4-22.6.1-25-17.5-55.7-39.1-68.3-21.7-12.6-39.4-2.4-39.4 22.6-.1 25 17.5 55.7 39.1 68.3"/>
      <path fill="#646768" d="M429.1 816.5l5.5-3.1 4.7-.7-5.4 3.2-4.8.6zM423.9 807l5.4-3.2 4.2-2-5.5 3.2-4.1 2z"/>
      <path fill="#646768" d="M428.1 793.1a1.8 1.8 0 0 0-.1-.5 2.2 2.2 0 0 0-.4-.6 1.7 1.7 0 0 0-.4-.3.6.6 0 0 0-.6 0l-5.5 3.1a.6.6 0 0 1 .7 0 1.6 1.6 0 0 1 .4.4 2.2 2.2 0 0 1 .3.6 1.9 1.9 0 0 1 .2.5l1.2 10.7 5.4-3.2zM440.6 813.7a2.3 2.3 0 0 0-.4-.5 1.6 1.6 0 0 0-.4-.4.8.8 0 0 0-.5 0l-5.4 3.1a.8.8 0 0 1 .4.1 1.6 1.6 0 0 1 .4.4 2.3 2.3 0 0 1 .4.5 1.5 1.5 0 0 1 .1 1l-2 8.6 5.5-3.2 2-8.6a1.5 1.5 0 0 0-.1-1zM434.8 802.8a2.3 2.3 0 0 0-.3-.6 1.7 1.7 0 0 0-.4-.3.7.7 0 0 0-.6 0L428 805a.7.7 0 0 1 .6 0 1.7 1.7 0 0 1 .4.4 2.2 2.2 0 0 1 .4.6 1.7 1.7 0 0 1 .1.7l-.4 9.8 5.5-3.1.4-9.8a1.7 1.7 0 0 0-.2-.8z"/>
      <path fill="url(#V)" d="M443 859.4c.9.6 1 2 .4 2l-7.2 1.6 5.2 5.4c.8.7.8 2 0 2l-7.9-.6 4.7 6.1c.7 1 .6 2-.2 1.8l-8.5-2.6 4.1 6.7c.6 1 .2 2-.6 1.6l-8.7-4.6 3.4 7c.4 1 0 1.8-.7 1.4l-8.8-6.5 2.5 7.2c.3 1-.2 1.4-.8 1a1.7 1.7 0 0 1-.3-.2l-8.3-8 1.6 7.1c.1.9-.4 1.2-1 .9a1.7 1.7 0 0 1-.4-.4L404 879l.5 6.7c0 .7-.4 1-.9.6a1.8 1.8 0 0 1-.6-.6l-6.6-10.2-.6 6c0 .6-.4.8-.9.5a2 2 0 0 1-.7-.8l-5.5-11-1.6 5.4c0 .4-.5.5-.8.2a2 2 0 0 1-.8-1l-4.2-11.2-2.5 4.3c-.2.3-.5.3-.9.1a2 2 0 0 1-.8-1.2l-2.8-11.1-3.4 3.2a.6.6 0 0 1-.7 0 2 2 0 0 1-.9-1.5l-1.2-10.6-4.1 2a.7.7 0 0 1-.6-.2 2 2 0 0 1-1-1.6l.5-9.8-4.8.6a.8.8 0 0 1-.4 0 2 2 0 0 1-1-2l2-8.5-5.1-.7a1 1 0 0 1-.4-.2 1.8 1.8 0 0 1-.8-2l3.5-7-5.4-2c-1-.6-1.4-1.8-1-2.3l5-5.4-5.6-3.2c-.8-.5-1.2-2-.7-2.2l6.2-3.6-5.5-4.3c-.8-.7-1-2-.3-2.2l7.2-1.5-5.2-5.3c-.8-.8-.8-2 0-2l7.9.5-4.7-6.1c-.7-1-.5-2 .3-1.8l8.4 2.6-4-6.7c-.7-1-.3-2 .5-1.5l8.7 4.6-3.4-7.1c-.4-1 0-1.8.8-1.3l8.7 6.4-2.5-7.2c-.3-.9.2-1.4.8-1l8.6 8.2-1.5-7.1c-.2-.8.3-1.2.8-.9a1.7 1.7 0 0 1 .5.4l7.6 9.3-.5-6.7c0-.7.4-.9.9-.6a1.8 1.8 0 0 1 .6.6l6.6 10.3.6-6.1c0-.6.5-.7.9-.5a1.9 1.9 0 0 1 .7.8l5.5 11 1.6-5.3c0-.5.5-.5.9-.3a2 2 0 0 1 .8 1l4.2 11.2 2.5-4.3c.1-.3.5-.3.8-.1a2 2 0 0 1 .8 1.2l2.8 11.2 3.4-3.2a.6.6 0 0 1 .7 0 2 2 0 0 1 .9 1.4l1.2 10.7 4.1-2a.7.7 0 0 1 .6 0 2 2 0 0 1 1 1.7l-.5 9.8 4.8-.6a.8.8 0 0 1 .4.1 2 2 0 0 1 1 1.8l-2 8.7 5.1.7a1 1 0 0 1 .4 0 1.8 1.8 0 0 1 .8 2l-3.5 7.2 5.4 2c1 .5 1.4 1.7 1 2.2l-5 5.4 5.6 3.3c.8.4 1.2 1.8.7 2.2l-6.2 3.5zM395.9 875c23 13.4 41.7 2.7 41.8-24 0-26.5-18.5-59-41.5-72.3-23-13.4-41.7-2.6-41.8 24 0 26.6 18.5 59 41.5 72.3"/>
    </g>
  </g>
  <g clip-path="url(#W)" style="clip-path:url(#as)">
    <path fill="#ed695d" d="M63.3 1035l-16.2 8.7c-1.4.7-1.4 3.2 0 5.5a6.8 6.8 0 0 0 2.3 2.5 2.4 2.4 0 0 0 2.4.3l16.1-8.7a99.3 99.3 0 0 1-4.6-8.3"/>
    <path fill="#ed685d" d="M49.4 1051.7a6.8 6.8 0 0 1-2.4-2.5c-1.3-2.3-1.3-4.8 0-5.5l16.3-8.7c1.4 2.8 3 5.6 4.6 8.3l-16.1 8.7a2.4 2.4 0 0 1-2.4-.3m14-17.9l-16.8 9c-1.6.9-1.7 3.9-.1 6.6a8.3 8.3 0 0 0 3 3.2 3 3 0 0 0 2.8.3l16.7-9-.3-.5a95.8 95.8 0 0 1-5-9.1l-.3-.5"/>
    <path fill="#ed695d" d="M152 1086.2l-13.8 7.5-13.7-23.3a19 19 0 0 1-4.7 3l16 27a7.2 7.2 0 0 0 2.4 2.6 2.4 2.4 0 0 0 2.3.2l16.2-8.6a96.9 96.9 0 0 1-4.7-8.4"/>
    <path fill="#ed685d" d="M138.2 1093.7l13.8-7.5c1.4 2.9 3 5.7 4.7 8.4l-16.2 8.6a2.4 2.4 0 0 1-2.3-.2 7.2 7.2 0 0 1-2.5-2.5l-15.9-27.1a19 19 0 0 0 4.7-3l13.7 23.3m14-8.7l-14 7.5-13.7-23.3-.3.2a18.6 18.6 0 0 1-5.1 3.2l-.3.1 16.4 28a8.6 8.6 0 0 0 3 3 3 3 0 0 0 2.8.4l16.7-9-.3-.4a95.7 95.7 0 0 1-5-9.2l-.3-.5"/>
    <path fill="#ed695d" d="M94 1005.1c9 5.1 16 17.5 16 27.7s-7.2 14.2-16 9.1-16-17.5-16-27.6 7.2-14.3 16-9.2m0-8.1c-12.7-7.4-23-1.5-23.1 13.2s10.3 32.5 23 39.9 23.2 1.4 23.2-13.2-10.3-32.6-23-40"/>
    <path fill="#ed685d" d="M94 1050.1c-12.8-7.4-23.1-25.3-23.1-40S81.3 989.7 94 997s23 25.2 23 39.9-10.4 20.6-23.2 13.2m.2-54c-13.1-7.5-23.9-1.4-24 13.7a52.4 52.4 0 0 0 23.8 41.1c13.2 7.6 24 1.5 24-13.6A52.4 52.4 0 0 0 94 996"/>
    <path fill="#ed695d" d="M182.8 1056.4c8.8 5 16 17.4 16 27.6s-7.3 14.3-16.1 9.1c-8.8-5-16-17.4-16-27.6s7.3-14.2 16.1-9.1m0-8.2c-12.7-7.4-23.1-1.4-23.2 13.2s10.3 32.6 23 40c12.8 7.3 23.2 1.4 23.3-13.3s-10.3-32.6-23-40"/>
    <path fill="#ed685d" d="M182.7 1101.3c-12.8-7.3-23.1-25.2-23-39.9s10.4-20.6 23.1-13.2c12.8 7.3 23.1 25.3 23 40s-10.4 20.5-23.1 13.1m.1-54c-13.1-7.5-23.8-1.4-23.9 13.7a52.4 52.4 0 0 0 23.8 41.1c13.1 7.6 23.8 1.5 23.9-13.6a52.4 52.4 0 0 0-23.8-41.1"/>
    <path fill="#ed695d" d="M213 1121.4a19.2 19.2 0 0 1-5 2.5l13.4 23.6-13.4 8c1.8 2.7 3.4 5.4 4.9 8.2l15.6-9.3a2.5 2.5 0 0 0 1-2.2 6.8 6.8 0 0 0-1-3.3l-15.5-27.5"/>
    <path fill="#ed685d" d="M212.9 1163.7a96.8 96.8 0 0 0-4.9-8.2l13.4-8L208 1124a19.2 19.2 0 0 0 5-2.5l15.5 27.5a6.8 6.8 0 0 1 1 3.3 2.5 2.5 0 0 1-1 2.2l-15.6 9.3m0-43.5l-.2.2a18.7 18.7 0 0 1-5.4 2.7h-.3l13.4 23.8-13.5 8.1.3.5a95 95 0 0 1 5.4 9l.3.4 16.1-9.7a3 3 0 0 0 1.2-2.6 8.2 8.2 0 0 0-1.2-4l-16-28.4"/>
    <path fill="#ed695d" d="M182.5 1157.6c8.9 5.1 16 17.5 16 27.6 0 10.2-7.3 14.3-16 9.2a35.2 35.2 0 0 1-16-27.7c0-10.1 7.2-14.2 16-9.1m0-8.2c-12.7-7.4-23.1-1.4-23.2 13.2a50.9 50.9 0 0 0 23 40c12.8 7.3 23.2 1.4 23.3-13.3a50.9 50.9 0 0 0-23-39.9"/>
    <path fill="#ed685d" d="M182.4 1202.6a50.9 50.9 0 0 1-23-40c0-14.6 10.4-20.6 23.1-13.2a50.9 50.9 0 0 1 23 40c0 14.6-10.4 20.5-23.1 13.2m.1-54c-13.1-7.6-23.8-1.5-23.9 13.6a52.4 52.4 0 0 0 23.8 41.2c13.1 7.6 23.9 1.5 23.9-13.7a52.4 52.4 0 0 0-23.8-41.1"/>
  </g>
  <path fill="url(#X)" d="M358.9 1055.3l130.8-78.6v153L358 1207l.9-151.7z" opacity=".5"/>
  <g mask="url(#Y)">
    <path fill="url(#h)" d="M352.1 321.1v559.8L303.3 859V298.1l23.6 40 25.2-17z" opacity=".3"/>
    <path fill="url(#Z)" d="M303.3 587l23.6 40 25.2-17v32.8l-25.2 16.9-23.6-38.8V587z" opacity=".2"/>
    <path fill="url(#aa)" d="M303.3 539.3l23.6 40 25.2-16.9v32.7L326.9 612l-23.6-38.8v-33.9z"/>
    <path fill="url(#ab)" d="M303.3 491.1l23.6 39.9 25.2-16.9v32.7l-25.2 16.9-23.6-38.8v-33.8z" opacity=".6"/>
    <path fill="url(#ac)" d="M303.3 634.2l23.6 39.9 25.2-16.9v32.7l-25.2 16.9-23.6-38.8v-33.8z" opacity=".6"/>
    <path fill="url(#ad)" d="M303.3 394.1l23.6 39.9 25.2-16.9v32.7l-25.2 16.9-23.6-38.8v-33.8z"/>
    <path fill="url(#ae)" d="M303.3 346.4l23.6 39.9 25.2-16.9v32.7L326.9 419l-23.6-38.8v-33.8z" opacity=".6"/>
    <path fill="url(#af)" d="M303.3 298.1l23.6 40 25.2-17v32.8l-25.2 16.9-23.6-38.8v-33.9z" opacity=".2"/>
    <path fill="url(#ag)" d="M303.3 441.2l23.6 39.9 25.2-16.9v32.7l-25.2 16.9-23.6-38.8v-33.8z" opacity=".2"/>
    <path fill="url(#ah)" d="M303.3 778.1l23.6 39.9 25.2-16.9v32.7l-25.2 16.9-23.6-38.8v-33.8z" opacity=".6"/>
    <path fill="url(#ai)" d="M303.3 730.4l23.6 39.9 25.2-16.9v32.7L326.9 803l-23.6-38.8v-33.8z" opacity=".2"/>
    <path fill="url(#aj)" d="M303.3 682.2l23.6 39.9 25.2-16.9v32.7l-25.2 16.9-23.6-38.8v-33.8z"/>
    <path fill="url(#ak)" d="M303.3 825.2l23.6 39.9 25.2-16.9v32.7l-25.2 17-23.6-38.9v-33.8z"/>
  </g>
  <g mask="url(#al)">
    <path fill="url(#k)" d="M228.2 903.4V17.6l50.9 22.9v886.8l-24.7-41.6-26.2 17.7z" opacity=".3"/>
    <path fill="url(#am)" d="M279.1 75.7l-24.7-41.6-26.2 17.7V17.6L254.4 0l24.7 40.5v35.2z"/>
    <path fill="url(#an)" d="M279.1 126.1l-24.7-41.7-26.2 17.7V67.9l26.2-17.6 24.7 40.5v35.3z" opacity=".6"/>
    <path fill="url(#ao)" d="M279.1 227.3l-24.7-41.7-26.2 17.7v-34.1l26.2-17.7 24.7 40.5v35.3z"/>
    <path fill="url(#ap)" d="M279.1 277l-24.7-41.6-26.2 17.6v-34.1l26.2-17.6 24.7 40.4V277z" opacity=".6"/>
    <path fill="url(#aq)" d="M279.1 327.3l-24.7-41.6-26.2 17.6v-34.1l26.2-17.6 24.7 40.4v35.3z" opacity=".2"/>
    <path fill="url(#ar)" d="M279.1 178.1l-24.7-41.6-26.2 17.6V120l26.2-17.6 24.7 40.4v35.3z" opacity=".2"/>
    <path fill="url(#as)" d="M279.1 626.1l-24.7-41.7-26.2 17.7V568l26.2-17.7 24.7 40.5v35.3z" opacity=".2"/>
    <path fill="url(#at)" d="M279.1 675.8l-24.7-41.6-26.2 17.6v-34.1l26.2-17.7 24.7 40.5v35.3z"/>
    <path fill="url(#au)" d="M279.1 726.1l-24.7-41.6-26.2 17.6V668l26.2-17.6 24.7 40.4v35.3z" opacity=".6"/>
    <path fill="url(#av)" d="M279.1 576.9l-24.7-41.6-26.2 17.6v-34.1l26.2-17.6 24.7 40.4v35.3z" opacity=".6"/>
    <path fill="url(#aw)" d="M279.1 827.3l-24.7-41.6-26.2 17.6v-34.1l26.2-17.6 24.7 40.4v35.3z"/>
    <path fill="url(#ax)" d="M279.1 877l-24.7-41.6-26.2 17.6v-34.1l26.2-17.6 24.7 40.5V877z" opacity=".6"/>
    <path fill="url(#ay)" d="M279.1 927.3l-24.7-41.6-26.2 17.7v-34.2l26.2-17.6 24.7 40.5v35.2z" opacity=".2"/>
    <path fill="url(#az)" d="M279.1 778.2l-24.7-41.7-26.2 17.7v-34.1l26.2-17.7 24.7 40.5v35.3z" opacity=".2"/>
    <path fill="url(#aA)" d="M279.1 426.8l-24.7-41.6-26.2 17.6v-34.1l26.2-17.6 24.7 40.4v35.3z" opacity=".6"/>
    <path fill="url(#aB)" d="M279.1 476.5l-24.7-41.6-26.2 17.6v-34.1l26.2-17.6 24.7 40.5v35.2z" opacity=".2"/>
    <path fill="url(#aC)" d="M279.1 526.8l-24.7-41.6-26.2 17.6v-34.1l26.2-17.6 24.7 40.5v35.2z"/>
    <path fill="url(#aD)" d="M279.1 377.7L254.4 336l-26.2 17.7v-34.1l26.2-17.7 24.7 40.5v35.3z"/>
  </g>
</svg>