<svg xmlns="http://www.w3.org/2000/svg" xmlns:xlink="http://www.w3.org/1999/xlink" viewBox="0 0 567.6 552.3">
  <defs>
    <linearGradient id="a" x1="447" x2="533.5" y1="230.2" y2="230.2" gradientUnits="userSpaceOnUse">
      <stop offset="0" stop-color="#e8e8e8"/>
      <stop offset=".6" stop-color="#e2e2e2"/>
      <stop offset="1" stop-color="#d8d8d8"/>
    </linearGradient>
    <linearGradient id="e" x1="447" x2="533.5" y1="257.8" y2="257.8" xlink:href="#a"/>
    <linearGradient id="f" x1="447" x2="533.5" y1="199.1" y2="199.1" xlink:href="#a"/>
    <linearGradient id="g" x1="447" x2="533.5" y1="182.5" y2="182.5" xlink:href="#a"/>
    <linearGradient id="h" x1="447" x2="533.5" y1="274" y2="274" xlink:href="#a"/>
    <linearGradient id="i" x1="447" x2="533.5" y1="305.5" y2="305.5" xlink:href="#a"/>
    <linearGradient id="b" x1="671.5" x2="445.4" y1="135.3" y2="94.2" gradientUnits="userSpaceOnUse">
      <stop offset="0" stop-color="#414395"/>
      <stop offset="1" stop-color="#8988c2"/>
    </linearGradient>
    <linearGradient id="j" x1="670.8" x2="444.3" y1="142.2" y2="101.1" xlink:href="#b"/>
    <linearGradient id="k" x1="669.2" x2="443.2" y1="149" y2="108" xlink:href="#b"/>
    <linearGradient id="l" x1="668.6" x2="442.2" y1="156" y2="114.9" xlink:href="#b"/>
    <linearGradient id="m" x1="667.2" x2="441.1" y1="162.8" y2="121.8" xlink:href="#b"/>
    <linearGradient id="n" x1="679.7" x2="446.2" y1="130.3" y2="88" xlink:href="#b"/>
    <linearGradient id="o" x1="679" x2="442.5" y1="152.5" y2="109.5" xlink:href="#b"/>
    <linearGradient id="p" x1="680.2" x2="443.7" y1="145.1" y2="102.2" xlink:href="#b"/>
    <linearGradient id="q" x1="681.6" x2="445" y1="137.7" y2="94.8" xlink:href="#b"/>
    <linearGradient id="r" x1="674.8" x2="441.6" y1="158.7" y2="116.4" xlink:href="#b"/>
    <linearGradient id="s" x1="670.6" x2="442.7" y1="154" y2="112.6" xlink:href="#b"/>
    <linearGradient id="t" x1="675.4" x2="442.8" y1="150.8" y2="108.6" xlink:href="#b"/>
    <linearGradient id="u" x1="676.6" x2="441.4" y1="157.3" y2="114.6" xlink:href="#b"/>
    <linearGradient id="v" x1="673.3" x2="440.8" y1="163" y2="120.8" xlink:href="#b"/>
    <linearGradient id="w" x1="672.5" x2="444.5" y1="144.1" y2="102.7" xlink:href="#b"/>
    <linearGradient id="x" x1="671.8" x2="443.7" y1="148.8" y2="107.4" xlink:href="#b"/>
    <linearGradient id="y" x1="671.1" x2="442.9" y1="153.5" y2="112.1" xlink:href="#b"/>
    <linearGradient id="z" x1="670.2" x2="442.2" y1="158.2" y2="116.8" xlink:href="#b"/>
    <linearGradient id="A" x1="677.2" x2="443.9" y1="140.7" y2="98.4" xlink:href="#b"/>
    <linearGradient id="B" x1="673.3" x2="436.5" y1="179.4" y2="136.4" xlink:href="#b"/>
    <linearGradient id="C" x1="674.7" x2="437.8" y1="171.6" y2="128.6" xlink:href="#b"/>
    <linearGradient id="D" x1="676.1" x2="439.1" y1="163.9" y2="120.9" xlink:href="#b"/>
    <linearGradient id="E" x1="677.2" x2="440.5" y1="156.1" y2="113.1" xlink:href="#b"/>
    <linearGradient id="F" x1="678.8" x2="441.8" y1="148.3" y2="105.3" xlink:href="#b"/>
    <linearGradient id="G" x1="669.9" x2="436.5" y1="186.1" y2="143.8" xlink:href="#b"/>
    <linearGradient id="H" x1="668.5" x2="439" y1="178.3" y2="136.6" xlink:href="#b"/>
    <linearGradient id="I" x1="668.1" x2="438.6" y1="180.9" y2="139.3" xlink:href="#b"/>
    <linearGradient id="J" x1="667.8" x2="438.1" y1="183.6" y2="141.9" xlink:href="#b"/>
    <linearGradient id="K" x1="671.3" x2="437.6" y1="176.7" y2="134.2" xlink:href="#b"/>
    <linearGradient id="L" x1="669" x2="431.1" y1="205" y2="161.8" xlink:href="#b"/>
    <linearGradient id="M" x1="670.2" x2="432.3" y1="197.9" y2="154.7" xlink:href="#b"/>
    <linearGradient id="N" x1="671.4" x2="433.5" y1="190.8" y2="147.7" xlink:href="#b"/>
    <linearGradient id="O" x1="672.5" x2="434.8" y1="183.8" y2="140.6" xlink:href="#b"/>
    <linearGradient id="P" x1="666.3" x2="431.6" y1="211" y2="168.4" xlink:href="#b"/>
    <linearGradient id="Q" x1="669.4" x2="441.3" y1="162" y2="120.6" xlink:href="#b"/>
    <linearGradient id="R" x1="668.6" x2="440.6" y1="166.8" y2="125.4" xlink:href="#b"/>
    <linearGradient id="S" x1="674.3" x2="441.8" y1="158.6" y2="116.4" xlink:href="#b"/>
    <linearGradient id="T" x1="674.7" x2="439.7" y1="170.2" y2="127.5" xlink:href="#b"/>
    <linearGradient id="U" x1="675.6" x2="440.8" y1="164.3" y2="121.6" xlink:href="#b"/>
    <linearGradient id="V" x1="671.5" x2="439.1" y1="175.1" y2="132.9" xlink:href="#b"/>
    <linearGradient id="W" x1="670.3" x2="440.6" y1="167.2" y2="125.5" xlink:href="#b"/>
    <linearGradient id="X" x1="669.7" x2="440" y1="171.1" y2="129.3" xlink:href="#b"/>
    <linearGradient id="Y" x1="673.8" x2="440.6" y1="164.2" y2="121.9" xlink:href="#b"/>
    <linearGradient id="Z" x1="675.6" x2="438.7" y1="172.4" y2="129.4" xlink:href="#b"/>
    <linearGradient id="aa" x1="671.4" x2="438.1" y1="179.5" y2="137.1" xlink:href="#b"/>
    <linearGradient id="ab" x1="670.1" x2="442.2" y1="159.1" y2="117.8" xlink:href="#b"/>
    <linearGradient id="ac" x1="669.3" x2="441.4" y1="164.2" y2="122.8" xlink:href="#b"/>
    <linearGradient id="ad" x1="668.5" x2="440.6" y1="169.2" y2="127.9" xlink:href="#b"/>
    <linearGradient id="ae" x1="667.7" x2="439.8" y1="174.3" y2="132.9" xlink:href="#b"/>
    <linearGradient id="af" x1="674.9" x2="441.6" y1="155.5" y2="113.1" xlink:href="#b"/>
    <linearGradient id="ag" x1="671.4" x2="434.5" y1="192.2" y2="149.2" xlink:href="#b"/>
    <linearGradient id="ah" x1="672.7" x2="435.7" y1="184.9" y2="141.9" xlink:href="#b"/>
    <linearGradient id="ai" x1="673.9" x2="437" y1="177.5" y2="134.5" xlink:href="#b"/>
    <linearGradient id="aj" x1="675.1" x2="438.3" y1="170.2" y2="127.2" xlink:href="#b"/>
    <linearGradient id="ak" x1="676.4" x2="439.5" y1="162.8" y2="119.8" xlink:href="#b"/>
    <linearGradient id="al" x1="668.8" x2="434.1" y1="198.9" y2="156.3" xlink:href="#b"/>
    <linearGradient id="am" x1="666.5" x2="434.1" y1="203.1" y2="160.9" xlink:href="#b"/>
    <linearGradient id="an" x1="666.7" x2="434.3" y1="201.8" y2="159.6" xlink:href="#b"/>
    <linearGradient id="ao" x1="667.1" x2="434.5" y1="200.5" y2="158.3" xlink:href="#b"/>
    <linearGradient id="ap" x1="667" x2="433" y1="205" y2="162.5" xlink:href="#b"/>
    <linearGradient id="aq" x1="666.8" x2="431.3" y1="211" y2="168.3" xlink:href="#b"/>
    <linearGradient id="ar" x1="668.4" x2="435.9" y1="193.5" y2="151.3" xlink:href="#b"/>
    <linearGradient id="as" x1="469.1" x2="364" y1="460.3" y2="435.2" gradientUnits="userSpaceOnUse">
      <stop offset="0" stop-color="#5666ad"/>
      <stop offset="1" stop-color="#514797"/>
    </linearGradient>
    <radialGradient id="at" cx="350.4" cy="410.6" r="195" gradientTransform="translate(4 4.2) scale(.9847)" gradientUnits="userSpaceOnUse">
      <stop offset="0" stop-color="#5165ac"/>
      <stop offset="1" stop-color="#514797"/>
    </radialGradient>
    <linearGradient id="c" x1="274.7" x2="293.2" y1="294.3" y2="294.3" gradientUnits="userSpaceOnUse">
      <stop offset="0" stop-color="#cccdce"/>
      <stop offset=".5" stop-color="#c6c7c8"/>
      <stop offset="1" stop-color="#bababa"/>
    </linearGradient>
    <linearGradient id="au" x1="265.6" x2="302.2" y1="285.7" y2="285.7" xlink:href="#c"/>
    <linearGradient id="av" x1="265.6" x2="302.2" y1="278.6" y2="278.6" xlink:href="#c"/>
    <linearGradient id="aw" x1="265.6" x2="302.3" y1="271.6" y2="271.6" xlink:href="#c"/>
    <linearGradient id="d" x1="391.7" x2="430.4" y1="247.1" y2="247.1" gradientTransform="matrix(-.92202 0 0 1 400.3 0)" gradientUnits="userSpaceOnUse">
      <stop offset="0" stop-color="#cac9c9"/>
      <stop offset=".4" stop-color="#c4c3c3"/>
      <stop offset="1" stop-color="#b3b2b2"/>
    </linearGradient>
    <linearGradient id="ax" x1="250.6" x2="528.8" y1="430.8" y2="92.1" xlink:href="#d"/>
    <linearGradient id="ay" x1="232.3" x2="420.9" y1="319.3" y2="442.6" gradientTransform="matrix(-.92202 0 0 1 400.3 0)" gradientUnits="userSpaceOnUse">
      <stop offset="0" stop-color="#6c71b4"/>
      <stop offset="1" stop-color="#494e9c"/>
    </linearGradient>
    <linearGradient id="az" x1="229.4" x2="418.7" y1="389.1" y2="389.1" gradientTransform="matrix(-.92202 0 0 1 400.3 0)" gradientUnits="userSpaceOnUse">
      <stop offset="0" stop-color="#fdfdfd"/>
      <stop offset=".3" stop-color="#f7f7f7"/>
      <stop offset=".6" stop-color="#e8e4e5"/>
      <stop offset="1" stop-color="#d0c9cb"/>
    </linearGradient>
    <clipPath id="aA">
      <path fill="none" d="M29.7 386.3l.3-109.5 129.7 74.9-.3 109.4-129.7-74.8z"/>
    </clipPath>
  </defs>
  <path fill="#fff" d="M565.5 389.8v-288c0-3.4-.7-5.4-3-7L428 3.8c1.6 1 2.7 21.4 2.7 24.7l1.7 270.2z"/>
  <path fill="#e5e4e4" d="M429.4.9c-2-1.4-4.8-1.2-7.8 1a22.9 22.9 0 0 0-6.2 6.9 33.4 33.4 0 0 0-4.1 10.5 24.6 24.6 0 0 0-.6 5l.1 9.3a.6.6 0 0 0 .2.5l134 91.1-.2-.4v-9.3a25.3 25.3 0 0 1 .5-5 33.6 33.6 0 0 1 4.1-10.6 22.3 22.3 0 0 1 6.2-7c3.1-2 5.2-2 7.9-1z"/>
  <path fill="#d7d7d7" d="M555.6 93c6-4.2 11.9-1 12 7.3v288.1l-2 1.4v-288c-.1-6.8-5-9.5-10-6.1-5 3.4-8.9 11.7-8.8 18.4v9.1a2.5 2.5 0 0 1-1 2.1c-.4.3-1 0-1-.7v-9.1A30 30 0 0 1 555.5 93z"/>
  <path fill="url(#a)" d="M525.4 251c1.6 1.2 3 4.2 3 7 0 2.6-1.4 4-3 2.8L481.1 231l-31.8-21.5c-1.6-1.1-2.9-4.2-2.9-6.8 0-2.7 1.3-4 2.9-3l31.8 21.6z"/>
  <path fill="url(#e)" d="M532.5 281c1.7 1 3.1 4.2 3.1 7 0 2.6-1.4 3.8-3.1 2.6l-48.2-32.5-34.7-23.4c-1.7-1.3-3.1-4.4-3.1-7 0-2.7 1.3-4 3-2.8l34.7 23.4z"/>
  <path fill="url(#f)" d="M508 214.3c1.3.8 2.3 3.7 2.3 6.4s-1 4.2-2.3 3.3l-34.5-23.3-24.9-16.8c-1.2-1-2.3-3.8-2.3-6.4 0-2.7 1-4.2 2.3-3.4l24.8 16.8z"/>
  <path fill="url(#g)" d="M532.3 205.6c1.7 1.2 3.2 4.4 3.2 7 0 2.7-1.4 4-3.2 2.8l-48.2-32.6-34.6-23.4c-1.8-1.2-3.2-4.4-3.2-7 0-2.7 1.4-4 3.1-2.8l34.7 23.4z"/>
  <path fill="url(#h)" d="M507 288.8c1.3.8 2.3 3.7 2.3 6.4s-1 4.2-2.3 3.3l-33.9-22.9-24.4-16.5c-1.2-.8-2.2-3.7-2.2-6.4 0-2.6 1-4.1 2.2-3.3l24.4 16.5z"/>
  <path fill="url(#i)" d="M525.6 326.4c1.6 1 2.9 4.1 2.9 6.8s-1.3 4-3 3l-44.2-30-31.8-21.5c-1.6-1.1-3-4.2-3-6.9 0-2.6 1.3-4 3-2.9l31.8 21.5z"/>
  <path fill="url(#b)" d="M447.7 93.3a.4.4 0 0 1 .7-.3 1.7 1.7 0 0 1 .4 1.5l-.3 1.6a.5.5 0 0 1-.8.3 1.7 1.7 0 0 1-.4-1.5z"/>
  <path fill="url(#j)" d="M446.2 103.2a1.7 1.7 0 0 1-.4-1.5l.4-1.6a.5.5 0 0 1 .7-.3 1.7 1.7 0 0 1 .4 1.5l-.3 1.6a.5.5 0 0 1-.8.3z"/>
  <path fill="url(#k)" d="M444.7 110a1.7 1.7 0 0 1-.4-1.5l.4-1.6a.4.4 0 0 1 .7-.3 1.7 1.7 0 0 1 .4 1.5l-.3 1.6a.5.5 0 0 1-.8.3z"/>
  <path fill="url(#l)" d="M443.2 116.8a1.7 1.7 0 0 1-.4-1.5l.4-1.6a.4.4 0 0 1 .8-.3 1.6 1.6 0 0 1 .4 1.5l-.4 1.7a.4.4 0 0 1-.8.2z"/>
  <path fill="url(#m)" d="M441.7 123.7a1.7 1.7 0 0 1-.3-1.5l.3-1.7a.5.5 0 0 1 .8-.3 1.7 1.7 0 0 1 .4 1.5l-.4 1.7a.4.4 0 0 1-.8.3z"/>
  <path fill="url(#n)" d="M449 87.5a.5.5 0 0 1 .8-.1l.8 2a.6.6 0 0 1-.2.7h-.2a.3.3 0 0 1-.4-.2.1.1 0 0 1-.2.1l-.4-.4a1.6 1.6 0 0 1-.4-1.5z"/>
  <path fill="url(#o)" d="M459.1 110.7a.5.5 0 0 1 .7.3l1.3 3a.6.6 0 0 1-.2.8.5.5 0 0 1-.7-.3l-1.3-3.1a.6.6 0 0 1 .2-.7z"/>
  <path fill="url(#p)" d="M455.4 103.1a.6.6 0 0 1 .2-.7.5.5 0 0 1 .7.3l1.3 3.1a.6.6 0 0 1-.2.7.5.5 0 0 1-.7-.3z"/>
  <path fill="url(#q)" d="M452 95a.6.6 0 0 1 .2-.8.5.5 0 0 1 .6.3l1.3 3a.6.6 0 0 1-.2.8.5.5 0 0 1-.7-.3z"/>
  <path fill="url(#r)" d="M463.5 119.7a.5.5 0 0 1 .8.2l.1.3a1.2 1.2 0 0 1-.2 1.4.7.7 0 0 1-1-.3l-.8-1.7a.6.6 0 0 1 .2-.7.5.5 0 0 1 .7.3l.2.5z"/>
  <path fill="url(#s)" d="M467.8 116a.7.7 0 0 1 1.1.2 1.2 1.2 0 0 1-.2 1.4l-.9.8a.7.7 0 0 1-1.1-.2 1.2 1.2 0 0 1 .2-1.5z"/>
  <path fill="url(#t)" d="M471.4 112.7a.7.7 0 0 1 1 .2l.9 1.3a.9.9 0 0 1 0 1 .4.4 0 0 1-.7 0l-.4-.7a.6.6 0 0 1-1-.2v-.2a1.2 1.2 0 0 1 .2-1.4z"/>
  <path fill="url(#u)" d="M475.7 119.1a.4.4 0 0 1 .6 0l1.9 3a.9.9 0 0 1 0 1 .4.4 0 0 1-.7 0l-1.8-3a.9.9 0 0 1 0-1z"/>
  <path fill="url(#v)" d="M481.6 127.6a.5.5 0 0 1 .9 0v.2a1.4 1.4 0 0 1 0 1.5.6.6 0 0 1-1 0l-.9-1.4a.9.9 0 0 1 0-1 .4.4 0 0 1 .7.1l.3.6z"/>
  <path fill="url(#w)" d="M494.8 110.7a.6.6 0 0 1 1 0 1.4 1.4 0 0 1 0 1.6l-.6.7a.6.6 0 0 1-1 0 1.4 1.4 0 0 1 0-1.6z"/>
  <path fill="url(#x)" d="M490.9 117.2a1.4 1.4 0 0 1 0-1.6l.6-.6a.6.6 0 0 1 1 0 1.4 1.4 0 0 1 0 1.6l-.6.6a.6.6 0 0 1-1 0z"/>
  <path fill="url(#y)" d="M487.6 121.4a1.4 1.4 0 0 1 0-1.5l.6-.7a.6.6 0 0 1 1 .1 1.4 1.4 0 0 1 0 1.5l-.6.7a.6.6 0 0 1-1 0z"/>
  <path fill="url(#z)" d="M484.2 125.7a1.4 1.4 0 0 1 .1-1.6l.5-.6a.6.6 0 0 1 1 0 1.4 1.4 0 0 1 0 1.6l-.5.7a.6.6 0 0 1-1-.1z"/>
  <path fill="url(#A)" d="M497.6 107a.6.6 0 0 1 1 .2l.8 1.8a.6.6 0 0 1-.2.7.5.5 0 0 1-.7-.3l-.2-.4a.4.4 0 0 1-.6 0l-.2-.3a1.5 1.5 0 0 1 .1-1.7z"/>
  <path fill="url(#B)" d="M515.3 148.7a.5.5 0 0 1 .7.4l1.4 3.2a.6.6 0 0 1-.3.8.5.5 0 0 1-.6-.4l-1.4-3.2a.6.6 0 0 1 .2-.8z"/>
  <path fill="url(#C)" d="M511.5 140.8a.6.6 0 0 1 .2-.7.5.5 0 0 1 .7.3l1.4 3.3a.6.6 0 0 1-.3.7.5.5 0 0 1-.6-.3z"/>
  <path fill="url(#D)" d="M507.9 132.1a.6.6 0 0 1 .2-.7.5.5 0 0 1 .7.3l1.4 3.3a.6.6 0 0 1-.3.7.5.5 0 0 1-.6-.3z"/>
  <path fill="url(#E)" d="M504.3 123.4a.6.6 0 0 1 .3-.7.5.5 0 0 1 .6.3l1.4 3.3a.6.6 0 0 1-.2.8.5.5 0 0 1-.7-.4z"/>
  <path fill="url(#F)" d="M500.7 114.8a.6.6 0 0 1 .3-.7.5.5 0 0 1 .7.3l1.3 3.3a.6.6 0 0 1-.2.7.5.5 0 0 1-.7-.3z"/>
  <path fill="url(#G)" d="M519 157.4a.5.5 0 0 1 .6.3l.3.7a.7.7 0 0 1 .9.4v.2a1 1 0 0 1-.3 1.2.8.8 0 0 1-1.1-.5l-.7-1.6a.6.6 0 0 1 .2-.7z"/>
  <path fill="url(#H)" d="M531.7 152.5a.9.9 0 0 1 1.2.5 1 1 0 0 1-.4 1.3l-.4.2a.9.9 0 0 1-1.2-.5 1 1 0 0 1 .4-1.3z"/>
  <path fill="url(#I)" d="M526.9 156a1 1 0 0 1 .4-1.3l.4-.2a.9.9 0 0 1 1.2.5 1 1 0 0 1-.4 1.3l-.4.2a.9.9 0 0 1-1.2-.5z"/>
  <path fill="url(#J)" d="M522.9 158a1 1 0 0 1 .4-1.3l.4-.2a.9.9 0 0 1 1.2.5 1 1 0 0 1-.4 1.3l-.5.2a.9.9 0 0 1-1.1-.5z"/>
  <path fill="url(#K)" d="M535.4 150.7a.8.8 0 0 1 1 .6l.5 1.7a.4.4 0 0 1-.4.6.8.8 0 0 1-.7-.6v-.3a.5.5 0 0 1-.7-.3l-.2-.4a1 1 0 0 1 .5-1.3z"/>
  <path fill="url(#L)" d="M543.5 180.4a.8.8 0 0 1 .7.7l.6 2.5a.4.4 0 0 1-.3.6.8.8 0 0 1-.7-.7l-.7-2.5a.4.4 0 0 1 .4-.6z"/>
  <path fill="url(#M)" d="M541.5 172.7a.9.9 0 0 1 .7.7l.7 2.6a.4.4 0 0 1-.4.6.8.8 0 0 1-.7-.7l-.7-2.6a.4.4 0 0 1 .4-.6z"/>
  <path fill="url(#N)" d="M539.5 165.1a.8.8 0 0 1 .7.7l.7 2.5a.4.4 0 0 1-.4.6.8.8 0 0 1-.7-.6l-.7-2.6a.4.4 0 0 1 .4-.6z"/>
  <path fill="url(#O)" d="M537.5 157.5a.8.8 0 0 1 .7.6l.7 2.6a.4.4 0 0 1-.4.6.8.8 0 0 1-.7-.7l-.7-2.6a.4.4 0 0 1 .4-.5z"/>
  <path fill="url(#P)" d="M545.4 188a.8.8 0 0 1 .8.7l.2.9a.4.4 0 0 1-.4.6.8.8 0 0 1-.7-.7l-.2-.9a.4.4 0 0 1 .3-.6z"/>
  <path fill="url(#Q)" d="M447.2 120.6a.6.6 0 0 1 1 0 1.4 1.4 0 0 1 0 1.6l-.6.7a.6.6 0 0 1-1-.1 1.4 1.4 0 0 1 0-1.6z"/>
  <path fill="url(#R)" d="M443.2 127a1.4 1.4 0 0 1 0-1.5l.6-.7a.6.6 0 0 1 1 .1 1.4 1.4 0 0 1 0 1.5l-.5.7a.6.6 0 0 1-1.1 0z"/>
  <path fill="url(#S)" d="M450 117a.7.7 0 0 1 1.1 0l.8 1a1.1 1.1 0 0 1 .1 1.1.3.3 0 0 1-.6.1l-.4-.6a.6.6 0 0 1-1 0 1.4 1.4 0 0 1 0-1.6z"/>
  <path fill="url(#T)" d="M460.1 129.7a.3.3 0 0 1 .7 0l2 2.5a1.1 1.1 0 0 1 0 1 .3.3 0 0 1-.6.1l-2-2.5a1 1 0 0 1 0-1z"/>
  <path fill="url(#U)" d="M454.9 123.7a1.1 1.1 0 0 1-.2-1 .3.3 0 0 1 .7-.2l2 2.6a1 1 0 0 1 0 1 .3.3 0 0 1-.6.2z"/>
  <path fill="url(#V)" d="M466.6 137.2a.5.5 0 0 1 1 0 1.5 1.5 0 0 1 0 1.7.6.6 0 0 1-1.1 0l-.8-1a1.1 1.1 0 0 1-.1-1.1.4.4 0 0 1 .6-.1l.4.5z"/>
  <path fill="url(#W)" d="M471.5 130.3a.6.6 0 0 1 1 0 1.4 1.4 0 0 1 0 1.6l-.1.2a.6.6 0 0 1-1 0 1.5 1.5 0 0 1 0-1.6z"/>
  <path fill="url(#X)" d="M468.8 135.6a1.5 1.5 0 0 1 0-1.6l.2-.2a.6.6 0 0 1 1 0 1.4 1.4 0 0 1 0 1.6l-.1.2a.6.6 0 0 1-1 0z"/>
  <path fill="url(#Y)" d="M474 126.9a.6.6 0 0 1 1 .1l.7 1.8a.6.6 0 0 1-.3.8.5.5 0 0 1-.6-.4l-.2-.3a.4.4 0 0 1-.6 0l-.2-.3a1.5 1.5 0 0 1 .1-1.7z"/>
  <path fill="url(#Z)" d="M477.4 134.3a.5.5 0 0 1 .7.3l1.6 3.6a.6.6 0 0 1-.3.8.5.5 0 0 1-.6-.3l-1.6-3.7a.6.6 0 0 1 .2-.7z"/>
  <path fill="url(#aa)" d="M482.3 144.3a.4.4 0 0 1 .6 0l.2.4a1.4 1.4 0 0 1 0 1.5.6.6 0 0 1-1.2 0l-.7-1.8a.6.6 0 0 1 .2-.7.5.5 0 0 1 .7.3l.2.3z"/>
  <path fill="url(#ab)" d="M495.4 126.3a.6.6 0 0 1 1 0 1.4 1.4 0 0 1 0 1.6l-.6.8a.6.6 0 0 1-1 0 1.4 1.4 0 0 1 0-1.6z"/>
  <path fill="url(#ac)" d="M491.5 133.2a1.4 1.4 0 0 1 0-1.6l.6-.7a.6.6 0 0 1 1 0 1.4 1.4 0 0 1 0 1.6l-.6.8a.6.6 0 0 1-1 0z"/>
  <path fill="url(#ad)" d="M488.1 137.8a1.4 1.4 0 0 1 0-1.5l.7-.8a.6.6 0 0 1 1 0 1.4 1.4 0 0 1 0 1.6l-.6.7a.6.6 0 0 1-1 0z"/>
  <path fill="url(#ae)" d="M484.8 142.4a1.4 1.4 0 0 1 0-1.5l.6-.9a.6.6 0 0 1 1 0 1.4 1.4 0 0 1 0 1.6l-.6.8a.6.6 0 0 1-1 0z"/>
  <path fill="url(#af)" d="M498.3 122.4a.6.6 0 0 1 1 .1l.7 1.9a.5.5 0 0 1-.3.7.6.6 0 0 1-.7-.4v-.3a.3.3 0 0 1-.6 0l-.2-.4a1.5 1.5 0 0 1 .1-1.6z"/>
  <path fill="url(#ag)" d="M513.5 161.7a.6.6 0 0 1 .7.4l1.1 3a.5.5 0 0 1-.2.6.6.6 0 0 1-.7-.4l-1.2-3a.5.5 0 0 1 .3-.6z"/>
  <path fill="url(#ah)" d="M510.2 154.2a.5.5 0 0 1 .3-.7.6.6 0 0 1 .7.4l1 3a.5.5 0 0 1-.2.7.6.6 0 0 1-.7-.4z"/>
  <path fill="url(#ai)" d="M507.1 146a.5.5 0 0 1 .3-.6.6.6 0 0 1 .7.4l1.1 3a.5.5 0 0 1-.3.7.6.6 0 0 1-.7-.4z"/>
  <path fill="url(#aj)" d="M504 138a.5.5 0 0 1 .3-.7.6.6 0 0 1 .7.4l1.2 3a.5.5 0 0 1-.3.6.6.6 0 0 1-.7-.4z"/>
  <path fill="url(#ak)" d="M501 129.8a.5.5 0 0 1 .3-.7.6.6 0 0 1 .7.4l1 3a.5.5 0 0 1-.2.7.6.6 0 0 1-.7-.4z"/>
  <path fill="url(#al)" d="M516.6 169.8a.6.6 0 0 1 .7.4l.4 1 .3.1a1.5 1.5 0 0 1 .8 1.2c0 .4-.3.8-.6.6h-.2a2.5 2.5 0 0 1-1.3-1.5l-.4-1.1a.5.5 0 0 1 .3-.7z"/>
  <path fill="url(#am)" d="M532.6 178a1.5 1.5 0 0 1 .8 1.2c0 .4-.3.7-.6.6l-1-.5a1.5 1.5 0 0 1-.8-1.2c0-.4.3-.7.6-.5z"/>
  <path fill="url(#an)" d="M526 175.9c0-.4.4-.7.7-.6l1 .5a1.5 1.5 0 0 1 .8 1.2c0 .4-.3.7-.6.6l-1-.5a1.5 1.5 0 0 1-.8-1.2z"/>
  <path fill="url(#ao)" d="M521.2 173.7c0-.4.3-.7.6-.6l1 .5a1.5 1.5 0 0 1 .8 1.2c0 .4-.2.7-.6.5l-1-.4a1.5 1.5 0 0 1-.8-1.2z"/>
  <path fill="url(#ap)" d="M536.6 179.9a2.9 2.9 0 0 1 1.3 1.2l.5 1a.7.7 0 0 1-.1.9.4.4 0 0 1-.7-.2l-.6-1-.4-.2a1.4 1.4 0 0 1-.7-1.2.5.5 0 0 1 .7-.5z"/>
  <path fill="url(#aq)" d="M540.1 186.4a.4.4 0 0 1 .7.2l1.3 2.5a.7.7 0 0 1 0 .8.4.4 0 0 1-.7-.1l-1.4-2.5a.7.7 0 0 1 .1-.9z"/>
  <path fill="url(#ar)" d="M548 196.9l-108-68.4.7-1.5 108 68.4-.7 1.5z"/>
  <path fill="url(#as)" d="M397.8 357.6l44.2 15.2 28.4 31.9-.3 23.7-142.3 83.8-16.1-9.9-11.2-24.4V453l8.6-26.9 31.5-42.3 57.2-26.2z"/>
  <path fill="#6d87c4" d="M442 372.8l-28.3-5.1-50.8 27.9-28.8 48-6.6 43.2.3 25.4-16.1-9.9-.3-25.5 6.6-43.2 28.8-47.9 51-28.1 44.2 15.2z"/>
  <path fill="#4d53a0" d="M300.5 453l10.9 23.8.3 25.5-11.2-24.4V453z"/>
  <path fill="#6e83c0" d="M318 433.6l-6.6 43.2-10.9-23.8 8.6-26.9 8.9 7.5z"/>
  <path fill="#7088c4" d="M346.8 385.7L318 433.6l-8.9-7.5 31.5-42.3 6.2 1.9z"/>
  <path fill="#6e90ca" d="M340.6 383.8l6.2 1.9 51-28.1-57.2 26.2z"/>
  <path fill="#5874b7" d="M397.8 357.6l15.9 10.1-50.8 27.9-16.1-9.9 51-28.1z"/>
  <path fill="#6482c1" d="M346.8 385.7L318 433.6l16.1 10 28.8-48-16.1-9.9z"/>
  <path fill="#4f5aa5" d="M318 433.6l-6.6 43.2 16.1 10 6.6-43.2-16.1-10z"/>
  <path fill="#5057a3" d="M311.4 476.8l.3 25.5 16.1 9.9-.3-25.4-16.1-10z"/>
  <path fill="#504f9d" d="M327.5 486.8l-15.8 15.5 16.1 9.9-.3-25.4z"/>
  <path fill="#6e83c0" d="M318 433.6l9.5 53.2 6.6-43.2-16.1-10z"/>
  <path fill="#6f8fc9" d="M362.9 395.6l-44.9 38 16.1 10 28.8-48z"/>
  <path fill="#6481c0" d="M397.8 357.6l-34.9 38 50.8-27.9-15.9-10.1z"/>
  <path fill="#6590cb" d="M340.6 383.8L318 433.6l28.8-47.9-6.2-1.9z"/>
  <path fill="#5865ac" d="M318 433.6L300.5 453l10.9 23.8 6.6-43.2z"/>
  <path fill="#4e55a1" d="M300.5 453l11.2 49.3-.3-25.5-10.9-23.8z"/>
  <path fill="#7088c4" d="M399.5 415.3l-28.8 48 34.5-1.1-5.7-46.9z"/>
  <path fill="#4d509e" d="M491.2 417.1l12.3-8.6-52.3-22.4 40 31z"/>
  <path fill="#5662aa" d="M364.1 506.5l.3 25.5-20.5-36.9 20.2 11.4z"/>
  <path fill="#505aa5" d="M344.2 520.6l20.2 11.4-20.5-36.9.3 25.5z"/>
  <path fill="#6d81bf" d="M370.7 463.3l-26.8 31.8 20.2 11.4 6.6-43.2z"/>
  <path fill="#688fca" d="M370.7 463.3l-20.2-11.4 28.8-47.9-8.6 59.3z"/>
  <path fill="#7497cf" d="M370.7 463.3l28.8-48-20.2-11.3-8.6 59.3z"/>
  <path fill="#7291ca" d="M370.7 463.3l-20.2-11.4-6.6 43.2 26.8-31.8z"/>
  <path fill="#6f8cc7" d="M399.5 415.3L379.3 404l71.9-17.9-51.7 29.2z"/>
  <path fill="#7094cd" d="M430.1 376l-50.8 28 71.9-17.9-21.1-10.1z"/>
  <path fill="#4e57a3" d="M451.2 386.1L430.1 376l33.8 8.6 39.6 23.9-52.3-22.4z"/>
  <path fill="#4e58a3" d="M406.1 506.7l.5 31.8-42.2-6.5-.3-25.5 42 .2z"/>
  <path fill="#728bc6" d="M405.2 462.2l.9 44.5-42-.2 6.6-43.2 34.5-1.1z"/>
  <path fill="#728dc7" d="M432.1 452.3l-26.9 9.9-5.7-46.9 32.6 37z"/>
  <path fill="#4e57a3" d="M447.5 497.6l43.7-80.5-59.1 35.2 15.4 45.3z"/>
  <path fill="#4f519e" d="M447.5 497.6l43.7-80.5 14.3 45.1-58 35.4z"/>
  <path fill="#6474b7" d="M491.2 417.1l-91.7-1.8 32.6 37 59.1-35.2z"/>
  <path fill="#5b69af" d="M491.2 417.1l-91.7-1.8 51.7-29.2 40 31z"/>
  <path fill="url(#at)" d="M518.6 437.9l-27.4-20.8 14.3 45.1 13.1-24.3z"/>
  <path fill="#514797" d="M506.6 498.5l12-60.6-13.1 24.3 1.1 36.3z"/>
  <path fill="#4e4c9b" d="M506.6 498.5l-33.2-.5-25.9-.4 1.3 34.4 57.8-33.5z"/>
  <path fill="#4e519e" d="M448.8 532l-42.7-25.3.5 31.8 42.2-6.5z"/>
  <path fill="#4e509e" d="M448.8 532l-42.7-25.3 41.4-9.1 1.3 34.4z"/>
  <path fill="#4f5aa5" d="M406.1 506.7l26-54.4 15.4 45.3-41.4 9.1z"/>
  <path fill="#6474b7" d="M406.1 506.7l26-54.4-26.9 9.9.9 44.5z"/>
  <path fill="#5c6bb1" d="M405.2 462.2l-41.1 44.3 42 .2-.9-44.5z"/>
  <path fill="#4e54a1" d="M406.1 506.7L364.4 532l42.2 6.5-.5-31.8z"/>
  <path fill="#504e9c" d="M503.5 408.5l-12.3 8.6 27.4 20.8-15.1-29.4z"/>
  <path fill="#4f4b9a" d="M506.6 498.5l-59.1-.9 58-35.4 1.1 36.3z"/>
  <g fill="none" stroke-linecap="round" stroke-linejoin="round" opacity=".6">
    <path stroke="#6988c4" d="M343.8 502.8l-16 9.4-16.1-9.9-11.2-24.4V453l8.6-26.9 31.5-42.3 57.2-26.2 44.2 15.2 7.1 8"/>
    <path stroke="#6988c4" d="M442 372.8l-28.3-5.1-50.8 27.9-28.8 48-6.6 43.2.3 25.4-16.1-9.9-.3-25.5 6.6-43.2 28.8-47.9 51-28.1 44.2 15.2z"/>
    <path stroke="#6988c4" d="M300.5 453l10.9 23.8.3 25.5-11.2-24.4V453z"/>
    <path stroke="#6988c4" d="M318 433.6l-6.6 43.2-10.9-23.8 8.6-26.9 8.9 7.5z"/>
    <path stroke="#6988c4" d="M346.8 385.7L318 433.6l-8.9-7.5 31.5-42.3 6.2 1.9z"/>
    <path stroke="#6988c4" d="M340.6 383.8l6.2 1.9 51-28.1-57.2 26.2zM397.8 357.6l15.9 10.1-50.8 27.9-16.1-9.9 51-28.1z"/>
    <path stroke="#6988c4" d="M346.8 385.7L318 433.6l16.1 10 28.8-48-16.1-9.9z"/>
    <path stroke="#6988c4" d="M318 433.6l-6.6 43.2 16.1 10 6.6-43.2-16.1-10zM311.4 476.8l.3 25.5 16.1 9.9-.3-25.4-16.1-10z"/>
    <path stroke="#6988c4" d="M327.5 486.8l-15.8 15.5 16.1 9.9-.3-25.4zM318 433.6l9.5 53.2 6.6-43.2-16.1-10z"/>
    <path stroke="#6988c4" d="M362.9 395.6l-44.9 38 16.1 10 28.8-48zM397.8 357.6l-34.9 38 50.8-27.9-15.9-10.1zM340.6 383.8L318 433.6l28.8-47.9-6.2-1.9zM318 433.6L300.5 453l10.9 23.8 6.6-43.2z"/>
    <path stroke="#6988c4" d="M300.5 453l11.2 49.3-.3-25.5-10.9-23.8zM399.5 415.3l-28.8 48 34.5-1.1-5.7-46.9zM491.2 417.1l12.3-8.6-52.3-22.4 40 31zM364.1 506.5l.3 25.5-20.5-36.9 20.2 11.4zM344.2 520.6l20.2 11.4-20.5-36.9.3 25.5z"/>
    <path stroke="#6988c4" d="M370.7 463.3l-26.8 31.8 20.2 11.4 6.6-43.2z"/>
    <path stroke="#6988c4" d="M370.7 463.3l-20.2-11.4 28.8-47.9-8.6 59.3z"/>
    <path stroke="#6988c4" d="M370.7 463.3l28.8-48-20.2-11.3-8.6 59.3zM370.7 463.3l-20.2-11.4-6.6 43.2 26.8-31.8zM399.5 415.3L379.3 404l71.9-17.9-51.7 29.2z"/>
    <path stroke="#6988c4" d="M430.1 376l-50.8 28 71.9-17.9-21.1-10.1z"/>
    <path stroke="#6988c4" d="M451.2 386.1L430.1 376l33.8 8.6 39.6 23.9-52.3-22.4zM406.1 506.7l.4 31.8-42.1-6.5-.3-25.5 42 .2z"/>
    <path stroke="#6988c4" d="M405.2 462.2l.9 44.5-42-.2 6.6-43.2 34.5-1.1zM432.1 452.3l-26.9 9.9-5.7-46.9 32.6 37z"/>
    <path stroke="#6988c4" d="M447.5 497.6l43.7-80.5-59.1 35.2 15.4 45.3zM447.5 497.6l43.7-80.5 14.3 45.1-58 35.4z"/>
    <path stroke="#6988c4" d="M491.2 417.1l-91.7-1.8 32.6 37 59.1-35.2z"/>
    <path stroke="#6988c4" d="M491.2 417.1l-91.7-1.8 51.7-29.2 40 31zM518.6 437.9l-27.4-20.8 14.3 45.1 13.1-24.3z"/>
    <path stroke="#6988c4" d="M506.6 498.5l12-60.6-13.1 24.3 1.1 36.3z"/>
    <path stroke="#6988c4" d="M506.6 498.5l-33.2-.5-25.9-.4 1.3 34.4 57.8-33.5zM448.8 532l-42.7-25.3.4 31.8 42.3-6.5z"/>
    <path stroke="#6988c4" d="M448.8 532l-42.7-25.3 41.4-9.1 1.3 34.4z"/>
    <path stroke="#6988c4" d="M406.1 506.7l26-54.4 15.4 45.3-41.4 9.1z"/>
    <path stroke="#6988c4" d="M406.1 506.7l26-54.4-26.9 9.9.9 44.5zM405.2 462.2l-41.1 44.3 42 .2-.9-44.5zM406.1 506.7L364.4 532l42.1 6.5-.4-31.8zM503.5 408.5l-12.3 8.6 27.4 20.8-15.1-29.4zM506.6 498.5l-59.1-.9 58-35.4 1.1 36.3z"/>
    <path stroke="#a7b8d3" stroke-width="5" d="M379.3 404l20.2 11.3 5.7 46.9 26.9-9.9 15.4 45.3 58-35.4-14.3-45.1-45-1.1M406.5 538.5l-.4-31.8-42-.2 6.6-43.2-20.2-11.4"/>
    <path stroke="#a7b8d3" stroke-width="5" d="M399.5 415.3l51.7-29.2 20.8 16M370.7 463.3l15.2-25.3M458.8 436.3l-26.7 16M467.5 459.8l23.7-42.7M503.5 408.5l-19.1-8.3M448.8 532l-.7-17.2M300.5 453l10.9 23.8 6.6-43.2 16.1 10M362.9 395.6l-16.1-9.9M413.7 367.7l-15.9-10.1M365.3 375.6l-18.5 10.1-6.2-1.9-31.5 42.3M311.7 502.3l11.1-11.2"/>
  </g>
  <path fill="url(#c)" d="M274.9 294c-.5-1.5.3-3.2 2.4-4.4a14.7 14.7 0 0 1 13-.2c2.3 1.3 3.2 3 2.7 4.6a9.5 9.5 0 0 1-18.1 0z"/>
  <path fill="url(#au)" d="M267.3 290.6v.2a.9.9 0 0 0 .2 0 13.2 13.2 0 0 0 4.3 3.7 19 19 0 0 0 4 1.7c7.6 2.3 19.1 1 24.2-4.8v-.1a.2.2 0 0 1 .1-.1 9 9 0 0 0 2-4.7 8.3 8.3 0 0 0-.7-4.5c-4.8-10.5-28.3-10.4-34.2-1.1a8.2 8.2 0 0 0 0 9.7z"/>
  <path fill="url(#av)" d="M271 287a.6.6 0 0 0 .2.1l.6.4a18.9 18.9 0 0 0 3.6 1.5 27 27 0 0 0 6.2 1.2 28.7 28.7 0 0 0 10.2-1 21 21 0 0 0 2.4-.9 18.3 18.3 0 0 0 2.2-1 13.1 13.1 0 0 0 3.8-3.2 10.4 10.4 0 0 0 1-1.7 8.2 8.2 0 0 0 1-4.5v-.2c-.6-6.1-8.4-9.8-14.8-10.5-8.1-1-20 2-21.6 9.7V277.2c-.8 4.1 1.7 7.7 5.3 9.9z"/>
  <path fill="url(#aw)" d="M265.6 271.7a8 8 0 0 0 1.1 4c7.3 12.8 39.6 8.3 35.1-6.5a8 8 0 0 0-.9-2c-5.5-9.6-27.8-9.6-33.8-.3-1.5 2.3-1.7 4.8-1.5 4.8zm7-8.5a24.2 24.2 0 0 1 21.5-.2c6 3.3 6.1 8.7.3 12.1a24.2 24.2 0 0 1-21.5.2c-6-3.3-6-8.7-.3-12z"/>
  <path fill="#fff" d="M246.9 218.4c1.1-6.3 3.8-11 7.3-15.5a37.1 37.1 0 0 1 7.3-6.8 36.1 36.1 0 0 1 4.8-2.9 38 38 0 0 1 13.4-3.9 38.6 38.6 0 0 1 4.9-.1 37.5 37.5 0 0 1 14.5 3.4 37.6 37.6 0 0 1 4.5 2.4 35.8 35.8 0 0 1 9.1 8.2 39.4 39.4 0 0 1 2.8 4 35.7 35.7 0 0 1 4.2 10.7 34.3 34.3 0 0 1 .7 9.2 35.5 35.5 0 0 1-7.2 19.8 37 37 0 0 1-6 6.1 41 41 0 0 1-6.5 4.3c-1.5.8-2 2.3-2 5.2 0 5 .3 3.2 0 7.6a2.5 2.5 0 0 1-.2.8c-.9 2.5-3.8 4-4.1 4.2a24.7 24.7 0 0 1-21.3.4c-1.2-.5-3.9-2.1-4.7-4.6-.2-.3-.1-6.7-.1-8.4a6.6 6.6 0 0 0-3.1-5.6 37 37 0 0 1-10.5-8.5 35.7 35.7 0 0 1-8.4-20.7 36.3 36.3 0 0 1 .6-9.3zM215 179.1a5 5 0 0 1 2 6.9 5.2 5.2 0 0 1-7.1 1.8L186 174.4a5 5 0 0 1-1.9-6.8 5.2 5.2 0 0 1 7-1.9zM246.3 152.4a5 5 0 0 1-2 6.9 5.2 5.2 0 0 1-7-1.9l-13.7-23.2a5 5 0 0 1 1.9-6.9 5.2 5.2 0 0 1 7 1.9zM287 144.5a5.2 5.2 0 0 1-10.3 0v-26.9a5.2 5.2 0 0 1 10.4 0zM326.5 157.4a5.2 5.2 0 0 1-7.1 1.9 5 5 0 0 1-1.9-6.9l13.8-23.2a5.2 5.2 0 0 1 7-1.9 5 5 0 0 1 2 6.9zM354 187.8a5.3 5.3 0 0 1-7.2-1.8 5 5 0 0 1 2-6.9l23.8-13.4a5.2 5.2 0 0 1 7 1.9 5 5 0 0 1-1.8 6.8zM362 227.5a5 5 0 1 1 0-10h27.6a5 5 0 1 1 0 10zM348.7 265.9a5 5 0 0 1-1.9-6.9 5.2 5.2 0 0 1 7.1-1.8l23.9 13.4a5 5 0 0 1 1.8 6.9 5.2 5.2 0 0 1-7 1.8zM209.9 257.2a5.2 5.2 0 0 1 7 1.8 5 5 0 0 1-1.9 6.9l-23.8 13.4a5.2 5.2 0 0 1-7-1.8 5 5 0 0 1 1.8-6.9zM201.7 217.5a5 5 0 1 1 0 10h-27.5a5 5 0 1 1 0-10z"/>
  <g style="isolation:isolate">
    <path fill="url(#d)" d="M8 249.8a1751 1751 0 0 0 5.5-3.5 7 7 0 0 1 4.8-.9c7.9 1.2 15-.2 20.8-3.9L28.9 248c-5.8 3.7-12.8 5-20.7 3.9a7 7 0 0 0-4.8.8l4.5-2.8z"/>
    <path fill="url(#ax)" d="M64 217.7c14.4 7 34.5 17.4 47.8 25.7a699 699 0 0 1 47.8 34.2 35 35 0 0 1 11.1 18.9c5.6 24 18.3 48.2 34.4 66a30 30 0 0 1 8 19c-1.9 71.6-20.6 132.8-56.1 155.2l-10.2 6.4c35.6-22.4 54.3-83.6 56.2-155.3a30 30 0 0 0-8-19 153.3 153.3 0 0 1-34.4-66 35 35 0 0 0-11.1-18.8 706.4 706.4 0 0 0-47.8-34.3A553.8 553.8 0 0 0 54 224.1c-3-1.4-5.6-1.3-7.6 0l10-6.4c2.1-1.3 4.7-1.4 7.7 0z"/>
    <path fill="url(#ay)" d="M101.7 249.7A553.8 553.8 0 0 0 54 224.1c-5.2-2.5-9.4-.3-11.1 4.8-5.7 17-18.4 25.3-34.6 22.9-4.8-.7-8.3 2.5-8.2 9 2 96.4 32.7 211 92.8 281a36.8 36.8 0 0 0 8.1 7.2 18.8 18.8 0 0 0 8.2 3c60.2 5.4 91.5-70.4 94-164.2a30 30 0 0 0-8-19 153.3 153.3 0 0 1-34.5-66 35 35 0 0 0-11.1-18.8 706.4 706.4 0 0 0-47.8-34.3z"/>
  </g>
  <path fill="url(#az)" d="M101.7 266.7c-10-6.2-24.6-14-37.1-20.2-5.4-2.7-9.7-.7-12.1 3.9a35.5 35.5 0 0 1-31 20.8c-4.5.2-7.6 4.2-7.2 11C18.3 362.7 43 460.3 93 523a32.4 32.4 0 0 0 7.9 7.3 15.3 15.3 0 0 0 8 2.6c50 0 75.3-66 79.7-141.5.4-6.4-2.9-14.4-7.6-20.5a191.7 191.7 0 0 1-30.5-59.6 37.6 37.6 0 0 0-11.9-18.4c-12.5-9.4-27-19.9-37-26.2z"/>
  <g clip-path="url(#aA)" style="clip-path:url(#ca)">
    <path fill="#ed695d" d="M42.5 324l-11.2 6c-1 .5-1 2.2 0 3.7a4.6 4.6 0 0 0 1.5 1.7 1.7 1.7 0 0 0 1.6.2l11.2-6a70.9 70.9 0 0 1-3-5.6"/>
    <path fill="#ed685d" d="M32.8 335.4a4.6 4.6 0 0 1-1.6-1.7c-.8-1.5-.8-3.2 0-3.7l11.3-6 3.1 5.6-11.2 6a1.7 1.7 0 0 1-1.6-.2m9.8-12.6l-11.8 6.4c-1.2.6-1.2 2.8 0 4.8a6 6 0 0 0 2 2.2 2.1 2.1 0 0 0 2.1.3l11.8-6.4-.3-.4a67.5 67.5 0 0 1-3.5-6.4l-.3-.5"/>
    <path fill="#ed695d" d="M104.7 359.9L95 365l-9.6-16.3a13.6 13.6 0 0 1-3.1 2l11 18.8a4.8 4.8 0 0 0 1.7 1.7 1.6 1.6 0 0 0 1.6.2l11.2-6a67 67 0 0 1-3.1-5.6"/>
    <path fill="#ed685d" d="M95 365l9.7-5.1 3 5.5-11.1 6a1.6 1.6 0 0 1-1.6-.1 4.8 4.8 0 0 1-1.6-1.7l-11.1-18.8a13.6 13.6 0 0 0 3.1-2l9.6 16.3m9.7-6.4l-9.7 5.2-9.6-16.4-.3.3a13 13 0 0 1-3.5 2.2l-.3.1L92.9 370a6.3 6.3 0 0 0 2 2.2 2.1 2.1 0 0 0 2.1.2l11.8-6.3-.3-.5a65.8 65.8 0 0 1-3.5-6.3l-.3-.5"/>
    <path fill="#ed695d" d="M64.1 303c6.2 3.5 11.2 12.1 11.2 19.3s-5 10-11.3 6.4c-6.2-3.6-11.2-12.3-11.1-19.4s5-10 11.2-6.4m0-5.6c-8.9-5.1-16-1-16.1 9.2s7.1 22.6 16 27.8c8.9 5 16.1 1 16.2-9.2s-7.2-22.7-16-27.8"/>
    <path fill="#ed685d" d="M64 334.3c-8.9-5.2-16-17.6-16-27.8s7.2-14.3 16.1-9.2c8.9 5.1 16 17.6 16 27.8s-7.2 14.3-16 9.2m0-37.8c-9.2-5.4-16.8-1-16.8 9.6A37 37 0 0 0 64 335c9.3 5.3 16.8 1 16.9-9.6a37 37 0 0 0-16.8-29"/>
    <path fill="#ed695d" d="M126.2 338.8c6.2 3.6 11.2 12.2 11.2 19.3s-5 10-11.2 6.4-11.2-12.2-11.2-19.3 5-10 11.2-6.4m0-5.6c-8.8-5.2-16-1-16 9.2s7 22.6 16 27.7 16 1 16-9.2-7-22.6-16-27.7"/>
    <path fill="#ed685d" d="M126.1 370.1c-8.8-5-16-17.5-16-27.7s7.3-14.4 16.1-9.2 16.1 17.6 16 27.7-7.2 14.4-16 9.2m0-37.7c-9.2-5.4-16.8-1-16.8 9.6a37 37 0 0 0 16.7 29c9.3 5.3 16.9 1 16.9-9.6a37 37 0 0 0-16.8-29"/>
    <path fill="#ed695d" d="M147.3 384.5a13.4 13.4 0 0 1-3.3 1.6l9.4 16.6-9.4 5.6c1.2 1.8 2.3 3.6 3.3 5.5l10.9-6.5a1.7 1.7 0 0 0 .6-1.5 4.6 4.6 0 0 0-.6-2.2l-10.9-19.1"/>
    <path fill="#ed685d" d="M147.3 413.8c-1-1.9-2.1-3.7-3.3-5.5l9.4-5.6L144 386a13.4 13.4 0 0 0 3.3-1.6l10.9 19a4.6 4.6 0 0 1 .6 2.3 1.7 1.7 0 0 1-.6 1.5l-10.9 6.5m0-30.5l-.2.1a13 13 0 0 1-3.8 2h-.3l9.4 16.7-9.4 5.7.3.4a65.8 65.8 0 0 1 3.7 6.3l.3.4 11.4-6.8a2.2 2.2 0 0 0 .8-2 6 6 0 0 0-.8-2.8l-11.4-20"/>
    <path fill="#ed695d" d="M126 409.7c6.2 3.5 11.2 12.2 11.2 19.3s-5 10-11.2 6.4-11.2-12.2-11.2-19.3 5-10 11.2-6.4m0-5.7c-8.8-5-16-1-16 9.2s7 22.7 16 27.8 16 1 16-9.2-7-22.6-16-27.8"/>
    <path fill="#ed685d" d="M126 441c-9-5.1-16.1-17.6-16-27.8s7.2-14.3 16-9.2 16.1 17.6 16 27.8-7.2 14.3-16 9.2m0-37.8c-9.2-5.3-16.8-1-16.8 9.6a37 37 0 0 0 16.7 29c9.3 5.4 16.9 1 16.9-9.6a37 37 0 0 0-16.8-29"/>
  </g>
</svg>