<svg xmlns="http://www.w3.org/2000/svg" xmlns:xlink="http://www.w3.org/1999/xlink" viewBox="0 0 568.05723 653.24965"><defs><linearGradient id="a" x1="447.38575" y1="309.39459" x2="447.38575" y2="102.6893" gradientUnits="userSpaceOnUse"><stop offset="0" stop-color="#fff"/><stop offset="0.6387" stop-color="#1d1d1b"/></linearGradient><linearGradient id="b" x1="15.12685" y1="333.64813" x2="15.12685" y2="13.79263" gradientUnits="userSpaceOnUse"><stop offset="0" stop-color="#fff"/><stop offset="0.51541" stop-color="#1d1d1b"/></linearGradient><linearGradient id="c" x1="421.12405" y1="258.85055" x2="421.12405" y2="103.68851" gradientUnits="userSpaceOnUse"><stop offset="0" stop-color="#fff"/><stop offset="0.6661" stop-color="#1d1d1b"/></linearGradient><linearGradient id="d" x1="682.43525" y1="285.8834" x2="682.43525" y2="79.17811" gradientTransform="matrix(1, 0, 0, -1, -625.15959, 365.06151)" xlink:href="#a"/><linearGradient id="e" x1="246.87422" y1="269.71539" x2="246.87422" y2="63.01011" xlink:href="#a"/><linearGradient id="f" x1="213.50038" y1="311.1552" x2="213.50038" y2="-16.54417" xlink:href="#c"/><linearGradient id="g" x1="608.80709" y1="1337.09206" x2="608.80709" y2="1130.38678" gradientTransform="translate(-207.69036 -646.04711)" xlink:href="#a"/><linearGradient id="h" x1="576.67997" y1="1367.99476" x2="576.67997" y2="1040.29538" gradientTransform="translate(-133.72553 -629.006)" xlink:href="#c"/><linearGradient id="i" x1="93.23807" y1="470.80662" x2="363.55762" y2="470.80662" gradientUnits="userSpaceOnUse"><stop offset="0.14859" stop-color="#f6f6f6"/><stop offset="0.38042" stop-color="#efefef"/><stop offset="0.7185" stop-color="#dbdbdb"/><stop offset="1" stop-color="#c6c6c6"/></linearGradient><linearGradient id="j" x1="110.96507" y1="392.70544" x2="536.57982" y2="392.70544" gradientUnits="userSpaceOnUse"><stop offset="0" stop-color="#c5c5c4"/><stop offset="1" stop-color="#fbfbfb"/></linearGradient><linearGradient id="k" x1="138.54401" y1="430.89391" x2="207.27643" y2="674.44122" gradientUnits="userSpaceOnUse"><stop offset="0" stop-color="#ededed"/><stop offset="1" stop-color="#b2b2b2"/></linearGradient><linearGradient id="l" x1="181.24885" y1="447.13695" x2="326.18005" y2="526.32508" gradientUnits="userSpaceOnUse"><stop offset="0" stop-color="#f6f6f6"/><stop offset="1" stop-color="#b2b2b2"/></linearGradient><linearGradient id="m" x1="7844.55008" y1="346.59739" x2="7912.51552" y2="346.59739" gradientTransform="matrix(-1, 0, 0, 1, 8079.37055, 0)" gradientUnits="userSpaceOnUse"><stop offset="0" stop-color="#fff"/><stop offset="1" stop-color="#dedede"/></linearGradient><linearGradient id="n" x1="7790.30349" y1="368.02575" x2="7828.9386" y2="368.02575" xlink:href="#m"/><linearGradient id="o" x1="7750.50165" y1="383.75293" x2="7763.49503" y2="383.75293" xlink:href="#m"/><linearGradient id="p" x1="7882.50359" y1="386.82998" x2="7908.36818" y2="386.82998" xlink:href="#m"/><linearGradient id="q" x1="7852.72303" y1="372.12968" x2="7967.02885" y2="372.12968" xlink:href="#m"/><linearGradient id="r" x1="7812.30448" y1="393.28505" x2="7841.19354" y2="393.28505" xlink:href="#m"/><linearGradient id="s" x1="7918.29369" y1="394.93714" x2="7953.86495" y2="394.93714" xlink:href="#m"/><linearGradient id="t" x1="7830.1013" y1="373.30537" x2="7940.60036" y2="373.30537" xlink:href="#m"/><linearGradient id="u" x1="7909.73183" y1="415.49371" x2="7927.24849" y2="415.49371" xlink:href="#m"/><linearGradient id="v" x1="7803.57256" y1="388.72217" x2="7913.8926" y2="388.72217" xlink:href="#m"/><linearGradient id="w" x1="7737.2281" y1="407.89562" x2="7860.39742" y2="407.89562" xlink:href="#m"/><linearGradient id="x" x1="7777.03487" y1="404.08886" x2="7887.46858" y2="404.08886" xlink:href="#m"/><linearGradient id="y" x1="7762.92666" y1="426.8547" x2="7874.19951" y2="426.8547" xlink:href="#m"/><linearGradient id="z" x1="7829.87843" y1="449.87004" x2="7860.36699" y2="449.87004" xlink:href="#m"/><linearGradient id="aa" x1="7763.7658" y1="378.24619" x2="7784.39911" y2="378.24619" xlink:href="#m"/><linearGradient id="ab" x1="7886.84785" y1="432.10164" x2="7900.44451" y2="432.10164" xlink:href="#m"/><linearGradient id="ac" x1="293.98045" y1="392.07734" x2="159.8894" y2="392.07734" gradientUnits="userSpaceOnUse"><stop offset="0" stop-color="#1d1d1b"/><stop offset="1" stop-color="#3c3c3b"/></linearGradient><linearGradient id="ad" x1="227.40708" y1="375.23375" x2="159.8894" y2="375.23375" gradientUnits="userSpaceOnUse"><stop offset="0" stop-color="#1d1d1b"/><stop offset="1" stop-color="#555454"/></linearGradient><linearGradient id="ae" x1="293.98045" y1="375.23375" x2="227.40708" y2="375.23375" xlink:href="#ad"/><linearGradient id="af" x1="-58.93182" y1="664.28707" x2="-193.02287" y2="664.28707" gradientTransform="translate(812.13707 943.22829) rotate(119.67393)" xlink:href="#ac"/><linearGradient id="ag" x1="-125.50519" y1="647.44348" x2="-193.02287" y2="647.44348" gradientTransform="translate(812.13707 943.22829) rotate(119.67393)" xlink:href="#ad"/><linearGradient id="ah" x1="-58.93182" y1="647.44348" x2="-125.50519" y2="647.44348" gradientTransform="translate(812.13707 943.22829) rotate(119.67393)" xlink:href="#ad"/><clipPath id="ai"><polygon points="114.526 519.467 114.738 444.797 203.07 495.795 202.858 570.466 114.526 519.467" style="fill:none"/></clipPath><filter id="ak" x="93.75634" y="320.84319" width="269.8663" height="301.39022" filterUnits="userSpaceOnUse" color-interpolation-filters="sRGB"><feFlood flood-color="#fff" result="bg"/><feBlend in="SourceGraphic" in2="bg"/></filter><mask id="aj" x="93.75634" y="320.84319" width="269.8663" height="301.39022" maskUnits="userSpaceOnUse"><path d="M93.75634,412.66385a33.0233,33.0233,0,0,1,16.47978-28.53948L212.212,325.248a33.03067,33.03067,0,0,1,32.95956,0l101.97135,58.8764a33.02233,33.02233,0,0,1,16.47978,28.53948V530.41264a33.02722,33.02722,0,0,1-16.47978,28.53948L245.17151,617.829a33.03281,33.03281,0,0,1-32.95956,0L110.23612,558.95212a33.0282,33.0282,0,0,1-16.47978-28.53948Z" style="fill:#1d1d1b;filter:url(#ak)"/></mask><filter id="am" x="256.10466" y="102.6893" width="254.84297" height="384.5017" filterUnits="userSpaceOnUse" color-interpolation-filters="sRGB"><feFlood flood-color="#fff" result="bg"/><feBlend in="SourceGraphic" in2="bg"/></filter><mask id="al" x="256.10466" y="102.6893" width="254.84297" height="384.5017" maskUnits="userSpaceOnUse"><rect x="383.82388" y="102.6893" width="127.12375" height="206.70528" style="fill:url(#a);filter:url(#am)"/></mask><linearGradient id="an" x1="467.43532" y1="300.92485" x2="256.10466" y2="300.92485" gradientUnits="userSpaceOnUse"><stop offset="0" stop-color="#57b7b2"/><stop offset="1" stop-color="#31918a"/></linearGradient><linearGradient id="ao" x1="317.90506" y1="686.60313" x2="295.25464" y2="686.60313" gradientTransform="matrix(-0.54598, -0.93555, -0.86368, 0.50403, 1162.22923, 341.07108)" gradientUnits="userSpaceOnUse"><stop offset="0" stop-color="#31918a"/><stop offset="1" stop-color="#57b7b2"/></linearGradient><linearGradient id="ap" x1="317.90506" y1="662.35718" x2="295.25464" y2="662.35718" xlink:href="#ao"/><linearGradient id="aq" x1="317.59335" y1="736.7603" x2="294.94292" y2="736.7603" xlink:href="#ao"/><linearGradient id="ar" x1="317.59335" y1="712.51435" x2="294.94292" y2="712.51435" xlink:href="#ao"/><linearGradient id="as" x1="317.44361" y1="786.86558" x2="294.79318" y2="786.86558" xlink:href="#ao"/><linearGradient id="at" x1="317.44361" y1="762.61963" x2="294.79318" y2="762.61963" xlink:href="#ao"/><linearGradient id="au" x1="317.14965" y1="837.78357" x2="294.49922" y2="837.78357" xlink:href="#ao"/><linearGradient id="av" x1="317.14965" y1="813.53762" x2="294.49922" y2="813.53762" xlink:href="#ao"/><linearGradient id="aw" x1="201.16321" y1="636.74772" x2="171.11585" y2="636.74772" gradientTransform="matrix(-0.49376, -0.84608, -0.86368, 0.50403, 1085.48718, 209.57044)" xlink:href="#ao"/><linearGradient id="ax" x1="39.41038" y1="565.03206" x2="3.85634" y2="565.03206" gradientTransform="matrix(0.54928, -0.29324, 0.8759, 1.64066, -51.84946, -574.57136)" xlink:href="#ao"/><linearGradient id="ay" x1="344.22603" y1="314.79951" x2="319.9593" y2="314.79951" gradientTransform="translate(123.21115 -38.46418)" xlink:href="#an"/><linearGradient id="az" x1="344.22603" y1="291.09454" x2="319.9593" y2="291.09454" gradientTransform="translate(123.21115 -38.46418)" xlink:href="#an"/><linearGradient id="ba" x1="344.22603" y1="267.11392" x2="319.9593" y2="267.11392" gradientTransform="translate(123.21115 -38.46418)" xlink:href="#an"/><linearGradient id="bb" x1="344.22603" y1="338.23024" x2="319.9593" y2="338.23024" gradientTransform="translate(123.21115 -38.46418)" xlink:href="#an"/><linearGradient id="bc" x1="344.22603" y1="218.86282" x2="319.9593" y2="218.86282" gradientTransform="translate(123.21115 -38.46418)" xlink:href="#an"/><linearGradient id="bd" x1="344.22603" y1="195.15785" x2="319.9593" y2="195.15785" gradientTransform="translate(123.21115 -38.46418)" xlink:href="#an"/><linearGradient id="be" x1="344.22603" y1="171.17724" x2="319.9593" y2="171.17724" gradientTransform="translate(123.21115 -38.46418)" xlink:href="#an"/><linearGradient id="bf" x1="344.22603" y1="242.29355" x2="319.9593" y2="242.29355" gradientTransform="translate(123.21115 -38.46418)" xlink:href="#an"/><linearGradient id="bg" x1="344.22603" y1="362.09796" x2="319.9593" y2="362.09796" gradientTransform="translate(123.21115 -38.46418)" xlink:href="#an"/><filter id="bi" x="-29.94508" y="13.79263" width="164.45516" height="425.61654" filterUnits="userSpaceOnUse" color-interpolation-filters="sRGB"><feFlood flood-color="#fff" result="bg"/><feBlend in="SourceGraphic" in2="bg"/></filter><mask id="bh" x="-29.94508" y="13.79263" width="164.45516" height="425.61654" maskUnits="userSpaceOnUse"><rect x="-29.94508" y="13.79263" width="90.14385" height="319.8555" style="fill:url(#b);filter:url(#bi)"/></mask><linearGradient id="bj" x1="136.51273" y1="1581.30822" x2="-156.18429" y2="1581.30822" gradientTransform="translate(1424.57703 1053.72707) rotate(120.4927)" gradientUnits="userSpaceOnUse"><stop offset="0" stop-color="#e9482f"/><stop offset="1" stop-color="#ef7c54"/></linearGradient><linearGradient id="bk" x1="215.43283" y1="1804.1936" x2="188.93885" y2="1804.1936" gradientTransform="matrix(0.93312, 0, 0, -1, -176.30181, 1886.52743)" xlink:href="#bj"/><linearGradient id="bl" x1="215.43283" y1="1780.48863" x2="188.93885" y2="1780.48863" gradientTransform="matrix(0.93312, 0, 0, -1, -176.30181, 1886.52743)" xlink:href="#bj"/><linearGradient id="bm" x1="215.43283" y1="1756.50801" x2="188.93885" y2="1756.50801" gradientTransform="matrix(0.93312, 0, 0, -1, -176.30181, 1886.52743)" xlink:href="#bj"/><linearGradient id="bn" x1="215.43283" y1="1827.62433" x2="188.93885" y2="1827.62433" gradientTransform="matrix(0.93312, 0, 0, -1, -176.30181, 1886.52743)" xlink:href="#bj"/><linearGradient id="bo" x1="-482.08673" y1="1575.46565" x2="-504.73716" y2="1575.46565" gradientTransform="matrix(1.0832, 0.00426, 0.00393, -0.99999, 540.92996, 1882.14027)" xlink:href="#bj"/><linearGradient id="bp" x1="-482.08673" y1="1551.21971" x2="-504.73716" y2="1551.21971" gradientTransform="matrix(1.0832, 0.00426, 0.00393, -0.99999, 540.92996, 1882.14027)" xlink:href="#bj"/><linearGradient id="bq" x1="-482.39845" y1="1625.62279" x2="-505.04887" y2="1625.62279" gradientTransform="matrix(1.0832, 0.00426, 0.00393, -0.99999, 540.92996, 1882.14027)" xlink:href="#bj"/><linearGradient id="br" x1="-482.39845" y1="1601.37685" x2="-505.04887" y2="1601.37685" gradientTransform="matrix(1.0832, 0.00426, 0.00393, -0.99999, 540.92996, 1882.14027)" xlink:href="#bj"/><linearGradient id="bs" x1="-482.54819" y1="1675.72806" x2="-505.19861" y2="1675.72806" gradientTransform="matrix(1.0832, 0.00426, 0.00393, -0.99999, 540.92996, 1882.14027)" xlink:href="#bj"/><linearGradient id="bt" x1="-482.54819" y1="1651.48212" x2="-505.19861" y2="1651.48212" gradientTransform="matrix(1.0832, 0.00426, 0.00393, -0.99999, 540.92996, 1882.14027)" xlink:href="#bj"/><linearGradient id="bu" x1="-482.84214" y1="1726.64602" x2="-505.49257" y2="1726.64602" gradientTransform="matrix(1.0832, 0.00426, 0.00393, -0.99999, 540.92996, 1882.14027)" xlink:href="#bj"/><linearGradient id="bv" x1="-482.84214" y1="1702.40008" x2="-505.49257" y2="1702.40008" gradientTransform="matrix(1.0832, 0.00426, 0.00393, -0.99999, 540.92996, 1882.14027)" xlink:href="#bj"/><linearGradient id="bw" x1="-683.42908" y1="1525.61026" x2="-713.47644" y2="1525.61026" gradientTransform="matrix(0.97961, 0.00385, 0.00393, -0.99999, 693.18435, 1882.73928)" xlink:href="#bj"/><linearGradient id="bx" x1="-1334.39378" y1="1048.73561" x2="-1369.94781" y2="1048.73561" gradientTransform="matrix(-0.02603, 0.62211, -1.85821, -0.07776, 1945.99154, 1300.6026)" xlink:href="#bj"/><linearGradient id="by" x1="13.30165" y1="1511.25388" x2="-10.96509" y2="1511.25388" gradientTransform="matrix(-0.50743, 0.86169, -0.86169, -0.50743, 1395.20053, 1179.41518)" xlink:href="#bj"/><linearGradient id="bz" x1="13.30165" y1="1487.54891" x2="-10.96509" y2="1487.54891" gradientTransform="matrix(-0.50743, 0.86169, -0.86169, -0.50743, 1395.20053, 1179.41518)" xlink:href="#bj"/><linearGradient id="ca" x1="13.30165" y1="1534.68461" x2="-10.96509" y2="1534.68461" gradientTransform="matrix(-0.50743, 0.86169, -0.86169, -0.50743, 1395.20053, 1179.41518)" xlink:href="#bj"/><linearGradient id="cb" x1="13.30165" y1="1558.55233" x2="-10.96509" y2="1558.55233" gradientTransform="matrix(-0.50743, 0.86169, -0.86169, -0.50743, 1395.20053, 1179.41518)" xlink:href="#bj"/><filter id="cd" x="311.15936" y="103.68851" width="155.03661" height="309.85894" filterUnits="userSpaceOnUse" color-interpolation-filters="sRGB"><feFlood flood-color="#fff" result="bg"/><feBlend in="SourceGraphic" in2="bg"/></filter><mask id="cc" x="311.15936" y="103.68851" width="155.03661" height="309.85894" maskUnits="userSpaceOnUse"><rect x="376.05212" y="103.68851" width="90.14385" height="155.16204" style="fill:url(#c);filter:url(#cd)"/></mask><linearGradient id="ce" x1="570.20552" y1="1616.73027" x2="451.49958" y2="1616.73027" gradientTransform="translate(881.36489 1886.52692) rotate(180)" xlink:href="#bj"/><linearGradient id="cf" x1="475.76631" y1="1668.13967" x2="451.49958" y2="1668.13967" gradientTransform="translate(881.36489 1886.52692) rotate(180)" xlink:href="#bj"/><linearGradient id="cg" x1="475.76631" y1="1644.4347" x2="451.49958" y2="1644.4347" gradientTransform="translate(881.36489 1886.52692) rotate(180)" xlink:href="#bj"/><linearGradient id="ch" x1="475.76631" y1="1620.45409" x2="451.49958" y2="1620.45409" gradientTransform="translate(881.36489 1886.52692) rotate(180)" xlink:href="#bj"/><linearGradient id="ci" x1="475.76631" y1="1691.5704" x2="451.49958" y2="1691.5704" gradientTransform="translate(881.36489 1886.52692) rotate(180)" xlink:href="#bj"/><linearGradient id="cj" x1="-56.13603" y1="1480.33024" x2="-78.78646" y2="1480.33024" gradientTransform="matrix(-1.05372, -0.00531, 0.00504, -0.99999, 339.39073, 1770.14391)" xlink:href="#bj"/><linearGradient id="ck" x1="-56.13603" y1="1456.08429" x2="-78.78646" y2="1456.08429" gradientTransform="matrix(-1.05372, -0.00531, 0.00504, -0.99999, 339.39073, 1770.14391)" xlink:href="#bj"/><linearGradient id="cl" x1="-212.43337" y1="1430.47483" x2="-242.48073" y2="1430.47483" gradientTransform="matrix(-0.95294, -0.0048, 0.00504, -0.99999, 191.28065, 1769.3973)" xlink:href="#bj"/><linearGradient id="cm" x1="-195.87566" y1="1409.20709" x2="-232.40027" y2="1409.20709" gradientTransform="matrix(-0.95294, -0.0048, 0.00504, -0.99999, 191.28065, 1769.3973)" xlink:href="#bj"/><linearGradient id="cn" x1="-131.07398" y1="1389.6323" x2="-167.59859" y2="1389.6323" gradientTransform="matrix(-0.94977, -0.0779, 0.08174, -0.99665, 127.7539, 1746.04003)" xlink:href="#bj"/><linearGradient id="co" x1="-112.81167" y1="1377.98185" x2="-149.33628" y2="1377.98185" gradientTransform="matrix(-0.94977, -0.0779, 0.08174, -0.99665, 127.7539, 1746.04003)" xlink:href="#bj"/><linearGradient id="cp" x1="-94.54937" y1="1366.51064" x2="-131.07398" y2="1366.51064" gradientTransform="matrix(-0.94977, -0.0779, 0.08174, -0.99665, 127.7539, 1746.04003)" xlink:href="#bj"/><linearGradient id="cq" x1="-76.28707" y1="1354.8602" x2="-112.81167" y2="1354.8602" gradientTransform="matrix(-0.94977, -0.0779, 0.08174, -0.99665, 127.7539, 1746.04003)" xlink:href="#bj"/><filter id="cs" x="-6.28622" y="79.17811" width="146.89225" height="320.9466" filterUnits="userSpaceOnUse" color-interpolation-filters="sRGB"><feFlood flood-color="#fff" result="bg"/><feBlend in="SourceGraphic" in2="bg"/></filter><mask id="cr" x="-6.28622" y="79.17811" width="146.89225" height="320.9466" maskUnits="userSpaceOnUse"><g style="filter:url(#cs)"><rect x="-6.28622" y="79.17811" width="127.12375" height="206.70528" transform="translate(114.55131 365.06151) rotate(180)" style="fill:url(#d)"/></g></mask><linearGradient id="ct" x1="702.48481" y1="245.9311" x2="599.10487" y2="245.9311" gradientTransform="matrix(-1, 0, 0, 1, 739.7109, 0)" gradientUnits="userSpaceOnUse"><stop offset="0" stop-color="#304093"/><stop offset="1" stop-color="#5875b8"/></linearGradient><linearGradient id="cu" x1="227.27949" y1="471.7443" x2="204.62906" y2="471.7443" gradientTransform="matrix(0.54598, -0.93555, 0.86368, 0.50403, -422.51832, 341.07108)" xlink:href="#ct"/><linearGradient id="cv" x1="227.27949" y1="447.49835" x2="204.62906" y2="447.49835" gradientTransform="matrix(0.54598, -0.93555, 0.86368, 0.50403, -422.51832, 341.07108)" xlink:href="#ct"/><linearGradient id="cw" x1="226.96777" y1="497.65552" x2="204.31735" y2="497.65552" gradientTransform="matrix(0.54598, -0.93555, 0.86368, 0.50403, -422.51832, 341.07108)" xlink:href="#ct"/><linearGradient id="cx" x1="100.95383" y1="421.88889" x2="70.90647" y2="421.88889" gradientTransform="matrix(0.49376, -0.84608, 0.86368, 0.50403, -345.77627, 209.57044)" xlink:href="#ct"/><linearGradient id="cy" x1="390.20366" y1="613.40075" x2="354.64962" y2="613.40075" gradientTransform="matrix(-0.54928, -0.29324, -0.8759, 1.64066, 791.56036, -574.57136)" xlink:href="#ct"/><linearGradient id="cz" x1="579.2768" y1="291.28831" x2="555.01006" y2="291.28831" gradientTransform="matrix(-0.99999, 0, 0, 1, 616.49975, -38.46418)" xlink:href="#ct"/><linearGradient id="da" x1="579.2768" y1="267.58334" x2="555.01006" y2="267.58334" gradientTransform="matrix(-0.99999, 0, 0, 1, 616.49975, -38.46418)" xlink:href="#ct"/><linearGradient id="db" x1="579.2768" y1="243.60273" x2="555.01006" y2="243.60273" gradientTransform="matrix(-0.99999, 0, 0, 1, 616.49975, -38.46418)" xlink:href="#ct"/><linearGradient id="dc" x1="579.2768" y1="314.71905" x2="555.01006" y2="314.71905" gradientTransform="matrix(-0.99999, 0, 0, 1, 616.49975, -38.46418)" xlink:href="#ct"/><linearGradient id="dd" x1="579.2768" y1="195.35163" x2="555.01006" y2="195.35163" gradientTransform="matrix(-0.99999, 0, 0, 1, 616.49975, -38.46418)" xlink:href="#ct"/><linearGradient id="de" x1="579.2768" y1="171.64666" x2="555.01006" y2="171.64666" gradientTransform="matrix(-0.99999, 0, 0, 1, 616.49975, -38.46418)" xlink:href="#ct"/><linearGradient id="df" x1="579.2768" y1="147.66604" x2="555.01006" y2="147.66604" gradientTransform="matrix(-0.99999, 0, 0, 1, 616.49975, -38.46418)" xlink:href="#ct"/><linearGradient id="dg" x1="579.2768" y1="218.78236" x2="555.01006" y2="218.78236" gradientTransform="matrix(-0.99999, 0, 0, 1, 616.49975, -38.46418)" xlink:href="#ct"/><linearGradient id="dh" x1="579.2768" y1="338.58676" x2="555.01006" y2="338.58676" gradientTransform="matrix(-0.99999, 0, 0, 1, 616.49975, -38.46418)" xlink:href="#ct"/><filter id="dj" x="154.0838" y="392.36939" width="176.18769" height="170.42369" filterUnits="userSpaceOnUse" color-interpolation-filters="sRGB"><feFlood flood-color="#fff" result="bg"/><feBlend in="SourceGraphic" in2="bg"/></filter><mask id="di" x="154.0838" y="392.36939" width="176.18769" height="170.42369" maskUnits="userSpaceOnUse"><polygon points="159.889 392.369 227.407 430.21 293.98 392.82 330.271 446.51 264.284 486.639 263.496 562.793 154.084 498.928 159.889 392.369" style="fill:#1d1d1b;filter:url(#dj)"/></mask><filter id="dl" x="183.31235" y="63.01011" width="127.12375" height="365.00069" filterUnits="userSpaceOnUse" color-interpolation-filters="sRGB"><feFlood flood-color="#fff" result="bg"/><feBlend in="SourceGraphic" in2="bg"/></filter><mask id="dk" x="183.31235" y="63.01011" width="127.12375" height="365.00069" maskUnits="userSpaceOnUse"><rect x="183.31235" y="63.01011" width="127.12375" height="206.70528" style="fill:url(#e);filter:url(#dl)"/></mask><linearGradient id="dm" x1="263.23988" y1="281.03505" x2="239.97066" y2="281.03505" gradientUnits="userSpaceOnUse"><stop offset="0" stop-color="#316f92"/><stop offset="1" stop-color="#5788b7"/></linearGradient><linearGradient id="dn" x1="263.23988" y1="297.15142" x2="239.97066" y2="297.15142" xlink:href="#dm"/><linearGradient id="do" x1="263.23988" y1="274.42087" x2="239.97066" y2="274.42087" xlink:href="#dm"/><linearGradient id="dp" x1="263.23988" y1="251.42601" x2="239.97066" y2="251.42601" xlink:href="#dm"/><linearGradient id="dq" x1="263.23988" y1="319.619" x2="239.97066" y2="319.619" xlink:href="#dm"/><linearGradient id="dr" x1="263.23988" y1="205.15834" x2="239.97066" y2="205.15834" xlink:href="#dm"/><linearGradient id="ds" x1="263.23988" y1="182.42779" x2="239.97066" y2="182.42779" xlink:href="#dm"/><linearGradient id="dt" x1="263.23988" y1="159.43293" x2="239.97066" y2="159.43293" xlink:href="#dm"/><linearGradient id="du" x1="263.23988" y1="227.62592" x2="239.97066" y2="227.62592" xlink:href="#dm"/><linearGradient id="dv" x1="263.23988" y1="388.231" x2="239.97066" y2="388.231" xlink:href="#dm"/><linearGradient id="dw" x1="263.23988" y1="365.50045" x2="239.97066" y2="365.50045" xlink:href="#dm"/><linearGradient id="dx" x1="263.23988" y1="342.5056" x2="239.97066" y2="342.5056" xlink:href="#dm"/><linearGradient id="dy" x1="263.23988" y1="410.69858" x2="239.97066" y2="410.69858" xlink:href="#dm"/><filter id="ea" x="168.42846" y="-16.54417" width="90.14385" height="458.6129" filterUnits="userSpaceOnUse" color-interpolation-filters="sRGB"><feFlood flood-color="#fff" result="bg"/><feBlend in="SourceGraphic" in2="bg"/></filter><mask id="dz" x="168.42846" y="-16.54417" width="90.14385" height="458.6129" maskUnits="userSpaceOnUse"><rect x="168.42846" y="-16.54417" width="90.14385" height="327.69938" style="fill:url(#f);filter:url(#ea)"/></mask><linearGradient id="eb" x1="677.18882" y1="1661.28906" x2="652.92208" y2="1661.28906" gradientTransform="translate(881.36489 1886.52692) rotate(180)" xlink:href="#bj"/><linearGradient id="ec" x1="677.18882" y1="1868.47256" x2="652.92208" y2="1868.47256" gradientTransform="translate(881.36489 1886.52692) rotate(180)" xlink:href="#bj"/><linearGradient id="ed" x1="677.18882" y1="1844.49194" x2="652.92208" y2="1844.49194" gradientTransform="translate(881.36489 1886.52692) rotate(180)" xlink:href="#bj"/><linearGradient id="ee" x1="677.18882" y1="1796.24084" x2="652.92208" y2="1796.24084" gradientTransform="translate(881.36489 1886.52692) rotate(180)" xlink:href="#bj"/><linearGradient id="ef" x1="677.18882" y1="1772.53587" x2="652.92208" y2="1772.53587" gradientTransform="translate(881.36489 1886.52692) rotate(180)" xlink:href="#bj"/><linearGradient id="eg" x1="677.18882" y1="1748.55526" x2="652.92208" y2="1748.55526" gradientTransform="translate(881.36489 1886.52692) rotate(180)" xlink:href="#bj"/><linearGradient id="eh" x1="677.18882" y1="1819.67157" x2="652.92208" y2="1819.67157" gradientTransform="translate(881.36489 1886.52692) rotate(180)" xlink:href="#bj"/><linearGradient id="ei" x1="677.18882" y1="1606.13484" x2="652.92208" y2="1606.13484" gradientTransform="translate(881.36489 1886.52692) rotate(180)" xlink:href="#bj"/><linearGradient id="ej" x1="677.18882" y1="1582.42987" x2="652.92208" y2="1582.42987" gradientTransform="translate(881.36489 1886.52692) rotate(180)" xlink:href="#bj"/><linearGradient id="ek" x1="677.18882" y1="1558.44926" x2="652.92208" y2="1558.44926" gradientTransform="translate(881.36489 1886.52692) rotate(180)" xlink:href="#bj"/><linearGradient id="el" x1="677.18882" y1="1629.56557" x2="652.92208" y2="1629.56557" gradientTransform="translate(881.36489 1886.52692) rotate(180)" xlink:href="#bj"/><linearGradient id="em" x1="677.18882" y1="1510.19815" x2="652.92208" y2="1510.19815" gradientTransform="translate(881.36489 1886.52692) rotate(180)" xlink:href="#bj"/><linearGradient id="en" x1="677.18882" y1="1486.49318" x2="652.92208" y2="1486.49318" gradientTransform="translate(881.36489 1886.52692) rotate(180)" xlink:href="#bj"/><linearGradient id="eo" x1="677.18882" y1="1462.51257" x2="652.92208" y2="1462.51257" gradientTransform="translate(881.36489 1886.52692) rotate(180)" xlink:href="#bj"/><linearGradient id="ep" x1="677.18882" y1="1533.62888" x2="652.92208" y2="1533.62888" gradientTransform="translate(881.36489 1886.52692) rotate(180)" xlink:href="#bj"/><linearGradient id="eq" x1="677.18882" y1="1701.11887" x2="652.92208" y2="1701.11887" gradientTransform="translate(881.36489 1886.52692) rotate(180)" xlink:href="#bj"/><linearGradient id="er" x1="677.18882" y1="1677.4139" x2="652.92208" y2="1677.4139" gradientTransform="translate(881.36489 1886.52692) rotate(180)" xlink:href="#bj"/><linearGradient id="es" x1="677.18882" y1="1653.43329" x2="652.92208" y2="1653.43329" gradientTransform="translate(881.36489 1886.52692) rotate(180)" xlink:href="#bj"/><linearGradient id="et" x1="677.18882" y1="1724.5496" x2="652.92208" y2="1724.5496" gradientTransform="translate(881.36489 1886.52692) rotate(180)" xlink:href="#bj"/><filter id="ev" x="173.79184" y="457.80552" width="348.64221" height="237.2555" filterUnits="userSpaceOnUse" color-interpolation-filters="sRGB"><feFlood flood-color="#fff" result="bg"/><feBlend in="SourceGraphic" in2="bg"/></filter><mask id="eu" x="173.79184" y="457.80552" width="348.64221" height="237.2555" maskUnits="userSpaceOnUse"><g style="filter:url(#ev)"><rect x="337.55486" y="484.33967" width="127.12375" height="206.70528" transform="translate(1111.19175 542.1911) rotate(120.64818)" style="fill:url(#g)"/></g></mask><filter id="ex" x="181.7485" y="422.68847" width="425.14416" height="274.75144" filterUnits="userSpaceOnUse" color-interpolation-filters="sRGB"><feFlood flood-color="#fff" result="bg"/><feBlend in="SourceGraphic" in2="bg"/></filter><mask id="ew" x="181.7485" y="422.68847" width="425.14416" height="274.75144" maskUnits="userSpaceOnUse"><g style="filter:url(#ex)"><rect x="397.88251" y="411.28938" width="90.14385" height="327.69938" transform="translate(1163.55713 487.24511) rotate(120.64818)" style="fill:url(#h)"/></g></mask><linearGradient id="ey" x1="314.00924" y1="604.44951" x2="289.7425" y2="604.44951" gradientTransform="translate(-299.42571 489.40925) rotate(-59.35182)" xlink:href="#bj"/><linearGradient id="ez" x1="314.00924" y1="811.633" x2="289.7425" y2="811.633" gradientTransform="translate(-299.42571 489.40925) rotate(-59.35182)" xlink:href="#bj"/><linearGradient id="fa" x1="314.00924" y1="787.65239" x2="289.7425" y2="787.65239" gradientTransform="translate(-299.42571 489.40925) rotate(-59.35182)" xlink:href="#bj"/><linearGradient id="fb" x1="314.00924" y1="739.40128" x2="289.7425" y2="739.40128" gradientTransform="translate(-299.42571 489.40925) rotate(-59.35182)" xlink:href="#bj"/><linearGradient id="fc" x1="314.00924" y1="715.69631" x2="289.7425" y2="715.69631" gradientTransform="translate(-299.42571 489.40925) rotate(-59.35182)" xlink:href="#bj"/><linearGradient id="fd" x1="314.00924" y1="691.7157" x2="289.7425" y2="691.7157" gradientTransform="translate(-299.42571 489.40925) rotate(-59.35182)" xlink:href="#bj"/><linearGradient id="fe" x1="314.00924" y1="762.83202" x2="289.7425" y2="762.83202" gradientTransform="translate(-299.42571 489.40925) rotate(-59.35182)" xlink:href="#bj"/><linearGradient id="ff" x1="314.00924" y1="549.29528" x2="289.7425" y2="549.29528" gradientTransform="translate(-299.42571 489.40925) rotate(-59.35182)" xlink:href="#bj"/><linearGradient id="fg" x1="314.00924" y1="525.59031" x2="289.7425" y2="525.59031" gradientTransform="translate(-299.42571 489.40925) rotate(-59.35182)" xlink:href="#bj"/><linearGradient id="fh" x1="314.00924" y1="501.6097" x2="289.7425" y2="501.6097" gradientTransform="translate(-299.42571 489.40925) rotate(-59.35182)" xlink:href="#bj"/><linearGradient id="fi" x1="314.00924" y1="572.72601" x2="289.7425" y2="572.72601" gradientTransform="translate(-299.42571 489.40925) rotate(-59.35182)" xlink:href="#bj"/><linearGradient id="fj" x1="314.00924" y1="453.3586" x2="289.7425" y2="453.3586" gradientTransform="translate(-299.42571 489.40925) rotate(-59.35182)" xlink:href="#bj"/><linearGradient id="fk" x1="314.00924" y1="429.65362" x2="289.7425" y2="429.65362" gradientTransform="translate(-299.42571 489.40925) rotate(-59.35182)" xlink:href="#bj"/><linearGradient id="fl" x1="314.00924" y1="405.67301" x2="289.7425" y2="405.67301" gradientTransform="translate(-299.42571 489.40925) rotate(-59.35182)" xlink:href="#bj"/><linearGradient id="fm" x1="314.00924" y1="476.78933" x2="289.7425" y2="476.78933" gradientTransform="translate(-299.42571 489.40925) rotate(-59.35182)" xlink:href="#bj"/><linearGradient id="fn" x1="314.00924" y1="644.27931" x2="289.7425" y2="644.27931" gradientTransform="translate(-299.42571 489.40925) rotate(-59.35182)" xlink:href="#bj"/><linearGradient id="fo" x1="314.00924" y1="620.57434" x2="289.7425" y2="620.57434" gradientTransform="translate(-299.42571 489.40925) rotate(-59.35182)" xlink:href="#bj"/><linearGradient id="fp" x1="314.00924" y1="596.59373" x2="289.7425" y2="596.59373" gradientTransform="translate(-299.42571 489.40925) rotate(-59.35182)" xlink:href="#bj"/><linearGradient id="fq" x1="314.00924" y1="667.71004" x2="289.7425" y2="667.71004" gradientTransform="translate(-299.42571 489.40925) rotate(-59.35182)" xlink:href="#bj"/></defs><title>SecretMixing</title><path d="M93.23807,411.83329a33.07876,33.07876,0,0,1,16.50746-28.58742l102.14709-58.97529a33.08617,33.08617,0,0,1,33.01492,0l102.14262,58.97529a33.07781,33.07781,0,0,1,16.50746,28.58742V529.77983a33.0827,33.0827,0,0,1-16.50746,28.58742L244.90754,617.343a33.08836,33.08836,0,0,1-33.01492,0L109.74553,558.36725a33.08365,33.08365,0,0,1-16.50746-28.58742Z" style="fill:url(#i)"/><path d="M113.10655,389.063l102.14709-58.97082a26.3688,26.3688,0,0,1,26.28841,0L343.68959,389.063a4.28188,4.28188,0,0,1,0,7.41705L241.54205,455.45532a27.29737,27.29737,0,0,1-26.28841,0L113.10655,396.48a4.28187,4.28187,0,0,1,0-7.41705Z" style="fill:url(#j)"/><path d="M221.674,607.81489a4.31814,4.31814,0,0,1-4.29637,4.29637,4.14194,4.14194,0,0,1-2.124-.58985L113.10655,552.55015a26.3669,26.3669,0,0,1-13.142-22.77032V411.83329a4.32108,4.32108,0,0,1,4.29189-4.3004,4.18245,4.18245,0,0,1,2.124.58986l102.14709,58.97573A26.36473,26.36473,0,0,1,221.674,489.86432Z" style="fill:url(#k)"/><path d="M356.83156,529.77983a26.3669,26.3669,0,0,1-13.142,22.77032L241.54205,611.52141a4.15379,4.15379,0,0,1-2.124.58985,4.31778,4.31778,0,0,1-4.29592-4.29637V489.86432a26.37,26.37,0,0,1,13.142-22.76584l102.14709-58.97573a4.20919,4.20919,0,0,1,2.1285-.58986,4.32135,4.32135,0,0,1,4.29189,4.3004Z" style="fill:url(#l)"/><g style="isolation:isolate"><polygon points="166.855 364.851 168.752 365.952 234.82 327.806 232.089 327.243 166.855 364.851" style="fill:url(#m)"/><polygon points="250.432 378.084 252.32 379.186 289.067 357.967 287.174 356.866 250.432 378.084" style="fill:url(#n)"/><polygon points="315.876 386.406 317.768 387.507 328.869 381.1 326.977 379.999 315.876 386.406" style="fill:url(#o)"/><polygon points="171.002 393.198 172.899 394.299 196.867 380.462 194.97 379.361 171.002 393.198" style="fill:url(#p)"/><path d="M112.3417,396.37083l1.89264,1.09692,35.497-20.5371a7.09637,7.09637,0,0,1,3.387-.8087h19.01189a19.85309,19.85309,0,0,0,9.61939-2.303l44.898-25.92143-1.89219-1.10587L179.85692,372.722a15.88936,15.88936,0,0,1-7.72228,1.84878l-19.01636-.00447a10.92653,10.92653,0,0,0-5.27961,1.26743Z" style="fill:url(#q)"/><polygon points="238.177 400.527 240.069 401.624 267.066 386.039 265.178 384.946 238.177 400.527" style="fill:url(#r)"/><polygon points="125.506 404.115 127.402 405.216 161.077 385.755 159.185 384.658 125.506 404.115" style="fill:url(#s)"/><path d="M241.2977,337.24652a3.84775,3.84775,0,0,0-2.20726,3.05087l-.04834,11.01795c-.0085,1.65186-1.18866,3.29075-3.22541,4.462l-25.46226,14.70253a3.82224,3.82224,0,0,0-2.20278,3.0549l-.05684,11.01392c-.0085,1.66037-1.18419,3.29076-3.22093,4.46644l-16.337,9.4359a15.96046,15.96046,0,0,1-7.72273,1.84431l-19.01591-.00448a10.9788,10.9788,0,0,0-5.27961,1.27191L138.7702,411.77645l1.89219,1.09737,17.74848-10.21418a7.03178,7.03178,0,0,1,3.37847-.80825h19.02039a19.89585,19.89585,0,0,0,9.61939-2.30348l16.337-9.4359c2.53933-1.45987,3.99473-3.49215,4.00771-5.56336l.06131-11.01392a2.43074,2.43074,0,0,1,1.416-1.95351l25.46271-14.70656c2.53933-1.45987,3.99428-3.48364,4.00771-5.55932l.06131-11.00945a2.43709,2.43709,0,0,1,1.40706-1.96246l6.07936-3.50915-1.89667-1.09736Z" style="fill:url(#t)"/><polygon points="152.122 419.438 154.019 420.535 169.639 411.55 167.747 410.452 152.122 419.438" style="fill:url(#u)"/><path d="M233.1422,372.6956a3.81123,3.81123,0,0,0-2.20726,3.05489l-.05236,11.018c-.0085,1.66081-1.19314,3.28224-3.22094,4.45793L165.478,427.187l1.89264,1.09692,62.18325-35.95167c2.53083-1.46837,3.99025-3.49617,4.00368-5.56379l.06534-11.01348a2.42532,2.42532,0,0,1,1.41153-1.96246l40.7636-23.53515-1.88771-1.09692Z" style="fill:url(#v)"/><path d="M218.97313,426.99008l1.89219,1.09289,9.40547-5.4282a16.03306,16.03306,0,0,1,7.71825-1.85326h19.01144a10.90494,10.90494,0,0,0,5.28409-1.25847l38.53038-22.2458a15.893,15.893,0,0,1,7.71825-1.85326h19.01144a10.91851,10.91851,0,0,0,5.293-1.26743l9.30477-5.36688-1.89712-1.10139-9.30029,5.37135a7.023,7.023,0,0,1-3.38295.81273H308.5417a19.76011,19.76011,0,0,0-9.61491,2.30348l-38.53441,22.2458a6.97894,6.97894,0,0,1-3.38295.81273H237.99755a19.8722,19.8722,0,0,0-9.6194,2.299Z" style="fill:url(#w)"/><path d="M207.39978,418.30156c-2.53888,1.45987-3.99875,3.49215-4.01218,5.55933l-.06981,11.01392a2.41869,2.41869,0,0,1-1.40707,1.962L191.902,442.50131l1.89712,1.09692,10.0083-5.664a3.78353,3.78353,0,0,0,2.19384-3.05937l.07026-11.01392c.0085-1.66082,1.17971-3.28628,3.21646-4.462l13.13347-7.5831a15.8812,15.8812,0,0,1,7.71377-1.8528h19.02486a10.9197,10.9197,0,0,0,5.28409-1.26341l24.3828-14.07285a3.8197,3.8197,0,0,0,2.1983-3.05937l.06132-11.01347c.013-1.6653,1.18418-3.28673,3.21646-4.46241l18.03267-10.41064-1.89667-1.1014-18.0282,10.41065c-2.53083,1.46837-3.9992,3.49214-4.0077,5.5638l-.06132,11.01347a2.44657,2.44657,0,0,1-1.4075,1.95351l-24.3828,14.0818a7.02641,7.02641,0,0,1-3.387.80422l-19.02039.009a19.70529,19.70529,0,0,0-9.61089,2.29856Z" style="fill:url(#x)"/><path d="M205.171,450.06651l1.88817,1.09691,27.14948-15.41009a6.94785,6.94785,0,0,1,3.374-.8087h19.02486a19.88037,19.88037,0,0,0,9.61492-2.30348l50.22143-28.99782-1.89711-1.09736-50.217,28.99423a15.86647,15.86647,0,0,1-7.71377,1.84834H237.59118a10.93212,10.93212,0,0,0-5.27961,1.25892Z" style="fill:url(#y)"/><polygon points="219.004 457.671 221.438 458.541 249.492 442.296 247.6 441.199 219.004 457.671" style="fill:url(#z)"/></g><polygon points="294.971 383.106 296.868 384.208 315.605 373.391 313.712 372.285 294.971 383.106" style="fill:url(#aa)"/><polygon points="178.926 434.936 180.819 436.033 192.523 429.263 190.635 428.17 178.926 434.936" style="fill:url(#ab)"/><polygon points="159.889 392.369 227.407 353.945 293.98 392.82 227.407 430.21 159.889 392.369" style="fill:url(#ac)"/><polygon points="227.407 353.945 227.407 362.37 167.3 396.523 159.889 392.369 227.407 353.945" style="fill:url(#ad)"/><polygon points="293.98 392.82 227.407 353.945 227.407 362.37 287.388 396.523 293.98 392.82" style="fill:url(#ae)"/><polygon points="330.271 446.51 330.231 524.196 263.496 562.793 263.968 486.44 330.271 446.51" style="fill:url(#af)"/><polygon points="330.231 524.196 322.911 520.025 322.994 450.893 330.271 446.51 330.231 524.196" style="fill:url(#ag)"/><polygon points="263.496 562.793 330.231 524.196 322.911 520.025 263.543 555.232 263.496 562.793" style="fill:url(#ah)"/><g style="isolation:isolate"><g style="clip-path:url(#ai)"><path d="M123.34351,477.24088l-7.57056,4.07253c-.56362.29923-.57935,1.33362-.03209,2.29626a2.88991,2.88991,0,0,0,1.02232,1.07448,1.03108,1.03108,0,0,0,.98874.12333l7.53854-4.05426c-.70023-1.13912-1.3492-2.3148-1.947-3.51234" style="fill:#ed695d"/><path d="M116.76318,484.68415a2.88991,2.88991,0,0,1-1.02232-1.07448c-.54726-.96264-.53153-1.997.03209-2.29626l7.57056-4.07253c.59775,1.19754,1.24672,2.37322,1.947,3.51234l-7.53854,4.05426a1.03108,1.03108,0,0,1-.98874-.12333m6.654-8.61322-8.13418,4.37172c-.84544.4525-.869,1.99676-.05453,3.44436a4.37485,4.37485,0,0,0,1.53022,1.62567,1.53207,1.53207,0,0,0,1.4896.1619l8.083-4.34987-.28648-.45932a44.67652,44.67652,0,0,1-2.386-4.30224l-.24162-.49222" style="fill:#ed685d"/><path d="M165.56525,501.61762l-6.57784,3.55075-6.47891-11.045a9.48723,9.48723,0,0,1-1.96681,1.238l7.42083,12.65433a2.90286,2.90286,0,0,0,1.01287,1.0322,1.071,1.071,0,0,0,1.00465.14l7.53854-4.05426c-.70022-1.13912-1.35558-2.31849-1.95333-3.516" style="fill:#ed695d"/><path d="M158.98741,505.16837l6.57784-3.55075c.59775,1.19753,1.25311,2.3769,1.95333,3.516L159.98,509.1879a1.071,1.071,0,0,1-1.00465-.14,2.90286,2.90286,0,0,1-1.01287-1.0322l-7.42083-12.65433a9.48723,9.48723,0,0,0,1.96681-1.238l6.47891,11.045m6.6515-4.72071-6.64825,3.57622L152.44172,492.865l-.24363.21942a8.93963,8.93963,0,0,1-2.40889,1.52656l-.29451.11657,7.96816,13.58759a4.53587,4.53587,0,0,0,1.524,1.578,1.53211,1.53211,0,0,0,1.4896.16191l8.083-4.34987-.28651-.452a46.63663,46.63663,0,0,1-2.39234-4.30591l-.24161-.49957" style="fill:#ed685d"/><path d="M138.00386,462.73372a16.72965,16.72965,0,0,1,7.59208,13.15c-.01368,4.82742-3.4342,6.77667-7.64169,4.34747a16.72776,16.72776,0,0,1-7.5921-13.1427c.0137-4.83473,3.43422-6.784,7.64171-4.35478m.01044-3.68288c-5.96966-3.44659-10.8378-.67238-10.85725,6.1872-.01943,6.85225,4.8171,15.22946,10.78676,18.676,5.96328,3.4429,10.83142.66869,10.85085-6.18357.01944-6.85957-4.81709-15.23677-10.78036-18.67967" style="fill:#ed695d"/><path d="M137.94381,483.91408c-5.96966-3.44658-10.80619-11.82379-10.78676-18.676.01945-6.85958,4.88759-9.63379,10.85725-6.1872,5.96327,3.4429,10.7998,11.8201,10.78036,18.67967-.01943,6.85226-4.88757,9.62647-10.85085,6.18357m.0728-25.67761c-6.35913-3.67144-11.54754-.71471-11.56826,6.5924-.02069,7.29979,5.134,16.22814,11.49315,19.89958s11.54754.71471,11.56824-6.58509c.02071-7.3071-5.134-16.23545-11.49313-19.90689" style="fill:#ed685d"/><path d="M180.2256,487.11046a16.72967,16.72967,0,0,1,7.59209,13.15c-.01369,4.82741-3.4342,6.77666-7.64169,4.34747a16.72576,16.72576,0,0,1-7.58572-13.139c.0137-4.83472,3.43422-6.784,7.63532-4.35846m.01044-3.68289c-5.96327-3.4429-10.83142-.66869-10.85086,6.19089-.01943,6.85226,4.8171,15.22946,10.78037,18.67236,5.96966,3.44658,10.83781.67238,10.85724-6.17988.01944-6.85958-4.8171-15.23679-10.78675-18.68337" style="fill:#ed695d"/><path d="M180.16555,508.29082c-5.96327-3.4429-10.7998-11.8201-10.78037-18.67236.01944-6.85958,4.88759-9.63379,10.85086-6.19089,5.96965,3.44658,10.80619,11.82379,10.78675,18.68337-.01943,6.85226-4.88758,9.62646-10.85724,6.17988m.0728-25.67761c-6.35274-3.66776-11.54115-.711-11.56187,6.59608-.02069,7.29979,5.134,16.22814,11.48677,19.8959,6.35912,3.67144,11.54753.7147,11.56823-6.58509.02072-7.30711-5.134-16.23545-11.49313-19.90689" style="fill:#ed685d"/><path d="M194.58354,518.364a9.50877,9.50877,0,0,1-2.08138,1.047l6.3569,11.22437-6.36752,3.80444c.73227,1.11354,1.42606,2.271,2.06225,3.44662l7.29637-4.35574a1.07484,1.07484,0,0,0,.40558-.94895,2.86289,2.86289,0,0,0-.399-1.37671l-7.27321-12.841" style="fill:#ed695d"/><path d="M194.55379,537.88638c-.63619-1.17562-1.33-2.33308-2.06225-3.44662l6.36752-3.80444-6.3569-11.22437a9.50877,9.50877,0,0,0,2.08138-1.047l7.27321,12.841a2.86289,2.86289,0,0,1,.399,1.37671,1.07484,1.07484,0,0,1-.40558.94895l-7.29637,4.35574m.00761-20.733-.25632.1827a8.77443,8.77443,0,0,1-2.5489,1.28407l-.31363.09815,6.42689,11.34563-6.438,3.8446.312.45941a43.82725,43.82725,0,0,1,2.52689,4.22193l.25445.47758,7.82809-4.68073a1.5731,1.5731,0,0,0,.61149-1.39589,4.26286,4.26286,0,0,0-.59531-2.05588l-7.80772-13.78157" style="fill:#ed685d"/><path d="M180.089,535.28165a16.72971,16.72971,0,0,1,7.59208,13.15c-.01369,4.82739-3.43422,6.784-7.64171,4.35478a16.739,16.739,0,0,1-7.5857-13.14633c.01371-4.8347,3.43422-6.784,7.63533-4.35847m.01044-3.6829c-5.96328-3.4429-10.83144-.66136-10.85087,6.1909s4.8171,15.22949,10.78038,18.67239c5.96965,3.44658,10.83781.67235,10.85723-6.17991s-4.81709-15.23681-10.78674-18.68338" style="fill:#ed695d"/><path d="M180.029,556.462c-5.96328-3.4429-10.79981-11.82013-10.78038-18.67239s4.88759-9.6338,10.85087-6.1909c5.96965,3.44657,10.80617,11.83113,10.78674,18.68338s-4.88758,9.62649-10.85723,6.17991m.0728-25.67761c-6.35274-3.66776-11.54116-.71105-11.56187,6.59606s5.134,16.23548,11.48674,19.90323c6.35912,3.67144,11.54754.71468,11.56825-6.59242s-5.134-16.23543-11.49312-19.90687" style="fill:#ed685d"/></g></g><g style="mask:url(#aj)"><g style="mask:url(#al)"><path d="M443.16871,114.65869l.06468,233.01491s.535,10.38286-6.7724,17.038a100.38284,100.38284,0,0,1-18.0796,11.74971L257.06854,471.54884l-.96388,15.21232,22.8381.42985,163.55971-96.39873s13.84051-6.8546,19.13292-14.41743c5.92987-8.47376,5.25163-23.40656,5.25163-23.40656l.5483-226.87058-12.51427,8.407Z" style="opacity:0.31;fill:url(#an)"/><polygon points="423.785 401.716 400.466 401.567 401.429 386.354 387.228 394.642 386.264 409.854 409.102 410.284 423.785 401.716" style="opacity:0.2;fill:url(#ao)"/><polygon points="444.726 389.495 421.406 389.346 421.992 374.55 408.169 382.421 407.205 397.633 430.043 398.063 444.726 389.495" style="fill:url(#ap)"/><polygon points="380.635 427.288 357.316 427.139 358.28 411.927 344.078 420.215 343.115 435.427 365.953 435.857 380.635 427.288" style="fill:url(#aq)"/><polygon points="401.576 415.067 378.257 414.918 379.221 399.706 365.019 407.994 364.055 423.206 386.893 423.636 401.576 415.067" style="opacity:0.4;fill:url(#ar)"/><polygon points="337.442 452.683 314.122 452.534 315.086 437.322 300.885 445.609 299.921 460.822 322.759 461.252 337.442 452.683" style="opacity:0.4;fill:url(#as)"/><polygon points="358.383 440.462 335.063 440.313 336.027 425.101 321.826 433.389 320.862 448.601 343.7 449.031 358.383 440.462" style="opacity:0.2;fill:url(#at)"/><polygon points="293.625 478.622 270.306 478.473 271.27 463.261 257.069 471.549 256.105 486.761 278.943 487.191 293.625 478.622" style="fill:url(#au)"/><polygon points="314.566 466.402 291.247 466.253 292.211 451.04 278.009 459.328 277.045 474.54 299.884 474.97 314.566 466.402" style="opacity:0.2;fill:url(#av)"/><path d="M464.44484,371.33159s-7.79333,1.4765-11.20878,1.77995c-2.58656.2298-6.97885.26717-6.97885.26717s-.83109-4.41417-1.26937-5.98453c-.6974-2.49877-3.27337-10.292-3.27337-10.292a23.01149,23.01149,0,0,1-5.25348,7.60947,40.0755,40.0755,0,0,1-5.67136,4.272l-1.87193,16.18979,24.28939-.69753a35.57027,35.57027,0,0,0,6.10875-5.33713A23.2176,23.2176,0,0,0,464.44484,371.33159Z" style="opacity:0.4;fill:url(#aw)"/><path d="M442.98843,332.05974l11.989,16.67835,11.83526-3.904s.10252,6.80984.06683,12.49775c-.00435.69323-.223,2.96675-.223,2.96675s-3.76053.42258-6.73922,1.03073a57.55156,57.55156,0,0,0-6.84711,2.067s-2.52157-6.292-4.1785-8.363c-1.87725-2.34646-5.65826-7.3597-5.65826-7.3597a22.2204,22.2204,0,0,1-.149-2.31031C443.21176,339.45256,442.98843,332.05974,442.98843,332.05974Z" style="opacity:0.2;fill:url(#ax)"/><polygon points="443.169 258.281 454.921 278.127 467.435 269.72 467.435 285.983 454.921 294.39 443.169 275.095 443.169 258.281" style="opacity:0.2;fill:url(#ay)"/><polygon points="443.169 234.576 454.921 254.422 467.435 246.015 467.435 262.278 454.921 270.685 443.169 251.39 443.169 234.576" style="fill:url(#az)"/><polygon points="443.169 210.595 454.921 230.441 467.435 222.034 467.435 238.297 454.921 246.704 443.169 227.409 443.169 210.595" style="opacity:0.4;fill:url(#ba)"/><g style="opacity:0.4"><polygon points="443.169 281.712 454.921 301.558 467.435 293.151 467.435 309.413 454.921 317.82 443.169 298.526 443.169 281.712" style="fill:url(#bb)"/></g><polygon points="443.169 162.344 454.921 182.19 467.435 173.783 467.435 190.046 454.921 198.453 443.169 179.158 443.169 162.344" style="fill:url(#bc)"/><polygon points="443.169 138.639 454.921 158.485 467.435 150.078 467.435 166.341 454.921 174.748 443.169 155.453 443.169 138.639" style="opacity:0.6000000000000001;fill:url(#bd)"/><polygon points="443.169 114.659 454.921 134.505 467.435 126.098 467.435 142.36 454.921 150.767 443.169 131.473 443.169 114.659" style="opacity:0.2;fill:url(#be)"/><g style="opacity:0.2"><polygon points="443.169 185.775 454.921 205.621 467.435 197.214 467.435 213.477 454.921 221.884 443.169 202.589 443.169 185.775" style="fill:url(#bf)"/></g><polygon points="443.169 305.579 454.921 325.425 467.435 317.018 467.435 333.281 454.921 341.688 443.169 322.393 443.169 305.579" style="fill:url(#bg)"/></g><g style="mask:url(#bh)"><path d="M134.51008,424.30327,37.02174,366.97005s-9.21833-4.80753-11.24507-14.48132a100.38278,100.38278,0,0,1-.95055-21.54122L24.722,49.25573,12.10269,40.706.14359,60.16734.23753,344.46057S-.879,359.86508,2.95235,368.26311c4.2928,9.40956,17.50445,16.40245,17.50445,16.40245l91.88277,54.74361-.89416-15.04942Z" style="opacity:0.31;fill:url(#bj)"/><polygon points="0 100.388 11.973 80.542 24.722 88.949 24.722 72.686 11.973 64.279 0 83.574 0 100.388" style="fill:url(#bk)"/><polygon points="0 124.093 11.973 104.247 24.722 112.654 24.722 96.391 11.973 87.984 0 107.279 0 124.093" style="opacity:0.6000000000000001;fill:url(#bl)"/><polygon points="0 148.074 11.973 128.228 24.722 136.635 24.722 120.372 11.973 111.965 0 131.26 0 148.074" style="opacity:0.2;fill:url(#bm)"/><g style="opacity:0.2"><polygon points="0 76.957 11.973 57.111 24.722 65.518 24.722 49.256 11.973 40.849 0 60.143 0 76.957" style="fill:url(#bn)"/></g><polygon points="0.323 322.789 12.284 302.77 24.903 311.32 24.968 294.878 12.349 286.328 0.39 305.789 0.323 322.789" style="opacity:0.2;fill:url(#bo)"/><polygon points="0.227 347.035 12.189 327.016 24.641 335.028 24.873 319.123 12.253 310.574 0.294 330.035 0.227 347.035" style="fill:url(#bp)"/><polygon points="0.182 272.631 12.144 252.612 24.763 261.162 24.828 244.719 12.208 236.17 0.249 255.631 0.182 272.631" style="fill:url(#bq)"/><polygon points="0.087 296.877 12.048 276.858 24.668 285.408 24.732 268.965 12.113 260.416 0.154 279.877 0.087 296.877" style="opacity:0.4;fill:url(#br)"/><polygon points="0.217 222.525 12.179 202.507 24.798 211.056 24.863 194.614 12.243 186.064 0.284 205.526 0.217 222.525" style="opacity:0.4;fill:url(#bs)"/><polygon points="0.122 246.771 12.083 226.753 24.703 235.302 24.767 218.86 12.148 210.31 0.189 229.771 0.122 246.771" style="opacity:0.2;fill:url(#bt)"/><polygon points="0.099 171.607 12.061 151.588 24.68 160.138 24.745 143.695 12.125 135.145 0.166 154.607 0.099 171.607" style="fill:url(#bu)"/><polygon points="0.004 195.852 11.965 175.834 24.584 184.383 24.649 167.941 12.03 159.391 0.071 178.852 0.004 195.852" style="opacity:0.2;fill:url(#bv)"/><path d="M5.8725,373.24309s2.68226-7.46469,4.15388-10.56173c1.11448-2.34544,3.31105-6.14921,3.31105-6.14921s4.22538,1.52373,5.801,1.94291c2.507.667,10.52956,2.40182,10.52956,2.40182a23.01136,23.01136,0,0,1-3.89127-8.38815,40.07582,40.07582,0,0,1-.80333-7.05471l-13.00078-9.82819L.24849,356.8898a35.57028,35.57028,0,0,0,1.49922,7.97208A23.21761,23.21761,0,0,0,5.8725,373.24309Z" style="opacity:0.4;fill:url(#bw)"/><path d="M50.6004,374.68189l-20.45517,1.86774L27.50376,388.729s-5.92-3.36717-10.80315-6.28413c-.59514-.35551-2.44327-1.69757-2.44327-1.69757s1.54407-3.45485,2.5315-6.33017a57.54975,57.54975,0,0,0,1.69325-6.949s6.70127,1.0199,9.32667.64306c2.9745-.427,9.213-1.14117,9.213-1.14117a22.2216,22.2216,0,0,1,2.0664,1.0439C44.11673,371.123,50.6004,374.68189,50.6004,374.68189Z" style="opacity:0.2;fill:url(#bx)"/><polygon points="114.084 412.275 91.019 412.331 91.913 427.381 77.9 419.128 77.005 404.079 99.595 403.743 114.084 412.275" style="opacity:0.2;fill:url(#by)"/><polygon points="134.51 424.303 111.445 424.36 112.34 439.409 98.326 431.157 97.432 416.108 120.022 415.771 134.51 424.303" style="fill:url(#bz)"/><g style="opacity:0.4"><polygon points="93.894 400.385 70.829 400.442 71.723 415.491 57.71 407.239 56.815 392.19 79.405 391.853 93.894 400.385" style="fill:url(#ca)"/></g><polygon points="73.327 388.274 50.262 388.331 51.156 403.38 37.143 395.128 36.249 380.078 58.838 379.742 73.327 388.274" style="fill:url(#cb)"/></g><g style="mask:url(#cc)"><path d="M311.15936,399.239l66.577-37.024s19.47745-10.28521,23.16013-15.8832c6.69849-10.18228,4.70207-15.88079,4.70207-15.88079V126.04586l24.26674,10.88775V338.90555s-1.18392,12.93957-5.93157,20.00224c-4.09671,6.09431-23.59554,17.5229-23.59554,17.5229l-66.68861,37.11675-4.694-10.83748Z" style="opacity:0.30000000000000004;fill:url(#ce)"/><polygon points="429.865 236.442 418.113 216.596 405.599 225.003 405.599 208.74 418.113 200.333 429.865 219.628 429.865 236.442" style="fill:url(#cf)"/><polygon points="429.865 260.147 418.113 240.301 405.599 248.708 405.599 232.445 418.113 224.038 429.865 243.333 429.865 260.147" style="opacity:0.6000000000000001;fill:url(#cg)"/><polygon points="429.865 284.127 418.113 264.281 405.599 272.688 405.599 256.425 418.113 248.018 429.865 267.313 429.865 284.127" style="opacity:0.2;fill:url(#ch)"/><g style="opacity:0.2"><polygon points="429.865 213.011 418.113 193.165 405.599 201.572 405.599 185.309 418.113 176.902 429.865 196.197 429.865 213.011" style="fill:url(#ci)"/></g><polygon points="429.78 308.505 418.322 288.381 405.971 296.819 406.054 280.377 418.405 271.939 429.865 291.505 429.78 308.505" style="fill:url(#cj)"/><polygon points="429.657 332.751 418.2 312.627 405.848 321.065 405.931 304.622 418.283 296.184 429.743 315.751 429.657 332.751" style="opacity:0.4;fill:url(#ck)"/><path d="M423.93374,358.90779s-2.543-7.4881-3.947-10.598c-1.0633-2.35519-3.16628-6.17823-3.16628-6.17823s-4.12373,1.48633-5.66007,1.89157c-2.44465.64482-10.26388,2.30866-10.26388,2.30866a43.59132,43.59132,0,0,0,3.8596-8.35342,35.39346,35.39346,0,0,0,1.47333-7.52737l12.10426-9.23286,11.21579,21.38674a36.47381,36.47381,0,0,1-1.52905,7.95851A23.434,23.434,0,0,1,423.93374,358.90779Z" style="opacity:0.2;fill:url(#cl)"/><path d="M408.57672,371.264l-4.22186-11.267-19.29981-1.27379s4.91707-3.32015,9.19214-6.06088c.521-.334,1.964-1.45331,1.964-1.45331s5.39038.42317,10.17019.44726c2.06225.0104,6.99455-.32773,6.99455-.32773s2.27528,3.65666,3.03257,5.10069c.858,1.63605,3.42853,7.21961,3.42853,7.21961a13.93773,13.93773,0,0,1-1.50985,1.15691C413.75949,367.62972,408.57672,371.264,408.57672,371.264Z" style="fill:url(#cm)"/><polygon points="388.527 383.16 383.833 372.322 366.037 368.851 377.736 362.215 396.146 365.319 400.338 376.431 388.527 383.16" style="opacity:0.4;fill:url(#cn)"/><polygon points="370.23 393.348 365.536 382.511 347.739 379.04 359.439 372.404 377.848 375.508 382.041 386.62 370.23 393.348" style="opacity:0.2;fill:url(#co)"/><polygon points="351.947 403.359 347.253 392.521 329.457 389.05 341.156 382.414 359.566 385.518 363.758 396.63 351.947 403.359" style="fill:url(#cp)"/><polygon points="333.65 413.547 328.956 402.71 311.159 399.239 322.859 392.603 341.268 395.707 345.461 406.819 333.65 413.547" style="opacity:0.4;fill:url(#cq)"/></g><g style="mask:url(#cr)"><path d="M61.45422,91.73818l-.06457,232.64544s-.53418,10.3664,6.76165,17.011a100.22374,100.22374,0,0,0,18.05094,11.73108l53.44144,31.38094.96235,15.18819-22.80189.42917-55.68473-32.6901s-13.81857-6.84372-19.10259-14.39457c-5.92046-8.46032-5.2433-23.36944-5.2433-23.36944l-.54743-226.51085,12.49442,8.39366Z" style="opacity:0.31;fill:url(#ct)"/><polygon points="80.876 378.204 104.196 378.055 103.232 362.843 117.433 371.131 118.397 386.343 95.559 386.773 80.876 378.204" style="opacity:0.2;fill:url(#cu)"/><polygon points="59.936 365.984 83.255 365.835 82.67 351.039 96.492 358.91 97.456 374.122 74.618 374.552 59.936 365.984" style="fill:url(#cv)"/><polygon points="103.085 391.556 126.405 391.407 125.441 376.195 139.642 384.483 140.606 399.695 117.768 400.125 103.085 391.556" style="opacity:0.4;fill:url(#cw)"/><path d="M40.21657,347.82039s7.79333,1.47651,11.20878,1.78c2.58656.2298,6.97885.26718,6.97885.26718s.83109-4.41417,1.26938-5.98453c.6974-2.49878,3.27336-10.292,3.27336-10.292a23.01149,23.01149,0,0,0,5.25348,7.60947,40.0755,40.0755,0,0,0,5.67136,4.272l1.87193,16.18979-24.28939-.69753a35.57027,35.57027,0,0,1-6.10875-5.33713A23.21768,23.21768,0,0,1,40.21657,347.82039Z" style="opacity:0.4;fill:url(#cx)"/><path d="M61.673,308.54854,49.684,325.2269l-11.83526-3.904s-.10252,6.80984-.06683,12.49775c.00435.69322.223,2.96675.223,2.96675s3.76053.42258,6.73922,1.03073a57.5509,57.5509,0,0,1,6.84711,2.067s2.52157-6.292,4.1785-8.363c1.87725-2.34646,5.65826-7.35971,5.65826-7.35971a22.222,22.222,0,0,0,.149-2.31031C61.44965,315.94136,61.673,308.54854,61.673,308.54854Z" style="opacity:0.2;fill:url(#cy)"/><polygon points="61.493 234.77 49.74 254.616 37.226 246.209 37.226 262.472 49.74 270.878 61.493 251.584 61.493 234.77" style="opacity:0.2;fill:url(#cz)"/><polygon points="61.493 211.065 49.74 230.911 37.226 222.504 37.226 238.767 49.74 247.174 61.493 227.879 61.493 211.065" style="fill:url(#da)"/><polygon points="61.493 187.084 49.74 206.93 37.226 198.523 37.226 214.786 49.74 223.193 61.493 203.898 61.493 187.084" style="opacity:0.4;fill:url(#db)"/><g style="opacity:0.4"><polygon points="61.493 258.2 49.74 278.047 37.226 269.64 37.226 285.902 49.74 294.309 61.493 275.014 61.493 258.2" style="fill:url(#dc)"/></g><polygon points="61.493 138.833 49.74 158.679 37.226 150.272 37.226 166.535 49.74 174.942 61.493 155.647 61.493 138.833" style="fill:url(#dd)"/><polygon points="61.493 115.128 49.74 134.974 37.226 126.567 37.226 142.83 49.74 151.237 61.493 131.942 61.493 115.128" style="opacity:0.6000000000000001;fill:url(#de)"/><polygon points="61.493 91.147 49.74 110.994 37.226 102.587 37.226 118.849 49.74 127.256 61.493 107.961 61.493 91.147" style="opacity:0.2;fill:url(#df)"/><g style="opacity:0.2"><polygon points="61.493 162.264 49.74 182.11 37.226 173.703 37.226 189.966 49.74 198.373 61.493 179.078 61.493 162.264" style="fill:url(#dg)"/></g><polygon points="61.493 282.068 49.74 301.914 37.226 293.507 37.226 309.77 49.74 318.177 61.493 298.882 61.493 282.068" style="fill:url(#dh)"/></g></g><g style="mask:url(#di)"><g style="mask:url(#dk)"><polygon points="263.24 153.09 263.24 419.949 239.971 409.509 239.971 142.121 251.24 161.151 263.24 153.09" style="opacity:0.30000000000000004;fill:url(#dm)"/><polygon points="239.971 279.839 251.24 298.869 263.24 290.808 263.24 306.402 251.24 314.464 239.971 295.962 239.971 279.839" style="opacity:0.2;fill:url(#dn)"/><polygon points="239.971 257.109 251.24 276.139 263.24 268.077 263.24 283.672 251.24 291.733 239.971 273.231 239.971 257.109" style="fill:url(#do)"/><polygon points="239.971 234.114 251.24 253.144 263.24 245.083 263.24 260.677 251.24 268.738 239.971 250.237 239.971 234.114" style="opacity:0.6000000000000001;fill:url(#dp)"/><g style="opacity:0.6000000000000001"><polygon points="239.971 302.307 251.24 321.337 263.24 313.276 263.24 328.87 251.24 336.931 239.971 318.43 239.971 302.307" style="fill:url(#dq)"/></g><polygon points="239.971 187.846 251.24 206.876 263.24 198.815 263.24 214.409 251.24 222.471 239.971 203.969 239.971 187.846" style="fill:url(#dr)"/><polygon points="239.971 165.116 251.24 184.146 263.24 176.084 263.24 191.679 251.24 199.74 239.971 181.238 239.971 165.116" style="opacity:0.6000000000000001;fill:url(#ds)"/><polygon points="239.971 142.121 251.24 161.151 263.24 153.09 263.24 168.684 251.24 176.745 239.971 158.244 239.971 142.121" style="opacity:0.2;fill:url(#dt)"/><g style="opacity:0.2"><polygon points="239.971 210.314 251.24 229.344 263.24 221.283 263.24 236.877 251.24 244.938 239.971 226.437 239.971 210.314" style="fill:url(#du)"/></g><polygon points="239.971 370.919 251.24 389.949 263.24 381.888 263.24 397.482 251.24 405.543 239.971 387.042 239.971 370.919" style="opacity:0.6000000000000001;fill:url(#dv)"/><polygon points="239.971 348.188 251.24 367.218 263.24 359.157 263.24 374.751 251.24 382.813 239.971 364.311 239.971 348.188" style="opacity:0.2;fill:url(#dw)"/><polygon points="239.971 325.193 251.24 344.224 263.24 336.162 263.24 351.756 251.24 359.818 239.971 341.316 239.971 325.193" style="fill:url(#dx)"/><polygon points="239.971 393.386 251.24 412.417 263.24 404.355 263.24 419.949 251.24 428.011 239.971 409.509 239.971 393.386" style="fill:url(#dy)"/></g><g style="mask:url(#dz)"><polygon points="204.176 430.63 204.176 8.407 228.443 19.295 228.443 442.069 216.69 422.223 204.176 430.63" style="opacity:0.30000000000000004;fill:url(#eb)"/><polygon points="228.443 36.109 216.69 16.263 204.176 24.67 204.176 8.407 216.69 0 228.443 19.295 228.443 36.109" style="fill:url(#ec)"/><polygon points="228.443 60.089 216.69 40.243 204.176 48.65 204.176 32.388 216.69 23.981 228.443 43.275 228.443 60.089" style="opacity:0.6000000000000001;fill:url(#ed)"/><polygon points="228.443 108.34 216.69 88.494 204.176 96.901 204.176 80.639 216.69 72.232 228.443 91.526 228.443 108.34" style="fill:url(#ee)"/><polygon points="228.443 132.045 216.69 112.199 204.176 120.606 204.176 104.344 216.69 95.937 228.443 115.231 228.443 132.045" style="opacity:0.6000000000000001;fill:url(#ef)"/><polygon points="228.443 156.026 216.69 136.18 204.176 144.587 204.176 128.324 216.69 119.917 228.443 139.212 228.443 156.026" style="opacity:0.2;fill:url(#eg)"/><g style="opacity:0.2"><polygon points="228.443 84.91 216.69 65.064 204.176 73.471 204.176 57.208 216.69 48.801 228.443 68.096 228.443 84.91" style="fill:url(#eh)"/></g><polygon points="228.443 298.446 216.69 278.6 204.176 287.007 204.176 270.745 216.69 262.338 228.443 281.632 228.443 298.446" style="opacity:0.2;fill:url(#ei)"/><polygon points="228.443 322.151 216.69 302.305 204.176 310.712 204.176 294.45 216.69 286.043 228.443 305.337 228.443 322.151" style="fill:url(#ej)"/><polygon points="228.443 346.132 216.69 326.286 204.176 334.693 204.176 318.43 216.69 310.023 228.443 329.318 228.443 346.132" style="opacity:0.6000000000000001;fill:url(#ek)"/><g style="opacity:0.6000000000000001"><polygon points="228.443 275.016 216.69 255.17 204.176 263.577 204.176 247.314 216.69 238.907 228.443 258.202 228.443 275.016" style="fill:url(#el)"/></g><polygon points="228.443 394.383 216.69 374.537 204.176 382.944 204.176 366.681 216.69 358.274 228.443 377.569 228.443 394.383" style="fill:url(#em)"/><polygon points="228.443 418.088 216.69 398.242 204.176 406.649 204.176 390.386 216.69 381.979 228.443 401.274 228.443 418.088" style="opacity:0.6000000000000001;fill:url(#en)"/><polygon points="228.443 442.069 216.69 422.223 204.176 430.63 204.176 414.367 216.69 405.96 228.443 425.255 228.443 442.069" style="opacity:0.2;fill:url(#eo)"/><g style="opacity:0.2"><polygon points="228.443 370.952 216.69 351.106 204.176 359.513 204.176 343.251 216.69 334.844 228.443 354.138 228.443 370.952" style="fill:url(#ep)"/></g><polygon points="228.443 203.462 216.69 183.616 204.176 192.023 204.176 175.761 216.69 167.354 228.443 186.648 228.443 203.462" style="opacity:0.6000000000000001;fill:url(#eq)"/><polygon points="228.443 227.167 216.69 207.321 204.176 215.728 204.176 199.466 216.69 191.059 228.443 210.353 228.443 227.167" style="opacity:0.2;fill:url(#er)"/><polygon points="228.443 251.148 216.69 231.302 204.176 239.709 204.176 223.446 216.69 215.039 228.443 234.334 228.443 251.148" style="fill:url(#es)"/><polygon points="228.443 180.032 216.69 160.186 204.176 168.593 204.176 152.33 216.69 143.923 228.443 163.218 228.443 180.032" style="fill:url(#et)"/></g><g style="mask:url(#eu)"><polygon points="404.193 608.538 174.61 472.502 195.454 457.806 425.492 594.111 403.375 594.105 404.193 608.538" style="fill:#36a9e1;opacity:0.30000000000000004"/><polygon points="307.011 523.907 284.894 523.901 285.712 538.334 272.296 530.385 271.478 515.952 293.14 515.688 307.011 523.907" style="fill:#36a9e1;opacity:0.2"/><polygon points="326.566 535.494 304.449 535.488 305.268 549.921 291.852 541.972 291.033 527.539 312.695 527.275 326.566 535.494" style="fill:#36a9e1"/><polygon points="346.349 547.216 324.232 547.21 325.05 561.643 311.634 553.694 310.816 539.261 332.478 538.997 346.349 547.216" style="fill:#36a9e1;opacity:0.6000000000000001"/><g style="opacity:0.6000000000000001"><polygon points="287.681 512.454 265.565 512.448 266.383 526.881 252.967 518.931 252.149 504.498 273.811 504.235 287.681 512.454" style="fill:#36a9e1"/></g><polygon points="386.153 570.802 364.037 570.796 364.855 585.229 351.439 577.28 350.621 562.846 372.283 562.583 386.153 570.802" style="fill:#36a9e1"/><polygon points="405.709 582.389 383.592 582.383 384.41 596.816 370.995 588.867 370.176 574.434 391.838 574.17 405.709 582.389" style="fill:#36a9e1;opacity:0.6000000000000001"/><polygon points="425.492 594.111 403.375 594.105 404.193 608.538 390.777 600.589 389.959 586.156 411.621 585.892 425.492 594.111" style="fill:#36a9e1;opacity:0.2"/><g style="opacity:0.2"><polygon points="366.824 559.348 344.708 559.343 345.526 573.776 332.11 565.826 331.292 551.393 352.954 551.13 366.824 559.348" style="fill:#36a9e1"/></g><polygon points="228.654 477.478 206.537 477.472 207.355 491.905 193.939 483.955 193.121 469.522 214.783 469.259 228.654 477.478" style="fill:#36a9e1;opacity:0.6000000000000001"/><polygon points="248.209 489.065 226.092 489.059 226.911 503.492 213.495 495.543 212.676 481.11 234.338 480.846 248.209 489.065" style="fill:#36a9e1;opacity:0.2"/><polygon points="267.992 500.787 245.875 500.781 246.693 515.214 233.277 507.265 232.459 492.832 254.121 492.568 267.992 500.787" style="fill:#36a9e1"/><polygon points="209.324 466.024 187.208 466.019 188.026 480.452 174.61 472.502 173.792 458.069 195.454 457.806 209.324 466.024" style="fill:#36a9e1"/></g><g style="mask:url(#ew)"><polygon points="203.96 422.688 567.204 637.923 545.467 653.25 181.748 437.734 204.813 437.74 203.96 422.688" style="opacity:0.30000000000000004;fill:url(#ey)"/><polygon points="531.001 644.678 554.066 644.685 553.213 629.633 567.204 637.923 568.057 652.975 545.467 653.25 531.001 644.678" style="fill:url(#ez)"/><polygon points="510.371 632.454 533.435 632.46 532.582 617.408 546.573 625.698 547.426 640.75 524.836 641.025 510.371 632.454" style="opacity:0.6000000000000001;fill:url(#fa)"/><polygon points="468.859 607.857 491.924 607.863 491.071 592.811 505.062 601.102 505.915 616.153 483.325 616.428 468.859 607.857" style="fill:url(#fb)"/><polygon points="448.466 595.773 471.531 595.779 470.677 580.728 484.668 589.018 485.522 604.07 462.931 604.344 448.466 595.773" style="opacity:0.6000000000000001;fill:url(#fc)"/><polygon points="427.835 583.549 450.9 583.555 450.046 568.503 464.037 576.793 464.891 591.845 442.3 592.12 427.835 583.549" style="opacity:0.2;fill:url(#fd)"/><g style="opacity:0.2"><polygon points="489.017 619.801 512.082 619.807 511.229 604.756 525.22 613.046 526.073 628.098 503.483 628.373 489.017 619.801" style="fill:url(#fe)"/></g><polygon points="305.309 510.948 328.373 510.954 327.52 495.902 341.511 504.192 342.365 519.244 319.774 519.519 305.309 510.948" style="opacity:0.2;fill:url(#ff)"/><polygon points="284.915 498.864 307.98 498.87 307.126 483.818 321.118 492.108 321.971 507.16 299.38 507.435 284.915 498.864" style="fill:url(#fg)"/><polygon points="264.284 486.639 287.349 486.645 286.496 471.594 300.487 479.884 301.34 494.936 278.749 495.211 264.284 486.639" style="opacity:0.6000000000000001;fill:url(#fh)"/><g style="opacity:0.6000000000000001"><polygon points="325.466 522.892 348.531 522.898 347.678 507.846 361.669 516.136 362.522 531.188 339.932 531.463 325.466 522.892" style="fill:url(#fi)"/></g><polygon points="222.773 462.043 245.838 462.049 244.985 446.997 258.976 455.287 259.829 470.339 237.238 470.614 222.773 462.043" style="fill:url(#fj)"/><polygon points="202.379 449.959 225.444 449.965 224.591 434.913 238.582 443.203 239.435 458.255 216.845 458.53 202.379 449.959" style="opacity:0.6000000000000001;fill:url(#fk)"/><polygon points="181.748 437.734 204.813 437.74 203.96 422.688 217.951 430.979 218.804 446.03 196.214 446.305 181.748 437.734" style="opacity:0.2;fill:url(#fl)"/><g style="opacity:0.2"><polygon points="242.931 473.987 265.996 473.993 265.142 458.941 279.133 467.231 279.987 482.283 257.396 482.558 242.931 473.987" style="fill:url(#fm)"/></g><polygon points="387.025 559.367 410.09 559.373 409.236 544.322 423.227 552.612 424.081 567.664 401.49 567.939 387.025 559.367" style="opacity:0.6000000000000001;fill:url(#fn)"/><polygon points="366.631 547.283 389.696 547.289 388.843 532.238 402.834 540.528 403.687 555.58 381.096 555.855 366.631 547.283" style="opacity:0.2;fill:url(#fo)"/><polygon points="346 535.059 369.065 535.065 368.212 520.013 382.203 528.303 383.056 543.355 360.466 543.63 346 535.059" style="fill:url(#fp)"/><polygon points="407.183 571.312 430.247 571.318 429.394 556.266 443.385 564.556 444.238 579.608 421.648 579.883 407.183 571.312" style="fill:url(#fq)"/></g></g></svg>