<svg xmlns="http://www.w3.org/2000/svg" viewBox="0 0 568.06 1041.18" xmlns:xlink="http://www.w3.org/1999/xlink"><defs><linearGradient id="a" gradientUnits="userSpaceOnUse" y1="723.97" x2="568.06" y2="723.97"><stop stop-color="rgb(246, 246, 246)" offset="0.15" />
            <stop stop-color="rgb(239, 239, 239)" offset="0.38" />
            <stop stop-color="rgb(219, 219, 219)" offset="0.72" />
            <stop stop-color="rgb(198, 198, 198)" offset="1" />
        </linearGradient>
        <linearGradient id="b" gradientUnits="userSpaceOnUse" x1="37.25" y1="559.85" x2="931.65" y2="559.85"><stop stop-color="rgb(197, 197, 196)" offset="0" />
            <stop stop-color="rgb(251, 251, 251)" offset="1" />
        </linearGradient>
        <linearGradient id="c" gradientUnits="userSpaceOnUse" x1="95.21" y1="640.1" x2="239.64" y2="1151.9"><stop stop-color="rgb(237, 237, 237)" offset="0" />
            <stop stop-color="rgb(178, 178, 178)" offset="1" />
        </linearGradient>
        <linearGradient id="d" gradientUnits="userSpaceOnUse" x1="184.95" y1="674.23" x2="489.51" y2="840.64"><stop stop-color="rgb(246, 246, 246)" offset="0" />
            <stop stop-color="rgb(178, 178, 178)" offset="1" />
        </linearGradient>
        <linearGradient id="e" gradientUnits="userSpaceOnUse" gradientTransform="matrix(-1, 0, 0, 1, 8079.37, 0)" x1="7781.85" y1="462.96" x2="7924.67" y2="462.96"><stop stop-color="rgb(255, 255, 255)" offset="0" />
            <stop stop-color="rgb(222, 222, 222)" offset="1" />
        </linearGradient>
        <linearGradient id="f" x1="7667.85" y1="507.99" x2="7749.04" y2="507.99" xlink:href="#e" />
        <linearGradient id="g" x1="7584.21" y1="541.04" x2="7611.51" y2="541.04" xlink:href="#e" />
        <linearGradient id="h" x1="7861.6" y1="547.5" x2="7915.95" y2="547.5" xlink:href="#e" />
        <linearGradient id="i" x1="7799.02" y1="516.61" x2="8039.23" y2="516.61" xlink:href="#e" />
        <linearGradient id="j" x1="7714.08" y1="561.07" x2="7774.79" y2="561.07" xlink:href="#e" />
        <linearGradient id="k" x1="7936.81" y1="564.54" x2="8011.56" y2="564.54" xlink:href="#e" />
        <linearGradient id="l" x1="7751.48" y1="519.08" x2="7983.69" y2="519.08" xlink:href="#e" />
        <linearGradient id="m" x1="7918.82" y1="607.74" x2="7955.63" y2="607.74" xlink:href="#e" />
        <linearGradient id="n" x1="7695.73" y1="551.48" x2="7927.56" y2="551.48" xlink:href="#e" />
        <linearGradient id="o" x1="7556.32" y1="591.77" x2="7815.15" y2="591.77" xlink:href="#e" />
        <linearGradient id="p" x1="7639.97" y1="583.77" x2="7872.04" y2="583.77" xlink:href="#e" />
        <linearGradient id="q" x1="7610.32" y1="631.61" x2="7844.15" y2="631.61" xlink:href="#e" />
        <linearGradient id="r" x1="7751.01" y1="679.98" x2="7815.08" y2="679.98" xlink:href="#e" />
        <linearGradient id="s" x1="7612.08" y1="529.46" x2="7655.44" y2="529.46" xlink:href="#e" />
        <linearGradient id="t" x1="7870.73" y1="642.64" x2="7899.3" y2="642.64" xlink:href="#e" />
        <linearGradient id="u" gradientUnits="userSpaceOnUse" x1="421.85" y1="558.53" x2="140.06" y2="558.53"><stop stop-color="rgb(29, 29, 27)" offset="0" />
            <stop stop-color="rgb(60, 60, 59)" offset="1" />
        </linearGradient>
        <linearGradient id="v" gradientUnits="userSpaceOnUse" x1="281.95" y1="523.13" x2="140.06" y2="523.13"><stop stop-color="rgb(29, 29, 27)" offset="0" />
            <stop stop-color="rgb(85, 84, 84)" offset="1" />
        </linearGradient>
        <linearGradient id="w" x1="421.85" y1="523.13" x2="281.95" y2="523.13" xlink:href="#v" />
        <linearGradient id="x" gradientTransform="translate(851.7 1011.31) rotate(119.67)" x1="162.82" y1="474.13" x2="-118.96" y2="474.13" xlink:href="#u" />
        <linearGradient id="y" gradientTransform="translate(851.7 1011.31) rotate(119.67)" x1="22.92" y1="438.74" x2="-118.96" y2="438.74" xlink:href="#v" />
        <linearGradient id="z" gradientTransform="translate(851.7 1011.31) rotate(119.67)" x1="162.82" y1="438.74" x2="22.92" y2="438.74" xlink:href="#v" />
        <linearGradient id="aa" gradientUnits="userSpaceOnUse" gradientTransform="matrix(145.08, 0, 0, -145.08, 293.4, 8463.7)" x1="-0.16" y1="54.48" x2="0.84" y2="54.48"><stop stop-color="rgb(131, 133, 135)" offset="0" />
            <stop stop-color="rgb(171, 175, 178)" offset="1" />
        </linearGradient>
        <linearGradient id="ab" gradientTransform="matrix(57.94, 0, 0, -57.94, 322.34, 3724.16)" x1="-0.16" y1="54.43" x2="0.84" y2="54.43" xlink:href="#aa" />
        <linearGradient id="ac" gradientTransform="matrix(17.86, 0, 0, -17.86, 231.41, 1508.46)" x1="-0.16" y1="54.39" x2="0.84" y2="54.39" xlink:href="#aa" />
        <linearGradient id="ad" gradientTransform="matrix(55.83, 0, 0, -55.83, 218.66, 3573.89)" x1="-0.16" y1="54.33" x2="0.84" y2="54.33" xlink:href="#aa" />
        <linearGradient id="ae" gradientTransform="matrix(43.21, 0, 0, -43.21, 222.9, 2887.34)" x1="-0.16" y1="54.35" x2="0.84" y2="54.35" xlink:href="#aa" />
        <linearGradient id="af" gradientTransform="matrix(145.08, 0, 0, -145.08, 379.75, 8608.65)" x1="-0.16" y1="54.18" x2="0.84" y2="54.18" xlink:href="#aa" />
        <linearGradient id="ag" gradientTransform="matrix(112.28, 0, 0, -112.28, 390.77, 6824.51)" x1="-0.16" y1="54.18" x2="0.84" y2="54.18" xlink:href="#aa" />
        <linearGradient id="ah" gradientTransform="matrix(34.71, 0, 0, -34.71, 415.04, 2607.86)" x1="-0.16" y1="54.21" x2="0.84" y2="54.21" xlink:href="#aa" />
        <linearGradient id="ai" gradientTransform="matrix(145.08, 0, 0, -145.08, 239.54, 8537.31)" x1="-0.16" y1="54.75" x2="0.84" y2="54.75" xlink:href="#aa" />
        <linearGradient id="aj" gradientTransform="matrix(75.95, 0, 0, -75.95, 360.33, 4911.27)" x1="-0.16" y1="54.33" x2="0.84" y2="54.33" xlink:href="#aa" />
        <linearGradient id="ak" gradientTransform="matrix(74.41, 0, 0, -74.41, 370.97, 4575.7)" x1="-0.16" y1="53.96" x2="0.84" y2="53.96" xlink:href="#aa" />
        <linearGradient id="al" gradientTransform="matrix(83.31, 0, 0, -83.31, 367.99, 5059.44)" x1="-0.16" y1="54.02" x2="0.84" y2="54.02" xlink:href="#aa" />
        <linearGradient id="am" gradientTransform="matrix(96.15, 0, 0, -96.15, 363.68, 5757.99)" x1="-0.16" y1="54.08" x2="0.84" y2="54.08" xlink:href="#aa" />
        <clipPath id="an"><polygon style="fill:none" points="45.12,826 45.57,669.99 230.41,776.71 229.97,932.72 45.12,826" /></clipPath>
        <linearGradient id="ao" gradientUnits="userSpaceOnUse" x1="489.66" y1="793.71" x2="357.96" y2="793.71"><stop stop-color="rgb(37, 129, 196)" offset="0" />
            <stop stop-color="rgb(37, 129, 196)" stop-opacity="0.5" offset="1" />
        </linearGradient>
        <linearGradient id="ap" gradientUnits="userSpaceOnUse" x1="327.69" y1="626.68" x2="327.69"><stop stop-color="rgb(49, 111, 146)" offset="0.67" />
            <stop stop-color="rgb(87, 136, 183)" stop-opacity="0" offset="0.87" />
        </linearGradient>
        <linearGradient id="aq" gradientUnits="userSpaceOnUse" x1="352.09" y1="325.22" x2="303.28" y2="325.22"><stop stop-color="rgb(49, 111, 146)" offset="0" />
            <stop stop-color="rgb(87, 136, 183)" offset="1" />
        </linearGradient>
        <linearGradient id="ar" x1="352.09" y1="277.53" x2="303.28" y2="277.53" xlink:href="#aq" />
        <linearGradient id="as" x1="352.09" y1="229.29" x2="303.28" y2="229.29" xlink:href="#aq" />
        <linearGradient id="at" x1="352.09" y1="372.35" x2="303.28" y2="372.35" xlink:href="#aq" />
        <linearGradient id="au" x1="352.09" y1="132.24" x2="303.28" y2="132.24" xlink:href="#aq" />
        <linearGradient id="av" x1="352.09" y1="84.55" x2="303.28" y2="84.55" xlink:href="#aq" />
        <linearGradient id="aw" x1="352.09" y1="36.32" x2="303.28" y2="36.32" xlink:href="#aq" />
        <linearGradient id="ax" x1="352.09" y1="179.37" x2="303.28" y2="179.37" xlink:href="#aq" />
        <linearGradient id="ay" x1="352.09" y1="516.28" x2="303.28" y2="516.28" xlink:href="#aq" />
        <linearGradient id="az" x1="352.09" y1="468.59" x2="303.28" y2="468.59" xlink:href="#aq" />
        <linearGradient id="ba" x1="352.09" y1="597.6" x2="303.28" y2="597.6" xlink:href="#aq" />
        <linearGradient id="bb" x1="352.09" y1="420.36" x2="303.28" y2="420.36" xlink:href="#aq" />
        <linearGradient id="bc" x1="352.09" y1="563.41" x2="303.28" y2="563.41" xlink:href="#aq" />
        <linearGradient id="bd" gradientUnits="userSpaceOnUse" gradientTransform="translate(881.36 1977.6) rotate(180)" x1="627.72" y1="1340.52" x2="627.72" y2="1956.18"><stop stop-color="rgb(233, 72, 47)" offset="0.74" />
            <stop stop-color="rgb(239, 124, 84)" stop-opacity="0" offset="0.94" />
        </linearGradient>
        <linearGradient id="be" gradientUnits="userSpaceOnUse" gradientTransform="translate(881.36 1977.6) rotate(180)" x1="653.17" y1="1687.54" x2="602.27" y2="1687.54"><stop stop-color="rgb(233, 72, 47)" offset="0" />
            <stop stop-color="rgb(239, 124, 84)" offset="1" />
        </linearGradient>
        <linearGradient id="bf" x1="653.17" y1="1637.81" x2="602.27" y2="1637.81" xlink:href="#be" />
        <linearGradient id="bg" x1="653.17" y1="1587.51" x2="602.27" y2="1587.51" xlink:href="#be" />
        <linearGradient id="bh" x1="653.17" y1="1736.69" x2="602.27" y2="1736.69" xlink:href="#be" />
        <linearGradient id="bi" x1="653.17" y1="1486.29" x2="602.27" y2="1486.29" xlink:href="#be" />
        <linearGradient id="bj" x1="642.09" y1="1358.84" x2="609.97" y2="1358.84" xlink:href="#be" />
        <linearGradient id="bk" x1="653.17" y1="1436.56" x2="602.27" y2="1436.56" xlink:href="#be" />
        <linearGradient id="bl" x1="653.17" y1="1386.26" x2="602.27" y2="1386.26" xlink:href="#be" />
        <linearGradient id="bm" x1="653.17" y1="1535.44" x2="602.27" y2="1535.44" xlink:href="#be" />
        <linearGradient id="bn" x1="653.17" y1="1886.79" x2="602.27" y2="1886.79" xlink:href="#be" />
        <linearGradient id="bo" x1="653.17" y1="1837.06" x2="602.27" y2="1837.06" xlink:href="#be" />
        <linearGradient id="bp" x1="653.17" y1="1786.76" x2="602.27" y2="1786.76" xlink:href="#be" />
        <linearGradient id="bq" x1="653.17" y1="1935.94" x2="602.27" y2="1935.94" xlink:href="#be" />
    </defs>
    <title>SecretProcessing</title>
    <path style="fill:url(#a)" d="M 0 600 A 69.5 69.5 0 0 1 34.69 540 L 249.34 416 a 69.49 69.49 0 0 1 69.38 0 L 533.37 540 A 69.5 69.5 0 0 1 568.06 600 V 847.9 A 69.5 69.5 0 0 1 533.37 908 L 318.72 1031.91 a 69.54 69.54 0 0 1 -69.38 0 L 34.69 908 A 69.5 69.5 0 0 1 0 847.9 Z" />
    <path style="fill:url(#b)" d="M 41.75 552.19 L 256.41 428.27 a 55.44 55.44 0 0 1 55.24 0 L 526.31 552.19 a 9 9 0 0 1 0 15.59 L 311.65 691.71 c -16.37 9.45 -38.89 9.45 -55.24 0 L 41.75 567.78 a 9 9 0 0 1 0 -15.59 Z" />
    <path style="fill:url(#c)" d="M 269.9 1011.89 c 0 6.16 -5.38 9 -9 9 a 8.64 8.64 0 0 1 -4.46 -1.24 L 41.75 895.75 A 55.42 55.42 0 0 1 14.14 847.9 V 600 a 9.07 9.07 0 0 1 9 -9 a 8.75 8.75 0 0 1 4.47 1.24 L 242.27 716.18 A 55.4 55.4 0 0 1 269.9 764 Z" />
    <path style="fill:url(#d)" d="M 553.92 847.9 a 55.42 55.42 0 0 1 -27.61 47.85 L 311.65 1019.67 a 8.67 8.67 0 0 1 -4.46 1.24 c -3.65 0 -9 -2.86 -9 -9 V 764 a 55.41 55.41 0 0 1 27.62 -47.84 L 540.43 592.25 A 8.8 8.8 0 0 1 544.9 591 c 3.64 0 9 2.87 9 9 Z" />
    <g style="isolation:isolate"><polygon style="fill:url(#e)" points="154.7,501.31 158.69,503.63 297.52,423.47 291.79,422.28 154.7,501.31" />
        <polygon style="fill:url(#f)" points="330.33,529.12 334.3,531.44 411.52,486.85 407.54,484.53 330.33,529.12" />
        <polygon style="fill:url(#g)" points="467.86,546.61 471.83,548.92 495.16,535.46 491.19,533.14 467.86,546.61" />
        <polygon style="fill:url(#h)" points="163.42,560.88 167.4,563.2 217.77,534.12 213.78,531.8 163.42,560.88" />
        <path style="fill:url(#i)" d="M 40.14 567.55 l 4 2.31 l 74.6 -43.16 a 14.94 14.94 0 0 1 7.11 -1.7 h 40 c 7.51 0 14.87 -1.76 20.21 -4.84 l 94.35 -54.47 l -4 -2.33 L 182 517.85 a 33.37 33.37 0 0 1 -16.22 3.89 h -40 a 23 23 0 0 0 -11.09 2.66 Z" />
        <polygon style="fill:url(#j)" points="304.58,576.28 308.56,578.59 365.29,545.84 361.32,543.54 304.58,576.28" />
        <polygon style="fill:url(#k)" points="67.81,583.83 71.79,586.14 142.56,545.24 138.58,542.94 67.81,583.83" />
        <path style="fill:url(#l)" d="M 311.14 443.31 c -2.92 1.69 -4.6 4 -4.64 6.41 l -0.1 23.15 c 0 3.47 -2.5 6.92 -6.78 9.38 l -53.51 30.89 c -2.92 1.69 -4.6 4 -4.63 6.42 l -0.12 23.15 c 0 3.49 -2.49 6.91 -6.77 9.38 l -34.33 19.83 A 33.52 33.52 0 0 1 184 575.8 h -40 A 23.07 23.07 0 0 0 133 578.46 l -37.3 21.46 l 4 2.31 L 137 580.77 a 14.7 14.7 0 0 1 7.1 -1.7 h 40 c 7.51 0 14.87 -1.78 20.21 -4.84 l 34.33 -19.83 c 5.34 -3.07 8.4 -7.34 8.42 -11.69 l 0.13 -23.15 c 0 -1.53 1.09 -3 3 -4.1 l 53.51 -30.91 c 5.33 -3.07 8.39 -7.32 8.42 -11.68 l 0.13 -23.14 c 0 -1.55 1.09 -3 2.95 -4.12 l 12.78 -7.37 l -4 -2.31 Z" />
        <polygon style="fill:url(#m)" points="123.74,616.02 127.73,618.33 160.55,599.45 156.57,597.14 123.74,616.02" />
        <path style="fill:url(#n)" d="M 294 517.8 c -2.94 1.69 -4.61 4 -4.64 6.42 l -0.11 23.15 c 0 3.49 -2.51 6.9 -6.77 9.37 L 151.81 632.31 l 4 2.3 l 130.68 -75.55 c 5.32 -3.08 8.38 -7.34 8.41 -11.69 l 0.14 -23.14 c 0 -1.55 1.08 -3 3 -4.13 l 85.67 -49.45 l -4 -2.31 Z" />
        <path style="fill:url(#o)" d="M 264.22 631.89 l 4 2.3 L 288 622.78 a 33.76 33.76 0 0 1 16.22 -3.89 h 40 a 22.91 22.91 0 0 0 11.1 -2.64 l 81 -46.75 a 33.4 33.4 0 0 1 16.22 -3.9 h 39.95 a 22.94 22.94 0 0 0 11.12 -2.66 l 19.55 -11.28 l -4 -2.31 l -19.55 11.28 a 14.67 14.67 0 0 1 -7.1 1.71 h -40 c -7.52 0 -14.89 1.76 -20.21 4.84 l -81 46.75 a 14.69 14.69 0 0 1 -7.11 1.71 H 304.2 c -7.52 0 -14.89 1.76 -20.21 4.83 Z" />
        <path style="fill:url(#p)" d="M 239.9 613.64 c -5.33 3.06 -8.4 7.34 -8.43 11.68 l -0.15 23.14 c 0 1.55 -1.08 3 -2.95 4.13 l -21 11.9 l 4 2.31 l 21 -11.91 c 2.92 -1.69 4.61 -4 4.61 -6.43 l 0.15 -23.14 c 0 -3.49 2.48 -6.91 6.76 -9.38 L 271.47 600 a 33.36 33.36 0 0 1 16.21 -3.9 h 40 a 22.94 22.94 0 0 0 11.1 -2.65 L 390 563.89 c 2.92 -1.7 4.6 -4 4.62 -6.43 l 0.13 -23.15 c 0 -3.5 2.49 -6.9 6.76 -9.37 l 37.89 -21.88 l -4 -2.32 l -37.89 21.88 c -5.32 3.09 -8.4 7.34 -8.42 11.69 L 389 557.46 c 0 1.52 -1.09 3 -3 4.1 l -51.23 29.59 a 14.75 14.75 0 0 1 -7.12 1.69 l -40 0 c -7.49 0 -14.86 1.75 -20.2 4.83 Z" />
        <path style="fill:url(#q)" d="M 235.22 680.39 l 4 2.3 l 57.05 -32.38 a 14.63 14.63 0 0 1 7.09 -1.7 h 40 c 7.5 0 14.88 -1.77 20.2 -4.84 l 105.54 -60.94 l -4 -2.3 L 359.54 641.46 a 33.35 33.35 0 0 1 -16.21 3.88 h -40 a 23 23 0 0 0 -11.1 2.65 Z" />
        <polygon style="fill:url(#r)" points="264.29,696.37 269.4,698.2 328.36,664.06 324.38,661.75 264.29,696.37" />
    </g>
    <polygon style="fill:url(#s)" points="423.93,539.68 427.91,541.99 467.29,519.26 463.31,516.93 423.93,539.68" />
    <polygon style="fill:url(#t)" points="180.07,648.59 184.04,650.9 208.64,636.67 204.67,634.38 180.07,648.59" />
    <polygon style="fill:url(#u)" points="140.06,559.14 281.95,478.39 421.85,560.09 281.95,638.66 140.06,559.14" />
    <polygon style="fill:url(#v)" points="281.95,478.39 281.95,496.1 155.64,567.87 140.06,559.14 281.95,478.39" />
    <polygon style="fill:url(#w)" points="421.85,560.09 281.95,478.39 281.95,496.1 407.99,567.87 421.85,560.09" />
    <polygon style="fill:url(#x)" points="498.11,672.91 498.02,836.17 357.79,917.27 358.78,756.83 498.11,672.91" />
    <polygon style="fill:url(#y)" points="498.02,836.17 482.64,827.4 482.82,682.13 498.11,672.91 498.02,836.17" />
    <polygon style="fill:url(#z)" points="357.79,917.27 498.02,836.17 482.64,827.4 357.88,901.39 357.79,917.27" />
    <path style="fill:#646668" d="M 309.31 616.7 h 0 l -5.09 4.81 l -0.11 0.08 l 5.6 -3.27 l -0.4 -1.62" />
    <path style="fill:#646668" d="M 278.84 516.14 l -0.14 0 l -0.21 0.08 L 270.32 521 l 0.16 0 l 10.84 -2.28 l -2.48 -2.55" />
    <polyline style="fill:#646668" points="279.2,530.72 278.19,531.3 269.97,536.1 279.26,530.77 279.2,530.72" />
    <path style="fill:#646668" d="M 281.18 502.92 L 273 507.7 h 0 a 0.67 0.67 0 0 1 0.33 -0.07 h 0.07 l 12 0.84 l -4.26 -5.54" />
    <polyline style="fill:#646668" points="282.11,496.23 280.62,497.08 287.16,499.1 282.11,496.23" />
    <path style="fill:#646668" d="M 406.23 566.81 V 567 l -5.45 3.19 c 0.69 0.28 1.37 0.53 2 0.76 L 408 568 l -1.41 -0.18 l 0.17 -0.74 l -0.49 -0.28" />
    <path style="fill:url(#aa)" d="M 328.6 600.84 v 0 m 0 0 h 0 m 10.77 -4.62 L 337 597.6 l 1.06 9.63 l 3.15 -1.77 l -1.83 -9.25 m -0.62 -3.16 l -2 2.48 h 0 l 2 -2.48 m -5.66 -5.41 l -6 2.19 l 1.77 7.23 l 3.86 -2.26 l 0.39 -7.16 m 7.51 -5.5 a 13.74 13.74 0 0 0 1.47 1 a 13.74 13.74 0 0 1 -1.47 -1 m 20 -1.62 l 4.67 4.14 h 0 l -4.68 -4.14 m -36.48 -0.27 a 3.07 3.07 0 0 1 0.32 0.31 a 3.11 3.11 0 0 1 0.69 1.33 l 1 4 l 2.18 -5.14 l -4.18 -0.54 m -18.64 -2.35 h 0 l 5.1 13.64 l -5.1 -13.64 M 285 577.76 l -2.13 9.07 a 3 3 0 0 0 1.35 2.76 a 1.21 1.21 0 0 0 0.61 0.19 h 0.12 l 7.17 -1 l -0.65 14.79 a 3.05 3.05 0 0 0 1.39 2.5 a 1.29 1.29 0 0 0 0.6 0.18 a 0.75 0.75 0 0 0 0.33 -0.07 l 6.23 -2.94 l 1.77 16.06 a 3.09 3.09 0 0 0 1.38 2.19 a 1.27 1.27 0 0 0 0.61 0.19 a 0.63 0.63 0 0 0 0.38 -0.11 l 0.11 -0.08 h 0 l 5.09 -4.81 l 0.4 1.62 l 1 4.14 a 28.66 28.66 0 0 0 0.25 -3.69 c 0 -14.44 -10.05 -32 -22.55 -39.3 a 25.93 25.93 0 0 0 -3.48 -1.71 m 51.19 -0.91 l 0 0 a 20.53 20.53 0 0 0 1.93 2.75 a 21.23 21.23 0 0 1 -1.91 -2.8 M 335 574.76 c 0.17 0.37 0.34 0.74 0.53 1.1 h 0.06 c -0.19 -0.37 -0.42 -0.73 -0.59 -1.11 m 57.18 -0.14 h 0 c 0.61 0.41 1.22 0.81 1.84 1.2 h 0 c -0.62 -0.39 -1.23 -0.79 -1.84 -1.2 m 3.85 -0.32 l 0.14 0.08 l -0.14 -0.08 m -0.23 -0.13 l 0.23 0.13 l -0.23 -0.13 m 0 -2.42 l 0.26 0.15 l -0.26 -0.15 m -62.31 -3.45 v 0 m 0 -0.06 h 0 v 0 h 0 m 31.83 -0.83 h 0 m 17.78 -0.17 h 0 c 1.8 1.72 3.67 3.33 5.57 4.82 h 0 c -1.9 -1.49 -3.77 -3.1 -5.57 -4.82 m -17.82 -0.2 a 0.7 0.7 0 0 1 0 0.37 a 0.62 0.62 0 0 0 0 -0.37 m 0 0 h 0 m 0 0 h 0 m 0 0 h 0 m -0.16 -0.26 a 1.07 1.07 0 0 1 0.16 0.25 a 1.32 1.32 0 0 0 -0.16 -0.25 h 0 m -83.05 -1.87 h 0 l 5.69 8.79 l -5.69 -8.79 m 59.68 -1.75 c 0 0.11 0 0.22 0 0.34 a 16.24 16.24 0 0 0 1.48 6.47 a 20.85 20.85 0 0 0 3.32 5.25 a 15 15 0 0 0 3.75 3.18 l 0.38 0.21 v -0.34 c 0 -5.48 -3.81 -12.15 -8.55 -14.9 l -0.37 -0.21 m -5.64 -0.44 c -1.59 0.87 -2.57 2.8 -2.59 5.55 c 0 -2.7 1 -4.6 2.5 -5.5 l 0.09 -0.05 M 375 558.32 h 0 a 89.18 89.18 0 0 0 6.27 7.08 h 0 a 90.88 90.88 0 0 1 -6.26 -7.08 M 359 556.16 h 0 m 22.82 -0.12 A 62.62 62.62 0 0 0 392 565.18 A 62.62 62.62 0 0 1 381.86 556 M 359 556 a 0.49 0.49 0 0 1 0.06 0.17 A 0.78 0.78 0 0 0 359 556 v 0 m 0 0 h 0 m 18.19 -5.69 c 0.92 1.24 1.86 2.44 2.84 3.61 q -1.47 -1.75 -2.83 -3.61 h 0 m -26.2 -0.84 h 0 l -0.49 9 l 0.49 -9 m -36.48 -2.93 h 0 m 22.88 -0.53 h 0 l 1.5 3.59 l -1.5 -3.59 m 27.8 -2.53 a 102 102 0 0 0 9.15 14 h 0 a 102 102 0 0 1 -9.15 -14 h 0 m -14.78 -8.4 l 0.05 0.07 a 0.76 0.76 0 0 1 0.06 0.27 l 1.92 9.68 l 6.22 -3.63 a 0.17 0.17 0 0 1 0.1 0 a 0.41 0.41 0 0 1 0.17 0.05 l 0.19 0.17 a 0.67 0.67 0 0 1 0.16 0.25 a 0.63 0.63 0 0 1 0.06 0.4 l -0.62 11.36 l 7.85 -2.87 h 0 l 0.11 0 a 0.34 0.34 0 0 1 0.17 0 l 0.18 0.15 a 1 1 0 0 1 0.17 0.27 a 0.54 0.54 0 0 1 0 0.51 l -3.72 8.78 l 9.46 1.22 l 0.21 0.06 l 0.17 0.14 a 1 1 0 0 1 0.17 0.26 c 0.1 0.23 0.11 0.48 -0.05 0.57 l 0 0 L 367 568.1 l 10.12 5.2 a 1.69 1.69 0 0 1 0.25 0.2 a 1.34 1.34 0 0 1 0.17 0.27 c 0.1 0.24 0.1 0.47 0 0.55 h 0 l -6.18 3.62 l 7.28 6.44 l 0.07 0.06 l 12.57 -7.05 l -0.86 -1.71 l -3.56 2.08 a 0.4 0.4 0 0 1 -0.24 0.07 a 0.92 0.92 0 0 1 -0.43 -0.13 a 2 2 0 0 1 -0.8 -1 l -3.29 -8.81 L 378.49 570 a 0.48 0.48 0 0 1 -0.24 0.06 a 0.79 0.79 0 0 1 -0.42 -0.13 a 2 2 0 0 1 -0.87 -1.23 l -2.47 -10 l -3.71 2.17 a 0.43 0.43 0 0 1 -0.25 0.07 a 0.83 0.83 0 0 1 -0.41 -0.12 a 2.1 2.1 0 0 1 -0.92 -1.45 L 368 548.63 l -4.14 2 a 0.54 0.54 0 0 1 -0.21 0 a 0.79 0.79 0 0 1 -0.4 -0.13 a 2 2 0 0 1 -0.92 -1.65 l 0.3 -6.81 l -4.22 -2.4 l -0.4 0.05 H 358 a 0.86 0.86 0 0 1 -0.42 -0.13 a 1.93 1.93 0 0 1 -0.73 -0.85 l -6.44 -3.66 m -69.77 -38 l -2.68 1.52 a 4.05 4.05 0 0 0 0.36 0.59 l 2.88 3.73 l 4.26 5.54 l -12 -0.84 h -0.06 a 0.71 0.71 0 0 0 -0.34 0.07 h 0 c -0.68 0.38 -0.51 1.9 0.47 2.92 l 5.36 5.52 l 2.48 2.55 L 270.48 521 l -0.16 0 c -0.82 0.39 -0.46 2.25 0.69 3.16 l 8.19 6.54 l 0.06 0 L 270 536.1 c -0.88 0.51 -0.26 2.59 1 3.31 l 8.41 4.89 l -5.58 6.15 l 4.34 5.33 l 5.93 -3.46 a 0.7 0.7 0 0 1 0.38 -0.1 a 1.26 1.26 0 0 1 0.63 0.19 a 2.38 2.38 0 0 1 0.59 0.5 a 3 3 0 0 1 0.28 0.39 l 5.7 8.8 l 5.55 -3.25 a 0.66 0.66 0 0 1 0.37 -0.1 a 1.29 1.29 0 0 1 0.64 0.2 a 2.66 2.66 0 0 1 0.59 0.5 a 3 3 0 0 1 0.46 0.7 l 5.64 11.15 l 5.38 -3.14 a 0.65 0.65 0 0 1 0.36 -0.1 a 1.29 1.29 0 0 1 0.64 0.2 a 2.57 2.57 0 0 1 0.6 0.52 a 3.28 3.28 0 0 1 0.53 0.83 l 0.07 0.18 l 5 13.3 l 5.18 -3 l -3.78 -0.49 l -0.21 0 c -0.33 -0.19 -0.57 -0.85 -0.27 -1 h 0 l 0.43 -0.35 l 6 -5 l -1.7 -0.87 l -8.52 -4.37 l -0.17 -0.15 l -0.15 -0.24 c -0.1 -0.23 -0.11 -0.5 0 -0.58 h 0 l 5.92 -3.47 l 0.26 -0.15 l -7.29 -6.45 a 0.86 0.86 0 0 1 -0.37 -0.72 a 0.27 0.27 0 0 1 0.11 -0.23 l 5.56 -3.25 l -4 -5.3 l 0 0 v 0 a 1.43 1.43 0 0 1 -0.15 -0.22 h 0 l 0 0 c -0.09 -0.24 -0.05 -0.47 0.08 -0.54 h 0 l 5.54 -3.24 l -1.44 -2.9 a 1 1 0 0 1 -0.08 -0.14 h 0 a 0.64 0.64 0 0 1 -0.05 -0.17 a 0.35 0.35 0 0 1 0.09 -0.38 l 0 0 l 8.22 -4.8 h 0.1 l 6.23 -3.64 a 0.21 0.21 0 0 1 0.12 0 a 0.35 0.35 0 0 1 0.18 0.06 l 0.16 0.14 l 0.14 0.2 l 1.83 2.81 L 341 531.2 a 0.2 0.2 0 0 1 0.11 0 a 0.41 0.41 0 0 1 0.2 0.06 l 0.17 0.14 l 0.15 0.24 l 0 0.12 l 2.6 6.23 l 5.55 -3.24 L 287.16 499.1 l -6.54 -2" />
    <path style="fill:#646668" d="M 350.37 597.67 l 0.12 2.58 l 1.14 -0.64 l -1.26 -1.94 m -5.67 -1.16 l -2.17 8.21 l 4.54 -2.55 l -2.37 -5.66 m 10.5 -0.09 l 0.28 1 l 0.46 -0.26 l -0.74 -0.77 m -16.45 -3.37 h 0 l -2 2.48 a 3.21 3.21 0 0 1 0.11 0.52 l 0.17 1.55 l 2.38 -1.39 l -0.62 -3.16 m 20 -0.16 h 0 l 1.08 2.15 l 1.2 -0.68 l -2.28 -1.47 m -25.62 -5.25 l -6 2.19 h 0 l 6 -2.19 m 27.48 -0.23 l 3.81 5.05 l 4.76 -2.67 l -8.57 -2.38 m -42.21 -8.89 h 0 m 6.44 -5.34 l -6 5 l 6 -5 h 0 M 314.3 567 h 0 c -0.14 0.08 -0.13 0.35 0 0.58 l 0.15 0.24 l 0.17 0.15 l 8.52 4.37 L 314.68 568 c -0.44 -0.25 -0.62 -0.87 -0.38 -1 m 6.18 -3.62 l -0.26 0.15 L 314.3 567 h 0 a 0.18 0.18 0 0 1 0.11 0 h 0 l 8.55 -1.37 l -2.5 -2.22 m 17.79 -1.22 a 4.4 4.4 0 0 0 -2.16 0.53 l -0.09 0.05 c -1.53 0.9 -2.48 2.8 -2.5 5.5 v 0 h 0 v 0.08 a 16.49 16.49 0 0 0 1.5 6.44 c 0.17 0.38 0.4 0.74 0.59 1.11 h -0.06 c 0.18 0.35 0.37 0.7 0.57 1 l 0 0 a 21.23 21.23 0 0 0 1.91 2.8 a 16.17 16.17 0 0 0 2.55 2.49 a 13.74 13.74 0 0 0 1.47 1 h 0 a 7.8 7.8 0 0 0 3.85 1.18 c 2.72 0 4.63 -2.11 4.75 -5.78 l -0.38 -0.21 a 15 15 0 0 1 -3.75 -3.18 a 20.85 20.85 0 0 1 -3.32 -5.25 a 16.24 16.24 0 0 1 -1.48 -6.47 c 0 -0.12 0 -0.23 0 -0.34 a 7.51 7.51 0 0 0 -3.48 -1 m -23.81 -14.77 v 0 l 0 0 l 4 5.3 L 312.93 556 a 0.27 0.27 0 0 0 -0.11 0.23 c 0 -0.15 0.08 -0.26 0.21 -0.26 a 0.34 0.34 0 0 1 0.16 0 l 9.81 2.72 l -8.51 -11.28 l 0 0 m -0.17 -0.27 l 0 0 h 0 a 0.08 0.08 0 0 0 0 0 m 4.18 -6.68 h 0 l 1.44 2.9 l -5.54 3.24 h 0 a 0.17 0.17 0 0 1 0.1 0 h 0 a 0.32 0.32 0 0 1 0.15 0.06 l 10.22 6.62 l -6.39 -12.79 h 0 m -0.13 -0.31 a 0.64 0.64 0 0 0 0.05 0.17 h 0 a 1.54 1.54 0 0 1 -0.05 -0.17 m 22.74 -8.93 a 0.2 0.2 0 0 0 -0.11 0 l -5.54 3.24 l -1.83 -2.81 l -0.14 -0.2 l -0.16 -0.14 a 0.35 0.35 0 0 0 -0.18 -0.06 a 0.21 0.21 0 0 0 -0.12 0 l -6.23 3.64 h -0.1 l -8.22 4.8 l 0 0 a 0.21 0.21 0 0 1 0.13 -0.05 a 0.32 0.32 0 0 1 0.17 0.06 a 0.9 0.9 0 0 1 0.22 0.19 l 9.43 9.75 l -3.66 -13.06 c -0.14 -0.36 0 -0.57 0.18 -0.57 a 0.45 0.45 0 0 1 0.18 0.05 a 0.89 0.89 0 0 1 0.3 0.35 l 7.82 12 l -0.55 -12 c 0 -0.28 0.06 -0.4 0.21 -0.4 a 0.41 0.41 0 0 1 0.2 0.06 a 0.89 0.89 0 0 1 0.37 0.49 l 3.94 9.46 h 0 l 1.5 3.59 l 2.6 -9.84 c 0 -0.18 0.11 -0.26 0.22 -0.26 a 0.52 0.52 0 0 1 0.19 0.06 a 0.93 0.93 0 0 1 0.41 0.67 L 344.82 553 l 5.5 -6.68 a 0.2 0.2 0 0 1 0.19 -0.13 a 0.41 0.41 0 0 1 0.18 0 a 0.86 0.86 0 0 1 0.41 0.82 l -0.13 2.35 h 0 l -0.49 9 l 7.86 -2.87 a 0.22 0.22 0 0 1 0.13 0 a 0.26 0.26 0 0 1 0.17 0.05 a 0.91 0.91 0 0 1 0.34 0.38 h 0 v 0 a 0.78 0.78 0 0 1 0.05 0.14 h 0 a 0.41 0.41 0 0 1 0 0.36 h 0 l -3.72 8.77 l 9.46 1.23 l 0.21 0.05 l 0.17 0.14 h 0 a 1.32 1.32 0 0 1 0.16 0.25 h 0 l 0 0 h 0 a 0.62 0.62 0 0 1 0 0.37 h 0 a 0.23 0.23 0 0 1 -0.14 0.16 h 0 l -6.44 5.34 l 10.12 5.2 c 0.5 0.28 0.67 1 0.27 1 h 0 l -8.55 1.37 l 4.68 4.14 h 0 l 5.06 4.47 l 8.35 -4.69 l -0.07 -0.06 l -7.28 -6.44 l 6.18 -3.62 h 0 c 0.14 -0.08 0.14 -0.31 0 -0.55 a 1.34 1.34 0 0 0 -0.17 -0.27 a 1.69 1.69 0 0 0 -0.25 -0.2 L 367 568.1 l 6.44 -5.33 l 0 0 c 0.16 -0.09 0.15 -0.34 0.05 -0.57 a 1 1 0 0 0 -0.17 -0.26 l -0.17 -0.14 l -0.21 -0.06 l -9.46 -1.22 l 3.72 -8.78 a 0.54 0.54 0 0 0 0 -0.51 a 1 1 0 0 0 -0.17 -0.27 l -0.18 -0.15 a 0.34 0.34 0 0 0 -0.17 0 l -0.11 0 h 0 l -7.85 2.87 l 0.62 -11.36 a 0.63 0.63 0 0 0 -0.06 -0.4 a 0.67 0.67 0 0 0 -0.16 -0.25 l -0.19 -0.17 a 0.41 0.41 0 0 0 -0.17 -0.05 a 0.17 0.17 0 0 0 -0.1 0 l -6.22 3.63 l -1.92 -9.68 a 0.76 0.76 0 0 0 -0.06 -0.27 l -0.05 -0.07 l -0.6 -0.34 L 344.24 538 l -2.6 -6.23 l 0 -0.12 l -0.15 -0.24 l -0.17 -0.14 a 0.41 0.41 0 0 0 -0.2 -0.06" />
    <path style="fill:url(#ab)" d="M 336.11 562.66 a 4.4 4.4 0 0 1 2.16 -0.53 a 7.51 7.51 0 0 1 3.48 1 l 0.37 0.21 c 4.74 2.75 8.57 9.42 8.55 14.9 v 0.34 c -0.12 3.67 -2 5.78 -4.75 5.78 a 7.8 7.8 0 0 1 -3.85 -1.18 h 0 a 13.74 13.74 0 0 1 -1.47 -1 a 16.17 16.17 0 0 1 -2.55 -2.49 a 20.53 20.53 0 0 1 -1.93 -2.75 c -0.2 -0.34 -0.39 -0.69 -0.57 -1 s -0.36 -0.73 -0.53 -1.1 a 16.49 16.49 0 0 1 -1.5 -6.44 v -0.08 h 0 v 0 c 0 -2.75 1 -4.68 2.59 -5.55 M 332.86 536 c -0.15 0 -0.26 0.12 -0.21 0.4 l 0.55 12 l -7.82 -12 a 0.89 0.89 0 0 0 -0.3 -0.35 a 0.45 0.45 0 0 0 -0.18 -0.05 c -0.2 0 -0.32 0.21 -0.18 0.57 l 3.66 13.06 L 319 539.92 a 0.9 0.9 0 0 0 -0.22 -0.19 a 0.32 0.32 0 0 0 -0.17 -0.06 a 0.21 0.21 0 0 0 -0.13 0.05 a 0.35 0.35 0 0 0 -0.09 0.38 a 1.54 1.54 0 0 0 0.05 0.17 a 1 1 0 0 0 0.08 0.14 h 0 l 6.39 12.79 l -10.22 -6.62 a 0.32 0.32 0 0 0 -0.15 -0.06 h 0 a 0.17 0.17 0 0 0 -0.1 0 c -0.13 0.07 -0.17 0.3 -0.08 0.54 a 0.08 0.08 0 0 1 0 0 a 1.43 1.43 0 0 0 0.15 0.22 l 0 0 L 323 558.68 L 313.19 556 a 0.34 0.34 0 0 0 -0.16 0 c -0.13 0 -0.2 0.11 -0.21 0.26 a 0.86 0.86 0 0 0 0.37 0.72 h 0 l 7.29 6.45 l 2.5 2.22 l -8.55 1.37 h 0 a 0.18 0.18 0 0 0 -0.11 0 h 0 c -0.24 0.14 -0.06 0.76 0.38 1 l 8.42 4.33 l 1.7 0.87 h 0 l -6 5 l -0.43 0.35 h 0 c -0.3 0.13 -0.06 0.79 0.27 1 h 0 l 0.21 0 l 3.78 0.49 l 0.21 -0.12 a 0.74 0.74 0 0 1 0.36 -0.09 a 1.3 1.3 0 0 1 0.62 0.19 a 1.6 1.6 0 0 1 0.31 0.22 l 4.18 0.54 l -2.18 5.14 l 1 3.9 l 6 -2.19 l -0.39 7.16 l 1.77 -1 a 0.74 0.74 0 0 1 0.36 -0.09 a 1.25 1.25 0 0 1 0.61 0.18 a 2.56 2.56 0 0 1 0.62 0.54 a 3.19 3.19 0 0 1 0.53 0.83 l 0.12 0.3 l 2 -2.48 l 0.62 3.16 l 1.83 9.25 l 1.33 -0.74 l 2.17 -8.21 l 2.37 5.66 l 3.42 -1.92 l -0.12 -2.58 l 1.26 1.94 l 3.85 -2.16 l -0.28 -1 l 0.74 0.77 l 3.85 -2.15 l -1.08 -2.15 l 2.28 1.47 l 3.39 -1.9 l -3.81 -5.05 l 8.57 2.38 l 1.18 -0.66 l -5.06 -4.47 l -4.67 -4.14 l 8.55 -1.37 h 0 c 0.4 0 0.23 -0.76 -0.27 -1 l -10.12 -5.2 l 6.44 -5.34 h 0 a 0.23 0.23 0 0 0 0.14 -0.16 h 0 a 0.7 0.7 0 0 0 0 -0.37 h 0 l 0 0 h 0 a 1.07 1.07 0 0 0 -0.16 -0.25 l -0.17 -0.14 l -0.21 -0.05 l -9.46 -1.23 l 3.72 -8.77 h 0 a 0.41 0.41 0 0 0 0 -0.36 h 0 A 0.49 0.49 0 0 0 359 556 h 0 a 0.91 0.91 0 0 0 -0.34 -0.38 a 0.26 0.26 0 0 0 -0.17 -0.05 a 0.22 0.22 0 0 0 -0.13 0 l -7.86 2.87 l 0.49 -9 l 0.13 -2.35 a 0.86 0.86 0 0 0 -0.41 -0.82 a 0.41 0.41 0 0 0 -0.18 0 a 0.2 0.2 0 0 0 -0.19 0.13 l -5.5 6.68 l -2.53 -12.83 a 0.93 0.93 0 0 0 -0.41 -0.67 a 0.52 0.52 0 0 0 -0.19 -0.06 c -0.11 0 -0.2 0.08 -0.22 0.26 l -2.6 9.84 l -1.5 -3.59 l -3.94 -9.46 a 0.89 0.89 0 0 0 -0.37 -0.49 a 0.41 0.41 0 0 0 -0.2 -0.06" />
    <path style="fill:#646668" d="M 235.59 532.09 a 2.1 2.1 0 0 0 -1.24 0.39 h 0 l 0 0 h -0.05 a 3 3 0 0 0 -0.94 2.27 h 0 v 0 h 0 v 0 h 0 v 0 h 0 v 0 h 0 v 0 h 0 a 8.24 8.24 0 0 0 1.06 3.8 v 0 h 0 l 0 0 h 0 a 9.76 9.76 0 0 0 1.19 1.7 c 0.19 0.22 0.39 0.43 0.59 0.62 l 0 0 h 0 a 6.63 6.63 0 0 0 1.16 0.87 h 0 a 4.15 4.15 0 0 0 1.38 0.52 a 2.28 2.28 0 0 0 0.45 0 a 2.2 2.2 0 0 0 2.17 -2 a 5.19 5.19 0 0 1 -0.84 -0.39 a 7.12 7.12 0 0 1 -1.77 -1.51 a 9.58 9.58 0 0 1 -1.58 -2.49 a 7.86 7.86 0 0 1 -0.7 -3.07 a 4.77 4.77 0 0 1 0.08 -0.87 a 3.06 3.06 0 0 0 -1 -0.18" />
    <path style="fill:#646668" d="M 235.66 550.48 a 2 2 0 0 0 -1 0.25 h 0 l -0.15 0.1 h 0 a 2.76 2.76 0 0 0 -1 2.25 h 0 v 0 h 0 v 0 h 0 v 0 h 0 v 0 h 0 v 0 h 0 v 0 h 0 v 0 h 0 v 0 h 0 v 0 h 0 v 0 h 0 v 0 h 0 v 0 h 0 v 0 h 0 a 7.56 7.56 0 0 0 0.65 2.55 a 10 10 0 0 0 0.74 1.37 h 0 l 0 0 h 0 l 0 0 v 0 h 0 a 8 8 0 0 0 1.11 1.33 l 3.16 -1.85 c -0.15 -0.15 -0.3 -0.3 -0.44 -0.47 a 9.13 9.13 0 0 1 -1.48 -2.33 a 7.33 7.33 0 0 1 -0.66 -2.88 a 4.4 4.4 0 0 1 0.05 -0.65 a 3.09 3.09 0 0 0 -1.09 -0.23 m -12.26 -20.9 l -3.19 1.82 a 6.45 6.45 0 0 0 0.59 0.58 h 0 l 0 0 h 0 l 0 0 h 0 a 6.09 6.09 0 0 0 0.91 0.65 a 3.43 3.43 0 0 0 1.71 0.53 a 2.11 2.11 0 0 0 2.07 -2.08 a 5 5 0 0 1 -0.62 -0.3 a 6.62 6.62 0 0 1 -1.53 -1.26 m 10 -3.78 h 0 a 8.06 8.06 0 0 1 4 1.21 l 0 0 c 4.93 2.86 8.9 9.78 8.9 15.48 v 0 c 0 4 -2 6.37 -5 6.37 h 0 a 3.85 3.85 0 0 1 -0.48 0 h 0 a 8.46 8.46 0 0 1 -3.45 -1.17 h 0 l -0.06 0 c -4.92 -2.86 -8.9 -9.78 -8.9 -15.48 v 0 c 0 -4 2 -6.37 4.94 -6.37 h 0 m -0.43 -1.28 a 6.81 6.81 0 0 0 -0.78 0.05 L 229 526.39 a 8.1 8.1 0 0 0 -1.53 4.79 h 0 v 0 h 0 c 0 0.13 0 0.25 0 0.38 v 0 h 0 v 0 c 0 6.32 4.42 14 9.88 17.2 h 0 l 0.3 0.15 h 0 a 8.7 8.7 0 0 0 4.13 1.19 c 3.25 0 5.49 -2.58 5.51 -7.06 h 0 v 0 c 0 -6.32 -4.43 -14 -9.89 -17.2 h 0 a 11.94 11.94 0 0 0 -1.18 -0.6 h 0 l 0 0 a 8.08 8.08 0 0 0 -3.22 -0.74" />
    <path style="fill:#646668" d="M 251.33 541.49 c -1.24 0 -2.1 1 -2.12 2.68 h 0 v 0 h 0 v 0 h 0 a 7.53 7.53 0 0 0 0.8 3.14 a 8.78 8.78 0 0 0 1.34 2 a 6.71 6.71 0 0 0 1.67 1.42 h 0 a 3.9 3.9 0 0 0 1.29 0.49 l 2.32 -1.36 a 4.22 4.22 0 0 0 0.17 -0.68 a 5 5 0 0 1 -0.62 -0.3 a 6.9 6.9 0 0 1 -1.67 -1.42 a 9.37 9.37 0 0 1 -1.47 -2.33 a 7.13 7.13 0 0 1 -0.66 -2.88 a 4.45 4.45 0 0 1 0 -0.65 a 3 3 0 0 0 -1.09 -0.23" />
    <path style="fill:#646668" d="M 224.62 538.77 a 1.88 1.88 0 0 0 -1 0.26 h -0.07 a 2 2 0 0 0 -0.69 0.77 h -0.05 a 5.37 5.37 0 0 0 0.15 4 h 0 v 0 h 0 c 0.08 0.2 0.16 0.4 0.25 0.6 s 0.24 0.5 0.39 0.75 h 0 a 9.68 9.68 0 0 0 1 1.4 a 6.84 6.84 0 0 0 1.71 1.45 h 0 l 0 0 h 0 a 3.37 3.37 0 0 0 1.64 0.5 h 0 a 2 2 0 0 0 1 -0.25 h 0 a 2.41 2.41 0 0 0 1.06 -1.81 a 5 5 0 0 1 -0.62 -0.3 a 7.18 7.18 0 0 1 -1.67 -1.42 a 9.24 9.24 0 0 1 -1 -1.44 c -0.17 -0.3 -0.32 -0.6 -0.45 -0.89 a 6.63 6.63 0 0 1 -0.61 -3.53 a 3 3 0 0 0 -1.1 -0.23" />
    <path style="fill:#646668" d="M 246.71 551.61 a 1.93 1.93 0 0 0 -1 0.25 h -0.1 a 2.37 2.37 0 0 0 -0.94 1.51 l 2.88 -1.68 a 3 3 0 0 0 -0.86 -0.14" />
    <path style="fill:#646668" d="M 239.13 520.65 l -3.2 1.82 a 6.86 6.86 0 0 0 1.51 1.23 h 0 a 3.73 3.73 0 0 0 1.16 0.46 a 2.62 2.62 0 0 0 0.54 0.06 c 1.08 0 1.87 -0.75 2.07 -2.08 a 3.52 3.52 0 0 1 -0.62 -0.3 a 6.15 6.15 0 0 1 -1.48 -1.2" />
    <path style="fill:#646668" d="M 246.79 526.06 a 2 2 0 0 0 -1 0.25 h 0 c -0.9 0.52 -1.26 1.73 -1.08 3.18 h 0 a 8 8 0 0 0 0.61 2.15 a 8.25 8.25 0 0 0 0.45 0.89 h 0 a 10 10 0 0 0 0.63 1 h 0 a 8 8 0 0 0 1.06 1.16 h 0 l 0 0 h 0 a 6.09 6.09 0 0 0 1 0.69 h 0 l 0 0 l 0.07 0 h 0 l 0 0 l 0.05 0 a 3.35 3.35 0 0 0 1.49 0.41 h 0 a 1.92 1.92 0 0 0 1 -0.25 h 0 l 0 0 a 2.38 2.38 0 0 0 1.06 -1.81 a 4.4 4.4 0 0 1 -0.62 -0.3 a 6.71 6.71 0 0 1 -1.67 -1.41 a 9.38 9.38 0 0 1 -1 -1.45 c -0.16 -0.29 -0.31 -0.59 -0.45 -0.89 a 6.77 6.77 0 0 1 -0.61 -3.52 a 3 3 0 0 0 -1.09 -0.23" />
    <path style="fill:#646668" d="M 232.3 565.42 l 0 0.13 l 0.08 0 l 0 -0.08 m 29.43 -3 l 3 2.87 h 0 l -3 -2.87 h 0 m -32.92 -3.78 h 0 l -1.45 2.52 a 0.2 0.2 0 0 1 -0.09 0.09 l 2.07 -1.2 l -0.53 -1.41 m -4 -4.6 h 0 l -2 1.86 l 0 0 l 2.15 -1.26 l -0.15 -0.63 m 40 -2.21 l -0.49 0.28 l 0.47 0.46 l 0.55 -0.32 l -0.53 -0.42 m 0.4 -0.23 h 0 m -13.3 -38.23 l -3.18 1.81 l 1.33 5.41 l 2 -1.85 a 0.29 0.29 0 0 1 0.19 -0.08 a 0.52 0.52 0 0 1 0.24 0.08 a 1.2 1.2 0 0 1 0.53 0.84 l 0.68 6.18 l 2.39 -1.13 a 0.31 0.31 0 0 1 0.13 0 a 0.43 0.43 0 0 1 0.23 0.07 a 1.19 1.19 0 0 1 0.54 1 l -0.25 5.69 l 2.76 -0.37 h 0 a 0.44 0.44 0 0 1 0.24 0.07 a 1.14 1.14 0 0 1 0.52 1.06 l -1.18 5 l 3 0.4 l 0.19 0.07 a 1 1 0 0 1 0.27 0.24 a 1.4 1.4 0 0 1 0.16 0.26 a 0.8 0.8 0 0 1 0.06 0.65 h 0 l -2.06 4.15 l 3.16 1.15 h 0 a 1.39 1.39 0 0 1 0.32 0.27 a 1.41 1.41 0 0 1 0.22 0.34 a 0.64 0.64 0 0 1 0 0.66 l -0.32 0.36 h 0 l -2.54 2.8 l 2.68 1.55 h 0 l 0.56 0.33 a 0.87 0.87 0 0 1 0.23 0.2 h 0 a 0.39 0.39 0 0 1 0.08 0.1 h 0 a 1 1 0 0 1 0.19 0.83 h 0 a 0.47 0.47 0 0 1 -0.1 0.1 h 0 l 3.16 -1.85 c 0.2 -0.11 0.19 -0.44 0.06 -0.75 a 1.16 1.16 0 0 0 -0.2 -0.32 l -0.24 -0.2 l -3.24 -1.88 l 2.87 -3.16 a 0.62 0.62 0 0 0 0 -0.66 a 1.16 1.16 0 0 0 -0.22 -0.34 a 1.18 1.18 0 0 0 -0.32 -0.27 l -3.18 -1.16 l 2.05 -4.15 a 0.76 0.76 0 0 0 -0.05 -0.62 a 1.2 1.2 0 0 0 -0.21 -0.34 l -0.22 -0.19 l -0.2 -0.07 l -3 -0.4 l 1.17 -5 a 0.85 0.85 0 0 0 -0.08 -0.53 a 1 1 0 0 0 -0.21 -0.33 l -0.23 -0.2 a 0.43 0.43 0 0 0 -0.23 -0.07 h -0.05 l -2.76 0.37 l 0.25 -5.69 a 1 1 0 0 0 -0.09 -0.43 a 1.15 1.15 0 0 0 -0.21 -0.33 l -0.24 -0.2 a 0.48 0.48 0 0 0 -0.23 -0.07 a 0.27 0.27 0 0 0 -0.12 0 l -2.4 1.13 l -0.68 -6.18 a 0.9 0.9 0 0 0 -0.09 -0.32 a 1.16 1.16 0 0 0 -0.2 -0.32 l -0.24 -0.2 a 0.46 0.46 0 0 0 -0.24 -0.08 a 0.2 0.2 0 0 0 -0.13 0 L 253 518.15 l -1.16 -4.74" />
    <path style="fill:url(#ac)" d="M 234.35 532.48 a 2.1 2.1 0 0 1 1.24 -0.39 a 3.06 3.06 0 0 1 1 0.18 a 5.1 5.1 0 0 1 0.84 0.38 a 9 9 0 0 1 4.05 7.07 a 4.88 4.88 0 0 1 -0.08 0.88 a 2.2 2.2 0 0 1 -2.17 2 a 2.28 2.28 0 0 1 -0.45 0 a 4.15 4.15 0 0 1 -1.38 -0.52 h 0 a 6.63 6.63 0 0 1 -1.16 -0.87 h 0 l 0 0 a 9.17 9.17 0 0 1 -1.78 -2.32 h 0 l 0 0 h 0 v 0 a 8.24 8.24 0 0 1 -1.06 -3.8 h 0 v 0 h 0 v 0 h 0 v 0 h 0 v 0 h 0 v 0 h 0 a 3 3 0 0 1 0.94 -2.27 h 0.05 l 0 0 h 0 m -0.92 -6.68 h 0 c -2.92 0 -4.93 2.34 -4.94 6.37 v 0 c 0 5.7 4 12.62 8.9 15.48 l 0.06 0 h 0 a 8.46 8.46 0 0 0 3.45 1.17 h 0 a 3.85 3.85 0 0 0 0.48 0 h 0 c 2.93 0 4.94 -2.33 5 -6.37 v 0 c 0 -5.7 -4 -12.62 -8.9 -15.48 l 0 0 a 8.06 8.06 0 0 0 -4 -1.21 h 0" />
    <path style="fill:url(#ad)" d="M 261.18 561.93 h 0 l 0.55 0.53 h 0 l -0.55 -0.53 m -46.13 -27.6 L 212 536 a 1.13 1.13 0 0 0 0.52 1.07 l 0.19 0.07 l 3 0.4 l -1.17 5 a 1.13 1.13 0 0 0 0.52 1.06 a 0.46 0.46 0 0 0 0.24 0.08 h 0 l 2.76 -0.37 L 217.9 549 a 1.16 1.16 0 0 0 0.54 1 a 0.39 0.39 0 0 0 0.23 0.07 l 0.12 0 l 2.4 -1.14 l 0.68 6.18 a 1.24 1.24 0 0 0 0.53 0.85 a 0.59 0.59 0 0 0 0.24 0.07 a 0.28 0.28 0 0 0 0.15 0 l 0 0 h 0 l 2 -1.86 l 0.15 0.63 l 1.43 5.83 a 1.18 1.18 0 0 0 0.51 0.72 a 0.49 0.49 0 0 0 0.24 0.08 a 0.25 0.25 0 0 0 0.15 -0.05 a 0.2 0.2 0 0 0 0.09 -0.09 h 0 l 1.45 -2.52 l 0.53 1.41 l 1.91 5.11 a 1.1 1.1 0 0 0 0.46 0.59 l 0.08 0 l 0.47 -0.28 l 0 -0.13 l -0.87 -1.42 c -0.64 -1 -0.55 -2.08 0 -2.36 l 0.62 -0.37 a 56.35 56.35 0 0 1 -17 -26.94 m 33.64 -19.11 l -2.51 1.42 c 8.39 8.69 14.46 21.37 15.1 32.6 l 3 2.91 l 0.49 -0.28 l 0.39 -0.23 h 0 a 0.47 0.47 0 0 0 0.1 -0.1 h 0 a 1 1 0 0 0 -0.19 -0.83 h 0 a 0.39 0.39 0 0 0 -0.08 -0.1 a 0.87 0.87 0 0 0 -0.23 -0.2 h 0 l -0.56 -0.33 l -2.68 -1.55 l 2.54 -2.8 l 0.32 -0.36 c 0.25 -0.27 0 -1 -0.53 -1.27 h 0 l -3.16 -1.15 l 2.06 -4.15 h 0 a 0.8 0.8 0 0 0 -0.06 -0.65 a 1.4 1.4 0 0 0 -0.16 -0.26 a 1 1 0 0 0 -0.27 -0.24 l -0.19 -0.07 l -3 -0.4 l 1.18 -5 a 1.14 1.14 0 0 0 -0.52 -1.06 a 0.44 0.44 0 0 0 -0.24 -0.07 h 0 l -2.76 0.37 l 0.25 -5.69 a 1.19 1.19 0 0 0 -0.54 -1 a 0.43 0.43 0 0 0 -0.23 -0.07 a 0.31 0.31 0 0 0 -0.13 0 l -2.39 1.13 l -0.68 -6.18 a 1.2 1.2 0 0 0 -0.53 -0.84 a 0.52 0.52 0 0 0 -0.24 -0.08 a 0.29 0.29 0 0 0 -0.19 0.08 l -2 1.85 l -1.33 -5.41" />
    <path style="fill:url(#ae)" d="M 241.15 555.84 a 2.73 2.73 0 0 1 0.31 0.14 a 2.73 2.73 0 0 0 -0.31 -0.14 M 223.63 539 a 1.88 1.88 0 0 1 1 -0.26 a 3 3 0 0 1 1.1 0.23 a 4.3 4.3 0 0 1 0.61 0.3 a 7.8 7.8 0 0 1 2.7 2.86 a 7.24 7.24 0 0 1 1.06 4.42 a 2.41 2.41 0 0 1 -1.06 1.81 h 0 a 2 2 0 0 1 -1 0.25 h 0 a 3.37 3.37 0 0 1 -1.64 -0.5 h 0 l 0 0 h 0 a 6.84 6.84 0 0 1 -1.71 -1.45 a 9.68 9.68 0 0 1 -1 -1.4 h 0 c -0.15 -0.25 -0.27 -0.5 -0.39 -0.75 s -0.17 -0.4 -0.25 -0.6 h 0 v 0 h 0 a 5.32 5.32 0 0 1 -0.15 -4 h 0.05 a 2 2 0 0 1 0.69 -0.77 h 0.07 m 22.17 -12.72 a 2 2 0 0 1 1 -0.25 a 3 3 0 0 1 1.09 0.23 a 4.4 4.4 0 0 1 0.62 0.3 a 7.8 7.8 0 0 1 2.7 2.86 a 7.22 7.22 0 0 1 1.06 4.41 a 2.38 2.38 0 0 1 -1.06 1.81 l 0 0 h 0 a 1.92 1.92 0 0 1 -1 0.25 h 0 a 3.35 3.35 0 0 1 -1.49 -0.41 l -0.05 0 l 0 0 h 0 l -0.07 0 l 0 0 h 0 a 6.09 6.09 0 0 1 -1 -0.69 h 0 l 0 0 h 0 a 8 8 0 0 1 -1.06 -1.16 h 0 a 11.37 11.37 0 0 1 -0.63 -1 h 0 a 8.21 8.21 0 0 1 -1.06 -3 h 0 c -0.18 -1.45 0.18 -2.66 1.08 -3.18 h 0 M 244 517.89 l -3 1.71 a 6.49 6.49 0 0 1 0.3 1.91 a 4.4 4.4 0 0 1 0 0.64 c -0.2 1.33 -1 2.08 -2.07 2.08 a 2.62 2.62 0 0 1 -0.54 -0.06 a 3.73 3.73 0 0 1 -1.16 -0.46 h 0 a 6.86 6.86 0 0 1 -1.51 -1.23 l -3.7 2.1 a 6.33 6.33 0 0 1 0.76 -0.05 a 8.09 8.09 0 0 1 3.23 0.74 l 0 0 h 0 a 11.94 11.94 0 0 1 1.18 0.6 h 0 c 5.46 3.18 9.89 10.88 9.89 17.2 v 0 h 0 c 0 4.48 -2.26 7.07 -5.51 7.07 a 8.7 8.7 0 0 1 -4.14 -1.19 h 0 l -0.28 -0.16 h 0 c -5.46 -3.17 -9.89 -10.88 -9.88 -17.2 v 0 h 0 v -0.41 A 8.09 8.09 0 0 1 229 526.4 l -3.72 2.12 a 7 7 0 0 1 0.32 2 a 4.4 4.4 0 0 1 0 0.65 a 2.11 2.11 0 0 1 -2.07 2.08 a 3.43 3.43 0 0 1 -1.71 -0.53 a 6.09 6.09 0 0 1 -0.91 -0.65 h 0 l 0 0 h 0 l 0 0 h 0 a 6.45 6.45 0 0 1 -0.59 -0.58 l -3 1.68 c 2.41 10.24 9.06 20.78 17.18 26.8 l 1.69 -1 a 8 8 0 0 1 -1.11 -1.33 h 0 v 0 l 0 0 h 0 l 0 0 h 0 a 8.3 8.3 0 0 1 -1.39 -3.92 h 0 v 0 h 0 v 0 h 0 v 0 h 0 v 0 h 0 v 0 h 0 v 0 h 0 v 0 h 0 v 0 h 0 v 0 h 0 v 0 h 0 v 0 h 0 v 0 h 0 v 0 h 0 a 2.76 2.76 0 0 1 1 -2.25 h 0 l 0.18 -0.11 a 2 2 0 0 1 1 -0.25 a 3.09 3.09 0 0 1 1.09 0.23 a 5 5 0 0 1 0.62 0.3 a 8.46 8.46 0 0 1 3.48 4.67 l 3.84 -2.25 a 2.37 2.37 0 0 1 0.94 -1.51 h 0.1 a 1.93 1.93 0 0 1 1 -0.25 a 3 3 0 0 1 0.86 0.14 l 1.14 -0.67 a 0.71 0.71 0 0 1 0.36 -0.09 a 1.22 1.22 0 0 1 0.61 0.19 l 2.16 1.6 l 2.47 -1.44 a 3.9 3.9 0 0 1 -1.29 -0.49 h 0 a 8.12 8.12 0 0 1 -3 -3.46 a 7.53 7.53 0 0 1 -0.8 -3.14 h 0 v 0 h 0 v 0 h 0 c 0 -1.7 0.88 -2.68 2.12 -2.68 a 3 3 0 0 1 1.09 0.23 a 5 5 0 0 1 0.62 0.3 a 8.43 8.43 0 0 1 3.8 6.63 a 4.45 4.45 0 0 1 0 0.65 a 4.22 4.22 0 0 1 -0.17 0.68 l 1.9 -1.11 c -0.25 -10.68 -6.28 -23.06 -14.54 -31" />
    <path style="fill:#646668" d="M 252.74 564.34 h 0 l 1.91 1.41 l -1.9 -1.41 m -35.49 -31.26 l -2.2 1.25 a 56.35 56.35 0 0 0 17 26.94 l 2.39 -1.39 c -8.12 -6 -14.77 -16.56 -17.18 -26.8 m 28.93 -16.44 L 244 517.89 c 8.26 7.92 14.29 20.3 14.54 31 l 0.87 -0.51 a 0.72 0.72 0 0 1 0.37 -0.09 a 1.27 1.27 0 0 1 0.6 0.18 a 2.63 2.63 0 0 1 0.45 0.35 l 0.46 0.44 c -0.64 -11.23 -6.71 -23.91 -15.1 -32.6" />
    <path style="fill:#646668" d="M 395 763.88 l -4.41 2.58 l -0.13 0.1 L 395 763.9 v 0" />
    <path style="fill:#646668" d="M 404.1 779.1 l -1.75 1 a 0.75 0.75 0 0 1 -0.26 0.27 l 2.05 -1.2 l 0 -0.1" />
    <path style="fill:#646668" d="M 394.22 763 l -3.64 3.44 l 4.41 -2.58 c -0.25 -0.29 -0.51 -0.58 -0.77 -0.86" />
    <path style="fill:#646668" d="M 403.63 777.91 l -1.28 2.22 l 1.75 -1 c -0.15 -0.39 -0.31 -0.79 -0.47 -1.19" />
    <polyline style="fill:#646668" points="433.05,797.85 429.55,799.9 429.93,800.2 433.29,798.23 433.05,797.85" />
    <path style="fill:#646668" d="M 431.38 795.28 L 428.46 797 l -0.17 1.91 l 1.26 1 l 3.5 -2 l -1.67 -2.57 m -2.45 -3.78 h 0 l 0 0.4 l 0.48 0.28 l -0.45 -0.68" />
    <path style="fill:#646668" d="M 446.35 804 l -5.09 3 h 0 a 1 1 0 0 1 -0.39 1 l 5.93 -3.47 l -0.45 -0.55" />
    <polyline style="fill:#646668" points="440.51,796.84 441.26,806.97 441.26,806.97 446.35,804 440.51,796.84" />
    <path style="fill:#646668" d="M 454.8 794.91 h 0 m 0.6 0 h 0" />
    <path style="fill:#646668" d="M 451.68 799.49 l 2.28 10.7 a 1.48 1.48 0 0 1 -0.16 1.2 a 0.7 0.7 0 0 1 -0.19 0.16 l 6.59 -3.85 l -8.52 -8.21" />
    <path style="fill:#646668" d="M 466 793 a 31.76 31.76 0 0 1 -10.64 1.94 h 0 A 31.76 31.76 0 0 0 466 793 h 0" />
    <path style="fill:#646668" d="M 412 763.57 a 1.56 1.56 0 0 1 0.33 0.94 l -0.08 1.93 h 0 l 0.08 -1.93 a 1.36 1.36 0 0 0 -0.12 -0.59 a 1.71 1.71 0 0 0 -0.21 -0.35 m 8.47 -1.93 l -0.26 5.8 l 3.75 -0.5 h 0.07 a 0.7 0.7 0 0 1 0.32 0.1 a 1.28 1.28 0 0 1 0.31 0.27 a 1.65 1.65 0 0 1 0.29 0.45 a 1.23 1.23 0 0 1 0.1 0.72 l -1.59 6.82 l 4.11 0.54 a 0.74 0.74 0 0 1 0.27 0.1 a 1.23 1.23 0 0 1 0.31 0.26 a 2.31 2.31 0 0 1 0.29 0.45 a 1 1 0 0 1 0 0.85 l -0.4 0.83 l 0.16 0.09 a 57.81 57.81 0 0 0 18.46 7.16 h 0 a 7.71 7.71 0 0 0 1.32 0.12 a 5.43 5.43 0 0 0 2.77 -0.71 l 0.08 -0.05 a 6.54 6.54 0 0 0 2.79 -4.42 a 59.18 59.18 0 0 1 -17.2 -6.9 a 93.06 93.06 0 0 1 -16 -12 m -4.75 -5 l 0.35 3.2 l 1.71 -0.8 c -0.32 -0.33 -0.63 -0.66 -0.94 -1 s -0.76 -0.91 -1.12 -1.39 m -8.83 -0.59 a 1.29 1.29 0 0 1 0 0.19 a 1.29 1.29 0 0 0 0 -0.19 m 1.69 -15.32 a 5.27 5.27 0 0 0 -4.29 2 l 0.71 1.88 l 2.82 -1.65 a 0.41 0.41 0 0 1 0.19 0 a 0.77 0.77 0 0 1 0.33 0.1 a 1.37 1.37 0 0 1 0.32 0.28 a 1.88 1.88 0 0 1 0.28 0.43 c 0 0.09 0.07 0.18 0.09 0.27 L 411 752 l 1.57 -0.92 a 17.67 17.67 0 0 1 -1.41 -9.87 a 8.24 8.24 0 0 0 -2.55 -0.44" />
    <path style="fill:#646668" d="M 462.06 799.39 l 3.72 10.88 h 0 c 0.28 0.84 0.12 1.46 -0.27 1.69 l 7.55 -4.42 l -11 -8.16" />
    <path style="fill:#646668" d="M 471.29 796.51 l 5 10.71 a 2.74 2.74 0 0 1 0.19 0.49 a 1.62 1.62 0 0 1 -0.07 1.29 a 0.7 0.7 0 0 1 -0.22 0.23 l 7.31 -4.27 v -2 l -12.24 -6.46" />
    <polyline style="fill:#646668" points="479.06,790.97 483.51,798.25 483.48,792.33 479.06,790.97" />
    <path style="fill:#646668" d="M 482.6 766.63 h 0 v 0 h 0 v 0 m -19.91 -56.9 a 5.37 5.37 0 0 0 -2.74 0.7 h 0 c -2.32 1.36 -3.49 4.57 -3 8.74 h 0 l 0 0.11 h 0 v 0.11 h 0 v 0.05 h 0 v 0.11 h 0 V 720 h 0 v 0.11 h 0 l 0 0.11 h 0 l 0 0.11 h 0 l 0 0.2 h 0 l 0 0.11 h 0 l 0 0.11 h 0 l 0 0.11 h 0 V 721 h 0 v 0 h 0 l 0 0.06 v 0.29 l 0 0.05 v 0.06 h 0 l 0 0.06 h 0 v 0.06 h 0 A 58.89 58.89 0 0 1 459.27 736 a 36.34 36.34 0 0 1 -2 12.29 h 0 c -1.42 3.9 -0.22 9.62 2.71 14.55 l 0 0 h 0 a 25 25 0 0 0 2.61 3.6 c 0.16 0.18 0.31 0.36 0.47 0.53 l 0.73 0.75 a 17.7 17.7 0 0 0 3.47 2.69 a 9.69 9.69 0 0 0 4.78 1.46 a 6.28 6.28 0 0 0 1.32 -0.14 h 0 a 4.82 4.82 0 0 0 1.45 -0.57 l 0.08 0 A 5.86 5.86 0 0 0 477.4 768 c 0.16 -0.43 0.31 -0.87 0.45 -1.31 a 11.45 11.45 0 0 1 -2.31 -1 a 17.7 17.7 0 0 1 -3.47 -2.69 c -0.41 -0.41 -0.81 -0.83 -1.2 -1.27 a 25.6 25.6 0 0 1 -4.09 -6.47 c -1.83 -4.18 -2.41 -8.55 -1.25 -11.72 c 2.58 -7.09 2.61 -16.54 0.07 -26.61 a 15.59 15.59 0 0 1 -0.35 -6.69 a 10.75 10.75 0 0 0 -1.24 -0.32 a 7.53 7.53 0 0 0 -1.32 -0.12" />
    <polyline style="fill:#acbce0" points="477.85,703.78 483.13,716.79 483.13,716.79 477.85,703.78" />
    <path style="fill:#646668" d="M 478.32 685.8 l 0.24 0.3 l -0.2 -0.25 l 0 -0.05" />
    <path style="fill:url(#af)" d="M 428.46 797 l -1.48 0.86 l 1.31 1 l 0.17 -1.91 m -6 -6.85 c 0.25 0.41 0.32 0.88 0.1 1.11 l -0.9 1 l 0.9 -1 a 0.83 0.83 0 0 0 0 -0.89 a 1.51 1.51 0 0 0 -0.11 -0.22 m -0.33 -0.4 h 0 m 0 0 l 0 0 l 0 0 m 0 0 h 0 m 0 0 h 0 m 61.35 -7.31 l -5.83 7.47 l -7.7 5.27 l -9.11 2.66 l -10.22 -0.06 l -11 -2.76 l -11.35 -5.37 l -0.19 -0.13 l -1.16 1.28 l 2 1.16 l 0 -0.4 l 0.45 0.68 l 1.92 1.12 a 1.35 1.35 0 0 1 0.32 0.26 a 1.91 1.91 0 0 1 0.28 0.44 c 0.18 0.42 0.18 0.87 -0.09 1 l -0.43 0.25 l 1.67 2.57 l 0.24 0.38 L 439 807 a 2.66 2.66 0 0 0 0.88 0.89 a 1.23 1.23 0 0 0 0.63 0.19 c 0.47 0 0.82 -0.38 0.76 -1.14 h 0 l -0.75 -10.14 l 5.84 7.17 l 0.45 0.55 l 5.14 6.31 a 2.31 2.31 0 0 0 0.68 0.6 a 1.17 1.17 0 0 0 0.61 0.19 a 0.72 0.72 0 0 0 0.57 -0.26 a 1.48 1.48 0 0 0 0.16 -1.2 l -2.28 -10.7 l 8.52 8.21 l 4.34 4.18 a 1.31 1.31 0 0 0 0.61 0.18 c 0.63 0 1 -0.71 0.64 -1.78 h 0 l -3.72 -10.88 l 11 8.16 l 2.16 1.6 a 1.25 1.25 0 0 0 0.61 0.19 a 0.71 0.71 0 0 0 0.39 -0.11 a 0.7 0.7 0 0 0 0.22 -0.23 a 1.62 1.62 0 0 0 0.07 -1.29 a 2.74 2.74 0 0 0 -0.19 -0.49 l -5 -10.71 L 483.53 803 l 0 -4.72 L 479.06 791 l 4.42 1.36 l -0.05 -10 M 396.74 766 l 3.05 12.44 a 3.08 3.08 0 0 0 1.32 1.86 a 1.31 1.31 0 0 0 0.63 0.19 a 0.68 0.68 0 0 0 0.61 -0.36 l 1.28 -2.22 A 51.06 51.06 0 0 0 396.74 766 m -9.44 -8.94 l 0.8 7.22 a 3 3 0 0 0 1.38 2.18 a 1.12 1.12 0 0 0 0.61 0.19 a 0.74 0.74 0 0 0 0.36 -0.09 l 0.13 -0.1 h 0 l 3.64 -3.44 a 38 38 0 0 0 -6.92 -6 m 90.48 -71.71 l -7.45 4.47 l 7.52 14 l 5.29 13 l -0.07 -14.8 l -4.59 0.62 l 0.65 -14.79 h 0 a 2.48 2.48 0 0 0 -0.23 -1.12 a 3.21 3.21 0 0 0 -0.34 -0.6 l -0.24 -0.3 a 2.74 2.74 0 0 0 -0.54 -0.45" />
    <polyline style="fill:#646668" points="483.06,699.93 478.48,702.61 483.07,701.99 483.06,699.93" />
    <polyline style="fill:#646668" points="482.99,685.56 479.13,687.82 478.48,702.61 483.06,699.93 482.99,685.56" />
    <path style="fill:#646668" d="M 483 682.22 l -5.2 3.13 a 2.74 2.74 0 0 1 0.54 0.45 l 0 0.05 l 0.2 0.25 a 3.21 3.21 0 0 1 0.34 0.6 a 2.48 2.48 0 0 1 0.23 1.12 h 0 l 3.86 -2.26 v -3.34" />
    <path style="fill:#646668" d="M 427.38 715.65 l -8.18 4.91 a 21 21 0 0 0 3.27 5.69 h 0 c 0.14 0.18 0.28 0.35 0.43 0.52 a 15.21 15.21 0 0 0 3.75 3.17 h 0 a 7.76 7.76 0 0 0 3.84 1.18 a 4.47 4.47 0 0 0 2.26 -0.58 l 0 0 c 1.45 -0.88 2.37 -2.66 2.45 -5.18 l -0.38 -0.21 a 15.14 15.14 0 0 1 -3.74 -3.17 a 20.75 20.75 0 0 1 -3.32 -5.25 c -0.16 -0.36 -0.3 -0.72 -0.44 -1.08" />
    <path style="fill:#646668" d="M 439.17 708.56 L 437 709.85 c 4.27 6.14 7 13.64 7 20.27 a 15.08 15.08 0 0 1 -2.24 8.52 a 1.63 1.63 0 0 0 0.54 -0.39 a 10.37 10.37 0 0 0 2.49 -4 h 0 v 0 h 0 a 17.77 17.77 0 0 0 0.94 -5.76 h 0 v 0 h 0 v -0.2 c 0 -6.41 -2.59 -13.63 -6.64 -19.64" />
    <path style="fill:url(#ag)" d="M 416.88 773 a 1.14 1.14 0 0 1 0 0.27 l -0.36 1.54 h 0 l 0.36 -1.54 a 1.14 1.14 0 0 0 0 -0.27 m -0.72 -1.18 l 0 0 l 0 0 m -27.49 -31.62 h 0 l 2.65 5.27 h 0 l -2.65 -5.27 M 460 710.43 a 5.37 5.37 0 0 1 2.74 -0.7 a 7.53 7.53 0 0 1 1.32 0.12 a 10.75 10.75 0 0 1 1.24 0.32 a 12.11 12.11 0 0 1 2.24 1 c 4.41 2.56 8.52 8.15 10 14.13 c 3.91 15.52 4 30.13 0.33 41.34 c -0.14 0.44 -0.29 0.88 -0.45 1.31 a 5.86 5.86 0 0 1 -2.43 3.14 a 4.88 4.88 0 0 1 -1.53 0.62 h 0 a 6.28 6.28 0 0 1 -1.32 0.14 a 9.69 9.69 0 0 1 -4.78 -1.46 a 17.7 17.7 0 0 1 -3.47 -2.69 l -0.73 -0.75 a 24.78 24.78 0 0 1 -3.08 -4.13 h 0 l 0 0 c -2.93 -4.93 -4.13 -10.65 -2.71 -14.55 h 0 a 36.34 36.34 0 0 0 2 -12.29 a 58.89 58.89 0 0 0 -1.89 -14.31 h 0 v -0.06 h 0 l 0 -0.06 h 0 v -0.06 l 0 -0.05 v -0.29 l 0 -0.06 h 0 v 0 h 0 V 721 h 0 l 0 -0.11 h 0 l 0 -0.11 h 0 l 0 -0.11 h 0 l 0 -0.2 h 0 l 0 -0.11 h 0 l 0 -0.11 h 0 v -0.11 h 0 v -0.44 h 0 v -0.11 h 0 v -0.05 h 0 v -0.11 h 0 l 0 -0.11 h 0 c -0.49 -4.19 0.69 -7.4 3 -8.75 m 6.44 -18.24 l -27.22 16.37 c 4.05 6 6.64 13.23 6.64 19.64 v 0.2 h 0 v 0 h 0 a 17.77 17.77 0 0 1 -0.94 5.76 h 0 v 0 h 0 a 10 10 0 0 1 -3.16 4.57 a 8.62 8.62 0 0 1 -7.26 3.67 a 15.7 15.7 0 0 1 -7.78 -2.4 c -5.59 -3.24 -10.55 -9.18 -13.71 -15.77 l -16.6 10 l 2.12 4.2 l 2.82 -1.65 a 0.29 0.29 0 0 1 0.18 -0.05 a 0.77 0.77 0 0 1 0.34 0.1 a 1.58 1.58 0 0 1 0.32 0.27 a 1.48 1.48 0 0 1 0.27 0.44 l 0 0.09 l 1.9 5.08 a 5.27 5.27 0 0 1 4.29 -2 a 8.24 8.24 0 0 1 2.55 0.44 a 12.15 12.15 0 0 1 2.23 1 a 18.09 18.09 0 0 1 3.47 2.69 a 58.68 58.68 0 0 0 11.5 8.91 a 36 36 0 0 0 11.5 4.46 a 10.82 10.82 0 0 1 3.47 1.34 c 4.42 2.56 8.53 8.16 10 14.13 a 15.43 15.43 0 0 1 0.33 6.76 a 6.54 6.54 0 0 1 -2.79 4.42 a 5.44 5.44 0 0 1 -2.85 0.76 a 7.71 7.71 0 0 1 -1.32 -0.12 h 0 a 57.81 57.81 0 0 1 -18.46 -7.16 l -0.16 -0.09 l -1.79 3.62 c 0.64 0.4 1.29 0.78 1.94 1.16 h 0 l 0.19 0.11 l 0.1 0.06 l 0.05 0 c 8.9 5.11 17.32 7.53 24.8 7.53 h 0 c 14.13 0 24.9 -8.66 29.17 -24.16 v 0 c 0.28 -1 0.53 -2 0.75 -3.11 l -0.13 -28 c -2.56 -14.6 -8.55 -29.7 -16.83 -43.28" />
    <path style="fill:url(#ah)" d="M 437 709.85 l -6.28 3.77 a 18.91 18.91 0 0 1 4.52 11.4 c 0 0.12 0 0.23 0 0.34 c -0.08 2.52 -1 4.3 -2.45 5.18 a 4.39 4.39 0 0 1 -2.3 0.61 a 7.68 7.68 0 0 1 -3.84 -1.19 h 0 a 15.54 15.54 0 0 1 -4.18 -3.69 h 0 a 21 21 0 0 1 -3.27 -5.69 l -6.27 3.78 c 3.16 6.59 8.12 12.53 13.71 15.77 a 15.7 15.7 0 0 0 7.78 2.4 a 8.62 8.62 0 0 0 7.26 -3.67 l 0.13 -0.2 a 15.08 15.08 0 0 0 2.24 -8.52 c 0 -6.63 -2.75 -14.13 -7 -20.27" />
    <path style="fill:#646668" d="M 420.25 781.47 a 1 1 0 0 1 0.05 0.83 l -0.66 1.35 l 0.66 -1.35 a 1 1 0 0 0 -0.05 -0.83 h 0 m 63.15 -5.77 c -3.75 8.53 -9.77 14.41 -17.36 17.26 a 31.76 31.76 0 0 1 -10.64 1.94 h -0.6 c -7.58 0 -16.07 -2.36 -25.05 -7.32 l -1.69 1.87 l 0.19 0.13 L 439.6 795 l 11 2.76 l 10.22 0.06 l 9.11 -2.66 l 7.7 -5.27 l 5.83 -7.47 l 0 -6.68 M 385 741.13 h 0 l 0.58 0.89 l -0.58 -0.89 m 85.33 -51.31 l -1.73 1 a 140.48 140.48 0 0 1 14.56 32.44 l 0 -6.51 l -5.29 -13 l -7.52 -14" />
    <path style="fill:#646668" d="M 420 781.08 a 1.87 1.87 0 0 1 0.22 0.39 h 0 v 0 a 2 2 0 0 0 -0.21 -0.37 m 63.32 -17.56 c -0.22 1.06 -0.47 2.1 -0.75 3.11 v 0 c -4.27 15.51 -15 24.16 -29.17 24.16 h 0 c -7.48 0 -15.9 -2.42 -24.8 -7.53 l -0.05 0 l -0.1 -0.06 l -0.19 -0.11 h 0 c -0.65 -0.38 -1.3 -0.76 -1.94 -1.16 l -0.6 1.2 l 4.33 1.58 a 1.54 1.54 0 0 1 0.44 0.36 a 1.7 1.7 0 0 1 0.3 0.47 a 0.85 0.85 0 0 1 0 0.89 l -1 1.15 c 9 5 17.47 7.32 25.05 7.32 h 0.6 A 31.76 31.76 0 0 0 466 793 c 7.59 -2.85 13.61 -8.73 17.36 -17.26 l 0 -12.18 m -92 -18 l 0.33 0.64 l -0.33 -0.64 h 0 m 77.28 -54.62 l -2.21 1.33 c 8.28 13.58 14.27 28.68 16.83 43.28 l -0.06 -12.17 a 140.48 140.48 0 0 0 -14.56 -32.44" />
    <path style="fill:#646668" d="M 232.34 565.5 l -0.08 0 l -0.47 0.28 l -7.57 4.42 h 0 a 0.65 0.65 0 0 1 0.29 -0.07 a 1.05 1.05 0 0 1 0.33 0.06 h 0 l 12.76 3.94 l -5.29 -8.67" />
    <path style="fill:#646668" d="M 219.15 581.43 h 0 m 8.17 -4.78 l -8.17 4.78 a 0.68 0.68 0 0 1 0.2 -0.07 h 0 l 0.16 0 h 0.07 l 12 0.84 l -4.26 -5.54" />
    <path style="fill:#646668" d="M 240 556.75 a 0.69 0.69 0 0 0 -0.36 0.09 l -0.33 0.2 l -3.16 1.85 l -1.69 1 L 232 561.27 l -0.62 0.37 a 0.67 0.67 0 0 1 0.33 -0.08 a 1.23 1.23 0 0 1 0.56 0.16 l 13.09 6.91 l -5 -10.71 a 2.51 2.51 0 0 1 -0.28 -1.16 H 240 m 19.8 -8.48 a 0.72 0.72 0 0 0 -0.37 0.09 l -0.87 0.51 l -1.9 1.11 l -2.32 1.36 h 0 l -2.47 1.44 l -2.16 -1.6 a 1.22 1.22 0 0 0 -0.61 -0.19 a 0.71 0.71 0 0 0 -0.36 0.09 l -1.14 0.67 l -2.88 1.68 h 0 l -3.84 2.25 l -0.36 0.21 l 0.06 0 a 0.73 0.73 0 0 1 0.3 -0.06 a 1.13 1.13 0 0 1 0.3 0 a 2.73 2.73 0 0 1 0.31 0.14 h 0 l 11.27 8.36 h 0 l 1.9 1.41 l -3.73 -10.88 c -0.37 -1.08 0 -1.8 0.64 -1.8 a 1.19 1.19 0 0 1 0.6 0.19 a 2 2 0 0 1 0.45 0.35 l 8.58 8.32 h 0 l 0.55 0.53 l 3 2.87 l 0.32 0.31 L 262.74 555 c -0.2 -0.93 0.17 -1.46 0.72 -1.46 a 1.23 1.23 0 0 1 0.62 0.19 a 2.42 2.42 0 0 1 0.67 0.6 l 11.43 14 l -0.75 -10.13 c -0.05 -0.76 0.29 -1.14 0.77 -1.14 a 1.26 1.26 0 0 1 0.63 0.19 a 2.72 2.72 0 0 1 0.88 0.88 l 4.36 6.75 h 0 l 5.69 8.79 l 0.8 -9.23 c 0.05 -0.58 0.36 -0.85 0.76 -0.85 a 1.29 1.29 0 0 1 0.64 0.2 A 2.77 2.77 0 0 1 291 565 l 8.35 16.52 l 2.32 -8 a 0.71 0.71 0 0 1 0.71 -0.58 a 1.29 1.29 0 0 1 0.64 0.2 a 3 3 0 0 1 1.2 1.53 l 1.24 3.3 h 0 l 5.1 13.64 l 3.77 -6.53 a 0.69 0.69 0 0 1 0.62 -0.36 a 1.34 1.34 0 0 1 0.63 0.19 a 3 3 0 0 1 1.31 1.86 L 321 603.49 l 5.09 -4.81 a 0.66 0.66 0 0 1 0.49 -0.2 a 1.27 1.27 0 0 1 0.61 0.19 a 3.11 3.11 0 0 1 1.38 2.16 h 0 v 0 h 0 l 1.21 11 l 8.24 -4.62 L 337 597.6 l -0.17 -1.55 a 3.21 3.21 0 0 0 -0.11 -0.52 h 0 l -0.12 -0.3 a 3.19 3.19 0 0 0 -0.53 -0.83 a 2.56 2.56 0 0 0 -0.62 -0.54 a 1.25 1.25 0 0 0 -0.61 -0.18 a 0.74 0.74 0 0 0 -0.36 0.09 l -1.77 1 l -3.86 2.26 l -1.77 -7.23 h 0 l -1 -3.9 l -1 -4 a 3.11 3.11 0 0 0 -0.69 -1.33 a 3.07 3.07 0 0 0 -0.32 -0.31 h 0 a 1.6 1.6 0 0 0 -0.31 -0.22 a 1.3 1.3 0 0 0 -0.62 -0.19 a 0.74 0.74 0 0 0 -0.36 0.09 l -0.21 0.12 l -5.18 3 l -5 -13.3 l -0.07 -0.18 a 3.28 3.28 0 0 0 -0.53 -0.83 a 2.57 2.57 0 0 0 -0.6 -0.52 a 1.29 1.29 0 0 0 -0.64 -0.2 a 0.65 0.65 0 0 0 -0.36 0.1 l -5.38 3.14 l -5.64 -11.15 a 3 3 0 0 0 -0.46 -0.7 a 2.66 2.66 0 0 0 -0.59 -0.5 a 1.29 1.29 0 0 0 -0.64 -0.2 a 0.66 0.66 0 0 0 -0.37 0.1 l -5.55 3.25 l -5.7 -8.8 a 3 3 0 0 0 -0.28 -0.39 a 2.38 2.38 0 0 0 -0.59 -0.5 a 1.26 1.26 0 0 0 -0.63 -0.19 a 0.7 0.7 0 0 0 -0.38 0.1 l -5.93 3.46 l -4.34 -5.33 l -0.8 -1 l -0.07 -0.09 a 2.27 2.27 0 0 0 -0.6 -0.51 a 1.23 1.23 0 0 0 -0.62 -0.19 a 0.76 0.76 0 0 0 -0.37 0.1 l -6 3.51 l -0.55 0.32 l -0.47 -0.46 l -3 -2.91 l -0.46 -0.44 a 2.63 2.63 0 0 0 -0.45 -0.35 a 1.27 1.27 0 0 0 -0.6 -0.18" />
    <polyline style="fill:#646668" points="225.34,604.45 224.33,605.03 223.12,605.73 223.19,605.77 225.41,604.5 225.34,604.45" />
    <path style="fill:#646668" d="M 241.13 597 a 11.15 11.15 0 0 0 -4.55 1.42 l -0.1 0.05 c -3.38 2 -5.69 5.82 -6.38 11.19 l 8.55 4.79 a 36.57 36.57 0 0 1 -0.55 -6.18 c 0 -4.73 1.12 -8.54 3 -11.27" />
    <path style="fill:#646668" d="M 277 576.41 a 11.2 11.2 0 0 0 -6 2.44 h 0 l 0 0 h 0 c -3.2 2.66 -5.13 7.31 -5.15 13.59 h 0 v 0.12 h 0 a 43.32 43.32 0 0 0 3.92 17 a 55.56 55.56 0 0 0 3.56 6.79 h 0 l 0 0 l 0 0.05 v 0 l 0 0.06 h 0 c 4 6.38 9.2 11.89 14.93 15.22 h 0 a 28.2 28.2 0 0 0 3.16 1.58 l 8.42 -4.72 A 27.56 27.56 0 0 1 296.5 627 a 40.17 40.17 0 0 1 -9.88 -8.37 a 55 55 0 0 1 -8.75 -13.85 A 43 43 0 0 1 274 587.68 c 0 -4.73 1.11 -8.54 3 -11.27" />
    <path style="fill:url(#ai)" d="M 251.55 553.07 c -0.64 0 -1 0.72 -0.64 1.8 l 3.73 10.88 l -1.91 -1.41 L 241.46 556 h 0 a 2.73 2.73 0 0 0 -0.31 -0.14 a 1.13 1.13 0 0 0 -0.3 0 a 0.73 0.73 0 0 0 -0.3 0.06 a 1 1 0 0 0 -0.47 0.9 a 2.51 2.51 0 0 0 0.28 1.16 l 5 10.71 l -13.09 -6.91 a 1.23 1.23 0 0 0 -0.56 -0.16 a 0.67 0.67 0 0 0 -0.33 0.08 c -0.54 0.28 -0.63 1.31 0 2.36 l 0.87 1.42 l 0 0.08 l 5.29 8.67 l -12.76 -3.94 h 0 a 1 1 0 0 0 -0.32 -0.05 a 0.73 0.73 0 0 0 -0.3 0.06 h 0 c -0.61 0.32 -0.6 1.59 0.22 2.66 l 2.88 3.74 l 4.26 5.54 l -12 -0.84 h -0.07 l -0.16 0 h 0 c -0.9 0.17 -0.79 1.88 0.28 3 l 7.83 8.07 l -10.83 2.28 c -1 0.21 -0.7 2.24 0.51 3.21 l 8.2 6.54 l 0.07 0 l -2.22 1.27 l 6.91 3.86 c 0.69 -5.42 3 -9.28 6.48 -11.24 a 11.15 11.15 0 0 1 4.55 -1.42 c 0.42 0 0.86 -0.06 1.3 -0.06 A 20.52 20.52 0 0 1 252.58 600 c 11.17 6.49 20.42 21.25 22.23 34.63 l 3.63 2 a 5.49 5.49 0 0 1 3.21 -3.12 a 5.32 5.32 0 0 1 3.24 -1 a 9.56 9.56 0 0 1 4.74 1.46 l 0.33 0.19 l 1.48 -0.83 a 28.2 28.2 0 0 1 -3.16 -1.58 h 0 c -5.73 -3.33 -11 -8.84 -14.93 -15.22 h 0 l 0 -0.06 v 0 l 0 -0.05 l 0 0 h 0 c -4.58 -7.44 -7.46 -16 -7.48 -23.74 h 0 v -0.12 h 0 c 0 -6.28 1.95 -10.93 5.15 -13.59 h 0 l 0 0 h 0 a 11.2 11.2 0 0 1 6 -2.44 c 0.43 0 0.86 -0.06 1.3 -0.06 a 18 18 0 0 1 6.67 1.41 a 25.93 25.93 0 0 1 3.48 1.71 c 12.5 7.26 22.59 24.86 22.55 39.3 a 28.66 28.66 0 0 1 -0.25 3.69 l 0 0.1 l 19.1 -10.71 l -1.21 -11 h 0 v 0 h 0 a 3.11 3.11 0 0 0 -1.38 -2.16 a 1.27 1.27 0 0 0 -0.61 -0.19 a 0.66 0.66 0 0 0 -0.49 0.2 L 321 603.49 L 316.9 586.7 a 3 3 0 0 0 -1.31 -1.86 a 1.34 1.34 0 0 0 -0.63 -0.19 a 0.69 0.69 0 0 0 -0.62 0.36 l -3.77 6.53 l -5.1 -13.64 l -1.24 -3.3 a 3 3 0 0 0 -1.2 -1.53 a 1.29 1.29 0 0 0 -0.64 -0.2 a 0.71 0.71 0 0 0 -0.71 0.58 l -2.32 8 L 291 565 a 2.77 2.77 0 0 0 -1.05 -1.19 a 1.29 1.29 0 0 0 -0.64 -0.2 c -0.4 0 -0.71 0.27 -0.76 0.85 l -0.8 9.23 l -5.69 -8.79 l -4.36 -6.75 a 2.72 2.72 0 0 0 -0.88 -0.88 a 1.26 1.26 0 0 0 -0.63 -0.19 c -0.48 0 -0.82 0.38 -0.77 1.14 l 0.75 10.13 l -11.43 -14 a 2.42 2.42 0 0 0 -0.67 -0.6 a 1.23 1.23 0 0 0 -0.62 -0.19 c -0.55 0 -0.92 0.53 -0.72 1.46 L 265 565.64 l -0.32 -0.31 l -3 -2.87 l -0.55 -0.53 l -8.58 -8.32 a 2 2 0 0 0 -0.45 -0.35 a 1.19 1.19 0 0 0 -0.6 -0.19" />
    <path style="fill:#646668" d="M 284.89 632.55 a 5.32 5.32 0 0 0 -3.24 1 h 0 a 5.74 5.74 0 0 1 1.88 -0.3 a 9.56 9.56 0 0 1 4.74 1.46 l 0.37 0.22 l 1.32 -0.75 l -0.33 -0.19 a 9.56 9.56 0 0 0 -4.74 -1.46" />
    <path style="fill:#646668" d="M 283.53 633.27 a 5.74 5.74 0 0 0 -1.88 0.3 a 5.49 5.49 0 0 0 -3.21 3.12 l 3.55 2 l 6.65 -3.73 l -0.37 -0.22 a 9.56 9.56 0 0 0 -4.74 -1.46" />
    <path style="fill:#646668" d="M 368.67 803.15 h 0 L 366 805.68 a 0.18 0.18 0 0 1 -0.07 0.05 h 0 l 2.95 -1.72 l -0.21 -0.86" />
    <path style="fill:#646668" d="M 374.14 809.42 h 0 l -2 3.41 a 0.35 0.35 0 0 1 -0.13 0.14 h 0 l 2.82 -1.66 l -0.71 -1.9" />
    <path style="fill:#646668" d="M 380 814.68 h 0 l -1.22 4.2 h 0 a 0.42 0.42 0 0 1 -0.15 0.24 l 0 0 l 2.82 -1.65 L 380 814.68" />
    <path style="fill:#646668" d="M 386.08 818.78 h 0 l -0.42 4.84 h 0 a 0.46 0.46 0 0 1 -0.18 0.38 l 2.88 -1.69 l -2.28 -3.53" />
    <path style="fill:#646668" d="M 398 823 l 0.22 1 h 0 l 1 4.58 h 0 c 0.08 0.37 0 0.61 -0.18 0.72 l 3.43 -2 L 398 823 m 5.43 -0.05 l 1.95 5.69 c 0.15 0.42 0.08 0.74 -0.1 0.87 l 3.92 -2.29 l -5.77 -4.27 m -11.28 -1.34 l 0.39 5.31 a 0.62 0.62 0 0 1 -0.12 0.48 h 0 a 0.21 0.21 0 0 1 -0.08 0.06 l 3.1 -1.81 l -3.29 -4 m -6.45 -80.87 l -0.69 0.42 l 0.58 0.89 l 0.11 -1.31 m 10.64 -6.4 l -8.16 4.91 l 0.5 1 h 0 l 2.65 5.27 l 0.33 0.64 l 1.21 -4.2 a 0.39 0.39 0 0 1 0.38 -0.3 a 0.63 0.63 0 0 1 0.33 0.1 a 1.61 1.61 0 0 1 0.64 0.8 l 3.31 8.87 l 2 -3.42 a 0.35 0.35 0 0 1 0.32 -0.19 a 0.77 0.77 0 0 1 0.33 0.1 a 1.63 1.63 0 0 1 0.69 1 l 2.15 8.79 l 2.67 -2.53 a 0.42 0.42 0 0 1 0.26 -0.1 a 0.7 0.7 0 0 1 0.32 0.1 a 1.62 1.62 0 0 1 0.68 1 a 1.29 1.29 0 0 1 0 0.19 h 0 l 0.92 8.41 l 3.27 -1.54 a 0.47 0.47 0 0 1 0.17 0 a 0.7 0.7 0 0 1 0.32 0.1 a 1.24 1.24 0 0 1 0.39 0.37 a 1.71 1.71 0 0 1 0.21 0.35 a 1.36 1.36 0 0 1 0.12 0.59 l -0.08 1.93 l -0.26 5.81 l 3.75 -0.51 h 0.06 a 0.68 0.68 0 0 1 0.33 0.09 h 0 l 0 0 a 1.67 1.67 0 0 1 0.67 1.15 a 1.14 1.14 0 0 1 0 0.27 l -0.36 1.54 l -1.23 5.27 l 4.11 0.55 a 0.6 0.6 0 0 1 0.27 0.1 a 1.35 1.35 0 0 1 0.38 0.34 a 2 2 0 0 1 0.21 0.37 v 0 h 0 a 1 1 0 0 1 0.05 0.83 l -0.66 1.35 l -2.12 4.3 l 4.32 1.58 a 1 1 0 0 1 0.24 0.16 h 0 l 0 0 h 0 a 2 2 0 0 1 0.32 0.39 a 1.51 1.51 0 0 1 0.11 0.22 a 0.83 0.83 0 0 1 0 0.89 l -0.9 1 l -3 3.29 l 4.4 2.57 h 0 a 1 1 0 0 1 0.32 0.26 a 1.72 1.72 0 0 1 0.28 0.44 l 0.06 0.16 c 0.12 0.37 0.09 0.73 -0.15 0.86 l -4.87 2.8 l 4.33 3.45 c 0.64 0.51 0.81 1.57 0.27 1.68 l -5.67 1.2 l 4.1 4.22 c 0.59 0.61 0.62 1.57 0.07 1.57 h 0 l -6.29 -0.44 l 3.74 4.86 c 0.5 0.64 0.43 1.43 -0.06 1.43 l -0.16 0 l -6.68 -2.06 l 0.23 0.38 h 0 l 3 4.94 c 0.4 0.65 0.26 1.28 -0.16 1.28 a 0.64 0.64 0 0 1 -0.3 -0.09 l -6.85 -3.61 L 410.9 827 a 0.61 0.61 0 0 1 0.05 0.12 c 0.16 0.42 0.11 0.76 -0.08 0.91 l 0 0 l 8.21 -4.8 a 0.43 0.43 0 0 0 0.19 -0.34 l 4.57 -2.68 c 0.24 -0.13 0.3 -0.55 0.09 -1 l -0.11 -0.22 l -0.47 -0.78 l 4.26 -2.5 c 0.24 -0.14 0.29 -0.57 0.09 -1 a 1.57 1.57 0 0 0 -0.22 -0.37 l -1.51 -2 l 4.29 -2.5 c 0.24 -0.15 0.27 -0.59 0.08 -1 a 1.86 1.86 0 0 0 -0.28 -0.43 l -0.06 -0.06 l -2.77 -2.86 l 4.45 -2.61 c 0.26 -0.15 0.27 -0.6 0.08 -1 a 1.63 1.63 0 0 0 -0.27 -0.43 l -0.19 -0.19 l -1.34 -1.07 l -0.38 -0.3 l -1.26 -1 l -1.31 -1 l 1.48 -0.86 l 2.92 -1.71 l 0.43 -0.25 c 0.27 -0.16 0.27 -0.61 0.09 -1 a 1.91 1.91 0 0 0 -0.28 -0.44 a 1.35 1.35 0 0 0 -0.32 -0.26 l -1.92 -1.12 l -0.48 -0.28 l -2 -1.16 l 1.16 -1.28 l 1.69 -1.87 l 1 -1.15 a 0.85 0.85 0 0 0 0 -0.89 a 1.7 1.7 0 0 0 -0.3 -0.47 a 1.54 1.54 0 0 0 -0.44 -0.36 l -4.33 -1.58 l 0.6 -1.2 l 1.79 -3.62 l 0.4 -0.83 a 1 1 0 0 0 0 -0.85 a 2.31 2.31 0 0 0 -0.29 -0.45 a 1.23 1.23 0 0 0 -0.31 -0.26 a 0.74 0.74 0 0 0 -0.27 -0.1 l -4.11 -0.54 l 1.59 -6.82 a 1.23 1.23 0 0 0 -0.1 -0.72 a 1.65 1.65 0 0 0 -0.29 -0.45 a 1.28 1.28 0 0 0 -0.31 -0.27 a 0.7 0.7 0 0 0 -0.32 -0.1 H 424 l -3.75 0.5 l 0.26 -5.8 l 0.08 -1.94 a 1.36 1.36 0 0 0 -0.12 -0.59 a 1.83 1.83 0 0 0 -0.28 -0.44 a 1.37 1.37 0 0 0 -0.32 -0.28 a 0.68 0.68 0 0 0 -0.32 -0.09 a 0.47 0.47 0 0 0 -0.17 0 l -1.56 0.74 l -1.71 0.8 l -0.35 -3.2 l -0.57 -5.21 a 1.52 1.52 0 0 0 -0.12 -0.43 a 1.83 1.83 0 0 0 -0.28 -0.44 a 1.19 1.19 0 0 0 -0.33 -0.27 a 0.55 0.55 0 0 0 -0.32 -0.1 a 0.29 0.29 0 0 0 -0.18 0 l -1.38 0.8 L 411 752 l -1.94 -7.94 c 0 -0.09 -0.06 -0.18 -0.09 -0.27 a 1.88 1.88 0 0 0 -0.28 -0.43 a 1.37 1.37 0 0 0 -0.32 -0.28 a 0.77 0.77 0 0 0 -0.33 -0.1 a 0.41 0.41 0 0 0 -0.19 0 L 405 744.67 l -0.71 -1.88 l -1.9 -5.08 l 0 -0.09 a 1.48 1.48 0 0 0 -0.27 -0.44 a 1.58 1.58 0 0 0 -0.32 -0.27 a 0.77 0.77 0 0 0 -0.34 -0.1 a 0.29 0.29 0 0 0 -0.18 0.05 l -2.82 1.65 l -2.12 -4.2" />
    <path style="fill:#646668" d="M 375.69 753.33 a 10.47 10.47 0 0 0 -4.64 1.37 l -0.05 0 c -3.55 2.08 -5.83 6.37 -6.08 12.44 h 0 v 0.07 h 0 v 0.15 h 0 v 0.14 h 0 v 0.07 h 0 v 0.07 h 0 v 0.38 h 0 v 0.15 h 0 v 0.08 h 0 a 32.87 32.87 0 0 0 0.51 5.61 h 0 v 0.12 a 44.42 44.42 0 0 0 3.1 10 a 51.5 51.5 0 0 0 3.81 7.09 v 0 l 0 0.05 a 44.76 44.76 0 0 0 9.88 11 h 0 l 0.05 0 l 0 0 h 0 a 31.3 31.3 0 0 0 3.38 2.28 l 0 0 h 0 a 19 19 0 0 0 9.39 2.89 a 10.84 10.84 0 0 0 5.51 -1.42 h 0 a 10.63 10.63 0 0 0 3.51 -3.4 c -0.27 0 -0.54 0 -0.82 0 a 18.94 18.94 0 0 1 -9.39 -2.88 a 37.56 37.56 0 0 1 -9.15 -7.75 a 50.56 50.56 0 0 1 -8.09 -12.82 a 39.74 39.74 0 0 1 -3.62 -15.81 a 18.43 18.43 0 0 1 2.57 -10.1" />
    <path style="fill:url(#aj)" d="M 375.69 753.33 q 0.4 0 0.81 0 a 19 19 0 0 1 9.4 2.89 c 0.47 0.28 0.94 0.57 1.4 0.87 a 38 38 0 0 1 6.92 6 h 0 c 0.26 0.28 0.52 0.57 0.77 0.86 h 0 v 0 c 0.6 0.67 1.18 1.38 1.74 2.1 a 51.06 51.06 0 0 1 6.89 11.91 h 0 c 0.16 0.4 0.32 0.8 0.47 1.19 h 0 l 0 0.1 a 38.39 38.39 0 0 1 2.63 13.36 a 18.55 18.55 0 0 1 -2.58 10.11 a 10.63 10.63 0 0 1 -3.51 3.4 a 10.78 10.78 0 0 1 -5.52 1.43 a 19 19 0 0 1 -9.4 -2.89 h 0 l 0 0 a 31.3 31.3 0 0 1 -3.38 -2.28 h 0 l 0 0 l -0.05 0 h 0 a 44.76 44.76 0 0 1 -9.88 -11 l 0 -0.05 v 0 a 47.82 47.82 0 0 1 -6.91 -17.08 v -0.12 h 0 a 32.87 32.87 0 0 1 -0.51 -5.61 h 0 v -0.08 h 0 v -0.15 h 0 v -0.38 h 0 v -0.07 h 0 v -0.07 h 0 v -0.14 h 0 v -0.15 h 0 v -0.07 h 0 c 0.25 -6.1 2.55 -10.4 6.13 -12.46 a 10.47 10.47 0 0 1 4.64 -1.37 m 12.48 -14.11 l -2.48 1.49 l -0.11 1.31 l -0.58 -0.89 l -26.11 15.7 l -0.2 31.86 l 0.95 -0.13 l -0.34 7.74 a 1.61 1.61 0 0 0 0.73 1.31 a 0.61 0.61 0 0 0 0.31 0.09 a 0.33 0.33 0 0 0 0.17 0 l 3.27 -1.54 l 0.92 8.41 a 1.65 1.65 0 0 0 0.73 1.15 a 0.63 0.63 0 0 0 0.32 0.1 a 0.37 0.37 0 0 0 0.18 0 a 0.18 0.18 0 0 0 0.07 -0.05 h 0 l 2.67 -2.53 l 0.21 0.86 l 1.95 7.94 a 1.56 1.56 0 0 0 0.68 1 a 0.65 0.65 0 0 0 0.33 0.1 a 0.32 0.32 0 0 0 0.19 0 a 0.35 0.35 0 0 0 0.13 -0.14 h 0 l 2 -3.41 l 0.71 1.9 l 2.61 7 a 1.52 1.52 0 0 0 0.63 0.79 a 0.65 0.65 0 0 0 0.34 0.11 a 0.38 0.38 0 0 0 0.21 -0.07 a 0.42 0.42 0 0 0 0.15 -0.24 h 0 l 1.22 -4.2 l 1.42 2.81 l 2.95 5.84 a 1.51 1.51 0 0 0 0.55 0.63 a 0.66 0.66 0 0 0 0.34 0.1 a 0.39 0.39 0 0 0 0.21 -0.06 a 0.46 0.46 0 0 0 0.18 -0.38 h 0 l 0.42 -4.84 l 2.28 3.53 l 3 4.61 a 1.53 1.53 0 0 0 0.46 0.46 a 0.66 0.66 0 0 0 0.34 0.1 a 0.35 0.35 0 0 0 0.27 -0.11 h 0 a 0.62 0.62 0 0 0 0.12 -0.48 l -0.39 -5.31 l 3.29 4 l 2.7 3.3 a 1.29 1.29 0 0 0 0.35 0.32 a 0.7 0.7 0 0 0 0.32 0.1 c 0.29 0 0.48 -0.28 0.38 -0.77 h 0 l -1 -4.58 l -0.22 -1 l 4.44 4.31 l 2.06 2 l 0.23 0.19 a 0.74 0.74 0 0 0 0.32 0.09 a 0.35 0.35 0 0 0 0.23 -0.07 c 0.18 -0.13 0.25 -0.45 0.1 -0.87 l -1.95 -5.69 l 5.77 4.27 l 1.13 0.84 a 0.62 0.62 0 0 0 0.32 0.1 a 0.32 0.32 0 0 0 0.2 -0.06 l 0 0 c 0.19 -0.15 0.24 -0.49 0.08 -0.91 a 0.61 0.61 0 0 0 -0.05 -0.12 l -2.64 -5.61 l 6.85 3.61 a 0.64 0.64 0 0 0 0.3 0.09 c 0.42 0 0.56 -0.63 0.16 -1.28 l -3 -4.94 l -0.23 -0.38 l 6.68 2.06 l 0.16 0 c 0.49 0 0.56 -0.79 0.06 -1.43 l -3.74 -4.86 l 6.29 0.44 h 0 c 0.55 0 0.52 -1 -0.07 -1.57 l -4.1 -4.22 l 5.67 -1.2 c 0.54 -0.11 0.37 -1.17 -0.27 -1.68 l -4.33 -3.45 l 4.87 -2.8 c 0.24 -0.13 0.27 -0.49 0.15 -0.86 a 1.54 1.54 0 0 0 -0.66 -0.86 h 0 l -4.4 -2.57 l 3 -3.29 l 0.9 -1 c 0.22 -0.23 0.15 -0.7 -0.1 -1.11 a 2 2 0 0 0 -0.32 -0.39 h 0 l 0 0 h 0 a 1 1 0 0 0 -0.24 -0.16 L 417.52 788 l 2.12 -4.3 l 0.66 -1.35 a 1 1 0 0 0 -0.05 -0.83 h 0 a 1.87 1.87 0 0 0 -0.22 -0.39 a 1.35 1.35 0 0 0 -0.38 -0.34 a 0.6 0.6 0 0 0 -0.27 -0.1 l -4.11 -0.55 l 1.23 -5.27 l 0.36 -1.54 a 1.14 1.14 0 0 0 0 -0.27 a 1.67 1.67 0 0 0 -0.67 -1.15 l 0 0 h 0 a 0.68 0.68 0 0 0 -0.33 -0.09 h -0.06 l -3.75 0.51 l 0.26 -5.81 l 0.08 -1.93 a 1.56 1.56 0 0 0 -0.33 -0.94 a 1.24 1.24 0 0 0 -0.39 -0.37 a 0.7 0.7 0 0 0 -0.32 -0.1 a 0.47 0.47 0 0 0 -0.17 0 l -3.27 1.54 l -0.92 -8.41 h 0 a 1.29 1.29 0 0 0 0 -0.19 a 1.62 1.62 0 0 0 -0.68 -1 a 0.7 0.7 0 0 0 -0.32 -0.1 a 0.42 0.42 0 0 0 -0.26 0.1 L 403 757.65 l -2.15 -8.79 a 1.63 1.63 0 0 0 -0.69 -1 a 0.77 0.77 0 0 0 -0.33 -0.1 a 0.35 0.35 0 0 0 -0.32 0.19 l -2 3.42 l -3.31 -8.87 a 1.61 1.61 0 0 0 -0.64 -0.8 a 0.63 0.63 0 0 0 -0.33 -0.1 a 0.39 0.39 0 0 0 -0.38 0.3 l -1.21 4.2 l -0.33 -0.64 l -2.65 -5.27 l -0.5 -1" />
    <path style="fill:#646668" d="M 374.49 558.6 l -3.64 2.13 a 0.18 0.18 0 0 1 -0.07 0 l 3.71 -2.17 h 0 m 0.49 -0.29 h 0" />
    <path style="fill:#646668" d="M 374.22 557.53 h 0 l -3.37 3.2 l 3.64 -2.13 l -0.27 -1.07 m 0.1 0 h 0 l 0.66 0.83 h 0 l -0.66 -0.83" />
    <path style="fill:#646668" d="M 381.15 565.46 h 0 l -2.5 4.32 a 0.47 0.47 0 0 1 -0.16 0.18 l 3.57 -2.09 l -0.91 -2.41 m 0.1 -0.06 h 0 c 0.62 0.63 1.25 1.24 1.88 1.84 h 0 c -0.63 -0.6 -1.26 -1.21 -1.88 -1.84" />
    <path style="fill:#646668" d="M 388.59 572.13 h 0 L 387 577.44 h 0 a 0.52 0.52 0 0 1 -0.22 0.32 l 3.56 -2.08 l -1.79 -3.55 m 0.11 -0.07 h 0 q 1.73 1.35 3.5 2.56 h 0 q -1.77 -1.22 -3.5 -2.56" />
    <path style="fill:#646668" d="M 377.18 550.29 q 1.36 1.86 2.83 3.61 c 0.6 0.73 1.22 1.44 1.85 2.14 A 62.62 62.62 0 0 0 392 565.18 h 0 l 0 -6.47 l -14.82 -8.42" />
    <polyline style="fill:#646668" points="400.8,563.72 400.78,570.14 400.78,570.14 406.23,566.95 406.23,566.81 400.8,563.72" />
    <path style="fill:url(#ak)" d="M 371.49 547.05 c 6.51 10.36 15 19.29 24.34 24.7 h 0 l 0.26 0.15 c 0.85 0.49 1.69 0.94 2.53 1.35 l 4.2 -2.35 c -0.67 -0.23 -1.35 -0.48 -2 -0.76 h 0 l 0 -6.42 l -8.8 -5 l 0 6.47 h 0 A 62.62 62.62 0 0 1 381.86 556 c -0.63 -0.7 -1.25 -1.41 -1.85 -2.14 c -1 -1.17 -1.92 -2.37 -2.84 -3.61 l -5.68 -3.24" />
    <path style="fill:#646668" d="M 368.45 545.32 c 7.06 12.11 16.72 22.66 27.37 28.85 h 0 l 0.23 0.13 h 0 l 0.14 0.08 l 0.21 0.12 l 2.22 -1.25 c -0.84 -0.41 -1.68 -0.86 -2.53 -1.35 l -0.26 -0.15 h 0 c -9.31 -5.41 -17.83 -14.34 -24.34 -24.7 l -3 -1.73" />
    <path style="fill:url(#al)" d="M 365.17 543.46 a 102 102 0 0 0 9.15 14 l 0.66 0.83 h 0 a 90.88 90.88 0 0 0 6.26 7.08 c 0.62 0.63 1.25 1.24 1.88 1.84 c 1.8 1.72 3.67 3.33 5.57 4.82 q 1.73 1.35 3.5 2.56 c 0.61 0.41 1.22 0.81 1.84 1.2 l 2.36 -1.32 l -0.21 -0.12 l -0.14 -0.08 h 0 l -0.23 -0.13 h 0 c -10.65 -6.19 -20.31 -16.74 -27.37 -28.85 l -3.28 -1.86" />
    <path style="fill:url(#am)" d="M 362.67 542 l -0.3 6.81 a 2 2 0 0 0 0.92 1.65 a 0.79 0.79 0 0 0 0.4 0.13 a 0.54 0.54 0 0 0 0.21 0 l 4.14 -2 l 1.16 10.65 a 2.1 2.1 0 0 0 0.92 1.45 a 0.83 0.83 0 0 0 0.41 0.12 a 0.43 0.43 0 0 0 0.25 -0.07 a 0.18 0.18 0 0 0 0.07 0 h 0 l 3.37 -3.2 l 0.27 1.07 h 0 l 2.47 10 a 2 2 0 0 0 0.87 1.23 a 0.79 0.79 0 0 0 0.42 0.13 a 0.41 0.41 0 0 0 0.4 -0.24 h 0 l 2.5 -4.32 l 0.91 2.41 l 3.29 8.81 a 2 2 0 0 0 0.8 1 a 0.92 0.92 0 0 0 0.43 0.13 a 0.4 0.4 0 0 0 0.24 -0.07 a 0.52 0.52 0 0 0 0.22 -0.32 h 0 l 1.55 -5.31 l 1.79 3.55 l 0.86 1.71 l 2.8 -1.57 c -0.62 -0.39 -1.23 -0.79 -1.84 -1.2 q -1.77 -1.22 -3.5 -2.56 c -1.9 -1.49 -3.77 -3.1 -5.57 -4.82 c -0.63 -0.6 -1.26 -1.21 -1.88 -1.84 a 89.18 89.18 0 0 1 -6.27 -7.08 h 0 l -0.66 -0.83 a 102 102 0 0 1 -9.15 -14 l -2.5 -1.42 m -5.84 -3.32 a 1.93 1.93 0 0 0 0.73 0.85 a 0.86 0.86 0 0 0 0.42 0.13 h 0.07 l 0.4 -0.05 l -1.62 -0.92" />
    <g style="isolation:isolate"><g style="clip-path:url(#an)"><path style="fill:#ed695d" d="M 63.3 736.84 l -16.21 8.73 c -1.34 0.72 -1.38 3.17 -0.08 5.46 a 6.73 6.73 0 0 0 2.42 2.58 a 2.4 2.4 0 0 0 2.36 0.26 l 16.14 -8.68 c -1.68 -2.7 -3.23 -5.5 -4.63 -8.35" />
            <path style="fill:#ed685d" d="M 49.43 753.61 A 6.73 6.73 0 0 1 47 751 c -1.3 -2.29 -1.26 -4.74 0.08 -5.46 l 16.21 -8.73 c 1.4 2.85 3 5.65 4.63 8.35 l -16.14 8.68 a 2.4 2.4 0 0 1 -2.36 -0.26 m 14 -17.93 l -16.78 9 c -1.63 0.87 -1.67 3.84 -0.11 6.61 a 8.35 8.35 0 0 0 2.94 3.11 a 2.9 2.9 0 0 0 2.85 0.32 l 16.7 -9 l -0.3 -0.47 a 96.69 96.69 0 0 1 -5.06 -9.13 l -0.24 -0.49" />
            <path style="fill:#ed695d" d="M 152 788.08 l -13.87 7.47 l -13.64 -23.27 a 18.94 18.94 0 0 1 -4.68 3 l 15.9 27.1 a 7.15 7.15 0 0 0 2.43 2.51 a 2.4 2.4 0 0 0 2.36 0.26 l 16.13 -8.68 c -1.67 -2.69 -3.23 -5.49 -4.63 -8.34" />
            <path style="fill:#ed685d" d="M 138.16 795.55 L 152 788.08 c 1.4 2.85 3 5.65 4.63 8.34 l -16.13 8.68 a 2.4 2.4 0 0 1 -2.36 -0.26 a 7.15 7.15 0 0 1 -2.43 -2.51 l -15.9 -27.1 a 18.94 18.94 0 0 0 4.68 -3 l 13.64 23.27 m 14 -8.64 l -13.94 7.5 L 124.45 771 l -0.25 0.22 a 18.48 18.48 0 0 1 -5.11 3.23 l -0.29 0.13 l 16.44 28 a 8.57 8.57 0 0 0 2.93 3 A 2.92 2.92 0 0 0 141 806 l 16.69 -9 l -0.29 -0.46 a 95.8 95.8 0 0 1 -5.07 -9.13 l -0.24 -0.5" />
            <path style="fill:#ed695d" d="M 94.07 707 c 8.84 5.1 16 17.47 16 27.62 s -7.22 14.26 -16 9.16 s -16 -17.48 -16 -27.64 s 7.22 -14.24 16.06 -9.14 m 0 -8.19 c -12.75 -7.36 -23.16 -1.43 -23.2 13.22 s 10.3 32.57 23 39.93 s 23.16 1.43 23.2 -13.22 s -10.3 -32.57 -23 -39.93" />
            <path style="fill:#ed685d" d="M 93.94 752 c -12.75 -7.36 -23.09 -25.28 -23 -39.93 s 10.45 -20.58 23.2 -13.22 s 23.1 25.27 23 39.93 S 106.69 759.33 93.94 752 m 0.16 -54 c -13.15 -7.59 -23.87 -1.47 -23.92 13.62 s 10.61 33.56 23.76 41.15 s 23.87 1.48 23.91 -13.62 S 107.24 705.59 94.1 698" />
            <path style="fill:#ed695d" d="M 182.8 758.24 c 8.84 5.1 16 17.47 15.95 27.62 s -7.21 14.26 -16.06 9.15 s -16 -17.47 -15.94 -27.63 s 7.21 -14.25 16.05 -9.14 m 0 -8.19 c -12.75 -7.36 -23.16 -1.43 -23.2 13.22 s 10.3 32.56 23 39.92 s 23.17 1.44 23.21 -13.21 s -10.3 -32.57 -23.06 -39.93" />
            <path style="fill:#ed685d" d="M 182.67 803.19 c -12.75 -7.36 -23.09 -25.27 -23 -39.92 s 10.45 -20.58 23.2 -13.22 s 23.1 25.28 23.06 39.93 s -10.45 20.58 -23.21 13.21 m 0.15 -54 c -13.14 -7.58 -23.86 -1.47 -23.91 13.63 s 10.62 33.56 23.76 41.15 s 23.87 1.48 23.92 -13.62 S 196 756.82 182.82 749.23" />
            <path style="fill:#ed695d" d="M 213 823.25 a 19 19 0 0 1 -5 2.49 l 13.4 23.64 l -13.41 8 c 1.75 2.63 3.4 5.38 4.9 8.19 l 15.61 -9.34 a 2.54 2.54 0 0 0 1 -2.23 a 6.91 6.91 0 0 0 -1 -3.27 L 213 823.25" />
            <path style="fill:#ed685d" d="M 212.9 865.59 c -1.5 -2.81 -3.15 -5.56 -4.9 -8.19 l 13.41 -8 L 208 825.74 a 19 19 0 0 0 5 -2.49 l 15.58 27.5 a 6.91 6.91 0 0 1 1 3.27 a 2.54 2.54 0 0 1 -1 2.23 l -15.61 9.34 m 0 -43.56 l -0.25 0.19 a 18.74 18.74 0 0 1 -5.41 2.73 l -0.31 0.1 l 13.46 23.76 l -13.48 8.06 l 0.31 0.46 a 94.24 94.24 0 0 1 5.36 9 l 0.25 0.48 L 229 857.12 a 3.05 3.05 0 0 0 1.17 -2.69 a 8.15 8.15 0 0 0 -1.14 -3.95 L 212.93 822" />
            <path style="fill:#ed695d" d="M 182.51 859.46 c 8.84 5.11 16 17.48 16 27.63 s -7.22 14.26 -16.06 9.15 s -16 -17.47 -15.95 -27.63 s 7.22 -14.25 16 -9.15 m 0 -8.18 c -12.75 -7.36 -23.15 -1.43 -23.2 13.22 s 10.3 32.57 23 39.93 s 23.17 1.43 23.21 -13.23 s -10.3 -32.56 -23.06 -39.92" />
            <path style="fill:#ed685d" d="M 182.38 904.43 c -12.75 -7.36 -23.09 -25.27 -23 -39.93 s 10.45 -20.58 23.2 -13.22 s 23.1 25.27 23.06 39.92 s -10.45 20.59 -23.21 13.23 m 0.16 -54 c -13.14 -7.58 -23.87 -1.47 -23.91 13.63 s 10.61 33.57 23.75 41.15 s 23.88 1.48 23.92 -13.63 s -10.62 -33.56 -23.76 -41.15" />
        </g></g>
    <polygon style="opacity:0.53;fill:url(#ao)" points="358.94,757.12 489.66,678.54 489.66,831.6 357.96,908.88 358.94,757.12" />
    <polygon style="opacity:0.30000000000000004;fill:url(#ap)" points="352.1,23.01 352.1,599.35 303.28,626.68 303.28,0 326.92,39.92 352.1,23.01" />
    <polygon style="opacity:0.2;fill:url(#aq)" points="303.28,288.9 326.92,328.82 352.1,311.91 352.1,344.62 326.92,361.53 303.28,322.72 303.28,288.9" />
    <polygon style="fill:url(#ar)" points="303.28,241.22 326.92,281.14 352.1,264.23 352.1,296.94 326.92,313.85 303.28,275.04 303.28,241.22" />
    <polygon style="opacity:0.6000000000000001;fill:url(#as)" points="303.28,192.98 326.92,232.9 352.1,215.99 352.1,248.7 326.92,265.61 303.28,226.8 303.28,192.98" />
    <g style="opacity:0.6000000000000001"><polygon style="fill:url(#at)" points="303.28,336.03 326.92,375.95 352.1,359.04 352.1,391.75 326.92,408.66 303.28,369.85 303.28,336.03" /></g>
    <polygon style="opacity:0.30000000000000004;fill:url(#au)" points="303.28,95.92 326.92,135.84 352.1,118.93 352.1,151.64 326.92,168.55 303.28,129.74 303.28,95.92" />
    <polygon style="opacity:0.1;fill:url(#av)" points="303.28,48.24 326.92,88.16 352.1,71.25 352.1,103.96 326.92,120.87 303.28,82.06 303.28,48.24" />
    <polygon style="opacity:0.04;fill:url(#aw)" points="303.28,0 326.92,39.92 352.1,23.01 352.1,55.72 326.92,72.63 303.28,33.82 303.28,0" />
    <g style="opacity:0.2"><polygon style="fill:url(#ax)" points="303.28,143.05 326.92,182.97 352.1,166.06 352.1,198.77 326.92,215.69 303.28,176.87 303.28,143.05" /></g>
    <polygon style="opacity:0.6000000000000001;fill:url(#ay)" points="303.28,479.96 326.92,519.88 352.1,502.97 352.1,535.68 326.92,552.59 303.28,513.78 303.28,479.96" />
    <polygon style="opacity:0.2;fill:url(#az)" points="303.28,432.28 326.92,472.2 352.1,455.29 352.1,488 326.92,504.91 303.28,466.1 303.28,432.28" />
    <polygon style="opacity:0.2;fill:url(#ba)" points="303.28,573.25 326.92,613.17 352.1,596.26 352.1,599.35 311.8,621.95 303.28,607.08 303.28,573.25" />
    <polygon style="fill:url(#bb)" points="303.28,384.04 326.92,423.96 352.1,407.05 352.1,439.76 326.92,456.67 303.28,417.86 303.28,384.04" />
    <polygon style="fill:url(#bc)" points="303.28,527.09 326.92,567.01 352.1,550.1 352.1,582.81 326.92,599.73 303.28,560.91 303.28,527.09" />
    <polygon style="opacity:0.30000000000000004;fill:url(#bd)" points="228.19,608.53 228.19,21.42 279.1,44.26 279.1,637.07 271.4,632.75 254.44,604.78 239.3,614.76 228.19,608.53" />
    <polygon style="opacity:0.2;fill:url(#be)" points="279.1,327.93 254.45,286.3 228.19,303.94 228.19,269.82 254.45,252.19 279.1,292.66 279.1,327.93" />
    <polygon style="fill:url(#bf)" points="279.1,377.66 254.45,336.03 228.19,353.66 228.19,319.55 254.45,301.91 279.1,342.39 279.1,377.66" />
    <polygon style="opacity:0.6000000000000001;fill:url(#bg)" points="279.1,427.96 254.45,386.33 228.19,403.97 228.19,369.85 254.45,352.22 279.1,392.69 279.1,427.96" />
    <g style="opacity:0.6000000000000001"><polygon style="fill:url(#bh)" points="279.1,278.78 254.45,237.15 228.19,254.78 228.19,220.67 254.45,203.03 279.1,243.51 279.1,278.78" /></g>
    <polygon style="fill:url(#bi)" points="279.1,529.18 254.45,487.55 228.19,505.19 228.19,471.07 254.45,453.44 279.1,493.91 279.1,529.18" />
    <polygon style="fill:url(#bj)" points="239.28,614.75 254.45,604.76 271.4,632.75 239.28,614.75" />
    <polygon style="opacity:0.6000000000000001;fill:url(#bk)" points="279.1,578.91 254.45,537.28 228.19,554.91 228.19,520.8 254.45,503.16 279.1,543.64 279.1,578.91" />
    <polygon style="opacity:0.2;fill:url(#bl)" points="279.1,629.22 254.45,587.58 228.19,605.22 228.19,571.1 254.45,553.47 279.1,593.94 279.1,629.22" />
    <g style="opacity:0.2"><polygon style="fill:url(#bm)" points="279.1,480.03 254.45,438.4 228.19,456.04 228.19,421.92 254.45,404.28 279.1,444.76 279.1,480.03" /></g>
    <polygon style="opacity:0.1;fill:url(#bn)" points="279.1,128.68 254.45,87.05 228.19,104.68 228.19,70.57 254.45,52.93 279.1,93.41 279.1,128.68" />
    <polygon style="opacity:0.2;fill:url(#bo)" points="279.1,178.41 254.45,136.78 228.19,154.41 228.19,120.3 254.45,102.66 279.1,143.13 279.1,178.41" />
    <polygon style="fill:url(#bp)" points="279.1,228.71 254.45,187.08 228.19,204.72 228.19,170.6 254.45,152.97 279.1,193.44 279.1,228.71" />
    <g style="opacity:0.05"><polygon style="fill:url(#bq)" points="279.1,79.53 254.45,37.9 228.19,55.53 228.19,21.42 254.45,3.78 279.1,44.26 279.1,79.53" /></g>
</svg>