<svg xmlns="http://www.w3.org/2000/svg" xmlns:xlink="http://www.w3.org/1999/xlink" viewBox="0 0 567.55723 552.2502"><defs><linearGradient id="a" x1="447.0315" y1="230.24828" x2="533.4837" y2="230.24828" gradientUnits="userSpaceOnUse"><stop offset="0" stop-color="#e8e8e8"/><stop offset="0.55232" stop-color="#e2e2e2"/><stop offset="1" stop-color="#d8d8d8"/></linearGradient><linearGradient id="b" x1="447.0306" y1="257.7931" x2="533.48465" y2="257.7931" xlink:href="#a"/><linearGradient id="c" x1="447.03031" y1="199.08031" x2="533.48322" y2="199.08031" xlink:href="#a"/><linearGradient id="d" x1="447.03041" y1="182.505" x2="533.48326" y2="182.505" xlink:href="#a"/><linearGradient id="e" x1="447.03164" y1="273.96245" x2="533.48516" y2="273.96245" xlink:href="#a"/><linearGradient id="f" x1="447.03056" y1="305.53631" x2="533.48475" y2="305.53631" xlink:href="#a"/><linearGradient id="g" x1="671.5468" y1="135.27029" x2="445.3566" y2="94.21145" gradientUnits="userSpaceOnUse"><stop offset="0" stop-color="#414395"/><stop offset="1" stop-color="#8988c2"/></linearGradient><linearGradient id="h" x1="670.75399" y1="142.20428" x2="444.2921" y2="101.09611" xlink:href="#g"/><linearGradient id="i" x1="669.24658" y1="149.0131" x2="443.23227" y2="107.98618" xlink:href="#g"/><linearGradient id="j" x1="668.61625" y1="155.9784" x2="442.16799" y2="114.87271" xlink:href="#g"/><linearGradient id="k" x1="667.20581" y1="162.80567" x2="441.10728" y2="121.76346" xlink:href="#g"/><linearGradient id="l" x1="679.68687" y1="130.34578" x2="446.22158" y2="87.96633" xlink:href="#g"/><linearGradient id="m" x1="679.04605" y1="152.47935" x2="442.46051" y2="109.5335" xlink:href="#g"/><linearGradient id="n" x1="680.15234" y1="145.0727" x2="443.73639" y2="102.15764" xlink:href="#g"/><linearGradient id="o" x1="681.58087" y1="137.72366" x2="444.99329" y2="94.77745" xlink:href="#g"/><linearGradient id="p" x1="674.84735" y1="158.72938" x2="441.59444" y2="116.38849" xlink:href="#g"/><linearGradient id="q" x1="670.5623" y1="153.96322" x2="442.7399" y2="112.60809" xlink:href="#g"/><linearGradient id="r" x1="675.38093" y1="150.80483" x2="442.77546" y2="108.58146" xlink:href="#g"/><linearGradient id="s" x1="676.61872" y1="157.33186" x2="441.36819" y2="114.62835" xlink:href="#g"/><linearGradient id="t" x1="673.30988" y1="163.04024" x2="440.77054" y2="120.82888" xlink:href="#g"/><linearGradient id="u" x1="672.52168" y1="144.07144" x2="444.45796" y2="102.6725" xlink:href="#g"/><linearGradient id="v" x1="671.83324" y1="148.79995" x2="443.6971" y2="107.38787" xlink:href="#g"/><linearGradient id="w" x1="671.10022" y1="153.5292" x2="442.94723" y2="112.11406" xlink:href="#g"/><linearGradient id="x" x1="670.17313" y1="158.21114" x2="442.24573" y2="116.83695" xlink:href="#g"/><linearGradient id="y" x1="677.17763" y1="140.70544" x2="443.89603" y2="98.35934" xlink:href="#g"/><linearGradient id="z" x1="673.32303" y1="179.41442" x2="436.47976" y2="136.42179" xlink:href="#g"/><linearGradient id="aa" x1="674.67798" y1="171.64324" x2="437.80794" y2="128.64575" xlink:href="#g"/><linearGradient id="ab" x1="676.06079" y1="163.87456" x2="439.12636" y2="120.86538" xlink:href="#g"/><linearGradient id="ac" x1="677.23322" y1="156.07057" x2="440.52977" y2="113.10332" xlink:href="#g"/><linearGradient id="ad" x1="678.77644" y1="148.34206" x2="441.79122" y2="105.32366" xlink:href="#g"/><linearGradient id="ae" x1="669.85707" y1="186.11805" x2="436.48079" y2="143.75476" xlink:href="#g"/><linearGradient id="af" x1="668.49597" y1="178.29364" x2="439.04052" y2="136.64208" xlink:href="#g"/><linearGradient id="ag" x1="668.05965" y1="180.93607" x2="438.64235" y2="139.29143" xlink:href="#g"/><linearGradient id="ah" x1="667.79018" y1="183.60709" x2="438.14006" y2="141.92018" xlink:href="#g"/><linearGradient id="ai" x1="671.33473" y1="176.66695" x2="437.55736" y2="134.23085" xlink:href="#g"/><linearGradient id="aj" x1="668.97801" y1="204.98354" x2="431.1374" y2="161.80987" xlink:href="#g"/><linearGradient id="ak" x1="670.15002" y1="197.90937" x2="432.3446" y2="154.74209" xlink:href="#g"/><linearGradient id="al" x1="671.3516" y1="190.84958" x2="433.51977" y2="147.6775" xlink:href="#g"/><linearGradient id="am" x1="672.47462" y1="183.7725" x2="434.76162" y2="140.622" xlink:href="#g"/><linearGradient id="an" x1="666.29263" y1="210.98143" x2="431.61486" y2="168.38189" xlink:href="#g"/><linearGradient id="ao" x1="669.41555" y1="162.00191" x2="441.32036" y2="120.59727" xlink:href="#g"/><linearGradient id="ap" x1="668.62091" y1="166.75317" x2="440.57018" y2="125.35659" xlink:href="#g"/><linearGradient id="aq" x1="674.26404" y1="158.55419" x2="441.8234" y2="116.36074" xlink:href="#g"/><linearGradient id="ar" x1="674.67274" y1="170.1734" x2="439.7379" y2="127.5272" xlink:href="#g"/><linearGradient id="as" x1="675.6061" y1="164.26401" x2="440.7856" y2="121.63856" xlink:href="#g"/><linearGradient id="at" x1="671.47224" y1="175.06477" x2="439.09252" y2="132.88238" xlink:href="#g"/><linearGradient id="au" x1="670.25975" y1="167.19423" x2="440.56068" y2="125.49844" xlink:href="#g"/><linearGradient id="av" x1="669.73318" y1="171.05841" x2="439.95895" y2="129.34897" xlink:href="#g"/><linearGradient id="aw" x1="673.80653" y1="164.24056" x2="440.59331" y2="121.90687" xlink:href="#g"/><linearGradient id="ax" x1="675.64802" y1="172.40861" x2="438.72975" y2="129.40236" xlink:href="#g"/><linearGradient id="ay" x1="671.37081" y1="179.45697" x2="438.09849" y2="137.11256" xlink:href="#g"/><linearGradient id="az" x1="670.05993" y1="159.12936" x2="442.2244" y2="117.77184" xlink:href="#g"/><linearGradient id="ba" x1="669.3238" y1="164.19433" x2="441.40751" y2="122.82216" xlink:href="#g"/><linearGradient id="bb" x1="668.52996" y1="169.24698" x2="440.60872" y2="127.87391" xlink:href="#g"/><linearGradient id="bc" x1="667.68755" y1="174.29166" x2="439.82253" y2="132.92879" xlink:href="#g"/><linearGradient id="bd" x1="674.94629" y1="155.50704" x2="441.56408" y2="113.14267" xlink:href="#g"/><linearGradient id="be" x1="671.37254" y1="192.21376" x2="434.51396" y2="149.21835" xlink:href="#g"/><linearGradient id="bf" x1="672.67779" y1="184.87656" x2="435.7421" y2="141.86715" xlink:href="#g"/><linearGradient id="bg" x1="673.85068" y1="177.50925" x2="437.03365" y2="134.52139" xlink:href="#g"/><linearGradient id="bh" x1="675.09994" y1="170.17405" x2="438.28461" y2="127.18649" xlink:href="#g"/><linearGradient id="bi" x1="676.36306" y1="162.82299" x2="439.53612" y2="119.83332" xlink:href="#g"/><linearGradient id="bj" x1="668.75851" y1="198.91005" x2="434.09785" y2="156.31361" xlink:href="#g"/><linearGradient id="bk" x1="666.45309" y1="203.05914" x2="434.06701" y2="160.8756" xlink:href="#g"/><linearGradient id="bl" x1="666.68619" y1="201.76219" x2="434.33124" y2="159.5843" xlink:href="#g"/><linearGradient id="bm" x1="667.0513" y1="200.47389" x2="434.51709" y2="158.26345" xlink:href="#g"/><linearGradient id="bn" x1="667.02358" y1="205.01202" x2="433.01297" y2="162.53358" xlink:href="#g"/><linearGradient id="bo" x1="666.83564" y1="211.01224" x2="431.33962" y2="168.26417" xlink:href="#g"/><linearGradient id="bp" x1="668.42162" y1="193.54384" x2="435.91262" y2="151.33799" xlink:href="#g"/><linearGradient id="bq" x1="469.14048" y1="460.32966" x2="364.01807" y2="435.23283" gradientUnits="userSpaceOnUse"><stop offset="0" stop-color="#5666ad"/><stop offset="1" stop-color="#514797"/></linearGradient><radialGradient id="br" cx="350.40236" cy="410.61069" r="194.99829" gradientTransform="translate(4.07888 4.21419) scale(0.9847)" gradientUnits="userSpaceOnUse"><stop offset="0" stop-color="#5165ac"/><stop offset="1" stop-color="#514797"/></radialGradient><linearGradient id="bs" x1="274.72636" y1="294.31627" x2="293.15296" y2="294.31627" gradientUnits="userSpaceOnUse"><stop offset="0" stop-color="#cccdce"/><stop offset="0.47752" stop-color="#c6c7c8"/><stop offset="1" stop-color="#bababa"/></linearGradient><linearGradient id="bt" x1="265.62325" y1="285.65954" x2="302.20276" y2="285.65954" xlink:href="#bs"/><linearGradient id="bu" x1="265.61797" y1="278.63969" x2="302.17435" y2="278.63969" xlink:href="#bs"/><linearGradient id="bv" x1="265.55759" y1="271.60736" x2="302.25233" y2="271.60736" xlink:href="#bs"/><linearGradient id="bw" x1="391.74824" y1="247.08204" x2="430.42615" y2="247.08204" gradientTransform="matrix(-0.92202, 0, 0, 1, 400.25244, 0)" gradientUnits="userSpaceOnUse"><stop offset="0" stop-color="#cac9c9"/><stop offset="0.43582" stop-color="#c4c3c3"/><stop offset="1" stop-color="#b3b2b2"/></linearGradient><linearGradient id="bx" x1="250.58004" y1="430.81103" x2="528.80227" y2="92.14716" xlink:href="#bw"/><linearGradient id="by" x1="232.30562" y1="319.25062" x2="420.92147" y2="442.57538" gradientTransform="matrix(-0.92202, 0, 0, 1, 400.25244, 0)" gradientUnits="userSpaceOnUse"><stop offset="0" stop-color="#6c71b4"/><stop offset="1" stop-color="#494e9c"/></linearGradient><linearGradient id="bz" x1="229.40077" y1="389.08473" x2="418.66948" y2="389.08473" gradientTransform="matrix(-0.92202, 0, 0, 1, 400.25244, 0)" gradientUnits="userSpaceOnUse"><stop offset="0" stop-color="#fdfdfd"/><stop offset="0.25556" stop-color="#f7f7f7"/><stop offset="0.61264" stop-color="#e8e4e5"/><stop offset="1" stop-color="#d0c9cb"/></linearGradient><clipPath id="ca"><polygon points="29.728 386.282 30.038 276.807 159.676 351.654 159.366 461.128 29.728 386.282" style="fill:none"/></clipPath></defs><title>Restore</title><path d="M565.543,389.82189V101.72517c-.03187-3.35006-.78114-5.34338-3.02168-6.964L427.98515,3.7883c1.61687,1.10118,2.71064,21.41508,2.73362,24.75678l.03.021,1.67676,270.12154Z" style="fill:#fff"/><path d="M429.40588.86534c-2.01258-1.3694-4.77968-1.15585-7.81.94423a22.85085,22.85085,0,0,0-6.20042,6.95355,33.39794,33.39794,0,0,0-4.14531,10.57568,24.55266,24.55266,0,0,0-.50355,5.01876s.06713,8.842.06713,9.20221a.63315.63315,0,0,0,.235.51929L545.053,125.21739l-.24029-.423-.06351-9.29205a25.29762,25.29762,0,0,1,.507-5.01683,33.57922,33.57922,0,0,1,4.14712-10.5819,22.30567,22.30567,0,0,1,6.20039-6.94733c3.12409-2.09794,5.19132-2.02675,7.87374-1.11382Z" style="fill:#e5e4e4"/><path d="M555.60368,92.95626c6.02889-4.18323,11.89712-.87927,11.95355,7.37013V388.43577l-2.01419,1.38612V101.72517c-.05847-6.74622-4.99882-9.43056-9.92344-6.02175-4.93345,3.42124-8.90038,11.66228-8.85259,18.40013l.06367,9.13318a2.49476,2.49476,0,0,1-1.002,2.07692c-.45054.31-1.01416-.07118-1.01778-.68673l-.0617-9.1246C544.69253,107.24006,549.55528,97.13564,555.60368,92.95626Z" style="fill:#d7d7d7"/><path d="M525.40589,251.075c1.61506,1.09282,2.91565,4.1708,2.92271,6.8382.00343,2.70105-1.28811,3.995-2.90317,2.91053l-44.29655-29.91619L449.295,209.40432c-1.58844-1.13055-2.89086-4.17916-2.8961-6.85084-.00525-2.6466,1.28629-3.94889,2.87493-2.902l31.83384,21.49913Z" style="fill:url(#a)"/><path d="M532.458,280.9157c1.75276,1.17665,3.1753,4.32152,3.18417,7.00157.00524,2.69248-1.41006,3.91523-3.15594,2.72614L484.26365,258.0892,449.60427,234.668c-1.737-1.22275-3.14526-4.34661-3.15232-7.0183-.00525-2.6466,1.39775-3.8777,3.13115-2.7345l34.6592,23.41268Z" style="fill:url(#b)"/><path d="M508.02943,214.28715c1.24757.83339,2.26879,3.71862,2.27766,6.39009.00524,2.697-1.0089,4.19181-2.25812,3.346L473.462,200.665l-24.84725-16.784c-1.251-.89192-2.26515-3.75207-2.27239-6.41946-.00527-2.65068,1.002-4.14979,2.253-3.3417l24.84906,16.788Z" style="fill:url(#c)"/><path d="M532.29894,205.62717c1.74931,1.17665,3.17529,4.32581,3.1771,6.99749.00525,2.70106-1.40842,3.91116-3.15412,2.73451L484.1028,182.7966,449.45047,159.388c-1.74387-1.227-3.15232-4.355-3.15756-7.02258-.00887-2.65067,1.39413-3.87771,3.12933-2.73858l34.65939,23.41268Z" style="fill:url(#d)"/><path d="M507.02051,288.77982c1.24215.83338,2.24057,3.70189,2.24762,6.37358.00525,2.70084-.9843,4.2126-2.21939,3.36678l-33.93129-22.91033-24.38784-16.478c-1.21211-.86684-2.21578-3.71433-2.22121-6.386-.00866-2.65067.98431-4.15407,2.19823-3.36678l24.38965,16.478Z" style="fill:url(#e)"/><path d="M525.56494,326.37166c1.61687,1.093,2.9227,4.15836,2.928,6.82576,0,2.70513-1.28991,4.00763-2.90839,2.91032l-44.293-29.90762-31.83221-21.51156c-1.58666-1.12647-2.8943-4.17487-2.89955-6.84248-.00543-2.655,1.28629-3.953,2.88021-2.91032l31.83038,21.5032Z" style="fill:url(#f)"/><path d="M447.65519,93.27873a.4479.4479,0,0,1,.767-.28044,1.65322,1.65322,0,0,1,.38685,1.474l-.35516,1.64984a.45433.45433,0,0,1-.77209.28473,1.66692,1.66692,0,0,1-.387-1.48646Z" style="fill:url(#g)"/><path d="M446.194,103.21591a1.68824,1.68824,0,0,1-.38524-1.49074l.35519-1.63741a.45143.45143,0,0,1,.77043-.28472,1.68158,1.68158,0,0,1,.387,1.49911l-.357,1.63311A.45245.45245,0,0,1,446.194,103.21591Z" style="fill:url(#h)"/><path d="M444.70788,110.025a1.66134,1.66134,0,0,1-.38685-1.48668l.36043-1.64147a.44767.44767,0,0,1,.76682-.27637,1.6615,1.6615,0,0,1,.38341,1.48239l-.35518,1.6374A.45121.45121,0,0,1,444.70788,110.025Z" style="fill:url(#i)"/><path d="M443.22183,116.8297a1.6655,1.6655,0,0,1-.38341-1.48668l.36043-1.63311a.44914.44914,0,0,1,.76863-.27637,1.64389,1.64389,0,0,1,.38359,1.47l-.36224,1.64984A.448.448,0,0,1,443.22183,116.8297Z" style="fill:url(#j)"/><path d="M441.7394,123.65117a1.67621,1.67621,0,0,1-.38522-1.48646l.35337-1.64577a.45136.45136,0,0,1,.77044-.28065,1.68135,1.68135,0,0,1,.38522,1.495l-.357,1.64147A.44767.44767,0,0,1,441.7394,123.65117Z" style="fill:url(#k)"/><path d="M448.90985,87.49154a.467.467,0,0,1,.90811-.113l.82166,1.94722a.5696.5696,0,0,1-.2385.73283l-.15723.07118a.33206.33206,0,0,1-.44005-.20518h0a.13639.13639,0,0,1-.23323.08361l-.40639-.4228a1.6498,1.6498,0,0,1-.38684-1.48239Z" style="fill:url(#l)"/><path d="M459.1459,110.65723a.52435.52435,0,0,1,.68919.31817l1.297,3.06533a.57488.57488,0,0,1-.23863.73712.5038.5038,0,0,1-.68017-.30166l-1.30765-3.08613A.56671.56671,0,0,1,459.1459,110.65723Z" style="fill:url(#m)"/><path d="M455.407,103.14473a.56442.56442,0,0,1,.24209-.72876.5171.5171,0,0,1,.68377.31839l1.30059,3.06105a.57913.57913,0,0,1-.23685.74119.50176.50176,0,0,1-.67671-.30574Z" style="fill:url(#n)"/><path d="M451.919,94.92042a.57933.57933,0,0,1,.23667-.74141.51011.51011,0,0,1,.68214.31l1.29878,3.06533a.58106.58106,0,0,1-.23685.7369.50651.50651,0,0,1-.68033-.30145Z" style="fill:url(#o)"/><path d="M463.54923,119.72329a.46879.46879,0,0,1,.75107.15909l.14656.27636a1.24218,1.24218,0,0,1-.22436,1.45731.6726.6726,0,0,1-1.099-.27637l-.72283-1.71266a.56962.56962,0,0,1,.23863-.72876.511.511,0,0,1,.682.30574l.228.51929Z" style="fill:url(#p)"/><path d="M467.80762,115.91269a.70961.70961,0,0,1,1.12743.247,1.22787,1.22787,0,0,1-.22979,1.453l-.894.79565a.71242.71242,0,0,1-1.12743-.25128,1.22421,1.22421,0,0,1,.22979-1.44873Z" style="fill:url(#q)"/><path d="M471.35746,112.74273a.71183.71183,0,0,1,1.10789.19254l.813,1.31065a.87487.87487,0,0,1-.0266.94638.36753.36753,0,0,1-.63256-.0208l-.42412-.6743h0a.599.599,0,0,1-.95409-.20926l-.09717-.18439A1.15609,1.15609,0,0,1,471.35746,112.74273Z" style="fill:url(#r)"/><path d="M475.70958,119.12039a.36432.36432,0,0,1,.63076.02079l1.84666,2.95234a.88123.88123,0,0,1-.02658.95474.37216.37216,0,0,1-.64145-.02508l-1.8358-2.95641A.874.874,0,0,1,475.70958,119.12039Z" style="fill:url(#s)"/><path d="M481.62375,127.60006a.50656.50656,0,0,1,.864.05874l.09192.15073a1.38948,1.38948,0,0,1-.08486,1.53256.63.63,0,0,1-1.069-.07526l-.8305-1.33166a.87445.87445,0,0,1,.02478-.9423.36753.36753,0,0,1,.6344.021l.36927.58618Z" style="fill:url(#t)"/><path d="M494.78072,110.7074a.62219.62219,0,0,1,1.05831.07547,1.39555,1.39555,0,0,1-.0778,1.53256l-.52472.6743a.62058.62058,0,0,1-1.05669-.07547,1.40268,1.40268,0,0,1,.08124-1.54092Z" style="fill:url(#u)"/><path d="M490.8614,117.16888a1.392,1.392,0,0,1,.07781-1.52848l.53015-.68245a.61579.61579,0,0,1,1.05125.07526,1.399,1.399,0,0,1-.08124,1.53684l-.52128.67A.62035.62035,0,0,1,490.8614,117.16888Z" style="fill:url(#v)"/><path d="M487.55185,121.42351a1.39976,1.39976,0,0,1,.08305-1.54113l.52129-.66573a.61813.61813,0,0,1,1.05324.08362,1.39652,1.39652,0,0,1-.08305,1.53277l-.51785.66573A.61725.61725,0,0,1,487.55185,121.42351Z" style="fill:url(#w)"/><path d="M484.23886,125.67814a1.39534,1.39534,0,0,1,.076-1.53277l.51947-.67837a.61733.61733,0,0,1,1.05487.07547,1.41374,1.41374,0,0,1-.08124,1.5452l-.51784.66573A.61593.61593,0,0,1,484.23886,125.67814Z" style="fill:url(#x)"/><path d="M497.63431,107.03487a.59415.59415,0,0,1,1.04257.18439l.73678,1.77977a.55833.55833,0,0,1-.24915.72425.53131.53131,0,0,1-.69083-.33489l-.15379-.37264h0a.37178.37178,0,0,1-.63435-.0461l-.19435-.31838A1.47151,1.47151,0,0,1,497.63431,107.03487Z" style="fill:url(#y)"/><path d="M515.33592,148.73062a.52378.52378,0,0,1,.6892.32675l1.36047,3.29132a.55421.55421,0,0,1-.24732.72018.51748.51748,0,0,1-.68214-.32225l-1.36936-3.28317A.56874.56874,0,0,1,515.33592,148.73062Z" style="fill:url(#z)"/><path d="M511.49622,140.78267a.56088.56088,0,0,1,.251-.72447.53166.53166,0,0,1,.68738.3349l1.357,3.27052a.56547.56547,0,0,1-.24916.73283.52432.52432,0,0,1-.69082-.32654Z" style="fill:url(#aa)"/><path d="M507.904,132.11862a.56236.56236,0,0,1,.24553-.72876.51452.51452,0,0,1,.68033.31839l1.36937,3.29967a.55912.55912,0,0,1-.25081.72447.5316.5316,0,0,1-.68738-.3349Z" style="fill:url(#ab)"/><path d="M504.303,123.44191a.55869.55869,0,0,1,.249-.72447.52564.52564,0,0,1,.68739.33082l1.35885,3.27888a.56624.56624,0,0,1-.24388.72855.51689.51689,0,0,1-.68379-.31818Z" style="fill:url(#ac)"/><path d="M500.71063,114.77785a.5575.5575,0,0,1,.251-.72447.534.534,0,0,1,.689.3349l1.357,3.2748a.57079.57079,0,0,1-.24553.73284.51659.51659,0,0,1-.68377-.32247Z" style="fill:url(#ad)"/><path d="M518.93534,157.403a.51973.51973,0,0,1,.68015.32675l.26507.64064h0a.65961.65961,0,0,1,.88877.38936l.099.23048a.98167.98167,0,0,1-.38522,1.25619.82571.82571,0,0,1-1.13087-.50256l-.666-1.61639A.56195.56195,0,0,1,518.93534,157.403Z" style="fill:url(#ae)"/><path d="M531.74943,152.49534a.85529.85529,0,0,1,1.16452.51071,1.00928,1.00928,0,0,1-.39768,1.28149l-.43989.21783a.86366.86366,0,0,1-1.17158-.50685,1.008,1.008,0,0,1,.39934-1.28556Z" style="fill:url(#af)"/><path d="M526.89013,155.99183a1.00057,1.00057,0,0,1,.39228-1.2772l.456-.226a.85583.85583,0,0,1,1.15731.50664.99972.99972,0,0,1-.39212,1.27291l-.44529.22191A.85292.85292,0,0,1,526.89013,155.99183Z" style="fill:url(#ag)"/><path d="M522.87383,157.98107a1.008,1.008,0,0,1,.39933-1.28556l.44529-.21784a.85527.85527,0,0,1,1.16453.51093,1.006,1.006,0,0,1-.39933,1.28127l-.43643.21784A.85945.85945,0,0,1,522.87383,157.98107Z" style="fill:url(#ah)"/><path d="M535.37164,150.69885a.80145.80145,0,0,1,1.10626.61555l.44692,1.72531a.4399.4399,0,0,1-.38685.58618.82816.82816,0,0,1-.70674-.66165l-.07254-.28473h0a.498.498,0,0,1-.67148-.29309l-.16611-.381A1.03168,1.03168,0,0,1,535.37164,150.69885Z" style="fill:url(#ai)"/><path d="M543.46811,180.38026a.84178.84178,0,0,1,.70856.67l.66423,2.57541a.4306.4306,0,0,1-.385.57375.82912.82912,0,0,1-.70329-.65758l-.66968-2.58356A.43354.43354,0,0,1,543.46811,180.38026Z" style="fill:url(#aj)"/><path d="M541.48557,172.72969a.85019.85019,0,0,1,.71018.67l.668,2.57949a.43293.43293,0,0,1-.387.57782.84221.84221,0,0,1-.71037-.67l-.66784-2.5752A.43864.43864,0,0,1,541.48557,172.72969Z" style="fill:url(#ak)"/><path d="M539.50646,165.09563a.84285.84285,0,0,1,.70333.66165l.67144,2.57113a.43875.43875,0,0,1-.38884.5864.831.831,0,0,1-.70855-.66165l-.66441-2.58807A.426.426,0,0,1,539.50646,165.09563Z" style="fill:url(#al)"/><path d="M537.52916,157.45343a.82756.82756,0,0,1,.70855.65736l.66984,2.59214a.43372.43372,0,0,1-.387.57782.84256.84256,0,0,1-.71217-.66573l-.666-2.57949A.43479.43479,0,0,1,537.52916,157.45343Z" style="fill:url(#am)"/><path d="M545.44,188.02269a.84584.84584,0,0,1,.71562.67l.23325.896a.43469.43469,0,0,1-.38868.578.84254.84254,0,0,1-.71217-.66594l-.235-.90028A.43371.43371,0,0,1,545.44,188.02269Z" style="fill:url(#an)"/><path d="M447.21171,120.55239a.62147.62147,0,0,1,1.05669.08791,1.39258,1.39258,0,0,1-.09011,1.52848l-.54065.68266a.62539.62539,0,0,1-1.06372-.07954,1.38592,1.38592,0,0,1,.08828-1.53277Z" style="fill:url(#ao)"/><path d="M443.1936,127.05569a1.40062,1.40062,0,0,1,.09373-1.54521l.53884-.67838a.621.621,0,0,1,1.05849.08384,1.39263,1.39263,0,0,1-.08124,1.53255l-.54427.691A.62558.62558,0,0,1,443.1936,127.05569Z" style="fill:url(#ap)"/><path d="M450.01409,116.99715a.66751.66751,0,0,1,1.08853.01265l.80048,1.04264a1.11619,1.11619,0,0,1,.13081,1.08038.34564.34564,0,0,1-.61139.10463l-.4594-.6029h0a.56568.56568,0,0,1-.96658-.06711A1.41993,1.41993,0,0,1,450.01409,116.99715Z" style="fill:url(#aq)"/><path d="M460.14776,129.71065a.34852.34852,0,0,1,.61682-.10056l1.96662,2.563a1.10207,1.10207,0,0,1,.1236,1.072.34816.34816,0,0,1-.61666.10035l-1.97024-2.57521A1.08058,1.08058,0,0,1,460.14776,129.71065Z" style="fill:url(#ar)"/><path d="M454.86273,123.72664a1.10769,1.10769,0,0,1-.12722-1.07631.34973.34973,0,0,1,.61845-.10034l1.96844,2.5752a1.08849,1.08849,0,0,1,.11833,1.05959.348.348,0,0,1-.61481.10055Z" style="fill:url(#as)"/><path d="M466.61668,137.23987a.54426.54426,0,0,1,.94179.02937,1.48849,1.48849,0,0,1,.01773,1.608.64729.64729,0,0,1-1.07785.021l-.811-1.0553a1.107,1.107,0,0,1-.12557-1.0763.351.351,0,0,1,.61845-.10034l.43642.57353Z" style="fill:url(#at)"/><path d="M471.51488,130.2801a.60179.60179,0,0,1,1.03895.03367,1.44787,1.44787,0,0,1-.03366,1.55764l-.16427.23456a.60028.60028,0,0,1-1.039-.03345,1.45918,1.45918,0,0,1,.04053-1.56622Z" style="fill:url(#au)"/><path d="M468.83789,135.58167a1.45549,1.45549,0,0,1,.046-1.56622l.16429-.23027a.596.596,0,0,1,1.02827.04181,1.44083,1.44083,0,0,1-.03347,1.54949l-.16972.23863A.59865.59865,0,0,1,468.83789,135.58167Z" style="fill:url(#av)"/><path d="M473.90544,126.90089a.57514.57514,0,0,1,1.03208.14236l.74908,1.77548a.57853.57853,0,0,1-.24026.74119.51529.51529,0,0,1-.68379-.3141l-.14672-.35591h0a.36439.36439,0,0,1-.63258-.021l-.18908-.30981A1.545,1.545,0,0,1,473.90544,126.90089Z" style="fill:url(#aw)"/><path d="M477.443,134.25837a.50737.50737,0,0,1,.67852.30574l1.55137,3.66823a.56988.56988,0,0,1-.24029.73283.51267.51267,0,0,1-.68015-.3141l-1.54612-3.65151A.57914.57914,0,0,1,477.443,134.25837Z" style="fill:url(#ax)"/><path d="M482.27224,144.34628a.3616.3616,0,0,1,.62369.02937l.19795.31818a1.428,1.428,0,0,1-.053,1.54949.60728.60728,0,0,1-1.09559-.06282l-.75632-1.78405a.5686.5686,0,0,1,.24028-.73283.519.519,0,0,1,.68576.31839l.15724.36427Z" style="fill:url(#ay)"/><path d="M495.445,126.27268a.60554.60554,0,0,1,1.04076.05017,1.42329,1.42329,0,0,1-.05121,1.54521l-.58479.79994a.60717.60717,0,0,1-1.04076-.05038,1.43033,1.43033,0,0,1,.053-1.54928Z" style="fill:url(#az)"/><path d="M491.46574,133.20736a1.43122,1.43122,0,0,1,.05121-1.55786l.57086-.783a.61452.61452,0,0,1,1.05306.0461,1.4309,1.4309,0,0,1-.05118,1.55764l-.57432.78729A.61167.61167,0,0,1,491.46574,133.20736Z" style="fill:url(#ba)"/><path d="M488.1191,137.79689a1.424,1.424,0,0,1,.0512-1.54521l.58317-.79994a.60871.60871,0,0,1,1.04257.05038,1.42712,1.42712,0,0,1-.053,1.54928l-.58316.79566A.60545.60545,0,0,1,488.1191,137.79689Z" style="fill:url(#bb)"/><path d="M484.769,142.3907a1.4127,1.4127,0,0,1,.04578-1.53684l.58841-.81238a.60388.60388,0,0,1,1.04076.05017,1.42336,1.42336,0,0,1-.053,1.54521l-.5848.804A.60406.60406,0,0,1,484.769,142.3907Z" style="fill:url(#bc)"/><path d="M498.30215,122.36153a.57315.57315,0,0,1,1.03027.1801l.69266,1.84666a.51663.51663,0,0,1-.28446.68673.5865.5865,0,0,1-.698-.402l-.09357-.247h0a.32546.32546,0,0,1-.56019-.02508l-.22617-.37285A1.53787,1.53787,0,0,1,498.30215,122.36153Z" style="fill:url(#bd)"/><path d="M513.52472,161.67439a.584.584,0,0,1,.69625.402l1.11314,2.9607a.52317.52317,0,0,1-.28263.68674.57533.57533,0,0,1-.68919-.39794l-1.1202-2.96477A.51857.51857,0,0,1,513.52472,161.67439Z" style="fill:url(#be)"/><path d="M510.17464,154.22472a.52425.52425,0,0,1,.28443-.691.59145.59145,0,0,1,.69789.40629l1.12218,2.97743a.52321.52321,0,0,1-.28625.68673.58583.58583,0,0,1-.69625-.40629Z" style="fill:url(#bf)"/><path d="M507.11768,146.08831a.52143.52143,0,0,1,.2828-.68674.57223.57223,0,0,1,.68723.39772l1.12379,2.9815a.52262.52262,0,0,1-.28444.68695.59066.59066,0,0,1-.69625-.40629Z" style="fill:url(#bg)"/><path d="M504.05384,137.96862a.5208.5208,0,0,1,.28443-.68673.58682.58682,0,0,1,.69789.40608l1.11856,2.96906a.52025.52025,0,0,1-.28625.69081.581.581,0,0,1-.69444-.402Z" style="fill:url(#bh)"/><path d="M500.988,129.83221a.518.518,0,0,1,.28444-.68695.585.585,0,0,1,.69625.402l1.11494,2.97335a.52918.52918,0,0,1-.28262.69081.57428.57428,0,0,1-.6892-.39772Z" style="fill:url(#bi)"/><path d="M516.58168,169.79a.576.576,0,0,1,.69083.39772l.38522,1.01756.30743.14237a1.47709,1.47709,0,0,1,.7934,1.202c.04234.39771-.28806.70774-.60615.56109l-.17316-.07954a2.51359,2.51359,0,0,1-1.251-1.4155l-.42575-1.13891A.52453.52453,0,0,1,516.58168,169.79Z" style="fill:url(#bj)"/><path d="M532.61341,178.04369a1.45809,1.45809,0,0,1,.79161,1.19766c.04252.39772-.28969.70775-.606.5611l-1.03895-.47319a1.47338,1.47338,0,0,1-.79342-1.19766c-.04252-.39772.28969-.70775.606-.5611Z" style="fill:url(#bk)"/><path d="M526.08622,175.89965c-.04234-.39364.28625-.69938.60072-.557l1.04619.47748a1.456,1.456,0,0,1,.79323,1.19766c.04433.402-.28787.70753-.60252.5611l-1.04945-.48584A1.47135,1.47135,0,0,1,526.08622,175.89965Z" style="fill:url(#bl)"/><path d="M521.20413,173.66342c-.046-.39772.28443-.70774.60252-.56538l1.03371.47319a1.48832,1.48832,0,0,1,.80391,1.206c.04415.39793-.288.70775-.60615.56538l-1.03189-.4689A1.49377,1.49377,0,0,1,521.20413,173.66342Z" style="fill:url(#bm)"/><path d="M536.58558,179.861a2.89044,2.89044,0,0,1,1.29876,1.26884l.52309.97168a.7339.7339,0,0,1-.12557.86254.41176.41176,0,0,1-.66079-.13807l-.57771-1.08467-.40822-.18846a1.44719,1.44719,0,0,1-.78455-1.19337A.50181.50181,0,0,1,536.58558,179.861Z" style="fill:url(#bn)"/><path d="M540.14427,186.444a.41516.41516,0,0,1,.66443.13808l1.31992,2.49159a.72306.72306,0,0,1-.12358.85011.40646.40646,0,0,1-.65391-.134l-1.33406-2.48322A.7345.7345,0,0,1,540.14427,186.444Z" style="fill:url(#bo)"/><polygon points="547.958 196.905 439.979 128.53 440.683 126.976 548.654 195.355 547.958 196.905" style="fill:url(#bp)"/><polygon points="397.78 357.638 441.976 372.791 470.382 404.699 470.067 428.377 327.812 512.244 311.713 502.302 300.544 477.86 300.544 452.974 309.074 426.141 340.642 383.839 397.78 357.638" style="fill:url(#bq)"/><polygon points="441.976 372.791 413.717 367.686 362.916 395.63 334.133 443.571 327.539 486.773 327.812 512.244 311.713 502.302 311.439 476.831 318.032 433.628 346.815 385.686 397.78 357.638 441.976 372.791" style="fill:#6d87c4"/><polygon points="300.544 452.974 311.439 476.831 311.713 502.302 300.544 477.86 300.544 452.974" style="fill:#4d53a0"/><polygon points="318.032 433.628 311.439 476.831 300.544 452.974 309.074 426.141 318.032 433.628" style="fill:#6e83c0"/><polygon points="346.815 385.686 318.032 433.628 309.074 426.141 340.642 383.839 346.815 385.686" style="fill:#7088c4"/><polygon points="340.642 383.839 346.815 385.686 397.78 357.638 340.642 383.839" style="fill:#6e90ca"/><polygon points="397.78 357.638 413.717 367.686 362.916 395.63 346.815 385.686 397.78 357.638" style="fill:#5874b7"/><polygon points="346.815 385.686 318.032 433.628 334.133 443.571 362.916 395.63 346.815 385.686" style="fill:#6482c1"/><polygon points="318.032 433.628 311.439 476.831 327.539 486.773 334.133 443.571 318.032 433.628" style="fill:#4f5aa5"/><polygon points="311.439 476.831 311.713 502.302 327.812 512.244 327.539 486.773 311.439 476.831" style="fill:#5057a3"/><polygon points="327.539 486.773 311.713 502.302 327.812 512.244 327.539 486.773" style="fill:#504f9d"/><polygon points="318.032 433.628 327.539 486.773 334.133 443.571 318.032 433.628" style="fill:#6e83c0"/><polygon points="362.916 395.63 318.032 433.628 334.133 443.571 362.916 395.63" style="fill:#6f8fc9"/><polygon points="397.78 357.638 362.916 395.63 413.717 367.686 397.78 357.638" style="fill:#6481c0"/><polygon points="340.642 383.839 318.032 433.628 346.815 385.686 340.642 383.839" style="fill:#6590cb"/><polygon points="318.032 433.628 300.544 452.974 311.439 476.831 318.032 433.628" style="fill:#5865ac"/><polygon points="300.544 452.974 311.713 502.302 311.439 476.831 300.544 452.974" style="fill:#4e55a1"/><polygon points="399.495 415.335 370.712 463.278 405.155 462.21 399.495 415.335" style="fill:#7088c4"/><polygon points="491.178 417.066 503.49 408.544 451.245 386.131 491.178 417.066" style="fill:#4d509e"/><polygon points="364.119 506.479 364.393 531.952 343.915 495.117 364.119 506.479" style="fill:#5662aa"/><polygon points="344.189 520.586 364.393 531.952 343.915 495.117 344.189 520.586" style="fill:#505aa5"/><polygon points="370.712 463.278 343.915 495.117 364.119 506.479 370.712 463.278" style="fill:#6d81bf"/><polygon points="370.712 463.278 350.508 451.914 379.292 403.97 370.712 463.278" style="fill:#688fca"/><polygon points="370.712 463.278 399.495 415.335 379.292 403.97 370.712 463.278" style="fill:#7497cf"/><polygon points="370.712 463.278 350.508 451.914 343.915 495.117 370.712 463.278" style="fill:#7291ca"/><polygon points="399.495 415.335 379.292 403.97 451.245 386.131 399.495 415.335" style="fill:#6f8cc7"/><polygon points="430.094 376.028 379.292 403.97 451.245 386.131 430.094 376.028" style="fill:#7094cd"/><polygon points="451.245 386.131 430.094 376.028 463.872 384.551 503.49 408.544 451.245 386.131" style="fill:#4e57a3"/><polygon points="406.102 506.719 406.55 538.5 364.393 531.952 364.119 506.479 406.102 506.719" style="fill:#4e58a3"/><polygon points="405.155 462.21 406.102 506.719 364.119 506.479 370.712 463.278 405.155 462.21" style="fill:#728bc6"/><polygon points="432.145 452.264 405.155 462.21 399.495 415.335 432.145 452.264" style="fill:#728dc7"/><polygon points="447.456 497.565 491.178 417.066 432.145 452.264 447.456 497.565" style="fill:#4e57a3"/><polygon points="447.456 497.565 491.178 417.066 505.542 462.21 447.456 497.565" style="fill:#4f519e"/><polygon points="491.178 417.066 399.495 415.335 432.145 452.264 491.178 417.066" style="fill:#6474b7"/><polygon points="491.178 417.066 399.495 415.335 451.245 386.131 491.178 417.066" style="fill:#5b69af"/><polygon points="518.643 437.901 491.178 417.066 505.542 462.21 518.643 437.901" style="fill:url(#br)"/><polygon points="506.641 498.548 518.643 437.901 505.542 462.21 506.641 498.548" style="fill:#514797"/><polygon points="506.641 498.548 473.418 497.995 447.456 497.565 448.779 531.952 506.641 498.548" style="fill:#4e4c9b"/><polygon points="448.779 531.952 406.102 506.719 406.55 538.5 448.779 531.952" style="fill:#4e519e"/><polygon points="448.779 531.952 406.102 506.719 447.456 497.565 448.779 531.952" style="fill:#4e509e"/><polygon points="406.102 506.719 432.145 452.264 447.456 497.565 406.102 506.719" style="fill:#4f5aa5"/><polygon points="406.102 506.719 432.145 452.264 405.155 462.21 406.102 506.719" style="fill:#6474b7"/><polygon points="405.155 462.21 364.119 506.479 406.102 506.719 405.155 462.21" style="fill:#5c6bb1"/><polygon points="406.102 506.719 364.393 531.952 406.55 538.5 406.102 506.719" style="fill:#4e54a1"/><polygon points="503.49 408.544 491.178 417.066 518.643 437.901 503.49 408.544" style="fill:#504e9c"/><polygon points="506.641 498.548 447.456 497.565 505.542 462.21 506.641 498.548" style="fill:#4f4b9a"/><g style="opacity:0.58"><polyline points="343.844 502.794 327.812 512.244 311.713 502.302 300.544 477.86 300.544 452.974 309.074 426.141 340.642 383.839 397.78 357.639 441.975 372.792 449.085 380.777" style="fill:none;stroke:#6988c4;stroke-linecap:round;stroke-linejoin:round"/><polygon points="441.975 372.792 413.717 367.686 362.916 395.63 334.133 443.572 327.539 486.775 327.812 512.244 311.713 502.302 311.439 476.831 318.032 433.628 346.816 385.687 397.78 357.639 441.975 372.792" style="fill:none;stroke:#6988c4;stroke-linecap:round;stroke-linejoin:round"/><polygon points="300.544 452.974 311.439 476.831 311.713 502.302 300.544 477.86 300.544 452.974" style="fill:none;stroke:#6988c4;stroke-linecap:round;stroke-linejoin:round"/><polygon points="318.032 433.628 311.439 476.831 300.544 452.974 309.074 426.141 318.032 433.628" style="fill:none;stroke:#6988c4;stroke-linecap:round;stroke-linejoin:round"/><polygon points="346.816 385.687 318.032 433.628 309.074 426.141 340.642 383.839 346.816 385.687" style="fill:none;stroke:#6988c4;stroke-linecap:round;stroke-linejoin:round"/><polygon points="340.642 383.839 346.816 385.687 397.78 357.639 340.642 383.839" style="fill:none;stroke:#6988c4;stroke-linecap:round;stroke-linejoin:round"/><polygon points="397.78 357.639 413.717 367.686 362.916 395.63 346.816 385.687 397.78 357.639" style="fill:none;stroke:#6988c4;stroke-linecap:round;stroke-linejoin:round"/><polygon points="346.816 385.687 318.032 433.628 334.133 443.572 362.916 395.63 346.816 385.687" style="fill:none;stroke:#6988c4;stroke-linecap:round;stroke-linejoin:round"/><polygon points="318.032 433.628 311.439 476.831 327.539 486.775 334.133 443.572 318.032 433.628" style="fill:none;stroke:#6988c4;stroke-linecap:round;stroke-linejoin:round"/><polygon points="311.439 476.831 311.713 502.302 327.812 512.244 327.539 486.775 311.439 476.831" style="fill:none;stroke:#6988c4;stroke-linecap:round;stroke-linejoin:round"/><polygon points="327.539 486.775 311.713 502.302 327.812 512.244 327.539 486.775" style="fill:none;stroke:#6988c4;stroke-linecap:round;stroke-linejoin:round"/><polygon points="318.032 433.628 327.539 486.775 334.133 443.572 318.032 433.628" style="fill:none;stroke:#6988c4;stroke-linecap:round;stroke-linejoin:round"/><polygon points="362.916 395.63 318.032 433.628 334.133 443.572 362.916 395.63" style="fill:none;stroke:#6988c4;stroke-linecap:round;stroke-linejoin:round"/><polygon points="397.78 357.639 362.916 395.63 413.717 367.686 397.78 357.639" style="fill:none;stroke:#6988c4;stroke-linecap:round;stroke-linejoin:round"/><polygon points="340.642 383.839 318.032 433.628 346.816 385.687 340.642 383.839" style="fill:none;stroke:#6988c4;stroke-linecap:round;stroke-linejoin:round"/><polygon points="318.032 433.628 300.544 452.974 311.439 476.831 318.032 433.628" style="fill:none;stroke:#6988c4;stroke-linecap:round;stroke-linejoin:round"/><polygon points="300.544 452.974 311.713 502.302 311.439 476.831 300.544 452.974" style="fill:none;stroke:#6988c4;stroke-linecap:round;stroke-linejoin:round"/><polygon points="399.495 415.337 370.712 463.279 405.155 462.21 399.495 415.337" style="fill:none;stroke:#6988c4;stroke-linecap:round;stroke-linejoin:round"/><polygon points="491.178 417.066 503.489 408.544 451.245 386.131 491.178 417.066" style="fill:none;stroke:#6988c4;stroke-linecap:round;stroke-linejoin:round"/><polygon points="364.119 506.479 364.392 531.952 343.915 495.117 364.119 506.479" style="fill:none;stroke:#6988c4;stroke-linecap:round;stroke-linejoin:round"/><polygon points="344.189 520.586 364.392 531.952 343.915 495.117 344.189 520.586" style="fill:none;stroke:#6988c4;stroke-linecap:round;stroke-linejoin:round"/><polygon points="370.712 463.279 343.915 495.117 364.119 506.479 370.712 463.279" style="fill:none;stroke:#6988c4;stroke-linecap:round;stroke-linejoin:round"/><polygon points="370.712 463.279 350.508 451.914 379.292 403.973 370.712 463.279" style="fill:none;stroke:#6988c4;stroke-linecap:round;stroke-linejoin:round"/><polygon points="370.712 463.279 399.495 415.337 379.292 403.973 370.712 463.279" style="fill:none;stroke:#6988c4;stroke-linecap:round;stroke-linejoin:round"/><polygon points="370.712 463.279 350.508 451.914 343.915 495.117 370.712 463.279" style="fill:none;stroke:#6988c4;stroke-linecap:round;stroke-linejoin:round"/><polygon points="399.495 415.337 379.292 403.973 451.245 386.131 399.495 415.337" style="fill:none;stroke:#6988c4;stroke-linecap:round;stroke-linejoin:round"/><polygon points="430.094 376.029 379.292 403.973 451.245 386.131 430.094 376.029" style="fill:none;stroke:#6988c4;stroke-linecap:round;stroke-linejoin:round"/><polygon points="451.245 386.131 430.094 376.029 463.872 384.552 503.489 408.544 451.245 386.131" style="fill:none;stroke:#6988c4;stroke-linecap:round;stroke-linejoin:round"/><polygon points="406.102 506.721 406.549 538.5 364.392 531.952 364.119 506.479 406.102 506.721" style="fill:none;stroke:#6988c4;stroke-linecap:round;stroke-linejoin:round"/><polygon points="405.155 462.21 406.102 506.721 364.119 506.479 370.712 463.279 405.155 462.21" style="fill:none;stroke:#6988c4;stroke-linecap:round;stroke-linejoin:round"/><polygon points="432.145 452.264 405.155 462.21 399.495 415.337 432.145 452.264" style="fill:none;stroke:#6988c4;stroke-linecap:round;stroke-linejoin:round"/><polygon points="447.456 497.565 491.178 417.066 432.145 452.264 447.456 497.565" style="fill:none;stroke:#6988c4;stroke-linecap:round;stroke-linejoin:round"/><polygon points="447.456 497.565 491.178 417.066 505.541 462.21 447.456 497.565" style="fill:none;stroke:#6988c4;stroke-linecap:round;stroke-linejoin:round"/><polygon points="491.178 417.066 399.495 415.337 432.145 452.264 491.178 417.066" style="fill:none;stroke:#6988c4;stroke-linecap:round;stroke-linejoin:round"/><polygon points="491.178 417.066 399.495 415.337 451.245 386.131 491.178 417.066" style="fill:none;stroke:#6988c4;stroke-linecap:round;stroke-linejoin:round"/><polygon points="518.642 437.901 491.178 417.066 505.541 462.21 518.642 437.901" style="fill:none;stroke:#6988c4;stroke-linecap:round;stroke-linejoin:round"/><polygon points="506.64 498.548 518.642 437.901 505.541 462.21 506.64 498.548" style="fill:none;stroke:#6988c4;stroke-linecap:round;stroke-linejoin:round"/><polygon points="506.64 498.548 473.418 497.995 447.456 497.565 448.779 531.952 506.64 498.548" style="fill:none;stroke:#6988c4;stroke-linecap:round;stroke-linejoin:round"/><polygon points="448.779 531.952 406.102 506.721 406.549 538.5 448.779 531.952" style="fill:none;stroke:#6988c4;stroke-linecap:round;stroke-linejoin:round"/><polygon points="448.779 531.952 406.102 506.721 447.456 497.565 448.779 531.952" style="fill:none;stroke:#6988c4;stroke-linecap:round;stroke-linejoin:round"/><polygon points="406.102 506.721 432.145 452.264 447.456 497.565 406.102 506.721" style="fill:none;stroke:#6988c4;stroke-linecap:round;stroke-linejoin:round"/><polygon points="406.102 506.721 432.145 452.264 405.155 462.21 406.102 506.721" style="fill:none;stroke:#6988c4;stroke-linecap:round;stroke-linejoin:round"/><polygon points="405.155 462.21 364.119 506.479 406.102 506.721 405.155 462.21" style="fill:none;stroke:#6988c4;stroke-linecap:round;stroke-linejoin:round"/><polygon points="406.102 506.721 364.392 531.952 406.549 538.5 406.102 506.721" style="fill:none;stroke:#6988c4;stroke-linecap:round;stroke-linejoin:round"/><polygon points="503.489 408.544 491.178 417.066 518.642 437.901 503.489 408.544" style="fill:none;stroke:#6988c4;stroke-linecap:round;stroke-linejoin:round"/><polygon points="506.64 498.548 447.456 497.565 505.541 462.21 506.64 498.548" style="fill:none;stroke:#6988c4;stroke-linecap:round;stroke-linejoin:round"/><polyline points="379.292 403.973 399.495 415.337 405.155 462.21 432.145 452.264 447.456 497.565 505.541 462.21 491.178 417.066 446.226 415.989" style="fill:none;stroke:#a7b8d3;stroke-linecap:round;stroke-linejoin:round;stroke-width:5px"/><polyline points="406.549 538.5 406.102 506.721 364.119 506.479 370.712 463.279 350.508 451.914" style="fill:none;stroke:#a7b8d3;stroke-linecap:round;stroke-linejoin:round;stroke-width:5px"/><polyline points="399.495 415.337 451.245 386.131 472.008 402.131" style="fill:none;stroke:#a7b8d3;stroke-linecap:round;stroke-linejoin:round;stroke-width:5px"/><line x1="370.7115" y1="463.27949" x2="385.87775" y2="438.0176" style="fill:none;stroke:#a7b8d3;stroke-linecap:round;stroke-linejoin:round;stroke-width:5px"/><line x1="458.84473" y1="436.34661" x2="432.14516" y2="452.26433" style="fill:none;stroke:#a7b8d3;stroke-linecap:round;stroke-linejoin:round;stroke-width:5px"/><line x1="467.49693" y1="459.82314" x2="491.17823" y2="417.0661" style="fill:none;stroke:#a7b8d3;stroke-linecap:round;stroke-linejoin:round;stroke-width:5px"/><line x1="503.48932" y1="408.5438" x2="484.41627" y2="400.19762" style="fill:none;stroke:#a7b8d3;stroke-linecap:round;stroke-linejoin:round;stroke-width:5px"/><line x1="448.77855" y1="531.95234" x2="448.05201" y2="514.82497" style="fill:none;stroke:#a7b8d3;stroke-linecap:round;stroke-linejoin:round;stroke-width:5px"/><polyline points="300.544 452.974 311.439 476.831 318.032 433.628 334.133 443.572" style="fill:none;stroke:#a7b8d3;stroke-linecap:round;stroke-linejoin:round;stroke-width:5px"/><line x1="362.91566" y1="395.62964" x2="346.81595" y2="385.68707" style="fill:none;stroke:#a7b8d3;stroke-linecap:round;stroke-linejoin:round;stroke-width:5px"/><line x1="413.71739" y1="367.6865" x2="397.78014" y2="357.63893" style="fill:none;stroke:#a7b8d3;stroke-linecap:round;stroke-linejoin:round;stroke-width:5px"/><polyline points="365.33 375.597 346.816 385.687 340.642 383.839 309.074 426.141" style="fill:none;stroke:#a7b8d3;stroke-linecap:round;stroke-linejoin:round;stroke-width:5px"/><line x1="311.71304" y1="502.30185" x2="322.7877" y2="491.08463" style="fill:none;stroke:#a7b8d3;stroke-linecap:round;stroke-linejoin:round;stroke-width:5px"/></g><path d="M274.86079,294.07785c-.48355-1.57369.33678-3.27371,2.47262-4.515a14.70029,14.70029,0,0,1,13.02548-.12672c2.25767,1.23362,3.15492,2.96521,2.66347,4.59438A9.54663,9.54663,0,0,1,274.86079,294.07785Z" style="fill:url(#bs)"/><path d="M267.25164,290.58268c.00416.01579.02041.02794.02827.04737.03244.03968.07734.09109.11393.13846a.8772.8772,0,0,0,.07276.09879,13.21134,13.21134,0,0,0,4.3773,3.63768,18.90875,18.90875,0,0,0,4.01974,1.66034c7.5763,2.35266,19.06714,1.12673,24.09389-4.79194.02037-.02348.03243-.04737.05284-.07085.02034-.02389.04071-.03968.06067-.06721a.2422.2422,0,0,1,.057-.07126,8.98072,8.98072,0,0,0,2.02608-4.63,8.25347,8.25347,0,0,0-.77958-4.53081c0-.00809-.01206-.02388-.01206-.03158-4.80763-10.46972-28.29657-10.33126-34.20435-1.0915v.00809A8.21791,8.21791,0,0,0,267.25164,290.58268Z" style="fill:url(#bt)"/><path d="M271.09259,287.064a.59491.59491,0,0,0,.07734.04737c.22327.14251.44654.27287.64154.3834a18.851,18.851,0,0,0,3.56072,1.50649,26.99287,26.99287,0,0,0,6.18386,1.18989,28.70428,28.70428,0,0,0,10.23187-1.01215,20.916,20.916,0,0,0,2.36328-.83807,18.27564,18.27564,0,0,0,2.22527-1.10325,13.12918,13.12918,0,0,0,3.81639-3.18666,10.41984,10.41984,0,0,0,1.076-1.66034,8.16028,8.16028,0,0,0,.88519-4.52717c-.0079-.05911-.01621-.09879-.02411-.15425-.51972-6.13609-8.35211-9.84867-14.71894-10.53653-8.12055-.97653-19.96851,1.96479-21.58467,9.71425-.01622.03968-.02453.083-.03659.11863l-.03243.19757C264.98981,281.31539,267.47907,284.87372,271.09259,287.064Z" style="fill:url(#bu)"/><path d="M265.611,271.7315a8.04739,8.04739,0,0,0,1.09225,4.04052v.0081c7.31689,12.73088,39.61694,8.21586,35.122-6.53973h0a8.01344,8.01344,0,0,0-.89309-2.00852c-5.49366-9.58349-27.82965-9.60737-33.81851-.37936v.01174C265.62761,269.18128,265.43677,271.7315,265.611,271.7315Zm7.0246-8.50857c5.83873-3.4,15.43321-3.49518,21.44244-.20972,6.00133,3.27776,6.13937,8.69441.30061,12.09484-5.83087,3.39193-15.4374,3.48708-21.43458.20527C266.939,272.03191,266.8051,266.61931,272.63558,263.22293Z" style="fill:url(#bv)"/><path d="M246.86857,218.4035c1.16961-6.2786,3.85342-10.97945,7.32891-15.52241a37.11958,37.11958,0,0,1,7.29232-6.80815,36.09623,36.09623,0,0,1,4.77936-2.87047,37.97916,37.97916,0,0,1,13.42712-3.87089,38.63884,38.63884,0,0,1,4.86044-.1502.63026.63026,0,0,1,.08523.00405,37.52071,37.52071,0,0,1,14.5036,3.42391,37.60554,37.60554,0,0,1,4.40929,2.38019,35.80143,35.80143,0,0,1,9.18452,8.2276,39.40547,39.40547,0,0,1,2.79777,4.06846,35.70768,35.70768,0,0,1,4.15362,10.63572,34.338,34.338,0,0,1,.73883,9.18024,35.4884,35.4884,0,0,1-7.26779,19.78479,36.93365,36.93365,0,0,1-5.92815,6.11625,41.04623,41.04623,0,0,1-6.54517,4.28587c-1.53505.82632-2.00987,2.28909-2.00987,5.211,0,5.00935.31266,3.16683-.01247,7.56363a2.46494,2.46494,0,0,1-.13388.82227c-.92178,2.5065-3.78815,4.04052-4.15362,4.25429-5.855,3.40813-14.80418,3.40408-21.25164.40729-1.23444-.57328-3.89-2.15508-4.76689-4.60611-.13013-.35588-.07317-6.694-.07317-8.44137a6.56862,6.56862,0,0,0-3.13039-5.64216,37.02264,37.02264,0,0,1-10.41481-8.42922,35.7223,35.7223,0,0,1-8.47812-20.765A36.25861,36.25861,0,0,1,246.86857,218.4035Z" style="fill:#fff"/><path d="M215.04787,179.127a4.962,4.962,0,0,1,1.888,6.87172,5.24542,5.24542,0,0,1-7.05283,1.84253l-23.8544-13.411a4.96055,4.96055,0,0,1-1.89221-6.87173,5.243,5.243,0,0,1,7.057-1.84252Z" style="fill:#fff"/><path d="M246.27982,152.396a4.95717,4.95717,0,0,1-1.89178,6.86767,5.22535,5.22535,0,0,1-7.04909-1.84252l-13.77638-23.22409a4.96108,4.96108,0,0,1,1.888-6.87173,5.24374,5.24374,0,0,1,7.05658,1.84253Z" style="fill:#fff"/><path d="M287.05388,144.45305a5.16662,5.16662,0,0,1-10.32958,0V117.631a5.16662,5.16662,0,0,1,10.32958,0Z" style="fill:#fff"/><path d="M326.45129,157.42118a5.23691,5.23691,0,0,1-7.057,1.84252,4.95383,4.95383,0,0,1-1.89217-6.86767l13.77259-23.22814a5.2473,5.2473,0,0,1,7.057-1.84253,4.96141,4.96141,0,0,1,1.88805,6.87173Z" style="fill:#fff"/><path d="M353.90715,187.84129a5.25886,5.25886,0,0,1-7.06489-1.84253,4.967,4.967,0,0,1,1.89179-6.87172l23.8586-13.411a5.24387,5.24387,0,0,1,7.057,1.84252,4.96672,4.96672,0,0,1-1.8922,6.87173Z" style="fill:#fff"/><path d="M362.056,227.54447a5.03264,5.03264,0,1,1,0-10.062h27.54526a5.03275,5.03275,0,1,1,0,10.062Z" style="fill:#fff"/><path d="M348.73405,265.89947a4.961,4.961,0,0,1-1.89179-6.86727,5.24721,5.24721,0,0,1,7.06489-1.84253l23.85025,13.41105a4.96535,4.96535,0,0,1,1.8922,6.87132,5.246,5.246,0,0,1-7.057,1.83848Z" style="fill:#fff"/><path d="M209.88308,257.18967a5.2338,5.2338,0,0,1,7.05283,1.84253,4.956,4.956,0,0,1-1.888,6.86727l-23.85441,13.411a5.24411,5.24411,0,0,1-7.057-1.83848,4.95918,4.95918,0,0,1,1.89221-6.87132Z" style="fill:#fff"/><path d="M201.72178,217.48244a5.03286,5.03286,0,1,1,0,10.062H174.17652a5.03264,5.03264,0,1,1,0-10.062Z" style="fill:#fff"/><g style="isolation:isolate"><path d="M7.92986,249.78005c1.68912-1.06534,3.36883-2.12558,5.05325-3.196.15181-.08921.36283-.21409.50476-.30839a6.97979,6.97979,0,0,1,4.82861-.87623c7.85764,1.16983,14.91161-.20389,20.7361-3.87753-3.36883,2.13527-6.73767,4.24607-10.10651,6.37165-5.824,3.66853-12.87846,5.04226-20.7361,3.87752a6.92828,6.92828,0,0,0-4.8192.87113Q5.6629,251.20858,7.92986,249.78005Z" style="fill:url(#bw)"/><path d="M63.99738,217.73783c14.42565,6.9089,34.54655,17.33749,47.8198,25.6456,13.269,8.30811,33.37159,23.06738,47.7695,34.20756,5.25535,4.06715,9.39026,11.59384,11.116,18.90084,5.59938,23.93851,18.28092,48.18592,34.40885,65.91692,4.73178,5.22169,8.1697,12.84778,8.009,19.07007-1.88181,71.631-20.57537,132.809-56.16857,155.24887q-5.06664,3.18072-10.10651,6.37164c35.60213-22.445,54.29146-83.61785,56.178-155.254.16074-6.22739-3.28612-13.84329-8.01837-19.07007-16.12793-17.72591-28.80477-41.97332-34.40884-65.90673-1.71638-7.32229-5.85646-14.849-11.1071-18.91562-14.40215-11.13049-34.51412-25.89486-47.77844-34.20807-13.26855-8.29792-33.38522-18.73161-47.8151-25.64051-2.951-1.40889-5.58574-1.3095-7.61889-.03007q5.05326-3.17307,10.09711-6.36654C58.41634,216.42833,61.04166,216.32384,63.99738,217.73783Z" style="fill:url(#bx)"/><path d="M101.71067,249.74488c-13.26855-8.29792-33.38522-18.73161-47.8151-25.64051-5.19988-2.47933-9.39965-.2936-11.116,4.82359C37.10638,245.8225,24.36562,254.18056,8.21,251.77106c-4.77315-.707-8.33937,2.49412-8.20637,8.94528C1.96343,357.20185,32.69607,471.80168,92.75186,541.7307a36.75893,36.75893,0,0,0,8.17864,7.23258,18.842,18.842,0,0,0,8.18334,3.01659c60.22592,5.38633,91.44029-70.42652,93.90958-164.1345.16074-6.22739-3.28612-13.84329-8.01837-19.07007-16.12793-17.72591-28.80477-41.97332-34.40884-65.90673-1.71638-7.32229-5.85646-14.849-11.1071-18.91562C135.087,272.82246,114.975,258.05809,101.71067,249.74488Z" style="fill:url(#by)"/></g><path d="M101.66508,266.73932c-9.98713-6.257-24.52745-13.98754-37.06659-20.25978-5.36532-2.67813-9.72535-.657-12.0936,3.9127-6.646,12.99713-17.50027,20.27456-30.92955,20.82711-4.59456.19931-7.64662,4.22618-7.32092,10.90162,3.993,80.72055,28.87385,178.29179,78.80951,240.83837a32.36628,32.36628,0,0,0,7.91733,7.31209,15.29578,15.29578,0,0,0,7.93095,2.61849c50.10063.08972,75.40355-66.05608,79.80071-141.53.36236-6.37164-2.91483-14.37136-7.5733-20.4392a191.6705,191.6705,0,0,1-30.5672-59.57995c-2.23524-7.31719-6.6183-14.5202-11.85062-18.44768C126.19207,283.46,111.66114,272.99678,101.66508,266.73932Z" style="fill:url(#bz)"/><g style="isolation:isolate"><g style="clip-path:url(#ca)"><path d="M42.545,323.98169,31.27881,330.043c-.89669.48169-.92052,2.12136-.05512,3.64976a4.59592,4.59592,0,0,0,1.62368,1.70191,1.65773,1.65773,0,0,0,1.58128.19993l11.21493-6.03217c-1.114-1.80424-2.15111-3.68161-3.09859-5.58077" style="fill:#ed695d"/><path d="M32.84737,335.3947a4.59592,4.59592,0,0,1-1.62368-1.70191c-.8654-1.5284-.84157-3.16807.05512-3.64976L42.545,323.98169c.94748,1.89916,1.98456,3.77653,3.09859,5.58077l-11.21493,6.03217a1.65773,1.65773,0,0,1-1.58128-.19993m9.77768-12.58664-11.8362,6.36421c-1.1785.635-1.21017,2.7845-.07115,4.79422a6.03709,6.03709,0,0,0,2.12955,2.26563,2.11759,2.11759,0,0,0,2.07135.23326l11.77215-6.32771-.29286-.463a67.53851,67.53851,0,0,1-3.53124-6.367l-.2416-.49957" style="fill:#ed685d"/><path d="M104.67409,359.852l-9.697,5.21838-9.54654-16.26985a13.58358,13.58358,0,0,1-3.1264,1.97209l11.0485,18.83451a4.76232,4.76232,0,0,0,1.626,1.681,1.61582,1.61582,0,0,0,1.57909.17685l11.21494-6.03217c-1.12042-1.80793-2.15751-3.678-3.0986-5.58077" style="fill:#ed695d"/><path d="M94.97711,365.07033l9.697-5.21838c.94109,1.90278,1.97818,3.77284,3.0986,5.58077l-11.21494,6.03217a1.61582,1.61582,0,0,1-1.57909-.17685,4.76232,4.76232,0,0,1-1.626-1.681l-11.0485-18.83451a13.58358,13.58358,0,0,0,3.1264-1.97209l9.54654,16.26985m9.77067-6.3957-9.76745,5.25855-9.61654-16.39109-.24364.21939a13.053,13.053,0,0,1-3.56846,2.25331l-.28814.12757L92.853,369.90648a6.2849,6.2849,0,0,0,2.12335,2.1959,2.11759,2.11759,0,0,0,2.07135.23326l11.76576-6.3314-.28647-.45935a65.80179,65.80179,0,0,1-3.53762-6.37069l-.2416-.49957" style="fill:#ed685d"/><path d="M64.10507,302.913c6.18673,3.57191,11.18873,12.23571,11.16857,19.34475s-5.05484,9.97813-11.24157,6.40622c-6.19312-3.5756-11.18873-12.23572-11.16858-19.34473s5.04846-9.98184,11.24158-6.40624m.01591-5.61238c-8.87468-5.1238-16.11286-.99166-16.14175,9.19869s7.16227,22.64593,16.037,27.76972c8.86829,5.12011,16.10645.99529,16.13534-9.195S72.98927,302.42077,64.121,297.30066" style="fill:#ed695d"/><path d="M64.01618,334.26907c-8.87468-5.12379-16.06584-17.57939-16.037-27.76972s7.26707-14.32249,16.14175-9.19869c8.86829,5.12011,16.05943,17.583,16.03054,27.77337s-7.26705,14.31515-16.13534,9.195m.10711-37.78278c-9.26414-5.34865-16.82258-1.04133-16.85276,9.60389-.03016,10.63786,7.4792,23.64458,16.74334,28.99323,9.25775,5.345,16.81619,1.03765,16.84635-9.60021.03018-10.64522-7.47918-23.65194-16.73693-28.99691" style="fill:#ed685d"/><path d="M126.22779,338.77961c6.18674,3.57191,11.18873,12.23571,11.16857,19.34475s-5.05483,9.97814-11.24157,6.40622-11.18873-12.23571-11.16858-19.34473,5.05485-9.97815,11.24158-6.40624m.01591-5.61238c-8.86828-5.12011-16.10647-.988-16.13536,9.20238s7.16227,22.64593,16.03056,27.766,16.11284.999,16.14173-9.19135-7.16863-22.657-16.03693-27.77706" style="fill:#ed695d"/><path d="M126.1389,370.13564c-8.86829-5.1201-16.05945-17.57571-16.03056-27.766s7.26708-14.32249,16.13536-9.20238,16.06582,17.58671,16.03693,27.77706-7.27344,14.31147-16.14173,9.19135m.10711-37.78277c-9.25775-5.345-16.81619-1.03765-16.84637,9.60757-.03016,10.63786,7.4792,23.64458,16.73695,28.98954,9.26414,5.34866,16.82258,1.04134,16.85273-9.59652.03018-10.64522-7.47917-23.65194-16.74331-29.00059" style="fill:#ed685d"/><path d="M147.34279,384.47938a13.363,13.363,0,0,1-3.3046,1.66344l9.37309,16.5445-9.38472,5.60443c1.1717,1.76406,2.27283,3.60493,3.278,5.47858l10.8581-6.488a1.71388,1.71388,0,0,0,.65015-1.49851,4.57035,4.57035,0,0,0-.63969-2.19174l-10.83028-19.11269" style="fill:#ed695d"/><path d="M147.30451,413.77033c-1.00512-1.87365-2.10625-3.71452-3.278-5.47858l9.38472-5.60443-9.37309-16.5445a13.363,13.363,0,0,0,3.3046-1.66344l10.83028,19.11269a4.57035,4.57035,0,0,1,.63969,2.19174,1.71388,1.71388,0,0,1-.65015,1.49851l-10.8581,6.488m.01614-30.50889-.24993.18638a13.09447,13.09447,0,0,1-3.77213,1.90791l-.31364.09817,9.43671,16.66206-9.45518,5.64458.31206.4594a65.8401,65.8401,0,0,1,3.74259,6.25388l.24806.4739,11.39621-6.80929a2.20328,2.20328,0,0,0,.85607-1.94545,5.97036,5.97036,0,0,0-.836-2.87091l-11.3648-20.06063" style="fill:#ed685d"/><path d="M126.02685,409.65716c6.18674,3.57192,11.18873,12.23571,11.16857,19.34473s-5.05483,9.97816-11.24157,6.40624-11.18873-12.23571-11.16857-19.34475,5.05484-9.97813,11.24157-6.40622m.01591-5.6124c-8.86828-5.12011-16.10647-.988-16.13536,9.20238s7.16227,22.64595,16.03056,27.76606,16.11284.999,16.14173-9.19138-7.16863-22.65695-16.03693-27.77706" style="fill:#ed695d"/><path d="M125.938,441.0132c-8.86829-5.12011-16.05945-17.57571-16.03056-27.76606s7.26708-14.32249,16.13536-9.20238,16.06582,17.58674,16.03693,27.77706-7.27344,14.31149-16.14173,9.19138m.10711-37.78278c-9.25775-5.345-16.81619-1.03765-16.84637,9.60755-.03016,10.63788,7.4792,23.6446,16.73695,28.98957,9.26414,5.34865,16.82258,1.04133,16.85274-9.59655.03018-10.6452-7.47918-23.65192-16.74332-29.00057" style="fill:#ed685d"/></g></g></svg>