<svg xmlns="http://www.w3.org/2000/svg" xmlns:xlink="http://www.w3.org/1999/xlink" viewBox="0 0 568.1 1041.2">
  <defs>
    <linearGradient id="g" x2="568.1" y1="724" y2="724" gradientUnits="userSpaceOnUse">
      <stop offset=".1" stop-color="#f6f6f6"/>
      <stop offset=".4" stop-color="#efefef"/>
      <stop offset=".7" stop-color="#dbdbdb"/>
      <stop offset="1" stop-color="#c6c6c6"/>
    </linearGradient>
    <linearGradient id="h" x1="37.3" x2="931.7" y1="559.8" y2="559.8" gradientUnits="userSpaceOnUse">
      <stop offset="0" stop-color="#c5c5c4"/>
      <stop offset="1" stop-color="#fbfbfb"/>
    </linearGradient>
    <linearGradient id="i" x1="95.2" x2="239.6" y1="640.1" y2="1151.9" gradientUnits="userSpaceOnUse">
      <stop offset="0" stop-color="#ededed"/>
      <stop offset="1" stop-color="#b2b2b2"/>
    </linearGradient>
    <linearGradient id="j" x1="184.9" x2="489.5" y1="674.2" y2="840.6" gradientUnits="userSpaceOnUse">
      <stop offset="0" stop-color="#f6f6f6"/>
      <stop offset="1" stop-color="#b2b2b2"/>
    </linearGradient>
    <linearGradient id="a" x1="7781.8" x2="7924.7" y1="463" y2="463" gradientTransform="matrix(-1 0 0 1 8079.4 0)" gradientUnits="userSpaceOnUse">
      <stop offset="0" stop-color="#fff"/>
      <stop offset="1" stop-color="#dedede"/>
    </linearGradient>
    <linearGradient id="k" x1="7667.8" x2="7749" y1="508" y2="508" xlink:href="#a"/>
    <linearGradient id="l" x1="7584.2" x2="7611.5" y1="541" y2="541" xlink:href="#a"/>
    <linearGradient id="m" x1="7861.6" x2="7916" y1="547.5" y2="547.5" xlink:href="#a"/>
    <linearGradient id="n" x1="7799" x2="8039.2" y1="516.6" y2="516.6" xlink:href="#a"/>
    <linearGradient id="o" x1="7714.1" x2="7774.8" y1="561.1" y2="561.1" xlink:href="#a"/>
    <linearGradient id="p" x1="7936.8" x2="8011.6" y1="564.5" y2="564.5" xlink:href="#a"/>
    <linearGradient id="q" x1="7751.5" x2="7983.7" y1="519.1" y2="519.1" xlink:href="#a"/>
    <linearGradient id="r" x1="7918.8" x2="7955.6" y1="607.7" y2="607.7" xlink:href="#a"/>
    <linearGradient id="s" x1="7695.7" x2="7927.6" y1="551.5" y2="551.5" xlink:href="#a"/>
    <linearGradient id="t" x1="7556.3" x2="7815.1" y1="591.8" y2="591.8" xlink:href="#a"/>
    <linearGradient id="u" x1="7640" x2="7872" y1="583.8" y2="583.8" xlink:href="#a"/>
    <linearGradient id="v" x1="7610.3" x2="7844.2" y1="631.6" y2="631.6" xlink:href="#a"/>
    <linearGradient id="w" x1="7751" x2="7815.1" y1="680" y2="680" xlink:href="#a"/>
    <linearGradient id="x" x1="7612.1" x2="7655.4" y1="529.5" y2="529.5" xlink:href="#a"/>
    <linearGradient id="y" x1="7870.7" x2="7899.3" y1="642.6" y2="642.6" xlink:href="#a"/>
    <linearGradient id="c" x1="421.8" x2="140.1" y1="558.5" y2="558.5" gradientUnits="userSpaceOnUse">
      <stop offset="0" stop-color="#1d1d1b"/>
      <stop offset="1" stop-color="#3c3c3b"/>
    </linearGradient>
    <linearGradient id="b" x1="281.9" x2="140.1" y1="523.1" y2="523.1" gradientUnits="userSpaceOnUse">
      <stop offset="0" stop-color="#1d1d1b"/>
      <stop offset="1" stop-color="#555454"/>
    </linearGradient>
    <linearGradient id="z" x1="421.8" x2="281.9" y1="523.1" y2="523.1" xlink:href="#b"/>
    <linearGradient id="A" x1="162.8" x2="-119" y1="474.1" y2="474.1" gradientTransform="rotate(119.7 132 753.1)" xlink:href="#c"/>
    <linearGradient id="B" x1="22.9" x2="-119" y1="438.7" y2="438.7" gradientTransform="rotate(119.7 132 753.1)" xlink:href="#b"/>
    <linearGradient id="C" x1="162.8" x2="22.9" y1="438.7" y2="438.7" gradientTransform="rotate(119.7 132 753.1)" xlink:href="#b"/>
    <linearGradient id="d" x1="-.2" x2=".8" y1="54.5" y2="54.5" gradientTransform="matrix(145.08147 0 0 -145.08147 293.4 8463.7)" gradientUnits="userSpaceOnUse">
      <stop offset="0" stop-color="#838587"/>
      <stop offset="1" stop-color="#abafb2"/>
    </linearGradient>
    <linearGradient id="D" x1="-.2" x2=".8" y1="54.4" y2="54.4" gradientTransform="matrix(57.93923 0 0 -57.93923 322.3 3724.2)" xlink:href="#d"/>
    <linearGradient id="E" x1="-.2" x2=".8" y1="54.4" y2="54.4" gradientTransform="matrix(17.85564 0 0 -17.85564 231.4 1508.5)" xlink:href="#d"/>
    <linearGradient id="F" x1="-.2" x2=".8" y1="54.3" y2="54.3" gradientTransform="matrix(55.83243 0 0 -55.83243 218.7 3573.9)" xlink:href="#d"/>
    <linearGradient id="G" x1="-.2" x2=".8" y1="54.4" y2="54.4" gradientTransform="matrix(43.2089 0 0 -43.2089 222.9 2887.3)" xlink:href="#d"/>
    <linearGradient id="H" x1="-.2" x2=".8" y1="54.2" y2="54.2" gradientTransform="matrix(145.08138 0 0 -145.08138 379.8 8608.6)" xlink:href="#d"/>
    <linearGradient id="I" x1="-.2" x2=".8" y1="54.2" y2="54.2" gradientTransform="matrix(112.27664 0 0 -112.27664 390.8 6824.5)" xlink:href="#d"/>
    <linearGradient id="J" x1="-.2" x2=".8" y1="54.2" y2="54.2" gradientTransform="matrix(34.71121 0 0 -34.71121 415 2607.9)" xlink:href="#d"/>
    <linearGradient id="K" x1="-.2" x2=".8" y1="54.7" y2="54.7" gradientTransform="matrix(145.07925 0 0 -145.07925 239.5 8537.3)" xlink:href="#d"/>
    <linearGradient id="L" x1="-.2" x2=".8" y1="54.3" y2="54.3" gradientTransform="matrix(75.95391 0 0 -75.95391 360.3 4911.3)" xlink:href="#d"/>
    <linearGradient id="M" x1="-.2" x2=".8" y1="54" y2="54" gradientTransform="matrix(74.41135 0 0 -74.41135 371 4575.7)" xlink:href="#d"/>
    <linearGradient id="N" x1="-.2" x2=".8" y1="54" y2="54" gradientTransform="matrix(83.30585 0 0 -83.30585 368 5059.4)" xlink:href="#d"/>
    <linearGradient id="O" x1="-.2" x2=".8" y1="54.1" y2="54.1" gradientTransform="matrix(96.15003 0 0 -96.15003 363.7 5758)" xlink:href="#d"/>
    <clipPath id="P">
      <path fill="none" d="M45.1 826l.5-156 184.8 106.7-.4 156L45.1 826z"/>
    </clipPath>
    <linearGradient id="Q" x1="489.7" x2="358" y1="793.7" y2="793.7" gradientUnits="userSpaceOnUse">
      <stop offset="0" stop-color="#2581c4"/>
      <stop offset="1" stop-color="#2581c4" stop-opacity=".5"/>
    </linearGradient>
    <linearGradient id="R" x1="327.7" x2="327.7" y1="582.8" gradientUnits="userSpaceOnUse">
      <stop offset=".7" stop-color="#316f92"/>
      <stop offset=".9" stop-color="#5788b7" stop-opacity="0"/>
    </linearGradient>
    <linearGradient id="e" x1="352.1" x2="303.3" y1="325.2" y2="325.2" gradientUnits="userSpaceOnUse">
      <stop offset="0" stop-color="#316f92"/>
      <stop offset="1" stop-color="#5788b7"/>
    </linearGradient>
    <linearGradient id="S" x1="352.1" x2="303.3" y1="277.5" y2="277.5" xlink:href="#e"/>
    <linearGradient id="T" x1="352.1" x2="303.3" y1="229.3" y2="229.3" xlink:href="#e"/>
    <linearGradient id="U" x1="352.1" x2="303.3" y1="372.3" y2="372.3" xlink:href="#e"/>
    <linearGradient id="V" x1="352.1" x2="303.3" y1="132.2" y2="132.2" xlink:href="#e"/>
    <linearGradient id="W" x1="352.1" x2="303.3" y1="84.6" y2="84.6" xlink:href="#e"/>
    <linearGradient id="X" x1="352.1" x2="303.3" y1="36.3" y2="36.3" xlink:href="#e"/>
    <linearGradient id="Y" x1="352.1" x2="303.3" y1="179.4" y2="179.4" xlink:href="#e"/>
    <linearGradient id="Z" x1="352.1" x2="303.3" y1="516.3" y2="516.3" xlink:href="#e"/>
    <linearGradient id="aa" x1="352.1" x2="303.3" y1="468.6" y2="468.6" xlink:href="#e"/>
    <linearGradient id="ab" x1="352.1" x2="303.3" y1="420.4" y2="420.4" xlink:href="#e"/>
    <linearGradient id="ac" x1="352.1" x2="303.3" y1="563.4" y2="563.4" xlink:href="#e"/>
    <linearGradient id="ad" x1="627.7" x2="627.7" y1="1348.4" y2="1956.2" gradientTransform="rotate(180 440.7 988.8)" gradientUnits="userSpaceOnUse">
      <stop offset=".7" stop-color="#e9482f"/>
      <stop offset=".9" stop-color="#ef7c54" stop-opacity="0"/>
    </linearGradient>
    <linearGradient id="f" x1="653.2" x2="602.3" y1="1687.5" y2="1687.5" gradientTransform="rotate(180 440.7 988.8)" gradientUnits="userSpaceOnUse">
      <stop offset="0" stop-color="#e9482f"/>
      <stop offset="1" stop-color="#ef7c54"/>
    </linearGradient>
    <linearGradient id="ae" x1="653.2" x2="602.3" y1="1637.8" y2="1637.8" xlink:href="#f"/>
    <linearGradient id="af" x1="653.2" x2="602.3" y1="1587.5" y2="1587.5" xlink:href="#f"/>
    <linearGradient id="ag" x1="653.2" x2="602.3" y1="1736.7" y2="1736.7" xlink:href="#f"/>
    <linearGradient id="ah" x1="653.2" x2="602.3" y1="1486.3" y2="1486.3" xlink:href="#f"/>
    <linearGradient id="ai" x1="653.2" x2="602.3" y1="1436.6" y2="1436.6" xlink:href="#f"/>
    <linearGradient id="aj" x1="653.2" x2="602.3" y1="1386.3" y2="1386.3" xlink:href="#f"/>
    <linearGradient id="ak" x1="653.2" x2="602.3" y1="1535.4" y2="1535.4" xlink:href="#f"/>
    <linearGradient id="al" x1="653.2" x2="602.3" y1="1886.8" y2="1886.8" xlink:href="#f"/>
    <linearGradient id="am" x1="653.2" x2="602.3" y1="1837.1" y2="1837.1" xlink:href="#f"/>
    <linearGradient id="an" x1="653.2" x2="602.3" y1="1786.8" y2="1786.8" xlink:href="#f"/>
    <linearGradient id="ao" x1="653.2" x2="602.3" y1="1935.9" y2="1935.9" xlink:href="#f"/>
  </defs>
  <path fill="url(#g)" d="M0 600a69.5 69.5 0 0 1 34.7-60l214.6-124a69.5 69.5 0 0 1 69.4 0l214.7 124a69.5 69.5 0 0 1 34.7 60V848a69.5 69.5 0 0 1-34.7 60l-214.7 124a69.5 69.5 0 0 1-69.4 0L34.7 908A69.5 69.5 0 0 1 0 848z"/>
  <path fill="url(#h)" d="M41.8 552.2l214.6-124a55.4 55.4 0 0 1 55.3 0l214.6 124a9 9 0 0 1 0 15.6l-214.6 124a57.4 57.4 0 0 1-55.3 0l-214.6-124a9 9 0 0 1 0-15.6z"/>
  <path fill="url(#i)" d="M269.9 1011.9c0 6.1-5.4 9-9 9a8.7 8.7 0 0 1-4.5-1.2l-214.6-124A55.4 55.4 0 0 1 14 848V600a9 9 0 0 1 9-9 8.8 8.8 0 0 1 4.5 1.2l214.7 124a55.4 55.4 0 0 1 27.6 47.8z"/>
  <path fill="url(#j)" d="M554 847.9a55.4 55.4 0 0 1-27.7 47.9l-214.6 123.9a8.7 8.7 0 0 1-4.5 1.2c-3.7 0-9-2.9-9-9V764a55.4 55.4 0 0 1 27.6-47.8l214.6-124a8.8 8.8 0 0 1 4.5-1.2 9 9 0 0 1 9 9z"/>
  <g style="isolation:isolate">
    <path fill="url(#a)" d="M154.7 501.3l4 2.3 138.8-80.1-5.7-1.2-137.1 79z"/>
    <path fill="url(#k)" d="M330.3 529.1l4 2.3 77.2-44.6-4-2.3-77.2 44.6z"/>
    <path fill="url(#l)" d="M467.9 546.6l3.9 2.3 23.4-13.4-4-2.4-23.3 13.5z"/>
    <path fill="url(#m)" d="M163.4 560.9l4 2.3 50.4-29.1-4-2.3-50.4 29.1z"/>
    <path fill="url(#n)" d="M40.1 567.6l4 2.3 74.6-43.2a15 15 0 0 1 7.1-1.7h40c7.5 0 14.9-1.8 20.2-4.8l94.4-54.5-4-2.3-94.4 54.5a33.4 33.4 0 0 1-16.2 3.8h-40a23 23 0 0 0-11 2.7z"/>
    <path fill="url(#o)" d="M304.6 576.3l4 2.3 56.7-32.8-4-2.3-56.7 32.8z"/>
    <path fill="url(#p)" d="M67.8 583.8l4 2.3 70.8-40.9-4-2.3-70.8 40.9z"/>
    <path fill="url(#q)" d="M311.1 443.3c-2.9 1.7-4.6 4-4.6 6.4l-.1 23.2c0 3.4-2.5 6.9-6.8 9.3l-53.5 31c-3 1.6-4.6 4-4.6 6.4l-.1 23.1c0 3.5-2.5 7-6.8 9.4l-34.3 19.8a33.5 33.5 0 0 1-16.3 3.9h-40a23 23 0 0 0-11 2.7l-37.3 21.4 4 2.3 37.3-21.4a14.8 14.8 0 0 1 7-1.7h40c7.5 0 14.9-1.8 20.2-4.9l34.4-19.8c5.3-3 8.4-7.3 8.4-11.7l.1-23.1c0-1.6 1.1-3 3-4.1l53.5-31c5.3-3 8.4-7.3 8.4-11.6l.2-23.2c0-1.5 1-3 3-4l12.7-7.5-4-2.3z"/>
    <path fill="url(#r)" d="M123.7 616l4 2.3 32.9-18.9-4-2.3-32.9 18.9z"/>
    <path fill="url(#s)" d="M294 517.8c-3 1.7-4.6 4-4.6 6.4l-.1 23.2c0 3.5-2.6 6.9-6.8 9.3l-130.7 75.6 4 2.3 130.7-75.5c5.3-3.1 8.3-7.4 8.4-11.7l.1-23.2c0-1.5 1-3 3-4.1l85.6-49.5-4-2.3z"/>
    <path fill="url(#t)" d="M264.2 631.9l4 2.3 19.8-11.4a33.7 33.7 0 0 1 16.2-4h40a23 23 0 0 0 11-2.6l81-46.7a33.4 33.4 0 0 1 16.2-3.9h40a23 23 0 0 0 11.1-2.7l19.6-11.2-4-2.4-19.6 11.3a14.8 14.8 0 0 1-7 1.7h-40c-7.6 0-15 1.8-20.3 4.9l-81 46.7a14.7 14.7 0 0 1-7 1.7h-40c-7.5 0-14.9 1.8-20.2 4.9z"/>
    <path fill="url(#u)" d="M239.9 613.6c-5.3 3.1-8.4 7.4-8.4 11.7l-.2 23.2c0 1.5-1 3-3 4l-21 12 4 2.3 21-12c3-1.6 4.7-4 4.7-6.3l.1-23.2c0-3.5 2.5-6.9 6.8-9.4l27.6-15.9a33.4 33.4 0 0 1 16.2-3.9h40a23 23 0 0 0 11-2.6l51.3-29.6c3-1.7 4.6-4 4.6-6.4l.2-23.2c0-3.5 2.4-6.9 6.7-9.4l37.9-21.8-4-2.4-37.9 22c-5.3 3-8.4 7.3-8.4 11.6l-.1 23.2c0 1.5-1.1 3-3 4l-51.2 29.7a14.8 14.8 0 0 1-7.1 1.6h-40c-7.5 0-14.9 1.8-20.2 4.9z"/>
    <path fill="url(#v)" d="M235.2 680.4l4 2.3 57-32.4a14.6 14.6 0 0 1 7.1-1.7h40c7.5 0 14.9-1.8 20.2-4.8l105.6-61-4-2.3-105.6 61a33.3 33.3 0 0 1-16.2 3.8h-40a23 23 0 0 0-11 2.7z"/>
    <path fill="url(#w)" d="M264.3 696.4l5.1 1.8 59-34.1-4-2.3-60.1 34.6z"/>
  </g>
  <path fill="url(#x)" d="M423.9 539.7l4 2.3 39.4-22.7-4-2.4-39.4 22.8z"/>
  <path fill="url(#y)" d="M180.1 648.6l3.9 2.3 24.6-14.2-3.9-2.3-24.6 14.2z"/>
  <path fill="url(#c)" d="M140.1 559.1l141.8-80.7 139.9 81.7-139.9 78.6-141.8-79.6z"/>
  <path fill="url(#b)" d="M281.9 478.4v17.7l-126.3 71.8-15.5-8.8 141.8-80.7z"/>
  <path fill="url(#z)" d="M421.8 560.1l-139.9-81.7v17.7L408 567.9l13.8-7.8z"/>
  <path fill="url(#A)" d="M498.1 672.9l-.1 163.3-140.2 81.1 1-160.5 139.3-83.9z"/>
  <path fill="url(#B)" d="M498 836.2l-15.4-8.8.2-145.3 15.3-9.2-.1 163.3z"/>
  <path fill="url(#C)" d="M357.8 917.3L498 836.2l-15.4-8.8-124.7 74-.1 15.9z"/>
  <path fill="#646668" d="M309.3 616.7l-5 4.8a.7.7 0 0 1-.2 0l5.6-3.2-.4-1.6M278.8 516.1h-.1l-.2.1-8.2 4.8a.7.7 0 0 1 .2 0l10.8-2.3-2.5-2.6M279.2 530.7l-1 .6-8.2 4.8 9.3-5.3-.1-.1M281.2 503l-8.2 4.7a.7.7 0 0 1 .4 0l12 .8-4.2-5.6M282.1 496.2l-1.5.9 6.6 2-5.1-2.9M406.2 566.8v.2l-5.4 3.1 2 .8 5.2-2.9-1.5-.2.2-.7-.5-.3"/>
  <path fill="url(#d)" d="M339.40000000000003 596.1999999999999l-2.4 1.4 1 9.6 3.2-1.7-1.8-9.3m-.7-3.1l-2 2.4 2-2.4m-5.6-5.5l-6 2.2 1.7 7.3 3.9-2.3.4-7.2m7.5-5.5a13 13 0 0 0 1.5 1 13.1 13.1 0 0 1-1.5-1m20-1.6l4.7 4.2-4.7-4.2m-36.5-.3a2.8 2.8 0 0 1 .3.4 3.2 3.2 0 0 1 .7 1.3l1 4 2.2-5.1-4.2-.6m-18.6-2.3l5 13.6-5-13.6m-20.6-.1l-2 9a3 3 0 0 0 1.3 2.8 1.2 1.2 0 0 0 .6.2.8.8 0 0 0 .1 0l7.2-1-.7 14.8a3 3 0 0 0 1.4 2.5 1.2 1.2 0 0 0 .6.2.8.8 0 0 0 .3-.1l6.3-3 1.7 16.1a3 3 0 0 0 1.4 2.2 1.2 1.2 0 0 0 .6.2.7.7 0 0 0 .4-.1.7.7 0 0 0 .1 0l5.1-4.9.4 1.6 1 4.2a27.2 27.2 0 0 0 .3-3.7 50 50 0 0 0-22.6-39.3 27 27 0 0 0-3.5-1.7m51.2-1v.1a20.6 20.6 0 0 0 2 2.7 21.6 21.6 0 0 1-2-2.7m-1-2.1l.4 1h.1l-.6-1m57.2-.2l1.8 1.2-1.8-1.2m3.6-.4l.2.1-.2-.1M383.1 567.2a75.4 75.4 0 0 1 0 0m-17.8-.2a.6.6 0 0 1 0 .4.6.6 0 0 0 0-.4m-.2-.3a1 1 0 0 1 .2.3 1 1 0 0 0-.2-.3m-83-1.8l5.7 8.7-5.7-8.7m59.6-1.8v.3a16.3 16.3 0 0 0 1.5 6.5 20.7 20.7 0 0 0 3.3 5.3 15.3 15.3 0 0 0 3.8 3.1l.4.2v-.3a19 19 0 0 0-8.6-14.9l-.4-.2m-5.6-.4c-1.6.8-2.6 2.8-2.6 5.5 0-2.7 1-4.6 2.5-5.5h.1m38.9-4.4a90.2 90.2 0 0 0 6.3 7.1 90.3 90.3 0 0 1-6.3-7M381.9 556a62.8 62.8 0 0 0 10 9.2 63 63 0 0 1-10-9.2m-23 0a1 1 0 0 1 .1.2.9.9 0 0 0 0-.2m18.2-5.7l2.8 3.6-2.8-3.6m-26.2-.9l-.5 9 .5-9M337.4 546l1.5 3.6-1.5-3.6m27.8-2.5a101.3 101.3 0 0 0 9.1 14 101.3 101.3 0 0 1-9.1-14m-14.8-8.4a.8.8 0 0 1 .1.3l2 9.7 6.1-3.7a.2.2 0 0 1 .1 0 .3.3 0 0 1 .2 0l.2.2a1 1 0 0 1 .2.3.7.7 0 0 1 0 .4l-.6 11.4 7.9-3a.3.3 0 0 1 .3 0l.1.2a1.1 1.1 0 0 1 .2.3.5.5 0 0 1 0 .5l-3.7 8.8 9.5 1.2h.2l.1.2a1 1 0 0 1 .2.3v.5l-6.5 5.4 10.1 5.2a1 1 0 0 1 .3.2 1.1 1.1 0 0 1 .1.3v.5l-6.2 3.6 7.3 6.5 12.6-7-.8-1.7-3.6 2a.5.5 0 0 1-.2.1.9.9 0 0 1-.4-.1 2 2 0 0 1-.8-1l-3.3-8.8-3.6 2a.5.5 0 0 1-.3.1.9.9 0 0 1-.4-.1 2 2 0 0 1-.8-1.2l-2.5-10-3.7 2a.5.5 0 0 1-.3.2.8.8 0 0 1-.4-.2 2 2 0 0 1-.9-1.4l-1.2-10.7-4.1 2a.5.5 0 0 1-.2 0 .8.8 0 0 1-.4-.1 2 2 0 0 1-1-1.6l.4-6.9-4.3-2.4h-.4a.6.6 0 0 1 0 .1.8.8 0 0 1-.4-.1 2 2 0 0 1-.8-.9l-6.4-3.6m-69.8-38l-2.7 1.5a3.4 3.4 0 0 0 .4.6l2.9 3.7 4.2 5.6-12-.9a.7.7 0 0 0-.4 0v.1c-.7.4-.5 1.9.5 3l5.3 5.4 2.5 2.6-10.8 2.3a.7.7 0 0 0-.2 0c-.8.4-.4 2.3.7 3.2l8.2 6.5-9.2 5.4c-1 .5-.3 2.6 1 3.3l8.4 4.9-5.6 6.2 4.3 5.3 6-3.5a.7.7 0 0 1 .3 0 1.3 1.3 0 0 1 .6.1 2.4 2.4 0 0 1 .6.5 3.2 3.2 0 0 1 .3.4l5.7 8.8 5.6-3.3a.7.7 0 0 1 .3 0 1.3 1.3 0 0 1 .7.1 2.5 2.5 0 0 1 .6.5 3.3 3.3 0 0 1 .4.7l5.7 11.2 5.3-3.1a.7.7 0 0 1 .4-.1 1.3 1.3 0 0 1 .6.2 2.5 2.5 0 0 1 .7.5 3.3 3.3 0 0 1 .5.8v.2l5 13.3 5.2-3-3.8-.5h-.2c-.3-.3-.6-1-.2-1l.4-.4 6-5-1.7-.9-8.5-4.4-.2-.1-.1-.2c-.1-.3-.2-.5 0-.6l6-3.5.2-.1-7.3-6.5a.9.9 0 0 1-.4-.7.3.3 0 0 1 .1-.3l5.6-3.2-4-5.3a1 1 0 0 1-.2-.3v-.6l5.6-3.2-1.4-2.9a1.1 1.1 0 0 1-.1-.1.8.8 0 0 1 0-.2.4.4 0 0 1 0-.4l8.3-4.8 6.3-3.6a.2.2 0 0 1 .1 0 .4.4 0 0 1 .2 0l.2.1.1.2 1.8 2.8 5.6-3.2a.4.4 0 0 1 .3 0l.2.2.1.2v.1l2.6 6.3 5.6-3.3-62.6-35.6-6.6-2"/>
  <path fill="#646668" d="M350.4 597.7v2.6l1.2-.7-1.2-2m-5.7-1l-2.2 8.1 4.6-2.5-2.4-5.7m10.5 0l.3 1 .4-.3-.7-.8m-16.5-3.3l-2 2.4a2.6 2.6 0 0 1 .1.6l.2 1.5 2.4-1.4-.7-3.1m20-.2l1 2.1 1.3-.6-2.3-1.5m-25.6-5.3l-6 2.2 6-2.2m27.5-.2l3.8 5 4.7-2.6-8.5-2.4M324.8 573.2l-6 5 6-5m-10.5-6.2c-.2 0-.1.3 0 .6l.1.2.2.1 8.5 4.4-8.4-4.3c-.5-.3-.6-.9-.4-1m6.2-3.6l-.3.1-5.9 3.5a.2.2 0 0 1 .1 0l8.6-1.4-2.5-2.2m17.8-1.3a4.4 4.4 0 0 0-2.2.6c-1.6 1-2.6 2.8-2.6 5.5v.1a16.4 16.4 0 0 0 1.5 6.5l.6 1 .5 1.1a21.6 21.6 0 0 0 2 2.7 17 17 0 0 0 2.5 2.5 13.1 13.1 0 0 0 1.5 1 7.8 7.8 0 0 0 3.8 1.2c2.7 0 4.6-2 4.8-5.8l-.4-.2a15.3 15.3 0 0 1-3.8-3.1 20.7 20.7 0 0 1-3.3-5.3 16.3 16.3 0 0 1-1.5-6.5v-.3a7.5 7.5 0 0 0-3.4-1m-23.8-14.7l4 5.3-5.6 3.2a.3.3 0 0 0 0 .3l.1-.3a.4.4 0 0 1 .2 0l9.8 2.8-8.5-11.3m4-7l1.4 3-5.5 3.1a.4.4 0 0 1 .2 0l10.3 6.7-6.4-12.8m-.2-.3a.8.8 0 0 0 0 .2.8.8 0 0 1 0-.2m22.8-9a.2.2 0 0 0-.1 0l-5.6 3.3-1.8-2.8-.1-.2-.2-.1a.4.4 0 0 0-.2 0 .2.2 0 0 0-.1 0l-6.2 3.6h-.1l-8.3 4.8a.2.2 0 0 1 .2 0 .3.3 0 0 1 .1 0 .8.8 0 0 1 .2.2l9.5 9.8-3.7-13c-.1-.5 0-.7.2-.7a.4.4 0 0 1 .2 0 .8.8 0 0 1 .3.4l7.8 12-.5-12c-.1-.3 0-.4.2-.4a.4.4 0 0 1 .2 0 .9.9 0 0 1 .3.5l4 9.5 1.5 3.6 2.6-9.9c0-.1 0-.2.2-.2a.4.4 0 0 1 .2 0 .9.9 0 0 1 .4.7l2.5 12.8 5.5-6.6a.2.2 0 0 1 .2-.2.4.4 0 0 1 .2 0 .9.9 0 0 1 .4.9l-.1 2.3-.5 9 7.8-2.8a.2.2 0 0 1 .2 0 .3.3 0 0 1 .1 0 1 1 0 0 1 .4.4.9.9 0 0 1 0 .2.4.4 0 0 1 0 .3l-3.7 8.8 9.4 1.2h.3a.7.7 0 0 1 .1.2 1 1 0 0 1 .2.3.6.6 0 0 1 0 .4.2.2 0 0 1 0 .2l-6.5 5.3 10 5.2c.6.3.8 1 .4 1l-8.6 1.4 4.7 4.2 5 4.4 8.4-4.7h-.1l-7.3-6.5 6.2-3.6v-.5a1.1 1.1 0 0 0-.1-.3 1 1 0 0 0-.3-.2l-10.1-5.2 6.4-5.3c.2-.1.2-.4.1-.6a1 1 0 0 0-.2-.3l-.1-.1h-.2l-9.5-1.3 3.7-8.8a.5.5 0 0 0 0-.5 1.1 1.1 0 0 0-.2-.3l-.1-.1a.3.3 0 0 0-.2 0 .2.2 0 0 0-.1 0l-7.9 2.9.6-11.4a.7.7 0 0 0 0-.4 1 1 0 0 0-.2-.3l-.2-.1a.3.3 0 0 0-.2 0l-6.3 3.6-1.9-9.7a.8.8 0 0 0 0-.3h-.1l-.6-.4-5.6 3.3-2.6-6.3-.1-.3-.2-.2a.4.4 0 0 0-.2 0"/>
  <path fill="url(#D)" d="M336.1 562.7a4.4 4.4 0 0 1 2.2-.6 7.5 7.5 0 0 1 3.4 1l.4.2a19 19 0 0 1 8.6 15v.2c-.2 3.7-2 5.8-4.8 5.8a7.8 7.8 0 0 1-3.8-1.2 13 13 0 0 1-1.5-1 17 17 0 0 1-2.6-2.5 20.6 20.6 0 0 1-1.9-2.7l-.6-1-.5-1.1a16.4 16.4 0 0 1-1.5-6.5c0-2.8 1-4.8 2.6-5.6M333 536c-.2 0-.3.1-.2.4l.5 12-7.8-12a.8.8 0 0 0-.3-.3.4.4 0 0 0-.2 0c-.2 0-.3.1-.2.5l3.7 13-9.5-9.7a.8.8 0 0 0-.2-.2.3.3 0 0 0-.1 0 .2.2 0 0 0-.2 0 .4.4 0 0 0 0 .4.8.8 0 0 0 0 .2 1.1 1.1 0 0 0 0 .1l6.5 12.8-10.3-6.6a.4.4 0 0 0-.1 0 .2.2 0 0 0-.1 0c-.2 0-.2.2-.1.5a1 1 0 0 0 .2.3l8.5 11.3-9.8-2.7a.4.4 0 0 0-.2 0c-.1 0-.2 0-.2.2a.9.9 0 0 0 .4.7l7.3 6.5 2.5 2.2-8.6 1.3a.2.2 0 0 0-.1 0c-.2.2 0 .8.4 1l8.4 4.4 1.7.9-6 5-.4.3c-.4.2-.1.8.2 1h.2l3.8.6.2-.2a.7.7 0 0 1 .4 0 1.3 1.3 0 0 1 .6.1 2 2 0 0 1 .3.2l4.2.6-2.2 5.1 1 4 6-2.3-.4 7.2 1.8-1a.7.7 0 0 1 .3-.1 1.3 1.3 0 0 1 .6.2 2.6 2.6 0 0 1 .7.5 3.2 3.2 0 0 1 .5.8 3 3 0 0 1 .1.3l2-2.4.7 3.1 1.8 9.3 1.3-.8 2.2-8.2 2.4 5.7 3.4-2-.1-2.5 1.2 2 3.9-2.2-.3-1 .7.7 3.9-2.2-1-2.1 2.2 1.5 3.4-2-3.8-5 8.5 2.4 1.2-.7-5-4.4-4.7-4.2 8.5-1.3c.5 0 .3-.8-.2-1l-10.1-5.3 6.4-5.3a.2.2 0 0 0 .1-.2.6.6 0 0 0 0-.4 1 1 0 0 0-.2-.3.7.7 0 0 0-.1-.1h-.3l-9.4-1.3 3.7-8.8a.4.4 0 0 0 0-.3 1 1 0 0 0 0-.2 1 1 0 0 0-.4-.4.3.3 0 0 0-.1 0 .2.2 0 0 0-.2 0l-7.8 2.9.5-9 .1-2.4a.9.9 0 0 0-.4-.8.4.4 0 0 0-.2 0 .2.2 0 0 0-.2 0l-5.5 6.7-2.5-12.8a.9.9 0 0 0-.4-.7.4.4 0 0 0-.2 0c-.1 0-.2 0-.2.2l-2.6 9.9-1.5-3.6-4-9.5a.9.9 0 0 0-.3-.5.4.4 0 0 0-.2 0"/>
  <path fill="#646668" d="M235.6 532a2 2 0 0 0-1.2.5h-.1a3 3 0 0 0-1 2.3v.1a8.2 8.2 0 0 0 1.1 3.9 9.7 9.7 0 0 0 1.2 1.8 8.3 8.3 0 0 0 .6.6 6.6 6.6 0 0 0 1.2.9 4.1 4.1 0 0 0 1.4.5 2.7 2.7 0 0 0 .4 0 2.2 2.2 0 0 0 2.2-2 4.6 4.6 0 0 1-.8-.4 7.2 7.2 0 0 1-1.8-1.5 9.8 9.8 0 0 1-1.6-2.5 7.8 7.8 0 0 1-.7-3 4.7 4.7 0 0 1 0-1 3 3 0 0 0-1-.1"/>
  <path fill="#646668" d="M235.7 550.5a2 2 0 0 0-1 .2 1.8 1.8 0 0 0-.2.1 2.8 2.8 0 0 0-1 2.3v.4a7.5 7.5 0 0 0 .7 2.6 9.4 9.4 0 0 0 .7 1.4h.1a8.5 8.5 0 0 0 1.1 1.4l3.2-1.9-.5-.4a9.3 9.3 0 0 1-1.4-2.4 7.3 7.3 0 0 1-.7-2.8 4.4 4.4 0 0 1 0-.7 3 3 0 0 0-1-.2m-12.3-21l-3.2 1.9a7.7 7.7 0 0 0 .6.6 6 6 0 0 0 1 .7 3.5 3.5 0 0 0 1.7.5 2.1 2.1 0 0 0 2-2 4.5 4.5 0 0 1-.6-.4 6.7 6.7 0 0 1-1.5-1.2m10-3.8a8 8 0 0 1 4 1.2c5 2.9 9 9.8 9 15.5 0 4-2 6.4-5 6.4h-.5a8.5 8.5 0 0 1-3.5-1.2c-5-2.9-9-9.8-9-15.5 0-4 2.1-6.4 5-6.4m-.4-1.3a5.7 5.7 0 0 0-.8 0l-3.2 1.9a8 8 0 0 0-1.5 4.8v.4a22 22 0 0 0 9.9 17.2l.3.2a8.7 8.7 0 0 0 4.1 1.2c3.3 0 5.5-2.6 5.5-7v-.1a22 22 0 0 0-9.9-17.2 12.2 12.2 0 0 0-1.1-.6 8 8 0 0 0-3.3-.8M251.3 541.5c-1.2 0-2 1-2 2.7a7.5 7.5 0 0 0 .7 3.2 9.2 9.2 0 0 0 1.3 2 6.8 6.8 0 0 0 1.7 1.4 3.9 3.9 0 0 0 1.3.5l2.3-1.3a3.4 3.4 0 0 0 .2-.7 4.5 4.5 0 0 1-.6-.3 6.7 6.7 0 0 1-1.7-1.4 9.2 9.2 0 0 1-1.5-2.4 7.3 7.3 0 0 1-.6-2.8 4.5 4.5 0 0 1 0-.7 3 3 0 0 0-1-.2M224.6 538.8a2 2 0 0 0-1 .2 2 2 0 0 0-.7.8v.1a5.3 5.3 0 0 0 0 4l.3.6.4.8a9.2 9.2 0 0 0 1 1.4 6.8 6.8 0 0 0 1.7 1.4 3.5 3.5 0 0 0 1.7.6 2 2 0 0 0 1-.3 2.4 2.4 0 0 0 1-1.8 4.5 4.5 0 0 1-.5-.3 6.8 6.8 0 0 1-1.7-1.4 9.3 9.3 0 0 1-1.5-2.4 6.7 6.7 0 0 1-.6-3.5 3 3 0 0 0-1-.2M246.7 551.6a2 2 0 0 0-1 .3 2.3 2.3 0 0 0-1 1.5l2.9-1.6a2.9 2.9 0 0 0-.9-.2M239.1 520.6l-3.2 1.9a6.6 6.6 0 0 0 1.5 1.2 4 4 0 0 0 1.2.5 2.6 2.6 0 0 0 .6 0 2.1 2.1 0 0 0 2-2 4.5 4.5 0 0 1-.6-.3 6.6 6.6 0 0 1-1.5-1.3M246.8 526a2 2 0 0 0-1 .3c-.9.5-1.3 1.7-1 3.2a7.8 7.8 0 0 0 .5 2.2 9.2 9.2 0 0 0 .5.9 9.4 9.4 0 0 0 .6 1 8.1 8.1 0 0 0 1 1l.1.1a6.1 6.1 0 0 0 1 .7l.1.1a3.3 3.3 0 0 0 1.6.4 2 2 0 0 0 1-.2 2.4 2.4 0 0 0 1-1.8 4.5 4.5 0 0 1-.6-.3 6.8 6.8 0 0 1-1.6-1.5 9.2 9.2 0 0 1-1-1.4 9.6 9.6 0 0 1-.5-.9 6.7 6.7 0 0 1-.6-3.5 3 3 0 0 0-1.1-.2M232.3 565.4v.1m29.4-3l3 2.8-3-2.8m-32.9-3.8l-1.4 2.5a.3.3 0 0 1-.1 0l2-1.1-.5-1.4m-4-4.6l-2 1.8 2.1-1.2-.1-.6m40-2.2l-.5.3.5.4.5-.3-.5-.4m-12.9-38.5l-3.2 1.8 1.3 5.4 2-1.8a.3.3 0 0 1 .2-.1.5.5 0 0 1 .2 0 1.2 1.2 0 0 1 .5 1l.7 6.1 2.4-1.1a.3.3 0 0 1 .1 0 .5.5 0 0 1 .3 0 1.2 1.2 0 0 1 .5 1l-.2 5.7 2.7-.4a.5.5 0 0 1 .3 0 1.1 1.1 0 0 1 .5 1.1l-1.2 5 3 .4.3.1a1 1 0 0 1 .2.2 1.3 1.3 0 0 1 .2.3.8.8 0 0 1 0 .6l-2 4.2 3.1 1.2a1.2 1.2 0 0 1 .4.2 1.4 1.4 0 0 1 .2.4.6.6 0 0 1 0 .6l-.3.4-2.5 2.8 2.6 1.5.6.4a1 1 0 0 1 .2.2 1.2 1.2 0 0 1 .1 0 1 1 0 0 1 .2.9.3.3 0 0 1-.1.1l3.1-1.8c.2-.1.2-.5 0-.8a1.3 1.3 0 0 0-.1-.3l-.2-.2-3.3-1.9 2.9-3.1a.6.6 0 0 0 0-.7 1.3 1.3 0 0 0-.2-.3 1.2 1.2 0 0 0-.4-.3l-3.1-1.1 2-4.2a.8.8 0 0 0 0-.6 1.3 1.3 0 0 0-.2-.4l-.3-.2h-.2l-3-.4 1.2-5a.9.9 0 0 0-.1-.6 1.3 1.3 0 0 0-.2-.3l-.2-.2a.5.5 0 0 0-.3 0l-2.8.3.3-5.7a1 1 0 0 0-.1-.4 1.3 1.3 0 0 0-.2-.3l-.3-.2a.5.5 0 0 0-.2-.1.3.3 0 0 0-.1 0l-2.4 1.1-.7-6.1a1.1 1.1 0 0 0 0-.4 1.3 1.3 0 0 0-.3-.3l-.2-.2a.5.5 0 0 0-.3 0 .3.3 0 0 0-.1 0l-2.2 1.3-1.1-4.8"/>
  <path fill="url(#E)" d="M234.4 532.5a2 2 0 0 1 1.2-.4 3 3 0 0 1 1 .2 4.6 4.6 0 0 1 .8.4 9 9 0 0 1 4 7 4.7 4.7 0 0 1 0 .9 2.2 2.2 0 0 1-2.2 2 2.7 2.7 0 0 1-.4 0 4.1 4.1 0 0 1-1.4-.5 6.6 6.6 0 0 1-1.2-1 9.4 9.4 0 0 1-1.8-2.2v-.1a8.2 8.2 0 0 1-1-3.8v-.1a3 3 0 0 1 .9-2.4m-.9-6.7c-2.9 0-5 2.3-5 6.4 0 5.7 4 12.6 9 15.5a8.5 8.5 0 0 0 3.5 1.2h.5c3 0 5-2.3 5-6.4 0-5.7-4-12.6-9-15.5a8 8 0 0 0-4-1.2"/>
  <path fill="url(#F)" d="M261.2 562l.5.5-.5-.6M215 534.3l-3 1.7a1.1 1.1 0 0 0 .5 1.1h.2l3 .5-1.1 5a1.1 1.1 0 0 0 .5 1 .5.5 0 0 0 .2.1l2.9-.3-.3 5.6a1.2 1.2 0 0 0 .5 1 .5.5 0 0 0 .3 0l2.5-1 .7 6a1.2 1.2 0 0 0 .5 1 .5.5 0 0 0 .2 0 .3.3 0 0 0 .2 0l2-2 .1.7 1.5 5.8a1.2 1.2 0 0 0 .5.8.5.5 0 0 0 .2 0 .3.3 0 0 0 .2 0 .3.3 0 0 0 0-.1l1.5-2.5.5 1.4 2 5.1a1.1 1.1 0 0 0 .4.6l.6-.3-.9-1.5c-.6-1-.5-2 0-2.4l.6-.3a56.3 56.3 0 0 1-17-27m33.7-19l-2.5 1.3a54.6 54.6 0 0 1 15 32.6l3 3 .6-.3.4-.3v-.1a1 1 0 0 0-.1-.8 1.2 1.2 0 0 0 0-.1 1 1 0 0 0-.3-.2l-.6-.4-2.6-1.5 2.5-2.8.3-.4c.3-.2 0-1-.5-1.2l-3.2-1.2 2-4.1a.8.8 0 0 0 0-.7 1.3 1.3 0 0 0-.2-.3 1 1 0 0 0-.2-.2h-.2l-3-.5 1.1-5a1.1 1.1 0 0 0-.5-1 .5.5 0 0 0-.2-.1l-2.8.4.2-5.7a1.2 1.2 0 0 0-.5-1 .5.5 0 0 0-.3 0l-2.5 1.1-.7-6.2a1.2 1.2 0 0 0-.5-.8.5.5 0 0 0-.2-.1.3.3 0 0 0-.2 0l-2 2-1.3-5.5"/>
  <path fill="url(#G)" d="M241.2 555.8a1.5 1.5 0 0 1 .3.2 1.5 1.5 0 0 0-.3-.2M223.6 539a2 2 0 0 1 1-.2 3 3 0 0 1 1.1.2 4.5 4.5 0 0 1 .6.3 7.8 7.8 0 0 1 2.7 2.9 7.2 7.2 0 0 1 1 4.4 2.4 2.4 0 0 1-1 1.8 2 2 0 0 1-1 .3 3.5 3.5 0 0 1-1.6-.5 6.8 6.8 0 0 1-1.8-1.5 9 9 0 0 1-1-1.4l-.4-.8-.2-.6a5.3 5.3 0 0 1-.2-4 2 2 0 0 1 .8-.8m22.2-12.8a2 2 0 0 1 1-.2 3 3 0 0 1 1 .2 4.5 4.5 0 0 1 .7.3 7.8 7.8 0 0 1 2.7 2.8 7.2 7.2 0 0 1 1 4.5 2.4 2.4 0 0 1-1 1.8 2 2 0 0 1-1 .2 3.3 3.3 0 0 1-1.5-.4h-.2a6 6 0 0 1-1-.8 8.1 8.1 0 0 1-1-1.2 9.3 9.3 0 0 1-.7-1 8.3 8.3 0 0 1-1-3c-.3-1.5.1-2.7 1-3.2M244 518l-3 1.7a6.6 6.6 0 0 1 .3 2 4.6 4.6 0 0 1 0 .6 2.1 2.1 0 0 1-2.1 2 2.6 2.6 0 0 1-.6 0 4 4 0 0 1-1.1-.5 6.6 6.6 0 0 1-1.6-1.2l-3.7 2a5.8 5.8 0 0 1 .8 0 8 8 0 0 1 3.2.8 12.2 12.2 0 0 1 1.2.6 22 22 0 0 1 10 17.2c0 4.5-2.3 7-5.6 7a8.7 8.7 0 0 1-4.1-1.1q-.2 0-.3-.2a22 22 0 0 1-10-17.2v-.4a8 8 0 0 1 1.6-4.8l-3.7 2.1a6.7 6.7 0 0 1 .3 2 4.6 4.6 0 0 1 0 .6 2.1 2.1 0 0 1-2.1 2.1 3.5 3.5 0 0 1-1.7-.5 6 6 0 0 1-1-.7 7.6 7.6 0 0 1-.6-.6l-3 1.7a49 49 0 0 0 17.2 26.8l1.7-1a8.5 8.5 0 0 1-1-1.3h-.1v-.1a8.3 8.3 0 0 1-1.5-4v-.4a2.8 2.8 0 0 1 1-2.2 1.8 1.8 0 0 1 .2-.2 2 2 0 0 1 1-.2 3 3 0 0 1 1 .2 4.5 4.5 0 0 1 .7.3 8.5 8.5 0 0 1 3.5 4.7l3.8-2.3a2.3 2.3 0 0 1 1-1.5 2 2 0 0 1 1-.3 2.9 2.9 0 0 1 .9.2l1.1-.7a.7.7 0 0 1 .4-.1 1.2 1.2 0 0 1 .6.2l2.1 1.6 2.5-1.5a3.8 3.8 0 0 1-1.3-.5 8.1 8.1 0 0 1-3-3.4 7.5 7.5 0 0 1-.8-3.2c0-1.7.9-2.7 2.1-2.7a3 3 0 0 1 1.1.2 4.5 4.5 0 0 1 .6.3 8.4 8.4 0 0 1 3.8 6.7 4.6 4.6 0 0 1 0 .6 3.4 3.4 0 0 1-.2.7l2-1.1c-.3-10.7-6.3-23-14.6-31"/>
  <path fill="#646668" d="M252.7 564.3l2 1.5-2-1.5m-35.5-31.2l-2.2 1.2a56.3 56.3 0 0 0 17 27l2.4-1.4a49 49 0 0 1-17.2-26.8m29-16.5L244 518c8.3 8 14.3 20.3 14.5 31l.9-.5a.7.7 0 0 1 .4-.1 1.2 1.2 0 0 1 .6.2 2.4 2.4 0 0 1 .4.3l.5.4c-.7-11.2-6.7-23.9-15.1-32.6M395 763.9l-4.4 2.6a.7.7 0 0 1-.1 0l4.5-2.6M404.1 779.1l-1.8 1a.7.7 0 0 1-.2.3l2-1.2v-.1"/>
  <path fill="#646668" d="M394.2 763l-3.6 3.5 4.4-2.6-.8-.9M403.6 778l-1.3 2.1 1.8-1-.5-1.2M433 797.9l-3.5 2 .4.3 3.4-2-.3-.3M431.4 795.3l-3 1.7-.1 1.9 1.2 1 3.5-2-1.6-2.6m-2.5-3.8v.4l.5.3-.5-.7M446.3 804l-5 3a1 1 0 0 1-.4 1l5.9-3.4-.5-.6"/>
  <path fill="#646668" d="M440.5 796.8l.8 10.2 5-3-5.8-7.2M451.7 799.5l2.3 10.7a1.4 1.4 0 0 1-.2 1.2.7.7 0 0 1-.2.2l6.6-3.9-8.5-8.2M466 793a31.7 31.7 0 0 1-10.6 1.9 31.7 31.7 0 0 0 10.6-2M412 763.6a1.5 1.5 0 0 1 .4 1l-.1 1.8v-1.9a1.3 1.3 0 0 0 0-.6 1.8 1.8 0 0 0-.3-.3m8.5-2l-.3 5.8 3.8-.5a.7.7 0 0 1 .4.1 1.3 1.3 0 0 1 .3.3 1.8 1.8 0 0 1 .3.4 1.2 1.2 0 0 1 0 .8l-1.5 6.8 4.1.5a.7.7 0 0 1 .3.1 1.2 1.2 0 0 1 .3.3 2 2 0 0 1 .3.4 1 1 0 0 1 0 .9l-.4.8.2.1a57.9 57.9 0 0 0 18.4 7.2 7.4 7.4 0 0 0 1.4 0 5.4 5.4 0 0 0 2.7-.6h.1a6.5 6.5 0 0 0 2.8-4.5 59 59 0 0 1-17.2-6.9 92.2 92.2 0 0 1-16-12m-4.7-5l.3 3.3 1.7-.8-1-1-1-1.4m-8.9-.6a1.4 1.4 0 0 1 0 .2 1.3 1.3 0 0 0 0-.2m1.7-15.3a5.2 5.2 0 0 0-4.3 2l.7 1.9 2.9-1.7a.4.4 0 0 1 .1 0 .7.7 0 0 1 .4 0 1.4 1.4 0 0 1 .3.3 1.8 1.8 0 0 1 .3.5 1.5 1.5 0 0 1 0 .2l2 8 1.6-1a17.8 17.8 0 0 1-1.4-9.8 8.1 8.1 0 0 0-2.6-.4M462 799.4l3.8 10.9c.3.8.1 1.4-.3 1.7l7.6-4.4-11-8.2M471.3 796.5l5 10.7a3.3 3.3 0 0 1 .2.5 1.6 1.6 0 0 1 0 1.3.7.7 0 0 1-.3.2l7.3-4.2v-2l-12.2-6.5M479.1 791l4.4 7.3v-6l-4.4-1.3M462.6 709.7a5.4 5.4 0 0 0-2.7.7c-2.3 1.4-3.5 4.6-3 8.8v.5h.1v.5l.1.2v.4l.1.1V721.3l.1.1V721.7a59 59 0 0 1 2 14.4 36.2 36.2 0 0 1-2 12.3c-1.4 3.9-.2 9.6 2.7 14.5a25 25 0 0 0 2.7 3.7l.4.5.8.7a17.6 17.6 0 0 0 3.4 2.7 9.7 9.7 0 0 0 4.8 1.5 6 6 0 0 0 1.3-.2 5.1 5.1 0 0 0 1.5-.5 6 6 0 0 0 2.5-3.2l.5-1.3a11.9 11.9 0 0 1-2.4-1 17.9 17.9 0 0 1-3.4-2.8l-1.2-1.2a25.5 25.5 0 0 1-4.1-6.5c-1.8-4.2-2.4-8.6-1.3-11.7 2.6-7.1 2.6-16.6.1-26.6a15.4 15.4 0 0 1-.3-6.7 9.3 9.3 0 0 0-1.3-.3 7.4 7.4 0 0 0-1.3-.2"/>
  <path fill="#acbce0" d="M477.8 703.8l5.3 13-5.3-13"/>
  <path fill="#646668" d="M478.3 685.8a3.3 3.3 0 0 1 .3.3l-.2-.3"/>
  <path fill="url(#H)" d="M428.5 797l-1.5.9 1.3 1 .2-2m-6-6.8a1 1 0 0 1 0 1.2l-.8 1 .9-1a.9.9 0 0 0 0-1 1.7 1.7 0 0 0-.1-.2m60.9-7.7l-5.8 7.4-7.7 5.3-9.1 2.7h-10.2l-11-2.8-11.3-5.4-.2-.1-1.2 1.2 2 1.2v-.4l.5.7 1.9 1.1a1.4 1.4 0 0 1 .3.3 1.7 1.7 0 0 1 .3.4c.2.4.2.9 0 1l-.5.3 1.6 2.6.3.3 5.7 8.8a2.7 2.7 0 0 0 .9 1 1.3 1.3 0 0 0 .6.1c.5 0 .8-.4.8-1.1l-.8-10.2 5.8 7.2.5.6 5.1 6.3a2.5 2.5 0 0 0 .7.6 1.2 1.2 0 0 0 .6.1.7.7 0 0 0 .6-.2 1.4 1.4 0 0 0 .2-1.2l-2.3-10.7 8.5 8.2 4.3 4.2a1.2 1.2 0 0 0 .6.2c.7 0 1-.7.7-1.8l-3.7-11 11 8.3 2.1 1.6a1.2 1.2 0 0 0 .6.1.7.7 0 0 0 .4 0 .7.7 0 0 0 .3-.3 1.6 1.6 0 0 0 0-1.3 3.3 3.3 0 0 0-.2-.5l-5-10.7 12.2 6.5v-4.7l-4.4-7.3 4.4 1.3v-10M396.6 766l3 12.4a3 3 0 0 0 1.4 1.9 1.3 1.3 0 0 0 .6.2.7.7 0 0 0 .6-.4l1.3-2.2a51.2 51.2 0 0 0-6.9-11.9m-9.4-9l.8 7.3a3 3 0 0 0 1.4 2.2 1.2 1.2 0 0 0 .6.2.7.7 0 0 0 .4-.1.7.7 0 0 0 0-.1l3.7-3.5a37.7 37.7 0 0 0-6.9-6m90.5-71.7l-7.5 4.5 7.5 14 5.3 13V702l-4.6.6.6-14.8a2.5 2.5 0 0 0-.2-1.1 3.4 3.4 0 0 0-.3-.6 3.3 3.3 0 0 0-.3-.3 2.7 2.7 0 0 0-.5-.5"/>
  <path fill="#646668" d="M483.1 699.9l-4.6 2.7 4.6-.6v-2.1"/>
  <path fill="#646668" d="M483 685.6l-3.9 2.2-.6 14.8 4.6-2.7-.1-14.3"/>
  <path fill="#646668" d="M483 682.2l-5.2 3.1a2.7 2.7 0 0 1 .5.5l.3.3a3.4 3.4 0 0 1 .3.6 2.5 2.5 0 0 1 .2 1.1l3.9-2.2v-3.4M427.4 715.6l-8.2 5a20.9 20.9 0 0 0 3.3 5.6l.4.6a15.3 15.3 0 0 0 3.8 3.2 7.8 7.8 0 0 0 3.8 1.1 4.4 4.4 0 0 0 2.3-.5c1.5-1 2.4-2.7 2.5-5.2l-.4-.2a15.2 15.2 0 0 1-3.8-3.2 20.7 20.7 0 0 1-3.3-5.3l-.4-1M439.2 708.6l-2.2 1.2c4.3 6.2 7 13.7 7 20.3a15.1 15.1 0 0 1-2.2 8.5 2 2 0 0 0 .6-.4 10.4 10.4 0 0 0 2.4-4 17.6 17.6 0 0 0 1-5.7V728.1a37 37 0 0 0-6.6-19.6"/>
  <path fill="url(#I)" d="M416.9 773a.9.9 0 0 1 0 .3l-.4 1.5.4-1.5a.9.9 0 0 0 0-.3M388.7 740.2l2.6 5.3-2.6-5.3m71.2-29.8a5.4 5.4 0 0 1 2.8-.7 7.4 7.4 0 0 1 1.3.2 9.3 9.3 0 0 1 1.3.3 12 12 0 0 1 2.2 1c4.4 2.6 8.5 8.1 10 14.1 4 15.6 4 30.2.4 41.4l-.5 1.3a6 6 0 0 1-2.4 3.1 5.1 5.1 0 0 1-1.6.6 6 6 0 0 1-1.3.2 9.7 9.7 0 0 1-4.8-1.5 17.6 17.6 0 0 1-3.4-2.7l-.8-.7a24.7 24.7 0 0 1-3-4.1c-3-5-4.2-10.7-2.8-14.6a36.2 36.2 0 0 0 2-12.3 59 59 0 0 0-2-14.3v-.7l-.1-.2v-.2-.2l-.1-.1v-.4l-.1-.1v-.6c-.6-4.2.6-7.4 3-8.8m6.4-18.2l-27.2 16.4a37 37 0 0 1 6.6 19.6v.2a17.6 17.6 0 0 1-1 5.8 10 10 0 0 1-3.1 4.6 8.6 8.6 0 0 1-7.3 3.7 15.7 15.7 0 0 1-7.8-2.4 36.9 36.9 0 0 1-13.7-15.8l-16.6 10 2.1 4.2 2.9-1.6a.4.4 0 0 1 .2 0 .7.7 0 0 1 .3 0 1.3 1.3 0 0 1 .3.3 1.7 1.7 0 0 1 .3.4v.1l2 5a5.2 5.2 0 0 1 4.2-2 8.1 8.1 0 0 1 2.6.5 12 12 0 0 1 2.2 1 17.8 17.8 0 0 1 3.5 2.7 58.7 58.7 0 0 0 11.5 9 36 36 0 0 0 11.5 4.4 10.8 10.8 0 0 1 3.4 1.3c4.4 2.6 8.6 8.2 10 14.2a15.3 15.3 0 0 1 .4 6.7 6.5 6.5 0 0 1-2.8 4.4 5.4 5.4 0 0 1-2.8.8 7.4 7.4 0 0 1-1.4-.1 57.9 57.9 0 0 1-18.4-7.2h-.2l-1.8 3.5 2 1.2.2.1.1.1a50.5 50.5 0 0 0 24.8 7.5c14.2 0 25-8.6 29.2-24.1l.7-3.2v-28a127.1 127.1 0 0 0-17-43.3"/>
  <path fill="url(#J)" d="M437 709.8l-6.3 3.8a18.9 18.9 0 0 1 4.6 11.4v.4c-.1 2.5-1 4.3-2.5 5.1a4.4 4.4 0 0 1-2.3.6 7.8 7.8 0 0 1-3.8-1.1 15.7 15.7 0 0 1-4.2-3.7 20.9 20.9 0 0 1-3.3-5.7l-6.3 3.7a36.9 36.9 0 0 0 13.7 15.8 15.7 15.7 0 0 0 7.8 2.4 8.6 8.6 0 0 0 7.3-3.7l.1-.2a15.1 15.1 0 0 0 2.2-8.5c0-6.6-2.7-14.1-7-20.3"/>
  <path fill="#646668" d="M420.3 781.5a1 1 0 0 1 0 .8l-.7 1.4.7-1.4a1 1 0 0 0 0-.8m63.1-5.8A30.9 30.9 0 0 1 466 793a31.7 31.7 0 0 1-10.6 1.9h-.6c-7.6 0-16-2.3-25-7.3l-1.7 1.9h.2l11.3 5.5 11 2.7h10.2l9.1-2.6 7.7-5.3 5.8-7.4v-6.7M385 741.1l.6 1-.6-1m85.3-51.3l-1.7 1a140.8 140.8 0 0 1 14.6 32.5v-6.5l-5.4-13-7.5-14"/>
  <path fill="#646668" d="M420 781a1.8 1.8 0 0 1 .3.5 1.8 1.8 0 0 0-.3-.4m63.3-17.6l-.7 3.1c-4.3 15.6-15 24.2-29.2 24.2-7.5 0-15.9-2.4-24.8-7.5h-.1l-.2-.2-2-1.2-.6 1.2 4.4 1.6a1.7 1.7 0 0 1 .4.4 1.9 1.9 0 0 1 .3.4.9.9 0 0 1 0 1l-1 1c9 5 17.4 7.4 25 7.4h.6a31.7 31.7 0 0 0 10.6-2 30.9 30.9 0 0 0 17.4-17.2v-12.2m-92-18l.2.6-.3-.6m77.3-54.6l-2.2 1.3a127.1 127.1 0 0 1 16.8 43.3v-12.2a140.8 140.8 0 0 0-14.6-32.4M232.3 565.5l-.5.3-7.6 4.5a.7.7 0 0 1 .3-.1 1 1 0 0 1 .4 0l12.7 4-5.3-8.7M227.29999999999998 576.6999999999999l-8.2 4.7a.6.6 0 0 1 .3 0 .8.8 0 0 1 .1 0l12 .8-4.2-5.5M240 556.8a.7.7 0 0 0-.4 0l-.3.2-3.2 1.9-1.7 1-2.4 1.4-.6.3a.7.7 0 0 1 .3 0 1.2 1.2 0 0 1 .6.1l13.1 7-5-10.8a2.6 2.6 0 0 1-.3-1.1.9.9 0 0 0-.1 0m19.8-8.5a.7.7 0 0 0-.4 0l-.9.6-1.9 1-2.3 1.4-2.5 1.5-2.1-1.6a1.2 1.2 0 0 0-.6-.2.7.7 0 0 0-.4 0l-1.1.8-3 1.6-3.7 2.3-.4.2a.7.7 0 0 1 .4-.1 1 1 0 0 1 .3 0 1.5 1.5 0 0 1 .3.2l11.2 8.3 2 1.5-3.8-11c-.4-1 0-1.7.6-1.7a1.2 1.2 0 0 1 .7.2 2.4 2.4 0 0 1 .4.3l8.6 8.3.5.6 3 2.8.3.3-2.3-10.6c-.2-1 .2-1.5.8-1.5a1.2 1.2 0 0 1 .6.2 2.5 2.5 0 0 1 .7.6l11.4 14-.8-10.1c0-.8.3-1.2.8-1.2a1.3 1.3 0 0 1 .6.2 2.7 2.7 0 0 1 1 .9l4.3 6.8 5.7 8.7.8-9.2c0-.6.3-.8.7-.8a1.3 1.3 0 0 1 .7.2 2.8 2.8 0 0 1 1 1.2l8.4 16.5 2.3-8a.7.7 0 0 1 .7-.6 1.3 1.3 0 0 1 .6.2 3 3 0 0 1 1.2 1.5l1.3 3.3 5 13.6 3.8-6.5a.7.7 0 0 1 .7-.4 1.3 1.3 0 0 1 .6.2 3 3 0 0 1 1.3 1.9l4.1 16.8 5.1-4.8a.7.7 0 0 1 .5-.2 1.2 1.2 0 0 1 .6.2 3 3 0 0 1 1.4 2.1l1.2 11 8.2-4.6-1-9.6-.2-1.5a2.6 2.6 0 0 0 0-.6 3 3 0 0 0-.2-.3 3.2 3.2 0 0 0-.5-.8 2.6 2.6 0 0 0-.7-.5 1.3 1.3 0 0 0-.6-.2.7.7 0 0 0-.3 0l-1.8 1.1-3.9 2.3-1.7-7.3-1-3.9-1-4a3.2 3.2 0 0 0-.7-1.3 2.8 2.8 0 0 0-.3-.4 2 2 0 0 0-.3-.2 1.3 1.3 0 0 0-.6-.2.7.7 0 0 0-.4.1l-.2.2-5.2 3-5-13.3v-.2a3.3 3.3 0 0 0-.5-.8 2.5 2.5 0 0 0-.7-.5 1.3 1.3 0 0 0-.6-.2.7.7 0 0 0-.4 0l-5.3 3.2-5.7-11.2a3.3 3.3 0 0 0-.4-.7 2.5 2.5 0 0 0-.6-.5 1.3 1.3 0 0 0-.7-.1.7.7 0 0 0-.3 0l-5.6 3.3-5.7-8.8a3.2 3.2 0 0 0-.3-.4 2.4 2.4 0 0 0-.6-.5 1.3 1.3 0 0 0-.6-.2.7.7 0 0 0-.4.1l-5.9 3.5-4.3-5.3-.8-1-.1-.1a2.5 2.5 0 0 0-.6-.5 1.2 1.2 0 0 0-.6-.2.7.7 0 0 0-.4 0l-6 3.6-.5.3-.5-.4-3-3-.5-.4a2.4 2.4 0 0 0-.4-.3 1.2 1.2 0 0 0-.6-.2M225.3 604.4l-1 .6-1.2.7.1.1 2.2-1.3-.1-.1M241.1 597a11.3 11.3 0 0 0-4.5 1.4h-.1c-3.4 2-5.7 5.9-6.4 11.2l8.6 4.8a35.4 35.4 0 0 1-.6-6.2c0-4.7 1.1-8.5 3-11.2"/>
  <path fill="#646668" d="M277 576.4a11 11 0 0 0-6 2.5h-.1c-3.2 2.7-5.1 7.3-5.2 13.6v.1a43.2 43.2 0 0 0 4 17 55.3 55.3 0 0 0 3.5 6.8l.1.1c4 6.5 9.2 12 15 15.3a27.4 27.4 0 0 0 3.1 1.6l8.5-4.8a27.1 27.1 0 0 1-3.4-1.6 40.2 40.2 0 0 1-9.9-8.4 54.7 54.7 0 0 1-8.7-13.8 43 43 0 0 1-4-17.1c0-4.8 1.2-8.6 3-11.3"/>
  <path fill="url(#K)" d="M251.5 553c-.6 0-1 .8-.6 1.9l3.7 10.9-1.9-1.5-11.2-8.3a1.5 1.5 0 0 0-.3-.2 1 1 0 0 0-.3 0 .7.7 0 0 0-.3 0 1 1 0 0 0-.5 1 2.6 2.6 0 0 0 .3 1.1l5 10.7-13-6.9a1.2 1.2 0 0 0-.7-.1.7.7 0 0 0-.3 0c-.5.3-.6 1.4 0 2.4l.9 1.4v.1l5.3 8.7-12.7-4a1 1 0 0 0-.4 0 .7.7 0 0 0-.3 0c-.6.4-.6 1.6.2 2.7l3 3.8 4.2 5.5-12-.9a.8.8 0 0 0-.2 0c-1 .2-.8 2 .2 3l7.9 8.1-10.9 2.3c-1 .2-.7 2.2.5 3.2l8.2 6.5.1.1-2.2 1.3 6.9 3.8c.7-5.4 3-9.2 6.5-11.2a11.3 11.3 0 0 1 4.5-1.4h1.3a20.5 20.5 0 0 1 10.2 3 50.8 50.8 0 0 1 22.2 34.7l3.6 2a5.5 5.5 0 0 1 3.2-3.1 5.3 5.3 0 0 1 3.3-1 9.6 9.6 0 0 1 4.7 1.4l.4.2 1.4-.8a27.4 27.4 0 0 1-3.1-1.6c-5.8-3.3-11-8.9-15-15.2v-.2c-4.7-7.5-7.6-16-7.6-23.8v-.1c0-6.3 2-11 5.2-13.6a11 11 0 0 1 6-2.5h1.4a18 18 0 0 1 6.6 1.4 27 27 0 0 1 3.5 1.7 50 50 0 0 1 22.6 39.3 27.2 27.2 0 0 1-.3 3.7l19.1-10.6-1.2-11a3 3 0 0 0-1.4-2.2 1.2 1.2 0 0 0-.6-.2.7.7 0 0 0-.5.2l-5 4.8-4.2-16.8a3 3 0 0 0-1.3-1.9 1.3 1.3 0 0 0-.6-.2.7.7 0 0 0-.7.4l-3.7 6.5-5.1-13.6-1.3-3.3a3 3 0 0 0-1.2-1.5 1.3 1.3 0 0 0-.6-.2.7.7 0 0 0-.7.6l-2.3 8L291 565a2.8 2.8 0 0 0-1-1.2 1.3 1.3 0 0 0-.7-.2c-.4 0-.7.2-.7.8l-.8 9.2-5.7-8.7-4.4-6.8a2.7 2.7 0 0 0-.9-.9 1.3 1.3 0 0 0-.6-.2c-.5 0-.8.4-.8 1.2l.8 10.1-11.4-14a2.5 2.5 0 0 0-.7-.6 1.2 1.2 0 0 0-.6-.2c-.6 0-1 .5-.8 1.5l2.3 10.6-.3-.3-3-2.8-.5-.6-8.6-8.3a2.4 2.4 0 0 0-.4-.3 1.2 1.2 0 0 0-.7-.2"/>
  <path fill="#646668" d="M284.9 632.5a5.3 5.3 0 0 0-3.3 1 5.7 5.7 0 0 1 2-.2 9.6 9.6 0 0 1 4.7 1.4l.3.2 1.4-.7-.4-.2a9.6 9.6 0 0 0-4.7-1.5"/>
  <path fill="#646668" d="M283.5 633.3a5.7 5.7 0 0 0-1.9.3 5.5 5.5 0 0 0-3.2 3l3.6 2 6.6-3.7-.3-.2a9.6 9.6 0 0 0-4.8-1.4M368.7 803.2l-2.7 2.5 2.9-1.7-.2-.8M374.1 809.4l-2 3.4a.4.4 0 0 1 0 .2l2.8-1.7-.8-1.9M380 814.7l-1.2 4.2a.4.4 0 0 1-.2.2l2.8-1.6-1.4-2.8M386 818.8l-.3 4.8a.5.5 0 0 1-.2.4l2.9-1.7-2.3-3.5M398 823l.2 1 1 4.6c0 .3 0 .6-.2.7l3.4-2-4.4-4.3m5.4 0l2 5.6c.1.4 0 .7-.1.9l3.9-2.3-5.8-4.3m-11.3-1.3l.4 5.3a.6.6 0 0 1 0 .5.4.4 0 0 1-.2 0l3.1-1.8-3.3-4m-6.4-80.9l-.7.4.6 1v-1.4m10.7-6.4l-8.1 5 .5 1 2.6 5.2.3.6 1.3-4.2a.4.4 0 0 1 .3-.3.7.7 0 0 1 .4.1 1.6 1.6 0 0 1 .6.8l3.3 8.9 2-3.4a.4.4 0 0 1 .3-.2.7.7 0 0 1 .3 0 1.6 1.6 0 0 1 .7 1l2.2 8.8 2.7-2.5a.4.4 0 0 1 .2 0 .6.6 0 0 1 .3 0 1.6 1.6 0 0 1 .7 1 1.3 1.3 0 0 1 0 .2l1 8.4 3.2-1.6a.4.4 0 0 1 .2 0 .7.7 0 0 1 .3.1 1.4 1.4 0 0 1 .4.4 1.8 1.8 0 0 1 .2.3 1.3 1.3 0 0 1 .2.6l-.1 2-.3 5.7 3.8-.5a.7.7 0 0 1 .4.1 1.7 1.7 0 0 1 .7 1.2.9.9 0 0 1 0 .3l-.4 1.5-1.2 5.3 4 .5a.6.6 0 0 1 .3.1 1.3 1.3 0 0 1 .4.4 1.8 1.8 0 0 1 .2.3 1 1 0 0 1 .1.9l-.7 1.4-2 4.2 4.2 1.6a1.6 1.6 0 0 1 .3.2 1.8 1.8 0 0 1 .4.4 1.7 1.7 0 0 1 0 .3.9.9 0 0 1 0 .9l-.8 1-3 3.2 4.4 2.6a1.3 1.3 0 0 1 .3.3 1.8 1.8 0 0 1 .3.4 1.5 1.5 0 0 1 0 .2c.2.3.1.7-.1.8l-4.9 2.8 4.4 3.5c.6.5.8 1.5.2 1.7l-5.6 1.2 4 4.2c.6.6.7 1.6.1 1.6l-6.3-.5 3.7 4.9c.5.6.5 1.4 0 1.4a.6.6 0 0 1-.2 0l-6.7-2 .3.3 3 5c.4.6.2 1.2-.2 1.2a.6.6 0 0 1-.3 0l-6.8-3.7 2.6 5.6v.1c.2.5.2.8 0 1l8.1-4.8a.5.5 0 0 0 .2-.4l4.6-2.6c.2-.2.3-.6.1-1l-.1-.3-.5-.8 4.3-2.5c.2-.1.3-.5 0-1a1.6 1.6 0 0 0-.2-.3l-1.5-2 4.3-2.5c.3-.1.3-.6.1-1a1.8 1.8 0 0 0-.3-.5l-2.8-2.9 4.5-2.6c.2-.1.2-.6 0-1a1.7 1.7 0 0 0-.2-.4l-.2-.2-1.4-1.1-.4-.3-1.2-1-1.3-1 1.5-1 2.9-1.6.4-.3c.3-.1.3-.6.1-1a1.7 1.7 0 0 0-.3-.4 1.4 1.4 0 0 0-.3-.3l-2-1.1-.4-.3-2-1.2 1.2-1.2 1.7-2 1-1a.9.9 0 0 0 0-1 1.9 1.9 0 0 0-.3-.4 1.7 1.7 0 0 0-.4-.4l-4.4-1.6.6-1.2 1.8-3.6.4-.8a1 1 0 0 0 0-.9 2 2 0 0 0-.3-.4 1.2 1.2 0 0 0-.3-.3.7.7 0 0 0-.3 0l-4.1-.6 1.6-6.8a1.2 1.2 0 0 0-.1-.8 1.8 1.8 0 0 0-.3-.4 1.3 1.3 0 0 0-.3-.3.7.7 0 0 0-.3 0 .5.5 0 0 0-.1 0l-3.8.4.3-5.8v-1.9a1.3 1.3 0 0 0 0-.6 1.6 1.6 0 0 0-.3-.4 1.3 1.3 0 0 0-.3-.3.6.6 0 0 0-.4-.1.4.4 0 0 0-.1 0l-1.6.8-1.7.8-.3-3.2-.6-5.2a1.6 1.6 0 0 0-.1-.5 1.7 1.7 0 0 0-.3-.4 1.3 1.3 0 0 0-.3-.3.7.7 0 0 0-.4 0 .4.4 0 0 0-.2 0l-1.3.8-1.6.9-2-8a1.5 1.5 0 0 0 0-.2 1.8 1.8 0 0 0-.3-.5 1.4 1.4 0 0 0-.3-.2.7.7 0 0 0-.4-.1.4.4 0 0 0-.1 0l-2.9 1.7-.7-2-1.9-5a1.7 1.7 0 0 0-.3-.5 1.3 1.3 0 0 0-.3-.3.7.7 0 0 0-.3 0 .4.4 0 0 0-.2 0l-2.9 1.6-2-4.2"/>
  <path fill="#646668" d="M375.7 753.3a10.6 10.6 0 0 0-4.6 1.4h-.1c-3.5 2.1-5.8 6.4-6 12.5V767.5h-.1V768.4a32.8 32.8 0 0 0 .5 5.6v.1a44.3 44.3 0 0 0 3.1 10 51.2 51.2 0 0 0 3.8 7.1v.1a44.7 44.7 0 0 0 10 11v.1a31.8 31.8 0 0 0 3.4 2.3 19 19 0 0 0 9.5 2.9 10.8 10.8 0 0 0 5.5-1.4 10.6 10.6 0 0 0 3.5-3.4h-.8a19 19 0 0 1-9.4-2.9 37.3 37.3 0 0 1-9.2-7.7 50.7 50.7 0 0 1-8-12.9 39.9 39.9 0 0 1-3.7-15.8 18.4 18.4 0 0 1 2.6-10"/>
  <path fill="url(#L)" d="M375.7 753.3h.8a19 19 0 0 1 9.4 2.9l1.4.9a37.7 37.7 0 0 1 7 6l.7.8 1.7 2.1a51.2 51.2 0 0 1 7 12l.4 1.1v.1a38.3 38.3 0 0 1 2.7 13.4 18.4 18.4 0 0 1-2.6 10 10.6 10.6 0 0 1-3.5 3.5 10.8 10.8 0 0 1-5.5 1.4 19 19 0 0 1-9.4-2.9 31.7 31.7 0 0 1-3.5-2.3 44.7 44.7 0 0 1-10-11v-.1a47.8 47.8 0 0 1-6.9-17.1v-.1a32.8 32.8 0 0 1-.5-5.7V767.1c.3-6.1 2.6-10.4 6.2-12.5a10.6 10.6 0 0 1 4.6-1.4m12.5-14l-2.5 1.4-.1 1.3-.6-.9-26.1 15.7-.2 31.9 1-.1-.4 7.7a1.6 1.6 0 0 0 .7 1.3.7.7 0 0 0 .3.1.4.4 0 0 0 .2 0l3.3-1.6.9 8.4a1.6 1.6 0 0 0 .7 1.2.6.6 0 0 0 .3 0 .4.4 0 0 0 .2 0 .4.4 0 0 0 .1 0l2.7-2.5.2.8 2 8a1.6 1.6 0 0 0 .6 1 .7.7 0 0 0 .3 0 .4.4 0 0 0 .2 0 .4.4 0 0 0 .2-.2l2-3.4.7 2 2.6 6.9a1.6 1.6 0 0 0 .6.8.7.7 0 0 0 .3 0 .4.4 0 0 0 .2 0 .4.4 0 0 0 .2-.2l1.2-4.2 1.4 2.8 3 5.8a1.5 1.5 0 0 0 .5.7.7.7 0 0 0 .4 0 .4.4 0 0 0 .2 0 .5.5 0 0 0 .2-.4l.4-4.8 2.3 3.5 3 4.6a1.4 1.4 0 0 0 .4.5.7.7 0 0 0 .3 0 .4.4 0 0 0 .3 0 .6.6 0 0 0 .1-.5l-.4-5.3 3.3 4 2.7 3.3a1.4 1.4 0 0 0 .4.3.6.6 0 0 0 .3.1c.3 0 .5-.2.4-.7l-1-4.6-.2-1 4.4 4.3 2 2 .3.2a.6.6 0 0 0 .3 0 .4.4 0 0 0 .3 0c.1-.2.2-.5 0-.9l-1.9-5.7 5.8 4.3 1.1.8a.6.6 0 0 0 .3.1.4.4 0 0 0 .2 0c.3-.2.3-.5.2-1h-.1l-2.6-5.7 6.8 3.6a.6.6 0 0 0 .3.1c.4 0 .6-.6.2-1.3l-3-5-.3-.3 6.7 2a.6.6 0 0 0 .2.1c.5 0 .5-.8 0-1.4l-3.7-4.9 6.3.4c.6 0 .5-1 0-1.5l-4.1-4.2 5.6-1.2c.6-.2.4-1.2-.2-1.7l-4.4-3.5 4.9-2.8c.2-.1.3-.5.1-.8a1.6 1.6 0 0 0-.6-.9l-4.4-2.6 3-3.3.9-1a1 1 0 0 0-.1-1 1.8 1.8 0 0 0-.4-.5 1.6 1.6 0 0 0-.3-.2l-4.3-1.6 2.1-4.2.7-1.4a1 1 0 0 0 0-.8 1.8 1.8 0 0 0-.3-.4 1.3 1.3 0 0 0-.4-.4.6.6 0 0 0-.2 0l-4.1-.6 1.2-5.3.4-1.5a.9.9 0 0 0 0-.3 1.7 1.7 0 0 0-.7-1.1.7.7 0 0 0-.4-.2l-3.8.5.3-5.8v-1.9a1.5 1.5 0 0 0-.3-1 1.4 1.4 0 0 0-.4-.3.7.7 0 0 0-.3-.1.4.4 0 0 0-.2 0l-3.2 1.6-1-8.4a1.4 1.4 0 0 0 0-.2 1.6 1.6 0 0 0-.7-1 .6.6 0 0 0-.3 0 .4.4 0 0 0-.2 0l-2.7 2.5-2.2-8.7a1.6 1.6 0 0 0-.7-1 .7.7 0 0 0-.3-.1.4.4 0 0 0-.3.2l-2 3.4-3.3-8.9a1.6 1.6 0 0 0-.6-.8.7.7 0 0 0-.4 0 .4.4 0 0 0-.3.2l-1.3 4.2-.3-.6-2.6-5.3-.5-1"/>
  <path fill="#646668" d="M374.5 558.6l-3.7 2.1 3.7-2v-.1m.5-.3"/>
  <path fill="#646668" d="M374.2 557.5l-3.4 3.2 3.7-2.1-.3-1m.1-.1l.7.8-.7-.8M381.2 565.5l-2.5 4.3a.5.5 0 0 1-.2.2l3.6-2.1-1-2.4m.2-.1l1.8 1.8-1.8-1.8M388.6 572.1l-1.6 5.3a.5.5 0 0 1-.2.4l3.6-2.1-1.8-3.6m.1 0l3.5 2.5-3.5-2.5M377.2 550.3l2.8 3.6 1.9 2.1a63 63 0 0 0 10 9.2l.1-6.5-14.8-8.4M400.8 563.7v6.4l5.4-3.1v-.2l-5.4-3.1"/>
  <path fill="url(#M)" d="M371.5 547a74.3 74.3 0 0 0 24.3 24.8l.3.1 2.5 1.4 4.2-2.4-2-.8v-6.4l-8.8-5v6.5a62.8 62.8 0 0 1-10.1-9.2L380 554l-2.8-3.6-5.7-3.2"/>
  <path fill="#646668" d="M368.4 545.3a80.1 80.1 0 0 0 27.4 28.9l.2.1h.2l.2.2 2.2-1.2-2.5-1.4-.3-.1a74.3 74.3 0 0 1-24.3-24.7l-3-1.8"/>
  <path fill="url(#N)" d="M365.2 543.5a101.3 101.3 0 0 0 9.1 14l.7.8a90.3 90.3 0 0 0 6.3 7.1l1.8 1.8c1.8 1.8 3.7 3.4 5.6 4.9l3.5 2.5 1.8 1.2 2.4-1.3-.2-.1-.1-.1-.3-.1a80.1 80.1 0 0 1-27.4-28.9l-3.2-1.8"/>
  <path fill="url(#O)" d="M362.7 542l-.3 6.9a2 2 0 0 0 .9 1.6.8.8 0 0 0 .4.1.5.5 0 0 0 .2 0l4.1-2 1.2 10.7a2 2 0 0 0 1 1.4.8.8 0 0 0 .3.2.5.5 0 0 0 .3-.1l3.4-3.3.3 1.1 2.5 10a2 2 0 0 0 .8 1.3.9.9 0 0 0 .4.1.5.5 0 0 0 .3 0 .5.5 0 0 0 .2-.2l2.5-4.3.9 2.4 3.3 8.8a2 2 0 0 0 .8 1 .9.9 0 0 0 .4.1.5.5 0 0 0 .2 0 .5.5 0 0 0 .2-.4l1.6-5.3 1.8 3.6.8 1.7 2.8-1.6-1.8-1.2-3.5-2.5a75.4 75.4 0 0 1-5.6-4.9l-1.8-1.8a90.2 90.2 0 0 1-6.3-7l-.7-1a101.3 101.3 0 0 1-9.1-14l-2.5-1.4m-5.9-3.3a2 2 0 0 0 .8.9.8.8 0 0 0 .4.1h.4l-1.6-1"/>
  <g clip-path="url(#P)" style="clip-path:url(#an)">
    <path fill="#ed695d" d="M63.3 736.8l-16.2 8.8c-1.4.7-1.4 3.1 0 5.4a6.8 6.8 0 0 0 2.3 2.6 2.4 2.4 0 0 0 2.4.3l16.1-8.7a99.3 99.3 0 0 1-4.6-8.4"/>
    <path fill="#ed685d" d="M49.4 753.6A6.8 6.8 0 0 1 47 751c-1.3-2.3-1.3-4.7 0-5.4l16.3-8.8c1.4 2.9 3 5.7 4.6 8.4l-16.1 8.7a2.4 2.4 0 0 1-2.4-.3m14-18l-16.8 9.1c-1.6.9-1.7 3.8-.1 6.6a8.3 8.3 0 0 0 3 3.1 3 3 0 0 0 2.8.3l16.7-9-.3-.4a95.8 95.8 0 0 1-5-9.1l-.3-.5"/>
    <path fill="#ed695d" d="M152 788l-13.8 7.5-13.7-23.2a19 19 0 0 1-4.7 3l16 27a7.2 7.2 0 0 0 2.4 2.5 2.4 2.4 0 0 0 2.3.3l16.2-8.7a96.9 96.9 0 0 1-4.7-8.3"/>
    <path fill="#ed685d" d="M138.2 795.5l13.8-7.4c1.4 2.8 3 5.6 4.7 8.3l-16.2 8.7a2.4 2.4 0 0 1-2.3-.3 7.2 7.2 0 0 1-2.5-2.5l-15.9-27a19 19 0 0 0 4.7-3l13.7 23.2m14-8.6l-14 7.5-13.7-23.4-.3.2a18.6 18.6 0 0 1-5.1 3.3l-.3.1 16.4 28a8.6 8.6 0 0 0 3 3 3 3 0 0 0 2.8.4l16.7-9-.3-.5a95.7 95.7 0 0 1-5-9l-.3-.6"/>
    <path fill="#ed695d" d="M94 707c9 5.1 16 17.5 16 27.6s-7.2 14.3-16 9.2-16-17.5-16-27.6 7.2-14.3 16-9.2m0-8.2c-12.7-7.3-23-1.4-23.1 13.2s10.3 32.6 23 40 23.2 1.4 23.2-13.3-10.3-32.5-23-39.9"/>
    <path fill="#ed685d" d="M94 752c-12.8-7.4-23.1-25.3-23.1-40s10.4-20.5 23.2-13.2 23 25.3 23 40S106.7 759.2 94 752m.2-54c-13.1-7.6-23.9-1.5-24 13.6A52.4 52.4 0 0 0 94 752.8c13.2 7.6 24 1.5 24-13.6A52.4 52.4 0 0 0 94 698"/>
    <path fill="#ed695d" d="M182.8 758.2c8.8 5.1 16 17.5 16 27.7s-7.3 14.2-16.1 9.1c-8.8-5-16-17.5-16-27.6s7.3-14.3 16.1-9.2m0-8.2c-12.7-7.3-23.1-1.4-23.2 13.3s10.3 32.5 23 39.9c12.8 7.4 23.2 1.4 23.3-13.2s-10.3-32.6-23-40"/>
    <path fill="#ed685d" d="M182.7 803.2c-12.8-7.4-23.1-25.3-23-40s10.4-20.5 23.1-13.2c12.8 7.4 23.1 25.3 23 40s-10.4 20.6-23.1 13.2m.1-54c-13.1-7.6-23.8-1.4-23.9 13.7a52.4 52.4 0 0 0 23.8 41.1c13.1 7.6 23.8 1.5 23.9-13.6a52.4 52.4 0 0 0-23.8-41.2"/>
    <path fill="#ed695d" d="M213 823.2a19.2 19.2 0 0 1-5 2.5l13.4 23.7-13.4 8c1.8 2.6 3.4 5.4 4.9 8.2l15.6-9.4a2.5 2.5 0 0 0 1-2.2 6.8 6.8 0 0 0-1-3.3L213 823.2"/>
    <path fill="#ed685d" d="M212.9 865.6a96.8 96.8 0 0 0-4.9-8.2l13.4-8-13.4-23.7a19.2 19.2 0 0 0 5-2.5l15.5 27.5a6.8 6.8 0 0 1 1 3.3 2.5 2.5 0 0 1-1 2.2l-15.6 9.4m0-43.6l-.2.2a18.7 18.7 0 0 1-5.4 2.7l-.3.1 13.4 23.8-13.5 8 .3.5a95 95 0 0 1 5.4 9l.3.5L229 857a3 3 0 0 0 1.2-2.7 8.2 8.2 0 0 0-1.2-4L213 822"/>
    <path fill="#ed695d" d="M182.5 859.5c8.9 5 16 17.4 16 27.6 0 10.2-7.3 14.2-16 9.1a35.2 35.2 0 0 1-16-27.6c0-10.1 7.2-14.2 16-9.1m0-8.2c-12.7-7.4-23.1-1.5-23.2 13.2a50.9 50.9 0 0 0 23 40c12.8 7.3 23.2 1.4 23.3-13.3a50.9 50.9 0 0 0-23-40"/>
    <path fill="#ed685d" d="M182.4 904.4a50.9 50.9 0 0 1-23-39.9c0-14.7 10.4-20.6 23.1-13.2a50.9 50.9 0 0 1 23 39.9c0 14.7-10.4 20.6-23.1 13.2m.1-54c-13.1-7.5-23.8-1.4-23.9 13.7a52.4 52.4 0 0 0 23.8 41.1c13.1 7.6 23.9 1.5 23.9-13.6a52.4 52.4 0 0 0-23.8-41.1"/>
  </g>
  <path fill="url(#Q)" d="M358.9 757.1l130.8-78.6v153.1L358 908.9l.9-151.8z" opacity=".5"/>
  <path fill="url(#R)" d="M352.1 23v559.8l-48.8-21.9V0l23.6 39.9L352.1 23z" opacity=".3"/>
  <path fill="url(#e)" d="M303.3 288.9l23.6 39.9 25.2-16.9v32.7l-25.2 16.9-23.6-38.8v-33.8z" opacity=".2"/>
  <path fill="url(#S)" d="M303.3 241.2l23.6 39.9 25.2-16.9v32.7l-25.2 16.9-23.6-38.8v-33.8z"/>
  <path fill="url(#T)" d="M303.3 193l23.6 39.9 25.2-16.9v32.7l-25.2 16.9-23.6-38.8V193z" opacity=".6"/>
  <path fill="url(#U)" d="M303.3 336l23.6 40 25.2-17v32.8l-25.2 16.9-23.6-38.8V336z" opacity=".6"/>
  <path fill="url(#V)" d="M303.3 95.9l23.6 39.9 25.2-16.9v32.7l-25.2 17-23.6-38.9V95.9z" opacity=".3"/>
  <path fill="url(#W)" d="M303.3 48.2l23.6 40 25.2-17V104l-25.2 16.9-23.6-38.8V48.2z" opacity=".1"/>
  <path fill="url(#X)" d="M303.3 0l23.6 39.9L352.1 23v32.7l-25.2 16.9-23.6-38.8V0z" opacity=".1"/>
  <path fill="url(#Y)" d="M303.3 143.1l23.6 39.9 25.2-16.9v32.7l-25.2 16.9-23.6-38.8v-33.8z" opacity=".2"/>
  <path fill="url(#Z)" d="M303.3 480l23.6 39.9 25.2-16.9v32.7l-25.2 16.9-23.6-38.8V480z" opacity=".6"/>
  <path fill="url(#aa)" d="M303.3 432.3l23.6 39.9 25.2-16.9V488l-25.2 16.9-23.6-38.8v-33.8z" opacity=".2"/>
  <path fill="url(#ab)" d="M303.3 384l23.6 40 25.2-16.9v32.7l-25.2 16.9-23.6-38.8V384z"/>
  <path fill="url(#ac)" d="M303.3 527.1l23.6 39.9 25.2-16.9v32.7l-25.2 16.9-23.6-38.8v-33.8z"/>
  <path fill="url(#ad)" d="M228.2 605.2V21.4l50.9 22.9v584.9l-24.7-41.6-26.2 17.6z" opacity=".3"/>
  <path fill="url(#f)" d="M279.1 327.9l-24.7-41.6-26.2 17.6v-34.1l26.2-17.6 24.7 40.5v35.2z" opacity=".2"/>
  <path fill="url(#ae)" d="M279.1 377.7L254.4 336l-26.2 17.7v-34.2l26.2-17.6 24.7 40.5v35.3z"/>
  <path fill="url(#af)" d="M279.1 428l-24.7-41.7-26.2 17.7v-34.1l26.2-17.7 24.7 40.5V428z" opacity=".6"/>
  <path fill="url(#ag)" d="M279.1 278.8l-24.7-41.7-26.2 17.7v-34.1l26.2-17.7 24.7 40.5v35.3z" opacity=".6"/>
  <path fill="url(#ah)" d="M279.1 529.2l-24.7-41.6-26.2 17.6v-34.1l26.2-17.7 24.7 40.5v35.3z"/>
  <path fill="url(#ai)" d="M279.1 578.9l-24.7-41.6-26.2 17.6v-34.1l26.2-17.6 24.7 40.4v35.3z" opacity=".6"/>
  <path fill="url(#aj)" d="M279.1 629.2l-24.7-41.6-26.2 17.6v-34.1l26.2-17.6 24.7 40.4v35.3z" opacity=".2"/>
  <path fill="url(#ak)" d="M279.1 480l-24.7-41.6-26.2 17.6v-34.1l26.2-17.6 24.7 40.5V480z" opacity=".2"/>
  <path fill="url(#al)" d="M279.1 128.7L254.4 87l-26.2 17.7V70.6l26.2-17.7 24.7 40.5v35.3z" opacity=".1"/>
  <path fill="url(#am)" d="M279.1 178.4l-24.7-41.6-26.2 17.6v-34.1l26.2-17.6 24.7 40.4v35.3z" opacity=".2"/>
  <path fill="url(#an)" d="M279.1 228.7l-24.7-41.6-26.2 17.6v-34.1l26.2-17.6 24.7 40.4v35.3z"/>
  <path fill="url(#ao)" d="M279.1 79.5l-24.7-41.6-26.2 17.6V21.4l26.2-17.6 24.7 40.5v35.2z" opacity=".1"/>
</svg>