<svg xmlns="http://www.w3.org/2000/svg" xmlns:xlink="http://www.w3.org/1999/xlink" viewBox="0 0 566.10191 320.83785"><defs><linearGradient id="a" x1="250.03941" y1="81.74682" x2="295.76223" y2="51.2649" gradientUnits="userSpaceOnUse"><stop offset="0" stop-color="#717070"/><stop offset="1" stop-color="#bcbcbb"/></linearGradient><linearGradient id="b" x1="290.82743" y1="89.93349" x2="214.06946" y2="92.42738" gradientUnits="userSpaceOnUse"><stop offset="0.40273" stop-color="#bcbcbb"/><stop offset="0.87935" stop-color="#717070"/></linearGradient><linearGradient id="c" x1="135.31292" y1="40.11833" x2="296.83673" y2="55.66778" xlink:href="#a"/><linearGradient id="e" x1="154.66453" y1="286.25489" x2="60.57003" y2="289.31204" gradientUnits="userSpaceOnUse"><stop offset="0.40273" stop-color="#7786c2"/><stop offset="0.87935" stop-color="#5354a0"/></linearGradient><linearGradient id="f" x1="247.1073" y1="286.24916" x2="156.90262" y2="289.17993" xlink:href="#e"/><linearGradient id="g" x1="264.93816" y1="240.46878" x2="222.89663" y2="241.83472" xlink:href="#e"/><linearGradient id="h" x1="78.02497" y1="247.55448" x2="137.90294" y2="247.55448" xlink:href="#e"/><linearGradient id="i" x1="264.30573" y1="242.90668" x2="288.39513" y2="242.90668" xlink:href="#e"/><linearGradient id="j" x1="286.94594" y1="239.99476" x2="62.22612" y2="247.29597" gradientUnits="userSpaceOnUse"><stop offset="0" stop-color="#dadada"/><stop offset="1" stop-color="#f6f6f6"/></linearGradient><clipPath id="k" transform="translate(-0.01296)"><polygon points="137.82 238.392 168.92 220.318 211.002 244.614 179.901 262.687 137.82 238.392" style="fill:none"/></clipPath><linearGradient id="l" x1="263.56286" y1="241.41292" x2="263.56286" y2="241.41292" xlink:href="#e"/><linearGradient id="m" x1="0.01915" y1="152.77211" x2="78.45992" y2="152.77211" xlink:href="#e"/><linearGradient id="n" x1="213.02883" y1="125.03352" x2="79.00552" y2="125.03352" xlink:href="#e"/><linearGradient id="o" x1="0.01296" y1="110.9056" x2="213.29754" y2="110.9056" xlink:href="#j"/><linearGradient id="p" x1="150.74552" y1="169.06557" x2="79.4042" y2="171.38347" xlink:href="#e"/><clipPath id="q" transform="translate(-0.01296)"><polygon points="45.812 123.193 76.912 105.12 118.987 129.412 87.886 147.485 45.812 123.193" style="fill:none"/></clipPath><linearGradient id="r" x1="277.28722" y1="210.10414" x2="489.1481" y2="210.10414" xlink:href="#e"/><linearGradient id="s" x1="413.71251" y1="150.01492" x2="438.37883" y2="150.01492" gradientUnits="userSpaceOnUse"><stop offset="0" stop-color="#a0a09f"/><stop offset="1" stop-color="#e5e4e4"/></linearGradient><linearGradient id="t" x1="281.07616" y1="181.53765" x2="304.71212" y2="181.53765" xlink:href="#e"/><linearGradient id="u" x1="277.31712" y1="182.1472" x2="489.14809" y2="182.1472" xlink:href="#j"/><clipPath id="v" transform="translate(-0.01296)"><polygon points="316.53 194.883 346.216 177.631 386.369 200.813 356.683 218.065 316.53 194.883" style="fill:none"/></clipPath><linearGradient id="w" x1="706.51424" y1="198.39351" x2="783.77568" y2="198.39351" gradientTransform="matrix(-1, 0, 0, 0.86742, 1272.62911, -22.37607)" gradientUnits="userSpaceOnUse"><stop offset="0" stop-color="#bcbcbb"/><stop offset="0.87935" stop-color="#717070"/></linearGradient><linearGradient id="x" x1="417.90147" y1="102.37667" x2="441.53742" y2="102.37667" gradientTransform="matrix(1, 0, 0, 1, 0, 0)" xlink:href="#w"/><linearGradient id="y" x1="454.74927" y1="157.04715" x2="454.87363" y2="157.04715" gradientUnits="userSpaceOnUse"><stop offset="0" stop-color="#bcbcbb"/><stop offset="1" stop-color="#717070"/></linearGradient><linearGradient id="z" x1="706.51509" y1="-1257.48007" x2="863.34282" y2="-1257.48007" gradientTransform="translate(1272.62957 -1136.58706) rotate(180)" xlink:href="#y"/></defs><title>Puzzle</title><g style="isolation:isolate"><polygon points="157.863 63.337 157.833 74.181 130.575 58.443 130.607 47.601 157.863 63.337" style="fill:#888989"/><g style="isolation:isolate"><g style="isolation:isolate"><path d="M208.68949,66.48233l-.03078,10.84338c.01054-3.6936-3.13611-7.92215-9.04689-11.33624-9.699-5.599-23.169-6.87927-30.0874-2.8596-2.70034,1.56882-4.00319,3.71614-4.0092,6.08135l.03009-10.84185c.00677-2.36674,1.31032-4.51252,4.01066-6.08289,6.91758-4.01966,20.3876-2.73935,30.08662,2.86115,5.91155,3.41255,9.05667,7.64264,9.0469,11.3347Z" transform="translate(-0.01296)" style="fill:#fff"/></g></g><g style="isolation:isolate"><g style="isolation:isolate"><path d="M165.67156,60.01029l-.03008,10.84185a3.84309,3.84309,0,0,1-2.15263,3.32846,6.22051,6.22051,0,0,1-5.64327,0l.03078-10.84339a6.21565,6.21565,0,0,0,5.64335,0,3.83883,3.83883,0,0,0,2.15185-3.32692Z" transform="translate(-0.01296)" style="fill:#fff"/></g></g><path d="M267.75914,63.36729a1.98084,1.98084,0,0,0-1.15929,1.62292l-.03154,10.84331a1.97972,1.97972,0,0,1,1.16006-1.62292l27.1083-15.75406.03085-10.84184Z" transform="translate(-0.01296)" style="fill:url(#a)"/><g style="isolation:isolate"><g style="isolation:isolate"><path d="M184.33331,78.61195l-.03008,10.84338a1.80093,1.80093,0,0,1-1.06389-1.48465l.03008-10.84331a1.80232,1.80232,0,0,0,1.06389,1.48458Z" transform="translate(-0.01296)" style="fill:#fff"/></g></g><path d="M282.03839,87.586c-9.63524,5.599-22.99855,6.50212-29.96344,2.48246a7.45544,7.45544,0,0,1-3.51627-3.70261l.05255-5.20981a3.13023,3.13023,0,0,0-1.79272-2.69134,6.14937,6.14937,0,0,0-5.34052.17588L212.99844,95.19108l-.03,10.84185,28.478-16.549a5.6109,5.6109,0,0,1,5.08955.00154,3.87763,3.87763,0,0,1,1.35094,1.22615l-.012,4.38934c-.00754,2.40729,1.31786,4.59216,4.07752,6.18653,6.96413,4.0212,20.41992,2.73935,30.05585-2.85961,5.81392-3.37954,8.90941-7.55847,8.92-11.22653l.03-10.84184C290.94781,80.026,287.85377,84.20644,282.03839,87.586Z" transform="translate(-0.01296)" style="fill:url(#b)"/><polygon points="212.985 95.191 212.955 106.033 184.29 89.455 184.32 78.612 212.985 95.191" style="fill:#888989"/><path d="M294.91861,47.57561l-27.10915,15.7526c-1.55375.90309-1.54475,2.36674.01954,3.26837a12.80058,12.80058,0,0,0,6.74555,1.23215c4.80335-.24043,9.231.4944,12.35505,2.29912,6.96344,4.01966,4.795,11.81856-4.84012,17.41759-9.63593,5.6005-23.09095,6.88073-30.05516,2.85961-3.55234-2.05115-4.72664-5.08209-3.74615-8.30384a2.96208,2.96208,0,0,0-1.67023-3.49672,5.60754,5.60754,0,0,0-5.09032-.003L213.04952,95.152,184.38439,78.57294c-1.41249-.81445-1.42-2.13385-.01654-2.94977a10.486,10.486,0,0,1,6.03627-.95425c5.56148.57556,10.3813.02408,13.91033-2.02707,6.91989-4.0212,5.07756-11.93428-4.62147-17.53331-9.69909-5.60049-23.16834-6.88073-30.08669-2.86106-3.10081,1.80317-4.36,4.36672-3.92727,7.14824a3.75479,3.75479,0,0,1-2.10823,3.90241,6.21731,6.21731,0,0,1-5.64412,0L130.67111,47.56207,212.51312,0Z" transform="translate(-0.01296)" style="fill:url(#c)"/><path d="M294.91861,47.57561l-27.10915,15.7526c-1.55375.90309-1.54475,2.36674.01954,3.26837a12.80058,12.80058,0,0,0,6.74555,1.23215c4.80335-.24043,9.231.4944,12.35505,2.29912,6.96344,4.01966,4.795,11.81856-4.84012,17.41759-9.63593,5.6005-23.09095,6.88073-30.05516,2.85961-3.55234-2.05115-4.72664-5.08209-3.74615-8.30384a2.96208,2.96208,0,0,0-1.67023-3.49672,5.60754,5.60754,0,0,0-5.09032-.003L213.04952,95.152,184.38439,78.57294c-1.41249-.81445-1.42-2.13385-.01654-2.94977a10.486,10.486,0,0,1,6.03627-.95425c5.56148.57556,10.3813.02408,13.91033-2.02707,6.91989-4.0212,5.07756-11.93428-4.62147-17.53331-9.69909-5.60049-23.16834-6.88073-30.08669-2.86106-3.10081,1.80317-4.36,4.36672-3.92727,7.14824a3.75479,3.75479,0,0,1-2.10823,3.90241,6.21731,6.21731,0,0,1-5.64412,0L130.67111,47.56207,212.51312,0Z" transform="translate(-0.01296)" style="fill:url(#c)"/></g><polygon points="57.908 265.609 156.118 320.838 156.148 310.328 57.938 254.767 57.908 265.609" style="fill:url(#e)"/><polygon points="156.118 320.838 246.752 266.559 246.752 254.628 156.148 310.328 156.118 320.838" style="fill:url(#f)"/><path d="M234.97687,242.52139c11.05281-7.15187,15.77228-7.93335,25.20242-4.20724,6.50538,2.57046,4.65435,4.752,4.65435,6.05538s-.02445-8.12241-.02445-8.12241a4.09745,4.09745,0,0,0-2.16-5.16777c-3.51167-1.97333-14.56786-8.00914-28.3247.66451S220.38939,244.66065,224.418,248.98s.41531,6.58734.41531,6.58734,3.73787.25107-.49838-3.56268C224.33491,252.00462,226.97737,247.69757,234.97687,242.52139Z" transform="translate(-0.01296)" style="fill:url(#g)"/><path d="M108.82268,225.77876l.24179,11.16558s13.44892-.35258,17.436,4.00826,1.87633,13.26-8.71428,19.116-24.49972,3.48868-29.444-1.74433.77273-7.63944.77273-7.63944l-.6092-11.48171-10.04573,9.90108s-2.66244,6.72816,5.18708,12.70874,31.64725,10.466,39.123,5.4822,20.55825-27.28641,12.70874-35.13592S108.82268,225.77876,108.82268,225.77876Z" transform="translate(-0.01296)" style="fill:url(#h)"/><path d="M288.39513,233.06886v8.68141l-16.35977,9.8458s-2.45038,2.40885-6.72816.24919a6.58144,6.58144,0,0,1-1.00147-3.23891l.00241-7.962Z" transform="translate(-0.01296)" style="fill:url(#i)"/><path d="M57.95129,254.76737l98.20937,55.56074,89.08881-52.051s3.12935-1.82344,1.09731-3.64884c-4.90076-4.40237-14.92206,1.45838-21.9288-5.64833-4.70947-4.77665,2.07659-12.17474,10.55889-16.4401,8.82719-4.43879,20.673-5.821,26.81975-.83714,6.40587,5.194-.16613,8.55556,3.97072,10.81867a6.00524,6.00524,0,0,0,6.44915,0l16.17864-9.45253L192.848,176.96793l-81.78224,47.16654s-4.02482,1.17235-1.47564,3.6206c2.93524,2.819,9.66924-2.03293,17.97561,5.11054,6.02453,5.1811,2.41168,12.178-4.65157,17.44337-9.137,6.81122-22.167,7.41476-30.23516,2.99029-10.2999-5.64833-2.15093-11.28347-4.17338-14.09619-1.72414-2.39786-3.28595-.16231-3.28595-.16231Z" transform="translate(-0.01296)" style="fill:url(#j)"/><g style="isolation:isolate"><g style="clip-path:url(#k)"><path d="M161.13775,229.434l-6.77786-.05527c-.37549-.00367-.69268.17326-.69779.39813a.35945.35945,0,0,0,.211.28533.99393.99393,0,0,0,.4786.12014l6.75243.05527a4.24964,4.24964,0,0,1,.03365-.8036" transform="translate(-0.01296)" style="fill:#ed695d"/><path d="M153.87307,230.06214a.35945.35945,0,0,1-.211-.28533c.00511-.22487.3223-.4018.69779-.39813l6.77786.05527a4.24964,4.24964,0,0,0-.03365.8036l-6.75243-.05527a.99393.99393,0,0,1-.4786-.12014m8.38154-1.19588L154.37573,228.8c-.92918-.00737-1.70312.4276-1.71282.9658a.84232.84232,0,0,0,.50036.70775,2.43821,2.43821,0,0,0,1.17257.28752l7.828.06631-.03357-.31333a4.04379,4.04379,0,0,1,.05616-1.327l.06819-.32071" transform="translate(-0.01296)" style="fill:#ed685d"/><path d="M181.23666,241.03806l-6.116-.04789-.08977-3.513c-.46447.01844-.92263.02582-1.38086.01843l.09822,3.88529a.36852.36852,0,0,0,.2177.28,1.00868,1.00868,0,0,0,.48461.12544l6.75243.05527a3.78994,3.78994,0,0,1,.03365-.8036" transform="translate(-0.01296)" style="fill:#ed695d"/><path d="M175.12068,240.99017l6.116.04789a3.78994,3.78994,0,0,0-.03365.8036l-6.75243-.05527a1.00868,1.00868,0,0,1-.48461-.12544.36852.36852,0,0,1-.2177-.28l-.09822-3.88529c.45823.00739.91639,0,1.38086-.01843l.08977,3.513m7.23284-.5198-6.24331-.05525-.09018-3.58669-.55984.03686a20.62711,20.62711,0,0,1-2.29078.03687l-.54105-.01842.11445,4.50455a.89838.89838,0,0,0,.51937.68932,2.43818,2.43818,0,0,0,1.17257.28752l7.828.06631-.03357-.31333a3.882,3.882,0,0,1,.05615-1.327l.0682-.32071" transform="translate(-0.01296)" style="fill:#ed685d"/><path d="M177.81481,227.81193c1.9984,1.15378,2.00258,3.03007.01718,4.18385a7.95766,7.95766,0,0,1-7.223.00373c-2.00478-1.15746-2.01534-3.03-.02357-4.18754a7.971,7.971,0,0,1,7.2294,0m1.32571-.77041a10.914,10.914,0,0,0-9.89589-.00365c-2.72121,1.58139-2.70039,4.15069.03862,5.73206a10.912,10.912,0,0,0,9.88952,0c2.72121-1.58139,2.70039-4.15067-.03225-5.72836" transform="translate(-0.01296)" style="fill:#ed695d"/><path d="M169.28325,232.76993c-2.739-1.58137-2.75983-4.15067-.03862-5.73206a10.914,10.914,0,0,1,9.89589.00365c2.73264,1.57769,2.75346,4.147.03225,5.72836a10.912,10.912,0,0,1-9.88952,0m10.56772-6.14128a12.491,12.491,0,0,0-11.315.00005c-3.10815,1.80627-3.0916,4.74787.03688,6.55409a12.47762,12.47762,0,0,0,11.30865-.00374c3.10816-1.80626,3.098-4.74417-.0305-6.5504" transform="translate(-0.01296)" style="fill:#ed685d"/><path d="M197.90733,239.41235c2.00478,1.15747,2.009,3.03375.02357,4.18754a7.95965,7.95965,0,0,1-7.2294,0c-1.9984-1.15378-2.00895-3.02637-.01719-4.18385a7.969,7.969,0,0,1,7.223-.00373m1.32571-.77041a10.912,10.912,0,0,0-9.8895,0c-2.72121,1.58139-2.7004,4.15069.03223,5.72838a10.914,10.914,0,0,0,9.89591.00363c2.72121-1.58139,2.70038-4.15068-.03864-5.732" transform="translate(-0.01296)" style="fill:#ed695d"/><path d="M189.37577,244.37036c-2.73263-1.57769-2.75344-4.147-.03223-5.72838a10.912,10.912,0,0,1,9.8895,0c2.739,1.58137,2.75985,4.15066.03864,5.732a10.914,10.914,0,0,1-9.89591-.00363m10.56772-6.14129a12.47762,12.47762,0,0,0-11.30865.00374c-3.10815,1.80626-3.098,4.74418.0305,6.5504a12.491,12.491,0,0,0,11.315,0c3.10815-1.80626,3.09159-4.74786-.03689-6.55409" transform="translate(-0.01296)" style="fill:#ed685d"/><path d="M195.07217,249.01865c-.46453.00368-.92911,0-1.39382-.0258l-.0628,3.54244-6.06458.04059a4.84151,4.84151,0,0,1,.0427.8036l6.70092-.048a1.05025,1.05025,0,0,0,.4957-.12534.35292.35292,0,0,0,.20845-.27646l.07343-3.91107" transform="translate(-0.01296)" style="fill:#ed695d"/><path d="M187.59367,253.37948a4.84151,4.84151,0,0,0-.0427-.8036l6.06458-.04059.0628-3.54244c.46471.0258.92929.02948,1.39382.0258l-.07343,3.91107a.35292.35292,0,0,1-.20845.27646,1.05025,1.05025,0,0,1-.4957.12534l-6.70092.048m8.48691-4.97643-.53445.02211a20.7584,20.7584,0,0,1-2.29761-.04053l-.55387-.04055-.06871,3.61986-6.19187.04058.07181.3207a4.25738,4.25738,0,0,1,.06477,1.33072l-.03644.30964,7.77639-.05164a2.50076,2.50076,0,0,0,1.19477-.29491.85165.85165,0,0,0,.49252-.68563l.08269-4.53035" transform="translate(-0.01296)" style="fill:#ed685d"/><path d="M178.0786,250.93555c2.00479,1.15747,2.01532,3.03006.02992,4.18385a7.95965,7.95965,0,0,1-7.2294,0c-1.9984-1.15378-2.00895-3.02637-.01719-4.18386a7.95583,7.95583,0,0,1,7.21667,0m1.33206-.7741a10.92337,10.92337,0,0,0-9.88951,0c-2.72121,1.58139-2.70673,4.15438.02589,5.73206a10.92724,10.92724,0,0,0,9.90226-.00005c2.71486-1.57771,2.70038-4.15068-.03864-5.732" transform="translate(-0.01296)" style="fill:#ed695d"/><path d="M169.547,255.89355c-2.73262-1.57768-2.7471-4.15067-.02589-5.73206a10.92337,10.92337,0,0,1,9.88951,0c2.739,1.58137,2.7535,4.15434.03864,5.732a10.92724,10.92724,0,0,1-9.90226.00005m10.56772-6.14129a12.46442,12.46442,0,0,0-11.3023.00006c-3.10815,1.80626-3.098,4.74418.0305,6.5504a12.491,12.491,0,0,0,11.315-.00005c3.10815-1.80626,3.08525-4.74417-.04324-6.55041" transform="translate(-0.01296)" style="fill:#ed685d"/></g></g><path d="M263.56286,241.41292" transform="translate(-0.01296)" style="fill:url(#l)"/><path d="M78.45992,172.87573,2.0016,121.82517a3.93457,3.93457,0,0,0-1.98206,3.47118c.00416.40423.00492,10.43308,0,10.8283a3.93643,3.93643,0,0,0,1.99068,3.50272L78.42983,183.719Z" transform="translate(-0.01296)" style="fill:url(#m)"/><g style="isolation:isolate"><g style="isolation:isolate"><g style="isolation:isolate"><path d="M165.59312,59.96913l-.12618-1.64392a6.85123,6.85123,0,0,0,.08109,1.06389,3.77242,3.77242,0,0,1,.04509.58149Z" transform="translate(-0.01296)" style="fill:#ea4f52"/></g></g><path d="M131.82837,141.86186a5.60786,5.60786,0,0,1-5.09263.00154,3.91,3.91,0,0,1-1.35164-1.22622l.01277-4.38927c.00755-2.40737-1.39941-4.7515-4.1613-6.34587-6.96267-4.01966-20.53-2.8416-30.16594,2.75744-5.81384,3.378-8.90111,7.61709-8.91164,11.28361l.15479,11.04619c.01046-3.66806,3.106-7.847,8.92065-11.225,9.63592-5.60049,23.09094-6.88227,30.05438-2.86114a8.04128,8.04128,0,0,1,3.63875,3.87994l-.01508,5.23081a3.13108,3.13108,0,0,0,1.79348,2.69135,5.6125,5.6125,0,0,0,5.09256,0l81.46924-46.78411.03078-10.84338Z" transform="translate(-0.01296)" style="fill:url(#n)"/><path d="M184.25717,78.56779c-1.41172-.81446-1.41626-2.13678-.01654-2.94977a10.44406,10.44406,0,0,1,6.03257-.95572c5.56887.57557,10.79976-.09463,14.325-2.14278,6.91912-4.0212,4.66355-11.81864-5.03547-17.41913s-22.79011-6.91828-29.70846-2.89707c-3.1008,1.80164-4.7345,4.40127-4.30627,7.18578a3.74811,3.74811,0,0,1-2.10447,3.904,6.21611,6.21611,0,0,1-5.64334,0L130.51534,47.54046,2.0016,121.82517a3.9842,3.9842,0,0,0,.00862,6.90181l76.4497,44.14875,27.08276-15.73759c1.55452-.90309,2.77844-.54725,3.5016.249,1.35695,1.4941-.13669,3.01581-.883,4.63251-2.01525,4.36525,1.99261,8.79321,5.24062,10.01836,7.52295,2.83767,17.83253,3.7141,27.46854-1.88493s12.99091-13.79734,7.111-19.28032c-3.4665-3.23248-9.46113-4.08507-13.53231-4.297-3.30073-.17182-4.30158.11071-4.64837-1.34781-.377-1.58568.62486-2.5501,2.02766-3.3661l81.46917-46.7841Z" transform="translate(-0.01296)" style="fill:url(#o)"/></g><path d="M141.55013,169.74592c-9.63524,5.599-23.68,4.46243-30.64486.44276-1.8438-1.06542-2.68753-4.42345-3.281-5.90657l1.26328-3.60587c.5821-.83531,1.41294-1.86164.15675-3.28909-1.07763-1.22456-2.10411-1.062-3.5016-.249L78.4008,172.8772l-.03,10.84184,26.024-15.123c1.40049-.81292,1.34161-.911,2.32571-.72776.6943.12931.7929.55871,1.08742,1.014v7.94191c-.00754,2.40729,6.02584,5.13578,9.09034,6.01135,7.1843,2.05266,15.665,1.18947,25.73152-3.59215,5.86473-2.78574,8.34671-6.00875,8.35725-9.67681l-.0963-12.38955C150.88031,160.84358,147.36551,166.36638,141.55013,169.74592Z" transform="translate(-0.01296)" style="fill:url(#p)"/><g style="isolation:isolate"><g style="clip-path:url(#q)"><path d="M69.12947,114.2358l-6.77788-.05526c-.38188-.00737-.69269.17326-.70417.39443a.36373.36373,0,0,0,.21339.28673.97054.97054,0,0,0,.4762.11875l6.7588.05895a3.76785,3.76785,0,0,1,.03366-.8036" transform="translate(-0.01296)" style="fill:#ed695d"/><path d="M61.86081,114.8617a.36373.36373,0,0,1-.21339-.28673c.01148-.22117.32229-.4018.70417-.39443l6.77788.05526a3.76785,3.76785,0,0,0-.03366.8036l-6.7588-.05895a.97054.97054,0,0,1-.4762-.11875m8.37913-1.19726-7.8789-.06632c-.92917-.00737-1.70312.42761-1.70643.96948a.82683.82683,0,0,0,.50037.70775,2.43814,2.43814,0,0,0,1.17258.28752l7.82159.06263-.03358-.31332a4.22988,4.22988,0,0,1,.05618-1.327l.06819-.32069" transform="translate(-0.01296)" style="fill:#ed685d"/><path d="M89.222,125.83623l-6.10965-.05158-.08977-3.513c-.46443.0258-.929.02949-1.38721.02212l.09824,3.88527a.38423.38423,0,0,0,.22248.2828.97851.97851,0,0,0,.47983.12268l6.75242.05526a4.87271,4.87271,0,0,1,.03366-.80359" transform="translate(-0.01296)" style="fill:#ed695d"/><path d="M83.11234,125.78465l6.10965.05158a4.87271,4.87271,0,0,0-.03366.80359l-6.75242-.05526a.97851.97851,0,0,1-.47983-.12268.38423.38423,0,0,1-.22248-.2828l-.09824-3.88527c.45825.00737.92278.00368,1.38721-.02212l.08977,3.513m7.22651-.51611-6.23693-.05157-.09658-3.59037-.55342.04055a22.65141,22.65141,0,0,1-2.29081.03687l-.54741-.02212.12717,4.50455a.8853.8853,0,0,0,.513.693,2.46146,2.46146,0,0,0,1.17258.28752l7.8216.06263-.03358-.31333a4.04334,4.04334,0,0,1,.05617-1.327l.0682-.3207" transform="translate(-0.01296)" style="fill:#ed685d"/><path d="M85.80013,112.61011c2.00478,1.15746,2.01532,3.03006.02357,4.18754a7.9578,7.9578,0,0,1-7.22306-.00365c-1.9984-1.15378-2.01532-3.03007-.02992-4.18386a7.971,7.971,0,0,1,7.22941,0m1.33207-.77412a10.91392,10.91392,0,0,0-9.89587.00374c-2.71487,1.57771-2.70677,4.147.03225,5.72838a10.912,10.912,0,0,0,9.88951-.00005c2.72122-1.5814,2.71313-4.15069-.02589-5.73207" transform="translate(-0.01296)" style="fill:#ed695d"/><path d="M77.26858,117.56811c-2.739-1.58138-2.74712-4.15067-.03225-5.72838a10.91392,10.91392,0,0,1,9.89587-.00374c2.739,1.58138,2.74711,4.15067.02589,5.73207a10.912,10.912,0,0,1-9.88951.00005m10.56771-6.14129a12.491,12.491,0,0,0-11.315.00006c-3.10815,1.80625-3.08525,4.74416.04324,6.5504a12.47772,12.47772,0,0,0,11.30868.00363c3.10815-1.80626,3.0916-4.74786-.03688-6.55409" transform="translate(-0.01296)" style="fill:#ed685d"/><path d="M105.899,124.21422c1.99839,1.15377,2.00894,3.02637.01718,4.18385a7.95577,7.95577,0,0,1-7.21667,0c-2.00478-1.15746-2.01532-3.03006-.02992-4.18385a7.9597,7.9597,0,0,1,7.22941,0m1.33207-.77412a10.92725,10.92725,0,0,0-9.90225.00005c-2.71487,1.57771-2.70039,4.15069.03863,5.73206a10.92337,10.92337,0,0,0,9.88951,0c2.72122-1.5814,2.70675-4.15438-.02589-5.73207" transform="translate(-0.01296)" style="fill:#ed695d"/><path d="M97.36748,129.17221c-2.739-1.58137-2.7535-4.15435-.03863-5.73206a10.92725,10.92725,0,0,1,9.90225-.00005c2.73264,1.57769,2.74711,4.15067.02589,5.73207a10.92337,10.92337,0,0,1-9.88951,0m10.56771-6.14128a12.491,12.491,0,0,0-11.315.00005c-3.10814,1.80626-3.08524,4.74417.04324,6.55041a12.46445,12.46445,0,0,0,11.3023,0c3.10815-1.80626,3.098-4.74418-.0305-6.55041" transform="translate(-0.01296)" style="fill:#ed685d"/><path d="M103.0575,133.81681c-.45816.00738-.92279-.00367-1.38746-.0221l-.06917,3.53876-6.06458.04058a4.25548,4.25548,0,0,1,.04271.80359l6.70731-.04427a1.11978,1.11978,0,0,0,.502-.129.33533.33533,0,0,0,.19572-.27646l.07345-3.91108" transform="translate(-0.01296)" style="fill:#ed695d"/><path d="M95.579,138.17764a4.25548,4.25548,0,0,0-.04271-.80359l6.06458-.04058.06917-3.53876c.46467.01843.9293.02948,1.38746.0221l-.07345,3.91108a.33533.33533,0,0,1-.19572.27646,1.11978,1.11978,0,0,1-.502.129l-6.70731.04427m8.49328-4.97274-.54083.01843a20.6387,20.6387,0,0,1-2.29121-.03685l-.55388-.04055-.06877,3.6125-6.1982.04426.07181.3207a4.05027,4.05027,0,0,1,.07111,1.327l-.03641.317,7.77637-.059a2.47761,2.47761,0,0,0,1.19476-.29491.86034.86034,0,0,0,.49257-.67827l.08268-4.53035" transform="translate(-0.01296)" style="fill:#ed685d"/><path d="M86.07666,135.73372c1.99839,1.15378,2.00893,3.02638.01717,4.18386a7.95769,7.95769,0,0,1-7.223.00372c-2.00479-1.15746-2.01532-3.03006-.02358-4.18754a7.95972,7.95972,0,0,1,7.22942,0m1.32572-.77042a10.91406,10.91406,0,0,0-9.89592-.00364c-2.72121,1.5814-2.70037,4.15069.03865,5.73206a10.912,10.912,0,0,0,9.8895,0c2.72122-1.5814,2.7004-4.15069-.03223-5.72838" transform="translate(-0.01296)" style="fill:#ed695d"/><path d="M77.54511,140.69172c-2.739-1.58137-2.75986-4.15066-.03865-5.73206a10.91406,10.91406,0,0,1,9.89592.00364c2.73263,1.57769,2.75345,4.147.03223,5.72838a10.912,10.912,0,0,1-9.8895,0m10.5677-6.14128a12.491,12.491,0,0,0-11.315,0c-3.10816,1.80626-3.0916,4.74787.03689,6.5541a12.47762,12.47762,0,0,0,11.30865-.00374c3.10815-1.80627,3.098-4.74418-.0305-6.55041" transform="translate(-0.01296)" style="fill:#ed685d"/></g></g><path d="M277.28722,209.14241,351.0039,251.168a11.61645,11.61645,0,0,0,11.59078-.01454l126.52359-73.14508.02983-10.50966-211.831,31.134Z" transform="translate(-0.01296)" style="fill:url(#r)"/><path d="M438.37883,139.602,438.349,150.1103a1.73629,1.73629,0,0,1-1.01445,1.42,10.16726,10.16726,0,0,1-5.85054.92631c-5.39394-.55778-10.46672.0903-13.88426,2.07543-2.61867,1.522-3.88144,3.60181-3.88725,5.89573l.02908-10.50825c.00731-2.29393,1.26933-4.37376,3.888-5.89424,3.4168-1.988,8.49039-2.6347,13.885-2.07834a10.159,10.159,0,0,0,5.85054-.92489,1.73355,1.73355,0,0,0,1.0137-1.42Z" transform="translate(-0.01296)" style="fill:url(#s)"/><path d="M304.71211,181.79469l-.0299,10.50825a1.93248,1.93248,0,0,0-1.14181-1.59475,12.42217,12.42217,0,0,0-6.53651-1.19722c-4.65481.23445-8.94549-.47919-11.97348-2.22688-2.67691-1.54532-3.96153-3.66736-3.95421-6.00348l.02915-10.50825c-.00656,2.33612,1.27873,4.45667,3.955,6.002,3.02716,1.74777,7.31859,2.46141,11.9734,2.22838a12.41817,12.41817,0,0,1,6.53583,1.19573,1.9338,1.9338,0,0,1,1.14256,1.59624Z" transform="translate(-0.01296)" style="fill:url(#t)"/><path d="M462.43442,152.43194a6.02146,6.02146,0,0,0-5.466.00149c-1.688.98015-1.70286,2.93755-1.48952,4.3168.41513,2.69734-1.35636,4.64763-4.36175,6.39242-6.70549,3.89747-19.761,2.65506-29.16171-2.77162-9.40059-5.42817-11.58676-12.9842-4.88053-16.88018,3.41679-1.988,8.49038-2.6347,13.885-2.07834a10.159,10.159,0,0,0,5.85054-.92489c1.356-.7894,1.35158-2.06961-.016-2.85894l-27.24284-16.25526-80.48843,47.188a5.43968,5.43968,0,0,1-4.93594,0,2.87184,2.87184,0,0,1-1.61518-3.392c.94957-3.12224-.18792-6.06134-3.63089-8.04938-6.74918-3.896-19.79094-2.65514-29.12964,2.77162-9.33944,5.42921-11.44111,12.98673-4.69119,16.88271,3.02716,1.74777,7.31859,2.46141,11.9734,2.22838a12.41817,12.41817,0,0,1,6.53583,1.19573c1.51616.87388,1.5234,2.29243.02111,3.16631l-26.27354,15.26791,73.97751,42.74663a11.61628,11.61628,0,0,0,11.59079-.01454l126.26267-73.631Z" transform="translate(-0.01296)" style="fill:url(#u)"/><g style="isolation:isolate"><g style="clip-path:url(#v)"><path d="M338.76865,186.35267l-6.43422-.05527c-.35636,0-.6418.16588-.647.36862a.32157.32157,0,0,0,.19172.26319.89781.89781,0,0,0,.44039.10912l6.42149.05527a3.61422,3.61422,0,0,1,.02766-.74093" transform="translate(-0.01296)" style="fill:#ed695d"/><path d="M331.87911,186.92921a.32157.32157,0,0,1-.19172-.26319c.00524-.20274.29068-.36862.647-.36862l6.43422.05527a3.61422,3.61422,0,0,0-.02766.74093l-6.42149-.05527a.89781.89781,0,0,1-.44039-.10912m8.00641-1.14423-7.5416-.06262c-.90372-.00737-1.64594.40916-1.65573.93261a.81332.81332,0,0,0,.48753.68563,2.365,2.365,0,0,0,1.13435.28016l7.48428.05894-.03357-.31334a4.00556,4.00556,0,0,1,.05654-1.26067l.0682-.32071" transform="translate(-0.01296)" style="fill:#ed685d"/><path d="M357.929,197.41491l-5.82323-.0479-.08882-3.3434c-.41994.01475-.85264.02213-1.27269.01475l.09713,3.69359a.34063.34063,0,0,0,.20081.25926.90575.90575,0,0,0,.444.11305l6.41511.05158a4.14259,4.14259,0,0,1,.02765-.74093" transform="translate(-0.01296)" style="fill:#ed695d"/><path d="M352.10578,197.367l5.82323.0479a4.14259,4.14259,0,0,0-.02765.74093l-6.41511-.05158a.90575.90575,0,0,1-.444-.11305.34063.34063,0,0,1-.20081-.25926l-.09713-3.69359c.42005.00738.85275,0,1.27269-.01475l.08882,3.3434m6.9401-.51979-5.95692-.05157-.08928-3.4245-.55344.04055a19.48486,19.48486,0,0,1-2.17623.03687l-.54744-.02211.11972,4.30918a.85932.85932,0,0,0,.4938.66721,2.34238,2.34238,0,0,0,1.13432.28014l7.49069.06264-.04-.317a4.00586,4.00586,0,0,1,.05654-1.26067l.0682-.32071" transform="translate(-0.01296)" style="fill:#ed685d"/><path d="M354.68875,184.79331c1.909,1.10218,1.91906,2.88631.02245,3.9885a7.583,7.583,0,0,1-6.88576,0c-1.909-1.10216-1.919-2.88629-.02245-3.98847a7.583,7.583,0,0,1,6.88576-.00005m1.25593-.72987a10.3907,10.3907,0,0,0-9.40584.00006c-2.58166,1.5003-2.5679,3.94794.03065,5.44821a10.39068,10.39068,0,0,0,9.40586,0c2.58166-1.5003,2.56791-3.94794-.03067-5.44823" transform="translate(-0.01296)" style="fill:#ed695d"/><path d="M346.56949,189.51171c-2.59855-1.50027-2.61231-3.94791-.03065-5.44821a10.3907,10.3907,0,0,1,9.40584-.00006c2.59858,1.50029,2.61233,3.94793.03067,5.44823a10.39068,10.39068,0,0,1-9.40586,0m10.07928-5.85744a11.93174,11.93174,0,0,0-10.81864.00005c-2.97493,1.72884-2.95912,4.53775.03527,6.26656a11.93175,11.93175,0,0,0,10.81866,0c2.975-1.72885,2.95912-4.53774-.03529-6.26657" transform="translate(-0.01296)" style="fill:#ed685d"/><path d="M373.84911,195.85555c1.83957,1.06208,1.92148,2.76065.228,3.86907l-.411.23883a7.6512,7.6512,0,0,1-6.68031-.11938c-1.909-1.10216-1.919-2.88629-.02245-3.98847a7.583,7.583,0,0,1,6.88576-.00005m1.25593-.72987a10.37741,10.37741,0,0,0-9.39947.00373c-2.58166,1.5003-2.57427,3.94427.02428,5.44454a10.37935,10.37935,0,0,0,9.40586,0c2.58166-1.5003,2.57427-3.94426-.03067-5.44823" transform="translate(-0.01296)" style="fill:#ed695d"/><path d="M365.72985,200.574c-2.59855-1.50027-2.60594-3.94424-.02428-5.44454a10.37741,10.37741,0,0,1,9.39947-.00373c2.60494,1.504,2.61233,3.94793.03067,5.44823a10.37935,10.37935,0,0,1-9.40586,0m10.07928-5.85744a11.94311,11.94311,0,0,0-10.81864,0c-2.97493,1.72884-2.95273,4.54144.03527,6.26656a11.93175,11.93175,0,0,0,10.81866,0c2.97495-1.72885,2.95912-4.53774-.03529-6.26657" transform="translate(-0.01296)" style="fill:#ed685d"/><path d="M371.11967,205.02319c-.42.00738-.85276,0-1.2729-.02212l-.05736,3.37657-5.78456.04059a4.81687,4.81687,0,0,1,.036.74092l6.37-.048a.93293.93293,0,0,0,.45757-.118.3147.3147,0,0,0,.18309-.25435l.06818-3.7157" transform="translate(-0.01296)" style="fill:#ed695d"/><path d="M364.04085,209.15915a4.81687,4.81687,0,0,0-.036-.74092l5.78456-.04059.05736-3.37657c.42014.02212.85293.0295,1.2729.02212l-.06818,3.7157a.3147.3147,0,0,1-.18309.25435.93293.93293,0,0,1-.45757.118l-6.37.048m8.09361-4.74788-.54082.01844a19.60587,19.60587,0,0,1-2.183-.03318l-.55388-.04053-.06334,3.4466-5.91184.04059.07179.32069a3.84668,3.84668,0,0,1,.06441,1.26437l-.03641.317,7.44548-.05164a2.40537,2.40537,0,0,0,1.15663-.28753.81392.81392,0,0,0,.46721-.65614l.08378-4.33868" transform="translate(-0.01296)" style="fill:#ed685d"/><path d="M354.94648,206.84056c1.83957,1.06208,1.92149,2.76065.228,3.869l-.411.23884a7.65117,7.65117,0,0,1-6.6803-.11937c-1.909-1.10216-1.919-2.8863-.02243-3.98849a7.583,7.583,0,0,1,6.88573,0m1.25594-.72987a10.37736,10.37736,0,0,0-9.39946.00372c-2.58168,1.50031-2.57427,3.94426.02428,5.44454a10.37932,10.37932,0,0,0,9.40586-.00005c2.58167-1.5003,2.57425-3.94425-.03068-5.44821" transform="translate(-0.01296)" style="fill:#ed695d"/><path d="M346.82724,211.559c-2.59855-1.50028-2.606-3.94423-.02428-5.44454a10.37736,10.37736,0,0,1,9.39946-.00372c2.60493,1.504,2.61235,3.94791.03068,5.44821a10.37932,10.37932,0,0,1-9.40586.00005m10.07928-5.85744a11.94311,11.94311,0,0,0-10.81864,0c-2.9686,1.72516-2.95275,4.54145.03525,6.26657a11.94316,11.94316,0,0,0,10.81869-.00005c2.97492-1.72884,2.95911-4.53775-.0353-6.26657" transform="translate(-0.01296)" style="fill:#ed685d"/></g></g><path d="M488.88325,167.9588s77.24086-48.06044,77.23124-46.73638c-.00409.39706-.00485,10.24822,0,10.63645a3.86485,3.86485,0,0,1-1.96,3.44066l-75.30107,42.93382Z" transform="translate(-0.01296)" style="fill:url(#w)"/><path d="M441.53742,102.63371l-.02991,10.50825a1.93246,1.93246,0,0,0-1.14181-1.59475,12.42217,12.42217,0,0,0-6.53651-1.19722c-4.6548.23445-8.94549-.47919-11.97347-2.22688-2.67692-1.54532-3.96153-3.66735-3.95422-6.00348l.02915-10.50825c-.00656,2.33612,1.27873,4.45667,3.955,6.002,3.02717,1.74778,7.31859,2.46141,11.9734,2.22838a12.41817,12.41817,0,0,1,6.53583,1.19573,1.93384,1.93384,0,0,1,1.14257,1.59624Z" transform="translate(-0.01296)" style="fill:url(#x)"/><g style="isolation:isolate"><g style="isolation:isolate"><path d="M454.74927,156.24239l.12434,1.61094a6.67819,6.67819,0,0,0-.0799-1.04254,3.67554,3.67554,0,0,1-.04444-.56983Z" transform="translate(-0.01296)" style="fill:url(#y)"/></g></g><path d="M436.35761,138.01689c1.39112.79812.80911,2.09391-.57017,2.89059-1.53487.88791-3.21616.57089-5.35806.35007a24.12055,24.12055,0,0,0-14.116,2.68626c-6.81815,3.94052-4.59549,11.58152,4.962,17.06964s22.83023,6.74268,29.64761,2.80216c3.05555-1.76549,4.87916-4.27618,4.45718-7.00482-.21994-1.39448-.2237-2.83609,1.48728-3.82563a6.15587,6.15587,0,0,1,5.561,0l26.45481,14.97364,75.27161-42.73825a3.89346,3.89346,0,0,0-.00849-6.76333l-75.334-43.263L462.12488,90.61608c-1.53183.885-2.73789.53628-3.4505-.244-1.33714-1.46413.1347-2.95531.87016-4.53956,1.98584-4.27767-1.96353-8.61679-5.16414-9.81737-7.41316-2.78073-17.57228-3.63957-27.06766,1.84712s-12.80131,13.52052-7.00721,18.89349c3.41591,3.16763,9.32306,4.00311,13.33482,4.21079,3.25255.16837,4.2388-.1085,4.58053,1.32076.37151,1.55387-.61574,2.49894-1.99807,3.29857l-26.93606,16.01256Z" transform="translate(-0.01296)" style="fill:url(#z)"/></svg>