<svg xmlns="http://www.w3.org/2000/svg" xmlns:xlink="http://www.w3.org/1999/xlink" viewBox="0 0 198.43 198.43">
			<defs>
				<filter id="b" x="0" y="0" width="198.43" height="198.43" filterUnits="userSpaceOnUse"
					color-interpolation-filters="sRGB">
					<feFlood flood-color="#fff" result="bg" />
					<feBlend in="SourceGraphic" in2="bg" />
				</filter>
				<mask id="a" x="0" y="0" width="198.43" height="198.43" maskUnits="userSpaceOnUse">
					<g style="filter:url(#b)">
						<path
							d="M48.3,101.5h0a12,12,0,0,1,12,11.88v.18a12,12,0,0,1-24,0v-.12a12,12,0,0,1,12-11.91m0-5.6a17.57,17.57,0,1,0,17.57,17.57A17.57,17.57,0,0,0,48.3,95.9" />
						<path
							d="M36.32,179.33a12,12,0,0,1,24,0v.18a12,12,0,0,1-24,0v-.12m12-17.51a17.57,17.57,0,1,0,17.57,17.57A17.57,17.57,0,0,0,48.3,161.82" />
						<path
							d="M25.4,132.05,15,142.13l-10.27-10a29.08,29.08,0,0,1-3.85,4.07L13.05,148a2.9,2.9,0,0,0,2,.79A2.78,2.78,0,0,0,17,148l12.24-11.9A29.6,29.6,0,0,1,25.4,132.05Z" />
						<path
							d="M66.88,135.89,77,146.26l-10,10.27A29.62,29.62,0,0,1,71,160.38l11.85-12.14a2.91,2.91,0,0,0,.8-2,2.78,2.78,0,0,0-.79-2L71,132.05A29.6,29.6,0,0,1,66.88,135.89Z" />
						<path
							d="M168.79,47.49a12,12,0,0,1,24,0v.18a12,12,0,0,1-24,0v-.12m12-17.51a17.57,17.57,0,1,0,17.57,17.57A17.57,17.57,0,0,0,180.76,30" />
						<path
							d="M79.11,16.13a2.82,2.82,0,0,0,2,.85,2.79,2.79,0,0,0,1.95-.8L95.31,4.28A29.6,29.6,0,0,1,91.47.21l-12.3,12A2.81,2.81,0,0,0,79.11,16.13Z" />
						<path
							d="M157.87.21,147.5,10.3,137.23.27a30.82,30.82,0,0,1-3.85,4.06l12.13,11.85a3,3,0,0,0,2,.8,2.79,2.79,0,0,0,1.95-.8L161.71,4.29A29.08,29.08,0,0,1,157.87.21Z" />
						<path
							d="M48.14,35.58h0a12,12,0,0,1,12,11.91v.12a12,12,0,1,1-12-12m0-5.6A17.57,17.57,0,1,0,65.71,47.55,17.57,17.57,0,0,0,48.14,30" />
						<path
							d="M114.53,35.58h0a12,12,0,0,1,12,11.88v.18a12,12,0,0,1-23.94,0v-.12a12,12,0,0,1,12-11.91m0-5.6A17.57,17.57,0,1,0,132.1,47.55,17.57,17.57,0,0,0,114.53,30" />
						<path
							d="M102.56,113.41a12,12,0,0,1,23.94,0v.18a12,12,0,0,1-23.94,0v-.12m12-17.51a17.57,17.57,0,1,0,17.57,17.57A17.57,17.57,0,0,0,114.53,95.9" />
						<path
							d="M12.88,82.05a2.81,2.81,0,0,0,4,0L29.08,70.2a29.6,29.6,0,0,1-3.84-4.07l-12.3,12A2.8,2.8,0,0,0,12.88,82.05Z" />
						<path
							d="M91.63,66.13,81.26,76.21,71,66.19a29.56,29.56,0,0,1-3.85,4.06L79.28,82.1a2.9,2.9,0,0,0,2,.79,2.82,2.82,0,0,0,2-.79L95.47,70.21A30.26,30.26,0,0,1,91.63,66.13Z" />
						<path
							d="M133.11,70l10.08,10.37-10,10.27a30.29,30.29,0,0,1,4.07,3.85l11.85-12.13a2.94,2.94,0,0,0,.79-2,2.78,2.78,0,0,0-.79-1.95l-11.9-12.24A29,29,0,0,1,133.11,70Z" />
						<path
							d="M180.6,101.5h0a12,12,0,0,1,12,11.91v.12a12,12,0,1,1-12-12m0-5.6a17.57,17.57,0,1,0,17.57,17.57A17.57,17.57,0,0,0,180.6,95.9" />
						<path
							d="M145.35,148a2.8,2.8,0,0,0,4,.05l12.25-11.9a29,29,0,0,1-3.84-4.07L145.4,144A2.8,2.8,0,0,0,145.35,148Z" />
						<path
							d="M114.37,167.41h0a12,12,0,0,1,12,11.92v.12a12,12,0,1,1-12-12m0-5.59a17.57,17.57,0,1,0,17.57,17.57,17.57,17.57,0,0,0-17.57-17.57" />
						<path
							d="M180.76,167.41h0a12,12,0,0,1,12,11.89v.18a12,12,0,0,1-24,0v-.12a12,12,0,0,1,12-11.92m0-5.59a17.57,17.57,0,1,0,17.57,17.57,17.57,17.57,0,0,0-17.57-17.57" />
						<path
							d="M.64,4.07,10.73,14.44.7,24.71a29.56,29.56,0,0,1,4.06,3.85L16.61,16.42a2.91,2.91,0,0,0,.8-2,2.79,2.79,0,0,0-.8-1.95L4.72.23A29.68,29.68,0,0,1,.64,4.07Z" />
					</g>
				</mask>
			</defs>
			<title>InversePattern</title>
			<g style="mask:url(#a)">
				<rect width="198.43" height="198.43" style="fill:#fff" />
			</g>
		</svg>