<svg xmlns="http://www.w3.org/2000/svg" viewBox="0 0 593.17 109.4">
    <title>InversePatternLogoOverlay</title>
    <polygon points="552.37 0 552.37 7.21 526.5 7.21 526.5 0 485.7 0 485.7 7.21 460.5 7.21 460.5 0 419.7 0 419.7 7.21 394.98 7.21 394.98 0 354.18 0 354.18 7.21 328.98 7.21 328.98 0 288.18 0 288.18 7.21 262.14 7.21 262.14 0 221.34 0 221.34 7.21 196.14 7.21 196.14 0 155.34 0 155.34 7.21 137.52 7.21 137.52 0 16.66 0 16.66 33.43 0 33.43 0 63.4 16.66 63.4 25.15 63.4 84.33 63.4 84.33 109.4 137.52 109.4 137.52 94.33 155.34 94.33 155.34 106.25 196.14 106.25 196.14 94.33 221.34 94.33 221.34 106.25 262.14 106.25 262.14 94.33 288.18 94.33 288.18 106.25 328.98 106.25 328.98 94.33 354.18 94.33 354.18 106.25 394.98 106.25 394.98 94.33 419.7 94.33 419.7 106.25 460.5 106.25 460.5 94.33 485.7 94.33 485.7 106.25 526.5 106.25 526.5 94.33 552.37 94.33 552.37 106.25 593.17 106.25 593.17 0 552.37 0" style="fill:#fff" />
    <path d="M48.09,35.55h0a12,12,0,0,1,12,11.91v.12a12,12,0,1,1-12-12m0-5.59A17.57,17.57,0,1,0,65.66,47.52,17.56,17.56,0,0,0,48.09,30" transform="translate(-3.89 -26.65)" style="fill:#e7493c" />
    <path d="M114.46,35.55h0a12,12,0,0,1,12,11.88v.18a12,12,0,0,1-23.94,0v-.12a12,12,0,0,1,12-11.91m0-5.59A17.57,17.57,0,1,0,132,47.52,17.56,17.56,0,0,0,114.46,30" transform="translate(-3.89 -26.65)" style="fill:#e7493c" />
    <path d="M102.49,113.35a12,12,0,0,1,23.94,0v.17a12,12,0,0,1-23.94,0v-.13m12-17.5A17.57,17.57,0,1,0,132,113.42a17.57,17.57,0,0,0-17.57-17.57" transform="translate(-3.89 -26.65)" style="fill:#e7493c" />
    <path d="M12.85,82a2.81,2.81,0,0,0,4,0L29,70.17a30.11,30.11,0,0,1-3.83-4.07l-12.3,12A2.8,2.8,0,0,0,12.85,82Z" transform="translate(-3.89 -26.65)" style="fill:#e7493c" />
    <path d="M91.58,66.1,81.21,76.18l-10.27-10a29.56,29.56,0,0,1-3.85,4.06L79.23,82.06a2.9,2.9,0,0,0,2,.79,2.78,2.78,0,0,0,2-.79L95.41,70.17A29.53,29.53,0,0,1,91.58,66.1Z" transform="translate(-3.89 -26.65)" style="fill:#e7493c" />
    <path d="M133,69.94,143.12,80.3l-10,10.27a29.56,29.56,0,0,1,4.06,3.85L149,82.28a2.9,2.9,0,0,0,.79-2,2.78,2.78,0,0,0-.79-2L137.11,66.1A30.22,30.22,0,0,1,133,69.94Z" transform="translate(-3.89 -26.65)" style="fill:#e7493c" />
    <path d="M199.71,50.73a5.64,5.64,0,0,0-3.89,1.45,4.38,4.38,0,0,0-1.6,3.41,3.53,3.53,0,0,0,1.41,3.08,8.77,8.77,0,0,0,4.24,1.69h9.88a12.77,12.77,0,0,1,6.9,2.82A8.45,8.45,0,0,1,220,70.4a9.28,9.28,0,0,1-3.11,7,10.53,10.53,0,0,1-7.49,2.92h-10a10.56,10.56,0,0,1-7.25-2.92,9.27,9.27,0,0,1-3.1-7h5.11a4.39,4.39,0,0,0,1.6,3.42,5.76,5.76,0,0,0,3.64,1.4h10a5.77,5.77,0,0,0,3.89-1.41,4.42,4.42,0,0,0,1.6-3.42,3.58,3.58,0,0,0-1.42-3.14,8.87,8.87,0,0,0-4.1-1.65c-.1,0-8.89-.09-9.59-.09a13.51,13.51,0,0,1-7.33-2.81,8.29,8.29,0,0,1-3.38-7.12,9.38,9.38,0,0,1,3.1-7.05,10.54,10.54,0,0,1,7.5-2.92h8.52a10.48,10.48,0,0,1,7.22,2.92,9.39,9.39,0,0,1,3.11,7.05h-5.12a4.38,4.38,0,0,0-1.6-3.41,5.56,5.56,0,0,0-3.61-1.44Z" transform="translate(-3.89 -26.65)" style="fill:#e7493c" />
    <path d="M242.81,45.28a16.3,16.3,0,0,1,12,5.08,17,17,0,0,1,5,12.29v2.57H231.08a11.89,11.89,0,0,0,4.14,6.9,11.45,11.45,0,0,0,7.59,2.76A11.62,11.62,0,0,0,249,73.13a12.26,12.26,0,0,0,4.39-4.83L258,70.62a17.08,17.08,0,0,1-6.31,6.87,16.9,16.9,0,0,1-21-2.58,17.62,17.62,0,0,1,0-24.55A16.39,16.39,0,0,1,242.81,45.28Zm11.67,14.8a12,12,0,0,0-4.14-6.9,11.64,11.64,0,0,0-15.12,0,11.92,11.92,0,0,0-4.14,6.9Z" transform="translate(-3.89 -26.65)" style="fill:#e7493c" />
    <path d="M284.29,50.39A11.37,11.37,0,0,0,275.82,54a12.39,12.39,0,0,0,0,17.28,11.76,11.76,0,0,0,18.1-1.41l4.14,2.94A16.07,16.07,0,0,1,284.29,80a16.4,16.4,0,0,1-12.11-5.09,17.59,17.59,0,0,1,0-24.55,16.39,16.39,0,0,1,12.11-5.08,16.06,16.06,0,0,1,13.77,7.18l-4.14,2.95A11.29,11.29,0,0,0,284.29,50.39Z" transform="translate(-3.89 -26.65)" style="fill:#e7493c" />
    <path d="M311.37,50.8A13.62,13.62,0,0,1,322,45.62h.31v5H322a9.68,9.68,0,0,0-7.5,3.51,14.88,14.88,0,0,0-3.1,9.1v16.4h-5v-34h5Z" transform="translate(-3.89 -26.65)" style="fill:#e7493c" />
    <path d="M345.32,45.28a16.34,16.34,0,0,1,12.05,5.08,17,17,0,0,1,5,12.29v2.57H333.59a12,12,0,0,0,4.14,6.9,11.8,11.8,0,0,0,13.77,1,12.19,12.19,0,0,0,4.39-4.83l4.58,2.32a17.05,17.05,0,0,1-6.3,6.87,16.9,16.9,0,0,1-20.95-2.58,17.59,17.59,0,0,1,0-24.55A16.37,16.37,0,0,1,345.32,45.28ZM357,60.08a12,12,0,0,0-4.14-6.9,11.64,11.64,0,0,0-15.12,0,12,12,0,0,0-4.14,6.9Z" transform="translate(-3.89 -26.65)" style="fill:#e7493c" />
    <path d="M378.87,45.62h4.92v5h-4.92v29h-5v-29h-4.93v-5h4.93V33.86h5Z" transform="translate(-3.89 -26.65)" style="fill:#e7493c" />
    <path d="M424.48,79.65h-5.11V75a16.87,16.87,0,0,1-24-.13,17.59,17.59,0,0,1,0-24.55,16.85,16.85,0,0,1,24-.1V45.62h5.11Zm-17-4.77a11.26,11.26,0,0,0,8.41-3.6,11.88,11.88,0,0,0,3.51-8.63v0A11.84,11.84,0,0,0,415.86,54a11.24,11.24,0,0,0-8.41-3.61A11.36,11.36,0,0,0,399,54a12.36,12.36,0,0,0,0,17.28A11.39,11.39,0,0,0,407.45,74.88Z" transform="translate(-3.89 -26.65)" style="fill:#e7493c" />
    <path d="M439.37,50.8A13.62,13.62,0,0,1,450,45.62h.31v5H450a9.66,9.66,0,0,0-7.5,3.51,14.82,14.82,0,0,0-3.1,9.1v16.4h-5v-34h5Z" transform="translate(-3.89 -26.65)" style="fill:#e7493c" />
    <path d="M462.28,34.79a3.05,3.05,0,0,1,0,4.29,3,3,0,1,1,0-4.29Zm-4.64,44.86h5v-34h-5Z" transform="translate(-3.89 -26.65)" style="fill:#e7493c" />
    <path d="M502.63,79.65h-5v-4A13.59,13.59,0,0,1,477.19,75a17.72,17.72,0,0,1-4.36-12.05V45.53h5v17.4a12.91,12.91,0,0,0,2.89,8.5,8.67,8.67,0,0,0,13.95,0A12.78,12.78,0,0,0,497.61,63V45.62h5Z" transform="translate(-3.89 -26.65)" style="fill:#e7493c" />
    <path d="M552.14,45.31a13.51,13.51,0,0,1,10.53,5A17.67,17.67,0,0,1,567,62.34V79.65h-5V62.34a13.05,13.05,0,0,0-2.88-8.5,8.7,8.7,0,0,0-14,0,13.05,13.05,0,0,0-2.88,8.5V79.65h-5V62.34a12.92,12.92,0,0,0-2.92-8.5,8.69,8.69,0,0,0-14,0,12.87,12.87,0,0,0-2.89,8.47V79.65h-5v-34h5v4a13.46,13.46,0,0,1,9.88-4.29,13.25,13.25,0,0,1,7.12,2.07,16.33,16.33,0,0,1,5.27,5.52A16,16,0,0,1,545,47.38,13.22,13.22,0,0,1,552.14,45.31Z" transform="translate(-3.89 -26.65)" style="fill:#e7493c" />
    <path d="M197.5,99a7,7,0,0,1,5.15,2.17,7.27,7.27,0,0,1,2.13,5.26v1.1H192.49a5.15,5.15,0,0,0,1.77,3,5,5,0,0,0,5.88.43,5.22,5.22,0,0,0,1.88-2.07l2,1a7.16,7.16,0,0,1-2.7,2.94,7.06,7.06,0,0,1-3.78,1.07,7,7,0,0,1-5.17-2.17,7.51,7.51,0,0,1,0-10.5A7,7,0,0,1,197.5,99Zm5,6.33a5.09,5.09,0,0,0-1.77-3,4.95,4.95,0,0,0-6.46,0,5.09,5.09,0,0,0-1.77,3Z" transform="translate(-3.89 -26.65)" style="fill:#e7493c" />
    <path d="M215.18,99a6.16,6.16,0,0,1,4.72,2.13,7.36,7.36,0,0,1,1.95,5.15v7.41H219.7v-7.41a5.37,5.37,0,0,0-1.32-3.64,4.16,4.16,0,0,0-6.4,0,5.28,5.28,0,0,0-1.33,3.62v7.43H208.5V99.09h2.15v1.8A6.14,6.14,0,0,1,215.18,99Z" transform="translate(-3.89 -26.65)" style="fill:#e7493c" />
    <path d="M229.49,99.09h2.1v2.15h-2.1v12.4h-2.15v-12.4h-2.11V99.09h2.11v-5h2.15Z" transform="translate(-3.89 -26.65)" style="fill:#e7493c" />
    <path d="M237.26,101.31a5.81,5.81,0,0,1,4.53-2.22h.13v2.15h-.13a4.15,4.15,0,0,0-3.21,1.5,6.37,6.37,0,0,0-1.32,3.89v7h-2.15V99.09h2.15Z" transform="translate(-3.89 -26.65)" style="fill:#e7493c" />
    <path d="M257.78,113.64h-2.15v-1.7a5.71,5.71,0,0,1-4.22,1.84,5.83,5.83,0,0,1-4.51-2.13A7.58,7.58,0,0,1,245,106.5V99.05h2.15v7.45a5.54,5.54,0,0,0,1.23,3.63,3.72,3.72,0,0,0,6,0,5.49,5.49,0,0,0,1.24-3.62V99.09h2.15Z" transform="translate(-3.89 -26.65)" style="fill:#e7493c" />
    <path d="M266,101.13a2.44,2.44,0,0,0-1.66.62,1.86,1.86,0,0,0-.68,1.46,1.52,1.52,0,0,0,.6,1.32,7.36,7.36,0,0,0,2,.76,9.45,9.45,0,0,1,2.8,1.17,3.61,3.61,0,0,1,1.45,3.08,4,4,0,0,1-1.33,3,4.76,4.76,0,0,1-6.41,0,4,4,0,0,1-1.33-3h2.19a1.86,1.86,0,0,0,.68,1.46,2.58,2.58,0,0,0,3.33,0,1.89,1.89,0,0,0,.68-1.46,1.54,1.54,0,0,0-.6-1.34,7.13,7.13,0,0,0-2.06-.79,8.9,8.9,0,0,1-2.77-1.15,3.55,3.55,0,0,1-1.45-3.05,4,4,0,0,1,1.33-3,4.76,4.76,0,0,1,6.41,0,4,4,0,0,1,1.33,3h-2.19a1.89,1.89,0,0,0-.68-1.46A2.45,2.45,0,0,0,266,101.13Z" transform="translate(-3.89 -26.65)" style="fill:#e7493c" />
    <path d="M277.73,99.09h2.11v2.15h-2.11v12.4h-2.14v-12.4h-2.11V99.09h2.11v-5h2.14Z" transform="translate(-3.89 -26.65)" style="fill:#e7493c" />
    <path d="M290.2,99a7,7,0,0,1,5.15,2.17,7.27,7.27,0,0,1,2.13,5.26v1.1h-12.3a5.15,5.15,0,0,0,1.77,3,5,5,0,0,0,5.89.43,5.29,5.29,0,0,0,1.88-2.07l2,1a7.3,7.3,0,0,1-2.7,2.94,7.25,7.25,0,0,1-9-1.1,7.54,7.54,0,0,1,0-10.5A7,7,0,0,1,290.2,99Zm5,6.33a5.09,5.09,0,0,0-1.77-3,5,5,0,0,0-6.47,0,5.09,5.09,0,0,0-1.77,3Z" transform="translate(-3.89 -26.65)" style="fill:#e7493c" />
    <path d="M313,101.08v-7h2.19v19.58H313v-2a7.2,7.2,0,0,1-10.27,0,7.52,7.52,0,0,1,0-10.49,7.21,7.21,0,0,1,10.27,0Zm-1.5,9a5.06,5.06,0,0,0,1.5-3.68,5.18,5.18,0,0,0-1.5-3.72,4.85,4.85,0,0,0-3.61-1.53,4.92,4.92,0,0,0-3.62,1.53,5.21,5.21,0,0,0-1.49,3.72,5.09,5.09,0,0,0,1.49,3.68,4.92,4.92,0,0,0,3.62,1.53A4.85,4.85,0,0,0,311.5,110.06Z" transform="translate(-3.89 -26.65)" style="fill:#e7493c" />
    <path d="M347.81,99.09l-4.7,14.55h-2l-3-9.24-3,9.24h-2l-4.7-14.55h2.26l3.46,10.73,3-9.24h2l3,9.24,3.47-10.73Z" transform="translate(-3.89 -26.65)" style="fill:#e7493c" />
    <path d="M352.8,94.46a1.32,1.32,0,1,1-.93-.38A1.27,1.27,0,0,1,352.8,94.46Zm-2,19.18H353V99.09h-2.15Z" transform="translate(-3.89 -26.65)" style="fill:#e7493c" />
    <path d="M360.86,99.09H363v2.15h-2.11v12.4h-2.14v-12.4h-2.11V99.09h2.11v-5h2.14Z" transform="translate(-3.89 -26.65)" style="fill:#e7493c" />
    <path d="M373.16,98.92a6.2,6.2,0,0,1,4.73,2.13,7.4,7.4,0,0,1,1.94,5.15v7.44h-2.15V106.2a5.34,5.34,0,0,0-1.32-3.63,4.16,4.16,0,0,0-6.4,0,5.26,5.26,0,0,0-1.33,3.62v7.45h-2.14V94.08h2.14v6.78A6.18,6.18,0,0,1,373.16,98.92Z" transform="translate(-3.89 -26.65)" style="fill:#e7493c" />
    <path d="M398.28,101.13a2.42,2.42,0,0,0-1.66.62,1.87,1.87,0,0,0-.69,1.46,1.53,1.53,0,0,0,.61,1.32,7.25,7.25,0,0,0,2,.76,9.41,9.41,0,0,1,2.81,1.17,3.6,3.6,0,0,1,1.44,3.08,4,4,0,0,1-1.32,3,4.76,4.76,0,0,1-6.41,0,4,4,0,0,1-1.33-3h2.18a1.87,1.87,0,0,0,.69,1.46,2.56,2.56,0,0,0,3.32,0,1.87,1.87,0,0,0,.69-1.46,1.52,1.52,0,0,0-.61-1.34,7,7,0,0,0-2-.79,8.9,8.9,0,0,1-2.77-1.15,3.55,3.55,0,0,1-1.45-3.05,4,4,0,0,1,1.33-3,4.76,4.76,0,0,1,6.41,0,4,4,0,0,1,1.32,3h-2.18a1.87,1.87,0,0,0-.69-1.46A2.42,2.42,0,0,0,398.28,101.13Z" transform="translate(-3.89 -26.65)" style="fill:#e7493c" />
    <path d="M413.37,99a7,7,0,0,1,5.15,2.17,7.24,7.24,0,0,1,2.14,5.26v1.1h-12.3a5.15,5.15,0,0,0,1.77,3,4.94,4.94,0,0,0,3.24,1.18,5,5,0,0,0,2.65-.75,5.2,5.2,0,0,0,1.87-2.07l2,1a7.21,7.21,0,0,1-2.69,2.94,7.12,7.12,0,0,1-3.79,1.07,7,7,0,0,1-5.17-2.17,7.51,7.51,0,0,1,0-10.5A7,7,0,0,1,413.37,99Zm5,6.33a5.09,5.09,0,0,0-1.77-3,4.95,4.95,0,0,0-6.46,0,5.09,5.09,0,0,0-1.77,3Z" transform="translate(-3.89 -26.65)" style="fill:#e7493c" />
    <path d="M431.22,101.13a4.88,4.88,0,0,0-3.62,1.54,5.11,5.11,0,0,0-1.51,3.71,5,5,0,0,0,1.51,3.68,5,5,0,0,0,7.73-.6l1.77,1.26a6.85,6.85,0,0,1-5.88,3.07,7,7,0,0,1-5.18-2.17,7.54,7.54,0,0,1,0-10.5A7,7,0,0,1,431.22,99,6.85,6.85,0,0,1,437.1,102l-1.77,1.26A4.82,4.82,0,0,0,431.22,101.13Z" transform="translate(-3.89 -26.65)" style="fill:#e7493c" />
    <path d="M442.9,101.31a5.82,5.82,0,0,1,4.54-2.22h.13v2.15h-.13a4.14,4.14,0,0,0-3.21,1.5,6.38,6.38,0,0,0-1.33,3.89v7h-2.14V99.09h2.14Z" transform="translate(-3.89 -26.65)" style="fill:#e7493c" />
    <path d="M457.53,99a7,7,0,0,1,5.15,2.17,7.27,7.27,0,0,1,2.13,5.26v1.1h-12.3a5.15,5.15,0,0,0,1.77,3,5,5,0,0,0,5.89.43,5.29,5.29,0,0,0,1.88-2.07l1.95,1a7.21,7.21,0,0,1-2.69,2.94,7.11,7.11,0,0,1-3.78,1.07,7,7,0,0,1-5.18-2.17,7.54,7.54,0,0,1,0-10.5A7,7,0,0,1,457.53,99Zm5,6.33a5.15,5.15,0,0,0-1.78-3,4.8,4.8,0,0,0-3.21-1.2,4.86,4.86,0,0,0-3.25,1.2,5.09,5.09,0,0,0-1.77,3Z" transform="translate(-3.89 -26.65)" style="fill:#e7493c" />
    <path d="M472,99.09h2.1v2.15H472v12.4h-2.15v-12.4h-2.11V99.09h2.11v-5H472Z" transform="translate(-3.89 -26.65)" style="fill:#e7493c" />
    <path d="M481.53,101.13a2.42,2.42,0,0,0-1.66.62,1.87,1.87,0,0,0-.69,1.46,1.51,1.51,0,0,0,.61,1.32,7.25,7.25,0,0,0,2,.76,9.22,9.22,0,0,1,2.8,1.17,3.58,3.58,0,0,1,1.45,3.08,4,4,0,0,1-1.33,3,4.76,4.76,0,0,1-6.41,0,4,4,0,0,1-1.32-3h2.18a1.87,1.87,0,0,0,.69,1.46,2.56,2.56,0,0,0,3.32,0,1.87,1.87,0,0,0,.69-1.46,1.52,1.52,0,0,0-.61-1.34,7,7,0,0,0-2-.79,9,9,0,0,1-2.78-1.15,3.57,3.57,0,0,1-1.44-3.05,4,4,0,0,1,1.32-3,4.76,4.76,0,0,1,6.41,0,4,4,0,0,1,1.33,3h-2.18a1.87,1.87,0,0,0-.69-1.46A2.42,2.42,0,0,0,481.53,101.13Z" transform="translate(-3.89 -26.65)" style="fill:#e7493c" />
</svg>