<svg xmlns="http://www.w3.org/2000/svg" viewBox="0 0 184.17 143.64"><title>KBC</title><circle cx="93.14" cy="31.8" r="31.8" transform="translate(-0.57 1.73) rotate(-1.06)" style="fill:#00a1e5"/><path d="M116.6,57.52A41.77,41.77,0,0,1,86.15,70.65a42.26,42.26,0,0,1-25.62-8.72C25.82,65.57,0,70.73,0,70.73V84.79l184.17,0v-29S152.61,55.59,116.6,57.52Z" style="fill:#00a1e5"/><path d="M21.88,125.89V143H0V97.45H21.88V118H22L34.88,97.45H61.11L41.9,121,60,143H35L22,125.89Z" style="fill:#003664"/><path d="M184.17,141.14a66,66,0,0,1-18,2.5c-21.65,0-37.54-6.15-37.54-24,0-16.17,15.4-23.2,36.46-23.2,5.85,0,13.28.65,19.1,2.51v15.66a26.61,26.61,0,0,0-14.79-4.24c-8,0-16.06,4-16.06,9.7s8,9.69,16.06,9.69a27.86,27.86,0,0,0,14.79-4.17Z" style="fill:#003664"/><path d="M64.7,97.45h44.22c11.49,0,15.25,4.47,15.25,11.43,0,7.78-7,11.16-14.1,11.55v.12c7.34.58,14.48,1.41,14.48,10.6,0,6-3.76,11.87-16.4,11.87H64.7Zm21.87,36.3H98c4.27,0,5.73-1.77,5.73-4.38s-1.47-4.5-5.68-4.5H86.57Zm0-17h10.9c4.21,0,5.86-1.7,5.86-4.32,0-3-1.66-4.49-5.56-4.49H86.57Z" style="fill:#003664"/></svg>