<?xml version="1.0" encoding="UTF-8" standalone="no"?>
<!-- Created with Inkscape (http://www.inkscape.org/) -->

<svg
   xmlns:dc="http://purl.org/dc/elements/1.1/"
   xmlns:cc="http://creativecommons.org/ns#"
   xmlns:rdf="http://www.w3.org/1999/02/22-rdf-syntax-ns#"
   xmlns:svg="http://www.w3.org/2000/svg"
   xmlns="http://www.w3.org/2000/svg"
   xmlns:sodipodi="http://sodipodi.sourceforge.net/DTD/sodipodi-0.dtd"
   xmlns:inkscape="http://www.inkscape.org/namespaces/inkscape"
   width="609.05713"
   height="135.71982"
   viewBox="0 0 161.14636 35.909203"
   version="1.1"
   id="svg8"
   inkscape:version="0.92.3 (2405546, 2018-03-11)"
   sodipodi:docname="credit.svg">
  <defs
     id="defs2" />
  <sodipodi:namedview
     id="base"
     pagecolor="#00ffff"
     bordercolor="#666666"
     borderopacity="1.0"
     inkscape:pageopacity="0"
     inkscape:pageshadow="2"
     inkscape:zoom="0.7"
     inkscape:cx="-61.878514"
     inkscape:cy="-53.43331"
     inkscape:document-units="mm"
     inkscape:current-layer="layer1"
     showgrid="false"
     fit-margin-left="0.1"
     fit-margin-top="0.1"
     fit-margin-right="0.1"
     fit-margin-bottom="0.1"
     units="px"
     inkscape:window-width="1920"
     inkscape:window-height="1017"
     inkscape:window-x="-8"
     inkscape:window-y="-8"
     inkscape:window-maximized="1" />
  <metadata
     id="metadata5">
    <rdf:RDF>
      <cc:Work
         rdf:about="">
        <dc:format>image/svg+xml</dc:format>
        <dc:type
           rdf:resource="http://purl.org/dc/dcmitype/StillImage" />
        <dc:title></dc:title>
      </cc:Work>
    </rdf:RDF>
  </metadata>
  <g
     inkscape:label="Layer 1"
     inkscape:groupmode="layer"
     id="layer1"
     transform="translate(-13.920868,-79.074067)">
    <g
       id="g3803"
       transform="matrix(0.86609383,0,0,0.86609383,13.947326,78.840697)">
	<path
   id="path3771"
   d="M 82.3,25.6 H 70.1 v 2.8 h 0.4 v 0 c 0.1,-0.4 0.8,-1.2 1.7,-1.2 0,0 2.6,0 2.7,0 0,0.1 0,14.3 0,14.3 h 2.7 c 0,0 0,-14.2 0,-14.3 0.1,0 2.8,0 2.8,0 0.9,0 1.5,0.5 1.6,1 v 0.1 h 0.4 z"
   inkscape:connector-curvature="0"
   style="fill:#003662" />

	<path
   id="path3773"
   d="m 2.8,24.7 c 0,0 0,0 0,0 0,0 0,0 0,0 C 1,26.5 0,29.1 0,31.6 c 0,2.9 1.2,5.5 3.2,7.3 2,1.8 4.7,2.8 7.5,2.8 1.5,0 4.4,-0.3 7.3,-2 l 0.1,-0.1 0.3,-4 -0.5,-0.1 -0.1,0.2 C 15.7,40 12.5,40 11.2,40 c -5.5,0 -8,-4.6 -8,-8.8 0,-4.1 2.5,-8.3 8,-8.3 1.7,0 4.8,0.6 6.4,4.3 l 0.1,0.2 0.5,-0.2 L 18,23.1 17.9,23 c -2.6,-1.1 -4.7,-1.6 -6.8,-1.6 -3.4,0.1 -6.3,1.2 -8.3,3.3 z"
   inkscape:connector-curvature="0"
   style="fill:#003662" />

	<path
   id="path3775"
   d="m 21.1,25.6 v 0 L 21,26 v 0 c 0.2,0.1 0.5,0.7 0.5,1.4 v 14 h 2.6 c 0,0 0,-7.1 0,-7.2 0.1,0 1.1,0 1.1,0 1,0.1 1.4,0.7 2,1.6 0,0 0.1,0.1 0.1,0.1 l 0.3,0.6 c 0.6,0.9 1.3,2.2 2.1,3.4 0.6,0.9 1.3,1.3 2.2,1.5 0.6,0.1 1.9,0.1 2.4,-0.1 0,0 0.6,-0.1 0.6,-0.1 l 0.2,-0.1 -0.8,-0.2 c -0.3,-0.1 -0.8,-0.3 -1.5,-1.1 -0.4,-0.5 -1.1,-1.6 -2.1,-3.2 0,0 -1,-1.6 -1,-1.6 0,0 0,0 0,0 C 29.4,34.6 29,34 28.2,33.5 29.7,33 31.1,31.7 31.1,29.7 31.1,29.1 31,28 30,27.1 29,26.2 27.5,25.7 25.4,25.7 Z m 4.5,1.5 c 2.7,0.1 2.8,2.4 2.8,2.7 0,2.3 -1.7,3.1 -3.1,3.1 0,0 -0.9,0 -1.1,0 0,-0.1 0,-5.6 0,-5.7 0.3,-0.1 0.8,-0.2 1.4,-0.1 z"
   inkscape:connector-curvature="0"
   style="fill:#003662" />

	<path
   id="path3777"
   d="m 48,25.6 v 0 0.4 0 c 0.2,0.1 0.4,0.7 0.4,1.2 v 14.2 h 4.5 c 3,0 5.4,-0.9 7.1,-2.7 1.4,-1.5 2.2,-3.4 2.2,-5.5 0,-1.2 -0.4,-3.1 -1.6,-4.6 -1.6,-2 -4,-3.1 -7.3,-3.1 z m 3.1,1.6 c 0.1,0 1.4,0 1.4,0 0.4,0 1.3,0 2,0.1 4.4,0.7 4.9,4.4 4.9,6 0,1.3 -0.2,3.1 -1.3,4.6 C 57,39.3 55.3,40 53,40 c -0.5,0 -1.2,0 -1.9,0 0,-0.2 0,-12.7 0,-12.8 z"
   inkscape:connector-curvature="0"
   style="fill:#003662" />

	<path
   id="path3779"
   d="m 67.7,25.6 h -3.1 v 0.4 0 c 0.3,0.1 0.5,0.7 0.5,1.3 v 14.1 h 2.6 z"
   inkscape:connector-curvature="0"
   style="fill:#003662" />

	<path
   id="path3781"
   d="m 120.7,25.6 h -3.1 v 0.4 0 c 0.3,0.1 0.5,0.7 0.5,1.3 v 14.1 h 2.6 z"
   inkscape:connector-curvature="0"
   style="fill:#003662" />

	<path
   id="path3783"
   d="m 44.6,25.6 h -8.8 l 0.1,0.4 v 0 c 0.2,0.1 0.5,0.7 0.5,1.4 v 14 h 8.8 l 0.6,-2.8 -0.4,-0.1 -0.1,0.2 c -0.7,1.1 -1.5,1.3 -4,1.3 -0.9,0 -1.8,-0.1 -2.4,-0.1 0,-0.1 0,-6.3 0,-6.4 0.1,0 4.5,0 4.5,0 V 32 c 0,0 -4.3,0 -4.5,0 0,-0.1 0,-4.8 0,-4.9 0.1,0 3.6,0 3.6,0 0.8,0 1.7,0.8 1.8,1.3 v 0.1 h 0.4 z"
   inkscape:connector-curvature="0"
   style="fill:#003662" />

	<path
   id="path3785"
   d="m 157.4,25.6 h -8.8 v 0.4 0 c 0.2,0.1 0.5,0.6 0.5,1.4 v 14 h 8.8 l 0.6,-2.8 -0.4,-0.1 -0.1,0.2 c -0.7,1.1 -1.5,1.3 -4,1.3 -0.9,0 -1.8,-0.1 -2.4,-0.1 0,-0.1 0,-6.3 0,-6.4 0.1,0 4.5,0 4.5,0 V 32 c 0,0 -4.3,0 -4.5,0 0,-0.1 0,-4.8 0,-4.9 0.1,0 3.6,0 3.6,0 1,0 1.7,0.8 1.7,1.3 v 0.1 h 0.4 z"
   inkscape:connector-curvature="0"
   style="fill:#003662" />

	<path
   id="path3787"
   d="m 90,22.7 c -0.9,0.7 -2,1.9 -2.1,4 0,0 0,0 0,0.1 0,2.5 1.6,3.9 4.2,5.2 0,0 0,0 0,0 0.1,0.1 0.3,0.2 1,0.5 2.2,1.1 3.7,1.9 3.7,4.1 0,0.8 -0.3,1.9 -1.1,2.7 -0.7,0.7 -1.6,1 -2.7,1 -3.3,0 -4.5,-2.9 -4.8,-4.2 L 88.1,35.9 87.5,36 87.7,40.1 88,40 c 1.1,0.6 2.8,1.6 5.4,1.7 1.8,0 3.6,-0.7 4.9,-2 1.1,-1.1 1.7,-2.5 1.7,-4 0,-3.3 -2.4,-4.6 -4.9,-5.9 l -0.5,-0.3 c -2.6,-1.3 -3.8,-2.1 -3.8,-3.7 0,-1.1 0.9,-2.9 3.1,-2.9 2.6,0 4,2 4.3,3.2 l 0.1,0.2 0.6,-0.1 -0.2,-3.6 -0.1,-0.1 c -1.5,-1 -3.4,-1.2 -4.2,-1.2 -1.8,0.1 -3.3,0.6 -4.4,1.4 z"
   inkscape:connector-curvature="0"
   style="fill:#003662" />

	<path
   id="path3789"
   d="m 125,29.6 v 0 c 0,2.2 1.3,3.3 3.4,4.4 0,0 0.8,0.4 0.8,0.4 1.7,0.8 2.8,1.4 2.8,3 0,0.3 -0.1,1.2 -0.8,2 -0.5,0.5 -1.2,0.8 -2.1,0.7 -2.5,0 -3.4,-2 -3.8,-3.1 l -0.1,-0.2 -0.5,0.1 0.1,3.3 0.1,0.1 c 0.8,0.5 2.2,1.3 4.3,1.3 1.4,0 2.9,-0.6 3.9,-1.6 0.9,-0.9 1.3,-2 1.3,-3.2 0,-2.8 -1.9,-3.8 -3.9,-4.8 0,0 -0.4,-0.2 -0.4,-0.2 -2.2,-1.1 -2.9,-1.6 -2.9,-2.8 0,-0.9 0.6,-2.1 2.4,-2.1 2.1,0 3,1.6 3.2,2.4 l 0.1,0.2 0.5,-0.1 -0.2,-2.9 -0.1,-0.1 c -1.2,-0.8 -2.7,-0.9 -3.3,-0.9 -2.3,0 -4.8,1.4 -4.8,4.1 z"
   inkscape:connector-curvature="0"
   style="fill:#003662" />

	<path
   id="path3791"
   d="m 136.8,29.6 c 0,2.2 1.3,3.3 3.4,4.4 l 0.8,0.4 c 1.7,0.8 2.8,1.4 2.8,3 0,0.3 -0.1,1.2 -0.8,2 -0.5,0.5 -1.2,0.8 -2.1,0.7 -2.5,0 -3.4,-2 -3.8,-3.1 l -0.1,-0.2 -0.5,0.1 0.1,3.3 0.1,0.1 c 0.8,0.5 2.2,1.3 4.3,1.3 1.4,0 2.9,-0.6 3.9,-1.6 0.9,-0.9 1.3,-2 1.3,-3.2 0,-2.8 -1.9,-3.8 -3.9,-4.8 0,0 -0.4,-0.2 -0.4,-0.2 -2.2,-1.1 -2.9,-1.6 -2.9,-2.8 0,-0.5 0.2,-1.1 0.6,-1.5 0.4,-0.4 1,-0.6 1.7,-0.6 2.1,0 3,1.6 3.2,2.4 l 0.1,0.2 0.5,-0.1 -0.2,-2.9 -0.1,-0.1 c -1.2,-0.8 -2.7,-0.9 -3.3,-0.9 -2.1,0 -4.7,1.4 -4.7,4.1 z"
   inkscape:connector-curvature="0"
   style="fill:#003662" />

	<path
   id="path3793"
   d="m 114.2,25.6 h -2.1 v 0.4 0 c 0.1,0.1 0.4,0.3 0.4,1.3 v 9 c 0,1.7 -0.6,3.8 -3.7,3.8 -2.9,0 -3.5,-1.7 -3.5,-4.3 V 25.6 H 102 v 0.4 0 c 0.2,0.1 0.6,0.5 0.6,1.4 v 8.4 c 0,5.2 3.4,5.8 6,5.8 1.3,0 5.4,-0.4 5.4,-5.3 z"
   inkscape:connector-curvature="0"
   style="fill:#003662" />

	<g
   id="g3801">
		<path
   id="path3795"
   d="m 180.1,21.1 c 1.9,0.6 3.8,1.4 5.9,2.6 -5.1,-8.4 -14.1,-17.5 -23,-23.4 2.3,2.3 6,7.3 7,12.6 3.6,2.6 7,5.4 10.1,8.2 z"
   inkscape:connector-curvature="0"
   style="fill:#003662" />

		<path
   id="path3797"
   d="m 180.1,21.1 c -4.4,-1.4 -8.1,-1.5 -10.8,-1.2 1,-2.3 1.1,-4.7 0.7,-7 -6.7,-4.8 -14.2,-9 -21.3,-12.1 5.2,3.5 11,13.8 13.4,24.8 5.2,-1.5 13.1,-2.6 23.4,0.9 -1.7,-1.8 -3.5,-3.6 -5.4,-5.4 z"
   inkscape:connector-curvature="0"
   style="fill:#003662" />

		<path
   id="path3799"
   d="m 169.9,12.9 c 0.4,2.3 0.3,4.7 -0.6,7 2.8,-0.3 6.5,-0.2 10.8,1.2 -3.1,-2.8 -6.5,-5.6 -10.2,-8.2 z"
   inkscape:connector-curvature="0"
   style="fill:none" />

	</g>

</g>
  </g>
</svg>
