<svg xmlns="http://www.w3.org/2000/svg" viewBox="0 0 340.67 249.86">
    <title>SecretariumLogo</title>
	<path d="M119,39.06h0a29.61,29.61,0,0,1,29.6,29.46v.3A29.61,29.61,0,1,1,119,39.06m0-13.83A43.44,43.44,0,1,0,162.4,68.67,43.44,43.44,0,0,0,119,25.23" transform="translate(-29.83 -25.23)" style="fill:#e64a3c"/>
	<path d="M283.11,39.06h0a29.61,29.61,0,0,1,29.61,29.39v.44a29.61,29.61,0,0,1-59.21-.07v-.3a29.61,29.61,0,0,1,29.6-29.46m0-13.83a43.44,43.44,0,1,0,43.44,43.44,43.44,43.44,0,0,0-43.44-43.44" transform="translate(-29.83 -25.23)" style="fill:#e64a3c"/>
	<path d="M253.51,231.5a29.61,29.61,0,0,1,59.21-.07v.44a29.61,29.61,0,0,1-59.21-.07v-.3m29.6-43.29a43.44,43.44,0,1,0,43.44,43.44,43.44,43.44,0,0,0-43.44-43.44" transform="translate(-29.83 -25.23)" style="fill:#e64a3c"/>
	<path d="M31.79,154a6.91,6.91,0,0,0,9.78.14l30.27-29.42a73.52,73.52,0,0,1-9.49-10.07L31.93,144.18A6.92,6.92,0,0,0,31.79,154Z" transform="translate(-29.83 -25.23)" style="fill:#e64a3c"/>
	<path d="M226.5,114.61l-25.63,24.93-25.4-24.8A73,73,0,0,1,166,124.79l30,29.3a7.22,7.22,0,0,0,5,2,6.94,6.94,0,0,0,4.82-2L236,124.68A73.06,73.06,0,0,1,226.5,114.61Z" transform="translate(-29.83 -25.23)" style="fill:#e64a3c"/>
	<path d="M329.06,124.1,354,149.74l-24.79,25.4a72.93,72.93,0,0,1,10,9.52l29.3-30a7.22,7.22,0,0,0,2-5,6.89,6.89,0,0,0-2-4.82l-29.41-30.26A73.52,73.52,0,0,1,329.06,124.1Z" transform="translate(-29.83 -25.23)" style="fill:#e64a3c"/>
</svg>