<svg xmlns="http://www.w3.org/2000/svg" viewBox="0 0 1370.01 249.38"><title>secretarium_title</title><path d="M119.33,39.26h0a29.55,29.55,0,0,1,29.55,29.4V69a29.55,29.55,0,1,1-29.55-29.7m0-13.81a43.36,43.36,0,1,0,43.36,43.36,43.37,43.37,0,0,0-43.36-43.36" transform="translate(-30.37 -25.45)" style="fill:#e64a3c"/><path d="M283.17,39.26h0a29.56,29.56,0,0,1,29.55,29.33V69a29.55,29.55,0,0,1-59.1-.07v-.3a29.55,29.55,0,0,1,29.55-29.4m0-13.81a43.36,43.36,0,1,0,43.35,43.36,43.36,43.36,0,0,0-43.35-43.36" transform="translate(-30.37 -25.45)" style="fill:#e64a3c"/><path d="M253.62,231.32a29.55,29.55,0,0,1,59.1-.06v.44a29.55,29.55,0,0,1-59.1-.07v-.31m29.55-43.2a43.36,43.36,0,1,0,43.35,43.36,43.36,43.36,0,0,0-43.35-43.36" transform="translate(-30.37 -25.45)" style="fill:#e64a3c"/><path d="M32.33,153.94a6.89,6.89,0,0,0,9.76.13L72.3,124.71a73.26,73.26,0,0,1-9.47-10L32.47,144.17A6.91,6.91,0,0,0,32.33,153.94Z" transform="translate(-30.37 -25.45)" style="fill:#e64a3c"/><path d="M226.67,114.67l-25.59,24.87-25.35-24.75a72.75,72.75,0,0,1-9.5,10l30,29.24a7.22,7.22,0,0,0,4.95,2,6.87,6.87,0,0,0,4.81-2l30.21-29.36A72.65,72.65,0,0,1,226.67,114.67Z" transform="translate(-30.37 -25.45)" style="fill:#e64a3c"/><path d="M329,124.14l24.87,25.59-24.75,25.35a72.64,72.64,0,0,1,10,9.49l29.24-29.95a7.19,7.19,0,0,0,2-4.94,6.89,6.89,0,0,0-2-4.82l-29.36-30.2A72.65,72.65,0,0,1,329,124.14Z" transform="translate(-30.37 -25.45)" style="fill:#e64a3c"/><path d="M493.61,115.74a14,14,0,0,0-9.6,3.56,10.82,10.82,0,0,0-3.95,8.44q0,5.12,3.48,7.59c1.69,1.21,6.53,4.16,10.48,4.16H518.4c7.57.24,13.78,4.6,17,7q8.37,6.18,8.36,17.8a23,23,0,0,1-7.66,17.35,26,26,0,0,1-18.5,7.19H493a26,26,0,0,1-17.88-7.19,23,23,0,0,1-7.66-17.35h12.62a10.82,10.82,0,0,0,3.95,8.44,14.06,14.06,0,0,0,9,3.47l24.64,0a14.23,14.23,0,0,0,9.6-3.49,10.84,10.84,0,0,0,3.94-8.44q0-5.26-3.48-7.74c-1.72-1.26-6.61-4-10.13-4.08-.26-.08-21.95-.21-23.67-.22-8.29-.32-14.89-4.55-18.09-6.93q-8.35-6.1-8.36-17.57a23.18,23.18,0,0,1,7.66-17.42,26.06,26.06,0,0,1,18.51-7.2h21a25.93,25.93,0,0,1,17.83,7.19,23.19,23.19,0,0,1,7.67,17.42H527.52a10.85,10.85,0,0,0-3.95-8.44,13.94,13.94,0,0,0-8.93-3.55Z" transform="translate(-30.37 -25.45)" style="fill:#e64a3c"/><path d="M600,102.27a40.31,40.31,0,0,1,29.74,12.54,41.93,41.93,0,0,1,12.31,30.35v6.35h-71a29.51,29.51,0,0,0,10.22,17A28.27,28.27,0,0,0,600,175.36,28.59,28.59,0,0,0,615.26,171,30.28,30.28,0,0,0,626.1,159.1l11.3,5.73a41.82,41.82,0,0,1-15.56,16.95,41.77,41.77,0,0,1-51.72-6.35,43.47,43.47,0,0,1,0-60.62A40.48,40.48,0,0,1,600,102.27Zm28.81,36.54a29.62,29.62,0,0,0-10.22-17,28.71,28.71,0,0,0-37.32,0,29.51,29.51,0,0,0-10.22,17Z" transform="translate(-30.37 -25.45)" style="fill:#e64a3c"/><path d="M702.4,114.89a28.12,28.12,0,0,0-20.91,8.9,30.57,30.57,0,0,0,0,42.66,28.13,28.13,0,0,0,20.91,8.91q14.86,0,23.77-12.39l10.22,7.28Q723.78,188,702.4,188a40.48,40.48,0,0,1-29.89-12.54,43.47,43.47,0,0,1,0-60.62,40.48,40.48,0,0,1,29.89-12.54q21.38,0,34,17.73l-10.22,7.27Q717.26,114.9,702.4,114.89Z" transform="translate(-30.37 -25.45)" style="fill:#e64a3c"/><path d="M769.26,115.89q11.07-12.76,26.17-12.77h.77v12.39h-.77q-10.84,0-18.51,8.67a36.58,36.58,0,0,0-7.66,22.45v40.49H756.87v-84h12.39Z" transform="translate(-30.37 -25.45)" style="fill:#e64a3c"/><path d="M853.07,102.27a40.31,40.31,0,0,1,29.73,12.54,41.89,41.89,0,0,1,12.31,30.35v6.35h-71a29.56,29.56,0,0,0,10.22,17,29.07,29.07,0,0,0,34,2.48,30.21,30.21,0,0,0,10.84-11.92l11.31,5.73a41.91,41.91,0,0,1-15.57,16.95,41.77,41.77,0,0,1-51.72-6.35,43.5,43.5,0,0,1,0-60.62A40.48,40.48,0,0,1,853.07,102.27Zm28.8,36.54a29.51,29.51,0,0,0-10.22-17,28.71,28.71,0,0,0-37.32,0,29.56,29.56,0,0,0-10.22,17Z" transform="translate(-30.37 -25.45)" style="fill:#e64a3c"/><path d="M935.88,103.12H948v12.39H935.88v71.61H923.49V115.51H911.33V103.12h12.16v-29h12.39Z" transform="translate(-30.37 -25.45)" style="fill:#e64a3c"/><path d="M1048.49,187.12h-12.62V175.74a41.7,41.7,0,0,1-59.31-.31,43.47,43.47,0,0,1,0-60.62,41.6,41.6,0,0,1,59.31-.23V103.12h12.62Zm-42-11.76a27.79,27.79,0,0,0,20.75-8.91,29.27,29.27,0,0,0,8.67-21.29v-.08a29.29,29.29,0,0,0-8.67-21.29,27.78,27.78,0,0,0-20.75-8.9,28.07,28.07,0,0,0-20.9,8.9,30.55,30.55,0,0,0,0,42.66A28.08,28.08,0,0,0,1006.45,175.36Z" transform="translate(-30.37 -25.45)" style="fill:#e64a3c"/><path d="M1085.23,115.89q11.07-12.76,26.17-12.77h.77v12.39h-.77q-10.85,0-18.51,8.67a36.64,36.64,0,0,0-7.66,22.45v40.49h-12.39v-84h12.39Z" transform="translate(-30.37 -25.45)" style="fill:#e64a3c"/><path d="M1141.79,76.37a7.57,7.57,0,0,1,0,10.61,7.52,7.52,0,1,1,0-10.61Zm-11.46,110.75h12.39v-84h-12.39Z" transform="translate(-30.37 -25.45)" style="fill:#e64a3c"/><path d="M1241.4,187.12H1229v-9.83q-10.46,10.61-24.39,10.61-15.18,0-26-12.31t-10.76-29.73v-43h12.39v43q0,12.3,7.12,21t17.27,8.67q10.07,0,17.19-8.67a31.66,31.66,0,0,0,7.2-20.91V103.12h12.39Z" transform="translate(-30.37 -25.45)" style="fill:#e64a3c"/><path d="M1363.61,102.34q15.26,0,26,12.32t10.76,29.73v42.73H1388V144.39a32.2,32.2,0,0,0-7.12-21q-7.12-8.67-17.27-8.67t-17.19,8.67a32.2,32.2,0,0,0-7.12,21v42.73h-12.39V144.39a32,32,0,0,0-7.2-21q-7.12-8.67-17.19-8.67t-17.26,8.67q-7.12,8.67-7.12,20.91v42.81h-12.39v-84h12.39V113q10.44-10.61,24.38-10.61a32.73,32.73,0,0,1,17.58,5.11,40.24,40.24,0,0,1,13,13.63A39.46,39.46,0,0,1,1346,107.45,32.72,32.72,0,0,1,1363.61,102.34Z" transform="translate(-30.37 -25.45)" style="fill:#e64a3c"/></svg>